<svg xmlns="http://www.w3.org/2000/svg" xmlns:xlink="http://www.w3.org/1999/xlink" viewBox="0 0 22 22" fill="none">
<path d="M0.00439541 10.9996C0.00446749 11.1792 0.00894565 11.3587 0.0178299 11.5381C0.0267142 11.7175 0.0399939 11.8965 0.0576689 12.0753C0.0753439 12.254 0.0973931 12.4322 0.123816 12.6099C0.15024 12.7875 0.181005 12.9644 0.216114 13.1406C0.25122 13.3167 0.290629 13.4919 0.334336 13.6661C0.378044 13.8403 0.426 14.0134 0.478202 14.1852C0.530405 14.3571 0.586791 14.5275 0.647364 14.6966C0.707935 14.8657 0.772618 15.0332 0.841413 15.1991C0.910206 15.365 0.983029 15.5292 1.05988 15.6915C1.13673 15.8538 1.21752 16.0142 1.30225 16.1726C1.38697 16.3309 1.47553 16.4871 1.56792 16.6412C1.66032 16.7952 1.75643 16.9469 1.85627 17.0961C1.95611 17.2454 2.05955 17.3922 2.1666 17.5364C2.27364 17.6807 2.38415 17.8222 2.49815 17.961C2.61215 18.0998 2.72947 18.2357 2.85013 18.3688C2.97078 18.5018 3.09464 18.6318 3.2217 18.7587C3.34874 18.8857 3.47883 19.0095 3.61194 19.1301C3.74506 19.2506 3.88106 19.3679 4.01995 19.4818C4.15883 19.5957 4.30041 19.7061 4.4447 19.813C4.58899 19.92 4.73583 20.0233 4.88521 20.1231C5.03457 20.2228 5.18632 20.3188 5.3404 20.4111C5.49449 20.5034 5.65075 20.5918 5.80917 20.6765C5.9676 20.7611 6.128 20.8418 6.29038 20.9185C6.45276 20.9952 6.61694 21.068 6.78291 21.1367C6.94885 21.2053 7.11641 21.2699 7.28553 21.3304C7.45466 21.3908 7.62516 21.4471 7.79708 21.4991C7.96895 21.5512 8.14203 21.5991 8.31627 21.6427C8.49051 21.6863 8.66571 21.7256 8.84188 21.7606C9.01803 21.7954 9.19496 21.8262 9.37263 21.8526C9.55031 21.8788 9.72852 21.9007 9.90727 21.9183C10.086 21.936 10.2651 21.9491 10.4445 21.9579C10.6239 21.9665 10.8034 21.971 10.983 21.971C11.1626 21.9708 11.3421 21.9662 11.5215 21.9577C11.7009 21.9486 11.8799 21.9355 12.0587 21.9179C12.2374 21.9001 12.4156 21.8779 12.5933 21.8517C12.7709 21.8253 12.9478 21.7946 13.124 21.7596C13.3001 21.7243 13.4753 21.685 13.6495 21.6414C13.8238 21.5976 13.9968 21.5497 14.1687 21.4974C14.3405 21.4453 14.511 21.3889 14.6801 21.3284C14.8492 21.2678 15.0167 21.2032 15.1826 21.1344C15.3486 21.0656 15.5127 20.9928 15.675 20.916C15.8374 20.8392 15.9977 20.7584 16.1561 20.6737C16.3145 20.589 16.4707 20.5005 16.6248 20.4081C16.7788 20.3157 16.9305 20.2196 17.0798 20.1198C17.2291 20.02 17.3759 19.9166 17.5201 19.8095C17.6644 19.7025 17.8059 19.592 17.9447 19.478C18.0835 19.3641 18.2194 19.2468 18.3525 19.1261C18.4856 19.0055 18.6156 18.8816 18.7426 18.7546C18.8695 18.6276 18.9933 18.4975 19.1139 18.3644C19.2345 18.2313 19.3518 18.0953 19.4657 17.9564C19.5796 17.8176 19.6901 17.676 19.797 17.5317C19.904 17.3874 20.0073 17.2406 20.1071 17.0913C20.2069 16.9419 20.3029 16.7902 20.3952 16.6361C20.4875 16.482 20.576 16.3258 20.6606 16.1674C20.7453 16.009 20.826 15.8486 20.9027 15.6862C20.9795 15.5238 21.0522 15.3597 21.121 15.1937C21.1896 15.0277 21.2542 14.8602 21.3147 14.6911C21.3752 14.522 21.4315 14.3515 21.4836 14.1796C21.5358 14.0077 21.5837 13.8346 21.6271 13.6604C21.671 13.4862 21.7103 13.311 21.7451 13.1348C21.7801 12.9587 21.8108 12.7817 21.837 12.6041C21.8635 12.4264 21.8854 12.2482 21.903 12.0695C21.9206 11.8907 21.9339 11.7116 21.9425 11.5322C21.9513 11.3528 21.9556 11.1733 21.9556 10.9937C21.9556 10.8141 21.9513 10.6346 21.9423 10.4552C21.9337 10.2758 21.9204 10.0968 21.9028 9.91803C21.8852 9.73928 21.863 9.56106 21.8366 9.38341C21.8104 9.20575 21.7797 9.02883 21.7444 8.85268C21.7096 8.67653 21.6703 8.50135 21.6265 8.32713C21.5829 8.15291 21.535 7.97986 21.4828 7.80798C21.4306 7.63611 21.3743 7.46563 21.3137 7.29653C21.2532 7.12742 21.1886 6.95989 21.1198 6.79396C21.0511 6.62804 20.9783 6.4639 20.9015 6.30154C20.8247 6.13918 20.7439 5.9788 20.6593 5.82042C20.5746 5.66201 20.486 5.5058 20.3937 5.35176C20.3013 5.19769 20.2053 5.04602 20.1055 4.89668C20.0057 4.74734 19.9023 4.60056 19.7953 4.45629C19.6883 4.31204 19.5778 4.17051 19.4638 4.03167C19.3499 3.89284 19.2326 3.75689 19.112 3.62381C18.9913 3.49074 18.8675 3.3607 18.7405 3.2337C18.6135 3.10671 18.4834 2.98291 18.3504 2.8623C18.2173 2.74169 18.0813 2.62443 17.9424 2.51049C17.8036 2.39656 17.662 2.28609 17.5178 2.1791C17.3735 2.07212 17.2267 1.96874 17.0774 1.86896C16.928 1.76918 16.7763 1.67313 16.6222 1.58079C16.4682 1.48846 16.3119 1.39997 16.1536 1.31531C15.9951 1.23065 15.8347 1.14992 15.6724 1.07314C15.51 0.996348 15.3459 0.923592 15.1799 0.854863C15.014 0.786134 14.8464 0.721518 14.6773 0.661014C14.5082 0.600512 14.3377 0.544192 14.1659 0.492059C13.994 0.439925 13.8209 0.39204 13.6467 0.348401C13.4725 0.304764 13.2973 0.265426 13.1211 0.23039C12.9449 0.195353 12.768 0.164658 12.5904 0.138306C12.4127 0.111954 12.2345 0.0899766 12.0558 0.0723731C11.877 0.0547697 11.698 0.041562 11.5186 0.0327498C11.3392 0.0239374 11.1597 0.0195312 10.9801 0.0195312C10.8004 0.0195313 10.6208 0.0239405 10.4414 0.0327588C10.2619 0.0415772 10.0828 0.054794 9.90399 0.0724092C9.72517 0.0900247 9.54692 0.112017 9.3692 0.138387C9.19146 0.164757 9.01449 0.195473 8.83827 0.230534C8.66206 0.265594 8.48681 0.304958 8.31253 0.348625C8.13825 0.392294 7.96513 0.44021 7.79321 0.492379C7.62127 0.544547 7.45073 0.600905 7.28156 0.661448C7.11239 0.721993 6.94484 0.786652 6.77885 0.855426C6.61286 0.9242 6.44865 0.997006 6.28623 1.07384C6.12381 1.15068 5.96339 1.23146 5.80496 1.31617C5.64649 1.40089 5.49024 1.48944 5.33615 1.58183C5.18204 1.67422 5.0303 1.77034 4.88094 1.87018C4.73156 1.97002 4.58471 2.07348 4.44042 2.18054C4.29613 2.28759 4.15455 2.39811 4.01568 2.51211C3.8768 2.62612 3.74083 2.74347 3.60773 2.86415C3.47461 2.98483 3.34455 3.1087 3.21753 3.23578C3.09052 3.36286 2.96668 3.49297 2.84607 3.62613C2.72541 3.75927 2.60813 3.89531 2.4942 4.03423C2.38024 4.17313 2.26977 4.31475 2.16278 4.45911C2.05577 4.60344 1.95238 4.7503 1.8526 4.89973C1.75281 5.04915 1.65676 5.20092 1.56443 5.35505C1.4721 5.5092 1.38361 5.6655 1.29896 5.82396C1.21431 5.98245 1.13359 6.1429 1.05682 6.30534C0.980049 6.46779 0.90731 6.63203 0.838603 6.79804C0.769896 6.96405 0.705303 7.13165 0.644829 7.30084C0.584352 7.47003 0.528065 7.6406 0.475966 7.81256C0.423866 7.9845 0.376016 8.15762 0.33242 8.33192C0.288822 8.50622 0.249527 8.68149 0.214537 8.85773C0.179547 9.03397 0.148903 9.21093 0.122604 9.38867C0.096306 9.56641 0.0743848 9.74469 0.0568413 9.9235C0.0392978 10.1023 0.0261528 10.2814 0.0174066 10.4609C0.00866038 10.6404 0.00432331 10.8199 0.00439541 10.9996Z"   fill="#FFFFFF" >
</path>
<path d="M5.54074 9.5822L2.39917 4.14384C2.53681 3.97066 2.67956 3.80181 2.82742 3.63728C2.97527 3.47273 3.12797 3.31283 3.28551 3.15754C3.44303 3.00225 3.60511 2.85186 3.77174 2.70637C3.93837 2.56087 4.10925 2.42054 4.28436 2.2854C4.45948 2.15024 4.63853 2.0205 4.82149 1.89618C5.00447 1.77186 5.19102 1.65319 5.38118 1.54015C5.57132 1.42712 5.7647 1.31994 5.96134 1.2186C6.15799 1.11727 6.35749 1.02197 6.5599 0.93271C6.7623 0.843446 6.9672 0.760384 7.17463 0.683519C7.38206 0.606652 7.5916 0.536125 7.80328 0.471939C8.01497 0.40775 8.22842 0.350019 8.4436 0.298744C8.65879 0.24747 8.87533 0.202745 9.09321 0.164571C9.3111 0.126397 9.52994 0.0948423 9.74975 0.069908C9.96955 0.0449735 10.1899 0.0267046 10.4108 0.0151012C10.6317 0.00349787 10.8528 -0.00141871 11.0739 0.000351461C11.2951 0.00212162 11.5161 0.0105753 11.7368 0.0257125C11.9575 0.0408497 12.1775 0.0626428 12.3969 0.0910918C12.6163 0.119541 12.8346 0.154593 13.0518 0.19625C13.2691 0.237907 13.4848 0.28609 13.6992 0.340802C13.9135 0.395514 14.126 0.456655 14.3366 0.524223C14.5473 0.591789 14.7557 0.665661 14.9618 0.745836C15.168 0.826012 15.3716 0.912345 15.5725 1.00483C15.7734 1.09733 15.9714 1.1958 16.1664 1.30027C16.3614 1.40474 16.553 1.515 16.7413 1.63106C16.9297 1.74712 17.1143 1.86877 17.2953 1.996C17.4762 2.12323 17.6532 2.25582 17.8261 2.39377C17.999 2.5317 18.1676 2.67472 18.3319 2.82287C18.4962 2.97101 18.6558 3.12398 18.8109 3.28178C18.9659 3.43956 19.116 3.6019 19.2612 3.76879C19.4064 3.93566 19.5464 4.10678 19.6813 4.28214C19.8161 4.45749 19.9456 4.63676 20.0696 4.81993C20.1936 5.00311 20.3119 5.18987 20.4246 5.38022L11.4708 5.38022C11.3076 5.36381 11.1441 5.35721 10.9802 5.36044C10.9031 5.36095 10.826 5.36306 10.749 5.36675C10.672 5.37043 10.5951 5.37569 10.5183 5.38252C10.4415 5.38933 10.3649 5.39771 10.2884 5.40766C10.212 5.41761 10.1358 5.42912 10.0598 5.44219C9.98378 5.45525 9.90809 5.46986 9.8327 5.48601C9.75731 5.50215 9.68229 5.51983 9.60763 5.53906C9.53297 5.55827 9.45872 5.57898 9.3849 5.60123C9.31108 5.62347 9.23773 5.64721 9.16488 5.67245C9.09202 5.69768 9.01973 5.7244 8.94797 5.75259C8.87621 5.78078 8.80506 5.81043 8.7345 5.84154C8.66395 5.8726 8.59406 5.90513 8.52484 5.9391C8.45561 5.97304 8.38712 6.00838 8.31934 6.04512C8.25156 6.08186 8.18457 6.11997 8.11833 6.15946C8.0521 6.19893 7.98672 6.23975 7.92216 6.2819C7.8576 6.32403 7.79394 6.36747 7.73114 6.41225C7.66836 6.45698 7.60651 6.503 7.5456 6.55026C7.48469 6.59753 7.42479 6.64604 7.36586 6.69576C7.30693 6.74547 7.24905 6.79637 7.1922 6.84844C7.13533 6.90052 7.07958 6.95374 7.02491 7.0081C6.97023 7.06245 6.91669 7.1179 6.86427 7.17445C6.81187 7.231 6.76063 7.28857 6.71057 7.34723C6.66049 7.40584 6.61165 7.46548 6.56402 7.52611C6.51639 7.58673 6.47003 7.64831 6.42491 7.71083C6.37979 7.77335 6.33597 7.83677 6.29345 7.90109C6.25093 7.9654 6.20972 8.03054 6.16987 8.09654C6.13 8.16251 6.0915 8.22929 6.05435 8.29688C6.0172 8.36442 5.98147 8.43272 5.94712 8.50175C5.91277 8.57076 5.87983 8.64046 5.84834 8.71084C5.81682 8.7812 5.78676 8.85219 5.75814 8.92377C5.72955 8.99536 5.70241 9.06752 5.67674 9.14023C5.65107 9.21291 5.6269 9.28611 5.60423 9.3598C5.58156 9.43349 5.5604 9.50761 5.54074 9.58216L5.54074 9.5822Z"   fill="#DD4E41" >
</path>
<path d="M14.907 6.9707L21.2099 6.9707C21.2411 7.05022 21.2713 7.13009 21.3005 7.2103C21.3297 7.29052 21.358 7.37108 21.3854 7.45197C21.4127 7.53287 21.4391 7.61407 21.4645 7.69559C21.4899 7.7771 21.5143 7.85889 21.5378 7.94098C21.5613 8.02308 21.5838 8.10544 21.6053 8.18805C21.6269 8.27068 21.6475 8.35355 21.6672 8.43667C21.6866 8.51977 21.7052 8.60309 21.7228 8.68664C21.7404 8.7702 21.757 8.85394 21.7726 8.93788C21.7883 9.02182 21.8029 9.10594 21.8167 9.19023C21.8303 9.27452 21.8429 9.35895 21.8545 9.44353C21.8662 9.52812 21.8769 9.61283 21.8865 9.69767C21.8961 9.78251 21.9048 9.86744 21.9125 9.9525C21.9201 10.0375 21.9267 10.1227 21.9323 10.2078C21.9379 10.293 21.9425 10.3783 21.9462 10.4636C21.9498 10.5489 21.9524 10.6343 21.954 10.7196C21.9555 10.805 21.9561 10.8904 21.9557 10.9758C21.9558 11.1542 21.9516 11.3325 21.943 11.5107C21.9344 11.6889 21.9215 11.8668 21.9043 12.0443C21.887 12.2219 21.8654 12.3989 21.8395 12.5754C21.8137 12.752 21.7835 12.9277 21.749 13.1028C21.7145 13.2778 21.6757 13.4519 21.6328 13.6251C21.5898 13.7982 21.5427 13.9702 21.4914 14.1411C21.44 14.312 21.3845 14.4814 21.3248 14.6496C21.2652 14.8177 21.2015 14.9843 21.1338 15.1494C21.066 15.3144 20.9943 15.4777 20.9185 15.6392C20.8428 15.8008 20.7632 15.9604 20.6797 16.118C20.5962 16.2757 20.5089 16.4312 20.4178 16.5846C20.3267 16.738 20.2319 16.8891 20.1334 17.0378C20.035 17.1866 19.9329 17.3329 19.8273 17.4767C19.7217 17.6205 19.6126 17.7616 19.5002 17.9001C19.3877 18.0385 19.2719 18.1742 19.1528 18.307C19.0336 18.4399 18.9114 18.5697 18.7859 18.6966C18.6605 18.8234 18.532 18.9471 18.4005 19.0677C18.2691 19.1883 18.1347 19.3056 17.9975 19.4197C17.8603 19.5337 17.7204 19.6443 17.5778 19.7515C17.4352 19.8587 17.2901 19.9624 17.1424 20.0625C16.9948 20.1626 16.8447 20.2591 16.6924 20.3519C16.54 20.4447 16.3855 20.5338 16.2287 20.619C16.072 20.7043 15.9134 20.7857 15.7527 20.8632C15.592 20.9408 15.4295 21.0143 15.2652 21.0839C15.101 21.1535 14.9351 21.2191 14.7676 21.2806C14.6002 21.3421 14.4313 21.3995 14.261 21.4527C14.0908 21.5061 13.9193 21.5552 13.7466 21.6C13.574 21.645 13.4003 21.6856 13.2257 21.722C13.051 21.7584 12.8756 21.7906 12.6994 21.8185C12.5231 21.8463 12.3464 21.8698 12.169 21.8892C11.9916 21.9084 11.8139 21.9233 11.6358 21.9339C11.4577 21.9445 11.2795 21.9507 11.1011 21.9526L15.5978 14.1767C15.6446 14.1094 15.6898 14.041 15.7336 13.9717C15.7774 13.9024 15.8196 13.8321 15.8603 13.7609C15.9009 13.6897 15.94 13.6177 15.9776 13.5448C16.0151 13.4719 16.051 13.3982 16.0853 13.3238C16.1196 13.2493 16.1522 13.1741 16.1832 13.0982C16.2142 13.0223 16.2435 12.9457 16.2711 12.8685C16.2987 12.7913 16.3246 12.7136 16.3488 12.6353C16.3731 12.5569 16.3956 12.4781 16.4163 12.3988C16.4371 12.3195 16.4561 12.2397 16.4733 12.1596C16.4906 12.0794 16.506 11.9989 16.5198 11.9181C16.5335 11.8373 16.5455 11.7562 16.5556 11.6748C16.5658 11.5935 16.5741 11.5119 16.5807 11.4302C16.5873 11.3485 16.5921 11.2667 16.5951 11.1847C16.5981 11.1028 16.5993 11.0209 16.5987 10.9389C16.5981 10.8569 16.5957 10.7749 16.5915 10.6931C16.5873 10.6112 16.5813 10.5294 16.5735 10.4478C16.5657 10.3662 16.5561 10.2848 16.5448 10.2036C16.5334 10.1224 16.5203 10.0415 16.5054 9.96088C16.4905 9.88027 16.4738 9.80002 16.4554 9.72012C16.4369 9.64024 16.4168 9.56079 16.3948 9.4818C16.3729 9.4028 16.3493 9.32432 16.3239 9.24635C16.2986 9.16838 16.2715 9.091 16.2427 9.01423C16.214 8.93745 16.1835 8.86133 16.1514 8.7859C16.1194 8.71046 16.0856 8.63575 16.0502 8.56179C16.0149 8.48783 15.9779 8.41468 15.9393 8.34235C15.9007 8.27001 15.8605 8.19855 15.8188 8.12798C15.7771 8.0574 15.7338 7.98777 15.6891 7.91909C15.6443 7.85041 15.598 7.78275 15.5503 7.7161C15.5025 7.64946 15.4533 7.58389 15.4027 7.51939C15.3521 7.45491 15.3001 7.39157 15.2467 7.32936C15.1932 7.26716 15.1385 7.20615 15.0824 7.14634C15.0263 7.08654 14.969 7.02799 14.9103 6.9707L14.907 6.9707Z"   fill="#FFCD41" >
</path>
<path d="M6.9939 11.0005C6.99383 10.9353 6.99535 10.8701 6.99848 10.8049C7.00161 10.7397 7.00634 10.6746 7.01265 10.6097C7.01899 10.5447 7.02691 10.48 7.03642 10.4154C7.04593 10.3509 7.05701 10.2866 7.06967 10.2226C7.08234 10.1586 7.09656 10.0949 7.11234 10.0316C7.12813 9.96825 7.14546 9.90536 7.16433 9.84291C7.18323 9.78045 7.20363 9.71847 7.22554 9.65701C7.24746 9.59554 7.27087 9.53465 7.2958 9.47435C7.3207 9.41404 7.34708 9.35438 7.37492 9.29536C7.40277 9.23634 7.43204 9.17803 7.46273 9.12045C7.49344 9.06288 7.52554 9.00609 7.55902 8.95008C7.59252 8.89408 7.62737 8.83893 7.66357 8.78463C7.69977 8.73034 7.73729 8.67696 7.7761 8.62451C7.81493 8.57206 7.85502 8.5206 7.89637 8.47012C7.93772 8.41963 7.98028 8.3702 8.02405 8.32182C8.06784 8.27342 8.11278 8.22613 8.15887 8.17995C8.20497 8.13376 8.25218 8.08873 8.30049 8.04486C8.3488 8.00101 8.39816 7.95835 8.44856 7.9169C8.49896 7.87547 8.55035 7.83529 8.60273 7.79637C8.65511 7.75744 8.70842 7.71983 8.76264 7.68354C8.81687 7.64723 8.87195 7.61228 8.9279 7.57869C8.98385 7.54509 9.04058 7.51289 9.0981 7.48208C9.15561 7.45127 9.21385 7.42189 9.27283 7.39395C9.3318 7.36599 9.39142 7.3395 9.45169 7.31448C9.51195 7.28946 9.57279 7.26593 9.63422 7.2439C9.69564 7.22186 9.75756 7.20134 9.81999 7.18235C9.88243 7.16336 9.94529 7.14591 10.0086 7.13001C10.0719 7.1141 10.1355 7.09976 10.1995 7.08698C10.2635 7.0742 10.3277 7.063 10.3923 7.05338C10.4568 7.04375 10.5216 7.03572 10.5865 7.02927C10.6514 7.02283 10.7165 7.01798 10.7817 7.01473C10.8468 7.01148 10.9121 7.00982 10.9773 7.00977C11.0426 7.00972 11.1078 7.01128 11.173 7.01443C11.2381 7.01759 11.3032 7.02235 11.3681 7.02869C11.4331 7.03504 11.4978 7.04298 11.5624 7.05252C11.627 7.06205 11.6912 7.07315 11.7552 7.08584C11.8192 7.09852 11.8829 7.11276 11.9462 7.12857C12.0095 7.14439 12.0724 7.16175 12.1349 7.18065C12.1973 7.19956 12.2593 7.21998 12.3207 7.24193C12.3822 7.26387 12.4431 7.28731 12.5034 7.31224C12.5637 7.33717 12.6233 7.36356 12.6823 7.39144C12.7414 7.41929 12.7996 7.44858 12.8572 7.47931C12.9148 7.51003 12.9716 7.54215 13.0275 7.57566C13.0835 7.60918 13.1387 7.64405 13.193 7.68027C13.2472 7.71649 13.3006 7.75403 13.353 7.79287C13.4055 7.83171 13.4569 7.87182 13.5074 7.91318C13.5578 7.95455 13.6073 7.99713 13.6556 8.04093C13.704 8.08471 13.7513 8.12967 13.7975 8.17579C13.8436 8.22191 13.8886 8.26913 13.9325 8.31746C13.9763 8.36578 14.019 8.41516 14.0604 8.46559C14.1018 8.51601 14.142 8.56741 14.1809 8.6198C14.2198 8.6722 14.2574 8.72552 14.2936 8.77976C14.3299 8.834 14.3649 8.88909 14.3984 8.94503C14.432 9.001 14.4642 9.05774 14.495 9.11528C14.5258 9.17281 14.5551 9.23106 14.5831 9.29003C14.611 9.34901 14.6375 9.40865 14.6624 9.46891C14.6875 9.52919 14.711 9.59006 14.733 9.65148C14.755 9.71291 14.7755 9.77485 14.7944 9.83728C14.8134 9.89971 14.8308 9.96258 14.8467 10.0259C14.8626 10.0892 14.8769 10.1528 14.8897 10.2168C14.9024 10.2808 14.9136 10.3451 14.9232 10.4096C14.9328 10.4742 14.9408 10.5389 14.9472 10.6038C14.9537 10.6688 14.9585 10.7338 14.9617 10.799C14.9649 10.8642 14.9666 10.9294 14.9666 10.9947C14.9666 11.0599 14.965 11.1251 14.9619 11.1903C14.9587 11.2555 14.9539 11.3205 14.9475 11.3855C14.9412 11.4504 14.9332 11.5152 14.9236 11.5797C14.9141 11.6443 14.903 11.7086 14.8902 11.7726C14.8775 11.8366 14.8633 11.9002 14.8474 11.9635C14.8316 12.0268 14.8142 12.0897 14.7953 12.1522C14.7764 12.2146 14.7559 12.2766 14.734 12.338C14.712 12.3995 14.6885 12.4603 14.6636 12.5206C14.6386 12.5809 14.6122 12.6406 14.5843 12.6996C14.5564 12.7586 14.5271 12.8168 14.4964 12.8744C14.4656 12.932 14.4335 12.9887 14.3999 13.0447C14.3664 13.1007 14.3315 13.1558 14.2953 13.2101C14.259 13.2643 14.2215 13.3177 14.1826 13.3701C14.1438 13.4225 14.1037 13.4739 14.0623 13.5244C14.0209 13.5749 13.9783 13.6243 13.9345 13.6726C13.8907 13.721 13.8457 13.7682 13.7995 13.8144C13.7534 13.8605 13.7062 13.9055 13.6578 13.9494C13.6095 13.9932 13.5601 14.0358 13.5097 14.0772C13.4592 14.1186 13.4078 14.1588 13.3554 14.1976C13.303 14.2365 13.2497 14.2741 13.1954 14.3103C13.1412 14.3466 13.086 14.3815 13.0301 14.4151C12.9741 14.4486 12.9174 14.4808 12.8598 14.5116C12.8022 14.5423 12.744 14.5717 12.685 14.5996C12.626 14.6275 12.5664 14.6539 12.5061 14.6789C12.4458 14.7039 12.3849 14.7274 12.3235 14.7493C12.2621 14.7713 12.2001 14.7918 12.1377 14.8107C12.0752 14.8297 12.0124 14.8471 11.9491 14.863C11.8858 14.8788 11.8221 14.8931 11.7581 14.9059C11.6941 14.9186 11.6299 14.9297 11.5653 14.9393C11.5007 14.9489 11.436 14.9569 11.3711 14.9633C11.3061 14.9697 11.2411 14.9745 11.1759 14.9777C11.1107 14.9809 11.0455 14.9825 10.9802 14.9825C10.9151 14.9824 10.8499 14.9808 10.7848 14.9776C10.7197 14.9743 10.6547 14.9695 10.5899 14.9631C10.525 14.9567 10.4603 14.9487 10.3958 14.9391C10.3314 14.9295 10.2672 14.9184 10.2032 14.9056C10.1393 14.8929 10.0757 14.8786 10.0125 14.8628C9.94926 14.8469 9.88647 14.8295 9.8241 14.8106C9.76173 14.7916 9.69985 14.7712 9.63847 14.7492C9.57711 14.7273 9.51631 14.7038 9.45609 14.6789C9.39587 14.6539 9.33629 14.6275 9.27736 14.5997C9.21843 14.5718 9.16023 14.5425 9.10274 14.5118C9.04525 14.4811 8.98854 14.4489 8.93263 14.4155C8.87671 14.382 8.82164 14.3471 8.76743 14.3109C8.71323 14.2747 8.65995 14.2372 8.60757 14.1984C8.5552 14.1596 8.50382 14.1195 8.45342 14.0782C8.40302 14.0368 8.35365 13.9943 8.30533 13.9506C8.257 13.9068 8.20979 13.8619 8.16368 13.8158C8.11756 13.7697 8.07259 13.7226 8.02878 13.6743C7.98498 13.626 7.94238 13.5767 7.90099 13.5264C7.85961 13.476 7.81949 13.4247 7.78061 13.3723C7.74174 13.32 7.70418 13.2667 7.66793 13.2126C7.63166 13.1584 7.59675 13.1034 7.56319 13.0475C7.52963 12.9916 7.49746 12.935 7.46666 12.8775C7.43588 12.82 7.40653 12.7619 7.3786 12.703C7.35067 12.6441 7.3242 12.5845 7.29919 12.5244C7.27418 12.4642 7.25066 12.4034 7.22862 12.342C7.20659 12.2807 7.18608 12.2188 7.16708 12.1565C7.14808 12.0941 7.13062 12.0314 7.11471 11.9681C7.09878 11.9049 7.08441 11.8414 7.07161 11.7774C7.0588 11.7135 7.04757 11.6494 7.03792 11.5849C7.02825 11.5204 7.02017 11.4558 7.01369 11.3909C7.0072 11.326 7.00231 11.2611 6.99901 11.196C6.9957 11.1309 6.994 11.0657 6.9939 11.0005Z"   fill="#4C8BF5" >
</path>
<path d="M12.4914 16.4146L9.34987 21.8738C9.18915 21.8495 9.02902 21.8215 8.86952 21.79C8.71002 21.7585 8.55132 21.7235 8.39336 21.6849C8.23541 21.6464 8.0784 21.6044 7.9223 21.559C7.76624 21.5135 7.61123 21.4646 7.45731 21.4122C7.3034 21.3599 7.15073 21.3042 6.99927 21.245C6.84784 21.1859 6.69778 21.1234 6.54908 21.0576C6.40041 20.9919 6.25328 20.9228 6.10766 20.8505C5.96204 20.7782 5.81812 20.7027 5.67585 20.624C5.53358 20.5453 5.39314 20.4635 5.25448 20.3786C5.11586 20.2937 4.97918 20.2058 4.84443 20.1148C4.7097 20.0238 4.57703 19.9299 4.44645 19.833C4.31589 19.7362 4.18752 19.6365 4.06136 19.5339C3.93521 19.4314 3.81139 19.3261 3.6899 19.218C3.56843 19.11 3.44938 18.9993 3.33281 18.886C3.21623 18.7727 3.10224 18.6568 2.99078 18.5385C2.87936 18.4201 2.77058 18.2993 2.66449 18.1761C2.5584 18.0529 2.45511 17.9274 2.35458 17.7996C2.25408 17.6719 2.15643 17.5419 2.06167 17.4098C1.96691 17.2777 1.87512 17.1436 1.78631 17.0074C1.6975 16.8712 1.61175 16.7331 1.52906 16.5931C1.44637 16.4532 1.36682 16.3114 1.29042 16.1679C1.21401 16.0244 1.14082 15.8793 1.07085 15.7325C1.00088 15.5858 0.934201 15.4376 0.870803 15.2879C0.807404 15.1381 0.747355 14.9871 0.690656 14.8347C0.633957 14.6824 0.58066 14.5288 0.530767 14.3741C0.480876 14.2194 0.434438 14.0636 0.391452 13.9068C0.348466 13.75 0.308975 13.5923 0.272983 13.4338C0.236988 13.2753 0.204524 13.116 0.175591 12.956C0.146658 12.796 0.121285 12.6355 0.0994705 12.4744C0.0776561 12.3133 0.0594223 12.1518 0.0447696 11.9898C0.0301164 11.8279 0.0190585 11.6658 0.0115958 11.5034C0.00413301 11.341 0.000272656 11.1785 1.47239e-05 11.0159C-8.19577e-05 10.9573 0.000297492 10.8986 0.00115307 10.84C0.00200865 10.7814 0.00334024 10.7228 0.00514785 10.6642C0.00695548 10.6055 0.00923888 10.547 0.011998 10.4884C0.0147572 10.4298 0.0179919 10.3713 0.021702 10.3128C0.0254119 10.2542 0.0295967 10.1958 0.0342566 10.1373C0.0389166 10.0789 0.0440507 10.0205 0.0496592 9.96208C0.0552675 9.90371 0.0613497 9.8454 0.0679054 9.78714C0.074461 9.72887 0.0814894 9.67067 0.0889904 9.61251C0.0964915 9.55435 0.104464 9.49626 0.112909 9.43823C0.121353 9.3802 0.130268 9.32226 0.139654 9.26438C0.149039 9.2065 0.158895 9.14871 0.169219 9.091C0.179543 9.03327 0.190336 8.97565 0.201596 8.91809C0.212857 8.86056 0.224585 8.80311 0.236777 8.74577C0.24897 8.6884 0.261628 8.63115 0.274753 8.574C0.287876 8.51685 0.301462 8.45981 0.315511 8.4029C0.32956 8.34599 0.344072 8.28916 0.359045 8.23246C0.374017 8.17577 0.389447 8.11922 0.405339 8.06278C0.421231 8.00634 0.437579 7.95003 0.454384 7.89385C0.471191 7.83767 0.488452 7.78164 0.506165 7.72575C0.523881 7.66985 0.542051 7.61411 0.560671 7.55852C0.579292 7.50292 0.598363 7.44747 0.617884 7.39219C0.637407 7.33689 0.657377 7.28176 0.677793 7.2268C0.69821 7.17183 0.719071 7.11703 0.740377 7.0624C0.761683 7.00779 0.783434 6.95334 0.805625 6.89906C0.827817 6.84479 0.850446 6.7907 0.873516 6.73681C0.896586 6.6829 0.920092 6.62918 0.944034 6.57565C0.967976 6.52213 0.99235 6.4688 1.01716 6.41568C1.04197 6.36256 1.06721 6.30963 1.09287 6.25691C1.11854 6.20419 1.14463 6.15168 1.17115 6.09939C1.19768 6.04709 1.22462 5.99502 1.25198 5.94317C1.27935 5.89131 1.30714 5.83968 1.33534 5.78827C1.36355 5.73687 1.39217 5.6857 1.4212 5.63477L5.89815 13.371C5.92642 13.4308 5.95573 13.4902 5.98606 13.5491C6.01644 13.6079 6.04781 13.6662 6.08021 13.7239C6.11261 13.7817 6.14601 13.8388 6.18043 13.8954C6.21485 13.952 6.25023 14.0079 6.28661 14.0632C6.323 14.1186 6.36034 14.1732 6.39863 14.2272C6.43693 14.2813 6.47616 14.3346 6.51634 14.3872C6.55652 14.4399 6.59762 14.4918 6.6396 14.543C6.6816 14.5942 6.72448 14.6446 6.76824 14.6943C6.81203 14.7439 6.85665 14.7928 6.90213 14.8409C6.94764 14.8891 6.99396 14.9364 7.04112 14.9829C7.08828 15.0293 7.13623 15.075 7.18498 15.1198C7.23375 15.1646 7.28327 15.2085 7.33356 15.2515C7.38388 15.2946 7.43493 15.3368 7.4867 15.378C7.53848 15.4193 7.59099 15.4596 7.64418 15.4991C7.69738 15.5385 7.75126 15.5769 7.80581 15.6145C7.86038 15.652 7.91557 15.6885 7.97139 15.7241C8.02725 15.7597 8.08369 15.7943 8.14075 15.8279C8.19781 15.8615 8.25543 15.8941 8.31364 15.9257C8.37184 15.9572 8.43058 15.9878 8.48985 16.0173C8.54913 16.0468 8.6089 16.0752 8.66916 16.1026C8.72945 16.1301 8.7902 16.1564 8.85139 16.1817C8.91258 16.2069 8.97422 16.2311 9.03626 16.2542C9.09831 16.2773 9.16074 16.2993 9.22356 16.3202C9.28641 16.3411 9.34959 16.3609 9.4131 16.3796C9.47663 16.3983 9.54046 16.4159 9.60459 16.4323C9.66874 16.4488 9.73313 16.4641 9.7978 16.4783C9.86249 16.4925 9.92739 16.5055 9.99251 16.5174C10.0577 16.5293 10.123 16.5401 10.1885 16.5497C10.254 16.5593 10.3197 16.5677 10.3855 16.575C10.4513 16.5823 10.5172 16.5884 10.5832 16.5934C10.6493 16.5984 10.7154 16.6022 10.7815 16.6049C10.8477 16.6075 10.9139 16.609 10.9801 16.6093C11.1075 16.6079 11.2348 16.6027 11.3619 16.5938C11.489 16.5848 11.6157 16.5722 11.7421 16.5558C11.8684 16.5395 11.9942 16.5194 12.1194 16.4957C12.2446 16.4719 12.369 16.4446 12.4926 16.4135L12.4914 16.4146Z"   fill="#1DA362" >
</path>
</svg>
