<svg xmlns="http://www.w3.org/2000/svg" xmlns:xlink="http://www.w3.org/1999/xlink"  viewBox="0 0 22 22" fill="none">
<path d="M0.00439541 10.9996C0.00446749 11.1792 0.00894565 11.3587 0.0178299 11.5381C0.0267142 11.7175 0.0399939 11.8965 0.0576689 12.0753C0.0753439 12.254 0.0973931 12.4322 0.123816 12.6099C0.15024 12.7875 0.181005 12.9644 0.216114 13.1406C0.25122 13.3167 0.290629 13.4919 0.334336 13.6661C0.378044 13.8403 0.426 14.0134 0.478202 14.1852C0.530405 14.3571 0.586791 14.5275 0.647364 14.6966C0.707935 14.8657 0.772618 15.0332 0.841413 15.1991C0.910206 15.365 0.983029 15.5292 1.05988 15.6915C1.13673 15.8538 1.21752 16.0142 1.30225 16.1726C1.38697 16.3309 1.47553 16.4871 1.56792 16.6412C1.66032 16.7952 1.75643 16.9469 1.85627 17.0961C1.95611 17.2454 2.05955 17.3922 2.1666 17.5364C2.27364 17.6807 2.38415 17.8222 2.49815 17.961C2.61215 18.0998 2.72947 18.2357 2.85013 18.3688C2.97078 18.5018 3.09464 18.6318 3.2217 18.7587C3.34874 18.8857 3.47883 19.0095 3.61194 19.1301C3.74506 19.2506 3.88106 19.3679 4.01995 19.4818C4.15883 19.5957 4.30041 19.7061 4.4447 19.813C4.58899 19.92 4.73583 20.0233 4.88521 20.1231C5.03457 20.2228 5.18632 20.3188 5.3404 20.4111C5.49449 20.5034 5.65075 20.5918 5.80917 20.6765C5.9676 20.7611 6.128 20.8418 6.29038 20.9185C6.45276 20.9952 6.61694 21.068 6.78291 21.1367C6.94885 21.2053 7.11641 21.2699 7.28553 21.3304C7.45466 21.3908 7.62516 21.4471 7.79708 21.4991C7.96895 21.5512 8.14203 21.5991 8.31627 21.6427C8.49051 21.6863 8.66571 21.7256 8.84188 21.7606C9.01803 21.7954 9.19496 21.8262 9.37263 21.8526C9.55031 21.8788 9.72852 21.9007 9.90727 21.9183C10.086 21.936 10.2651 21.9491 10.4445 21.9579C10.6239 21.9665 10.8034 21.971 10.983 21.971C11.1626 21.9708 11.3421 21.9662 11.5215 21.9577C11.7009 21.9486 11.8799 21.9355 12.0587 21.9179C12.2374 21.9001 12.4156 21.8779 12.5933 21.8517C12.7709 21.8253 12.9478 21.7946 13.124 21.7596C13.3001 21.7243 13.4753 21.685 13.6495 21.6414C13.8238 21.5976 13.9968 21.5497 14.1687 21.4974C14.3405 21.4453 14.511 21.3889 14.6801 21.3284C14.8492 21.2678 15.0167 21.2032 15.1826 21.1344C15.3486 21.0656 15.5127 20.9928 15.675 20.916C15.8374 20.8392 15.9977 20.7584 16.1561 20.6737C16.3145 20.589 16.4707 20.5005 16.6248 20.4081C16.7788 20.3157 16.9305 20.2196 17.0798 20.1198C17.2291 20.02 17.3759 19.9166 17.5201 19.8095C17.6644 19.7025 17.8059 19.592 17.9447 19.478C18.0835 19.3641 18.2194 19.2468 18.3525 19.1261C18.4856 19.0055 18.6156 18.8816 18.7426 18.7546C18.8695 18.6276 18.9933 18.4975 19.1139 18.3644C19.2345 18.2313 19.3518 18.0953 19.4657 17.9564C19.5796 17.8176 19.6901 17.676 19.797 17.5317C19.904 17.3874 20.0073 17.2406 20.1071 17.0913C20.2069 16.9419 20.3029 16.7902 20.3952 16.6361C20.4875 16.482 20.576 16.3258 20.6606 16.1674C20.7453 16.009 20.826 15.8486 20.9027 15.6862C20.9795 15.5238 21.0522 15.3597 21.121 15.1937C21.1896 15.0277 21.2542 14.8602 21.3147 14.6911C21.3752 14.522 21.4315 14.3515 21.4836 14.1796C21.5358 14.0077 21.5837 13.8346 21.6271 13.6604C21.671 13.4862 21.7103 13.311 21.7451 13.1348C21.7801 12.9587 21.8108 12.7817 21.837 12.6041C21.8635 12.4264 21.8854 12.2482 21.903 12.0695C21.9206 11.8907 21.9339 11.7116 21.9425 11.5322C21.9513 11.3528 21.9556 11.1733 21.9556 10.9937C21.9556 10.8141 21.9513 10.6346 21.9423 10.4552C21.9337 10.2758 21.9204 10.0968 21.9028 9.91803C21.8852 9.73928 21.863 9.56106 21.8366 9.38341C21.8104 9.20575 21.7797 9.02883 21.7444 8.85268C21.7096 8.67653 21.6703 8.50135 21.6265 8.32713C21.5829 8.15291 21.535 7.97986 21.4828 7.80798C21.4306 7.63611 21.3743 7.46563 21.3137 7.29653C21.2532 7.12742 21.1886 6.95989 21.1198 6.79396C21.0511 6.62804 20.9783 6.4639 20.9015 6.30154C20.8247 6.13918 20.7439 5.9788 20.6593 5.82042C20.5746 5.66201 20.486 5.5058 20.3937 5.35176C20.3013 5.19769 20.2053 5.04602 20.1055 4.89668C20.0057 4.74734 19.9023 4.60056 19.7953 4.45629C19.6883 4.31204 19.5778 4.17051 19.4638 4.03167C19.3499 3.89284 19.2326 3.75689 19.112 3.62381C18.9913 3.49074 18.8675 3.3607 18.7405 3.2337C18.6135 3.10671 18.4834 2.98291 18.3504 2.8623C18.2173 2.74169 18.0813 2.62443 17.9424 2.51049C17.8036 2.39656 17.662 2.28609 17.5178 2.1791C17.3735 2.07212 17.2267 1.96874 17.0774 1.86896C16.928 1.76918 16.7763 1.67313 16.6222 1.58079C16.4682 1.48846 16.3119 1.39997 16.1536 1.31531C15.9951 1.23065 15.8347 1.14992 15.6724 1.07314C15.51 0.996348 15.3459 0.923592 15.1799 0.854863C15.014 0.786134 14.8464 0.721518 14.6773 0.661014C14.5082 0.600512 14.3377 0.544192 14.1659 0.492059C13.994 0.439925 13.8209 0.39204 13.6467 0.348401C13.4725 0.304764 13.2973 0.265426 13.1211 0.23039C12.9449 0.195353 12.768 0.164658 12.5904 0.138306C12.4127 0.111954 12.2345 0.0899766 12.0558 0.0723731C11.877 0.0547697 11.698 0.041562 11.5186 0.0327498C11.3392 0.0239374 11.1597 0.0195312 10.9801 0.0195312C10.8004 0.0195313 10.6208 0.0239405 10.4414 0.0327588C10.2619 0.0415772 10.0828 0.054794 9.90399 0.0724092C9.72517 0.0900247 9.54692 0.112017 9.3692 0.138387C9.19146 0.164757 9.01449 0.195473 8.83827 0.230534C8.66206 0.265594 8.48681 0.304958 8.31253 0.348625C8.13825 0.392294 7.96513 0.44021 7.79321 0.492379C7.62127 0.544547 7.45073 0.600905 7.28156 0.661448C7.11239 0.721993 6.94484 0.786652 6.77885 0.855426C6.61286 0.9242 6.44865 0.997006 6.28623 1.07384C6.12381 1.15068 5.96339 1.23146 5.80496 1.31617C5.64649 1.40089 5.49024 1.48944 5.33615 1.58183C5.18204 1.67422 5.0303 1.77034 4.88094 1.87018C4.73156 1.97002 4.58471 2.07348 4.44042 2.18054C4.29613 2.28759 4.15455 2.39811 4.01568 2.51211C3.8768 2.62612 3.74083 2.74347 3.60773 2.86415C3.47461 2.98483 3.34455 3.1087 3.21753 3.23578C3.09052 3.36286 2.96668 3.49297 2.84607 3.62613C2.72541 3.75927 2.60813 3.89531 2.4942 4.03423C2.38024 4.17313 2.26977 4.31475 2.16278 4.45911C2.05577 4.60344 1.95238 4.7503 1.8526 4.89973C1.75281 5.04915 1.65676 5.20092 1.56443 5.35505C1.4721 5.5092 1.38361 5.6655 1.29896 5.82396C1.21431 5.98245 1.13359 6.1429 1.05682 6.30534C0.980049 6.46779 0.90731 6.63203 0.838603 6.79804C0.769896 6.96405 0.705303 7.13165 0.644829 7.30084C0.584352 7.47003 0.528065 7.6406 0.475966 7.81256C0.423866 7.9845 0.376016 8.15762 0.33242 8.33192C0.288822 8.50622 0.249527 8.68149 0.214537 8.85773C0.179547 9.03397 0.148903 9.21093 0.122604 9.38867C0.096306 9.56641 0.0743848 9.74469 0.0568413 9.9235C0.0392978 10.1023 0.0261528 10.2814 0.0174066 10.4609C0.00866038 10.6404 0.00432331 10.8199 0.00439541 10.9996Z"   fill="#FFFFFF" >
</path>
<path d="M5.54074 9.5822L2.39917 4.14384C2.53681 3.97066 2.67956 3.80181 2.82742 3.63728C2.97527 3.47273 3.12797 3.31283 3.28551 3.15754C3.44303 3.00225 3.60511 2.85186 3.77174 2.70637C3.93837 2.56087 4.10925 2.42054 4.28436 2.2854C4.45948 2.15024 4.63853 2.0205 4.82149 1.89618C5.00447 1.77186 5.19102 1.65319 5.38118 1.54015C5.57132 1.42712 5.7647 1.31994 5.96134 1.2186C6.15799 1.11727 6.35749 1.02197 6.5599 0.93271C6.7623 0.843446 6.9672 0.760384 7.17463 0.683519C7.38206 0.606652 7.5916 0.536125 7.80328 0.471939C8.01497 0.40775 8.22842 0.350019 8.4436 0.298744C8.65879 0.24747 8.87533 0.202745 9.09321 0.164571C9.3111 0.126397 9.52994 0.0948423 9.74975 0.069908C9.96955 0.0449735 10.1899 0.0267046 10.4108 0.0151012C10.6317 0.00349787 10.8528 -0.00141871 11.0739 0.000351461C11.2951 0.00212162 11.5161 0.0105753 11.7368 0.0257125C11.9575 0.0408497 12.1775 0.0626428 12.3969 0.0910918C12.6163 0.119541 12.8346 0.154593 13.0518 0.19625C13.2691 0.237907 13.4848 0.28609 13.6992 0.340802C13.9135 0.395514 14.126 0.456655 14.3366 0.524223C14.5473 0.591789 14.7557 0.665661 14.9618 0.745836C15.168 0.826012 15.3716 0.912345 15.5725 1.00483C15.7734 1.09733 15.9714 1.1958 16.1664 1.30027C16.3614 1.40474 16.553 1.515 16.7413 1.63106C16.9297 1.74712 17.1143 1.86877 17.2953 1.996C17.4762 2.12323 17.6532 2.25582 17.8261 2.39377C17.999 2.5317 18.1676 2.67472 18.3319 2.82287C18.4962 2.97101 18.6558 3.12398 18.8109 3.28178C18.9659 3.43956 19.116 3.6019 19.2612 3.76879C19.4064 3.93566 19.5464 4.10678 19.6813 4.28214C19.8161 4.45749 19.9456 4.63676 20.0696 4.81993C20.1936 5.00311 20.3119 5.18987 20.4246 5.38022L11.4708 5.38022C11.3076 5.36381 11.1441 5.35721 10.9802 5.36044C10.9031 5.36095 10.826 5.36306 10.749 5.36675C10.672 5.37043 10.5951 5.37569 10.5183 5.38252C10.4415 5.38933 10.3649 5.39771 10.2884 5.40766C10.212 5.41761 10.1358 5.42912 10.0598 5.44219C9.98378 5.45525 9.90809 5.46986 9.8327 5.48601C9.75731 5.50215 9.68229 5.51983 9.60763 5.53906C9.53297 5.55827 9.45872 5.57898 9.3849 5.60123C9.31108 5.62347 9.23773 5.64721 9.16488 5.67245C9.09202 5.69768 9.01973 5.7244 8.94797 5.75259C8.87621 5.78078 8.80506 5.81043 8.7345 5.84154C8.66395 5.8726 8.59406 5.90513 8.52484 5.9391C8.45561 5.97304 8.38712 6.00838 8.31934 6.04512C8.25156 6.08186 8.18457 6.11997 8.11833 6.15946C8.0521 6.19893 7.98672 6.23975 7.92216 6.2819C7.8576 6.32403 7.79394 6.36747 7.73114 6.41225C7.66836 6.45698 7.60651 6.503 7.5456 6.55026C7.48469 6.59753 7.42479 6.64604 7.36586 6.69576C7.30693 6.74547 7.24905 6.79637 7.1922 6.84844C7.13533 6.90052 7.07958 6.95374 7.02491 7.0081C6.97023 7.06245 6.91669 7.1179 6.86427 7.17445C6.81187 7.231 6.76063 7.28857 6.71057 7.34723C6.66049 7.40584 6.61165 7.46548 6.56402 7.52611C6.51639 7.58673 6.47003 7.64831 6.42491 7.71083C6.37979 7.77335 6.33597 7.83677 6.29345 7.90109C6.25093 7.9654 6.20972 8.03054 6.16987 8.09654C6.13 8.16251 6.0915 8.22929 6.05435 8.29688C6.0172 8.36442 5.98147 8.43272 5.94712 8.50175C5.91277 8.57076 5.87983 8.64046 5.84834 8.71084C5.81682 8.7812 5.78676 8.85219 5.75814 8.92377C5.72955 8.99536 5.70241 9.06752 5.67674 9.14023C5.65107 9.21291 5.6269 9.28611 5.60423 9.3598C5.58156 9.43349 5.5604 9.50761 5.54074 9.58216L5.54074 9.5822Z"   fill="#DD4E41" >
</path>
<path d="M14.907 6.9707L21.2099 6.9707C21.2411 7.05022 21.2713 7.13009 21.3005 7.2103C21.3297 7.29052 21.358 7.37108 21.3854 7.45197C21.4127 7.53287 21.4391 7.61407 21.4645 7.69559C21.4899 7.7771 21.5143 7.85889 21.5378 7.94098C21.5613 8.02308 21.5838 8.10544 21.6053 8.18805C21.6269 8.27068 21.6475 8.35355 21.6672 8.43667C21.6866 8.51977 21.7052 8.60309 21.7228 8.68664C21.7404 8.7702 21.757 8.85394 21.7726 8.93788C21.7883 9.02182 21.8029 9.10594 21.8167 9.19023C21.8303 9.27452 21.8429 9.35895 21.8545 9.44353C21.8662 9.52812 21.8769 9.61283 21.8865 9.69767C21.8961 9.78251 21.9048 9.86744 21.9125 9.9525C21.9201 10.0375 21.9267 10.1227 21.9323 10.2078C21.9379 10.293 21.9425 10.3783 21.9462 10.4636C21.9498 10.5489 21.9524 10.6343 21.954 10.7196C21.9555 10.805 21.9561 10.8904 21.9557 10.9758C21.9558 11.1542 21.9516 11.3325 21.943 11.5107C21.9344 11.6889 21.9215 11.8668 21.9043 12.0443C21.887 12.2219 21.8654 12.3989 21.8395 12.5754C21.8137 12.752 21.7835 12.9277 21.749 13.1028C21.7145 13.2778 21.6757 13.4519 21.6328 13.6251C21.5898 13.7982 21.5427 13.9702 21.4914 14.1411C21.44 14.312 21.3845 14.4814 21.3248 14.6496C21.2652 14.8177 21.2015 14.9843 21.1338 15.1494C21.066 15.3144 20.9943 15.4777 20.9185 15.6392C20.8428 15.8008 20.7632 15.9604 20.6797 16.118C20.5962 16.2757 20.5089 16.4312 20.4178 16.5846C20.3267 16.738 20.2319 16.8891 20.1334 17.0378C20.035 17.1866 19.9329 17.3329 19.8273 17.4767C19.7217 17.6205 19.6126 17.7616 19.5002 17.9001C19.3877 18.0385 19.2719 18.1742 19.1528 18.307C19.0336 18.4399 18.9114 18.5697 18.7859 18.6966C18.6605 18.8234 18.532 18.9471 18.4005 19.0677C18.2691 19.1883 18.1347 19.3056 17.9975 19.4197C17.8603 19.5337 17.7204 19.6443 17.5778 19.7515C17.4352 19.8587 17.2901 19.9624 17.1424 20.0625C16.9948 20.1626 16.8447 20.2591 16.6924 20.3519C16.54 20.4447 16.3855 20.5338 16.2287 20.619C16.072 20.7043 15.9134 20.7857 15.7527 20.8632C15.592 20.9408 15.4295 21.0143 15.2652 21.0839C15.101 21.1535 14.9351 21.2191 14.7676 21.2806C14.6002 21.3421 14.4313 21.3995 14.261 21.4527C14.0908 21.5061 13.9193 21.5552 13.7466 21.6C13.574 21.645 13.4003 21.6856 13.2257 21.722C13.051 21.7584 12.8756 21.7906 12.6994 21.8185C12.5231 21.8463 12.3464 21.8698 12.169 21.8892C11.9916 21.9084 11.8139 21.9233 11.6358 21.9339C11.4577 21.9445 11.2795 21.9507 11.1011 21.9526L15.5978 14.1767C15.6446 14.1094 15.6898 14.041 15.7336 13.9717C15.7774 13.9024 15.8196 13.8321 15.8603 13.7609C15.9009 13.6897 15.94 13.6177 15.9776 13.5448C16.0151 13.4719 16.051 13.3982 16.0853 13.3238C16.1196 13.2493 16.1522 13.1741 16.1832 13.0982C16.2142 13.0223 16.2435 12.9457 16.2711 12.8685C16.2987 12.7913 16.3246 12.7136 16.3488 12.6353C16.3731 12.5569 16.3956 12.4781 16.4163 12.3988C16.4371 12.3195 16.4561 12.2397 16.4733 12.1596C16.4906 12.0794 16.506 11.9989 16.5198 11.9181C16.5335 11.8373 16.5455 11.7562 16.5556 11.6748C16.5658 11.5935 16.5741 11.5119 16.5807 11.4302C16.5873 11.3485 16.5921 11.2667 16.5951 11.1847C16.5981 11.1028 16.5993 11.0209 16.5987 10.9389C16.5981 10.8569 16.5957 10.7749 16.5915 10.6931C16.5873 10.6112 16.5813 10.5294 16.5735 10.4478C16.5657 10.3662 16.5561 10.2848 16.5448 10.2036C16.5334 10.1224 16.5203 10.0415 16.5054 9.96088C16.4905 9.88027 16.4738 9.80002 16.4554 9.72012C16.4369 9.64024 16.4168 9.56079 16.3948 9.4818C16.3729 9.4028 16.3493 9.32432 16.3239 9.24635C16.2986 9.16838 16.2715 9.091 16.2427 9.01423C16.214 8.93745 16.1835 8.86133 16.1514 8.7859C16.1194 8.71046 16.0856 8.63575 16.0502 8.56179C16.0149 8.48783 15.9779 8.41468 15.9393 8.34235C15.9007 8.27001 15.8605 8.19855 15.8188 8.12798C15.7771 8.0574 15.7338 7.98777 15.6891 7.91909C15.6443 7.85041 15.598 7.78275 15.5503 7.7161C15.5025 7.64946 15.4533 7.58389 15.4027 7.51939C15.3521 7.45491 15.3001 7.39157 15.2467 7.32936C15.1932 7.26716 15.1385 7.20615 15.0824 7.14634C15.0263 7.08654 14.969 7.02799 14.9103 6.9707L14.907 6.9707Z"   fill="#FFCD41" >
</path>
<path d="M6.9939 11.0005C6.99383 10.9353 6.99535 10.8701 6.99848 10.8049C7.00161 10.7397 7.00634 10.6746 7.01265 10.6097C7.01899 10.5447 7.02691 10.48 7.03642 10.4154C7.04593 10.3509 7.05701 10.2866 7.06967 10.2226C7.08234 10.1586 7.09656 10.0949 7.11234 10.0316C7.12813 9.96825 7.14546 9.90536 7.16433 9.84291C7.18323 9.78045 7.20363 9.71847 7.22554 9.65701C7.24746 9.59554 7.27087 9.53465 7.2958 9.47435C7.3207 9.41404 7.34708 9.35438 7.37492 9.29536C7.40277 9.23634 7.43204 9.17803 7.46273 9.12045C7.49344 9.06288 7.52554 9.00609 7.55902 8.95008C7.59252 8.89408 7.62737 8.83893 7.66357 8.78463C7.69977 8.73034 7.73729 8.67696 7.7761 8.62451C7.81493 8.57206 7.85502 8.5206 7.89637 8.47012C7.93772 8.41963 7.98028 8.3702 8.02405 8.32182C8.06784 8.27342 8.11278 8.22613 8.15887 8.17995C8.20497 8.13376 8.25218 8.08873 8.30049 8.04486C8.3488 8.00101 8.39816 7.95835 8.44856 7.9169C8.49896 7.87547 8.55035 7.83529 8.60273 7.79637C8.65511 7.75744 8.70842 7.71983 8.76264 7.68354C8.81687 7.64723 8.87195 7.61228 8.9279 7.57869C8.98385 7.54509 9.04058 7.51289 9.0981 7.48208C9.15561 7.45127 9.21385 7.42189 9.27283 7.39395C9.3318 7.36599 9.39142 7.3395 9.45169 7.31448C9.51195 7.28946 9.57279 7.26593 9.63422 7.2439C9.69564 7.22186 9.75756 7.20134 9.81999 7.18235C9.88243 7.16336 9.94529 7.14591 10.0086 7.13001C10.0719 7.1141 10.1355 7.09976 10.1995 7.08698C10.2635 7.0742 10.3277 7.063 10.3923 7.05338C10.4568 7.04375 10.5216 7.03572 10.5865 7.02927C10.6514 7.02283 10.7165 7.01798 10.7817 7.01473C10.8468 7.01148 10.9121 7.00982 10.9773 7.00977C11.0426 7.00972 11.1078 7.01128 11.173 7.01443C11.2381 7.01759 11.3032 7.02235 11.3681 7.02869C11.4331 7.03504 11.4978 7.04298 11.5624 7.05252C11.627 7.06205 11.6912 7.07315 11.7552 7.08584C11.8192 7.09852 11.8829 7.11276 11.9462 7.12857C12.0095 7.14439 12.0724 7.16175 12.1349 7.18065C12.1973 7.19956 12.2593 7.21998 12.3207 7.24193C12.3822 7.26387 12.4431 7.28731 12.5034 7.31224C12.5637 7.33717 12.6233 7.36356 12.6823 7.39144C12.7414 7.41929 12.7996 7.44858 12.8572 7.47931C12.9148 7.51003 12.9716 7.54215 13.0275 7.57566C13.0835 7.60918 13.1387 7.64405 13.193 7.68027C13.2472 7.71649 13.3006 7.75403 13.353 7.79287C13.4055 7.83171 13.4569 7.87182 13.5074 7.91318C13.5578 7.95455 13.6073 7.99713 13.6556 8.04093C13.704 8.08471 13.7513 8.12967 13.7975 8.17579C13.8436 8.22191 13.8886 8.26913 13.9325 8.31746C13.9763 8.36578 14.019 8.41516 14.0604 8.46559C14.1018 8.51601 14.142 8.56741 14.1809 8.6198C14.2198 8.6722 14.2574 8.72552 14.2936 8.77976C14.3299 8.834 14.3649 8.88909 14.3984 8.94503C14.432 9.001 14.4642 9.05774 14.495 9.11528C14.5258 9.17281 14.5551 9.23106 14.5831 9.29003C14.611 9.34901 14.6375 9.40865 14.6624 9.46891C14.6875 9.52919 14.711 9.59006 14.733 9.65148C14.755 9.71291 14.7755 9.77485 14.7944 9.83728C14.8134 9.89971 14.8308 9.96258 14.8467 10.0259C14.8626 10.0892 14.8769 10.1528 14.8897 10.2168C14.9024 10.2808 14.9136 10.3451 14.9232 10.4096C14.9328 10.4742 14.9408 10.5389 14.9472 10.6038C14.9537 10.6688 14.9585 10.7338 14.9617 10.799C14.9649 10.8642 14.9666 10.9294 14.9666 10.9947C14.9666 11.0599 14.965 11.1251 14.9619 11.1903C14.9587 11.2555 14.9539 11.3205 14.9475 11.3855C14.9412 11.4504 14.9332 11.5152 14.9236 11.5797C14.9141 11.6443 14.903 11.7086 14.8902 11.7726C14.8775 11.8366 14.8633 11.9002 14.8474 11.9635C14.8316 12.0268 14.8142 12.0897 14.7953 12.1522C14.7764 12.2146 14.7559 12.2766 14.734 12.338C14.712 12.3995 14.6885 12.4603 14.6636 12.5206C14.6386 12.5809 14.6122 12.6406 14.5843 12.6996C14.5564 12.7586 14.5271 12.8168 14.4964 12.8744C14.4656 12.932 14.4335 12.9887 14.3999 13.0447C14.3664 13.1007 14.3315 13.1558 14.2953 13.2101C14.259 13.2643 14.2215 13.3177 14.1826 13.3701C14.1438 13.4225 14.1037 13.4739 14.0623 13.5244C14.0209 13.5749 13.9783 13.6243 13.9345 13.6726C13.8907 13.721 13.8457 13.7682 13.7995 13.8144C13.7534 13.8605 13.7062 13.9055 13.6578 13.9494C13.6095 13.9932 13.5601 14.0358 13.5097 14.0772C13.4592 14.1186 13.4078 14.1588 13.3554 14.1976C13.303 14.2365 13.2497 14.2741 13.1954 14.3103C13.1412 14.3466 13.086 14.3815 13.0301 14.4151C12.9741 14.4486 12.9174 14.4808 12.8598 14.5116C12.8022 14.5423 12.744 14.5717 12.685 14.5996C12.626 14.6275 12.5664 14.6539 12.5061 14.6789C12.4458 14.7039 12.3849 14.7274 12.3235 14.7493C12.2621 14.7713 12.2001 14.7918 12.1377 14.8107C12.0752 14.8297 12.0124 14.8471 11.9491 14.863C11.8858 14.8788 11.8221 14.8931 11.7581 14.9059C11.6941 14.9186 11.6299 14.9297 11.5653 14.9393C11.5007 14.9489 11.436 14.9569 11.3711 14.9633C11.3061 14.9697 11.2411 14.9745 11.1759 14.9777C11.1107 14.9809 11.0455 14.9825 10.9802 14.9825C10.9151 14.9824 10.8499 14.9808 10.7848 14.9776C10.7197 14.9743 10.6547 14.9695 10.5899 14.9631C10.525 14.9567 10.4603 14.9487 10.3958 14.9391C10.3314 14.9295 10.2672 14.9184 10.2032 14.9056C10.1393 14.8929 10.0757 14.8786 10.0125 14.8628C9.94926 14.8469 9.88647 14.8295 9.8241 14.8106C9.76173 14.7916 9.69985 14.7712 9.63847 14.7492C9.57711 14.7273 9.51631 14.7038 9.45609 14.6789C9.39587 14.6539 9.33629 14.6275 9.27736 14.5997C9.21843 14.5718 9.16023 14.5425 9.10274 14.5118C9.04525 14.4811 8.98854 14.4489 8.93263 14.4155C8.87671 14.382 8.82164 14.3471 8.76743 14.3109C8.71323 14.2747 8.65995 14.2372 8.60757 14.1984C8.5552 14.1596 8.50382 14.1195 8.45342 14.0782C8.40302 14.0368 8.35365 13.9943 8.30533 13.9506C8.257 13.9068 8.20979 13.8619 8.16368 13.8158C8.11756 13.7697 8.07259 13.7226 8.02878 13.6743C7.98498 13.626 7.94238 13.5767 7.90099 13.5264C7.85961 13.476 7.81949 13.4247 7.78061 13.3723C7.74174 13.32 7.70418 13.2667 7.66793 13.2126C7.63166 13.1584 7.59675 13.1034 7.56319 13.0475C7.52963 12.9916 7.49746 12.935 7.46666 12.8775C7.43588 12.82 7.40653 12.7619 7.3786 12.703C7.35067 12.6441 7.3242 12.5845 7.29919 12.5244C7.27418 12.4642 7.25066 12.4034 7.22862 12.342C7.20659 12.2807 7.18608 12.2188 7.16708 12.1565C7.14808 12.0941 7.13062 12.0314 7.11471 11.9681C7.09878 11.9049 7.08441 11.8414 7.07161 11.7774C7.0588 11.7135 7.04757 11.6494 7.03792 11.5849C7.02825 11.5204 7.02017 11.4558 7.01369 11.3909C7.0072 11.326 7.00231 11.2611 6.99901 11.196C6.9957 11.1309 6.994 11.0657 6.9939 11.0005Z"   fill="#4C8BF5" >
</path>
<path d="M12.4914 16.4146L9.34987 21.8738C9.18915 21.8495 9.02902 21.8215 8.86952 21.79C8.71002 21.7585 8.55132 21.7235 8.39336 21.6849C8.23541 21.6464 8.0784 21.6044 7.9223 21.559C7.76624 21.5135 7.61123 21.4646 7.45731 21.4122C7.3034 21.3599 7.15073 21.3042 6.99927 21.245C6.84784 21.1859 6.69778 21.1234 6.54908 21.0576C6.40041 20.9919 6.25328 20.9228 6.10766 20.8505C5.96204 20.7782 5.81812 20.7027 5.67585 20.624C5.53358 20.5453 5.39314 20.4635 5.25448 20.3786C5.11586 20.2937 4.97918 20.2058 4.84443 20.1148C4.7097 20.0238 4.57703 19.9299 4.44645 19.833C4.31589 19.7362 4.18752 19.6365 4.06136 19.5339C3.93521 19.4314 3.81139 19.3261 3.6899 19.218C3.56843 19.11 3.44938 18.9993 3.33281 18.886C3.21623 18.7727 3.10224 18.6568 2.99078 18.5385C2.87936 18.4201 2.77058 18.2993 2.66449 18.1761C2.5584 18.0529 2.45511 17.9274 2.35458 17.7996C2.25408 17.6719 2.15643 17.5419 2.06167 17.4098C1.96691 17.2777 1.87512 17.1436 1.78631 17.0074C1.6975 16.8712 1.61175 16.7331 1.52906 16.5931C1.44637 16.4532 1.36682 16.3114 1.29042 16.1679C1.21401 16.0244 1.14082 15.8793 1.07085 15.7325C1.00088 15.5858 0.934201 15.4376 0.870803 15.2879C0.807404 15.1381 0.747355 14.9871 0.690656 14.8347C0.633957 14.6824 0.58066 14.5288 0.530767 14.3741C0.480876 14.2194 0.434438 14.0636 0.391452 13.9068C0.348466 13.75 0.308975 13.5923 0.272983 13.4338C0.236988 13.2753 0.204524 13.116 0.175591 12.956C0.146658 12.796 0.121285 12.6355 0.0994705 12.4744C0.0776561 12.3133 0.0594223 12.1518 0.0447696 11.9898C0.0301164 11.8279 0.0190585 11.6658 0.0115958 11.5034C0.00413301 11.341 0.000272656 11.1785 1.47239e-05 11.0159C-8.19577e-05 10.9573 0.000297492 10.8986 0.00115307 10.84C0.00200865 10.7814 0.00334024 10.7228 0.00514785 10.6642C0.00695548 10.6055 0.00923888 10.547 0.011998 10.4884C0.0147572 10.4298 0.0179919 10.3713 0.021702 10.3128C0.0254119 10.2542 0.0295967 10.1958 0.0342566 10.1373C0.0389166 10.0789 0.0440507 10.0205 0.0496592 9.96208C0.0552675 9.90371 0.0613497 9.8454 0.0679054 9.78714C0.074461 9.72887 0.0814894 9.67067 0.0889904 9.61251C0.0964915 9.55435 0.104464 9.49626 0.112909 9.43823C0.121353 9.3802 0.130268 9.32226 0.139654 9.26438C0.149039 9.2065 0.158895 9.14871 0.169219 9.091C0.179543 9.03327 0.190336 8.97565 0.201596 8.91809C0.212857 8.86056 0.224585 8.80311 0.236777 8.74577C0.24897 8.6884 0.261628 8.63115 0.274753 8.574C0.287876 8.51685 0.301462 8.45981 0.315511 8.4029C0.32956 8.34599 0.344072 8.28916 0.359045 8.23246C0.374017 8.17577 0.389447 8.11922 0.405339 8.06278C0.421231 8.00634 0.437579 7.95003 0.454384 7.89385C0.471191 7.83767 0.488452 7.78164 0.506165 7.72575C0.523881 7.66985 0.542051 7.61411 0.560671 7.55852C0.579292 7.50292 0.598363 7.44747 0.617884 7.39219C0.637407 7.33689 0.657377 7.28176 0.677793 7.2268C0.69821 7.17183 0.719071 7.11703 0.740377 7.0624C0.761683 7.00779 0.783434 6.95334 0.805625 6.89906C0.827817 6.84479 0.850446 6.7907 0.873516 6.73681C0.896586 6.6829 0.920092 6.62918 0.944034 6.57565C0.967976 6.52213 0.99235 6.4688 1.01716 6.41568C1.04197 6.36256 1.06721 6.30963 1.09287 6.25691C1.11854 6.20419 1.14463 6.15168 1.17115 6.09939C1.19768 6.04709 1.22462 5.99502 1.25198 5.94317C1.27935 5.89131 1.30714 5.83968 1.33534 5.78827C1.36355 5.73687 1.39217 5.6857 1.4212 5.63477L5.89815 13.371C5.92642 13.4308 5.95573 13.4902 5.98606 13.5491C6.01644 13.6079 6.04781 13.6662 6.08021 13.7239C6.11261 13.7817 6.14601 13.8388 6.18043 13.8954C6.21485 13.952 6.25023 14.0079 6.28661 14.0632C6.323 14.1186 6.36034 14.1732 6.39863 14.2272C6.43693 14.2813 6.47616 14.3346 6.51634 14.3872C6.55652 14.4399 6.59762 14.4918 6.6396 14.543C6.6816 14.5942 6.72448 14.6446 6.76824 14.6943C6.81203 14.7439 6.85665 14.7928 6.90213 14.8409C6.94764 14.8891 6.99396 14.9364 7.04112 14.9829C7.08828 15.0293 7.13623 15.075 7.18498 15.1198C7.23375 15.1646 7.28327 15.2085 7.33356 15.2515C7.38388 15.2946 7.43493 15.3368 7.4867 15.378C7.53848 15.4193 7.59099 15.4596 7.64418 15.4991C7.69738 15.5385 7.75126 15.5769 7.80581 15.6145C7.86038 15.652 7.91557 15.6885 7.97139 15.7241C8.02725 15.7597 8.08369 15.7943 8.14075 15.8279C8.19781 15.8615 8.25543 15.8941 8.31364 15.9257C8.37184 15.9572 8.43058 15.9878 8.48985 16.0173C8.54913 16.0468 8.6089 16.0752 8.66916 16.1026C8.72945 16.1301 8.7902 16.1564 8.85139 16.1817C8.91258 16.2069 8.97422 16.2311 9.03626 16.2542C9.09831 16.2773 9.16074 16.2993 9.22356 16.3202C9.28641 16.3411 9.34959 16.3609 9.4131 16.3796C9.47663 16.3983 9.54046 16.4159 9.60459 16.4323C9.66874 16.4488 9.73313 16.4641 9.7978 16.4783C9.86249 16.4925 9.92739 16.5055 9.99251 16.5174C10.0577 16.5293 10.123 16.5401 10.1885 16.5497C10.254 16.5593 10.3197 16.5677 10.3855 16.575C10.4513 16.5823 10.5172 16.5884 10.5832 16.5934C10.6493 16.5984 10.7154 16.6022 10.7815 16.6049C10.8477 16.6075 10.9139 16.609 10.9801 16.6093C11.1075 16.6079 11.2348 16.6027 11.3619 16.5938C11.489 16.5848 11.6157 16.5722 11.7421 16.5558C11.8684 16.5395 11.9942 16.5194 12.1194 16.4957C12.2446 16.4719 12.369 16.4446 12.4926 16.4135L12.4914 16.4146Z"   fill="#1DA362" >
</path>
<path     fill="#1370B3"  d="M0.499268 10.8838C0.499268 16.896 5.23327 21.7677 11.0682 21.7677C16.9031 21.7677 21.637 16.8949 21.637 10.8838C21.637 4.87272 16.9031 0 11.0682 0C5.23327 0 0.49927 4.87272 0.49927 10.8838">
</path>
<path d="M0.499268 11.7615C0.499268 17.2893 5.23327 21.7701 11.0682 21.7701C16.9031 21.7701 21.637 17.2893 21.637 11.7615C21.637 6.23373 16.9031 1.75293 11.0682 1.75293C5.23327 1.75293 0.49927 6.23373 0.49927 11.7615L0.499268 11.7615Z"   fill="#1678BC" >
</path>
<path d="M16.2296 2.55452L14.532 1.93359L16.6788 3.83269L15.8762 3.78427L15.7111 4.12333C15.6855 4.10273 15.6595 4.08272 15.6331 4.06328C15.6067 4.04385 15.5798 4.02502 15.5525 4.00679C15.5252 3.98857 15.4976 3.97096 15.4695 3.95397C15.4414 3.937 15.413 3.92066 15.3842 3.90494C15.3554 3.88925 15.3262 3.8742 15.2967 3.85981C15.2672 3.84543 15.2374 3.83171 15.2073 3.81865C15.1772 3.8056 15.1468 3.79324 15.1162 3.78156C15.0855 3.76987 15.0546 3.75889 15.0235 3.74859C14.9923 3.7383 14.9609 3.72872 14.9294 3.71984C14.8977 3.71097 14.866 3.7028 14.834 3.69535C14.8021 3.68789 14.77 3.68116 14.7377 3.67516C14.7055 3.66915 14.6731 3.66387 14.6406 3.65933C14.6081 3.65479 14.5755 3.65097 14.5429 3.64789C14.5102 3.64481 14.4775 3.64246 14.4447 3.64084C14.4119 3.63923 14.3791 3.63836 14.3463 3.63824C14.3135 3.63809 14.2807 3.63869 14.2479 3.64004C14.2401 3.64206 14.2323 3.64421 14.2245 3.64647C14.2167 3.64875 14.209 3.65114 14.2013 3.65365C14.1936 3.65618 14.1859 3.65881 14.1783 3.66157C14.1707 3.66432 14.1631 3.66719 14.1556 3.67019C14.148 3.67319 14.1405 3.6763 14.1331 3.67954C14.1257 3.68277 14.1183 3.68612 14.111 3.68959C14.1036 3.69304 14.0964 3.69662 14.0892 3.70032C14.082 3.70401 14.0748 3.70782 14.0677 3.71173C14.0606 3.71566 14.0536 3.7197 14.0466 3.72384C14.0397 3.72797 14.0328 3.73221 14.0259 3.73657C14.0191 3.74094 14.0123 3.74541 14.0056 3.74997C13.9989 3.75454 13.9923 3.75922 13.9858 3.76401C13.9792 3.76878 13.9728 3.77366 13.9664 3.77865C13.96 3.78364 13.9537 3.78872 13.9475 3.7939C13.9412 3.79909 13.9351 3.80437 13.929 3.80975C13.923 3.81512 13.917 3.8206 13.9111 3.82618C13.9052 3.83174 13.8994 3.8374 13.8937 3.84314C13.888 3.84889 13.8824 3.85473 13.8768 3.86065C13.8713 3.86658 13.8659 3.8726 13.8605 3.87869C13.8552 3.8848 13.85 3.89098 13.8448 3.89725C13.8397 3.9035 13.8346 3.90983 13.8297 3.91626C13.8248 3.92268 13.8199 3.92918 13.8152 3.93576C13.8104 3.94234 13.8058 3.94899 13.8013 3.95571C13.7968 3.96242 13.7923 3.96921 13.788 3.97608C13.7837 3.98294 13.7795 3.98987 13.7754 3.99685C13.7713 4.00385 13.7673 4.01091 13.7635 4.01803C13.7596 4.02514 13.7558 4.03232 13.7522 4.03956C13.7485 4.0468 13.745 4.05409 13.7416 4.06145C13.7382 4.06879 13.7349 4.07618 13.7317 4.08364C13.7285 4.09109 13.7254 4.0986 13.7225 4.10615C13.7196 4.1137 13.7167 4.12129 13.714 4.12892C13.7113 4.13658 13.7087 4.14425 13.7063 4.15197L13.8351 4.70242L15.4766 4.83673C15.6054 5.02609 15.8641 5.0184 15.8641 5.40813L16.4784 5.3817L16.9045 5.23857C16.9362 5.27999 16.9673 5.32183 16.9978 5.36411C17.0283 5.40639 17.0583 5.44907 17.0876 5.49216C17.1169 5.53528 17.1457 5.57878 17.1738 5.62267C17.2019 5.66658 17.2295 5.71086 17.2564 5.75552C17.2833 5.80018 17.3096 5.84521 17.3353 5.89058C17.3609 5.93598 17.386 5.98171 17.4104 6.0278C17.4347 6.07388 17.4585 6.12028 17.4816 6.16703C17.5047 6.21378 17.5272 6.26083 17.549 6.30818C17.5708 6.35556 17.5919 6.40321 17.6124 6.45114C17.6329 6.49909 17.6528 6.54732 17.6719 6.59582C17.691 6.64433 17.7095 6.69308 17.7273 6.74208C17.7451 6.79109 17.7622 6.84033 17.7787 6.88981C17.7951 6.93931 17.8109 6.98901 17.8259 7.03892C17.841 7.08885 17.8554 7.13895 17.869 7.18927C17.8827 7.23959 17.8957 7.2901 17.908 7.34077C17.9202 7.39145 17.9318 7.44228 17.9427 7.49329L17.4604 7.84118L17.3294 8.26613L17.3184 9.76231C17.3184 9.76231 17.0113 10.0783 16.9628 9.98248C16.9144 9.88671 16.9771 8.75605 16.7988 8.64376C16.7939 8.64036 16.7889 8.63705 16.7839 8.63382C16.7789 8.6306 16.7738 8.62746 16.7687 8.6244C16.7635 8.62137 16.7583 8.61842 16.7531 8.61554C16.7479 8.61268 16.7426 8.60991 16.7372 8.60724C16.7319 8.60458 16.7265 8.60197 16.7211 8.59948C16.7157 8.59701 16.7102 8.59462 16.7047 8.59232C16.6992 8.59002 16.6936 8.58782 16.688 8.58572C16.6824 8.58361 16.6768 8.58161 16.6712 8.57972C16.6655 8.57783 16.6598 8.57602 16.6541 8.5743C16.6484 8.57262 16.6426 8.57101 16.6368 8.5695C16.631 8.56802 16.6252 8.56662 16.6194 8.56531C16.6136 8.56402 16.6077 8.56284 16.6019 8.56174C16.596 8.56067 16.5901 8.55968 16.5842 8.55879C16.5783 8.55791 16.5724 8.55714 16.5665 8.55645C16.5605 8.55578 16.5546 8.55523 16.5486 8.55475C16.5427 8.55428 16.5367 8.55394 16.5308 8.55368C16.5248 8.55342 16.5188 8.55327 16.5129 8.55323C16.5069 8.55318 16.5009 8.55325 16.495 8.5534C16.489 8.55357 16.483 8.55385 16.4771 8.55421C16.4711 8.5546 16.4651 8.55507 16.4592 8.55566C16.4533 8.55626 16.4473 8.55695 16.4414 8.55774C16.4355 8.55854 16.4296 8.55944 16.4237 8.56043C16.4178 8.56144 16.412 8.56254 16.4061 8.56374C16.4003 8.56497 16.3944 8.56628 16.3887 8.56768C16.3829 8.5691 16.3771 8.57062 16.3713 8.57224C16.3656 8.57385 16.3599 8.57557 16.3542 8.57737C16.3485 8.5792 16.3428 8.58112 16.3372 8.58314C16.3316 8.58516 16.326 8.58729 16.3205 8.58948C16.3149 8.59172 16.3094 8.59402 16.304 8.59643C16.2985 8.59883 16.2931 8.60133 16.2877 8.60393C16.2823 8.60653 16.277 8.60922 16.2717 8.612C16.2664 8.61479 16.2612 8.61767 16.256 8.62064C16.0722 8.24082 15.8245 7.97108 15.4997 7.84227C15.454 7.736 15.4036 7.63203 15.3484 7.53034C15.2933 7.42867 15.2336 7.32971 15.1694 7.23346C15.1625 7.23462 15.1555 7.23596 15.1487 7.2375C15.1418 7.23907 15.1349 7.24084 15.1282 7.24279C15.1214 7.24477 15.1147 7.24692 15.1081 7.24929C15.1014 7.25165 15.0948 7.25423 15.0884 7.25699C15.0819 7.25974 15.0755 7.26271 15.0691 7.26585C15.0628 7.26899 15.0566 7.27232 15.0505 7.27582C15.0444 7.27935 15.0384 7.28305 15.0325 7.28692C15.0266 7.29079 15.0208 7.29483 15.0152 7.29905C15.0095 7.30328 15.004 7.30767 14.9986 7.31221C14.9932 7.31677 14.988 7.32148 14.9829 7.32634C14.9777 7.3312 14.9728 7.33621 14.968 7.34137C14.9632 7.34653 14.9585 7.35184 14.9541 7.35728C14.9496 7.36272 14.9452 7.36829 14.9411 7.37399C14.9369 7.37969 14.933 7.38551 14.9291 7.39145C14.9253 7.39738 14.9217 7.40343 14.9183 7.40958C14.9148 7.41573 14.9116 7.42198 14.9085 7.42833C14.9118 7.41685 14.9149 7.40525 14.9177 7.3936C14.9205 7.38197 14.9231 7.37027 14.9253 7.35848C14.9276 7.34674 14.9296 7.33494 14.9314 7.32307C14.9331 7.31122 14.9346 7.29933 14.9358 7.28742C14.9369 7.2755 14.9379 7.26355 14.9385 7.25159C14.9392 7.23963 14.9396 7.22766 14.9397 7.21568C14.9398 7.2037 14.9396 7.19172 14.9392 7.17975C14.9387 7.16779 14.938 7.15583 14.937 7.14388C14.936 7.13194 14.9348 7.12003 14.9333 7.10814C14.9317 7.09627 14.9299 7.08444 14.9279 7.07262C14.9258 7.06083 14.9235 7.04909 14.9209 7.03739C14.9182 7.02569 14.9154 7.01406 14.9123 7.00249C14.9091 6.99094 14.9057 6.97946 14.9021 6.96804C14.8984 6.95665 14.8945 6.94531 14.8903 6.93409C14.8862 6.92286 14.8817 6.91175 14.877 6.90069C14.8724 6.88968 14.8674 6.87876 14.8622 6.86797L14.1048 6.72264L13.5753 6.6874C13.3793 6.74466 13.245 6.89108 13.2097 7.1608L12.9136 7.41732L12.7353 8.06026C12.6901 8.22981 13.2857 8.50063 13.5268 8.43678C13.7679 8.37294 14.2248 9.0566 14.2248 9.0566L14.1037 9.54211C14.1037 9.54211 13.9166 9.88451 13.8692 9.81185L13.4189 9.10946C13.1041 8.92229 12.7782 8.95423 12.4523 9.10946C12.3764 9.78433 12.3565 10.5968 12.4523 10.9337C12.5481 11.2706 12.6868 11.4192 12.8277 11.3741C12.9687 11.3289 13.5367 10.8886 13.5367 10.8886C13.5367 10.8886 14.0586 12.2989 14.0586 12.3748C14.0586 12.4508 14.8358 13.0288 14.8832 13.0288C14.9305 13.0288 15.0946 13.1036 15.1188 12.9319C15.143 12.7601 15.0241 12.4464 15.0946 12.3968C15.165 12.3473 15.2597 12.4453 15.2839 12.6886C15.318 13.0343 15.3489 13.7455 15.307 13.8996C15.2113 14.2651 14.74 14.7804 14.74 14.7804C14.74 14.7804 14.5991 15.3143 14.6707 15.3407C14.7423 15.3671 14.9778 16.0706 15.0736 16.2633C15.1694 16.456 16.7493 21.3892 19.8891 17.2717C21.808 14.7561 22.2319 11.2915 21.1629 8.43347C20.4825 6.61255 18.8575 5.65363 17.739 3.3494L16.2296 2.55452Z"   fill="#10549A" >
</path>
<path d="M2.74978 2.129C2.7641 2.88755 3.08667 3.63398 3.88153 4.36718C4.78539 4.11948 5.64302 4.09415 6.44451 4.30663C7.36379 3.30921 8.33809 2.9481 9.36197 3.00534C9.31763 3.04029 9.27397 3.07609 9.23101 3.11273C9.18805 3.14939 9.14583 3.18686 9.10433 3.22513C9.06283 3.26342 9.02208 3.3025 8.98208 3.34237C8.94209 3.38224 8.90291 3.42286 8.8645 3.46425C8.8261 3.50565 8.78851 3.54778 8.75174 3.59063C8.71497 3.63348 8.67903 3.67702 8.64396 3.72125C8.60887 3.76551 8.57468 3.81043 8.54135 3.856C8.50801 3.90158 8.47557 3.94777 8.44402 3.99461C8.41247 4.04144 8.38185 4.08888 8.35216 4.13688C8.32246 4.18492 8.29371 4.23349 8.26591 4.28263C8.23808 4.33179 8.21124 4.38144 8.18535 4.43161C8.15946 4.48179 8.13456 4.53248 8.11065 4.58361C8.08674 4.63477 8.06381 4.68636 8.0419 4.7384C8.01999 4.79044 7.99909 4.84288 7.97922 4.89574C7.95935 4.9486 7.94049 5.0018 7.92269 5.05538C7.90488 5.10897 7.88811 5.16288 7.87241 5.21711C7.87568 5.22855 7.8791 5.23995 7.88269 5.2513C7.88626 5.26266 7.89 5.27397 7.89392 5.28521C7.89783 5.29646 7.90189 5.30764 7.90611 5.31878C7.91032 5.32992 7.91469 5.34099 7.9192 5.352C7.92372 5.36301 7.92841 5.37396 7.93325 5.38484C7.93806 5.39572 7.94305 5.40654 7.94819 5.41727C7.95331 5.42802 7.9586 5.43868 7.96404 5.44926C7.96948 5.45987 7.97505 5.47038 7.98079 5.48081C7.98651 5.49126 7.99238 5.5016 7.9984 5.51188C8.0044 5.52216 8.01055 5.53235 8.01687 5.54244C8.02315 5.55255 8.0296 5.56257 8.03618 5.57248C8.04276 5.58241 8.04947 5.59224 8.05635 5.60196C8.06319 5.6117 8.07018 5.62134 8.07732 5.63086C8.08444 5.64041 8.09168 5.64985 8.09908 5.65918C8.10648 5.66852 8.11398 5.67776 8.12164 5.68688C8.12927 5.696 8.13706 5.70501 8.14495 5.71391C8.15286 5.72283 8.16088 5.73163 8.16903 5.74029C8.17718 5.74898 8.18544 5.75756 8.19383 5.76601C8.20221 5.77446 8.21071 5.78279 8.21933 5.791C8.22793 5.79921 8.23666 5.80732 8.24552 5.81528C8.25436 5.82326 8.2633 5.8311 8.27238 5.8388C8.28143 5.84654 8.29059 5.85413 8.29988 5.8616C8.30915 5.86906 8.31855 5.87639 8.32803 5.88357C8.33749 5.8908 8.34708 5.89785 8.35676 5.90478C8.36644 5.91172 8.3762 5.91852 8.38609 5.92516C8.39594 5.93183 8.40589 5.93836 8.41596 5.94473C8.426 5.95112 8.43613 5.95735 8.44636 5.96346C8.4566 5.96957 8.4669 5.9755 8.47731 5.98131C8.48769 5.98711 8.49815 5.99279 8.5087 5.99829C8.51924 6.00382 8.52988 6.0092 8.54059 6.0144C8.55128 6.01963 8.56205 6.0247 8.57289 6.0296C8.58373 6.03453 8.59465 6.0393 8.60562 6.0439C9.31902 6.154 10.1139 6.07803 10.8956 6.28831L10.8482 6.89712C10.366 7.80649 9.35315 8.09163 8.53627 8.83036C8.54292 8.86006 8.54911 8.88987 8.55483 8.91976C8.56055 8.94965 8.56577 8.97962 8.57055 9.00968C8.5753 9.03975 8.57958 9.06987 8.58341 9.10006C8.58721 9.13025 8.59055 9.16051 8.59341 9.19081C8.59624 9.22111 8.59863 9.25145 8.60052 9.28181C8.60242 9.3122 8.60384 9.3426 8.60476 9.37301C8.60568 9.40344 8.60614 9.43386 8.60611 9.46429C8.60607 9.49474 8.60556 9.52517 8.60457 9.55557C8.60356 9.586 8.60207 9.61641 8.60014 9.64677C8.59818 9.67716 8.59573 9.7075 8.5928 9.73777C8.58988 9.76807 8.5865 9.79831 8.58261 9.8285C8.57874 9.85869 8.57438 9.88879 8.56956 9.91886C8.56472 9.94892 8.55941 9.97887 8.55362 10.0087C8.54784 10.0386 8.54158 10.0684 8.53487 10.0981C8.52814 10.1278 8.52096 10.1574 8.5133 10.1868C8.50565 10.2163 8.49752 10.2456 8.48892 10.2748C8.18727 10.0249 7.87572 9.90376 7.54652 9.93569L7.48818 9.97313C6.48414 10.9827 7.33185 11.8381 8.9194 12.6374C8.9454 12.6423 8.97148 12.6467 8.99765 12.6508C9.0238 12.6548 9.05001 12.6584 9.07629 12.6616C9.10257 12.6648 9.12889 12.6675 9.15527 12.6698C9.18164 12.6721 9.20802 12.6739 9.23445 12.6754C9.26088 12.6768 9.28733 12.6778 9.3138 12.6784C9.34025 12.6789 9.36672 12.679 9.39319 12.6787C9.41964 12.6784 9.44609 12.6776 9.47254 12.6764C9.49899 12.6752 9.52539 12.6736 9.55178 12.6715C9.57816 12.6695 9.60451 12.667 9.63083 12.664C9.6571 12.6611 9.68336 12.6577 9.70955 12.6539C9.73574 12.6501 9.76187 12.6459 9.78793 12.6412C9.81397 12.6366 9.83995 12.6315 9.86584 12.6259C9.89171 12.6204 9.91749 12.6145 9.94319 12.6081C9.96886 12.6017 9.99445 12.5949 10.0199 12.5877C10.0454 12.5805 10.0707 12.5729 10.0959 12.5648C10.1211 12.5567 10.1462 12.5483 10.1711 12.5394C11.0079 12.066 13.0853 11.5772 13.4739 13.2429C13.2824 13.4873 12.9906 13.5214 12.6714 13.4873C12.5613 13.5787 12.3532 13.6194 12.2464 13.7075C11.0189 14.6983 9.7506 15.077 8.26655 14.8381C8.30223 14.8824 8.33889 14.9258 8.37652 14.9684C8.41415 15.011 8.45271 15.0527 8.49223 15.0936C8.53173 15.1344 8.57212 15.1744 8.6134 15.2134C8.65467 15.2525 8.6968 15.2906 8.7398 15.3278C8.78279 15.365 8.82659 15.4012 8.87119 15.4364C8.91579 15.4716 8.96116 15.5058 9.00731 15.539C9.05343 15.5722 9.10029 15.6044 9.14788 15.6354C9.19544 15.6665 9.24368 15.6966 9.29262 15.7255C10.1183 15.786 10.5862 15.9005 10.6401 16.0789L9.88051 16.0789C11.2688 16.6987 12.6328 16.7912 13.9407 16.1141C13.9495 16.2396 13.8692 16.4125 13.7514 16.6018C14.1917 16.2264 14.5881 15.7486 15.0505 15.4095L15.122 15.8719C15.8784 15.7024 16.5004 14.4814 16.9639 12.0539L17.2699 12.928C17.5705 11.6069 17.5628 10.0282 17.4241 8.31952C17.4509 8.34696 17.4773 8.37477 17.5034 8.40298C17.5294 8.43119 17.555 8.45979 17.5801 8.48876C17.6053 8.51775 17.63 8.5471 17.6543 8.57682C17.6786 8.60653 17.7024 8.63662 17.7258 8.66702C17.7492 8.69747 17.7721 8.72824 17.7946 8.75934C17.817 8.79045 17.839 8.82189 17.8606 8.85367C17.8821 8.88546 17.9032 8.91754 17.9237 8.94992C17.9443 8.98233 17.9644 9.01504 17.984 9.04802C18.0036 9.08103 18.0227 9.11432 18.0413 9.14787C18.0599 9.18145 18.0779 9.2153 18.0955 9.24941C18.1131 9.28351 18.1302 9.31787 18.1467 9.35249C18.1633 9.38712 18.1793 9.42197 18.1949 9.45707C18.2104 9.49218 18.2254 9.52751 18.2398 9.56304C18.2543 9.5986 18.2682 9.63436 18.2816 9.67032C18.295 9.70627 18.3078 9.74244 18.3202 9.77878C18.3325 9.81512 18.3442 9.85166 18.3555 9.88834C18.416 7.4663 17.7301 5.23251 16.0435 3.93012C16.4156 3.85305 16.9815 4.08535 18.0747 4.92756C17.467 3.70332 16.409 2.56607 14.9338 1.49707C16.9507 2.10038 18.7661 3.33011 20.1742 5.70481C20.1885 5.205 19.0248 3.55691 17.9404 2.62221L18.0021 2.30295L19.2803 3.47214L19.3496 3.20571C21.023 5.205 21.372 6.93347 21.3995 8.60028C21.3577 9.77827 21.1959 10.8902 20.7984 11.8821C21.5172 11.3812 21.8386 10.8539 21.5019 9.17165L21.7584 8.11806C22.1262 9.76945 22.1459 11.5629 21.2796 13.6998C20.8612 14.869 19.8351 16.026 19.1118 17.1897L20.0366 16.5292L21.034 14.5134C21.0411 14.5566 21.0472 14.5999 21.0526 14.6434C21.0579 14.6868 21.0624 14.7304 21.066 14.774C21.0696 14.8176 21.0724 14.8613 21.0743 14.905C21.0762 14.9488 21.0772 14.9925 21.0774 15.0363C21.0775 15.0801 21.0769 15.1239 21.0753 15.1676C21.0738 15.2113 21.0714 15.255 21.0681 15.2987C21.0648 15.3424 21.0607 15.3859 21.0557 15.4294C21.0507 15.4729 21.0449 15.5163 21.0382 15.5596C21.0315 15.6028 21.0239 15.6459 21.0156 15.6889C21.0072 15.7319 20.9979 15.7747 20.9879 15.8173C20.9778 15.8599 20.9669 15.9023 20.9551 15.9444C20.9434 15.9866 20.9308 16.0285 20.9174 16.0702C20.904 16.1119 20.8898 16.1533 20.8748 16.1944C20.8598 16.2355 20.8439 16.2763 20.8273 16.3168C20.8107 16.3573 20.7932 16.3975 20.775 16.4373C20.7568 16.4771 20.7378 16.5165 20.7181 16.5556C20.6735 16.6258 20.6278 16.6952 20.581 16.7639C20.5342 16.8326 20.4863 16.9006 20.4373 16.9678C20.3884 17.035 20.3384 17.1014 20.2873 17.167C20.2362 17.2326 20.1842 17.2974 20.1311 17.3613C20.078 17.4253 20.0238 17.4884 19.9687 17.5506C19.9136 17.6129 19.8575 17.6742 19.8005 17.7347C19.7434 17.7952 19.6854 17.8547 19.6265 17.9133C19.5675 17.972 19.5077 18.0297 19.4469 18.0864C19.3862 18.1431 19.3245 18.1989 19.262 18.2537C19.1994 18.3085 19.136 18.3622 19.0718 18.415C19.0075 18.4678 18.9425 18.5195 18.8766 18.5702C18.8107 18.6209 18.7441 18.6706 18.6766 18.7192C18.6092 18.7678 18.541 18.8153 18.472 18.8618C18.403 18.9082 18.3334 18.9535 18.263 18.9978C18.1926 19.042 18.1215 19.0851 18.0498 19.1271C17.978 19.169 17.9056 19.2099 17.8325 19.2496C17.8215 19.5523 17.6487 19.876 17.2248 20.2272C15.7936 21.3336 13.8483 21.7961 11.4163 21.6585L11.7697 21.9986C11.6483 22.0004 11.527 21.9995 11.4056 21.9961C11.2842 21.9926 11.163 21.9865 11.0419 21.9778C10.9209 21.9691 10.8 21.9577 10.6794 21.9438C10.5588 21.9299 10.4386 21.9134 10.3187 21.8941C10.1988 21.8751 10.0794 21.8534 9.96046 21.829C9.8415 21.8048 9.72314 21.778 9.60537 21.7486C9.48757 21.719 9.37048 21.6871 9.25408 21.6527C9.13768 21.6181 9.02208 21.5811 8.90729 21.5417L9.46656 21.915C4.01255 20.5531 0.563335 16.9673 0.504985 12.088L0.000759142 13.0128C-0.0190576 11.9702 0.354158 11.0685 0.528105 10.0997L0.611776 9.29495L0.249569 10.1757C0.419106 8.94707 0.675622 7.68429 1.61802 6.17161C1.614 6.1271 1.61048 6.08252 1.60747 6.0379C1.60446 5.99331 1.60196 5.94869 1.59996 5.904C1.59797 5.85936 1.59647 5.81468 1.59549 5.76997C1.59451 5.72528 1.59403 5.68058 1.59406 5.63587C1.5941 5.59117 1.59463 5.54646 1.59568 5.50175C1.59672 5.45707 1.59828 5.41241 1.60033 5.36772C1.60239 5.32308 1.60496 5.27844 1.60803 5.23384C1.6111 5.18924 1.61468 5.14469 1.61876 5.10015C1.62285 5.05564 1.62743 5.01117 1.63252 4.96674C1.63762 4.92234 1.64321 4.878 1.64931 4.8337C1.65541 4.7894 1.66201 4.74519 1.66911 4.70105C1.67621 4.65692 1.68381 4.61286 1.69191 4.56888C1.70002 4.52493 1.70861 4.48106 1.71771 4.43728C1.72681 4.39352 1.7364 4.34987 1.74649 4.3063C1.75657 4.26274 1.76715 4.2193 1.77822 4.17599C1.7893 4.13268 1.80086 4.0895 1.81291 4.04643C1.82497 4.00338 1.83751 3.96048 1.85053 3.91771C1.86356 3.87496 1.87707 3.83234 1.89106 3.78987C1.90506 3.74742 1.91953 3.70513 1.93448 3.66298C1.94943 3.62086 1.96486 3.5789 1.98077 3.53713C1.99667 3.49534 2.01305 3.45374 2.0299 3.41232C2.04675 3.37092 2.06406 3.32971 2.08185 3.2887C2.09963 3.24767 2.11788 3.20685 2.13659 3.16625C2.15531 3.12566 2.17447 3.08527 2.1941 3.0451C2.21371 3.00493 2.2338 2.96499 2.25433 2.92526C2.27485 2.88555 2.29583 2.84608 2.31727 2.80684C2.33869 2.76761 2.36056 2.72862 2.38288 2.68988C2.4052 2.65114 2.42795 2.61265 2.45113 2.57443C2.47431 2.53621 2.49795 2.49826 2.52199 2.46057C2.54603 2.42288 2.5705 2.38546 2.5954 2.34832C2.6203 2.31119 2.64561 2.27435 2.67135 2.23779C2.69707 2.20124 2.72322 2.16497 2.74978 2.129L2.74978 2.129Z"   fill="#E36724" >
</path>
<path d="M7.87232 5.21738C7.53214 6.64858 7.64662 7.89704 8.53287 8.83064C8.70725 8.67243 8.89074 8.52565 9.08334 8.39026C9.59087 8.07979 10.2041 7.83979 10.8448 6.9029L10.8922 6.29409C10.5322 6.16197 9.59309 6.10473 8.60224 6.04968C8.19819 5.87133 7.95049 5.5961 7.87013 5.22289L7.87232 5.21738ZM7.48479 9.9734C5.44588 9.88092 4.83156 11.2241 5.13321 13.4865C5.18054 12.2754 7.04882 10.8057 7.05213 10.7782C7.05424 10.7588 7.05682 10.7394 7.05987 10.7202C7.06293 10.7009 7.06643 10.6817 7.07039 10.6626C7.07437 10.6435 7.0788 10.6245 7.08368 10.6056C7.08858 10.5867 7.09391 10.5679 7.09968 10.5493C7.10548 10.5306 7.1117 10.5121 7.11836 10.4938C7.12505 10.4754 7.13217 10.4573 7.13972 10.4393C7.14726 10.4213 7.15524 10.4035 7.16363 10.3859C7.17206 10.3683 7.18088 10.3508 7.1901 10.3337C7.19935 10.3165 7.209 10.2995 7.21907 10.2828C7.22913 10.2661 7.23958 10.2496 7.25042 10.2334C7.26128 10.2171 7.2725 10.2012 7.28411 10.1855C7.29573 10.1698 7.30773 10.1544 7.32007 10.1393C7.33243 10.1242 7.34514 10.1094 7.35822 10.0949C7.37129 10.0804 7.38471 10.0662 7.39845 10.0524C7.41221 10.0385 7.42627 10.025 7.44066 10.0119C7.45507 9.99867 7.46978 9.98585 7.48479 9.9734ZM12.8728 13.4964C12.4379 13.2696 11.8103 13.2608 10.9175 13.5569C8.93583 14.0534 7.30093 13.7771 5.93689 12.903C6.16257 13.6494 6.77029 14.3044 8.15637 14.7746C8.20189 14.7844 8.24754 14.7936 8.29332 14.8021C8.33912 14.8107 8.38501 14.8185 8.43103 14.8257C8.47705 14.8328 8.52317 14.8393 8.56939 14.8451C8.61562 14.8509 8.66189 14.856 8.70826 14.8604C8.75462 14.8648 8.80104 14.8686 8.84751 14.8716C8.894 14.8747 8.94052 14.877 8.98705 14.8787C9.03358 14.8804 9.08014 14.8813 9.12672 14.8816C9.17329 14.8819 9.21987 14.8815 9.26643 14.8804C9.313 14.8793 9.35954 14.8776 9.40603 14.8751C9.45256 14.8726 9.49901 14.8695 9.54541 14.8657C9.59184 14.8618 9.6382 14.8573 9.68448 14.8521C9.73075 14.8468 9.77694 14.8409 9.82305 14.8344C9.86915 14.8278 9.91517 14.8205 9.96106 14.8126C10.0069 14.8046 10.0527 14.796 10.0983 14.7867C10.144 14.7774 10.1895 14.7674 10.2348 14.7568C10.2801 14.7461 10.3253 14.7348 10.3703 14.7228C10.4238 14.7072 10.4769 14.6905 10.5296 14.6726C10.5823 14.6548 10.6347 14.6358 10.6865 14.6156C10.7385 14.5955 10.7899 14.5742 10.8409 14.5519C10.8919 14.5295 10.9424 14.5061 10.9924 14.4816C11.0423 14.457 11.0918 14.4314 11.1407 14.4048C11.1895 14.3781 11.2378 14.3504 11.2855 14.3217C11.3332 14.2929 11.3802 14.2632 11.4266 14.2324C11.473 14.2016 11.5187 14.1699 11.5637 14.1371C12.0041 13.7716 12.4368 13.4986 12.8716 13.4964L12.8728 13.4964ZM3.88145 4.35866L1.78198 6.01005C2.09134 5.20196 2.51961 4.4214 3.33761 3.76855L3.88145 4.35866Z"   fill="#D5562C" >
</path>
<path d="M7.88896 7.75989C7.85813 7.663 8.39978 7.44611 8.45483 7.44392C8.50988 7.44173 9.2519 7.30961 9.33558 7.34705L9.5954 7.46813C10.1117 7.26998 10.3738 7.08831 10.5995 6.8252L10.5851 7.32171C10.4013 7.60356 9.31356 8.27731 8.78072 8.59438C8.7576 8.60539 8.74109 8.64064 8.72236 8.65494C8.68716 8.6795 8.65372 8.70624 8.62202 8.73517C8.59032 8.7641 8.56065 8.79497 8.533 8.82778C8.50547 8.84761 8.01446 8.13199 7.88896 7.75549L7.88896 7.75989Z"   fill="#F0B991" >
</path>
<path d="M10.073 6.11621L10.488 6.30007L10.5981 6.82301L10.5838 7.31953L10.8568 6.87144C10.8636 6.84921 10.8696 6.82676 10.8748 6.80411C10.88 6.78146 10.8845 6.75866 10.8881 6.73571C10.8918 6.71276 10.8946 6.6897 10.8967 6.66655C10.8988 6.6434 10.9 6.62021 10.9005 6.59697C10.9009 6.57373 10.9006 6.5505 10.8995 6.5273C10.8983 6.50409 10.8964 6.48094 10.8937 6.45786C10.891 6.43478 10.8874 6.41181 10.8831 6.38896C10.8788 6.36613 10.8737 6.34346 10.8679 6.32097C10.8581 6.31098 10.848 6.30141 10.8374 6.29228C10.8268 6.28316 10.8159 6.27451 10.8046 6.26633C10.7932 6.25814 10.7816 6.25045 10.7696 6.24325C10.7576 6.23607 10.7454 6.22941 10.7328 6.22328C10.7203 6.21716 10.7075 6.21157 10.6945 6.20653C10.6815 6.20149 10.6682 6.19703 10.6548 6.19313C10.6414 6.18923 10.6279 6.18592 10.6142 6.18319C10.6005 6.18046 10.5867 6.17831 10.5728 6.17676L10.073 6.11621Z"   fill="#7E3430" >
</path>
<path d="M4.86905 4.18247C4.93495 4.17651 5.00096 4.17194 5.06706 4.16877C5.13315 4.16561 5.19928 4.16383 5.26545 4.16344C5.33162 4.16307 5.39778 4.16409 5.46391 4.16652C5.53004 4.16892 5.59608 4.17274 5.66204 4.17796C5.72802 4.18316 5.79384 4.18976 5.85953 4.19776C5.92522 4.20575 5.9907 4.21511 6.05599 4.22587C6.12129 4.23663 6.18632 4.24877 6.25109 4.26227C6.31587 4.27578 6.38034 4.29064 6.44449 4.30687C7.32524 3.32375 8.30946 2.96814 9.36196 3.00558C9.31863 3.03987 9.27594 3.07497 9.23393 3.11088C9.19193 3.14678 9.1506 3.18346 9.10998 3.22094C9.06936 3.25841 9.02945 3.29664 8.99029 3.33562C8.95111 3.3746 8.91268 3.4143 8.87501 3.45473C8.83733 3.49517 8.80043 3.5363 8.76433 3.57813C8.7282 3.61997 8.69289 3.66247 8.65838 3.70563C8.62387 3.74879 8.59019 3.7926 8.55736 3.83706C8.52452 3.8815 8.49252 3.92654 8.46136 3.97219C8.43023 4.01785 8.39997 4.06408 8.37058 4.11089C8.34118 4.15768 8.31267 4.20502 8.28508 4.2529C8.25749 4.30078 8.2308 4.34916 8.20502 4.39805C8.17924 4.44695 8.1544 4.49631 8.13051 4.54614C8.10662 4.59596 8.08368 4.64622 8.06168 4.69692C8.03968 4.74763 8.01865 4.79873 7.99859 4.85022C7.97852 4.90172 7.95943 4.95357 7.94132 5.00578C7.92324 5.05799 7.90612 5.11053 7.89001 5.1634C7.61367 6.05625 7.66984 6.90947 7.89001 7.73958C7.90741 7.78985 7.92605 7.83965 7.94594 7.88898C7.96584 7.93831 7.98693 7.98713 8.00925 8.0354C8.03157 8.0837 8.05508 8.13139 8.07978 8.17849C8.10449 8.2256 8.13036 8.27207 8.15737 8.31787C8.1844 8.3637 8.21255 8.40881 8.24181 8.45322C8.27108 8.49764 8.30144 8.5413 8.33288 8.58419C8.36434 8.62709 8.39683 8.66918 8.43038 8.71046C8.46395 8.75175 8.4985 8.79216 8.53407 8.8317C8.54045 8.86144 8.54637 8.89127 8.55185 8.92118C8.55734 8.95111 8.56235 8.98109 8.56688 9.01115C8.57144 9.04121 8.57555 9.07136 8.57918 9.10155C8.58282 9.13174 8.586 9.162 8.58871 9.19227C8.59144 9.22257 8.59368 9.25289 8.59546 9.28323C8.59725 9.3136 8.59858 9.34398 8.59944 9.37439C8.6003 9.40479 8.60069 9.4352 8.60062 9.46561C8.60056 9.49601 8.60004 9.52642 8.59903 9.55683C8.59804 9.58723 8.59658 9.61759 8.59464 9.64794C8.59273 9.6783 8.59034 9.7086 8.58751 9.73887C8.58465 9.76915 8.58133 9.79939 8.57757 9.82956C8.57381 9.85975 8.56957 9.88985 8.56486 9.91989C8.56017 9.94995 8.55503 9.97991 8.54942 10.0098C8.54381 10.0397 8.53775 10.0695 8.53123 10.0992C8.52471 10.1289 8.51775 10.1585 8.51033 10.188C8.50291 10.2175 8.49504 10.2469 8.48672 10.2761C8.16636 10.0031 7.84047 9.8908 7.51351 9.95464C5.47236 9.83685 4.81951 11.1657 5.13548 13.4886C4.31749 11.3561 5.00336 9.7664 7.14358 8.76895C6.37293 7.59425 6.67239 5.90652 7.00157 4.82762C6.53146 4.48193 5.7498 4.30027 4.86905 4.18247ZM13.4695 13.2431C13.1767 12.1422 12.2398 11.8582 10.7447 12.2864C10.0335 12.6861 9.0548 12.8061 8.58359 12.4537C8.57591 12.4468 8.56746 12.441 8.55828 12.4361C8.10359 12.1984 7.71607 11.9539 7.41883 11.6038C7.38255 11.5659 7.34328 11.5314 7.30101 11.5003L7.159 11.8703C7.13588 12.7268 8.43608 13.4589 10.104 13.1606C11.5924 12.893 12.6769 12.9789 13.4684 13.2431L13.4695 13.2431Z"   fill="#FF9D00" >
</path>
<path d="M16.3111 14.4561C16.3858 14.2623 16.4555 14.0666 16.5202 13.8692C16.5849 13.6717 16.6445 13.4728 16.699 13.2723C16.7535 13.0718 16.8029 12.87 16.8471 12.667C16.8913 12.464 16.9302 12.26 16.9639 12.055L17.27 12.928C17.3043 12.7383 17.3351 12.548 17.3625 12.3571C17.3899 12.1662 17.4138 11.9749 17.4342 11.7832C17.4546 11.5914 17.4715 11.3994 17.485 11.207C17.4984 11.0146 17.5084 10.8221 17.5148 10.6294C17.5213 10.4367 17.5242 10.2439 17.5236 10.0511C17.5231 9.85824 17.519 9.6655 17.5115 9.47283C17.5039 9.28016 17.4928 9.08768 17.4783 8.89539C17.4637 8.70311 17.4457 8.51117 17.4241 8.31955C17.4508 8.34711 17.477 8.37509 17.5029 8.40345C17.5287 8.4318 17.5541 8.46052 17.5791 8.48962C17.6041 8.51869 17.6287 8.54815 17.6528 8.57796C17.677 8.60776 17.7007 8.63791 17.724 8.6684C17.7472 8.69889 17.7701 8.72971 17.7924 8.76087C17.8148 8.792 17.8367 8.82348 17.8582 8.85529C17.8797 8.88707 17.9006 8.91915 17.9212 8.95156C17.9417 8.98394 17.9618 9.01665 17.9813 9.04964C18.0009 9.08262 18.02 9.11587 18.0386 9.14941C18.0573 9.18294 18.0754 9.21674 18.093 9.2508C18.1107 9.28487 18.1278 9.31916 18.1444 9.35374C18.1611 9.3883 18.1772 9.42309 18.1928 9.45812C18.2084 9.49315 18.2236 9.52839 18.2382 9.56388C18.2528 9.59933 18.2669 9.63501 18.2804 9.67088C18.294 9.70675 18.307 9.74283 18.3196 9.77908C18.3321 9.81534 18.3441 9.85177 18.3555 9.88836C18.3412 6.89824 17.4748 5.01126 16.0436 3.93124C16.5225 3.90812 17.1676 4.17565 18.0737 4.92759C17.3339 3.48754 16.1933 2.42845 14.9316 1.49707C16.5919 1.93744 18.3291 2.77855 20.1721 5.70483L19.4741 3.84426L17.9955 2.30295L19.2539 3.44572L19.3497 3.20021C21.9622 6.40833 21.6253 9.17718 20.7996 11.8756L16.3111 14.4561Z"   fill="#F5B044" >
</path>
<path d="M18.8135 12.4475C19.8836 10.7961 20.1798 8.74945 19.7361 6.3252C21.3875 9.43314 21.3875 12.9726 19.0755 17.1231L17.5166 18.0942L18.8135 12.4475Z"   fill="#FF9D00" >
</path>
<path d="M15.3721 15.7499C16.1747 15.1521 16.6491 13.8783 16.953 12.0673C17.3934 12.7422 17.52 13.7506 17.3317 15.0828C18.0231 14.2119 18.1959 12.5 18.3468 10.7539C19.4863 14.0776 18.7871 16.9874 16.8671 18.696C16.9772 18.6068 15.8554 18.3426 16.2286 17.8692C17.0576 16.8244 17.3031 14.6413 17.0862 14.6005C16.2858 15.6706 15.7805 15.8578 15.3721 15.7488L15.3721 15.7499Z"   fill="#FF9D00" >
</path>
<path d="M13.1501 17.8648C15.1814 17.3429 16.3748 16.2993 17.0243 14.9209C16.9847 16.8255 16.29 18.2754 14.5924 19.0318C13.563 18.7521 13.1612 18.347 13.1501 17.8648Z"   fill="#FF9D00" >
</path>
<path d="M16.5838 19.6279L16.0608 20.1531L16.6278 20.1641C15.9364 20.5549 15.1966 20.6716 14.4546 20.7245C14.9808 20.2841 15.6987 19.9241 16.5794 19.6301L16.5838 19.6279Z"   fill="#10549A" >
</path>
</svg>
