<svg width="19" height="20" viewBox="0 0 19 20" fill="none" xmlns="http://www.w3.org/2000/svg">
<path d="M15.9243 0.844222C16.2046 0.960307 16.3873 1.23378 16.3873 1.53713V5.77977C16.3873 6.19399 16.0515 6.52977 15.6373 6.52977H11.3947C11.0913 6.52977 10.8179 6.34704 10.7018 6.06678C10.5857 5.78653 10.6498 5.46394 10.8643 5.24944L12.4673 3.64644C9.83404 2.54505 6.68268 3.06683 4.5401 5.20941C1.7088 8.04071 1.7088 12.6312 4.5401 15.4625C7.3714 18.2938 11.9618 18.2938 14.7931 15.4625C16.4394 13.8163 17.1289 11.5761 16.8601 9.42963C16.8087 9.01863 17.1001 8.64373 17.5111 8.59227C17.9221 8.54081 18.297 8.83227 18.3485 9.24328C18.6723 11.8293 17.8413 14.5357 15.8538 16.5231C12.4367 19.9402 6.89653 19.9402 3.47944 16.5231C0.0623538 13.106 0.0623541 7.56584 3.47944 4.14875C6.21782 1.41038 10.3181 0.867138 13.5976 2.51622L15.107 1.0068C15.3215 0.792303 15.6441 0.728136 15.9243 0.844222Z" fill="#8F9BB3"/>
</svg>
