<svg width="13" height="13" viewBox="0 0 13 13" fill="none" xmlns="http://www.w3.org/2000/svg">
<path d="M12.4766 6.0446H10.1141C9.47242 6.0446 8.90659 6.0446 8.45159 5.98626C7.95575 5.9221 7.46575 5.7646 7.05742 5.3621C6.65492 4.9596 6.50325 4.46376 6.43325 3.96793C6.36909 3.51293 6.36909 2.9471 6.37492 2.30543V0.654596C6.37492 0.60793 6.38658 0.561263 6.39242 0.514596C6.15325 0.50293 5.87325 0.50293 5.51742 0.50293C3.30659 0.50293 2.19825 0.50293 1.51575 1.18543C0.833252 1.86793 0.833252 2.97043 0.833252 5.1696V7.50293C0.833252 9.7021 0.833252 10.8046 1.51575 11.4871C2.19825 12.1696 3.30075 12.1696 5.49992 12.1696H7.83325C10.0324 12.1696 11.1349 12.1696 11.8174 11.4871C12.4999 10.8046 12.4999 9.7021 12.4999 7.50293V7.24626C12.4999 6.73876 12.4999 6.35376 12.4766 6.0446ZM6.37492 10.2738H3.16659C2.92742 10.2738 2.72909 10.0754 2.72909 9.83626C2.72909 9.5971 2.92742 9.39876 3.16659 9.39876H6.37492C6.61409 9.39876 6.81242 9.5971 6.81242 9.83626C6.81242 10.0754 6.61409 10.2738 6.37492 10.2738ZM7.83325 8.2321H3.16659C2.92742 8.2321 2.72909 8.03376 2.72909 7.7946C2.72909 7.55543 2.92742 7.3571 3.16659 7.3571H7.83325C8.07242 7.3571 8.27075 7.55543 8.27075 7.7946C8.27075 8.03376 8.07242 8.2321 7.83325 8.2321Z" fill="white"/>
<path d="M10.1666 5.1696H12.2549C12.0449 4.76126 11.6658 4.4171 10.9541 3.78126L8.64409 1.7046C7.98492 1.1096 7.65825 0.81793 7.25575 0.66043V2.25293C7.25575 3.6296 7.25575 4.31793 7.67575 4.74376C8.10158 5.1696 8.78992 5.1696 10.1666 5.1696Z" fill="white"/>
</svg>
