<svg width="11" height="11" viewBox="0 0 11 11" fill="none" xmlns="http://www.w3.org/2000/svg">
<path fill-rule="evenodd" clip-rule="evenodd" d="M8.58334 0.231445C8.72104 0.231445 8.85071 0.29628 8.93334 0.406446L10.6833 2.73978C10.8283 2.93308 10.7891 3.2073 10.5958 3.35228C10.4025 3.49725 10.1283 3.45808 9.98333 3.26478L9.02084 1.98145V8.68978L9.98333 7.40645C10.1283 7.21315 10.4025 7.17397 10.5958 7.31895C10.7891 7.46392 10.8283 7.73815 10.6833 7.93145L8.93334 10.2648C8.85071 10.3749 8.72104 10.4398 8.58334 10.4398C8.44563 10.4398 8.31596 10.3749 8.23334 10.2648L6.48333 7.93145C6.33836 7.73815 6.37753 7.46392 6.57083 7.31895C6.76413 7.17397 7.03836 7.21315 7.18333 7.40645L8.14584 8.68978V1.98144L7.18333 3.26478C7.03836 3.45808 6.76413 3.49725 6.57083 3.35228C6.37753 3.2073 6.33836 2.93308 6.48333 2.73978L8.23334 0.406445C8.31596 0.29628 8.44563 0.231445 8.58334 0.231445ZM0.5625 2.41895C0.5625 2.17732 0.758375 1.98145 1 1.98145H5.08333C5.32496 1.98145 5.52083 2.17732 5.52083 2.41895C5.52083 2.66057 5.32496 2.85645 5.08333 2.85645H1C0.758375 2.85645 0.5625 2.66057 0.5625 2.41895ZM0.5625 5.33561C0.5625 5.09399 0.758375 4.89811 1 4.89811H5.08333C5.32496 4.89811 5.52083 5.09399 5.52083 5.33561C5.52083 5.57724 5.32496 5.77311 5.08333 5.77311H1C0.758375 5.77311 0.5625 5.57724 0.5625 5.33561ZM0.5625 8.25228C0.5625 8.01065 0.758375 7.81478 1 7.81478H5.08333C5.32496 7.81478 5.52083 8.01065 5.52083 8.25228C5.52083 8.4939 5.32496 8.68978 5.08333 8.68978H1C0.758375 8.68978 0.5625 8.4939 0.5625 8.25228Z" fill="#101113"/>
</svg>
