<svg width="20" height="20" viewBox="0 0 20 20" fill="none" xmlns="http://www.w3.org/2000/svg">
<path d="M17.5 14.1574V9.99072C17.5 8.4573 17.0398 7.03136 16.25 5.84348M2.5 14.1574V9.99072C2.5 5.84859 5.85786 2.49072 10 2.49072C11.1974 2.49072 12.3292 2.77131 13.3333 3.27032" stroke="currentColor" stroke-width="1.5" stroke-linecap="round"/>
<path d="M18.3333 12.9072V14.5739" stroke="currentColor" stroke-width="1.5" stroke-linecap="round"/>
<path d="M1.66669 12.9072V14.5739" stroke="currentColor" stroke-width="1.5" stroke-linecap="round"/>
<path d="M6.66667 11.5279C6.66667 10.8909 6.66667 10.5724 6.52105 10.3509C6.44778 10.2395 6.35051 10.1474 6.237 10.082C6.01143 9.95199 5.70677 9.98203 5.09745 10.0421C4.07073 10.1433 3.55736 10.194 3.18948 10.4711C3.00329 10.6113 2.84698 10.7902 2.73038 10.9963C2.5 11.4036 2.5 11.9403 2.5 13.0137V14.3185C2.5 15.3812 2.5 15.9125 2.73498 16.3229C2.82293 16.4765 2.93317 16.615 3.0618 16.7335C3.40544 17.0502 3.90703 17.1491 4.91023 17.3469C5.6162 17.4862 5.96918 17.5558 6.2297 17.4092C6.32583 17.3551 6.4108 17.2818 6.47977 17.1936C6.66667 16.9545 6.66667 16.5805 6.66667 15.8327V11.5279Z" stroke="currentColor" stroke-width="1.5"/>
<path d="M13.3333 11.5279C13.3333 10.8909 13.3333 10.5724 13.4789 10.3509C13.5522 10.2395 13.6495 10.1474 13.763 10.082C13.9886 9.95199 14.2932 9.98203 14.9025 10.0421C15.9293 10.1433 16.4426 10.194 16.8105 10.4711C16.9967 10.6113 17.153 10.7902 17.2696 10.9963C17.5 11.4036 17.5 11.9403 17.5 13.0137V14.3185C17.5 15.3812 17.5 15.9125 17.265 16.3229C17.177 16.4765 17.0668 16.615 16.9382 16.7335C16.5945 17.0502 16.0929 17.1491 15.0898 17.3469C14.3838 17.4862 14.0308 17.5558 13.7703 17.4092C13.6741 17.3551 13.5892 17.2818 13.5202 17.1936C13.3333 16.9545 13.3333 16.5805 13.3333 15.8327V11.5279Z" stroke="currentColor" stroke-width="1.5"/>
</svg>
