<svg xmlns="http://www.w3.org/2000/svg" xmlns:xlink="http://www.w3.org/1999/xlink" fill="none" version="1.1" width="24" height="24" viewBox="0 0 24 24"><defs><clipPath id="master_svg0_75_46006"><rect x="0" y="0" width="24" height="24" rx="0"/></clipPath></defs><g clip-path="url(#master_svg0_75_46006)"><g><g transform="matrix(0.8444783687591553,0.5355896949768066,-0.5355896949768066,0.8444783687591553,3.958066692433931,-7.085839569203017)"><path d="M19.41203681640625,3.2725296020507812C19.72962681640625,3.2725296020507812,19.98707681640625,3.450052602050781,19.98707681640625,3.669037602050781C19.98707681640625,3.888022602050781,19.72962681640625,4.065545602050781,19.41203681640625,4.065545602050781C17.69816681640625,4.065590602050781,16.17227681640625,4.8139096020507814,15.60981681640625,5.930219602050782C15.047357816406251,7.046529602050781,15.57168681640625,8.285989602050781,16.91633681640625,9.018719602050782C17.16532681640625,9.154709602050781,17.18862681640625,9.420389602050781,17.01007681640625,9.575819602050782C16.83152681640625,9.73124960205078,16.17599681640625,9.342819602050781,15.92700681640625,9.206829602050782C14.19854761640625,8.264549602050781,13.79998181640625,7.104609602050781,14.52337681640625,5.669519602050782C15.24669681640625,4.234455602050781,17.20854681640625,3.2725295075158813,19.41203681640625,3.2725296020507812Z" fill="#84F2EF" fill-opacity="1"/></g><g transform="matrix(-0.7474755644798279,-0.6642892956733704,0.6642892956733704,-0.7474755644798279,27.30918755937637,23.183438991554794)"><rect x="18.06109619140625" y="6.401031494140625" width="2" height="4" rx="0" fill="#759EFF" fill-opacity="1"/></g><g transform="matrix(-0.7474755644798279,-0.6642892956733704,0.6642892956733704,-0.7474755644798279,18.734652873035884,35.0386421107487)"><path d="M16.72716063261032 16.658404529094696C16.72716063261032 15.55383502943311 17.622591132948735 14.658404529094696 18.72716063261032 14.658404529094696L22.32716065645218 14.658404529094696C23.431730156113765 14.658404529094696 24.32716065645218 15.55383502943311 24.32716065645218 16.658404529094696L24.32716065645218 17.958404541015625C24.32716065645218 19.78094422204099 22.849700325556615 21.258404552936554 21.02716064453125 21.258404552936554L20.02716064453125 21.258404552936554C18.204620963505885 21.258404552936554 16.72716063261032 19.78094422204099 16.72716063261032 17.958404541015625Z" fill-opacity="0" stroke-opacity="1" stroke="#000000" fill="none" stroke-width="1.399999976158142"/></g><g transform="matrix(-0.7474755644798279,-0.6642892956733704,0.6642892956733704,-0.7474755644798279,11.600174749264625,33.49009974758701)"><g><rect x="12.16558837890625" y="14.540191650390625" width="1" height="2" rx="0" fill="#000000" fill-opacity="1"/></g><g><rect x="15.16558837890625" y="14.540191650390625" width="1" height="2" rx="0" fill="#000000" fill-opacity="1"/></g></g><g transform="matrix(-0.7474755644798279,-0.6642892956733704,-0.6642892956733704,0.7474755644798279,35.28696141506771,13.414065076691259)"><g><rect x="17.53448486328125" y="23.200836181640625" width="2" height="4" rx="0" fill="#759EFF" fill-opacity="1"/></g><g><path d="M14.734484851360321 18.900836169719696C14.734484851360321 17.79626667005811 15.629915351698735 16.900836169719696 16.73448485136032 16.900836169719696L20.33448487520218 16.900836169719696C21.439054374863765 16.900836169719696 22.33448487520218 17.79626667005811 22.33448487520218 18.900836169719696L22.33448487520218 20.200836181640625C22.33448487520218 22.02337586266599 20.857024544306615 23.500836193561554 19.03448486328125 23.500836193561554L18.03448486328125 23.500836193561554C16.211945182255885 23.500836193561554 14.734484851360321 22.02337586266599 14.734484851360321 20.200836181640625Z" fill-opacity="0" stroke-opacity="1" stroke="#000000" fill="none" stroke-width="1.399999976158142"/></g></g></g></g></svg>