<svg xmlns="http://www.w3.org/2000/svg" xmlns:xlink="http://www.w3.org/1999/xlink" fill="none" version="1.1" width="16" height="16" viewBox="0 0 16 16"><defs><clipPath id="master_svg0_83_59413"><rect x="0" y="0" width="16" height="16" rx="0"/></clipPath></defs><g clip-path="url(#master_svg0_83_59413)"><g transform="matrix(0.9715170860290527,-0.23696938157081604,-0.23696938157081604,-0.9715170860290527,3.3098772537487093,27.53722548499718)"><path d="M10.5177469140625,12.7165634375L9.8197669140625,12.7698004375L7.8004069140625,12.9238164375Q5.9629269140625,13.0639614375,4.7103799140625,14.4156724375Q3.4578369140625,15.7673834375,3.4578369140625,17.6102034375L3.4578369140625,19.7604634375L3.4578339140625,20.4604634375L4.8578399140625,20.4604634375L4.8578369140625,19.7604634375L4.8578369140625,17.6102034375Q4.8578369140625,16.3163134375,5.7372869140625,15.3672334375Q6.6167269140625,14.4181614375,7.9068769140625,14.3197624375L9.9262369140625,14.1657464375L10.624216914062501,14.1125154375L10.5177469140625,12.7165634375Z" fill-rule="evenodd" fill="#84F2EF" fill-opacity="1"/></g><g><path d="M15.01362373046875,1.4904087382812499C14.99172373046875,1.20547673828125,14.77262373046875,0.98629873828125,14.48762373046875,0.9643807382812499L8.15339373046875,0.65753173828125C7.99997373046875,0.65753173828125,7.84655373046875,0.70136733828125,7.73696373046875,0.81095673828125L0.46024873046875003,8.10958173828125C0.35065933046875,8.21917173828125,0.30682373046875,8.35068173828125,0.30682373046875,8.50411173828125C0.30682373046875,8.65753173828125,0.37257713046875,8.78904173828125,0.46024873046875003,8.89863173828125L7.16709373046875,15.60543173828125C7.27668373046875,15.71503173828125,7.40819373046875,15.75893173828125,7.56161373046875,15.75893173828125C7.71504373046875,15.75893173828125,7.84655373046875,15.71503173828125,7.95613373046875,15.60543173828125L15.23282373046875,8.328761738281251C15.34242373046875,8.21917173828125,15.40822373046875,8.06575173828125,15.38632373046875,7.91232173828125L15.01362373046875,1.4904087382812499ZM7.53970373046875,14.42193173828125L1.62189373046875,8.50411173828125L8.32874373046875,1.75342173828125L13.93972373046875,2.03835173828125L14.24652373046875,7.69315173828125L7.53970373046875,14.42193173828125Z" fill="#000000" fill-opacity="1"/></g><g><path d="M8.9862731640625,4.427384212890625C8.2410671640625,5.172588212890625,8.2410671640625,6.356148212890625,8.9862731640625,7.101358212890625C9.3369581640625,7.452038212890625,9.8191481640625,7.649298212890625,10.3232581640625,7.649298212890625C10.8273681640625,7.649298212890625,11.3095581640625,7.452038212890625,11.6602481640625,7.101358212890625C12.0109281640625,6.750668212890625,12.2081881640625,6.268478212890625,12.2081881640625,5.764368212890625C12.2081881640625,5.260258212890625,12.0109281640625,4.778069212890625,11.6602481640625,4.427384212890625C10.9369581640625,3.704096212890625,9.7314781640625,3.704096212890625,8.9862731640625,4.427384212890625ZM10.8931181640625,6.334238212890625C10.5862681640625,6.641088212890625,10.0602481640625,6.641088212890625,9.7753181640625,6.334238212890625C9.4684681640625,6.027388212890624,9.4684681640625,5.5232782128906255,9.7753181640625,5.216428212890625C9.9287381640625,5.062998212890625,10.1259981640625,4.975328212890625,10.3451781640625,4.975328212890625C10.5424381640625,4.975328212890625,10.7616181640625,5.062998212890625,10.9150381640625,5.216428212890625C11.0684681640625,5.369848212890625,11.1561381640625,5.567108212890625,11.1561381640625,5.786288212890625C11.1561381640625,6.005468212890625,11.0465481640625,6.180808212890625,10.8931181640625,6.334238212890625Z" fill="#759EFF" fill-opacity="1"/></g></g></svg>