<svg xmlns="http://www.w3.org/2000/svg" xmlns:xlink="http://www.w3.org/1999/xlink" fill="none" version="1.1" width="24" height="24" viewBox="0 0 24 24"><defs><clipPath id="master_svg0_72_47541"><rect x="0" y="0" width="24" height="24" rx="0"/></clipPath></defs><g clip-path="url(#master_svg0_72_47541)"><g transform="matrix(-0.9931105375289917,0.11718085408210754,0.11718085408210754,0.9931105375289917,30.952025586584853,-1.8197605521727667)"><path d="M19.298915995178223,9.049398201293945Q19.793585995178223,8.788049201293946,20.368455995178223,8.801332201293945L21.068265995178223,8.817504201293945L21.10060599517822,7.417872201293945L20.40079599517822,7.401705201293945Q19.46170599517822,7.380007201293945,18.644915995178224,7.811546201293945Q17.871015995178222,8.220425201293946,17.36850599517822,8.946975201293945Q16.86599999517822,9.673528201293946,16.756492995178224,10.541918201293946Q16.640917995178224,11.458448201293946,16.992577995178223,12.329468201293945L17.484795995178224,13.548638201293945L17.746855995178223,14.197738201293944L19.04504599517822,13.673618201293944L18.782985995178223,13.024518201293946L18.290765995178223,11.805348201293945Q18.075495995178223,11.272148201293945,18.145495995178223,10.717078201293946Q18.21216599517822,10.188338201293945,18.519935995178223,9.743348201293946Q18.827705995178224,9.298358201293945,19.298915995178223,9.049398201293945Z" fill-rule="evenodd" fill="#84F2EF" fill-opacity="1"/></g><g><path d="M14.5101,21.9999L4.2125,21.9999C3.62171,21.9999,3.08459,21.7797,2.6592510000000003,21.3632C2.227957,20.9409,1.999999552964,20.3995,1.999999552964,19.7975L1.999999552964,17.369300000000003L2.0226742,17.273699999999998C2.137378,16.7894,2.365732,16.412300000000002,2.701464,16.1528C2.919692,15.9842,3.18444,15.8951,3.4672400000000003,15.8951C3.7713200000000002,15.8951,4.08553,15.995,4.427709999999999,16.200400000000002C4.49621,16.2404,4.53787,16.2609,4.5587,16.270400000000002L4.6404,16.284100000000002L4.75258,16.340400000000002C4.99956,16.4645,5.2396899999999995,16.5248,5.48667,16.5248C5.75166,16.5248,5.9899000000000004,16.478,6.21506,16.3818C6.44518,16.2834,6.6392,16.153,6.80817,15.9832C6.97885,15.8117,7.10945,15.6182,7.2075,15.3915C7.30153,15.1741,7.34726,14.9402,7.34726,14.6761C7.34726,14.4097,7.3007,14.1704,7.20496,13.9443C7.10699,13.7129,6.97724,13.518,6.80823,13.3481C6.63918,13.1783,6.44516,13.0479,6.21498,12.9495C5.98998,12.8532,5.75178,12.8064,5.48667,12.8064C5.23923,12.8064,5.00063,12.8588,4.75727,12.9664L4.72189,12.982L4.68522,12.9943C4.61924,13.0164,4.59068,13.0302,4.58564,13.0327C4.40587,13.123,4.22712,13.2071,4.05414,13.2827C3.76,13.4112,3.47141,13.4612,3.20112,13.431C2.831336,13.3898,2.5062670000000002,13.1846,2.286351,12.8532C2.113333,12.5924,2.0226744,12.2573,2.000952822,11.7984L1.999999760408,11.75857L1.999999760408,9.55466C1.999999760408,8.95683,2.225316,8.41443,2.651548,7.9861C3.0779,7.55775,3.61762,7.33139,4.2125,7.33139L6.08796,7.33139C5.96713,6.95262,5.90597,6.55062,5.90597,6.13336C5.90597,5.55719,6.01744,5.00964,6.23731,4.50593C6.45241,4.01313,6.74638,3.5774600000000003,7.11106,3.21098C7.47582,2.844475,7.90938,2.549064,8.39972,2.332942C8.90091,2.112032,9.438780000000001,2.000000670552,9.99836,2.000000670552C10.55792,2.000000670552,11.09578,2.112012,11.59704,2.332942C12.0874,2.549083,12.521,2.844515,12.8857,3.21098C13.2504,3.5774600000000003,13.5444,4.013170000000001,13.7594,4.50601C13.9793,5.00958,14.0908,5.55717,14.0908,6.13336C14.0908,6.55475,14.0335,6.95469,13.9195,7.33139L14.5101,7.33139C15.1091,7.33139,15.6479,7.56044,16.068199999999997,7.99382C16.482599999999998,8.42136,16.701700000000002,8.96106,16.701700000000002,9.55466L16.701700000000002,10.91783C17.0987,10.78026,17.5198,10.71065,17.9566,10.71065C18.4998,10.71065,19.025,10.81819,19.5174,11.03028C20.0034,11.23958,20.4356,11.53241,20.8021,11.90063C21.1685,12.2688,21.4599,12.7032,21.6683,13.1916C21.8793,13.6864,21.9863,14.2141,21.9863,14.76C21.9863,15.3218,21.8786,15.8547,21.6661,16.344099999999997C21.4578,16.8236,21.1671,17.2527,20.802,17.619500000000002C20.4357,17.9876,20.0035,18.2805,19.5175,18.4898C19.0249,18.702,18.4997,18.8095,17.9566,18.8095C17.5197,18.8095,17.098599999999998,18.7399,16.701700000000002,18.6023L16.701700000000002,19.7975C16.701700000000002,20.3952,16.4801,20.9339,16.0608,21.3555C15.6413,21.7771,15.1051,21.9999,14.5101,21.9999ZM3.66784,17.694000000000003L3.66784,19.7975C3.66784,19.949,3.7128699999999997,20.0548,3.82322,20.1629C3.93848,20.2758,4.05491,20.3239,4.2125,20.3239L14.5101,20.3239C14.6653,20.3239,14.7729,20.2795,14.8813,20.1706C14.9896,20.0616,15.0339,19.9535,15.0339,19.7975L15.0339,15.3616L16.407899999999998,16.5353C16.618299999999998,16.7151,16.8632,16.8634,17.1358,16.9762C17.3915,17.082,17.66,17.133499999999998,17.9565,17.133499999999998C18.2771,17.133499999999998,18.5727,17.0733,18.8605,16.9494C19.1546,16.822699999999998,19.4039,16.6542,19.6227,16.4344C19.8428,16.2132,20.0112,15.9644,20.1374,15.6737C20.2592,15.3932,20.3185,15.0943,20.3185,14.76C20.3185,14.4379,20.2585,14.1408,20.1352,13.8517C20.0091,13.5561,19.8415,13.3056,19.6228,13.0857C19.4039,12.8659,19.1546,12.6974,18.8604,12.5707C18.5727,12.4469,18.2771,12.3866,17.9565,12.3866C17.8082,12.3866,17.667,12.3995,17.5308,12.4256C17.3946,12.4517,17.2635,12.491,17.1356,12.5439C16.8632,12.6567,16.618299999999998,12.805,16.4078,12.9848L15.0338,14.1582L15.0338,9.55466C15.0338,9.39628,14.9859,9.27928,14.8735,9.163409999999999C14.7661,9.052579999999999,14.6608,9.00737,14.5101,9.00737L10.71738,9.00737L11.89152,7.62529C12.2491,7.20437,12.4229,6.71637,12.4229,6.13336C12.4229,5.7855,12.3605,5.47339,12.232,5.17915C12.0987,4.87371,11.92682,4.61758,11.70635,4.39607C11.48587,4.174519999999999,11.23099,4.0017,10.92711,3.86776C10.63429,3.73869,10.33048,3.67598,9.99836,3.67598C9.66625,3.67598,9.362459999999999,3.73871,9.06968,3.86776C8.76581,4.00168,8.510909999999999,4.17448,8.2904,4.39607C8.06995,4.6175999999999995,7.89798,4.87371,7.76471,5.179069999999999C7.63625,5.47337,7.57383,5.78552,7.57383,6.13334C7.57383,6.42335,7.62029,6.68468,7.71583,6.93227C7.8168,7.19396,7.9535,7.434,8.122150000000001,7.64586L9.20612,9.007349999999999L4.2125,9.007349999999999C4.05728,9.007349999999999,3.9466799999999997,9.05484,3.8308299999999997,9.171240000000001C3.7150499999999997,9.28756,3.66782,9.39865,3.66782,9.55466L3.66782,11.61803C3.7247,11.59081,3.78202,11.5627,3.83954,11.53379C3.92178,11.49245,4.0141100000000005,11.45406,4.12075,11.41697C4.56295,11.22684,5.02226,11.13048,5.48663,11.13048C5.973800000000001,11.13048,6.43859,11.22363,6.86807,11.40735C7.29242,11.58882,7.66909,11.84307,7.98751,12.1631C8.30593,12.483,8.558959999999999,12.8615,8.73958,13.2881C8.92235,13.7196,9.01506,14.1867,9.01506,14.6762C9.01506,15.1678,8.9215,15.6333,8.736979999999999,16.0597C8.556519999999999,16.4769,8.304359999999999,16.849899999999998,7.98751,17.168300000000002C7.66917,17.4882,7.29248,17.7425,6.86796,17.924C6.43827,18.1077,5.97354,18.2008,5.48663,18.2008C5.01255,18.2008,4.54454,18.0936,4.09401,17.8819C3.9663,17.844,3.8284599999999998,17.7832,3.66784,17.694000000000003Z" fill="#000000" fill-opacity="1"/></g><g><path d="M2.0000977516174316,19.24179212432861L2.0000977516174316,17.369242124328615L2.0234201516174317,17.273552124328614C2.1414027516174317,16.789332124328613,2.3762857516174316,16.412232124328614,2.7216157516174317,16.152722124328612C2.9460827516174315,15.984082124328612,3.218397751617432,15.894992124328613,3.5092777516174314,15.894992124328613C3.8220577516174314,15.894992124328613,4.145247751617432,15.994852124328613,4.497217751617431,16.200302124328612C4.567677751617431,16.240332124328614,4.610517751617431,16.260802124328613,4.631947751617432,16.270252124328614L4.715987751617432,16.28394212432861L4.831377751617431,16.340312124328612C5.085417751617431,16.464412124328614,5.332407751617431,16.524722124328612,5.586447751617431,16.524722124328612C5.8590077516174315,16.524722124328612,6.104067751617432,16.477942124328614,6.335657751617432,16.381692124328612C6.572357751617432,16.283282124328615,6.771927751617431,16.152902124328612,6.945727751617432,15.983082124328615C7.121287751617432,15.811552124328614,7.255627751617432,15.618042124328614,7.356467751617432,15.391382124328613C7.453197751617432,15.174022124328612,7.500227751617432,14.940072124328614,7.500227751617432,14.676022124328613C7.500227751617432,14.409642124328613,7.452337751617431,14.170252124328613,7.353857751617432,13.944182124328613C7.253087751617431,13.712832124328614,7.119627751617432,13.517862124328612,6.945787751617432,13.348032124328613C6.771907751617432,13.178152124328614,6.5723377516174315,13.047752124328614,6.335577751617431,12.949342124328613C6.104147751617432,12.853092124328613,5.859127751617432,12.806332124328613,5.586447751617431,12.806332124328613C5.331937751617431,12.806332124328613,5.086517751617432,12.858642124328613,4.836197751617432,12.966262124328614L4.799797751617431,12.981902124328613L4.762077751617431,12.994172124328614C4.6942177516174315,13.016282124328614,4.664847751617431,13.030092124328613,4.659657751617432,13.032622124328613C4.474747751617432,13.122922124328614,4.290887751617431,13.207002124328614,4.112957751617431,13.282562124328614C3.8104177516174316,13.411092124328613,3.5135677516174315,13.461052124328614,3.2355577516174314,13.430852124328613C2.8552007516174314,13.389682124328614,2.5208387516174318,13.184462124328613,2.294635751617432,12.853072124328612C2.1166707516174315,12.592322124328613,2.0234204516174317,12.257182124328613,2.0010778136174316,11.798285124328613L2.0000981413404317,11.758477124328614Q2.3885607516174314,11.498924124328614,2.8220567516174317,11.324709124328614Q3.255557751617432,11.150492924328613,3.7155977516174317,11.069045014828614L3.7155977516174317,11.617917124328613C3.7741077516174317,11.590702124328613,3.8330677516174316,11.562589124328614,3.8922277516174315,11.533679124328613C3.976817751617432,11.492339124328613,4.071787751617432,11.453949124328613,4.1814777516174315,11.416859124328614C4.636317751617431,11.226735124328613,5.108757751617432,11.130366324328612,5.586407751617432,11.130366324328612C6.087497751617431,11.130366324328612,6.565577751617432,11.223522124328614,7.007347751617432,11.407242124328613C7.4438177516174315,11.588707124328613,7.831257751617431,11.842956124328614,8.158777751617432,12.162952124328614C8.486307751617431,12.482902124328614,8.746567751617432,12.861412124328613,8.932357751617431,13.287952124328614C9.120347751617432,13.719532124328612,9.215707751617431,14.186572124328613,9.215707751617431,14.676042124328614C9.215707751617431,15.167722124328613,9.119467751617432,15.633222124328613,8.929687751617433,16.05964212432861C8.744057751617433,16.476782124328615,8.484687751617432,16.849762124328613,8.158777751617432,17.168162124328614C7.8313477516174315,17.488092124328613,7.443877751617432,17.742382124328614,7.007217751617431,17.923902124328613C6.565247751617432,18.107602124328615,6.087237751617431,18.200722124328614,5.586407751617432,18.200722124328614C5.098767751617432,18.200722124328614,4.617387751617432,18.093502124328612,4.153967751617431,17.881832124328614C4.022607751617432,17.843922124328614,3.880837751617432,17.783042124328613,3.7156177516174314,17.693922124328612L3.7156177516174314,19.797432124328616C3.7156177516174314,19.847332124328613,3.720647751617432,19.892282124328613,3.7314477516174316,19.934002124328615Q3.2671177516174317,19.853502124328614,2.8295287516174317,19.67855212432861Q2.391943751617432,19.503602124328616,2.0000977516174316,19.24179212432861Z" fill-rule="evenodd" fill="#759EFF" fill-opacity="1"/></g></g></svg>