<svg xmlns="http://www.w3.org/2000/svg" xmlns:xlink="http://www.w3.org/1999/xlink" fill="none" version="1.1" width="24" height="24" viewBox="0 0 24 24"><defs><clipPath id="master_svg0_72_47622"><rect x="0" y="0" width="24" height="24" rx="0"/></clipPath></defs><g clip-path="url(#master_svg0_72_47622)"><g transform="matrix(0.01577579788863659,-0.9998093843460083,0.9998093843460083,0.01577579788863659,-19.476280658996366,21.588599409593968)"><path d="M4.863779513702393,24.285384057617186Q5.571949513702393,24.279284057617186,6.194919513702392,24.675274057617187L6.785669513702393,25.05079405761719L7.536699513702392,23.869284057617186L6.945949513702392,23.493764057617188Q5.973719513702393,22.87576405761719,4.851719513702393,22.88543405761719Q3.8010195137023928,22.894494057617187,2.8873595137023926,23.444734057617186Q1.9737015137023926,23.99497405761719,1.4743005137023926,24.919444057617188Q0.9410085137023926,25.90666405761719,1.0325635137023925,27.05503405761719L1.3872935137023925,31.50443405761719L1.4429225137023927,32.20223405761719L2.8384995137023923,32.09093405761719L2.7828695137023924,31.39313405761719L2.4281395137023924,26.943774057617187Q2.3694695137023927,26.207944057617187,2.706069513702393,25.58484405761719Q3.0236595137023925,24.996924057617186,3.6096295137023926,24.644034057617187Q4.195589513702393,24.29114405761719,4.863779513702393,24.285384057617186Z" fill-rule="evenodd" fill="#84F2EF" fill-opacity="1"/></g><g transform="matrix(0.3742668926715851,-0.9273210167884827,0.9273210167884827,0.3742668926715851,-6.371565630819532,8.348024028273358)"><path d="M8.89315,8.118994671875L8.197849999999999,8.199961671875L5.956379999999999,8.460963671875Q4.4066600000000005,8.641419671875,3.4248089999999998,9.853936671875Q2.442962,11.066453671875,2.588705,12.619833671875L2.654092,13.316773671875L4.04798,13.185993671875L3.982584,12.489053671875Q3.890156,11.503923671875,4.51283,10.734973671875Q5.1355,9.966013671875,6.11831,9.851568671875L8.359770000000001,9.590565671875L9.05508,9.509605671875L8.89315,8.118994671875Z" fill-rule="evenodd" fill="#84F2EF" fill-opacity="1"/></g><g><rect x="3.699999988079071" y="3.699999988079071" width="16.600000023841858" height="6.600000023841858" rx="1.300000011920929" fill-opacity="0" stroke-opacity="1" stroke="#000000" fill="none" stroke-width="1.399999976158142"/></g><g><rect x="3.699999988079071" y="14.699999988079071" width="16.600000023841858" height="5.600000023841858" rx="1.300000011920929" fill-opacity="0" stroke-opacity="1" stroke="#000000" fill="none" stroke-width="1.399999976158142"/></g><g><ellipse cx="7" cy="7" rx="1" ry="1" fill="#759EFF" fill-opacity="1"/></g><g><ellipse cx="7" cy="17.5" rx="1" ry="1" fill="#759EFF" fill-opacity="1"/></g><g><rect x="6" y="12" width="2" height="3" rx="1" fill="#000000" fill-opacity="1"/></g><g><rect x="16" y="12" width="2" height="3" rx="1" fill="#000000" fill-opacity="1"/></g><g><rect x="9" y="17" width="4" height="1" rx="0.5" fill="#000000" fill-opacity="1"/></g></g></svg>