<svg xmlns="http://www.w3.org/2000/svg" xmlns:xlink="http://www.w3.org/1999/xlink" fill="none" version="1.1" width="24" height="24" viewBox="0 0 24 24"><defs><clipPath id="master_svg0_72_47320"><rect x="0" y="0" width="24" height="24" rx="0"/></clipPath></defs><g clip-path="url(#master_svg0_72_47320)"><g transform="matrix(0.3742668926715851,-0.9273210167884827,0.9273210167884827,0.3742668926715851,-14.86470975575287,12.762316935068725)"><path d="M7.917514471435547,16.61945625024414L7.222214471435547,16.70042325024414L5.480754471435547,16.90320325024414Q3.7036844714355466,17.11013025024414,2.5140254714355468,18.44635525024414Q1.324364471435547,19.78258525024414,1.324364471435547,21.57166525024414L1.324364471435547,26.269435250244143L1.3243614714355467,26.96943525024414L2.724367471435547,26.96943525024414L2.724364471435547,26.269435250244143L2.724364471435547,24.61762525024414L2.724364471435547,21.57166525024414Q2.724364471435547,20.31549525024414,3.5596544714355467,19.377295250244142Q4.394954471435547,18.43909525024414,5.6426844714355475,18.29380725024414L7.384134471435547,18.091027250244142L8.079444471435547,18.01006725024414L7.917514471435547,16.61945625024414Z" fill-rule="evenodd" fill="#84F2EF" fill-opacity="1"/></g><g><g><path d="M6.310482,3.310482Q5.3,4.3209599999999995,5.3,5.75L5.299997,6.45L6.700003,6.45L6.7,5.75Q6.7,4.90086,7.30043,4.30043Q7.90086,3.7,8.75,3.7L15,3.7Q17.1953,3.7,18.747700000000002,5.252330000000001Q20.3,6.80467,20.3,9L20.3,13.5L20.3,14.2L21.7,14.2L21.7,13.5L21.7,10L21.7,9Q21.7,6.2247699999999995,19.7376,4.26238Q17.775199999999998,2.3,15,2.3L8.75,2.3Q7.3209599999999995,2.3,6.310482,3.310482Z" fill-rule="evenodd" fill="#000000" fill-opacity="1"/></g><g><path d="" fill="#FFFFFF" fill-opacity="1"/><path d="M17.3,15.375L17.3,19.25L17.3,19.95L18.7,19.95L18.7,19.25L18.7,15.375L18.7,10Q18.7,8.05319,17.3234,6.676598Q15.9468,5.3,14,5.3L9,5.3Q6.2247699999999995,5.3,4.26238,7.26238Q2.3,9.22477,2.3,12L2.3,15Q2.3,17.775199999999998,4.26238,19.7376Q6.2247699999999995,21.7,9,21.7L14.25,21.7L14.95,21.7L14.95,20.3L14.25,20.3L10.5,20.3L9,20.3Q6.80467,20.3,5.252330000000001,18.747700000000002Q3.7,17.1953,3.7,15L3.7,12Q3.7,9.80467,5.252330000000001,8.25233Q6.80467,6.7,9,6.7L14,6.7Q15.3669,6.7,16.3335,7.66655Q17.3,8.6331,17.3,10L17.3,15.375Z" fill-rule="evenodd" fill="#000000" fill-opacity="1"/></g><g><path d="M18,12.7L3,12.7L3,11.3L18,11.3L18,12.7Z" fill-rule="evenodd" fill="#000000" fill-opacity="1"/></g><g><path d="M8,8.3L12,8.3Q12.06894,8.3,12.13656,8.31345Q12.204180000000001,8.326901,12.26788,8.353284Q12.33157,8.379668,12.3889,8.417971Q12.44622,8.456275,12.49497,8.505025Q12.54372,8.553776,12.58203,8.611101Q12.62033,8.668426,12.646709999999999,8.732122Q12.6731,8.795818,12.68655,8.863437Q12.7,8.931056,12.7,9Q12.7,9.068944,12.68655,9.136563Q12.6731,9.204182,12.646709999999999,9.267878Q12.62033,9.331574,12.58203,9.388899Q12.54373,9.446224,12.49497,9.494975Q12.44622,9.543725,12.3889,9.582029Q12.33157,9.620332,12.26788,9.646716Q12.204180000000001,9.673099,12.13656,9.68655Q12.06894,9.7,12,9.7L8,9.7Q7.931056,9.7,7.863437,9.68655Q7.795818,9.673099,7.732122,9.646716Q7.668426,9.620332,7.611101,9.582029Q7.553776,9.543725,7.505025,9.494975Q7.456275,9.446224,7.417971,9.388899Q7.379668,9.331574,7.353284,9.267878Q7.326901,9.204182,7.31345,9.136563Q7.3,9.068944,7.3,9Q7.3,8.931056,7.31345,8.863437Q7.326901,8.795818,7.353284,8.732122Q7.379668,8.668426,7.417971,8.611101Q7.456275,8.553776,7.505025,8.505025Q7.553776,8.456275,7.611101,8.417971Q7.668426,8.379668,7.732122,8.353284Q7.795818,8.326901,7.863437,8.31345Q7.931056,8.3,8,8.3Z" fill-rule="evenodd" fill="#759EFF" fill-opacity="1"/></g><g><path d="M14,8.3Q13.931056,8.3,13.863437,8.31345Q13.795818,8.326901,13.732122,8.353284Q13.668426,8.379668,13.611101,8.417971Q13.553776,8.456275,13.505025,8.505025Q13.456275,8.553776,13.417971,8.611101Q13.379668,8.668426,13.353284,8.732122Q13.326901,8.795818,13.31345,8.863437Q13.3,8.931056,13.3,9Q13.3,9.068944,13.31345,9.136563Q13.326901,9.204182,13.353284,9.267878Q13.379668,9.331574,13.417971,9.388899Q13.456275,9.446224,13.505025,9.494975Q13.553776,9.543725,13.611101,9.582029Q13.668426,9.620332,13.732122,9.646716Q13.795818,9.673099,13.863437,9.68655Q13.931056,9.7,14,9.7L15,9.7Q15.06894,9.7,15.13656,9.68655Q15.204180000000001,9.673099,15.26788,9.646716Q15.33157,9.620332,15.3889,9.582029Q15.44622,9.543725,15.49497,9.494975Q15.54373,9.446224,15.58203,9.388899Q15.62033,9.331574,15.64672,9.267878Q15.6731,9.204182,15.68655,9.136563Q15.7,9.068944,15.7,9Q15.7,8.931056,15.68655,8.863437Q15.6731,8.795818,15.64672,8.732122Q15.62033,8.668426,15.58203,8.611101Q15.54373,8.553776,15.49497,8.505025Q15.44622,8.456275,15.3889,8.417971Q15.33157,8.379668,15.26788,8.353284Q15.204180000000001,8.326901,15.13656,8.31345Q15.06894,8.3,15,8.3L14,8.3Z" fill-rule="evenodd" fill="#759EFF" fill-opacity="1"/></g></g></g></svg>