<svg xmlns="http://www.w3.org/2000/svg" xmlns:xlink="http://www.w3.org/1999/xlink" fill="none" version="1.1" width="24" height="24" viewBox="0 0 24 24"><defs><clipPath id="master_svg0_72_43811"><rect x="0" y="0" width="24" height="24" rx="0"/></clipPath></defs><g clip-path="url(#master_svg0_72_43811)"><g><g transform="matrix(0.9971711039543152,0.07516517490148544,-0.07516517490148544,0.9971711039543152,0.21676417878351906,-0.36619615007431694)"><path d="M9.656906631736756,1.9460522339019777L8.958876631736755,1.9986392339019776L8.620316631736756,2.0241442339019775Q6.781436631736756,2.1626712339019774,5.527408631736756,3.5147252339019777Q4.273376631736755,4.866781233901977,4.273376631736755,6.710861233901977L4.273376631736755,10.858001233901977L4.273373631736756,11.558011233901977L5.673379631736755,11.558011233901977L5.6733766317367555,10.858001233901977L5.6733766317367555,6.710861233901977Q5.6733766317367555,5.416081233901977,6.5538666317367555,4.466771233901977Q7.4343566317367555,3.5174522339019774,8.725486631736755,3.4201882339019773L9.064046631736755,3.3946832339019775L9.762076631736756,3.3421022339019775L9.656906631736756,1.9460522339019777Z" fill-rule="evenodd" fill="#84F2EF" fill-opacity="1"/></g><g><path d="M19.3,9.285709910593033L19.3,15.428499910593032L19.3,16.128499910593035L20.7,16.128499910593035L20.7,15.428499910593032L20.7,9.285709910593033L20.7,8.999999910593033Q20.7,6.224769910593032,18.7376,4.262379910593033Q16.775199999999998,2.2999999105930327,14,2.2999999105930327L8,2.2999999105930327Q6.0532,2.2999999105930327,4.676598,3.676597910593033Q3.3,5.053199910593033,3.3,6.999999910593033L3.3,9.571429910593032Q3.3,12.346659910593033,5.26238,14.308999910593032Q7.2247699999999995,16.271399910593033,10,16.271399910593033L12,16.271399910593033L16,16.271499910593032L16.7,16.271599910593032L16.7,14.871499910593032L16,14.871499910593032L12.00002,14.871399910593032L10,14.871399910593032Q7.80467,14.871399910593032,6.252330000000001,13.319099910593033Q4.7,11.766759910593033,4.7,9.571429910593032L4.7,6.999999910593033Q4.7,5.6330999105930335,5.66655,4.666549910593033Q6.633100000000001,3.699999910593033,8,3.699999910593033L14,3.699999910593033Q16.1953,3.699999910593033,17.747700000000002,5.2523299105930334Q19.3,6.804669910593033,19.3,8.999999910593033L19.3,9.285709910593033Z" fill-rule="evenodd" fill="#000000" fill-opacity="1"/></g><g><path d="M8.765000476837159,18.89037023841858Q9.071330476837158,18.74880023841858,9.377660476837159,18.634050238418578Q10.688830476837158,18.142860238418578,12.000000476837158,18.142860238418578Q13.311170476837159,18.142860238418578,14.62234047683716,18.634050238418578Q14.928670476837159,18.748810238418578,15.235000476837158,18.89037023841858C15.580810476837158,19.05018023841858,16.000000476837158,18.81172023841858,16.000000476837158,18.430780238418578C16.000000476837158,18.25273023841858,15.901990476837158,18.08578023841858,15.74500047683716,18.00179023841858Q15.390050476837157,17.811887238418578,15.035090476837158,17.657984238418578Q13.517550476837158,17.00000023841858,12.000000476837158,17.00000023841858Q10.482460476837158,17.00000023841858,8.964910476837158,17.657984238418578Q8.609955476837158,17.811887238418578,8.255000476837159,18.00179023841858C8.098012576837158,18.08578023841858,8.000000476837158,18.25273023841858,8.000000476837158,18.430780238418578C8.000000476837158,18.81172023841858,8.419195476837158,19.05018023841858,8.765000476837159,18.89037023841858Z" fill-rule="evenodd" fill="#000000" fill-opacity="1"/></g><g><path d="M15.160404149475097,10.938097074737549L17.714314149475097,10.938097074737549L18.414314149475096,10.938097074737549L18.414314149475096,9.53809707473755L17.714314149475097,9.53809707473755L14.553884149475097,9.53809707473755L12.805384149475097,11.40315707473755Q12.680784149475098,11.536067074737549,12.505384149475098,11.486797074737549Q12.329984149475099,11.43751707473755,12.292834149475098,11.259157074737548L11.565694149475098,7.768927074737549Q11.438664149475098,7.1591470747375485,10.968904149475097,6.785047074737548Q10.541724149475098,6.444857074737548,9.984264149475099,6.417667074737549Q9.426804149475098,6.390477074737548,8.968544149475097,6.687467074737549Q8.464604149475097,7.014067074737548,8.278814149475098,7.608577074737549L7.741624149475098,9.32757707473755Q7.675844149475098,9.53809707473755,7.455284149475098,9.53809707473755L6.285714149475098,9.53809707473755L5.585711149475098,9.53809707473755L5.585711149475098,10.938097074737549L6.285714149475098,10.938097074737549L7.455284149475098,10.938097074737549Q8.012954149475098,10.938097074737549,8.462254149475097,10.607767074737549Q8.911564149475097,10.277447074737548,9.077904149475097,9.745167074737548L9.615084149475098,8.026167074737549Q9.684294149475097,7.804697074737549,9.916044149475098,7.8160070747375485Q10.147804149475098,7.827307074737549,10.195124149475097,8.054457074737549L10.922254149475098,11.544697074737549Q11.132814149475099,12.55538707473755,12.126734149475098,12.83461707473755Q13.120644149475098,13.11383707473755,13.826734149475097,12.360677074737549L15.160404149475097,10.938097074737549Z" fill-rule="evenodd" fill="#759EFF" fill-opacity="1"/></g></g></g></svg>