<svg xmlns="http://www.w3.org/2000/svg" xmlns:xlink="http://www.w3.org/1999/xlink" fill="none" version="1.1" width="24" height="24" viewBox="0 0 24 24"><defs><clipPath id="master_svg0_72_47602"><rect x="0" y="0" width="24" height="24" rx="0"/></clipPath><clipPath id="master_svg1_72_47606"><rect x="2" y="2" width="20" height="20" rx="0"/></clipPath><clipPath id="master_svg2_72_47608"><rect x="2" y="2" width="20" height="20" rx="0"/></clipPath><clipPath id="master_svg3_72_47610"><rect x="2" y="2" width="20" height="18" rx="0"/></clipPath></defs><g clip-path="url(#master_svg0_72_47602)"><g clip-path="url(#master_svg1_72_47606)"><g clip-path="url(#master_svg2_72_47608)"><g clip-path="url(#master_svg3_72_47610)"><g transform="matrix(0.9971711039543152,0.07516517490148544,-0.07516517490148544,0.9971711039543152,0.4925047146780166,-0.47751186353600517)"><path d="M5.890587811553955,12.589065989532472L5.890587811553955,14.16044598953247L5.890584811553955,14.86044598953247L7.290590811553955,14.86044598953247L7.290587811553955,14.16044598953247L7.290587811553955,12.58895598953247L7.290439811553955,10.677905989532471Q7.290326811553955,9.223975989532471,8.363149811553955,8.242655989532471Q9.435969811553955,7.261346989532471,10.884129811553954,7.390745989532471L18.694999811553956,8.088655989532471L19.392299811553954,8.15095598953247L19.516899811553955,6.756506989532471L18.819599811553957,6.69421198953247L11.008719811553956,5.996296989532471Q8.946189811553955,5.81200698953247,7.418234811553955,7.20963398953247Q5.890278811553955,8.60725598953247,5.890439811553955,10.67801598953247L5.890587811553955,12.58901598953247L5.890587811553955,12.589065989532472Z" fill-rule="evenodd" fill="#84F2EF" fill-opacity="1"/></g><g><path d="M2.7550439472656247,7.460676484375C2.348275947265625,7.478416484375,2.007720947265625,7.185516484375,2.007720947265625,6.817926484375C2.007720901415925,6.450336484375,2.348275947265625,6.157426484375,2.7550439472656247,6.175176484375L7.041650947265625,6.175176484375C7.226540947265625,3.8195964843750003,9.397550947265625,1.993896484375,12.013720947265625,1.993896484375C14.629920947265624,1.993896333501,16.800920947265624,3.8195964843750003,16.985820947265623,6.175176484375L21.271620947265625,6.175176484375C21.678420947265625,6.157426484375,22.018920947265624,6.450336484375,22.018920947265624,6.817926484375C22.018920947265624,7.185516484375,21.678420947265625,7.478416484375,21.271620947265625,7.460676484375L19.786020947265627,7.460676484375L18.560420947265627,18.159396484375C18.438220947265624,19.207196484375,17.524320947265625,19.999196484375,16.436620947265624,19.999196484375L7.589210947265625,19.999196484375C6.501570947265625,19.999196484375,5.587580947265625,19.206396484375,5.467930947265625,18.159396484375L4.238200947265625,7.460676484375L2.7550439472656247,7.460676484375ZM6.884610947265625,18.007196484375C6.910810947265625,18.344596484375,7.215460947265625,18.609596484375,7.590040947265625,18.620696484375L16.435820947265626,18.620696484375C16.811320947265624,18.610696484375,17.117420947265625,18.345496484375,17.143720947265624,18.007196484375L18.353520947265626,7.461426484375L5.671500947265625,7.461426484375L6.884610947265625,18.007196484375ZM15.556720947265624,6.174426484375C15.377720947265624,4.529036484375,13.844920947265624,3.274656484375,12.013320947265624,3.274656484375C10.181700947265625,3.274656484375,8.648920947265626,4.529036484375,8.469970947265626,6.174426484375L15.556720947265624,6.174426484375ZM14.292120947265625,16.141196484375L13.437120947265624,14.855696484375L14.479020947265624,14.855696484375L13.245120947265624,12.925896484375L14.052820947265625,11.614926484375L16.331120947265624,15.176696484375C16.604720947265626,15.605796484375,16.261420947265627,16.141396484375,15.712920947265625,16.141196484375L14.292120947265625,16.141196484375ZM12.868720947265626,16.141196484375L8.312090947265624,16.141196484375C8.057150947265626,16.142096484375,7.821190947265625,16.019696484375,7.693780947265625,15.820396484375C7.566370947265625,15.621096484375,7.567050947265625,15.375396484375,7.695570947265625,15.176696484375L8.405990947265625,14.065896484375L10.066950947265624,14.040396484375L9.545980947265626,14.855696484375L12.013720947265625,14.855696484375L12.868720947265626,16.141196484375ZM13.341520947265625,10.501926484375L12.533920947265624,11.813676484375L12.012920947265625,10.998426484375L10.779040947265624,12.926696484375L9.118900947265626,12.952896484375L11.395560947265626,9.390426484375C11.522470947265624,9.191286484375,11.757580947265625,9.068536484374999,12.012120947265625,9.068536484374999C12.266620947265626,9.068536484374999,12.501720947265625,9.191286484375,12.628620947265626,9.390426484375L13.341520947265625,10.501926484375Z" fill="#000000" fill-opacity="1"/></g><g><path d="M9,12.959999904632568L10.72987,12.933909904632568L12.01558,11.01776990463257L12.558440000000001,11.827899904632568L13.4,10.524389904632569L12.65714,9.419866904632569C12.52491,9.221981904632568,12.27992,9.099999904632568,12.01472,9.099999904632568C11.74952,9.099999904632568,11.504529999999999,9.221981904632568,11.37229,9.419866904632569L9,12.959999904632568Z" fill="#759EFF" fill-opacity="1"/></g></g></g></g></g></svg>