<svg xmlns="http://www.w3.org/2000/svg" xmlns:xlink="http://www.w3.org/1999/xlink" fill="none" version="1.1" width="19" height="19" viewBox="0 3 19 19"><defs><clipPath id="master_svg0_1_141036"><rect x="0" y="2.676708221435547" width="18.666656494140625" height="19.323291778564453" rx="0"/></clipPath><clipPath id="master_svg1_65_41562"><rect x="1.3333282470703125" y="4" width="16" height="16" rx="0"/></clipPath></defs><g><g clip-path="url(#master_svg0_1_141036)"><g clip-path="url(#master_svg1_65_41562)"><g transform="matrix(0.2977272868156433,0.9546509385108948,-0.9546509385108948,0.2977272868156433,22.630138664345395,-2.762812487172596)"><path d="M19.523256870117187,13.22358L18.827966870117187,13.304718L16.648156870117187,13.559087Q14.871466870117187,13.766414,13.682191870117187,15.10254Q12.492916870117188,16.43866,12.492916870117188,18.22741L12.492916870117188,23.62958L12.492913870117187,24.3296L13.892919870117188,24.3296L13.892916870117187,23.62958L13.892916870117187,18.22741Q13.892916870117187,16.97148,14.727936870117187,16.03335Q15.562966870117187,15.09522,16.810426870117187,14.949651L18.990236870117187,14.695282L19.685526870117187,14.61415L19.523256870117187,13.22358Z" fill-rule="evenodd" fill="#84F2EF" fill-opacity="1"/></g><g><path d="M11.733328247070313,6.39990234375C12.064698247070313,6.39990234375,12.333328247070312,6.66853134375,12.333328247070312,6.99990234375C12.333328247070312,7.33127334375,12.064698247070313,7.59990234375,11.733328247070313,7.59990234375L6.933328247070312,7.59990234375C6.601957247070312,7.59990234375,6.3333282470703125,7.33127334375,6.3333282470703125,6.99990234375C6.3333282470703125,6.66853134375,6.601957247070312,6.39990234375,6.933328247070312,6.39990234375L11.733328247070313,6.39990234375ZM6.933328247070312,16.39990234375C6.601957247070312,16.39990234375,6.3333282470703125,16.66850234375,6.3333282470703125,16.99990234375C6.3333282470703125,17.33130234375,6.601957247070312,17.59990234375,6.933328247070312,17.59990234375L11.733328247070313,17.59990234375C12.064698247070313,17.59990234375,12.333328247070312,17.33130234375,12.333328247070312,16.99990234375C12.333328247070312,16.66850234375,12.064698247070313,16.39990234375,11.733328247070313,16.39990234375L6.933328247070312,16.39990234375Z" fill="#759EFF" fill-opacity="1" style="mix-blend-mode:passthrough"/></g><g><path d="M3.3333282470703125,4C2.7810432470703126,4,2.3333282470703125,4.447715,2.3333282470703125,5L2.3333282470703125,9C2.3333282470703125,9.55228,2.7810432470703126,10,3.3333282470703125,10L6.3333282470703125,10L6.3333282470703125,11.9C6.3333282470703125,11.916,6.3333282470703125,11.933,6.335328247070312,11.95C6.3060182470703126,12.29986,6.582158247070312,12.6,6.933328247070312,12.6L11.233328247070313,12.6L11.233328247070313,14L3.3333282470703125,14C2.7810432470703126,14,2.3333282470703125,14.4477,2.3333282470703125,15L2.3333282470703125,19C2.3333282470703125,19.552300000000002,2.7810432470703126,20,3.3333282470703125,20L15.333328247070312,20C15.885628247070313,20,16.333328247070312,19.552300000000002,16.333328247070312,19L16.333328247070312,15C16.333328247070312,14.4477,15.885628247070313,14,15.333328247070312,14L12.433328247070312,14L12.433328247070312,12C12.433428247070312,11.648869999999999,12.133238247070313,11.37274,11.783328247070312,11.402000000000001C11.766698247070313,11.400649999999999,11.750018247070312,11.39998,11.733328247070313,11.4L7.533328247070313,11.4L7.533328247070313,10L15.333328247070312,10C15.885628247070313,10,16.333328247070312,9.55228,16.333328247070312,9L16.333328247070312,5C16.333328247070312,4.447715,15.885628247070313,4,15.333328247070312,4L3.3333282470703125,4ZM3.5333282470703127,5.2L15.133328247070313,5.2L15.133328247070313,8.8L3.5333282470703127,8.8L3.5333282470703127,5.2ZM3.5333282470703127,15.2L15.133328247070313,15.2L15.133328247070313,18.8L3.5333282470703127,18.8L3.5333282470703127,15.2Z" fill="#000000" fill-opacity="1" style="mix-blend-mode:passthrough"/></g></g></g></g></svg>