<svg xmlns="http://www.w3.org/2000/svg" xmlns:xlink="http://www.w3.org/1999/xlink" fill="none" version="1.1" width="16" height="16" viewBox="0 0 16 16"><defs><clipPath id="master_svg0_83_59303"><rect x="0" y="0" width="16" height="16" rx="0"/></clipPath></defs><g clip-path="url(#master_svg0_83_59303)"><g transform="matrix(-0.1619226485490799,-0.9868034720420837,0.986803412437439,-0.1619226187467575,-9.843229566074587,20.626412330643262)"><path d="M10.532086166000365,13.723336111999512L9.835956166000365,13.796940111999511L7.343056166000366,14.060515111999512Q5.549726166000366,14.250124111999511,4.343482166000366,15.590630111999511Q3.137236166000366,16.93114011199951,3.137236166000366,18.73446011199951L3.137236166000366,23.76155011199951L3.137233166000366,24.46156011199951L4.537239166000366,24.46156011199951L4.537236166000366,23.76155011199951L4.537236166000366,22.03626011199951L4.537236166000366,18.73446011199951Q4.537236166000366,17.46830011199951,5.384176166000366,16.527090111999513Q6.2311161660003656,15.585880111999511,7.490256166000366,15.452755111999512L9.983166166000366,15.189180111999512L10.679286166000367,15.115582111999512L10.532086166000365,13.723336111999512Z" fill-rule="evenodd" fill="#84F2EF" fill-opacity="1"/></g><g><path d="M14.6650646484375,10.544759545898437C14.3917646484375,10.435859545898438,13.8835646484375,10.616459545898438,13.7797646484375,10.878059545898438C12.8769646484375,13.154059545898438,10.7189946484375,14.624759545898437,8.2820146484375,14.624759545898437C5.0200046484375,14.624759545898437,2.3662346484375,11.955759545898438,2.3662346484375,8.675649545898438C2.3662346484375,5.395249545898437,5.0200046484375,2.7265495458984375,8.2820146484375,2.7265495458984375C9.3898746484375,2.7265495458984375,10.4695146484375,3.0360495458984373,11.4046646484375,3.6217195458984377C11.4221646484375,3.6325095458984373,11.4408646484375,3.6398195458984377,11.4589646484375,3.6483895458984374L9.9073446484375,4.210569545898437C9.6441646484375,4.305799545898438,9.4692446484375,4.7514995458984375,9.5641546484375,5.015909545898437C9.6387746484375,5.2235095458984375,9.9486046484375,5.429869545898438,10.1559046484375,5.429869545898438C10.2129946484375,5.429869545898438,10.3479446484375,5.419999545898437,10.4047546484375,5.399379545898437L13.2499646484375,4.137559545898437C13.3826646484375,4.0892895458984375,13.4915646484375,3.9899495458984373,13.5514646484375,3.8613795458984375C13.6114646484375,3.7328095458984376,13.6184646484375,3.5852195458984375,13.5705646484375,3.4515595458984376L12.5585646484375,0.6276355458984375C12.4585646484375,0.3489125458984375,12.2109646484375,-0.025953054101562498,11.7992646484375,0.0359409458984375C11.5081646484375,0.0797512458984375,11.3018646484375,0.4819425458984375,11.4018646484375,0.7606495458984375L11.9627646484375,2.3259395458984375C10.8329746484375,1.6440795458984374,9.5406846484375,1.2812395458984376,8.2150746484375,1.2812395458984376C4.1931246484375,1.2812395458984376,0.9212646484375,4.571509545898437,0.9212646484375,8.615999545898438C0.9212646484375,12.660759545898438,4.1931246484375,15.951359545898438,8.2150746484375,15.951359545898438C11.2195646484375,15.951359545898438,13.8800646484375,14.138159545898437,14.9929646484375,11.331959545898437C15.1021646484375,11.056759545898437,14.9384646484375,10.654559545898438,14.6650646484375,10.544759545898437Z" fill="#272636" fill-opacity="1" style="mix-blend-mode:passthrough"/></g></g></svg>