<svg xmlns="http://www.w3.org/2000/svg" xmlns:xlink="http://www.w3.org/1999/xlink" fill="none" version="1.1" width="24" height="24" viewBox="0 0 24 24"><defs><clipPath id="master_svg0_75_46161"><rect x="0" y="0" width="24" height="24" rx="0"/></clipPath></defs><g clip-path="url(#master_svg0_75_46161)"><g><g transform="matrix(0.8444783687591553,0.5355896949768066,-0.5355896949768066,0.8444783687591553,4.806752957077379,-2.3784924455724195)"><path d="M13.103244745788574,7.1212029294067385C13.478194745788574,7.1212029294067385,13.685104745788575,6.961373329406738,13.685104745788575,7.336322329406738C13.685104745788575,7.711270329406738,13.380334745788574,8.292847329406738,13.005394745788575,8.292847329406738C10.981974745788573,8.292917329406738,9.278354745788574,9.760367329406739,8.614304745788575,11.67171732940674C7.950264745788575,13.583067329406738,8.569284745788574,15.705287329406739,10.156804745788573,16.95988732940674C10.450764745788575,17.19276732940674,10.478264745788575,17.64756732940674,10.267464745788574,17.91376732940674C10.056664745788574,18.17986732940674,9.282744745788573,17.514767329406737,8.988784745788575,17.28196732940674C6.9481477457885745,15.668587329406739,5.951171745788574,14.157277329406739,6.805218745788574,11.700097329406738C7.659184745788574,9.242967329406738,10.501784745788573,7.121202829406738,13.103244745788574,7.1212029294067385Z" fill="#84F2EF" fill-opacity="1"/></g><g><path d="M2.814878761768341 13.862468242645264C2.814878761768341 11.849397285899382 4.4467952093689265 10.217480838298798 6.459866166114807 10.217480838298798L17.322333931922913 10.217480838298798C19.335404888668794 10.217480838298798 20.96732133626938 11.849397285899382 20.96732133626938 13.862468242645264L20.96732133626938 15.50745564699173C20.96732133626938 16.612025146653316 20.071890835930965 17.50745564699173 18.96732133626938 17.50745564699173L4.814878761768341 17.50745564699173C3.7103092621067546 17.50745564699173 2.814878761768341 16.612025146653316 2.814878761768341 15.50745564699173Z" fill-opacity="0" stroke-opacity="1" stroke="#000000" fill="none" stroke-width="1.399999976158142"/></g><g><path d="M5.373619556427002 17.121209144592285C5.373619556427002 15.32145650414699 6.832607341091571 13.862468719482422 8.632359981536865 13.862468719482422L15.149840831756592 13.862468719482422C16.949593472201887 13.862468719482422 18.408581256866455 15.32145650414699 18.408581256866455 17.121209144592285L18.408581256866455 18.37994956970215C18.408581256866455 19.484519069363735 17.51315075652804 20.37994956970215 16.408581256866455 20.37994956970215L7.373619556427002 20.37994956970215C6.2690500567654155 20.37994956970215 5.373619556427002 19.484519069363735 5.373619556427002 18.37994956970215Z" fill="#FFFFFF" fill-opacity="1"/><path d="M6.073619544506073 17.121209144592285C6.073619544506073 15.708055822444798 7.219206659389379 14.562468707561493 8.632359981536865 14.562468707561493L15.149840831756592 14.562468707561493C16.56299415390408 14.562468707561493 17.708581268787384 15.708055822444798 17.708581268787384 17.121209144592285L17.708581268787384 17.679949581623077C17.708581268787384 18.784519081284664 16.81315076844897 19.679949581623077 15.708581268787384 19.679949581623077L8.073619544506073 19.679949581623077C6.9690500448444865 19.679949581623077 6.073619544506073 18.784519081284664 6.073619544506073 17.679949581623077Z" fill-opacity="0" stroke-opacity="1" stroke="#000000" fill="none" stroke-width="1.399999976158142"/></g><g><rect x="9.718605995178223" y="6.258740425109863" width="4.344987392425537" height="5.431234359741211" rx="2" fill="#FFFFFF" fill-opacity="1"/><rect x="10.418605983257294" y="6.958740413188934" width="2.944987416267395" height="4.031234383583069" rx="1.300000011920929" fill-opacity="0" stroke-opacity="1" stroke="#000000" fill="none" stroke-width="1.399999976158142"/></g><g><rect x="4.287372589111328" y="3" width="4.344987392425537" height="5.431234359741211" rx="2" fill="#FFFFFF" fill-opacity="1"/><rect x="4.987372577190399" y="3.699999988079071" width="2.944987416267395" height="4.031234383583069" rx="1.300000011920929" fill-opacity="0" stroke-opacity="1" stroke="#000000" fill="none" stroke-width="1.399999976158142"/></g><g><rect x="15.149840354919434" y="3" width="4.344987392425537" height="5.431234359741211" rx="2" fill="#FFFFFF" fill-opacity="1"/><rect x="15.849840342998505" y="3.699999988079071" width="2.944987416267395" height="4.031234383583069" rx="1.300000011920929" fill-opacity="0" stroke-opacity="1" stroke="#759EFF" fill="none" stroke-width="1.399999976158142"/></g></g></g></svg>