<svg xmlns="http://www.w3.org/2000/svg" xmlns:xlink="http://www.w3.org/1999/xlink" fill="none" version="1.1" width="48" height="49" viewBox="64 -0.51953125 48 49"><defs><clipPath id="master_svg0_83_57835"><rect x="64" y="0" width="48" height="48" rx="8"/></clipPath><clipPath id="master_svg1_83_57836"><rect x="76" y="12" width="24" height="24" rx="0"/></clipPath></defs><g><g clip-path="url(#master_svg0_83_57835)"><rect x="64" y="0" width="48" height="48" rx="8" fill="#FFFFFF" fill-opacity="1"/><g clip-path="url(#master_svg1_83_57836)"><g transform="matrix(-0.20863035321235657,-0.9779945611953735,0.9779945611953735,-0.20863035321235657,67.24812065151868,117.32580258534722)"><path d="M88.02513710281372,30.647557994018555L87.33505710281372,30.765052994018554L84.30379710281372,31.281153994018556Q82.60967710281372,31.569593994018554,81.50117210281373,32.88278199401856Q80.39266710281372,34.19597199401856,80.39266710281372,35.91448199401856L80.39266710281372,47.087221994018556L80.39266410281373,47.78722199401855L81.79267010281372,47.78722199401855L81.79266710281372,47.087221994018556L81.79266710281372,35.91448199401856Q81.79266710281372,34.707871994018554,82.57097710281371,33.785841994018554Q83.34928710281372,32.863811994018555,84.53877710281373,32.661291994018555L87.57004710281372,32.145190994018556L88.26011710281372,32.027702994018554L88.02513710281372,30.647557994018555Z" fill-rule="evenodd" fill="#84F2EF" fill-opacity="1"/></g><g><path d="M87.999881328125,15C87.447051328125,15.00027,86.998821328125,14.55204,86.999081328125,13.9992L86.999081328125,13.0008C86.999081328125,12.4476,87.446801328125,12,87.999881328125,12C88.552961328125,12,89.000681328125,12.4476,89.000681328125,13.0008L89.000681328125,14.0016C89.000681328125,14.5524,88.552961328125,15,87.999881328125,15ZM87.999881328125,36C86.55148132812499,36,85.133441328125,35.7539,83.783444328125,35.271100000000004C83.263124328125,35.086,82.993604328125,34.5118,83.178764128125,33.9914C83.366324328125,33.4711,83.935843328125,33.199200000000005,84.458441328125,33.3868C86.764721328125,34.214200000000005,89.361521328125,34.1977,91.656041328125,33.3445C92.173791328125,33.1522,92.749491328125,33.415400000000005,92.942801328125,33.9328C93.135161328125,34.450500000000005,92.871941328125,35.0262,92.354561328125,35.2195C90.960041328125,35.7376,89.497481328125,36,87.999881328125,36Z" fill="#759EFF" fill-opacity="1" style="mix-blend-mode:passthrough"/></g><g><rect x="87" y="12" width="2" height="3" rx="1" fill="#000000" fill-opacity="1"/></g><g><path d="M95.8047130859375,32.50080108642578L80.1953330859375,32.50080108642578C78.4327730859375,32.50080108642578,76.9984130859375,31.06640108642578,76.9984130859375,29.303901086425782L76.9984130859375,29.19610108642578C76.9984130859375,27.857901086425784,77.8116530859375,26.71180108642578,78.9976130859375,26.240601086425784L78.9976130859375,22.00080108642578C78.9976130859375,17.039041086425783,83.0358530859375,13.000801086425781,87.9976130859375,13.000801086425781C92.9594130859375,13.000801086425781,96.9976130859375,17.039041086425783,96.9976130859375,22.00080108642578L96.9976130859375,26.240601086425784C98.1836130859375,26.71180108642578,98.9968130859375,27.857901086425784,98.9968130859375,29.19610108642578L98.9968130859375,29.303901086425782C98.9992130859375,31.06640108642578,97.5672130859375,32.50080108642578,95.8047130859375,32.50080108642578ZM88.0000130859375,15.000001086425781C84.1398530859375,15.000001086425781,80.9992130859375,18.14064108642578,80.9992130859375,22.00080108642578L80.9992130859375,27.93520108642578L80.0874530859375,28.017201086425782C79.4663330859375,28.07350108642578,78.9976130859375,28.579801086425782,78.9976130859375,29.19610108642578L78.9976130859375,29.303901086425782C78.9976130859375,29.962401086425782,79.5343730859375,30.49920108642578,80.1929330859375,30.49920108642578L95.8024130859375,30.49920108642578C96.4610130859375,30.49920108642578,96.9977130859375,29.962401086425782,96.9977130859375,29.303901086425782L96.9977130859375,29.19610108642578C96.9977130859375,28.579701086425782,96.52901308593749,28.07110108642578,95.90791308593751,28.017201086425782L94.9961130859375,27.93520108642578L94.9961130859375,22.00080108642578C95.0008130859375,18.14064108642578,91.8602130859375,15.000001086425781,88.0000130859375,15.000001086425781Z" fill="#000000" fill-opacity="1" style="mix-blend-mode:passthrough"/></g></g></g></g></svg>