<svg xmlns="http://www.w3.org/2000/svg" xmlns:xlink="http://www.w3.org/1999/xlink" fill="none" version="1.1" width="18" height="19" viewBox="0.3333740234375 0.3232421875 18 19"><defs><clipPath id="master_svg0_56_046498"><rect x="0" y="0" width="18.666656494140625" height="19.323291778564453" rx="0"/></clipPath><clipPath id="master_svg1_65_41576"><rect x="1.3333282470703125" y="1.3232421875" width="16" height="16" rx="0"/></clipPath></defs><g clip-path="url(#master_svg0_56_046498)"><g clip-path="url(#master_svg1_65_41576)"><g transform="matrix(0.2977272868156433,0.9546509385108948,-0.9546509385108948,0.2977272868156433,14.328583498366243,-10.83141308021095)"><path d="M20.856600375976562,3.5468221875L20.161310375976562,3.6279601875000003L17.981500375976562,3.8823291875Q16.204810375976564,4.0896561875,15.015535375976562,5.4257821875Q13.826260375976563,6.7619021875000005,13.826260375976563,8.550652187499999L13.826260375976563,13.9528221875L13.826257375976562,14.6528421875L15.226263375976563,14.6528421875L15.226260375976562,13.9528221875L15.226260375976562,8.550652187499999Q15.226260375976562,7.2947221875,16.061280375976562,6.3565921875Q16.89631037597656,5.4184621875,18.143770375976562,5.2728931875L20.32358037597656,5.0185241875L21.01887037597656,4.9373921875L20.856600375976562,3.5468221875Z" fill-rule="evenodd" fill="#84F2EF" fill-opacity="1"/></g><g><path d="M8.773389282226564,7.5052421875L8.773389282226564,9.203242187499999L7.0833892822265625,9.203242187499999C7.001389282226563,9.203242187499999,6.933389282226562,9.2652421875,6.933389282226562,9.3432421875L6.933389282226562,10.1832421875C6.933389282226562,10.2592421875,7.001389282226563,10.3232421875,7.0833892822265625,10.3232421875L8.773389282226564,10.3232421875L8.773389282226564,12.0212421875C8.773389282226564,12.0992421875,8.837389282226562,12.1632421875,8.913389282226563,12.1632421875L9.753389282226562,12.1632421875C9.831389282226562,12.1632421875,9.893389282226563,12.0992421875,9.893389282226563,12.0212421875L9.893389282226563,10.3232421875L11.583389282226562,10.3232421875C11.665389282226563,10.3232421875,11.733389282226563,10.2592421875,11.733389282226563,10.1832421875L11.733389282226563,9.3432421875C11.733389282226563,9.2652421875,11.665389282226563,9.203242187499999,11.583389282226562,9.203242187499999L9.893389282226563,9.203242187499999L9.893389282226563,7.5052421875C9.893389282226563,7.4272421875,9.831389282226562,7.3632421875,9.753389282226562,7.3632421875L8.913389282226563,7.3632421875C8.837389282226562,7.3632421875,8.773389282226564,7.4272421875,8.773389282226564,7.5052421875ZM16.693389282226562,4.6112421875L9.513389282226562,4.6112421875L7.167389282226562,2.3672420875C7.137389282226563,2.3392422875,7.097389282226563,2.3232421875,7.057389282226563,2.3232421875L1.9733892822265626,2.3232421875C1.6193892822265625,2.3232421875,1.3333892822265625,2.6092421875,1.3333892822265625,2.9632421875L1.3333892822265625,14.8032421875C1.3333892822265625,15.1572421875,1.6193892822265625,15.4432421875,1.9733892822265626,15.4432421875L16.693389282226562,15.4432421875C17.04738928222656,15.4432421875,17.333389282226562,15.1572421875,17.333389282226562,14.8032421875L17.333389282226562,5.2512421875C17.333389282226562,4.8972421875,17.04738928222656,4.6112421875,16.693389282226562,4.6112421875ZM15.893389282226563,14.0032421875L2.7733892822265624,14.0032421875L2.7733892822265624,3.7632421875L6.5433892822265625,3.7632421875L8.935389282226563,6.0512421875L15.893389282226563,6.0512421875L15.893389282226563,14.0032421875Z" fill="#000000" fill-opacity="1"/></g><g><path d="M6.933328151702881,9.353222378234863L6.933328151702881,10.193062378234863C6.933328151702881,10.269242378234864,7.001382351702881,10.333202378234864,7.083352151702881,10.333202378234864L8.773358151702881,10.333202378234864L8.773358151702881,12.031442378234864C8.773358151702881,12.109082378234863,8.83737815170288,12.173042378234864,8.913368151702882,12.173042378234864L9.75333815170288,12.173042378234864C9.83133815170288,12.173042378234864,9.893348151702881,12.109082378234863,9.893348151702881,12.031442378234864L9.893348151702881,10.333202378234864L11.58334815170288,10.333202378234864C11.66531815170288,10.333202378234864,11.73337815170288,10.269242378234864,11.73337815170288,10.193062378234863L11.73337815170288,9.353222378234863C11.73337815170288,9.275102378234862,11.66531815170288,9.213082378234864,11.58334815170288,9.213082378234864L9.893348151702881,9.213082378234864L9.893348151702881,7.515332378234863C9.893348151702881,7.437207178234863,9.83133815170288,7.373242378234863,9.75333815170288,7.373242378234863L8.913368151702882,7.373242378234863C8.83737815170288,7.373242378234863,8.773358151702881,7.437207178234863,8.773358151702881,7.515332378234863L8.773358151702881,9.213082378234864L7.083352151702881,9.213082378234864C7.001382351702881,9.213082378234864,6.933328151702881,9.275102378234862,6.933328151702881,9.353222378234863Z" fill="#759EFF" fill-opacity="1"/></g></g></g></svg>