<svg xmlns="http://www.w3.org/2000/svg" xmlns:xlink="http://www.w3.org/1999/xlink" fill="none" version="1.1" width="48" height="49" viewBox="1070 15 48 49"><defs><clipPath id="master_svg0_83_57852"><rect x="1070" y="15.520000457763672" width="48" height="48" rx="8"/></clipPath></defs><g><g><g clip-path="url(#master_svg0_83_57852)"><rect x="1070" y="15.520000457763672" width="48" height="48" rx="8" fill="#FFFFFF" fill-opacity="1"/><g><g transform="matrix(-0.20863035321235657,-0.9779945611953735,0.9779945611953735,-0.20863035321235657,1266.0299300395043,1121.617634887073)"><path d="M1100.7820543113708,47.83224683276367L1100.0845543113708,47.89081383276367L1090.414744311371,48.70264983276367Q1088.5886943113708,48.855956832763674,1087.3483243113708,50.20482983276367Q1086.1079543113708,51.55369983276367,1086.1079543113708,53.38616983276367L1086.1079543113708,64.75075983276368L1086.107951311371,65.45075983276368L1087.5079573113708,65.45075983276368L1087.507954311371,64.75075983276368L1087.507954311371,53.38616983276367Q1087.507954311371,52.099539832763675,1088.3788543113708,51.15245983276367Q1089.249754311371,50.20537983276367,1090.5318743113708,50.09773983276367L1100.201654311371,49.285905832763675L1100.899254311371,49.227345832763675L1100.7820543113708,47.83224683276367Z" fill-rule="evenodd" fill="#84F2EF" fill-opacity="1"/></g><g><path d="M1093.0648,29.059840457763674L1094.1172,29.91531045776367C1093.7937,30.22703045776367,1093.5805,30.651250457763673,1093.5477,31.124690457763673C1093.5172,31.54891045776367,1093.4844,31.977810457763674,1093.4469,32.362190457763674C1093.4352,32.36688045776367,1093.4211,32.369220457763674,1093.4117,32.37391045776367C1092.9898,32.49813045776367,1092.282,32.70438045776367,1091.83438,33.37938045776367L1091.82735,33.391090457763674L1091.82031,33.40281045776367C1091.43594,34.00281045776367,1091.40781,34.73172045776367,1091.74766,35.352810457763674C1092.125,36.04188045776367,1092.9172,36.50594045776367,1093.8734,36.61844045776367C1093.85,36.66062045776367,1093.8266,36.70516045776367,1093.8031,36.74734045776367C1093.7938,36.766090457763674,1093.782,36.78484045776367,1093.7727,36.803590457763676C1093.6391,36.76375045776367,1093.4938,36.74031045776367,1093.332,36.74031045776367C1093.2383,36.74031045776367,1093.1469,36.74969045776367,1093.0555,36.766090457763674C1092.9617,36.74500045776367,1092.8398,36.71453045776367,1092.7461,36.69344045776367C1092.3852,36.60438045776367,1092.0102,36.51063045776367,1091.63516,36.51063045776367C1091.57422,36.51063045776367,1091.51328,36.51297045776367,1091.45469,36.51766045776367C1090.88047,36.564530457763674,1090.38594,36.87391045776367,1090.0836,37.37313045776367C1089.6711,37.42000045776367,1089.28906,37.64030045776367,1089.04063,37.97780045776367C1088.91406,38.15130045776367,1088.64688,38.608300457763676,1088.79219,39.22230045776367C1088.79922,39.32780045776367,1088.81094,39.44500045776367,1088.825,39.585600457763675C1088.85078,39.85520045776367,1088.8836,40.202000457763674,1088.90938,40.61690045776367C1088.66563,40.49970045776367,1088.39375,40.41060045776367,1088.12188,40.40590045776367C1088.10078,40.40590045776367,1088.08438,40.40360045776367,1088.07266,40.40360045776367C1088.03516,40.340300457763675,1087.94375,40.152800457763675,1087.87813,39.70980045776367C1087.80078,39.18480045776367,1087.79609,38.54030045776367,1087.79609,37.92390045776367C1087.79609,37.48562045776367,1087.66016,36.665310457763674,1086.75547,36.112190457763674C1086.35938,35.87078045776367,1085.90469,35.74188045776367,1085.43594,35.74188045776367C1084.98125,35.74188045776367,1084.53828,35.86141045776367,1084.14219,36.08641045776367L1084.08359,36.06297045776367C1084.15625,35.852030457763675,1084.23828,35.643440457763674,1084.325,35.43719045776367C1084.85469,34.18797045776367,1085.61172,33.06297045776367,1086.575,32.09969045776367C1087.53828,31.136410457763674,1088.66328,30.377030457763674,1089.9125,29.84969045776367C1090.92031,29.418440457763673,1091.97735,29.155940457763673,1093.0648,29.059840457763674ZM1103.9047,37.10125045776367L1104.2727,37.330940457763674C1104.425,38.045800457763676,1104.5,38.77700045776367,1104.5,39.52000045776367C1104.5,40.03800045776367,1104.4625,40.54890045776367,1104.3898,41.055200457763675L1103.1125,42.20130045776367C1103.075,42.142700457763674,1103.0352,42.08410045776367,1102.9953,42.027800457763675C1102.6414,41.53800045776367,1102.2898,41.12780045776367,1101.95,40.81140045776367C1101.7883,40.661400457763676,1101.6711,40.51610045776367,1101.5984,40.37780045776367C1101.5234,40.23480045776367,1101.5164,40.13640045776367,1101.5211,40.06610045776367C1101.5305,39.89030045776367,1101.6219,39.66770045776367,1101.7883,39.41920045776367C1102.0648,39.00910045776367,1102.5195,38.55910045776367,1103.1406,38.080900457763676L1104.0219,37.40594045776367L1103.9047,37.10125045776367ZM1092.5445,43.57940045776367C1092.643,43.64270045776367,1092.7508,43.70360045776367,1092.8656,43.75750045776367C1093.0508,43.84420045776368,1093.3742,44.14890045776367,1093.6086,44.36920045776367C1093.9508,44.69030045776367,1094.3211,45.037200457763674,1094.7617,45.264500457763674C1094.9867,45.78950045776367,1095.3313,46.07080045776367,1095.6641,46.21610045776367C1095.3547,46.62390045776367,1095.1414,47.07390045776367,1094.9703,47.56610045776367L1094.9727,47.38560045776367L1094.3305,46.92620045776367C1094.3258,46.92390045776367,1093.8617,46.58870045776367,1093.3648,46.13640045776367C1092.6687,45.50360045776367,1092.4555,45.14500045776367,1092.3992,45.032500457763675C1092.4062,44.68090045776367,1092.4484,44.39970045776367,1092.4836,44.17000045776367C1092.5141,44.00120045776367,1092.5445,43.79970045776367,1092.5445,43.57940045776367ZM1094,27.520000457763672C1087.37188,27.520000457763672,1082,32.89188045776367,1082,39.52000045776367C1082,46.148100457763675,1087.37188,51.52000045776367,1094,51.52000045776367C1100.6281,51.52000045776367,1106,46.148100457763675,1106,39.52000045776367C1106,32.89188045776367,1100.6281,27.520000457763672,1094,27.520000457763672ZM1094.3328,35.14188045776367C1093.4375,35.14188045776367,1092.7906,34.66609045776367,1093.0836,34.20906045776367C1093.4563,33.64891045776367,1094.7898,33.96063045776367,1094.9094,32.83563045776367C1094.9633,32.31531045776367,1095.0102,31.72938045776367,1095.0453,31.230160457763674C1095.057,31.04969045776367,1095.2023,30.909060457763673,1095.3828,30.897340457763672C1096.2547,30.834060457763673,1096.3438,29.795780457763673,1095.5281,29.132500457763673C1096.407,29.25906045776367,1097.2648,29.498130457763672,1098.0875,29.84734045776367C1099.3367,30.377030457763674,1100.4617,31.13406045776367,1101.425,32.09734045776367C1102.3016,32.97391045776367,1103.0047,33.979380457763675,1103.525,35.09266045776367C1103.3914,35.008280457763675,1103.2531,34.970780457763674,1103.1172,34.970780457763674C1102.4563,34.970780457763674,1101.8469,35.87078045776367,1102.2266,36.89266045776367C1099.1094,39.28330045776367,1099.9086,40.956700457763674,1100.9258,41.90830045776367C1101.2258,42.18950045776367,1101.5211,42.550500457763675,1101.7789,42.90910045776367C1102.0273,43.25120045776367,1102.182,43.64730045776368,1102.2711,44.06220045776367C1102.3038999999999,44.21220045776367,1102.4211,44.287200457763674,1102.5922,44.287200457763674C1102.85,44.287200457763674,1103.225,44.11610045776367,1103.6023,43.77860045776367C1103.0773,44.96220045776367,1102.3461,46.02630045776367,1101.425,46.947300457763674C1100.4594,47.91300045776367,1099.3367,48.67000045776367,1098.0875,49.197300457763674C1097.5156,49.438800457763676,1096.9297,49.62860045776367,1096.3297,49.76220045776367C1096.2945,49.75520045776367,1096.2547,49.75280045776367,1096.2125,49.75280045776367C1096.1305,49.75280045776367,1096.0367,49.764500457763674,1095.9313,49.79270045776367C1096.2945,48.25750045776367,1096.468,47.39270045776367,1097.218,46.74110045776367C1098.2492,45.84580045776367,1097.4453,44.85670045776367,1096.6555,44.85670045776367C1096.6109,44.85670045776367,1096.5641,44.859100457763674,1096.5195,44.86610045776367C1096.4844,44.87080045776367,1096.4539,44.87310045776367,1096.4258,44.87310045776367C1095.9055,44.87310045776367,1096.25,44.055200457763675,1095.6992,44.00830045776367C1095.118,43.95910045776367,1094.3563,42.80360045776367,1093.5102,42.402800457763675C1093.0672,42.19190045776367,1092.6313,41.62470045776367,1091.94219,41.59420045776367L1091.90235,41.59420045776367C1091.46641,41.59420045776367,1090.9086,41.854400457763674,1090.62735,41.854400457763674C1090.51485,41.854400457763674,1090.44453,41.81220045776367,1090.44453,41.697300457763674C1090.44453,40.359100457763674,1090.30625,39.407500457763675,1090.28516,39.03020045776367C1090.27578,38.90120045776367,1090.23828,38.86370045776367,1090.25938,38.86370045776367C1090.2875,38.86370045776367,1090.42813,38.93870045776367,1090.91094,38.950500457763674L1090.92031,38.950500457763674C1091.35625,38.950500457763674,1091.14766,38.048100457763674,1091.57891,38.013000457763674C1091.59766,38.01060045776367,1091.61641,38.01060045776367,1091.63516,38.01060045776367C1092.0195,38.01060045776367,1092.7484,38.287200457763674,1093.1305,38.287200457763674C1093.2102,38.287200457763674,1093.2734,38.27550045776367,1093.3156,38.24730045776367C1093.3203,38.24500045776367,1093.325,38.242700457763675,1093.332,38.242700457763675C1093.5383,38.242700457763675,1094.3492,40.26530045776367,1094.8039,40.26530045776367C1094.9914,40.26530045776367,1095.118,39.920800457763676,1095.118,38.95280045776367C1095.118,38.55200045776367,1094.907,37.853600457763676,1095.118,37.46922045776367C1095.9406,35.96453045776367,1096.7094,34.734060457763675,1096.6438,34.56062045776367C1096.6227,34.50672045776367,1096.3789,34.45750045776367,1096.0578,34.45750045776367C1095.7836,34.45750045776367,1095.4555,34.49265045776367,1095.1602,34.58875045776367C1094.9398,34.66140045776367,1095.2258,35.00359045776367,1094.9211,35.07625045776367C1094.7195,35.12078045776367,1094.5203,35.14187045776367,1094.3328,35.14188045776367ZM1084.17969,37.60520045776367C1084.40703,37.60520045776367,1084.63438,37.54890045776367,1084.81484,37.42703045776367C1085.00234,37.30281045776367,1085.22031,37.237190457763674,1085.43594,37.237190457763674C1085.62109,37.237190457763674,1085.80625,37.28641045776367,1085.97031,37.38719045776367C1086.16016,37.50437045776367,1086.29375,37.65910045776367,1086.29375,37.921600457763674C1086.29375,39.83410045776367,1086.35938,41.87550045776367,1088.09609,41.90590045776367C1088.14766,41.90590045776367,1089.06172,42.25520045776367,1089.49766,43.389500457763674C1089.54922,43.52080045776367,1089.65,43.56300045776367,1089.78359,43.56300045776367C1090.05313,43.56300045776367,1090.46328,43.389500457763674,1090.89922,43.389500457763674C1091.225,43.389500457763674,1090.89922,43.94270045776367,1090.89922,45.13560045776367Q1090.90156,46.31690045776367,1093.4609,48.14730045776368C1093.4469,48.89730045776368,1093.482,49.518400457763676,1093.5383,50.00830045776367C1092.282,49.95440045776367,1091.06563,49.680200457763675,1089.9125,49.19270045776367C1088.66328,48.66300045776367,1087.53828,47.90590045776367,1086.575,46.94270045776367C1085.60937,45.97700045776367,1084.85234,44.854400457763674,1084.325,43.60520045776367C1083.77656,42.31370045776367,1083.5,40.93800045776367,1083.5,39.52000045776367C1083.5,38.840300457763675,1083.56328,38.17000045776367,1083.68984,37.516090457763674C1083.84453,37.57470045776367,1084.01328,37.60520045776367,1084.17969,37.60520045776367Z" fill="#000000" fill-opacity="1" style="mix-blend-mode:passthrough"/></g></g></g></g></g></svg>