<svg xmlns="http://www.w3.org/2000/svg" xmlns:xlink="http://www.w3.org/1999/xlink" fill="none" version="1.1" width="24" height="24" viewBox="0 0 24 24"><defs><clipPath id="master_svg0_72_47720"><rect x="0" y="0" width="24" height="24" rx="0"/></clipPath><clipPath id="master_svg1_72_47733"><rect x="2" y="1" width="20" height="20" rx="0"/></clipPath></defs><g clip-path="url(#master_svg0_72_47720)"><g clip-path="url(#master_svg1_72_47733)"><g transform="matrix(0.8444783687591553,0.5355896949768066,-0.5355896949768066,0.8444783687591553,3.4601801314310023,-4.748520461728617)"><path d="M15.59292194656372,3.583871364593506C15.93810194656372,3.583871364593506,16.21792194656372,3.863693364593506,16.21792194656372,4.208871364593506C16.21792194656372,4.554049364593506,15.93810194656372,4.833871364593506,15.59292194656372,4.833871364593506C13.73016194656372,4.833941364593506,12.07172194656372,6.013491364593506,11.46040194656372,7.773081364593506C10.84908094656372,9.532671364593506,11.418951946563721,11.486391364593505,12.880421946563722,12.641371364593505C13.151041946563721,12.855731364593506,13.17636194656372,13.274501364593506,12.982301946563721,13.519501364593506C12.788241946563721,13.764471364593506,12.07576194656372,13.152231364593506,11.80514194656372,12.937871364593505C9.92653344656372,11.452601364593505,9.493343946563721,9.624241364593505,10.279580946563721,7.362151364593506C11.06574194656372,5.100121364593506,13.19802194656372,3.583871215581506,15.59292194656372,3.583871364593506Z" fill="#84F2EF" fill-opacity="1"/></g><g><path d="M5.678711,19L6.922852,16.64844L10.09473,10.448242L10.46387,9.66895L11.25684,9.67578Q11.62598,9.67578,12.05664,9.66895L13.23926,13.01855L15.42676,19L14.77734,18.98633Q14.59277,18.98633,14.0459,19Q13.861329999999999,18.34375,13.43408,17.09961Q13.00684,15.85547,12.71289,15.08301L8.97363,15.08301L7.98242,17.12695L7.10742,19L6.410156,18.98633Q6.239258,18.98633,5.678711,19ZM9.37695,14.18066L12.45312,14.18066L11.18164,10.564453L9.37695,14.18066Z" fill="#759EFF" fill-opacity="1"/></g><g><path d="M11.37535375,4.5C13.75669375,4.499960959,15.88019375,5.99876,16.677893750000003,8.2425L16.70659375,8.3325L16.81289375,8.35125C19.36119375,8.841750000000001,21.24349375,11.01165,21.36909375,13.60375L21.37539375,13.875C21.37539375,16.9816,18.85699375,19.5,15.75039375,19.5L7.62535375,19.5C5.23527375,19.5018,3.17813475,17.811799999999998,2.71596085,15.4669C2.25378675,13.12189,3.51583275,10.77774,5.7278537499999995,9.872499999999999L5.755353749999999,9.86125C5.89262375,6.96253,8.21163375,4.643523,11.11035375,4.50625014L11.37535375,4.5ZM11.37535375,5.75C8.96126375,5.7493099999999995,7.00311375,7.7046600000000005,7.00035375,10.11875L7.00035375,10.19375L7.00410375,10.283750000000001L7.02035375,10.76625L6.55785375,10.903749999999999C4.77349375,11.43552,3.64921375,13.19563,3.91696375,15.0382C4.18471375,16.8808,5.76344375,18.2481,7.62535375,18.25L11.68785375,18.25L15.75039375,18.25C18.08469375,18.2485,20.00669375,16.4145,20.11759375,14.08274C20.22839375,11.75099,18.489093750000002,9.74295,16.16539375,9.52L15.72539375,9.47875L15.61789375,9.05125C15.12509375,7.10957,13.37789375,5.75,11.37535375,5.75Z" fill="#000000" fill-opacity="1"/></g><g><path d="M11.37546,4.5C11.72063,4.5,12.00046,4.779822,12.00046,5.125C12.00046,5.470178,11.72063,5.75,11.37546,5.75C9.5127,5.75007,7.85425,6.92962,7.24293,8.68921C6.631612,10.4488,7.20149,12.402519999999999,8.66296,13.5575C8.93358,13.77186,8.95889,14.19063,8.76483,14.43563C8.57077,14.6806,8.15733,14.7519,7.88671,14.5375C6.008096,13.05223,5.275875,10.54037,6.062112,8.27828C6.84827,6.01625,8.980550000000001,4.499999850988,11.37546,4.5Z" fill="#000000" fill-opacity="1"/></g></g></g></svg>