<svg width="20" height="20" viewBox="0 0 20 20" fill="none" xmlns="http://www.w3.org/2000/svg">
<path fill-rule="evenodd" clip-rule="evenodd" d="M2.09942 6.50951C1.66675 7.29996 1.66675 8.25347 1.66675 10.1605V11.428C1.66675 14.6788 1.66675 16.3041 2.64306 17.314C3.61937 18.3239 5.19072 18.3239 8.33341 18.3239H11.6667C14.8094 18.3239 16.3808 18.3239 17.3571 17.314C18.3334 16.3041 18.3334 14.6788 18.3334 11.428V10.1605C18.3334 8.25347 18.3334 7.29996 17.9007 6.50951C17.4681 5.71907 16.6776 5.22849 15.0967 4.24733L13.4301 3.21295C11.7589 2.1758 10.9234 1.65723 10.0001 1.65723C9.0768 1.65723 8.24124 2.1758 6.57011 3.21295L4.90344 4.24733C3.32254 5.22849 2.53208 5.71907 2.09942 6.50951ZM7.87226 12.8218C7.59495 12.6162 7.20352 12.6744 6.99798 12.9517C6.79243 13.229 6.8506 13.6205 7.1279 13.826C7.93825 14.4267 8.92927 14.7822 10.0001 14.7822C11.0709 14.7822 12.0619 14.4267 12.8723 13.826C13.1496 13.6205 13.2077 13.229 13.0022 12.9517C12.7966 12.6744 12.4052 12.6162 12.1279 12.8218C11.521 13.2717 10.7883 13.5322 10.0001 13.5322C9.21183 13.5322 8.47921 13.2717 7.87226 12.8218Z" fill="#5050FA"/>
</svg>
