<svg width="20" height="20" viewBox="0 0 20 20" fill="none" xmlns="http://www.w3.org/2000/svg">
<path d="M2.64306 15.6811L2.11273 16.2114L2.11273 16.2114L2.64306 15.6811ZM19.0834 9.99072C19.0834 9.57651 18.7476 9.24072 18.3334 9.24072C17.9192 9.24072 17.5834 9.57651 17.5834 9.99072H19.0834ZM17.3571 15.6811L16.8268 15.1507V15.1507L17.3571 15.6811ZM2.64306 4.30037L2.11273 3.77004H2.11273L2.64306 4.30037ZM12.5023 2.57483C12.0881 2.57362 11.7513 2.90842 11.7501 3.32264C11.7489 3.73685 12.0837 4.07362 12.4979 4.07483L12.5023 2.57483ZM17.3571 4.30037L16.8268 4.8307L17.3571 4.30037ZM7.50228 4.07483C7.91649 4.07362 8.25129 3.73685 8.25008 3.32264C8.24887 2.90842 7.9121 2.57362 7.49789 2.57483L7.50228 4.07483ZM17.5024 6.73082C17.543 7.14304 17.91 7.44435 18.3223 7.4038C18.7345 7.36325 19.0358 6.99621 18.9952 6.58398L17.5024 6.73082ZM9.25008 4.15739C9.25008 4.5716 9.58587 4.90739 10.0001 4.90739C10.4143 4.90739 10.7501 4.5716 10.7501 4.15739H9.25008ZM10.7501 2.49072C10.7501 2.07651 10.4143 1.74072 10.0001 1.74072C9.58587 1.74072 9.25008 2.07651 9.25008 2.49072H10.7501ZM6.66675 7.99072C6.25253 7.99072 5.91675 8.32651 5.91675 8.74072C5.91675 9.15494 6.25253 9.49072 6.66675 9.49072V7.99072ZM13.3334 9.49072C13.7476 9.49072 14.0834 9.15494 14.0834 8.74072C14.0834 8.32651 13.7476 7.99072 13.3334 7.99072V9.49072ZM6.66675 10.9074C6.25253 10.9074 5.91675 11.2432 5.91675 11.6574C5.91675 12.0716 6.25253 12.4074 6.66675 12.4074V10.9074ZM11.2501 12.4074C11.6643 12.4074 12.0001 12.0716 12.0001 11.6574C12.0001 11.2432 11.6643 10.9074 11.2501 10.9074V12.4074ZM11.6667 15.9074H8.33341V17.4074H11.6667V15.9074ZM8.33341 15.9074C6.74086 15.9074 5.6219 15.9058 4.77578 15.792C3.95123 15.6812 3.49897 15.4763 3.17339 15.1507L2.11273 16.2114C2.76346 16.8621 3.58503 17.1454 4.57591 17.2787C5.54521 17.409 6.78327 17.4074 8.33341 17.4074V15.9074ZM0.916748 9.99072C0.916748 11.5409 0.915155 12.7789 1.04547 13.7482C1.1787 14.7391 1.462 15.5607 2.11273 16.2114L3.17339 15.1507C2.84781 14.8252 2.64296 14.3729 2.5321 13.5484C2.41834 12.7022 2.41675 11.5833 2.41675 9.99072H0.916748ZM17.5834 9.99072C17.5834 11.5833 17.5818 12.7022 17.4681 13.5484C17.3572 14.3729 17.1524 14.8252 16.8268 15.1507L17.8874 16.2114C18.5382 15.5607 18.8215 14.7391 18.9547 13.7482C19.085 12.7789 19.0834 11.5409 19.0834 9.99072H17.5834ZM11.6667 17.4074C13.2169 17.4074 14.455 17.409 15.4243 17.2787C16.4151 17.1454 17.2367 16.8621 17.8874 16.2114L16.8268 15.1507C16.5012 15.4763 16.0489 15.6812 15.2244 15.792C14.3783 15.9058 13.2593 15.9074 11.6667 15.9074V17.4074ZM2.41675 9.99072C2.41675 8.39817 2.41834 7.27921 2.5321 6.43309C2.64296 5.60854 2.84781 5.15628 3.17339 4.8307L2.11273 3.77004C1.462 4.42077 1.1787 5.24233 1.04547 6.23321C0.915155 7.20252 0.916748 8.44058 0.916748 9.99072H2.41675ZM12.4979 4.07483C13.8056 4.07865 14.7363 4.10255 15.4441 4.22266C16.1302 4.33907 16.5304 4.53427 16.8268 4.8307L17.8874 3.77004C17.2979 3.18055 16.5672 2.89178 15.6951 2.7438C14.8447 2.59951 13.7899 2.5786 12.5023 2.57483L12.4979 4.07483ZM7.49789 2.57483C6.2103 2.5786 5.15546 2.59951 4.3051 2.7438C3.43293 2.89178 2.70222 3.18055 2.11273 3.77004L3.17339 4.8307C3.46981 4.53427 3.86998 4.33907 4.55603 4.22266C5.2639 4.10255 6.19461 4.07865 7.50228 4.07483L7.49789 2.57483ZM18.9952 6.58398C18.8822 5.4348 18.6135 4.49609 17.8874 3.77004L16.8268 4.8307C17.1894 5.19328 17.4023 5.71313 17.5024 6.73082L18.9952 6.58398ZM10.7501 4.15739V2.49072H9.25008V4.15739H10.7501ZM6.66675 9.49072H13.3334V7.99072H6.66675V9.49072ZM6.66675 12.4074H11.2501V10.9074H6.66675V12.4074Z" fill="#101113"/>
</svg>
