<svg width="20" height="20" viewBox="0 0 20 20" fill="none" xmlns="http://www.w3.org/2000/svg">
<path d="M17.0832 5.74072C17.4975 5.74072 17.8332 5.40494 17.8332 4.99072C17.8332 4.57651 17.4975 4.24072 17.0832 4.24072V5.74072ZM2.9165 4.24072C2.50229 4.24072 2.1665 4.57651 2.1665 4.99072C2.1665 5.40494 2.50229 5.74072 2.9165 5.74072V4.24072ZM8.66285 9.08276C8.62164 8.6706 8.2541 8.3699 7.84195 8.41111C7.42979 8.45233 7.12908 8.81986 7.1703 9.23202L8.66285 9.08276ZM7.58696 13.3987C7.62818 13.8108 7.99571 14.1115 8.40787 14.0703C8.82003 14.0291 9.12073 13.6616 9.07952 13.2494L7.58696 13.3987ZM12.8295 9.23202C12.8707 8.81986 12.57 8.45233 12.1579 8.41111C11.7457 8.3699 11.3782 8.6706 11.337 9.08276L12.8295 9.23202ZM10.9203 13.2494C10.8791 13.6616 11.1798 14.0291 11.5919 14.0703C12.0041 14.1115 12.3716 13.8108 12.4129 13.3987L10.9203 13.2494ZM12.8571 3.56215L13.5686 3.32498L13.5686 3.32498L12.8571 3.56215ZM12.938 3.80487L12.2264 4.04204V4.04204L12.938 3.80487ZM7.06186 3.80487L6.35035 3.5677L6.35035 3.5677L7.06186 3.80487ZM7.14276 3.56215L6.43125 3.32498L6.43125 3.32498L7.14276 3.56215ZM7.03259 3.89099L7.73786 4.14611L7.73786 4.14611L7.03259 3.89099ZM5.41657 4.24072C5.00236 4.24072 4.66657 4.57651 4.66657 4.99072C4.66657 5.40494 5.00236 5.74072 5.41657 5.74072V4.24072ZM5.50753 4.99019L5.52653 5.73995H5.52653L5.50753 4.99019ZM12.9672 3.89099L13.6725 3.63587L13.6725 3.63585L12.9672 3.89099ZM14.5832 5.74072C14.9975 5.74072 15.3332 5.40494 15.3332 4.99072C15.3332 4.57651 14.9975 4.24072 14.5832 4.24072V5.74072ZM14.4923 4.99019L14.4733 5.73995H14.4733L14.4923 4.99019ZM11.7961 2.50636L11.9143 1.76574V1.76574L11.7961 2.50636ZM12.7076 3.16339L13.3729 2.81699L13.3729 2.81699L12.7076 3.16339ZM8.20375 2.50636L8.08548 1.76574V1.76574L8.20375 2.50636ZM7.29217 3.16339L6.62696 2.81699L6.62696 2.81699L7.29217 3.16339ZM5.05407 7.02417C5.02652 6.61087 4.66914 6.29816 4.25584 6.32572C3.84255 6.35327 3.52984 6.71065 3.5574 7.12395L5.05407 7.02417ZM4.68902 12.8233L3.94068 12.8732L4.68902 12.8233ZM16.0597 12.8732C16.0872 12.4599 15.7745 12.1025 15.3612 12.075C14.9479 12.0474 14.5906 12.3601 14.563 12.7734L16.0597 12.8732ZM5.6311 16.8163L6.14349 16.2687L5.6311 16.8163ZM14.7796 9.52417C14.7521 9.93746 15.0648 10.2948 15.4781 10.3224C15.8914 10.3499 16.2487 10.0372 16.2763 9.62395L14.7796 9.52417ZM16.443 7.12395C16.4705 6.71065 16.1578 6.35327 15.7445 6.32572C15.3312 6.29816 14.9738 6.61087 14.9463 7.02417L16.443 7.12395ZM17.0832 4.24072H2.9165V5.74072H17.0832V4.24072ZM7.1703 9.23202L7.58696 13.3987L9.07952 13.2494L8.66285 9.08276L7.1703 9.23202ZM11.337 9.08276L10.9203 13.2494L12.4129 13.3987L12.8295 9.23202L11.337 9.08276ZM8.62929 3.24072H11.3705V1.74072H8.62929V3.24072ZM12.1455 3.79932L12.2264 4.04204L13.6495 3.5677L13.5686 3.32498L12.1455 3.79932ZM7.77337 4.04204L7.85428 3.79932L6.43125 3.32498L6.35035 3.5677L7.77337 4.04204ZM6.35035 3.5677C6.3343 3.61583 6.33048 3.62712 6.32731 3.63587L7.73786 4.14611C7.74906 4.11515 7.75996 4.08226 7.77337 4.04204L6.35035 3.5677ZM5.41657 5.74072C5.45897 5.74072 5.49362 5.74078 5.52653 5.73995L5.48853 4.24043C5.47922 4.24066 5.46731 4.24072 5.41657 4.24072V5.74072ZM6.32731 3.63587C6.19889 3.99089 5.86594 4.23086 5.48853 4.24043L5.52653 5.73995C6.52153 5.71473 7.3993 5.08207 7.73786 4.14611L6.32731 3.63587ZM12.2264 4.04204C12.2398 4.08197 12.2508 4.11522 12.262 4.14613L13.6725 3.63585C13.6694 3.62717 13.6654 3.6156 13.6495 3.5677L12.2264 4.04204ZM14.5832 4.24072C14.5325 4.24072 14.5206 4.24066 14.5113 4.24043L14.4733 5.73995C14.5062 5.74078 14.5408 5.74072 14.5832 5.74072V4.24072ZM12.262 4.14611C12.6005 5.08207 13.4783 5.71473 14.4733 5.73995L14.5113 4.24043C14.1339 4.23086 13.8009 3.99089 13.6725 3.63587L12.262 4.14611ZM11.3705 3.24072C11.6152 3.24072 11.6529 3.243 11.6778 3.24698L11.9143 1.76574C11.7434 1.73845 11.5627 1.74072 11.3705 1.74072V3.24072ZM13.5686 3.32498C13.5078 3.14266 13.4528 2.97052 13.3729 2.81699L12.0424 3.50979C12.0541 3.53219 12.0682 3.56724 12.1455 3.79932L13.5686 3.32498ZM11.6778 3.24698C11.8341 3.27193 11.9693 3.36941 12.0424 3.50979L13.3729 2.81699C13.0805 2.25549 12.5395 1.86557 11.9143 1.76574L11.6778 3.24698ZM8.62929 1.74072C8.43711 1.74072 8.25641 1.73845 8.08548 1.76574L8.32201 3.24698C8.34695 3.243 8.38466 3.24072 8.62929 3.24072V1.74072ZM7.85428 3.79932C7.93163 3.56725 7.94572 3.53219 7.95738 3.50979L6.62696 2.81699C6.54701 2.97051 6.49202 3.14267 6.43125 3.32498L7.85428 3.79932ZM8.08548 1.76574C7.46033 1.86557 6.91935 2.25549 6.62696 2.81699L7.95738 3.50979C8.03048 3.36941 8.16572 3.27193 8.32201 3.24698L8.08548 1.76574ZM9.67794 18.2407H10.3224V16.7407H9.67794V18.2407ZM3.5574 7.12395L3.94068 12.8732L5.43736 12.7734L5.05407 7.02417L3.5574 7.12395ZM10.3224 18.2407C11.4106 18.2407 12.2999 18.2422 13.0043 18.1501C13.7301 18.0552 14.3621 17.8501 14.8816 17.364L13.8569 16.2687C13.6555 16.457 13.3729 16.5891 12.8097 16.6628C12.2252 16.7392 11.4515 16.7407 10.3224 16.7407V18.2407ZM14.563 12.7734C14.4879 13.9 14.4349 14.6719 14.3198 15.2501C14.2088 15.807 14.0582 16.0803 13.8569 16.2687L14.8816 17.364C15.4012 16.878 15.6478 16.261 15.7908 15.5431C15.9296 14.8464 15.9873 13.959 16.0597 12.8732L14.563 12.7734ZM9.67794 16.7407C8.54883 16.7407 7.77513 16.7392 7.19061 16.6628C6.6275 16.5891 6.34482 16.457 6.14349 16.2687L5.11871 17.364C5.63822 17.8501 6.2703 18.0552 6.99606 18.1501C7.70042 18.2422 8.58972 18.2407 9.67794 18.2407V16.7407ZM3.94068 12.8732C4.01307 13.959 4.07072 14.8464 4.20951 15.5431C4.35251 16.261 4.5992 16.878 5.11871 17.364L6.14349 16.2687C5.94216 16.0803 5.79156 15.807 5.6806 15.2501C5.56543 14.6719 5.51246 13.9 5.43736 12.7734L3.94068 12.8732ZM16.2763 9.62395L16.443 7.12395L14.9463 7.02417L14.7796 9.52417L16.2763 9.62395Z" fill="#101113"/>
</svg>
