<svg width="240" height="192" viewBox="0 0 240 192" fill="none" xmlns="http://www.w3.org/2000/svg">
<g clip-path="url(#clip0_156_15351)">
<path d="M225.487 139.933C202.59 98.1313 217.008 96.6274 228.353 83.4905C239.221 70.9101 240.977 51.7198 237.658 35.3648C234.33 19.0095 221.906 4.01535 205.649 0.969885C181.01 -3.64718 158.307 18.6561 133.274 17.7537C120.53 17.295 108.865 10.8582 96.7321 6.88784C68.0069 -2.51923 32.8127 3.8499 14.3 27.9579C-1.94228 49.0956 -2.43366 78.8358 4.07218 104.771C10.712 131.225 24.3937 156.551 45.8243 173.185C67.2476 189.811 96.978 196.579 122.22 186.848C140.234 179.907 158.352 164.981 176.41 171.786C182.328 174.019 209.222 186.6 221.288 172.395C226.484 166.282 230.087 148.332 225.487 139.933Z" fill="url(#paint0_linear_156_15351)"/>
<g filter="url(#filter0_dd_156_15351)">
<mask id="mask0_156_15351" style="mask-type:luminance" maskUnits="userSpaceOnUse" x="48" y="45" width="144" height="89">
<path d="M191.166 45.9258H48.1953V133.649H191.166V45.9258Z" fill="white"/>
</mask>
<g mask="url(#mask0_156_15351)">
<path d="M191.157 120.654V113.806L191.104 52.3479C191.092 48.8018 188.248 45.9338 184.736 45.9297L54.5592 46.0254C51.0473 46.0379 48.1994 48.91 48.1953 52.4562L48.2407 114.56L48.249 121.415V127.23C48.2696 130.768 51.1128 133.641 54.6253 133.649L184.806 133.549C188.314 133.532 191.153 130.664 191.166 127.118L191.157 120.654Z" fill="url(#paint1_linear_156_15351)"/>
<path d="M172.231 116.491C172.26 116.604 172.31 116.695 172.368 116.774L172.231 116.491Z" fill="#D9E6FF"/>
<path d="M104.466 104.961C103.851 104.478 102.791 103.779 102.102 103.463C101.198 103.047 100.542 102.559 99.7536 102.093C98.9446 101.615 98.243 101.977 97.3929 101.673C96.0558 101.194 96.1507 100.095 94.508 100.453C94.8051 97.5145 93.0804 100.478 92.2382 100.945C90.3933 101.964 89.8775 100.262 89.7871 98.7799C88.5817 98.4259 89.2629 95.762 87.7151 95.958C87.6947 96.915 86.9102 98.7092 85.8498 97.7226C85.2844 97.1982 85.4578 95.8452 85.4906 95.1378C85.9944 95.0005 86.4853 94.8922 86.9931 94.7217C87.4344 94.5718 88.1156 94.1096 88.4003 94.1096C89.8323 94.1182 89.3742 95.8702 90.4763 96.1575C91.2807 95.0922 89.886 93.9808 90.7689 92.9902C91.1734 92.5365 91.7761 92.524 92.1185 92.0407C92.5438 91.4497 92.4077 90.7879 92.907 90.2846C93.3194 89.868 94.0171 89.8224 94.3718 89.2519C94.6277 88.8443 94.5825 88.1826 94.8339 87.7284C95.2384 86.992 96.8438 86.4215 96.968 85.456C97.5539 85.2479 99.0972 85.4309 99.4356 84.8318C99.6214 84.507 98.7752 82.5338 98.4701 82.2802C97.5911 81.5392 97.1946 82.4842 96.8274 81.0354C96.5755 80.0323 96.8647 79.4372 95.5604 79.0918C95.6185 79.4162 95.4739 79.8368 95.5236 80.1611C95.2677 80.2403 94.7683 80.2363 94.504 80.1696C94.4255 78.5173 94.4752 78.1508 92.8737 77.8305C92.032 77.6641 92.4077 77.1187 91.6479 78.005C91.2683 78.4506 91.157 79.0251 90.9756 79.5661C90.5175 80.9316 91.4994 81.6184 91.0084 82.9875C90.8062 83.558 90.3605 84.3195 89.7951 83.7284C89.5431 83.4663 89.8283 82.2591 89.5764 81.8806C88.9369 80.9231 87.1 81.5683 86.3989 80.4278C85.6312 79.179 86.7909 78.1594 87.4428 77.3723C87.9422 76.7732 87.6987 76.4484 88.5777 76.0158C89.0522 75.7827 89.4194 75.7781 89.8283 75.4413C90.6661 74.7585 90.922 73.435 90.4842 72.4735C90.3565 72.1943 90.2532 71.9115 90.1334 71.6368C89.8984 71.541 89.3742 71.4829 89.1183 71.512C89.172 71.9862 89.0398 72.4775 88.7223 72.8354C88.2229 72.6981 87.4508 72.0363 87.2033 71.6283C86.6587 70.7334 86.8813 68.8645 85.6143 70.0301C84.9296 70.6587 85.1273 71.8158 84.5003 72.3612C83.91 72.873 82.5937 72.9603 81.8549 72.8269C82.0899 71.903 83.2293 72.1321 83.2496 71.2287C83.266 70.5876 81.6775 69.3849 81.2566 68.9227C80.1834 67.7491 78.1611 66.9164 76.6918 66.1299C76.3783 66.7625 75.2598 67.4493 75.1609 68.082C75.1236 68.3151 75.8585 69.8426 76.1099 70.0176C76.7251 70.4422 78.248 69.5764 78.8175 70.1509C79.3581 70.6958 78.7389 71.5325 78.8175 72.2193C79.519 72.0489 79.9359 72.4484 79.7173 73.1974C78.7389 73.4014 78.095 72.494 77.2985 72.0153C76.8985 71.7782 76.8528 71.4949 76.341 71.5034C75.623 71.516 75.7552 72.0028 75.1197 72.0985C75.1033 71.4994 74.7853 71.3536 74.3147 71.4949C74.1622 71.541 74.1786 72.2319 73.9763 72.3441C73.7741 72.4524 73.3821 72.3442 73.151 72.3567C71.8512 72.4524 70.8067 71.2373 69.6594 71.0122C68.9911 70.8833 68.6816 71.0498 68.1161 70.6462C67.3897 70.1339 67.5054 69.8346 66.6265 69.6636C65.739 69.4932 64.3483 69.8591 64.0472 70.6417V70.5169C64.076 71.1621 63.7868 71.5536 63.7992 72.1902C63.4072 72.2278 62.9779 72.2484 62.5694 72.2444C62.1814 73.5889 64.8437 73.1808 64.3811 74.9044C64.0223 74.8958 63.6715 74.9625 63.3331 74.8086C63.1846 75.2372 63.2049 75.7325 63.2422 76.2153C63.6631 76.2153 63.8862 76.2614 64.1664 75.9075C64.5629 76.6564 63.9811 76.665 63.8365 77.0856C63.6795 77.5307 63.597 77.7428 63.6303 78.3424C63.6715 79.0708 63.6839 80.5817 63.9274 81.3021C64.3358 80.9316 64.6081 80.2363 65.2024 80.3486C65.6481 82.8045 62.3011 82.4255 62.5406 84.324C63.1513 84.2573 63.0276 83.766 63.4608 83.4703C63.754 83.2748 64.3686 83.1043 64.7194 82.9584C65.7142 82.5383 66.4158 82.1303 67.2247 81.3141C67.2575 81.5518 67.4145 81.7638 67.4433 81.9097C68.2195 81.1978 67.6043 80.49 68.607 79.945C69.891 79.2457 70.3158 79.6162 71.3021 80.4318C72.0077 81.0103 72.8539 81.4811 73.2708 82.405C73.5967 83.1374 73.1962 84.7652 74.3316 84.4198C74.1537 83.3038 74.8265 82.9459 75.2886 83.8743C75.615 84.5321 75.2518 85.3642 75.6394 86.0555C76.0399 86.7794 76.6505 86.9795 76.9313 87.762C77.1295 88.3074 77.1912 89.1105 77.2741 89.7181C77.5007 91.371 78.1735 92.0823 78.9496 93.506C79.4405 94.4054 80.0472 97.5231 81.2482 97.1275C81.0996 96.6362 80.9511 96.0412 81.046 95.4707C81.7351 95.5539 82.0611 96.5946 82.321 97.1691C82.7378 98.085 83.0886 98.0514 83.6953 98.7633C84.467 99.6707 83.749 99.8953 85.2183 99.983C86.0769 100.037 86.9474 99.9494 87.8016 100.004C88.1111 100.965 89.2957 101.818 90.1911 102.035C91.5406 102.364 92.3828 101.981 91.1282 103.442C90.4678 104.208 89.5928 105.032 89.9272 106.343C90.1255 107.109 91.2971 108.982 91.9207 109.531C92.9607 110.439 93.8148 110.484 94.0295 112.208C94.1656 113.332 93.7035 114.514 93.5629 115.633C93.2578 118.039 92.6263 120.146 92.6263 122.718C92.6263 124.375 92.428 125.17 93.5629 126.302C94.3515 127.08 95.94 128.125 95.6965 126.398C95.6637 126.161 95.2921 125.886 95.2016 125.561C95.1191 125.274 95.1892 124.745 95.2016 124.45C95.214 124.142 95.226 123.613 95.3214 123.326C95.4739 122.843 96.2331 122.389 96.2784 122.123C96.3365 121.727 95.7298 121.686 95.7547 121.386C95.8083 120.816 95.9609 120.949 96.2332 120.408C96.493 119.892 96.7325 119.355 96.9844 118.839C98.1273 118.93 98.4413 118.83 98.3832 117.486C99.9061 117.486 99.8937 114.943 100.926 115.138C100.983 113.877 100.752 113.436 101.821 112.853C102.865 112.279 103.827 112.345 104.107 110.842C104.239 110.123 103.963 109.594 104.368 108.924C104.669 108.437 105.16 108.487 105.428 107.771C105.849 106.647 105.341 105.631 104.483 104.961H104.466Z" fill="#D9E6FF"/>
<path d="M60.4194 73.6932C60.0234 73.5312 59.8252 73.6932 59.458 73.452C59.1608 73.2605 59.049 72.7111 58.7191 72.4324C58.1661 71.9616 57.3447 71.6664 56.6968 72.0032C56.742 72.4404 56.5154 72.2699 56.3212 72.4695H56.2059C56.2059 73.1688 55.9624 74.2346 56.8906 74.201C56.6471 76.1075 58.7355 76.0995 60.0438 75.7872C60.1139 76.2534 60.2788 76.4614 60.6296 76.6113C61.1499 75.0838 62.3881 74.4883 60.4155 73.6892L60.4194 73.6932Z" fill="#D9E6FF"/>
<path d="M98.2391 123.826L98.3588 124.071C97.5867 123.892 96.968 124.229 97.2031 125.153C97.4674 125.008 97.5499 125.137 97.7889 124.816C97.9499 124.916 98.2882 124.916 98.4537 125.033C98.6311 124.542 98.6559 124.101 98.2346 123.821L98.2391 123.826Z" fill="#D9E6FF"/>
<path d="M91.3304 99.1044C91.5451 99.2623 92.3868 99.1831 92.6467 99.1375C93.6211 98.9751 94.3679 98.3093 95.4078 98.6422C96.0185 98.8377 96.5676 99.3997 97.1867 99.6203H97.3064C97.3228 99.4288 97.3064 99.2167 97.2856 99.0292C96.0722 98.1885 94.7023 97.3353 93.233 97.8928C92.8246 96.9483 93.5674 95.2874 92.0569 95.2373C92.0981 95.6243 91.9948 96.0615 92.032 96.453C91.3881 96.5362 90.3978 96.1697 90.1747 97.0731C90.043 97.0771 89.9476 96.9814 89.8323 96.9774C89.9233 97.6892 90.6537 97.6266 91.0785 98.1509C91.3389 98.4758 90.922 98.8046 91.3344 99.1044H91.3304Z" fill="#D9E6FF"/>
<path d="M92.1518 67.3408L91.3717 67.424C91.4666 67.424 91.5531 67.4366 91.6316 67.4571C91.8298 67.4366 92.0072 67.403 92.1518 67.3408Z" fill="#D9E6FF"/>
<path d="M90.9796 67.4615L91.3716 67.4199C91.2519 67.4199 91.1242 67.4279 90.9796 67.4615Z" fill="#D9E6FF"/>
<path d="M88.1941 67.7074C87.5666 68.6023 88.3919 70.7544 89.3702 70.983C90.1792 71.1705 90.7565 70.4501 91.6604 70.8872C92.4902 71.2868 92.5105 71.5951 92.7376 72.515C92.9975 73.5803 92.754 73.5387 92.354 74.4044C92.0897 74.9709 91.9207 75.4121 92.1433 76.132C94.2769 74.8581 93.9634 78.3964 95.9981 78.5713C96.0185 78.0966 96.0145 77.6098 95.9981 77.1351C95.0531 77.0975 94.8757 75.9986 94.9825 75.204C96.1383 77.8971 97.8634 73.9137 95.4451 73.2183C95.4819 72.5275 95.9609 71.8488 95.8784 71.1539C94.8836 70.7419 93.8521 71.1329 93.0804 70.03C92.5642 69.2891 92.5811 67.7154 91.6315 67.4618C90.4842 67.5826 88.5737 67.1745 88.1941 67.7114V67.7074Z" fill="#D9E6FF"/>
<path d="M109.778 66.8541C110.562 65.5808 110.884 65.4349 110.884 63.7906C110.884 63.2913 110.971 62.7042 110.884 62.2134C110.752 61.464 110.269 61.2559 110.087 60.6148C109.58 58.796 111.627 59.0747 112.671 58.7584C113.269 58.5754 114.189 58.242 114.64 57.7427C114.941 57.4054 114.994 56.7231 115.329 56.3315C116.051 55.4783 117.368 55.5741 116.748 54.2421C116.917 54.6085 115.428 53.3222 115.782 53.4139C115.229 53.268 114.945 53.3723 114.516 53.7633H114.751C113.183 53.7383 111.899 55.37 110.31 55.3575C109.344 55.345 108.639 54.8873 107.603 54.9915C106.716 55.0828 106.076 55.4658 105.243 54.8542C103.563 53.6134 103.823 52.0067 101.289 52.2649C100.5 52.3401 99.374 52.2233 98.5978 52.4188C97.8013 52.6188 96.9681 53.7759 96.0394 53.4099C95.9693 53.7718 95.7626 53.9593 95.7711 54.3544C94.9085 54.4045 94.2481 54.388 93.4725 53.9759C92.2258 53.3222 92.5354 53.2014 91.1242 53.7342C90.3854 54.013 89.5188 54.1173 88.9986 54.8C88.5693 55.362 88.7302 56.6815 87.7275 56.4318C87.7191 55.6447 86.5594 55.4327 85.9572 55.7325C84.5743 56.4193 85.7137 57.2098 86.0645 57.9092C86.4729 58.7128 85.9159 59.9986 86.3283 60.7025C87.2818 62.3132 87.6739 60.1405 88.3631 59.8823C88.6686 60.6067 88.9161 62.9459 87.8389 62.8291C87.6739 63.7409 91.475 64.6192 91.9411 63.9114C92.2303 63.4742 91.714 61.9633 91.9451 61.3392C92.2795 60.4398 92.6879 60.1776 92.8613 59.1494C93.0144 58.2175 92.9975 57.5472 94.1741 57.6971C95.4039 57.851 95.548 58.596 95.1147 59.4201C94.739 60.1235 93.9386 60.6814 93.6578 61.46C93.1172 62.9373 93.9013 62.2591 94.8384 62.2425C94.9045 63.179 92.8901 63.4497 94.6735 64.2528C95.3333 64.5486 96.3569 64.3651 97.0749 64.6147C98.1273 64.9727 98.5278 65.2599 98.3668 66.4796C98.2843 67.0957 97.4629 68.4944 98.9034 68.1986C98.8582 69.2644 98.5402 72.915 99.7451 73.2147C99.84 74.8129 99.9518 75.9865 100.356 77.4558C100.595 78.3261 100.897 79.038 101.784 79.3207C102.49 79.5498 102.853 78.9377 103.377 79.8576C103.344 78.9713 103.501 77.123 104.008 76.382C104.821 75.1959 106.613 74.7006 107.624 73.7181C108.42 72.944 109.559 72.0617 109.6 70.8796C109.654 69.2479 108.837 68.3821 109.782 66.8461L109.778 66.8541Z" fill="#D9E6FF"/>
<path d="M110.999 77.3687C111.503 77.0108 113.278 74.7549 111.817 74.6757V74.5549C111.251 74.4842 110.591 74.6381 110.509 75.2707C109.947 75.4417 109.415 75.1795 109.056 74.809C108.92 75.2667 108.986 75.7535 109.225 76.116C107.859 77.3477 110.219 77.9267 110.999 77.3727V77.3687Z" fill="#D9E6FF"/>
<path d="M121.441 63.0365C121.507 63.1493 121.771 63.4947 121.882 63.636C122.406 62.9327 121.845 60.9264 122.696 60.4728C123.673 59.9524 122.939 62.3873 123.743 62.7452C124.416 61.7255 123.422 60.4642 122.885 59.6611C122.44 58.9909 122.637 58.6289 122.369 57.888C122.08 57.0969 121.507 57.0388 120.95 56.6934L120.834 56.8182C119.703 56.568 120.091 57.7421 120.137 58.3998C120.194 59.2365 119.827 59.6902 119.802 60.3935C119.753 61.913 121.746 61.509 121.436 63.0325L121.441 63.0365Z" fill="#D9E6FF"/>
<path d="M123.908 57.5347C125.535 57.8676 124.92 56.4359 125.27 55.541C125.147 55.6282 125.035 55.728 124.932 55.8488L124.817 55.724C123.933 56.0198 122.315 57.2019 123.908 57.5347Z" fill="#D9E6FF"/>
<path d="M174.477 72.9639C173.998 72.4566 173.882 71.4655 173.263 71.1537C172.751 70.8955 171.604 71.1036 171.076 71.1703C171.113 71.3698 171.01 71.649 171.051 71.8445C170.234 71.9403 170.077 71.091 169.421 70.9913C168.984 70.9246 168.571 71.4034 168.228 71.4951C166.689 71.8987 166.582 71.1702 166.363 69.7967C165.764 69.9546 165.009 70.5125 164.402 70.0338C164.184 69.8633 164.118 68.8848 163.779 68.5855C163.47 68.3148 162.938 68.4521 162.517 68.0691C162.071 67.6656 162.013 67.0785 161.542 66.7747C161.237 67.5072 161.2 68.3479 160.622 68.9514C160.139 69.4553 159.731 69.2512 159.355 69.5345C159.013 69.7881 159.017 70.0463 158.753 70.3045C156.586 72.394 157.18 69.8172 157.234 68.215C155.922 68.1483 154.593 68.2481 153.28 68.1774C153.222 67.0951 153.078 66.4419 152.673 65.4969C152.315 64.6517 152.698 65.0056 151.857 64.5309C151.489 64.3228 150.775 64.2316 150.536 63.8275C150.301 63.4365 150.676 62.6745 150.342 62.3542C149.962 61.9797 148.53 62.3085 148.336 62.6956C147.874 63.6029 150.189 65.5801 148.464 65.6297C147.42 65.6633 146.904 63.8777 145.621 64.373C145.039 64.5975 145.1 65.0221 144.75 65.5134C144.659 65.6423 144.139 66.117 144.123 66.1752C144.077 66.3291 144.226 66.8494 144.226 66.854C144.085 67.1327 144.275 67.3202 144.019 67.5989C143.887 67.7403 143.26 67.4741 143.095 67.5904C142.484 68.0025 142.814 68.7058 142.377 69.3014C141.742 70.1711 140.157 70.0674 140.14 68.7103C139.088 68.4521 138.151 69.6468 137.924 70.6248C137.73 71.47 138.679 72.594 137.441 72.9599C135.902 72.3689 134.338 72.2982 132.699 72.3774C132.951 73.7801 132.588 73.3304 131.808 73.8217C131.226 74.1836 130.64 74.8248 129.988 75.1286C129.596 75.3076 129.216 75.2745 128.853 75.4244C128.655 75.5031 128.205 75.8445 128.069 75.8821C127.33 76.057 126.546 76.1317 126.579 75.0539C127.416 74.5336 130.652 74.7957 128.911 72.7604C128.093 71.8029 126.513 72.0069 126.203 70.3085C125.551 70.3962 125.015 69.9089 124.416 70.0714C124.078 70.1586 123.504 70.7246 123.174 70.9035C122.716 71.1492 122.464 71.0329 121.998 71.474C121.519 71.9237 121.915 72.6687 120.842 72.3854C120.805 73.3845 120.883 73.93 120.19 74.6915C119.654 75.2825 119.117 75.5407 118.725 76.2776C118.445 76.806 117.368 78.3711 117.31 78.9667C117.256 79.5036 118.106 80.823 118.701 80.7769C118.857 80.2941 119.093 79.878 119.518 79.7196C119.761 80.6646 120.813 81.1228 120.578 82.1299C120.463 82.163 120.355 82.1259 120.244 82.1465L120.479 82.0217C119.976 82.0964 119.493 81.2642 119.303 81.3308C118.845 81.4847 119.216 81.9219 119.076 82.2753C118.701 83.1997 118.861 83.287 117.784 83.8324C116.728 84.3653 116.864 84.2445 116.414 85.206C115.993 86.0923 115.911 86.8583 114.743 86.2883C114.586 86.725 114.801 87.4744 114.578 87.899C114.161 88.6856 113.661 88.1322 113.216 88.5232C112.097 89.5098 113.047 90.9375 113.356 91.9156C113.95 92.0945 113.938 91.7782 114.272 91.4619C114.487 91.2538 114.454 90.7089 114.743 90.4758C114.879 90.3675 115.345 90.3464 115.535 90.2467C116.34 89.8181 117.062 88.9107 117.788 88.5402C118.993 87.9196 120.058 88.4319 120.83 89.3433C121.173 89.7474 121.284 90.1925 121.556 90.563C121.668 90.7089 121.684 91.2413 121.87 91.312C122.402 91.5205 122.245 90.7751 122.456 90.767C124.156 90.7129 122.939 91.8494 124.115 92.8064C124.631 93.227 124.767 93.0686 125.068 92.2695C125.44 91.2704 124.994 91.899 124.812 91.0789C124.722 90.6753 124.301 89.5308 125.275 89.4767C125.828 89.4476 126.315 90.7004 126.571 91.0959C126.752 91.3746 127.14 91.8118 127.26 92.1196C127.615 93.056 127.45 92.7151 127.016 93.6055C126.224 93.4726 126.179 94.0802 125.596 94.2592C124.912 94.4758 125.035 94.388 124.342 94.1218C123.731 93.8802 123.736 93.5599 122.963 93.6807C122.369 93.7724 122.048 94.3299 121.416 94.2632C120.314 94.1509 119.786 92.2655 119.01 91.5496C117.615 90.2632 117.214 91.304 116.059 92.099C115.061 92.7939 113.831 93.0606 112.844 93.8015C112.176 94.3008 111.924 94.3299 111.693 95.129C111.503 95.7867 111.833 96.2529 111.462 96.7402C110.69 97.7513 109.142 97.7849 109.906 99.5871C110.075 99.9952 110.475 99.8328 110.64 100.382C110.835 101.04 110.45 101.473 110.731 102.097C111.107 102.946 112.2 104.391 113.121 104.536C114.504 104.757 115.754 103.104 116.852 103.679C117.186 103.854 117.925 104.603 118.25 104.899C118.923 105.502 118.701 105.398 118.952 106.251C119.266 107.317 119.031 108.441 119.307 109.548C119.439 110.081 119.72 110.239 119.918 110.792C120.178 111.496 119.992 112.15 120.124 112.857C120.355 114.073 121.395 115.221 121.882 116.391C122.378 117.573 122.588 118.501 124.107 117.711C124.734 117.382 124.746 116.978 125.159 116.52C125.65 115.979 126.137 115.967 126.657 115.513C127.672 114.63 128.023 113.486 128.114 112.328C128.176 111.525 128.048 111.392 128.671 110.792C129.125 110.364 129.769 110.472 129.963 109.764C130.223 108.807 129.274 107.771 129.625 106.622C129.983 105.448 131.279 104.362 131.948 103.404C132.241 102.98 133.392 100.453 133.038 99.9741C132.41 99.1294 132.146 100.703 131.837 100.765C131.354 100.856 130.991 100.261 130.731 100.012C129.133 98.4923 126.018 97.7513 127.119 94.5048C127.111 94.5339 127.049 94.0511 127.049 94.0386C127.825 94.1509 127.763 94.5795 127.966 95.2167C128.246 96.0865 128.267 96.478 128.873 97.231C129.748 98.3178 130.788 100.07 132.299 99.6453C133.26 99.3751 135.968 98.1679 135.435 96.9442C134.923 95.7787 131.932 95.8574 132.319 94.0637C133.62 93.797 133.838 94.4131 134.639 95.2167C135.394 95.9782 135.947 96.0865 136.867 96.4655C137.833 96.865 137.668 96.8234 138.126 97.814C138.56 98.7545 138.997 98.8713 139.682 99.5871C140.309 100.249 140.285 101.714 140.85 102.222C141.853 103.121 142.014 101.618 142.257 100.894C142.761 99.3996 144.019 97.052 145.868 97.2144C145.65 98.4256 147.074 98.7464 147.296 99.8869C147.412 100.486 147.106 101.248 147.375 101.814C147.688 102.488 148.526 102.268 148.216 103.296C147.585 103.054 146.702 102.193 146.136 101.731C146.426 102.197 146.405 102.963 146.702 103.533C146.834 103.783 147.527 104.541 147.828 104.986C148.444 105.897 149.256 106.643 150.214 107.246C151.365 107.975 152.69 107.825 153.965 108.078C155.286 108.341 155.864 107.808 157.123 107.587C156.685 106.859 154.465 107.317 153.635 107.246C152.884 107.184 152.406 106.813 151.745 106.697C150.998 106.563 150.379 107.133 149.648 106.83C149.698 106.114 150.631 104.191 149.442 104.024C149.376 103.317 149.306 102.992 149.046 102.422C148.778 101.831 148.316 101.489 148.361 100.753C149.95 100.299 149.393 103.354 151.064 101.002C151.621 100.224 151.894 99.9867 151.535 98.9961C151.221 98.1303 150.35 97.8972 151.3 97.2104C151.716 96.9106 153.289 96.8525 153.846 96.6695C155.129 96.2404 155.653 96.1075 155.831 94.8462C156.083 93.0646 155.926 91.3496 154.547 90.2798C156.437 89.1729 156.074 92.5778 157.894 92.286C157.993 91.4955 157.676 90.3755 158.282 89.8426C159.009 89.21 160.267 89.622 161.01 88.7608C161.679 87.9863 161.703 86.8583 162.294 86.0632C162.843 85.3268 163.482 84.6275 163.09 83.495C162.64 82.2046 162.034 82.9997 161.101 82.8914C160.074 82.7791 159.834 82.1505 160.548 81.3308C161.452 80.2941 164.139 79.8986 165.504 79.9613C165.492 80.1693 165.665 80.623 165.653 80.7644C166.375 80.2029 166.226 79.112 166.829 78.721C168.121 77.8843 168.08 79.4244 167.634 80.1613C167.151 80.9519 166.367 81.0767 166.156 82.0507C166 82.7877 166.231 84.1487 166.264 84.9438C166.957 84.7187 167.593 83.3411 168.141 82.6959C168.868 81.8427 168.674 82.3921 168.942 81.189C169.177 80.1237 168.781 80.802 169.508 80.1944C170.255 79.5742 170.882 79.4991 171.753 79.3326C172.875 79.1161 173.697 78.4172 174.679 77.755C174.588 77.0226 173.358 76.3984 174.328 75.9026C175.091 75.5201 175.727 76.5398 176.326 76.7564C176.883 75.9322 177.993 75.2996 178.302 74.338C177.159 73.4763 175.525 74.1004 174.468 72.9725L174.477 72.9639Z" fill="#D9E6FF"/>
<path d="M133.235 70.6415C133.834 70.8541 134.428 70.7247 135.002 70.9995C135.427 71.2035 135.893 71.5785 136.249 71.6908C135.951 71.1744 135.766 70.7749 135.377 70.3588C134.936 69.88 134.552 70.0841 134.412 69.2805C134.305 68.6353 135.254 66.808 135.563 66.3583C135.803 66.0174 136.327 65.5011 136.698 65.2594C137.222 64.914 137.581 65.0183 138.064 64.7516C139.269 64.0984 139.632 61.3677 138.159 62.2004L138.275 62.3207C137.878 64.5481 136.385 63.8442 134.87 64.8599C133.97 65.4595 133.834 66.808 133.322 67.6988C132.703 68.7812 131.576 70.0465 133.231 70.6375L133.235 70.6415Z" fill="#D9E6FF"/>
<path d="M165.769 112.749C165.591 112.382 165.133 112.374 164.968 112.129C164.538 111.48 164.01 110.651 163.676 110.014C163.486 109.656 163.643 109.311 163.396 108.911C163.156 108.532 162.512 108.225 162.19 107.945C162.149 108.499 162.178 109.074 162.145 109.631C161.691 110.01 161.229 109.656 160.659 109.627C161.101 106.759 157.119 109.506 156.429 110.347C155.975 110.901 155.752 111.359 155.146 111.604C154.741 111.767 154.155 111.542 153.738 111.725C152.942 112.079 152.401 113.461 153.718 113.823C153.986 115.159 152.199 116.949 154.196 117.103C155.612 117.211 155.211 116.158 156.219 115.654C156.912 115.305 157.803 115.908 158.418 116.1C159.05 116.295 159.413 116.283 159.945 116.728C160.044 116.812 160.164 117.386 160.412 117.603C160.56 117.735 161.051 117.531 161.266 117.677C161.509 117.844 161.394 118.381 161.699 118.552C162.005 118.726 162.356 118.552 162.632 118.693C163.259 119.018 163.775 119.013 163.672 120.016C163.507 120.016 163.206 120.129 163.106 120.125C164.885 121.594 163.437 117.411 165.091 117.686C165.025 117.378 165.091 116.961 165.108 116.658C166.462 116.175 166.288 115.754 166.037 114.659C165.929 114.193 165.979 113.157 165.777 112.745L165.769 112.749Z" fill="#D9E6FF"/>
<path d="M165.208 117.715C165.167 117.702 165.125 117.698 165.084 117.689C165.084 117.698 165.084 117.706 165.084 117.715H165.204H165.208Z" fill="#D9E6FF"/>
<path d="M162.397 105.635C161.345 104.824 159.979 104.811 158.769 104.149C158.74 105.111 159.693 105.332 160.061 105.843C160.358 106.26 161.068 108.295 161.58 106.714C162.1 107.234 162.665 107.101 163.354 107.209C163.928 107.296 163.804 107.046 164.266 107.342C164.667 107.596 164.613 108.187 165.075 108.412C164.869 107.404 165.017 107.467 164.266 106.938C163.577 106.451 163.086 106.168 162.397 105.64V105.635Z" fill="#D9E6FF"/>
<path d="M158.53 104.021C158.609 104.07 158.688 104.108 158.767 104.149C158.767 104.104 158.759 104.066 158.767 104.021H158.53Z" fill="#D9E6FF"/>
<path d="M132.191 109.647C131.362 110.164 130.747 110.314 130.433 111.346C130.256 111.941 130.074 113.865 131.023 113.806C132.018 113.744 131.882 112.087 131.956 111.475C132.059 110.647 132.67 109.889 132.542 109.027L132.191 109.639V109.647Z" fill="#D9E6FF"/>
<path d="M154.923 102.539C155.583 102.368 156.314 102.439 156.995 102.534C157.11 101.981 156.763 101.727 156.367 101.49C156.875 100.803 156.883 100.42 156.338 99.7706C156.079 99.4542 155.228 99.0587 155.397 98.5469C154.51 98.8216 154.498 100.325 155.711 100.249C155.459 100.99 154.803 101.639 154.927 102.539H154.923Z" fill="#D9E6FF"/>
<path d="M155.723 98.1514C155.538 98.2887 155.439 98.4221 155.397 98.5469C155.431 98.5384 155.459 98.5264 155.492 98.5178L155.728 98.1514H155.723Z" fill="#D9E6FF"/>
<path d="M151.32 103.941C151.419 104.853 152.641 105.523 153.264 106.122C153.548 105.568 154.077 104.778 154.205 104.27C154.382 103.55 153.933 103.063 154.069 102.201C153.437 102.326 153.446 102.834 152.909 103.059C152.529 103.221 152.24 102.855 151.753 103.192C151.753 103.546 151.931 103.488 152.211 103.533H151.861C151.633 103.787 151.869 104.203 151.32 103.941Z" fill="#D9E6FF"/>
<path d="M112.873 83.7907C114.243 82.95 113.331 82.4587 112.873 81.6426L112.638 81.7674C112.799 82.775 111.532 84.6103 112.869 83.7907H112.873Z" fill="#D9E6FF"/>
<path d="M172.458 116.895C172.45 116.537 172.392 116.266 172.083 116.046C171.753 117.37 172.351 118.244 171.645 119.555C171.154 120.47 169.495 121.258 169.788 122.594C171.2 122.189 171.971 120.983 172.929 119.83C173.449 119.197 173.861 118.539 173.375 117.62C173.205 117.291 172.751 117.19 172.462 116.899L172.458 116.895ZM172.367 116.774C172.31 116.695 172.26 116.604 172.231 116.492L172.367 116.774Z" fill="#D9E6FF"/>
<path d="M161.435 88.9855C161.051 89.4101 161.031 89.9801 160.725 90.4463C160.457 90.8669 160.024 90.9752 159.784 91.3953C159.595 91.7287 159.632 92.2405 159.442 92.611C159.269 92.9524 158.81 93.0938 158.637 93.377C158.225 94.0553 158.447 94.8754 157.613 95.3582C157.568 95.5452 157.593 95.7367 157.605 95.9327C159.793 96.0991 158.427 94.8544 159.458 93.6392C159.587 93.4893 160.049 93.7555 160.168 93.6347C160.288 93.5143 160.379 92.9148 160.416 92.8937C161.023 92.4862 161.352 92.5609 162.145 92.5067C162.298 91.7743 161.848 91.5993 161.769 91.0875C161.691 90.5757 161.852 89.943 161.823 89.364C162.335 89.0978 163.102 89.1188 163.54 88.8647C164.134 88.5273 164.114 87.3868 164.848 87.2705L164.142 87.3953C164.006 88.2862 161.972 88.3899 161.427 88.9855H161.435Z" fill="#D9E6FF"/>
<path d="M175.397 98.8721L157.556 98.9011C155.596 98.9137 154.011 100.512 154.003 102.489C154.015 104.466 155.608 106.065 157.568 106.069L175.401 106.044C177.361 106.031 178.946 104.433 178.954 102.456C178.942 100.479 177.357 98.8801 175.397 98.8721Z" fill="#C1C1EF"/>
<path d="M144.841 98.9385L127.008 98.9676C125.048 98.9801 123.463 100.578 123.455 102.555C123.48 104.524 125.068 106.106 127.024 106.11L144.865 106.081C146.813 106.065 148.386 104.474 148.402 102.514C148.39 100.541 146.801 98.9425 144.841 98.9385Z" fill="#C1C1EF"/>
<path d="M114.301 98.9844H96.4602C94.504 99.0009 92.9194 100.6 92.915 102.577C92.9234 104.562 94.5289 106.169 96.4975 106.16L114.338 106.131C116.282 106.107 117.85 104.52 117.867 102.56C117.854 100.587 116.265 98.9884 114.305 98.9844H114.301Z" fill="#C1C1EF"/>
<path d="M83.7574 99.0293L65.9164 99.0584C63.9562 99.0709 62.3717 100.67 62.3632 102.647C62.3881 104.615 63.9766 106.197 65.9288 106.201L83.7699 106.172C85.7176 106.155 87.2942 104.57 87.3146 102.605C87.3022 100.632 85.7137 99.0338 83.7535 99.0293H83.7574Z" fill="#C1C1EF"/>
<path d="M179.066 114.918H64.4471C63.0842 114.918 61.9791 116.032 61.9791 117.407V119.613C61.9791 120.988 63.0842 122.102 64.4471 122.102H179.066C180.429 122.102 181.533 120.988 181.533 119.613V117.407C181.533 116.032 180.429 114.918 179.066 114.918Z" fill="#C1C1EF"/>
<path d="M177.341 58.3998L155.682 58.3291C153.842 58.3246 152.347 59.8235 152.34 61.6799L152.298 74.6418C152.294 76.4982 153.779 78.0046 155.62 78.0131L177.279 78.0838C179.119 78.0878 180.613 76.5894 180.622 74.7331L180.663 61.7711C180.667 59.9148 179.181 58.4083 177.341 58.3998Z" fill="#C1C1EF"/>
</g>
</g>
<g filter="url(#filter1_dd_156_15351)">
<path d="M57.0576 160.18C75.2146 160.18 89.9347 145.325 89.9347 127C89.9347 108.676 75.2146 93.8203 57.0576 93.8203C38.9008 93.8203 24.181 108.676 24.181 127C24.181 145.325 38.9008 160.18 57.0576 160.18Z" fill="#9C9CF0"/>
</g>
<path fill-rule="evenodd" clip-rule="evenodd" d="M55.1749 104.965C57.3418 104.784 59.2543 106.398 59.4336 108.585L60.644 122.716L74.6467 121.495C76.8136 121.314 78.7266 122.928 78.9059 125.114C79.0853 127.301 77.4863 129.232 75.3194 129.413L61.3168 130.634L62.5272 144.751C62.7066 146.937 61.1076 148.868 58.9407 149.049C56.7738 149.23 54.8608 147.616 54.6815 145.429L53.4711 131.313L39.4836 132.535C37.3167 132.716 35.4039 131.102 35.2245 128.915C35.0452 126.728 36.6442 124.797 38.8111 124.616L52.7988 123.395L51.5884 109.263C51.409 107.077 53.008 105.146 55.1749 104.965Z" fill="white"/>
</g>
<defs>
<filter id="filter0_dd_156_15351" x="22.3491" y="41.622" width="194.663" height="139.411" filterUnits="userSpaceOnUse" color-interpolation-filters="sRGB">
<feFlood flood-opacity="0" result="BackgroundImageFix"/>
<feColorMatrix in="SourceAlpha" type="matrix" values="0 0 0 0 0 0 0 0 0 0 0 0 0 0 0 0 0 0 127 0" result="hardAlpha"/>
<feOffset dy="8.61538"/>
<feGaussianBlur stdDeviation="4.30769"/>
<feComposite in2="hardAlpha" operator="out"/>
<feColorMatrix type="matrix" values="0 0 0 0 0.0901961 0 0 0 0 0.219608 0 0 0 0 0.482353 0 0 0 0.03 0"/>
<feBlend mode="normal" in2="BackgroundImageFix" result="effect1_dropShadow_156_15351"/>
<feColorMatrix in="SourceAlpha" type="matrix" values="0 0 0 0 0 0 0 0 0 0 0 0 0 0 0 0 0 0 127 0" result="hardAlpha"/>
<feOffset dy="21.5385"/>
<feGaussianBlur stdDeviation="12.9231"/>
<feComposite in2="hardAlpha" operator="out"/>
<feColorMatrix type="matrix" values="0 0 0 0 0.0902477 0 0 0 0 0.2203 0 0 0 0 0.480404 0 0 0 0.08 0"/>
<feBlend mode="normal" in2="effect1_dropShadow_156_15351" result="effect2_dropShadow_156_15351"/>
<feBlend mode="normal" in="SourceGraphic" in2="effect2_dropShadow_156_15351" result="shape"/>
</filter>
<filter id="filter1_dd_156_15351" x="-1.66523" y="89.5126" width="117.446" height="118.052" filterUnits="userSpaceOnUse" color-interpolation-filters="sRGB">
<feFlood flood-opacity="0" result="BackgroundImageFix"/>
<feColorMatrix in="SourceAlpha" type="matrix" values="0 0 0 0 0 0 0 0 0 0 0 0 0 0 0 0 0 0 127 0" result="hardAlpha"/>
<feOffset dy="8.61538"/>
<feGaussianBlur stdDeviation="4.30769"/>
<feComposite in2="hardAlpha" operator="out"/>
<feColorMatrix type="matrix" values="0 0 0 0 0.0901961 0 0 0 0 0.219608 0 0 0 0 0.482353 0 0 0 0.03 0"/>
<feBlend mode="normal" in2="BackgroundImageFix" result="effect1_dropShadow_156_15351"/>
<feColorMatrix in="SourceAlpha" type="matrix" values="0 0 0 0 0 0 0 0 0 0 0 0 0 0 0 0 0 0 127 0" result="hardAlpha"/>
<feOffset dy="21.5385"/>
<feGaussianBlur stdDeviation="12.9231"/>
<feComposite in2="hardAlpha" operator="out"/>
<feColorMatrix type="matrix" values="0 0 0 0 0.0902477 0 0 0 0 0.2203 0 0 0 0 0.480404 0 0 0 0.08 0"/>
<feBlend mode="normal" in2="effect1_dropShadow_156_15351" result="effect2_dropShadow_156_15351"/>
<feBlend mode="normal" in="SourceGraphic" in2="effect2_dropShadow_156_15351" result="shape"/>
</filter>
<linearGradient id="paint0_linear_156_15351" x1="98.1243" y1="226.838" x2="130.935" y2="-10.6939" gradientUnits="userSpaceOnUse">
<stop stop-color="white"/>
<stop offset="0.1" stop-color="#F6F8FF"/>
<stop offset="0.24" stop-color="#E0E6FF"/>
<stop offset="0.25" stop-color="#DFE5FF"/>
<stop offset="0.26" stop-color="#DFE5FF"/>
<stop offset="0.45" stop-color="#EBEEFF"/>
<stop offset="0.64" stop-color="#EFF2FF"/>
<stop offset="0.82" stop-color="#F3F6FF"/>
<stop offset="1" stop-color="white"/>
</linearGradient>
<linearGradient id="paint1_linear_156_15351" x1="48.1953" y1="89.7894" x2="191.166" y2="89.7894" gradientUnits="userSpaceOnUse">
<stop stop-color="white"/>
<stop offset="0.78" stop-color="#ECEEFF"/>
</linearGradient>
<clipPath id="clip0_156_15351">
<rect width="239" height="191" fill="white" transform="translate(0.166626 0.339844)"/>
</clipPath>
</defs>
</svg>
