<svg width="13" height="13" viewBox="0 0 13 13" fill="none" xmlns="http://www.w3.org/2000/svg">
<path d="M9.66164 2.9063V1.87103C9.66164 1.7813 9.55852 1.73175 9.48887 1.78666L3.45137 6.50228C3.40008 6.54217 3.35857 6.59326 3.33002 6.65163C3.30146 6.71 3.28662 6.77413 3.28662 6.83911C3.28662 6.9041 3.30146 6.96822 3.33002 7.02659C3.35857 7.08497 3.40008 7.13605 3.45137 7.17594L9.48887 11.8916C9.55986 11.9465 9.66164 11.8969 9.66164 11.8072V10.7719C9.66164 10.7063 9.63084 10.6434 9.57995 10.6032L4.75852 6.83978L9.57995 3.07505C9.63084 3.03487 9.66164 2.97192 9.66164 2.9063Z" fill="#C5CEE0"/>
</svg>
