<svg width="15" height="15" viewBox="0 0 15 15" fill="none" xmlns="http://www.w3.org/2000/svg">
<path fill-rule="evenodd" clip-rule="evenodd" d="M12.9166 7.31372V10.2265C12.9166 12.0329 12.9166 12.936 12.4884 13.3307C12.2842 13.5189 12.0264 13.6371 11.7518 13.6686C11.1759 13.7345 10.5035 13.1397 9.1587 11.9502C8.56425 11.4245 8.26702 11.1616 7.92313 11.0923C7.75379 11.0582 7.57946 11.0582 7.41012 11.0923C7.06623 11.1616 6.769 11.4245 6.17455 11.9502C4.82972 13.1397 4.1573 13.7345 3.58149 13.6686C3.30688 13.6371 3.04908 13.5189 2.84485 13.3307C2.41663 12.936 2.41663 12.0329 2.41663 10.2265V7.31372C2.41663 4.81203 2.41663 3.56119 3.18547 2.78401C3.95432 2.00684 5.19175 2.00684 7.66663 2.00684C10.1415 2.00684 11.3789 2.00684 12.1478 2.78401C12.9166 3.56119 12.9166 4.81203 12.9166 7.31372ZM5.47913 4.34017C5.47913 4.09854 5.675 3.90267 5.91663 3.90267H9.41663C9.65825 3.90267 9.85413 4.09854 9.85413 4.34017C9.85413 4.58179 9.65825 4.77767 9.41663 4.77767H5.91663C5.675 4.77767 5.47913 4.58179 5.47913 4.34017Z" fill="white"/>
</svg>
