<svg width="13" height="13" viewBox="0 0 13 13" fill="none" xmlns="http://www.w3.org/2000/svg">
<path d="M9.88593 6.50217L3.84843 1.78654C3.83265 1.77412 3.81369 1.76641 3.79373 1.76427C3.77376 1.76214 3.7536 1.76569 3.73556 1.7745C3.71752 1.78331 3.70233 1.79703 3.69173 1.81409C3.68114 1.83114 3.67557 1.85084 3.67566 1.87092V2.90619C3.67566 2.97181 3.70646 3.03476 3.75736 3.07494L8.57879 6.83967L3.75736 10.6044C3.70512 10.6446 3.67566 10.7075 3.67566 10.7732V11.8084C3.67566 11.8982 3.77879 11.9477 3.84843 11.8928L9.88593 7.17717C9.93724 7.13714 9.97876 7.08594 10.0073 7.02746C10.0359 6.96897 10.0507 6.90475 10.0507 6.83967C10.0507 6.77459 10.0359 6.71037 10.0073 6.65188C9.97876 6.5934 9.93724 6.5422 9.88593 6.50217Z" fill="#101426"/>
</svg>
