<svg width="15" height="15" viewBox="0 0 15 15" fill="none" xmlns="http://www.w3.org/2000/svg">
<g clip-path="url(#clip0_355_5619)">
<path fill-rule="evenodd" clip-rule="evenodd" d="M7.41811 1.22852C3.98398 1.22852 1.20007 4.01242 1.20007 7.44655C1.20007 10.8807 3.98398 13.6646 7.41811 13.6646C8.86515 13.6646 10.1967 13.1703 11.2533 12.3413L13.2097 14.2927C13.4214 14.5038 13.7641 14.5034 13.9752 14.2917C14.1864 14.08 14.1859 13.7373 13.9742 13.5261L12.0444 11.6013C13.034 10.5001 13.6361 9.04364 13.6361 7.44655C13.6361 4.01242 10.8522 1.22852 7.41811 1.22852ZM2.28273 7.44655C2.28273 4.61036 4.58192 2.31117 7.41811 2.31117C10.2543 2.31117 12.5535 4.61036 12.5535 7.44655C12.5535 10.2827 10.2543 12.5819 7.41811 12.5819C4.58192 12.5819 2.28273 10.2827 2.28273 7.44655Z" fill="black" fill-opacity="0.8"/>
</g>
<defs>
<clipPath id="clip0_355_5619">
<rect width="14" height="14" fill="white" transform="translate(0.666626 0.839844)"/>
</clipPath>
</defs>
</svg>
