<svg xmlns="http://www.w3.org/2000/svg" xmlns:xlink="http://www.w3.org/1999/xlink" viewBox="0 0 24 24" fill="none">
<g  clip-path="url(#clip-path-5_5021)">
<path d="M22.15 1L5.25 1C4.78073 1 4.4 1.37405 4.4 1.83L4.4 4.14L1.85 4.14C1.38132 4.14 1 4.51021 1 4.97L1 22.17C1 22.6298 1.38073 23 1.85 23L18.75 23C19.2187 23 19.6 22.6298 19.6 22.17L19.6 19.7L22.15 19.7C22.6187 19.7 23 19.3359 23 18.88L23 1.83C23 1.37405 22.6187 1 22.15 1ZM2.75 5.88L17.74 5.88L17.74 21.21L2.75 21.21L2.75 5.88ZM21.25 18.1L19.58 18.1L19.58 5.1C19.58 4.6336 19.2093 4.25 18.75 4.25L6.26 4.25L6.26 2.74L21.25 2.74L21.25 18.1ZM6.34 9.18C6.15535 8.7279 6.29075 8.364 6.76 8.1C7.22811 7.83546 7.62742 7.9381 7.95 8.41L10.31 12.08L12.74 8.41C13.0293 7.95735 13.4042 7.83431 13.87 8.04C14.3358 8.24625 14.4723 8.63054 14.28 9.18L11.88 12.8L13.87 12.8C14.0745 12.9633 14.18 13.1726 14.18 13.43C14.18 13.6874 14.074 13.8994 13.87 14.06L11.29 14.08L11.29 15.11L13.87 15.11C14.0775 15.2673 14.18 15.4788 14.18 15.74C14.18 16.0013 14.071 16.2116 13.87 16.37L11.29 16.37L11.29 19.02C11.3403 19.7768 11.0172 20.1652 10.33 20.18C9.64215 20.1948 9.3113 19.8071 9.33 19.02L9.33 16.37L6.76 16.37C6.4941 16.2369 6.37 16.0271 6.37 15.74C6.37 15.4529 6.49467 15.2414 6.76 15.11L9.33 15.11L9.31 14.06L6.76 14.06C6.50463 13.8956 6.37 13.6836 6.37 13.43C6.35948 13.1759 6.48534 12.9667 6.76 12.8L8.74 12.8L6.34 9.18Z"   fill="#858C94" >
</path>
<rect x="2" y="5" width="16" height="17"   fill="#858C94" >
</rect>
<path d="M6.07897 9.21599C5.89669 8.77265 6.03036 8.41579 6.49359 8.1569C6.95569 7.89749 7.34989 7.99813 7.66833 8.4609L9.99808 12.0598L12.3969 8.4609C12.6825 8.01701 13.0527 7.89635 13.5124 8.09806C13.9722 8.30032 14.107 8.67717 13.9172 9.21599L11.5479 12.7659L13.5124 12.7659C13.7143 12.9261 13.8185 13.1313 13.8185 13.3837C13.8185 13.6361 13.7138 13.844 13.5124 14.0015L10.9655 14.0211L10.9655 15.0312L13.5124 15.0312C13.7172 15.1854 13.8185 15.3928 13.8185 15.649C13.8185 15.9052 13.7109 16.1115 13.5124 16.2668L10.9655 16.2668L10.9655 18.8655C11.0151 19.6076 10.6962 19.9885 10.0178 20.003C9.33879 20.0176 9.01218 19.6373 9.03064 18.8655L9.03064 16.2668L6.49359 16.2668C6.2311 16.1363 6.10859 15.9305 6.10859 15.649C6.10859 15.3675 6.23166 15.1601 6.49359 15.0312L9.03064 15.0312L9.0109 14.0015L6.49359 14.0015C6.24149 13.8403 6.10859 13.6324 6.10859 13.3837C6.0982 13.1345 6.22245 12.9293 6.49359 12.7659L8.4482 12.7659L6.07897 9.21599Z"   fill="#FFFFFF" >
</path>
</g>
<defs>
<clipPath id="clip-path-5_5021">
<path d="M24 24L0 24L0 0L24 0L24 24Z" fill="white"/>
</clipPath>
</defs>
</svg>
