<svg xmlns="http://www.w3.org/2000/svg" xmlns:xlink="http://www.w3.org/1999/xlink" width="22" height="20" viewBox="0 0 22 20" fill="none">
<path d="M9.25635 0.00632811C9.17522 0.00289948 9.09407 0.00118436 9.0129 0.00118295L9.01171 0C8.93042 5.69353e-05 8.84918 0.00183128 8.76798 0.00532319C8.68676 0.00881335 8.60566 0.0140188 8.52469 0.0209392C8.4437 0.027858 8.3629 0.0364861 8.28228 0.0468228C8.20166 0.057158 8.1213 0.0691923 8.04122 0.0829254C7.96109 0.0966585 7.88133 0.112077 7.8019 0.129182C7.72245 0.146288 7.64341 0.165065 7.56476 0.185512C7.48612 0.20596 7.40794 0.228059 7.33025 0.25181C7.25254 0.275563 7.17538 0.300945 7.09878 0.327959C7.02218 0.354974 6.94619 0.383593 6.8708 0.413814C6.79541 0.44405 6.72069 0.475855 6.64667 0.509234C6.57262 0.542626 6.49932 0.57756 6.42681 0.614034C6.35425 0.650522 6.28253 0.688522 6.21162 0.72803C6.14069 0.767554 6.07067 0.808555 6.0015 0.851036C5.93233 0.893502 5.86412 0.937416 5.79683 0.982776Q5.69587 1.05082 5.59797 1.12306C5.53266 1.17123 5.46844 1.22076 5.40527 1.27165C5.34209 1.32252 5.28003 1.37471 5.21909 1.4282C5.15814 1.48171 5.09836 1.53648 5.03979 1.59252C4.98116 1.64854 4.9238 1.70577 4.86764 1.76423C4.81147 1.8227 4.75659 1.88231 4.70299 1.94308C4.64936 2.00386 4.59708 2.06574 4.54612 2.12874C4.49514 2.19172 4.44553 2.25575 4.39731 2.32083C4.34907 2.38592 4.30225 2.452 4.25684 2.51907C4.21143 2.58612 4.16749 2.65411 4.12499 2.72303C4.08248 2.79195 4.04147 2.86175 4.00194 2.9324C3.96241 3.00305 3.92441 3.07451 3.88794 3.14678C3.85148 3.21903 3.81657 3.29202 3.78322 3.36576C3.74987 3.43951 3.71809 3.51391 3.68795 3.589C3.65775 3.66409 3.62921 3.73977 3.60227 3.81606C3.57532 3.89233 3.55003 3.96915 3.52639 4.04653C3.50272 4.12388 3.48072 4.2017 3.4604 4.28C3.44006 4.35827 3.42141 4.43694 3.40445 4.51603C3.38747 4.59509 3.37219 4.6745 3.35863 4.75423C3.34504 4.83394 3.33317 4.9139 3.32302 4.99414C3.31285 5.07436 3.30439 5.15476 3.29768 5.23535C3.29095 5.31592 3.28595 5.3966 3.28268 5.47739C3.27938 5.55819 3.27782 5.639 3.27801 5.71987C3.27819 5.80073 3.2801 5.88155 3.28372 5.96232C3.28735 6.0431 3.29269 6.12375 3.29977 6.20432C3.30683 6.28486 3.31563 6.36521 3.32613 6.44541C3.33663 6.52558 3.34885 6.6055 3.36278 6.68516C3.3767 6.76482 3.3923 6.84414 3.40963 6.92315C3.42693 7.00215 3.44591 7.08075 3.46658 7.15896C3.48725 7.23714 3.50957 7.31489 3.53359 7.39215C3.55756 7.46941 3.5832 7.54611 3.61046 7.62229C3.63773 7.69844 3.6666 7.77401 3.6971 7.84896C3.72759 7.92391 3.75967 7.99819 3.79334 8.0718C3.827 8.14539 3.86223 8.21823 3.89902 8.29034C3.93579 8.36243 3.97409 8.43373 4.01392 8.50422C4.05373 8.57471 4.09505 8.64432 4.13788 8.71306C4.18066 8.78179 4.22491 8.8496 4.27061 8.91649C4.3163 8.98335 4.3634 9.04922 4.41192 9.1141C4.46042 9.17897 4.5103 9.24279 4.56156 9.30556C4.6128 9.36833 4.66534 9.43 4.71922 9.49053C4.77308 9.55107 4.82822 9.61047 4.88464 9.66869C4.94103 9.72691 4.99868 9.78391 5.05753 9.83968C5.11636 9.89546 5.17638 9.94996 5.23755 10.0032C5.29873 10.0564 5.361 10.1084 5.42441 10.159C5.48779 10.2096 5.55224 10.2588 5.61774 10.3067C5.68324 10.3546 5.74971 10.4011 5.8172 10.4462C5.88467 10.4912 5.9531 10.5349 6.02245 10.5771C6.09178 10.6192 6.16199 10.6599 6.23309 10.6992C6.30416 10.7384 6.37606 10.776 6.44876 10.8122C6.52146 10.8484 6.59487 10.883 6.66906 10.9161C2.04796 12.9448 -1.85964 19.9975 0.940841 19.9998L16.7853 19.9998C20.1613 19.9998 16.0694 12.9212 11.3805 10.9078C11.4545 10.8745 11.5277 10.8396 11.6001 10.8032C11.6726 10.7668 11.7443 10.7288 11.8151 10.6894C11.8859 10.65 11.9559 10.6091 12.025 10.5667C12.0941 10.5243 12.1623 10.4804 12.2295 10.4351C12.2967 10.3899 12.3629 10.3432 12.4282 10.2951C12.4934 10.2471 12.5576 10.1976 12.6207 10.1469C12.6838 10.0961 12.7458 10.044 12.8067 9.99058C12.8676 9.93718 12.9274 9.88252 12.9859 9.82661C13.0445 9.77067 13.1019 9.71353 13.158 9.6552C13.2141 9.59686 13.269 9.53736 13.3226 9.47669C13.3762 9.41602 13.4284 9.35426 13.4794 9.29142C13.5304 9.22853 13.5799 9.16463 13.6282 9.09966C13.6764 9.03469 13.7232 8.96875 13.7687 8.90182C13.8141 8.83486 13.858 8.767 13.9006 8.69822C13.9431 8.62942 13.9841 8.55976 14.0237 8.48925C14.0632 8.41871 14.1012 8.34739 14.1377 8.27526C14.1742 8.20312 14.2092 8.13025 14.2426 8.05664C14.276 7.98303 14.3078 7.90875 14.338 7.8338C14.3682 7.75885 14.3968 7.68328 14.4238 7.60713C14.4508 7.53096 14.4762 7.45425 14.4999 7.37704C14.5237 7.2998 14.5457 7.2221 14.5661 7.14396C14.5865 7.06578 14.6053 6.98722 14.6223 6.90828C14.6394 6.82931 14.6548 6.75004 14.6684 6.67044C14.6821 6.59083 14.6941 6.51098 14.7044 6.43087C14.7146 6.35075 14.7232 6.27046 14.73 6.19001C14.7369 6.10954 14.742 6.02896 14.7454 5.94828C14.7488 5.8676 14.7505 5.78687 14.7505 5.70612C14.7504 5.62535 14.7487 5.54465 14.7452 5.46397C14.7417 5.38326 14.7365 5.30268 14.7296 5.22223C14.7227 5.14176 14.714 5.06147 14.7037 4.98139C14.6933 4.90129 14.6813 4.82144 14.6675 4.74187C14.6538 4.66228 14.6383 4.58301 14.6212 4.50408C14.6041 4.42514 14.5853 4.34658 14.5648 4.26844C14.5443 4.19031 14.5221 4.11263 14.4983 4.03541C14.4745 3.9582 14.4491 3.88154 14.422 3.80541C14.3949 3.72926 14.3663 3.65373 14.336 3.57883C14.3057 3.5039 14.2738 3.42965 14.2403 3.35608C14.2069 3.2825 14.1718 3.20965 14.1353 3.13756C14.0987 3.06546 14.0606 2.99416 14.021 2.92369C13.9814 2.85318 13.9403 2.78356 13.8977 2.71483C13.8551 2.64607 13.8111 2.57824 13.7656 2.51135C13.7201 2.44444 13.6732 2.37855 13.6249 2.31363C13.5766 2.24871 13.527 2.18484 13.476 2.12202C13.425 2.0592 13.3726 1.99749 13.319 1.93688C13.2653 1.87628 13.2104 1.81683 13.1542 1.75854C13.098 1.70025 13.0406 1.64316 12.982 1.5873C12.9234 1.53143 12.8636 1.47683 12.8026 1.42349C12.7417 1.37015 12.6796 1.31812 12.6164 1.2674C12.5533 1.21668 12.489 1.16731 12.4238 1.1193C12.3585 1.07129 12.2922 1.02468 12.2249 0.979472C12.1577 0.93425 12.0895 0.890475 12.0203 0.848148C11.9512 0.805821 11.8812 0.764973 11.8103 0.725604C11.7394 0.686218 11.6678 0.648351 11.5953 0.612001C11.5228 0.575651 11.4495 0.540847 11.3756 0.507593C11.3016 0.474339 11.2269 0.442664 11.1516 0.412566C11.0762 0.382454 11.0003 0.353953 10.9238 0.327062C10.8472 0.300167 10.7701 0.274895 10.6925 0.251253C10.6149 0.227611 10.5368 0.205618 10.4582 0.185272C10.3796 0.164928 10.3007 0.146251 10.2213 0.12924C10.142 0.112229 10.0623 0.0969011 9.98228 0.0832558C9.90224 0.0696105 9.82197 0.0576594 9.74147 0.0474028C9.66092 0.0371461 9.58021 0.0285934 9.49934 0.0217456C9.41845 0.0148959 9.33746 0.00975676 9.25635 0.00632811Z" fill-rule="evenodd"  fill="#0054FE" >
</path>
<path    stroke="rgba(51, 214, 192, 1)" stroke-width="2"  stroke-linecap="round"  d="M9.1167 13.8018L9.1167 17.7446">
</path>
<path d="M16.3071 0.979766C19.261 3.23326 19.2491 7.05531 17.243 9.3301C20.8521 12.7523 22.4467 15.9368 21.8926 18.9106C21.8898 18.9266 21.8865 18.9424 21.8828 18.9582C21.8792 18.974 21.8751 18.9897 21.8707 19.0052C21.8662 19.0208 21.8614 19.0363 21.8562 19.0516C21.851 19.0669 21.8454 19.0821 21.8395 19.0972C21.8335 19.1122 21.8272 19.1271 21.8205 19.1419C21.8138 19.1567 21.8068 19.1712 21.7993 19.1856C21.7919 19.2001 21.7842 19.2143 21.776 19.2283C21.7679 19.2423 21.7594 19.2561 21.7506 19.2698C21.7418 19.2834 21.7327 19.2968 21.7232 19.3099C21.7138 19.3231 21.704 19.336 21.6938 19.3487C21.6837 19.3614 21.6733 19.3738 21.6626 19.386C21.6519 19.3981 21.6409 19.4101 21.6296 19.4217C21.6182 19.4333 21.6066 19.4447 21.5948 19.4557C21.5829 19.4668 21.5708 19.4776 21.5583 19.488C21.5459 19.4985 21.5333 19.5087 21.5204 19.5185C21.5074 19.5284 21.4943 19.5379 21.4809 19.5471C21.4675 19.5563 21.4539 19.5652 21.4401 19.5737C21.4263 19.5822 21.4122 19.5904 21.398 19.5983C21.3838 19.6061 21.3694 19.6136 21.3548 19.6208C21.3401 19.6279 21.3254 19.6347 21.3104 19.6411C21.2955 19.6475 21.2804 19.6536 21.2652 19.6593C21.2499 19.6649 21.2346 19.6702 21.2191 19.6752C21.2036 19.6801 21.1879 19.6847 21.1722 19.6888C21.1565 19.693 21.1407 19.6967 21.1248 19.7001C21.1089 19.7035 21.0929 19.7065 21.0768 19.7091C21.0608 19.7117 21.0446 19.7139 21.0285 19.7157C21.0123 19.7175 20.9961 19.7189 20.9799 19.72C20.9636 19.721 20.9474 19.7216 20.9311 19.7218C20.9148 19.722 20.8985 19.7218 20.8823 19.7213C20.866 19.7207 20.8498 19.7197 20.8336 19.7183C20.8174 19.717 20.8012 19.7152 20.7851 19.713C20.7689 19.7109 20.7529 19.7083 20.7369 19.7054C20.7209 19.7024 20.705 19.699 20.6891 19.6953C20.6733 19.6916 20.6576 19.6875 20.6419 19.683C20.6263 19.6785 20.6108 19.6736 20.5954 19.6683C20.58 19.663 20.5648 19.6574 20.5497 19.6514C20.5346 19.6454 20.5196 19.639 20.5048 19.6323C20.49 19.6255 20.4754 19.6184 20.461 19.611C20.4465 19.6035 20.4323 19.5957 20.4182 19.5875C20.4042 19.5793 20.3903 19.5708 20.3767 19.562C20.3631 19.5532 20.3497 19.544 20.3365 19.5345C20.3233 19.525 20.3104 19.5152 20.2977 19.5051C20.285 19.4949 20.2726 19.4845 20.2604 19.4738C20.2482 19.463 20.2363 19.452 20.2247 19.4407C20.2131 19.4294 20.2017 19.4178 20.1907 19.4059C20.1796 19.394 20.1689 19.3818 20.1584 19.3694C20.148 19.357 20.1378 19.3444 20.128 19.3315C20.1182 19.3186 20.1087 19.3054 20.0995 19.2921C20.0903 19.2787 20.0815 19.2651 20.073 19.2513C20.0645 19.2375 20.0563 19.2235 20.0485 19.2093C20.0407 19.1951 20.0333 19.1807 20.0262 19.1661C20.0191 19.1516 20.0124 19.1368 20.006 19.122C19.9996 19.107 19.9936 19.092 19.988 19.0768C19.9824 19.0616 19.9772 19.0463 19.9723 19.0309C19.9674 19.0154 19.963 18.9999 19.9589 18.9842C19.9548 18.9685 19.9511 18.9528 19.9478 18.9369C19.9445 18.9211 19.9415 18.9051 19.939 18.8892C19.9365 18.8732 19.9344 18.8571 19.9327 18.841C19.9309 18.8249 19.9296 18.8088 19.9287 18.7926C19.9278 18.7765 19.9272 18.7603 19.9271 18.7441C19.927 18.7279 19.9272 18.7118 19.9279 18.6956C19.9286 18.6794 19.9297 18.6633 19.9311 18.6472C19.9326 18.631 19.9345 18.615 19.9368 18.5989C19.939 18.5829 19.9417 18.5669 19.9448 18.551C20.3824 16.1994 18.8341 13.3627 15.1322 10.0753C15.1179 10.0627 15.104 10.0496 15.0905 10.0361C15.077 10.0227 15.0638 10.0088 15.0511 9.99459C15.0384 9.98036 15.0261 9.96578 15.0142 9.95086C15.0023 9.93593 14.9909 9.92066 14.9799 9.90509C14.9689 9.88947 14.9584 9.87357 14.9484 9.8574C14.9383 9.84118 14.9287 9.82471 14.9196 9.80796C14.9105 9.79121 14.9019 9.7742 14.8938 9.75697C14.8857 9.73971 14.8781 9.72224 14.871 9.70457C14.8639 9.68687 14.8574 9.66901 14.8513 9.65094C14.8453 9.63288 14.8397 9.61465 14.8348 9.59628C14.8298 9.57789 14.8253 9.55936 14.8214 9.54074C14.8175 9.52209 14.8141 9.50335 14.8113 9.48455C14.8085 9.46569 14.8062 9.44679 14.8045 9.42785C14.8028 9.40888 14.8017 9.38989 14.8011 9.37085C14.8004 9.35181 14.8004 9.3328 14.8009 9.31376C14.8014 9.29472 14.8024 9.27571 14.8041 9.25674C14.8057 9.23777 14.8078 9.21887 14.8105 9.20002C14.8132 9.18117 14.8165 9.16241 14.8203 9.14376C14.8241 9.12509 14.8284 9.10654 14.8333 9.08815C14.8382 9.06973 14.8436 9.05148 14.8496 9.03339C14.8555 9.01528 14.862 8.99737 14.869 8.97965C14.876 8.96193 14.8835 8.94442 14.8915 8.92714C14.8995 8.90983 14.908 8.89278 14.917 8.87598C14.926 8.85919 14.9355 8.84267 14.9455 8.8264C14.9554 8.81014 14.9659 8.7942 14.9768 8.77855C14.9877 8.76289 14.999 8.74757 15.0108 8.73258C15.0226 8.71756 15.0348 8.70291 15.0474 8.68863C15.0601 8.67433 15.0731 8.66042 15.0866 8.64688C15.1001 8.63334 15.1139 8.6202 15.1281 8.60744C15.1423 8.59469 15.1569 8.58238 15.1718 8.57048C15.1868 8.55856 15.2021 8.5471 15.2177 8.5361C15.2333 8.52505 15.2492 8.5145 15.2654 8.5044L15.3177 8.44881L15.376 8.39676C17.0396 7.00799 17.2394 4.17605 15.1001 2.54477C15.0872 2.53496 15.0746 2.52484 15.0622 2.51441C15.0499 2.50398 15.0378 2.49326 15.0259 2.48223C15.0141 2.4712 15.0025 2.45989 14.9912 2.44831C14.9799 2.43673 14.9689 2.42487 14.9582 2.41273C14.9475 2.40061 14.9371 2.38823 14.927 2.3756C14.917 2.36297 14.9072 2.3501 14.8977 2.337C14.8883 2.32389 14.8791 2.31055 14.8703 2.29698C14.8615 2.28342 14.8531 2.26966 14.845 2.25569C14.8369 2.24174 14.8291 2.22758 14.8217 2.21323C14.8142 2.19887 14.8072 2.18435 14.8005 2.16968C14.7938 2.15498 14.7874 2.14013 14.7815 2.12513C14.7755 2.11013 14.7699 2.09499 14.7647 2.07971C14.7595 2.06443 14.7546 2.04903 14.7502 2.03352C14.7457 2.01801 14.7416 2.0024 14.7379 1.98669C14.7342 1.97098 14.7309 1.95518 14.728 1.9393C14.7251 1.92344 14.7226 1.9075 14.7205 1.8915C14.7183 1.87551 14.7166 1.85948 14.7153 1.8434C14.7139 1.82732 14.713 1.81122 14.7125 1.79509C14.7119 1.77896 14.7118 1.76283 14.712 1.74669C14.7123 1.73056 14.713 1.71444 14.714 1.69833C14.7151 1.68223 14.7165 1.66617 14.7183 1.65013C14.7202 1.63411 14.7224 1.61814 14.7251 1.60222C14.7277 1.58629 14.7307 1.57044 14.7341 1.55467C14.7375 1.53889 14.7413 1.52321 14.7455 1.50763C14.7497 1.49204 14.7543 1.47657 14.7592 1.46121C14.7642 1.44584 14.7695 1.4306 14.7753 1.41551C14.7809 1.4004 14.787 1.38544 14.7935 1.37064C14.7999 1.35582 14.8067 1.34118 14.8139 1.3267C14.821 1.31224 14.8286 1.29795 14.8364 1.28384C14.8443 1.26973 14.8525 1.25582 14.8611 1.24211C14.8696 1.2284 14.8785 1.21491 14.8878 1.20164C14.897 1.18837 14.9065 1.17533 14.9164 1.16252C14.9263 1.14972 14.9364 1.13717 14.9469 1.12486C14.9574 1.11254 14.9682 1.10049 14.9793 1.08873C14.9904 1.07694 15.0017 1.06544 15.0134 1.05421C15.025 1.04298 15.0369 1.03204 15.0491 1.0214C15.0613 1.01074 15.0738 1.0004 15.0865 0.99037C15.0992 0.980328 15.1121 0.970601 15.1253 0.96119C15.1384 0.951794 15.1518 0.942722 15.1655 0.933973C15.1791 0.925209 15.1929 0.916792 15.207 0.90872C15.221 0.90065 15.2353 0.892925 15.2497 0.885547C15.2641 0.878169 15.2787 0.871146 15.2935 0.864476C15.3082 0.857807 15.3232 0.851499 15.3382 0.845554C15.3533 0.839624 15.3685 0.834056 15.3839 0.82885C15.3993 0.823659 15.4147 0.818845 15.4303 0.81441C15.4459 0.809974 15.4616 0.805915 15.4774 0.802234C15.4932 0.798568 15.5091 0.795287 15.5251 0.792391C15.541 0.789495 15.557 0.786985 15.5731 0.784859C15.5892 0.782749 15.6053 0.781032 15.6215 0.779707C15.6376 0.778382 15.6538 0.777451 15.67 0.776911C15.6862 0.776372 15.7025 0.776234 15.7187 0.776496C15.7349 0.776742 15.7511 0.777389 15.7673 0.778436C15.7835 0.779484 15.7996 0.780924 15.8157 0.782757C15.8319 0.78459 15.8479 0.786815 15.8639 0.789434C15.8799 0.792052 15.8959 0.795064 15.9117 0.798468C15.9276 0.801872 15.9433 0.805653 15.959 0.809812C15.9747 0.813986 15.9902 0.818538 16.0057 0.823466C16.0211 0.82838 16.0364 0.833678 16.0516 0.839362C16.0668 0.84503 16.0818 0.851068 16.0967 0.857476C16.1116 0.863899 16.1263 0.870668 16.1409 0.877784C16.1554 0.884916 16.1698 0.892401 16.184 0.900241C16.1982 0.908066 16.2121 0.916237 16.2259 0.924755C16.2397 0.933257 16.2533 0.942098 16.2666 0.951278C16.2799 0.960458 16.293 0.969954 16.3059 0.979766L16.3071 0.979766Z"   fill="#0054FE" >
</path>
</svg>
