<svg xmlns="http://www.w3.org/2000/svg" xmlns:xlink="http://www.w3.org/1999/xlink" width="22" height="22" viewBox="0 0 22 22" fill="none">
<path d="M20.5236 13.0216L17.7345 13.0216L17.7345 12.5547C17.7342 12.5208 17.7332 12.487 17.7314 12.4532C17.7295 12.4194 17.7268 12.3856 17.7233 12.352C17.7198 12.3183 17.7155 12.2847 17.7104 12.2513C17.7053 12.2178 17.6993 12.1845 17.6926 12.1513C17.6858 12.1181 17.6783 12.0851 17.6699 12.0523C17.6616 12.0195 17.6524 11.9869 17.6425 11.9545C17.6326 11.9222 17.6219 11.8901 17.6104 11.8582C17.5989 11.8264 17.5866 11.7948 17.5736 11.7636C17.5606 11.7323 17.5468 11.7014 17.5323 11.6708C17.5177 11.6402 17.5025 11.61 17.4865 11.5802C17.4705 11.5504 17.4538 11.5209 17.4364 11.4919C17.419 11.4629 17.4008 11.4343 17.382 11.4061C17.3632 11.378 17.3437 11.3503 17.3236 11.3231C17.3034 11.2959 17.2826 11.2692 17.2612 11.243C17.2397 11.2168 17.2176 11.1911 17.1949 11.166C17.1722 11.1409 17.1489 11.1164 17.1251 11.0923C17.1012 11.0683 17.0767 11.045 17.0517 11.0222C17.0266 10.9994 17.0011 10.9772 16.975 10.9556C16.9489 10.9341 16.9223 10.9132 16.8951 10.8929C16.868 10.8726 16.8404 10.853 16.8124 10.8341C16.7843 10.8152 16.7558 10.7969 16.7268 10.7794C16.6978 10.7618 16.6685 10.745 16.6387 10.7289C16.6089 10.7128 16.5788 10.6974 16.5483 10.6827C16.5178 10.6681 16.4869 10.6542 16.4557 10.641C16.4245 10.6279 16.393 10.6155 16.3612 10.6039C16.3294 10.5922 16.2973 10.5814 16.265 10.5713C16.2327 10.5613 16.2001 10.552 16.1674 10.5435C16.1346 10.535 16.1016 10.5273 16.0685 10.5205C16.0353 10.5136 16.002 10.5075 15.9686 10.5022C15.9351 10.497 15.9016 10.4925 15.8679 10.4889C15.8342 10.4853 15.8005 10.4824 15.7667 10.4804C15.7329 10.4784 15.6991 10.4772 15.6652 10.4769C14.8879 10.4696 14.1106 10.4769 13.3345 10.4769L11.5733 10.4769L11.5733 8.97844L14.0434 8.97844C14.0675 8.97851 14.0917 8.97798 14.1159 8.97685C14.14 8.97572 14.1641 8.97402 14.1882 8.97168C14.2123 8.96937 14.2363 8.96649 14.2602 8.96297C14.2841 8.95948 14.3079 8.95542 14.3317 8.95075C14.3554 8.94608 14.379 8.94084 14.4025 8.93501C14.4259 8.92918 14.4492 8.92279 14.4724 8.9158C14.4956 8.90882 14.5185 8.90129 14.5413 8.89319C14.5641 8.88509 14.5867 8.87643 14.609 8.8672C14.6314 8.85799 14.6535 8.84824 14.6754 8.83795C14.6973 8.82765 14.7189 8.81681 14.7402 8.80547C14.7615 8.79409 14.7826 8.7822 14.8034 8.76982C14.8241 8.75742 14.8446 8.74451 14.8647 8.73111C14.8848 8.71771 14.9046 8.70383 14.9241 8.68945C14.9435 8.67507 14.9626 8.66022 14.9813 8.64491C15 8.6296 15.0183 8.61384 15.0363 8.59761C15.0542 8.58139 15.0717 8.56475 15.0889 8.54767C15.106 8.53059 15.1227 8.51311 15.1389 8.49522C15.1552 8.47732 15.171 8.45904 15.1864 8.44033C15.2017 8.42167 15.2166 8.40264 15.231 8.38323C15.2455 8.36382 15.2594 8.34407 15.2729 8.32397C15.2863 8.30386 15.2993 8.28345 15.3117 8.26272C15.3242 8.24199 15.3361 8.22097 15.3475 8.19965C15.3589 8.17834 15.3698 8.15677 15.3802 8.13493C15.3905 8.11305 15.4003 8.09096 15.4096 8.06864C15.4188 8.0463 15.4276 8.02374 15.4357 8.00099C15.4439 7.97823 15.4515 7.95528 15.4585 7.93212C15.4656 7.90901 15.472 7.8857 15.4779 7.86223C15.4838 7.83878 15.4891 7.81519 15.4938 7.79147C15.4985 7.76777 15.5027 7.74396 15.5062 7.72006C15.5098 7.69611 15.5127 7.67212 15.5151 7.64806C15.5175 7.624 15.5193 7.59989 15.5205 7.57571C15.5216 7.55158 15.5223 7.52743 15.5223 7.50326L15.5223 1.47401C15.5222 1.44984 15.5216 1.42568 15.5204 1.40156C15.5192 1.37741 15.5174 1.35331 15.515 1.32926C15.5126 1.3052 15.5096 1.28123 15.5061 1.25732C15.5025 1.23342 15.4983 1.20963 15.4936 1.18593C15.4889 1.16223 15.4835 1.13866 15.4776 1.11522C15.4718 1.09179 15.4653 1.06851 15.4582 1.04538C15.4512 1.02226 15.4436 0.999332 15.4354 0.976586C15.4273 0.95384 15.4185 0.931307 15.4093 0.90899C15.4 0.886673 15.3901 0.864598 15.3798 0.842761C15.3694 0.820927 15.3585 0.79936 15.3471 0.778061C15.3357 0.756762 15.3238 0.735755 15.3113 0.715041C15.2988 0.694329 15.2859 0.673935 15.2724 0.653858C15.259 0.633781 15.245 0.614049 15.2306 0.59466C15.2162 0.575268 15.2013 0.556243 15.1859 0.537584C15.1705 0.518927 15.1547 0.500655 15.1385 0.482773C15.1222 0.464892 15.1055 0.447418 15.0884 0.430358C15.0713 0.413297 15.0538 0.396665 15.0359 0.380466C15.0179 0.364267 14.9996 0.348517 14.9809 0.333217C14.9622 0.317916 14.9431 0.303087 14.9237 0.288725C14.9042 0.274363 14.8844 0.260486 14.8643 0.247097C14.8442 0.233706 14.8238 0.220818 14.803 0.208433C14.7823 0.196048 14.7612 0.18418 14.7399 0.172829C14.7185 0.161478 14.6969 0.150657 14.6751 0.140367C14.6532 0.130078 14.6311 0.120332 14.6087 0.111129C14.5864 0.101926 14.5638 0.0932781 14.5411 0.0851851C14.5183 0.0770906 14.4953 0.0695608 14.4722 0.0625957C14.449 0.0556304 14.4257 0.0492375 14.4023 0.0434168C14.3788 0.0375962 14.3552 0.0323553 14.3315 0.0276943C14.3078 0.0230331 14.284 0.0189572 14.2601 0.0154663C14.2362 0.0119769 14.2122 0.00907641 14.1881 0.0067647C14.1641 0.00445309 14.1399 0.00273335 14.1158 0.00160553C14.0917 0.000479177 14.0675 -5.45011e-05 14.0434 4.412e-06L8.01412 4.412e-06C7.99 -1.52257e-05 7.96587 0.000557815 7.94176 0.00172344C7.91765 0.00288752 7.89359 0.00464359 7.86958 0.00699153C7.84554 0.00933793 7.82159 0.0122732 7.79771 0.0157973C7.77383 0.01932 7.75006 0.023427 7.72639 0.0281182C7.70271 0.0328096 7.67915 0.03808 7.65574 0.0439295C7.63232 0.0497773 7.60905 0.0561967 7.58596 0.0631876C7.56286 0.0701784 7.53995 0.0777317 7.51723 0.0858475C7.4945 0.0939646 7.47198 0.102634 7.44967 0.111857C7.42735 0.121079 7.40529 0.130844 7.38347 0.14115C7.36166 0.151456 7.34009 0.162292 7.31882 0.173656C7.2975 0.185023 7.2765 0.196904 7.2558 0.209299C7.23509 0.221697 7.2147 0.234595 7.19463 0.247995C7.17454 0.261393 7.15481 0.275277 7.13542 0.289645C7.11603 0.304012 7.097 0.318848 7.07834 0.334151C7.05968 0.349454 7.0414 0.365206 7.0235 0.381407C7.00561 0.397608 6.98813 0.414238 6.97105 0.431299C6.95397 0.448357 6.93733 0.465826 6.92114 0.483703C6.9049 0.50158 6.88914 0.519845 6.87383 0.538495C6.8585 0.557148 6.84365 0.576163 6.82927 0.595546C6.81489 0.614927 6.80099 0.63465 6.78756 0.654713C6.77414 0.674776 6.76123 0.695159 6.74883 0.715858C6.7364 0.736556 6.72452 0.757546 6.71313 0.77883C6.70175 0.800113 6.69089 0.821662 6.68057 0.843478C6.67023 0.865294 6.66045 0.887351 6.65122 0.909648C6.64197 0.931945 6.63329 0.954455 6.62517 0.977178C6.61702 0.999901 6.60945 1.02281 6.60244 1.0459C6.59541 1.069 6.58897 1.09226 6.58312 1.11568C6.57725 1.13908 6.57196 1.16262 6.56725 1.1863C6.56253 1.20997 6.5584 1.23375 6.55486 1.25762C6.55133 1.28149 6.54836 1.30544 6.546 1.32946C6.54364 1.35347 6.54187 1.37753 6.54069 1.40165C6.53949 1.42575 6.5389 1.44987 6.5389 1.47401L6.5389 7.50446C6.5389 7.52859 6.53949 7.55272 6.54069 7.5768C6.54187 7.60093 6.54364 7.62499 6.546 7.64903C6.54836 7.67303 6.55133 7.69697 6.55486 7.72085C6.5584 7.74473 6.56253 7.7685 6.56725 7.79215C6.57196 7.81585 6.57725 7.83939 6.58312 7.86279C6.58897 7.8862 6.59541 7.90947 6.60244 7.93257C6.60945 7.95566 6.61702 7.97854 6.62517 8.00129C6.63329 8.02399 6.64197 8.04651 6.65122 8.0688C6.66045 8.09112 6.67023 8.11316 6.68057 8.13498C6.69089 8.15681 6.70175 8.17836 6.71313 8.19965C6.72452 8.22093 6.7364 8.2419 6.74883 8.26261C6.76123 8.28331 6.77414 8.3037 6.78756 8.32377C6.80099 8.34382 6.81489 8.36355 6.82927 8.38294C6.84365 8.4023 6.8585 8.42133 6.87383 8.43995C6.88914 8.45861 6.9049 8.47689 6.92114 8.49476C6.93733 8.51265 6.95397 8.53012 6.97105 8.54715C6.98813 8.56422 7.00561 8.58087 7.0235 8.59704C7.04138 8.61325 7.05965 8.62901 7.07834 8.64432C7.097 8.65961 7.11603 8.67444 7.13542 8.68882C7.15481 8.70319 7.17454 8.71707 7.19463 8.73045C7.2147 8.74386 7.23509 8.75676 7.2558 8.76914C7.2765 8.78155 7.2975 8.79343 7.31882 8.80481C7.34009 8.81618 7.36166 8.82702 7.38347 8.83733C7.40529 8.84763 7.42735 8.85738 7.44967 8.86659C7.47198 8.87582 7.4945 8.88448 7.51723 8.8926C7.53995 8.90072 7.56288 8.90827 7.58599 8.91528C7.60907 8.92226 7.63234 8.92868 7.65574 8.93453C7.67915 8.94038 7.70271 8.94565 7.72639 8.95036C7.75006 8.95503 7.77383 8.95914 7.79771 8.96268C7.82159 8.96619 7.84554 8.96912 7.86958 8.97148C7.89359 8.97383 7.91765 8.97558 7.94176 8.97676C7.96587 8.97792 7.99 8.97848 8.01412 8.97844L10.3889 8.97844L10.3889 10.4708L6.31402 10.4708C6.25329 10.4694 6.19261 10.4706 6.13197 10.4743C6.07132 10.4781 6.01096 10.4843 5.95086 10.4931C5.89076 10.5019 5.83112 10.5133 5.77198 10.5271C5.71283 10.5409 5.65435 10.5572 5.59656 10.5759C5.57765 10.5824 5.55883 10.5892 5.54009 10.5963C5.52136 10.6034 5.50272 10.6107 5.48421 10.6183C5.46569 10.6259 5.44727 10.6337 5.42899 10.6418C5.41067 10.6499 5.39251 10.6583 5.37445 10.6669C5.35638 10.6756 5.33844 10.6845 5.32064 10.6936C5.30281 10.7027 5.28515 10.7121 5.26762 10.7218C5.25006 10.7314 5.23265 10.7413 5.21539 10.7514C5.19811 10.7615 5.18101 10.7719 5.16405 10.7825C5.14706 10.7931 5.13023 10.804 5.11359 10.8151C5.09692 10.8261 5.08041 10.8375 5.06408 10.849C5.04773 10.8606 5.03156 10.8724 5.01555 10.8844C4.99954 10.8964 4.98369 10.9087 4.96804 10.9211C4.95237 10.9336 4.93688 10.9463 4.9216 10.9592C4.90627 10.9721 4.89116 10.9852 4.87624 10.9985C4.8613 11.0118 4.84656 11.0254 4.83202 11.0391C4.81746 11.0529 4.8031 11.0668 4.78895 11.081C4.7748 11.0951 4.76086 11.1095 4.74711 11.124C4.73337 11.1386 4.71983 11.1533 4.7065 11.1682C4.69316 11.1832 4.68003 11.1983 4.66715 11.2136C4.65422 11.2289 4.64155 11.2444 4.6291 11.26C4.61662 11.2757 4.6044 11.2915 4.59238 11.3075C4.58036 11.3235 4.56857 11.3397 4.55703 11.3561C4.54546 11.3724 4.53412 11.3889 4.52305 11.4056C4.51194 11.4223 4.5011 11.4391 4.49049 11.4561C4.47988 11.473 4.46951 11.4901 4.4594 11.5074C4.44926 11.5247 4.43937 11.5421 4.42973 11.5596C4.4201 11.5772 4.41071 11.5948 4.40159 11.6126C4.39243 11.6304 4.38356 11.6484 4.37494 11.6664C4.3663 11.6845 4.35794 11.7027 4.34984 11.721C4.34172 11.7393 4.33385 11.7577 4.32628 11.7762C4.31868 11.7947 4.31136 11.8134 4.3043 11.8321C4.29723 11.8508 4.29042 11.8697 4.28389 11.8886C4.26112 11.9688 4.24185 12.0499 4.22602 12.1318C4.21017 12.2137 4.19783 12.2961 4.18903 12.3791C4.18023 12.462 4.17497 12.5452 4.17327 12.6286C4.17155 12.712 4.17338 12.7953 4.17878 12.8786L4.17878 12.98L1.47645 12.98C1.45229 12.98 1.42815 12.9806 1.40402 12.9817C1.37989 12.9829 1.35581 12.9847 1.33177 12.987C1.30773 12.9894 1.28375 12.9923 1.25986 12.9958C1.23596 12.9994 1.21216 13.0035 1.18847 13.0081C1.16477 13.0128 1.14121 13.0181 1.11777 13.024C1.09434 13.0298 1.07106 13.0363 1.04794 13.0432C1.02482 13.0502 1.00188 13.0578 0.979135 13.0659C0.956387 13.0741 0.93385 13.0827 0.911525 13.0919C0.889203 13.1012 0.86712 13.111 0.845278 13.1213C0.823435 13.1316 0.801859 13.1424 0.780549 13.1538C0.759238 13.1652 0.73822 13.1771 0.717495 13.1895C0.696769 13.2019 0.676359 13.2148 0.656269 13.2282C0.636176 13.2416 0.616426 13.2555 0.597016 13.2699C0.577606 13.2843 0.558563 13.2991 0.539883 13.3144C0.521203 13.3298 0.502909 13.3455 0.485005 13.3617C0.467101 13.3779 0.449602 13.3946 0.432514 13.4117C0.415426 13.4287 0.398769 13.4462 0.382539 13.4641C0.366311 13.482 0.350531 13.5003 0.335199 13.519C0.319868 13.5376 0.305005 13.5566 0.290609 13.576C0.276211 13.5954 0.2623 13.6152 0.248875 13.6353C0.235447 13.6554 0.222522 13.6757 0.210098 13.6965C0.197673 13.7172 0.185764 13.7382 0.174371 13.7595C0.162979 13.7808 0.152116 13.8024 0.141783 13.8242C0.131451 13.846 0.12166 13.8681 0.11241 13.8904C0.103162 13.9127 0.0944674 13.9353 0.086326 13.958C0.078183 13.9807 0.070604 14.0037 0.063589 14.0268C0.0565725 14.0499 0.0501281 14.0732 0.0442561 14.0966C0.0383841 14.12 0.0330903 14.1436 0.0283747 14.1673C0.0236606 14.191 0.0195303 14.2148 0.0159835 14.2387C0.0124366 14.2626 0.00947865 14.2865 0.00710957 14.3106C0.00474047 14.3346 0.00296326 14.3587 0.00177799 14.3828C0.000592678 14.4069 0 14.4311 0 14.4552L0 20.4845C1.96809e-05 20.5086 0.000631997 20.5327 0.00183695 20.5568C0.00304189 20.581 0.00483723 20.605 0.00722296 20.629C0.00960866 20.6531 0.0125833 20.677 0.0161468 20.7009C0.0197087 20.7248 0.0238543 20.7486 0.0285833 20.7722C0.0333139 20.7959 0.0386222 20.8195 0.0445078 20.8429C0.0503934 20.8663 0.0568498 20.8896 0.0638771 20.9127C0.0709043 20.9357 0.0784939 20.9586 0.0866457 20.9814C0.0947992 21.0041 0.103505 21.0266 0.112762 21.0489C0.122019 21.0712 0.131818 21.0933 0.142159 21.1151C0.1525 21.1369 0.16337 21.1585 0.174768 21.1797C0.186167 21.201 0.198082 21.222 0.210511 21.2427C0.22294 21.2634 0.235869 21.2838 0.249299 21.3038C0.262729 21.3239 0.276642 21.3436 0.29104 21.363C0.305438 21.3824 0.320304 21.4014 0.335636 21.4201C0.350967 21.4387 0.366746 21.457 0.382974 21.4748C0.399203 21.4926 0.41586 21.5101 0.432947 21.5272C0.450033 21.5443 0.467527 21.5609 0.485429 21.5771C0.503331 21.5933 0.521621 21.609 0.540296 21.6245C0.558971 21.6398 0.578012 21.6546 0.597415 21.6689C0.616818 21.6833 0.636564 21.6971 0.65665 21.7104C0.676736 21.7239 0.697137 21.7368 0.717855 21.7492C0.738574 21.7616 0.759585 21.7735 0.780887 21.7848C0.802188 21.7961 0.823755 21.807 0.845589 21.8175C0.867421 21.8278 0.889496 21.8375 0.911809 21.8467C0.934122 21.8559 0.956648 21.8646 0.979387 21.8726C1.00213 21.8807 1.02505 21.8883 1.04816 21.8952C1.07127 21.9022 1.09453 21.9086 1.11796 21.9145C1.14138 21.9204 1.16494 21.9257 1.18862 21.9304C1.2123 21.9351 1.23609 21.9392 1.25997 21.9426C1.28386 21.9461 1.30781 21.9491 1.33184 21.9515C1.35587 21.9538 1.37994 21.9555 1.40406 21.9567C1.42817 21.9579 1.4523 21.9585 1.47645 21.9585L7.50568 21.9585C7.52981 21.9585 7.55392 21.9579 7.57803 21.9567C7.60211 21.9555 7.62617 21.9537 7.65021 21.9513C7.6742 21.949 7.69815 21.946 7.72203 21.9424C7.74589 21.9389 7.76966 21.9349 7.79333 21.9302C7.81701 21.9255 7.84055 21.9202 7.86395 21.9143C7.88735 21.9084 7.9106 21.902 7.93371 21.895C7.95679 21.8881 7.9797 21.8805 8.00242 21.8723C8.02515 21.8642 8.04764 21.8555 8.06993 21.8463C8.09223 21.8371 8.11429 21.8273 8.13611 21.817C8.15793 21.8067 8.17947 21.7958 8.20076 21.7843C8.22204 21.773 8.24304 21.7612 8.26374 21.7487C8.28442 21.7364 8.30481 21.7235 8.3249 21.7102C8.34495 21.6967 8.36468 21.6828 8.38407 21.6685C8.40344 21.6541 8.42246 21.6393 8.44115 21.624C8.45979 21.6086 8.47807 21.5928 8.49596 21.5766C8.51383 21.5604 8.53132 21.5438 8.54839 21.5267C8.56545 21.5098 8.58209 21.4923 8.59831 21.4743C8.61452 21.4565 8.63029 21.4383 8.64562 21.4196C8.66092 21.401 8.67578 21.382 8.69016 21.3626C8.70453 21.3432 8.71843 21.3235 8.73186 21.3035C8.74529 21.2834 8.75819 21.263 8.77062 21.2423C8.78302 21.2217 8.79493 21.2007 8.80631 21.1794C8.8177 21.1581 8.82856 21.1366 8.8389 21.1148C8.84922 21.093 8.85901 21.0709 8.86827 21.0486C8.8775 21.0264 8.88618 21.0038 8.89435 20.9811C8.90249 20.9584 8.91006 20.9355 8.91709 20.9124C8.9241 20.8893 8.93054 20.8661 8.93644 20.8427C8.94231 20.8193 8.94762 20.7958 8.95236 20.7721C8.95707 20.7484 8.9612 20.7247 8.96478 20.7008C8.96832 20.6769 8.97129 20.653 8.9737 20.629C8.97606 20.605 8.97785 20.5809 8.97907 20.5568C8.98027 20.5327 8.98089 20.5086 8.98091 20.4845L8.98091 14.4552C8.98091 14.4311 8.98032 14.407 8.97914 14.3828C8.97794 14.3587 8.97617 14.3347 8.97381 14.3106C8.97143 14.2866 8.96848 14.2627 8.96494 14.2388C8.96138 14.2149 8.95726 14.1911 8.95256 14.1674C8.94784 14.1438 8.94254 14.1202 8.93669 14.0968C8.93081 14.0734 8.92437 14.0501 8.91739 14.027C8.91036 14.0039 8.90278 13.981 8.89466 13.9582C8.88652 13.9355 8.87784 13.913 8.86861 13.8907C8.85935 13.8684 8.84958 13.8463 8.83926 13.8245C8.82892 13.8027 8.81808 13.7811 8.80672 13.7598C8.79533 13.7385 8.78343 13.7175 8.77102 13.6968C8.7586 13.6761 8.74569 13.6557 8.73229 13.6356C8.71887 13.6156 8.70496 13.5959 8.69059 13.5764C8.67621 13.5571 8.66135 13.538 8.64605 13.5194C8.63072 13.5007 8.61495 13.4824 8.59874 13.4645C8.58253 13.4467 8.56588 13.4292 8.54883 13.4121C8.53175 13.395 8.51426 13.3784 8.49637 13.3622C8.47848 13.346 8.4602 13.3302 8.44156 13.3149C8.42287 13.2996 8.40384 13.2847 8.38448 13.2703C8.36507 13.2559 8.34534 13.2421 8.32527 13.2286C8.30517 13.2152 8.28479 13.2023 8.2641 13.1899C8.24338 13.1775 8.22238 13.1656 8.2011 13.1542C8.17979 13.1428 8.15824 13.132 8.13643 13.1216C8.11459 13.1113 8.09252 13.1015 8.07023 13.0923C8.04791 13.0831 8.0254 13.0744 8.00267 13.0662C7.97993 13.0581 7.957 13.0505 7.93391 13.0435C7.9108 13.0365 7.88754 13.0301 7.86413 13.0242C7.84071 13.0184 7.81717 13.0131 7.79349 13.0084C7.76979 13.0036 7.746 12.9995 7.72215 12.996C7.69824 12.9924 7.67429 12.9895 7.65028 12.9871C7.62624 12.9848 7.60218 12.983 7.57807 12.9818C7.55394 12.9806 7.52981 12.98 7.50568 12.98L5.35946 12.98L5.35946 12.5669L5.35946 12.4447L5.35946 12.4105L5.35946 12.397C5.36055 12.3848 5.36055 12.3726 5.35946 12.3603L5.35946 12.3811C5.37185 12.3202 5.38815 12.2603 5.40836 12.2015C5.41394 12.187 5.42004 12.1727 5.42668 12.1587C5.45108 12.1108 5.47796 12.0643 5.50735 12.0194C5.52447 11.9925 5.54647 11.968 5.56234 11.9411L5.54769 11.9656C5.58801 11.9203 5.63201 11.8812 5.6699 11.8433C5.68457 11.8323 5.69802 11.8213 5.71267 11.8128C5.76245 11.7833 5.81379 11.7568 5.86668 11.7333L5.84223 11.7333C5.86668 11.7272 5.89357 11.7138 5.91802 11.7052C5.97748 11.6863 6.03778 11.6704 6.0989 11.6576C6.12212 11.6576 6.14657 11.6514 6.16734 11.6502L15.8131 11.6502C15.8669 11.6615 15.9198 11.6758 15.972 11.693C16.0026 11.7028 16.0331 11.7187 16.0637 11.726L16.0392 11.726C16.0871 11.7504 16.1336 11.7773 16.1786 11.8067L16.214 11.8311L16.236 11.8556C16.2756 11.8909 16.3131 11.9284 16.3485 11.968L16.3338 11.9436C16.3472 11.9668 16.3656 11.9876 16.3803 12.0084C16.4129 12.0576 16.4426 12.1085 16.4695 12.1611C16.4695 12.1709 16.4805 12.1856 16.4866 12.2002C16.4906 12.2098 16.4939 12.2195 16.4964 12.2296C16.5136 12.2817 16.5279 12.3347 16.5391 12.3885L16.5391 12.397C16.5399 12.3856 16.5399 12.3742 16.5391 12.3628C16.5391 12.3848 16.5391 12.408 16.5452 12.43L16.5452 13.0191L14.4956 13.0191C14.4714 13.0191 14.4473 13.0197 14.4232 13.0209C14.3991 13.0221 14.375 13.0239 14.351 13.0262C14.3269 13.0286 14.303 13.0316 14.2791 13.0351C14.2552 13.0386 14.2315 13.0428 14.2078 13.0475C14.1841 13.0522 14.1605 13.0575 14.1371 13.0633C14.1137 13.0692 14.0904 13.0756 14.0674 13.0827C14.0442 13.0897 14.0213 13.0972 13.9986 13.1054C13.9758 13.1135 13.9533 13.1222 13.931 13.1314C13.9087 13.1407 13.8867 13.1504 13.8648 13.1608C13.843 13.1711 13.8214 13.1819 13.8002 13.1933C13.7789 13.2047 13.7579 13.2166 13.7372 13.229C13.7164 13.2414 13.696 13.2543 13.676 13.2677C13.6559 13.2812 13.6362 13.2951 13.6168 13.3094C13.5974 13.3238 13.5783 13.3387 13.5597 13.354C13.541 13.3693 13.5228 13.3851 13.5049 13.4013C13.487 13.4175 13.4695 13.4341 13.4524 13.4512C13.4354 13.4683 13.4187 13.4858 13.4025 13.5036C13.3863 13.5215 13.3705 13.5398 13.3552 13.5585C13.3399 13.5771 13.3251 13.5962 13.3107 13.6156C13.2963 13.635 13.2824 13.6547 13.269 13.6748C13.2555 13.6948 13.2426 13.7152 13.2302 13.7359C13.2178 13.7566 13.2059 13.7776 13.1945 13.7989C13.1832 13.8202 13.1723 13.8418 13.162 13.8636C13.1517 13.8854 13.1419 13.9075 13.1327 13.9298C13.1234 13.9521 13.1147 13.9746 13.1066 13.9973C13.0985 14.0201 13.0909 14.043 13.0839 14.0661C13.0769 14.0892 13.0704 14.1125 13.0646 14.1359C13.0587 14.1593 13.0534 14.1829 13.0487 14.2065C13.044 14.2302 13.0399 14.254 13.0363 14.2779C13.0328 14.3018 13.0298 14.3257 13.0275 14.3497C13.0251 14.3738 13.0233 14.3979 13.0221 14.422C13.0209 14.4461 13.0204 14.4702 13.0204 14.4943L13.0204 20.5236C13.0203 20.5477 13.0209 20.5719 13.0221 20.596C13.0232 20.6201 13.025 20.6442 13.0273 20.6683C13.0297 20.6923 13.0326 20.7163 13.0362 20.7402C13.0397 20.7641 13.0438 20.7879 13.0485 20.8116C13.0532 20.8353 13.0585 20.8588 13.0643 20.8822C13.0702 20.9057 13.0766 20.929 13.0836 20.9521C13.0906 20.9752 13.0981 20.9981 13.1063 21.0209C13.1144 21.0436 13.1231 21.0662 13.1323 21.0885C13.1415 21.1108 13.1513 21.1329 13.1616 21.1547C13.1719 21.1766 13.1828 21.1982 13.1942 21.2195C13.2055 21.2408 13.2174 21.2618 13.2298 21.2825C13.2422 21.3033 13.2551 21.3236 13.2685 21.3437C13.2819 21.3638 13.2958 21.3836 13.3102 21.403C13.3246 21.4224 13.3395 21.4414 13.3548 21.4601C13.3701 21.4788 13.3859 21.4971 13.4021 21.5149C13.4183 21.5329 13.4349 21.5505 13.452 21.5675C13.4691 21.5846 13.4865 21.6013 13.5045 21.6174C13.5223 21.6338 13.5406 21.6496 13.5593 21.6648C13.578 21.6801 13.597 21.695 13.6164 21.7095C13.6358 21.7239 13.6555 21.7378 13.6756 21.7512C13.6957 21.7646 13.7161 21.7775 13.7368 21.79C13.7575 21.8024 13.7785 21.8143 13.7998 21.8256C13.8211 21.837 13.8427 21.8478 13.8645 21.8583C13.8864 21.8686 13.9084 21.8783 13.9308 21.8875C13.9531 21.8968 13.9756 21.9055 13.9983 21.9136C14.0211 21.9218 14.044 21.9294 14.0671 21.9365C14.0902 21.9435 14.1135 21.9499 14.137 21.9558C14.1604 21.9617 14.1839 21.967 14.2076 21.9717C14.2313 21.9764 14.2551 21.9805 14.279 21.9841C14.3029 21.9876 14.3269 21.9906 14.3509 21.993C14.3749 21.9953 14.399 21.997 14.4231 21.9982C14.4473 21.9994 14.4714 22 14.4956 22L20.5236 22C20.5477 22 20.5718 21.9994 20.596 21.9982C20.6201 21.9972 20.6441 21.9954 20.6682 21.993C20.6922 21.9907 20.7162 21.9878 20.7401 21.9841C20.7639 21.9807 20.7877 21.9766 20.8114 21.9719C20.8351 21.9672 20.8586 21.9619 20.8821 21.956C20.9055 21.9503 20.9288 21.9439 20.9519 21.9367C20.975 21.9298 20.9979 21.9223 21.0206 21.9143C21.0434 21.9061 21.0659 21.8974 21.0882 21.8882C21.1105 21.879 21.1326 21.8693 21.1544 21.859C21.1763 21.8487 21.1978 21.8378 21.2191 21.8263C21.2404 21.815 21.2614 21.8031 21.2822 21.7907C21.3029 21.7783 21.3233 21.7655 21.3434 21.7521C21.3635 21.7387 21.3832 21.7248 21.4026 21.7104C21.422 21.6961 21.441 21.6813 21.4597 21.666C21.4784 21.6507 21.4967 21.6349 21.5146 21.6186C21.5325 21.6024 21.55 21.5858 21.5671 21.5689C21.5842 21.5518 21.6008 21.5343 21.6171 21.5163C21.6333 21.4985 21.6491 21.4802 21.6644 21.4616C21.6797 21.443 21.6946 21.424 21.709 21.4046C21.7234 21.3852 21.7373 21.3655 21.7507 21.3454C21.7642 21.3253 21.7771 21.305 21.7895 21.2843C21.8019 21.2636 21.8139 21.2426 21.8253 21.2213C21.8366 21.2 21.8475 21.1785 21.8579 21.1566C21.8682 21.1348 21.878 21.1128 21.8873 21.0905C21.8965 21.0682 21.9052 21.0457 21.9134 21.0229C21.9215 21.0002 21.9291 20.9773 21.9362 20.9542C21.9432 20.9311 21.9496 20.9078 21.9555 20.8844C21.9614 20.861 21.9667 20.8375 21.9714 20.8138C21.9762 20.7901 21.9803 20.7664 21.9839 20.7425C21.9874 20.7186 21.9904 20.6947 21.9928 20.6706C21.9952 20.6466 21.997 20.6225 21.9982 20.5984C21.9994 20.5743 22 20.5502 22 20.526L22 14.4968C22 14.4727 21.9994 14.4485 21.9982 14.4244C21.9971 14.4003 21.9953 14.3762 21.9929 14.3522C21.9905 14.3281 21.9876 14.3042 21.9841 14.2803C21.9805 14.2564 21.9764 14.2326 21.9716 14.2089C21.9669 14.1853 21.9616 14.1617 21.9558 14.1383C21.9499 14.1149 21.9434 14.0916 21.9364 14.0685C21.9294 14.0454 21.9218 14.0224 21.9137 13.9997C21.9055 13.977 21.8969 13.9545 21.8876 13.9321C21.8783 13.9099 21.8686 13.8878 21.8582 13.8659C21.8479 13.8441 21.837 13.8226 21.8256 13.8013C21.8142 13.78 21.8023 13.759 21.7899 13.7383C21.7775 13.7176 21.7645 13.6972 21.7511 13.6771C21.7377 13.6571 21.7238 13.6373 21.7094 13.6179C21.695 13.5986 21.6801 13.5795 21.6648 13.5609C21.6494 13.5422 21.6337 13.5239 21.6174 13.5061C21.6012 13.4882 21.5845 13.4707 21.5674 13.4536C21.5503 13.4366 21.5329 13.42 21.515 13.4037C21.497 13.3876 21.4787 13.3718 21.4601 13.3565C21.4414 13.3412 21.4223 13.3264 21.4029 13.312C21.3835 13.2976 21.3638 13.2838 21.3437 13.2704C21.3236 13.257 21.3032 13.2441 21.2824 13.2317C21.2617 13.2193 21.2407 13.2074 21.2194 13.196C21.1981 13.1847 21.1765 13.1739 21.1546 13.1635C21.1328 13.1532 21.1107 13.1435 21.0884 13.1343C21.0661 13.1251 21.0436 13.1164 21.0208 13.1083C20.9981 13.1002 20.9751 13.0927 20.952 13.0857C20.9289 13.0787 20.9056 13.0723 20.8822 13.0665C20.8587 13.0606 20.8352 13.0554 20.8115 13.0507C20.7878 13.046 20.764 13.0419 20.7401 13.0384C20.7162 13.0349 20.6923 13.032 20.6682 13.0297C20.6442 13.0273 20.6201 13.0256 20.596 13.0244C20.5718 13.0233 20.5477 13.0228 20.5236 13.0228L20.5236 13.0216Z"   fill="#0054FE" >
</path>
<path    stroke="rgba(51, 214, 192, 1)" stroke-width="1"  stroke-linecap="round"  d="M2.29175 17.646L6.16211 17.646">
</path>
<path    stroke="rgba(51, 214, 192, 1)" stroke-width="1"  stroke-linecap="round"  d="M15.8379 17.646L19.7083 17.646">
</path>
<path    stroke="rgba(51, 214, 192, 1)" stroke-width="1"  stroke-linecap="round"  d="M9.0647 4.5835L12.9351 4.5835">
</path>
</svg>
