<svg xmlns="http://www.w3.org/2000/svg" xmlns:xlink="http://www.w3.org/1999/xlink" viewBox="0 0 24 24" fill="none">
<path d="M10.2564 2.00633C10.1752 2.0029 10.0941 2.00118 10.0129 2.00118L10.0117 2C9.93042 2.00006 9.84918 2.00183 9.76798 2.00532C9.68676 2.00881 9.60566 2.01402 9.52469 2.02094C9.4437 2.02786 9.3629 2.03649 9.28228 2.04682C9.20166 2.05716 9.1213 2.06919 9.04122 2.08293C8.96109 2.09666 8.88133 2.11208 8.8019 2.12918C8.72244 2.14629 8.64341 2.16507 8.56476 2.18551C8.48612 2.20596 8.40794 2.22806 8.33025 2.25181C8.25254 2.27556 8.17538 2.30095 8.09878 2.32796C8.02218 2.35497 7.94619 2.38359 7.8708 2.41381C7.79541 2.44405 7.72069 2.47586 7.64667 2.50923C7.57262 2.54263 7.49932 2.57756 7.42681 2.61403C7.35425 2.65052 7.28253 2.68852 7.21162 2.72803C7.14069 2.76755 7.07067 2.80855 7.0015 2.85104C6.93233 2.8935 6.86412 2.93742 6.79683 2.98278Q6.69587 3.05082 6.59797 3.12306C6.53266 3.17123 6.46844 3.22076 6.40527 3.27165C6.34209 3.32252 6.28003 3.37471 6.21909 3.4282C6.15814 3.48171 6.09836 3.53648 6.03979 3.59252C5.98116 3.64854 5.9238 3.70577 5.86764 3.76423C5.81147 3.8227 5.75659 3.88231 5.70299 3.94308C5.64936 4.00386 5.59708 4.06574 5.54612 4.12874C5.49514 4.19172 5.44553 4.25575 5.39731 4.32083C5.34907 4.38592 5.30225 4.452 5.25684 4.51907C5.21143 4.58612 5.16749 4.65411 5.12499 4.72303C5.08248 4.79195 5.04147 4.86175 5.00194 4.9324C4.96241 5.00305 4.92441 5.07451 4.88794 5.14678C4.85148 5.21903 4.81657 5.29202 4.78322 5.36576C4.74987 5.43951 4.71809 5.51391 4.68795 5.589C4.65775 5.66409 4.62921 5.73977 4.60227 5.81606C4.57532 5.89233 4.55003 5.96915 4.52639 6.04653C4.50272 6.12388 4.48072 6.2017 4.4604 6.28C4.44006 6.35827 4.42141 6.43694 4.40445 6.51603C4.38747 6.59509 4.37219 6.6745 4.35863 6.75423C4.34504 6.83394 4.33317 6.9139 4.32302 6.99414C4.31285 7.07436 4.30439 7.15476 4.29768 7.23535C4.29095 7.31592 4.28595 7.3966 4.28268 7.47739C4.27938 7.55819 4.27782 7.639 4.27801 7.71987C4.27819 7.80073 4.2801 7.88155 4.28372 7.96232C4.28735 8.04309 4.29269 8.12375 4.29977 8.20432C4.30683 8.28486 4.31563 8.36521 4.32613 8.44541C4.33663 8.52558 4.34885 8.6055 4.36278 8.68516C4.3767 8.76482 4.3923 8.84414 4.40963 8.92315C4.42693 9.00215 4.44591 9.08075 4.46658 9.15896C4.48725 9.23714 4.50957 9.31489 4.53359 9.39215C4.55756 9.46941 4.5832 9.54611 4.61046 9.62229C4.63773 9.69844 4.6666 9.77401 4.6971 9.84896C4.72759 9.92391 4.75967 9.99819 4.79334 10.0718C4.827 10.1454 4.86223 10.2182 4.89902 10.2903C4.93579 10.3624 4.97409 10.4337 5.01392 10.5042C5.05373 10.5747 5.09505 10.6443 5.13788 10.7131C5.18066 10.7818 5.22491 10.8496 5.27061 10.9165C5.3163 10.9834 5.3634 11.0492 5.41192 11.1141C5.46042 11.179 5.5103 11.2428 5.56156 11.3056C5.6128 11.3683 5.66534 11.43 5.71922 11.4905C5.77308 11.5511 5.82822 11.6105 5.88464 11.6687C5.94103 11.7269 5.99868 11.7839 6.05753 11.8397C6.11636 11.8955 6.17638 11.95 6.23755 12.0032C6.29873 12.0564 6.361 12.1084 6.42441 12.159C6.48779 12.2096 6.55224 12.2588 6.61774 12.3067C6.68324 12.3546 6.74971 12.4011 6.8172 12.4462C6.88467 12.4912 6.9531 12.5349 7.02245 12.5771C7.09178 12.6192 7.16199 12.6599 7.23309 12.6992C7.30416 12.7384 7.37606 12.776 7.44876 12.8122C7.52146 12.8484 7.59487 12.883 7.66906 12.9161C3.04796 14.9448 -0.859643 21.9975 1.94084 21.9998L17.7853 21.9998C21.1613 21.9998 17.0694 14.9212 12.3805 12.9078C12.4545 12.8745 12.5277 12.8396 12.6001 12.8032C12.6726 12.7668 12.7443 12.7288 12.8151 12.6894C12.8859 12.65 12.9559 12.6091 13.025 12.5667C13.0941 12.5243 13.1623 12.4804 13.2295 12.4351C13.2967 12.3899 13.3629 12.3432 13.4282 12.2951C13.4934 12.2471 13.5576 12.1976 13.6207 12.1469C13.6838 12.0961 13.7458 12.044 13.8067 11.9906C13.8676 11.9372 13.9274 11.8825 13.9859 11.8266C14.0445 11.7707 14.1019 11.7135 14.158 11.6552C14.2141 11.5969 14.269 11.5374 14.3226 11.4767C14.3762 11.416 14.4284 11.3543 14.4794 11.2914C14.5304 11.2285 14.5799 11.1646 14.6282 11.0997C14.6764 11.0347 14.7232 10.9687 14.7687 10.9018C14.8141 10.8349 14.858 10.767 14.9006 10.6982C14.9431 10.6294 14.9841 10.5598 15.0237 10.4892C15.0632 10.4187 15.1012 10.3474 15.1377 10.2753C15.1742 10.2031 15.2092 10.1303 15.2426 10.0566C15.276 9.98303 15.3078 9.90875 15.338 9.83381C15.3682 9.75885 15.3968 9.68328 15.4238 9.60713C15.4508 9.53096 15.4762 9.45425 15.4999 9.37704C15.5237 9.2998 15.5457 9.2221 15.5661 9.14396C15.5865 9.06578 15.6053 8.98722 15.6223 8.90828C15.6394 8.82931 15.6548 8.75004 15.6684 8.67044C15.6821 8.59083 15.6941 8.51098 15.7044 8.43087C15.7146 8.35075 15.7232 8.27046 15.73 8.19001C15.7369 8.10954 15.742 8.02896 15.7454 7.94828C15.7488 7.8676 15.7505 7.78687 15.7505 7.70612C15.7504 7.62535 15.7487 7.54465 15.7452 7.46397C15.7417 7.38326 15.7365 7.30268 15.7296 7.22223C15.7227 7.14176 15.714 7.06147 15.7037 6.98139C15.6933 6.90129 15.6813 6.82144 15.6675 6.74187C15.6538 6.66228 15.6383 6.58301 15.6212 6.50408C15.6041 6.42514 15.5853 6.34658 15.5648 6.26844C15.5443 6.19031 15.5221 6.11263 15.4983 6.03541C15.4745 5.9582 15.4491 5.88154 15.422 5.80541C15.3949 5.72926 15.3663 5.65373 15.336 5.57883C15.3057 5.5039 15.2738 5.42965 15.2403 5.35608C15.2069 5.2825 15.1718 5.20965 15.1353 5.13756C15.0987 5.06546 15.0606 4.99416 15.021 4.92369C14.9814 4.85318 14.9403 4.78356 14.8977 4.71483C14.8551 4.64607 14.8111 4.57824 14.7656 4.51135C14.7201 4.44444 14.6732 4.37855 14.6249 4.31363C14.5766 4.24871 14.527 4.18484 14.476 4.12202C14.425 4.05921 14.3726 3.99749 14.319 3.93688C14.2653 3.87628 14.2104 3.81683 14.1542 3.75854C14.098 3.70024 14.0406 3.64316 13.982 3.5873C13.9234 3.53143 13.8636 3.47683 13.8026 3.42349C13.7417 3.37015 13.6796 3.31812 13.6164 3.2674C13.5533 3.21668 13.489 3.16731 13.4238 3.1193C13.3585 3.07129 13.2922 3.02468 13.2249 2.97947C13.1577 2.93425 13.0895 2.89048 13.0203 2.84815C12.9512 2.80582 12.8812 2.76497 12.8103 2.7256C12.7394 2.68622 12.6678 2.64835 12.5953 2.612C12.5228 2.57565 12.4495 2.54085 12.3756 2.50759C12.3016 2.47434 12.2269 2.44266 12.1516 2.41257C12.0762 2.38245 12.0003 2.35395 11.9238 2.32706C11.8472 2.30017 11.7701 2.2749 11.6925 2.25125C11.6149 2.22761 11.5368 2.20562 11.4582 2.18527C11.3796 2.16493 11.3007 2.14625 11.2213 2.12924C11.142 2.11223 11.0623 2.0969 10.9823 2.08326C10.9022 2.06961 10.822 2.05766 10.7415 2.0474C10.6609 2.03715 10.5802 2.02859 10.4993 2.02175C10.4184 2.0149 10.3375 2.00976 10.2564 2.00633Z" fill-rule="evenodd"  fill="#0054FE" >
</path>
<path    stroke="rgba(51, 214, 192, 1)" stroke-width="2"  stroke-linecap="round"  d="M10.1167 15.8018L10.1167 19.7446">
</path>
<path d="M17.3071 2.97977C20.261 5.23326 20.2491 9.05531 18.243 11.3301C21.8521 14.7523 23.4467 17.9368 22.8926 20.9106C22.8898 20.9266 22.8865 20.9424 22.8828 20.9582C22.8792 20.974 22.8751 20.9897 22.8707 21.0052C22.8662 21.0208 22.8614 21.0363 22.8562 21.0516C22.851 21.0669 22.8454 21.0821 22.8395 21.0972C22.8335 21.1122 22.8272 21.1271 22.8205 21.1419C22.8138 21.1567 22.8068 21.1712 22.7993 21.1856C22.7919 21.2001 22.7842 21.2143 22.776 21.2283C22.7679 21.2423 22.7594 21.2561 22.7506 21.2698C22.7418 21.2834 22.7327 21.2968 22.7232 21.3099C22.7138 21.3231 22.704 21.336 22.6938 21.3487C22.6837 21.3614 22.6733 21.3738 22.6626 21.386C22.6519 21.3981 22.6409 21.4101 22.6296 21.4217C22.6182 21.4333 22.6066 21.4447 22.5948 21.4557C22.5829 21.4668 22.5708 21.4776 22.5583 21.488C22.5459 21.4985 22.5333 21.5087 22.5204 21.5185C22.5074 21.5284 22.4943 21.5379 22.4809 21.5471C22.4675 21.5563 22.4539 21.5652 22.4401 21.5737C22.4263 21.5822 22.4122 21.5904 22.398 21.5983C22.3838 21.6061 22.3694 21.6136 22.3548 21.6208C22.3401 21.6279 22.3254 21.6347 22.3104 21.6411C22.2955 21.6475 22.2804 21.6536 22.2652 21.6593C22.2499 21.6649 22.2346 21.6702 22.2191 21.6752C22.2036 21.6801 22.1879 21.6847 22.1722 21.6888C22.1565 21.693 22.1407 21.6967 22.1248 21.7001C22.1089 21.7035 22.0929 21.7065 22.0768 21.7091C22.0608 21.7117 22.0446 21.7139 22.0285 21.7157C22.0123 21.7175 21.9961 21.7189 21.9799 21.72C21.9636 21.721 21.9474 21.7216 21.9311 21.7218C21.9148 21.722 21.8985 21.7218 21.8823 21.7213C21.866 21.7207 21.8498 21.7197 21.8336 21.7183C21.8174 21.717 21.8012 21.7152 21.7851 21.713C21.7689 21.7109 21.7529 21.7083 21.7369 21.7054C21.7209 21.7024 21.705 21.699 21.6891 21.6953C21.6733 21.6916 21.6576 21.6875 21.6419 21.683C21.6263 21.6785 21.6108 21.6736 21.5954 21.6683C21.58 21.663 21.5648 21.6574 21.5497 21.6514C21.5346 21.6454 21.5196 21.639 21.5048 21.6323C21.49 21.6255 21.4754 21.6184 21.461 21.611C21.4465 21.6035 21.4323 21.5957 21.4182 21.5875C21.4042 21.5793 21.3903 21.5708 21.3767 21.562C21.3631 21.5532 21.3497 21.544 21.3365 21.5345C21.3233 21.525 21.3104 21.5152 21.2977 21.5051C21.285 21.4949 21.2726 21.4845 21.2604 21.4738C21.2482 21.463 21.2363 21.452 21.2247 21.4407C21.2131 21.4294 21.2017 21.4178 21.1907 21.4059C21.1796 21.394 21.1689 21.3818 21.1584 21.3694C21.148 21.357 21.1378 21.3444 21.128 21.3315C21.1182 21.3186 21.1087 21.3054 21.0995 21.2921C21.0903 21.2787 21.0815 21.2651 21.073 21.2513C21.0645 21.2375 21.0563 21.2235 21.0485 21.2093C21.0407 21.1951 21.0333 21.1807 21.0262 21.1661C21.0191 21.1516 21.0124 21.1368 21.006 21.122C20.9996 21.107 20.9936 21.092 20.988 21.0768C20.9824 21.0616 20.9772 21.0463 20.9723 21.0309C20.9674 21.0154 20.963 20.9999 20.9589 20.9842C20.9548 20.9685 20.9511 20.9528 20.9478 20.9369C20.9445 20.9211 20.9415 20.9051 20.939 20.8892C20.9365 20.8732 20.9344 20.8571 20.9327 20.841C20.9309 20.8249 20.9296 20.8088 20.9287 20.7926C20.9278 20.7765 20.9272 20.7603 20.9271 20.7441C20.927 20.7279 20.9272 20.7118 20.9279 20.6956C20.9286 20.6794 20.9297 20.6633 20.9311 20.6472C20.9326 20.631 20.9345 20.615 20.9368 20.5989C20.939 20.5829 20.9417 20.5669 20.9448 20.551C21.3824 18.1994 19.8341 15.3627 16.1322 12.0753C16.1179 12.0627 16.104 12.0496 16.0905 12.0361C16.077 12.0227 16.0638 12.0088 16.0511 11.9946C16.0384 11.9804 16.0261 11.9658 16.0142 11.9509C16.0023 11.9359 15.9909 11.9207 15.9799 11.9051C15.9689 11.8895 15.9584 11.8736 15.9484 11.8574C15.9383 11.8412 15.9287 11.8247 15.9196 11.808C15.9105 11.7912 15.9019 11.7742 15.8938 11.757C15.8857 11.7397 15.8781 11.7222 15.871 11.7046C15.8639 11.6869 15.8574 11.669 15.8513 11.6509C15.8453 11.6329 15.8397 11.6146 15.8348 11.5963C15.8298 11.5779 15.8253 11.5594 15.8214 11.5407C15.8175 11.5221 15.8141 11.5034 15.8113 11.4845C15.8085 11.4657 15.8062 11.4468 15.8045 11.4278C15.8028 11.4089 15.8017 11.3899 15.8011 11.3709C15.8004 11.3518 15.8004 11.3328 15.8009 11.3138C15.8014 11.2947 15.8024 11.2757 15.8041 11.2567C15.8057 11.2378 15.8078 11.2189 15.8105 11.2C15.8132 11.1812 15.8165 11.1624 15.8203 11.1438C15.8241 11.1251 15.8284 11.1065 15.8333 11.0881C15.8382 11.0697 15.8436 11.0515 15.8496 11.0334C15.8555 11.0153 15.862 10.9974 15.869 10.9797C15.876 10.9619 15.8835 10.9444 15.8915 10.9271C15.8995 10.9098 15.908 10.8928 15.917 10.876C15.926 10.8592 15.9355 10.8427 15.9455 10.8264C15.9554 10.8101 15.9659 10.7942 15.9768 10.7786C15.9877 10.7629 15.999 10.7476 16.0108 10.7326C16.0226 10.7176 16.0348 10.7029 16.0474 10.6886C16.0601 10.6743 16.0731 10.6604 16.0866 10.6469C16.1001 10.6333 16.1139 10.6202 16.1281 10.6074C16.1423 10.5947 16.1569 10.5824 16.1718 10.5705C16.1868 10.5586 16.202 10.5471 16.2177 10.5361C16.2333 10.5251 16.2492 10.5145 16.2654 10.5044L16.3177 10.4488L16.376 10.3968C18.0396 9.00799 18.2394 6.17605 16.1001 4.54477C16.0872 4.53496 16.0746 4.52484 16.0622 4.51441C16.0499 4.50398 16.0378 4.49326 16.0259 4.48223C16.0141 4.4712 16.0025 4.45989 15.9912 4.44831C15.9799 4.43673 15.9689 4.42487 15.9582 4.41273C15.9475 4.40061 15.9371 4.38823 15.927 4.3756C15.917 4.36297 15.9072 4.3501 15.8977 4.337C15.8883 4.32389 15.8791 4.31055 15.8703 4.29698C15.8615 4.28342 15.8531 4.26966 15.845 4.25569C15.8369 4.24174 15.8291 4.22758 15.8217 4.21323C15.8142 4.19887 15.8072 4.18435 15.8005 4.16968C15.7938 4.15498 15.7874 4.14013 15.7815 4.12513C15.7755 4.11013 15.7699 4.09499 15.7647 4.07971C15.7595 4.06443 15.7546 4.04903 15.7502 4.03352C15.7457 4.01801 15.7416 4.0024 15.7379 3.98669C15.7342 3.97098 15.7309 3.95518 15.728 3.9393C15.7251 3.92344 15.7226 3.9075 15.7205 3.8915C15.7183 3.87551 15.7166 3.85948 15.7153 3.8434C15.7139 3.82732 15.713 3.81122 15.7125 3.79509C15.7119 3.77896 15.7118 3.76283 15.712 3.74669C15.7123 3.73056 15.713 3.71444 15.714 3.69833C15.7151 3.68223 15.7165 3.66617 15.7183 3.65013C15.7202 3.63411 15.7224 3.61814 15.7251 3.60222C15.7277 3.58629 15.7307 3.57044 15.7341 3.55467C15.7375 3.53889 15.7413 3.52321 15.7455 3.50763C15.7497 3.49204 15.7543 3.47657 15.7592 3.46121C15.7642 3.44584 15.7695 3.4306 15.7753 3.41551C15.7809 3.4004 15.787 3.38544 15.7935 3.37064C15.7999 3.35582 15.8067 3.34118 15.8139 3.3267C15.821 3.31224 15.8286 3.29795 15.8364 3.28384C15.8443 3.26973 15.8525 3.25582 15.8611 3.24211C15.8696 3.2284 15.8785 3.21491 15.8878 3.20164C15.897 3.18837 15.9065 3.17533 15.9164 3.16252C15.9263 3.14972 15.9364 3.13717 15.9469 3.12486C15.9574 3.11254 15.9682 3.10049 15.9793 3.08873C15.9904 3.07694 16.0017 3.06544 16.0134 3.05421C16.025 3.04298 16.0369 3.03204 16.0491 3.0214C16.0613 3.01074 16.0738 3.0004 16.0865 2.99037C16.0992 2.98033 16.1121 2.9706 16.1253 2.96119C16.1384 2.95179 16.1518 2.94272 16.1655 2.93397C16.1791 2.92521 16.1929 2.91679 16.207 2.90872C16.221 2.90065 16.2353 2.89293 16.2497 2.88555C16.2641 2.87817 16.2787 2.87115 16.2935 2.86448C16.3082 2.85781 16.3232 2.8515 16.3382 2.84555C16.3533 2.83962 16.3685 2.83406 16.3839 2.82885C16.3993 2.82366 16.4147 2.81885 16.4303 2.81441C16.4459 2.80997 16.4616 2.80591 16.4774 2.80223C16.4932 2.79857 16.5091 2.79529 16.5251 2.79239C16.541 2.7895 16.557 2.78698 16.5731 2.78486C16.5892 2.78275 16.6053 2.78103 16.6215 2.77971C16.6376 2.77838 16.6538 2.77745 16.67 2.77691C16.6862 2.77637 16.7025 2.77623 16.7187 2.7765C16.7349 2.77674 16.7511 2.77739 16.7673 2.77844C16.7835 2.77948 16.7996 2.78092 16.8157 2.78276C16.8319 2.78459 16.8479 2.78682 16.8639 2.78943C16.8799 2.79205 16.8959 2.79506 16.9117 2.79847C16.9276 2.80187 16.9433 2.80565 16.959 2.80981C16.9747 2.81399 16.9902 2.81854 17.0057 2.82347C17.0211 2.82838 17.0364 2.83368 17.0516 2.83936C17.0668 2.84503 17.0818 2.85107 17.0967 2.85748C17.1116 2.8639 17.1263 2.87067 17.1409 2.87778C17.1554 2.88492 17.1698 2.8924 17.184 2.90024C17.1982 2.90807 17.2121 2.91624 17.2259 2.92475C17.2397 2.93326 17.2533 2.9421 17.2666 2.95128C17.2799 2.96046 17.293 2.96995 17.3059 2.97977L17.3071 2.97977Z"   fill="#0054FE" >
</path>
</svg>
