<svg xmlns="http://www.w3.org/2000/svg" xmlns:xlink="http://www.w3.org/1999/xlink" viewBox="0 0 24 24" fill="none">
<path d="M19.1039 1.63144C19.5359 2.03144 19.8799 2.36344 20.1359 2.62744C20.3919 2.89144 20.5879 3.11543 20.7239 3.29944C20.8599 3.48344 20.9439 3.63944 20.9759 3.76744C21.0079 3.89543 21.0239 4.00744 21.0239 4.10344L21.0239 4.48744L17.4719 4.48744C17.3119 4.48744 17.1719 4.42744 17.0519 4.30744C16.9319 4.18744 16.8319 4.04744 16.7519 3.88744C16.6719 3.72743 16.6119 3.56344 16.5719 3.39544C16.5319 3.22744 16.5119 3.09544 16.5119 2.99944L16.5119 0.023438L16.5839 0.023438C16.7119 0.023438 16.8439 0.043438 16.9799 0.0834379C17.1159 0.123438 17.2719 0.199438 17.4479 0.311437C17.6239 0.423438 17.8439 0.583436 18.1079 0.791437C18.3719 0.999438 18.7039 1.27944 19.1039 1.63144ZM14.9999 3.02344C14.9999 3.34343 15.0479 3.67544 15.1439 4.01944C15.2399 4.36343 15.3919 4.68344 15.5999 4.97944C15.8079 5.27543 16.0719 5.51944 16.3919 5.71144C16.7119 5.90344 17.0879 5.99943 17.5199 5.99943L21.0239 5.99943L21.0239 19.5354C21.0239 19.9994 20.9319 20.4154 20.7479 20.7834C20.5639 21.1514 20.3199 21.4634 20.0159 21.7194C19.7119 21.9754 19.3759 22.1754 19.0079 22.3194C18.6399 22.4634 18.2799 22.5354 17.9279 22.5354L6.11993 22.5354C5.81592 22.5354 5.48392 22.4474 5.12393 22.2714C4.76393 22.0954 4.42793 21.8634 4.11593 21.5754C3.80393 21.2874 3.54393 20.9594 3.33593 20.5914C3.12793 20.2234 3.02393 19.8394 3.02393 19.4394L3.02393 3.11944C3.02393 2.78344 3.09993 2.43544 3.25193 2.07544C3.40392 1.71544 3.61193 1.38344 3.87593 1.07944C4.13993 0.775436 4.43993 0.523437 4.77593 0.323437C5.11193 0.123437 5.46393 0.0234373 5.83193 0.0234375L14.9999 0.0234375L14.9999 3.02344ZM16.5119 17.9994C16.9279 17.9994 17.2799 17.8514 17.5679 17.5554C17.8559 17.2594 17.9999 16.9034 17.9999 16.4874C17.9999 16.0714 17.8559 15.7194 17.5679 15.4314C17.2799 15.1434 16.9279 14.9994 16.5119 14.9994L7.51192 14.9994C7.09593 14.9994 6.74393 15.1434 6.45592 15.4314C6.16792 15.7194 6.02392 16.0714 6.02392 16.4874C6.02392 16.9034 6.16792 17.2594 6.45592 17.5554C6.74393 17.8514 7.09593 17.9994 7.51192 17.9994L16.5119 17.9994ZM17.9999 10.5114C17.9999 10.0954 17.8559 9.73943 17.5679 9.44343C17.2799 9.14744 16.9279 8.99943 16.5119 8.99943L7.51192 8.99943C7.09593 8.99943 6.74393 9.14744 6.45592 9.44343C6.16792 9.73943 6.02392 10.0954 6.02392 10.5114C6.02392 10.9274 6.16792 11.2794 6.45592 11.5674C6.74393 11.8554 7.09593 11.9994 7.51192 11.9994L16.5119 11.9994C16.9279 11.9994 17.2799 11.8554 17.5679 11.5674C17.8559 11.2794 17.9999 10.9274 17.9999 10.5114Z"   fill="#0054FE" >
</path>
</svg>
