<svg xmlns="http://www.w3.org/2000/svg" xmlns:xlink="http://www.w3.org/1999/xlink" viewBox="0 0 24 24" fill="none">
<path d="M22.9373 2.20522L21.7941 1.06201C21.751 1.01887 21.697 1 21.6404 1C21.5838 1 21.5299 1.02157 21.4867 1.06201L19.4349 3.11386C18.5263 2.49642 17.4693 2.18904 16.4124 2.18904C15.0319 2.18904 13.6515 2.71481 12.5972 3.76904L9.84975 6.51651C9.76616 6.6001 9.76616 6.73761 9.84975 6.82119L17.1754 14.1469C17.2186 14.19 17.2725 14.2089 17.3291 14.2089C17.3831 14.2089 17.4397 14.1873 17.4828 14.1469L20.2303 11.3994C22.088 9.539 22.3064 6.66211 20.8855 4.56443L22.9373 2.51259C23.0209 2.42631 23.0209 2.2888 22.9373 2.20522ZM13.8024 12.9336C13.7189 12.85 13.5813 12.85 13.4978 12.9336L11.7021 14.7293L9.26736 12.2946L11.0658 10.4962C11.1493 10.4126 11.1493 10.2751 11.0658 10.1915L10.0843 9.21006C10.0007 9.12648 9.86323 9.12648 9.77964 9.21006L7.98125 11.0085L6.82186 9.84907C6.77872 9.80593 6.7248 9.78706 6.66818 9.78706C6.61425 9.78706 6.55763 9.80863 6.51449 9.84907L3.76972 12.5965C1.912 14.4543 1.69361 17.3338 3.11453 19.4315L1.06269 21.4834C0.979104 21.5669 0.979104 21.7045 1.06269 21.788L2.20589 22.9312C2.24903 22.9744 2.30296 22.9933 2.35958 22.9933C2.4162 22.9933 2.47013 22.9717 2.51327 22.9312L4.56511 20.8794C5.47374 21.4968 6.53067 21.8042 7.5876 21.8042C8.96807 21.8042 10.3486 21.2785 11.4028 20.2242L14.1503 17.4767C14.2338 17.3932 14.2338 17.2557 14.1503 17.1721L12.9909 16.0127L14.7893 14.2143C14.8728 14.1307 14.8728 13.9932 14.7893 13.9096L13.8024 12.9336Z"   fill="#858C94" >
</path>
</svg>
