<svg xmlns="http://www.w3.org/2000/svg" xmlns:xlink="http://www.w3.org/1999/xlink" viewBox="0 0 24 24" fill="none">
<path d="M20.6753 10.201C20.6407 10.0299 20.5714 9.90486 20.4623 9.76619C20.353 9.62779 20.204 9.47514 19.9994 9.35295C19.7948 9.23076 19.5346 9.13821 19.2545 9.01883C18.9744 8.89945 18.675 8.7532 18.4178 8.56167C18.1602 8.37015 17.9454 8.13307 17.7271 7.80734C17.5091 7.48131 17.2883 7.06668 17.1852 6.65707C17.0818 6.24718 17.0963 5.8426 17.1468 5.49309C17.1973 5.1436 17.2835 4.84863 17.3267 4.60902C17.37 4.36911 17.37 4.18431 17.2988 4.00957C17.2277 3.8348 17.0853 3.67014 16.7475 3.41652C16.4094 3.1632 15.8748 2.82126 15.4855 2.56879C15.0958 2.31632 14.8512 2.15329 14.6017 2.07167C14.352 1.99029 14.098 1.99029 13.8292 2.08284C13.5606 2.17539 13.2773 2.36048 12.877 2.6742C12.4766 2.98761 11.9583 3.42995 10.8603 3.42995C9.76257 3.42995 9.24457 2.98761 8.84393 2.6742C8.44328 2.36048 8.16028 2.17539 7.89174 2.08284C7.62294 1.99029 7.36864 1.99029 7.11918 2.07167C6.86946 2.15302 6.62481 2.31632 6.23547 2.56879C5.8461 2.82126 5.31146 3.1632 4.97338 3.41652C4.63503 3.66983 4.49298 3.83452 4.42181 4.00957C4.35093 4.18458 4.35093 4.36911 4.39389 4.60902C4.43712 4.84863 4.52333 5.1436 4.5738 5.49309C4.62428 5.84288 4.63851 6.24745 4.53539 6.65707C4.4323 7.06695 4.21183 7.48161 3.9938 7.80734C3.77602 8.13307 3.56065 8.36987 3.30339 8.56167C3.04587 8.7535 2.74646 8.89945 2.46668 9.01883C2.1866 9.13821 1.92664 9.23076 1.72177 9.35295C1.51687 9.47514 1.36812 9.62752 1.25882 9.76619C1.14953 9.90486 1.08024 10.0299 1.04563 10.201C1.01099 10.3721 1.01099 10.5893 1.01099 11.6361C1.01099 12.6827 1.01099 12.9002 1.04563 13.0713C1.08053 13.2424 1.14927 13.3677 1.25882 13.5061C1.36812 13.6445 1.5169 13.7971 1.72177 13.9196C1.92664 14.0421 2.1866 14.1343 2.46668 14.2537C2.74646 14.3731 3.04616 14.5194 3.30339 14.7109C3.56039 14.9024 3.77573 15.1395 3.9938 15.4652C4.21157 15.791 4.43256 16.2056 4.53542 16.6152C4.63851 17.0251 4.62428 17.4297 4.5738 17.7792C4.52333 18.1287 4.43712 18.4236 4.39389 18.6633C4.35067 18.9029 4.35067 19.0877 4.42181 19.2627C4.49298 19.4375 4.63503 19.6021 4.97338 19.8558C5.31146 20.1091 5.8461 20.451 6.23547 20.7035C6.6251 20.956 6.86972 21.119 7.11918 21.2003C7.3689 21.2817 7.62294 21.2817 7.89174 21.1891C8.16028 21.0966 8.44331 20.9112 8.84393 20.5978C9.24431 20.2844 9.76257 19.8421 10.8603 19.8421C11.9583 19.8421 12.4763 20.2841 12.8772 20.5987C13.2779 20.9121 13.5609 21.0974 13.8294 21.19C14.0982 21.2825 14.3525 21.2825 14.602 21.2012C14.8517 21.1198 15.0963 20.9565 15.4857 20.7041C15.5354 20.6719 15.587 20.6386 15.6406 20.6037C15.8617 20.4605 15.743 20.2628 15.6125 20.0845C15.4819 19.9061 15.3394 19.7467 15.1962 19.643C15.0536 19.5395 14.9108 19.4917 14.754 19.4145C14.5972 19.3377 14.4264 19.2314 14.3219 19.1305C14.2172 19.0298 14.1791 18.9339 14.16 18.8171C14.1409 18.7002 14.1409 18.5623 14.1409 18.3339L14.1409 17.5812C14.1409 17.3754 14.1409 17.2826 14.1753 17.2217C14.2097 17.1607 14.2787 17.1314 14.4304 17.0824C14.5821 17.0332 14.8165 16.9642 14.9951 16.8727C15.1737 16.7813 15.2959 16.667 15.4387 16.4679C15.5816 16.2688 15.7446 15.9847 15.8071 15.7191C15.8697 15.4535 15.8316 15.2066 15.8058 15.0075C15.7803 14.8085 15.7677 14.6572 15.7741 14.5364C15.7803 14.4156 15.8058 14.3253 15.8646 14.2456C15.9232 14.1659 16.015 14.0969 16.1554 14.0015C16.2956 13.9056 16.4844 13.7837 16.6232 13.6909C16.762 13.5978 16.8514 13.534 16.9661 13.4812C17.0808 13.4278 17.2209 13.3856 17.3267 13.3735C17.4328 13.3615 17.504 13.3803 17.5805 13.4518C17.657 13.5234 17.7387 13.6481 17.8863 13.7703C18.0343 13.8925 18.2486 14.0119 18.5574 14.1008C18.8662 14.1897 19.2695 14.2476 19.5939 14.1137C19.7432 14.0516 19.881 13.9906 19.9997 13.9193C20.2043 13.7969 20.3533 13.6448 20.4626 13.5058C20.5716 13.3671 20.6409 13.2422 20.6756 13.071C20.7102 12.8999 20.7102 12.6824 20.7102 11.6359C20.7099 10.5893 20.7099 10.3721 20.6753 10.201ZM14.7263 12.2876C14.6471 12.797 14.4782 13.2802 14.2244 13.7236C13.9487 14.2051 13.588 14.6153 13.1514 14.9432C12.7148 15.2709 12.2274 15.4982 11.7016 15.6185C11.5637 15.6502 11.4245 15.674 11.2841 15.6899C11.1437 15.7059 11.0029 15.7138 10.8617 15.7138C10.6527 15.7138 10.4436 15.6962 10.2349 15.6609C9.74567 15.5785 9.28165 15.4026 8.85602 15.1384C8.39388 14.8515 7.9997 14.4757 7.68498 14.0211C7.37027 13.5665 7.15194 13.0587 7.03647 12.5115C6.93013 12.0075 6.91619 11.4935 6.99539 10.9841C7.07462 10.4747 7.24352 9.99155 7.49727 9.54837C7.7728 9.06719 8.1337 8.65676 8.57032 8.32879C9.00694 8.0011 9.49485 7.77377 10.0201 7.65354C10.504 7.54283 10.9978 7.52828 11.4868 7.61077C11.976 7.69324 12.4401 7.86913 12.8657 8.13334C13.3281 8.42049 13.722 8.79597 14.037 9.25062C14.352 9.70524 14.57 10.2133 14.6855 10.7602C14.7918 11.2646 14.8055 11.7782 14.7263 12.2876Z"   fill="#858C94" >
</path>
<path d="M20.3872 22C20.3324 22 20.2771 21.9905 20.2207 21.9709C20.1179 21.9354 20.0094 21.8683 19.8346 21.7313L19.8158 21.7165C19.6619 21.5954 19.4511 21.4299 19.0303 21.4299C18.6096 21.4299 18.3988 21.5957 18.2449 21.7165L18.2261 21.7313C18.0513 21.8683 17.9431 21.9354 17.84 21.9709C17.7315 22.0084 17.6276 22.0098 17.5229 21.9754C17.4264 21.9438 17.3319 21.8826 17.1885 21.7894L17.1171 21.7433C16.9667 21.646 16.7798 21.525 16.6566 21.433C16.5258 21.3351 16.4627 21.2669 16.4313 21.1897C16.4039 21.1223 16.4004 21.0485 16.4195 20.9423C16.4262 20.9048 16.4356 20.8634 16.4458 20.8198C16.4616 20.7508 16.4796 20.6725 16.492 20.5869C16.5169 20.4141 16.5118 20.2628 16.4766 20.1233C16.4415 19.983 16.3644 19.8202 16.2605 19.6645C16.1721 19.5325 16.0873 19.4397 15.9852 19.3639C15.8725 19.2798 15.7406 19.2194 15.6509 19.1814C15.6211 19.1688 15.5921 19.157 15.5642 19.1453C15.4858 19.1134 15.4117 19.083 15.3502 19.046C15.2787 19.0033 15.217 18.9482 15.1611 18.8772C15.112 18.8145 15.0865 18.7625 15.0733 18.6974C15.0591 18.6275 15.0591 18.5397 15.0591 18.118C15.0591 17.6964 15.0591 17.6086 15.0733 17.5387C15.0865 17.4739 15.112 17.4219 15.1611 17.3589C15.217 17.2882 15.2787 17.2328 15.3502 17.1901C15.4114 17.1535 15.4855 17.1232 15.5639 17.0911C15.5921 17.0794 15.6214 17.0676 15.6509 17.055C15.7401 17.017 15.8722 16.9566 15.9852 16.8725C16.0873 16.7967 16.1719 16.7038 16.2605 16.5719C16.3647 16.4162 16.4412 16.2534 16.4766 16.1131C16.5116 15.9738 16.5167 15.822 16.492 15.6495C16.4796 15.5639 16.4619 15.4857 16.4458 15.4169C16.4358 15.3732 16.4264 15.3322 16.4195 15.2944C16.4004 15.1884 16.4041 15.1143 16.4313 15.047C16.4627 14.9701 16.5258 14.9018 16.6566 14.8037C16.7796 14.7117 16.9662 14.5907 17.1166 14.4936L17.1882 14.4472C17.3314 14.3544 17.4259 14.2929 17.5226 14.2616C17.6276 14.2272 17.7312 14.2286 17.8397 14.266C17.9425 14.3015 18.0508 14.3686 18.2258 14.5057L18.2446 14.5205C18.3985 14.6416 18.6096 14.8073 19.0301 14.8073C19.4509 14.8073 19.6617 14.6416 19.8155 14.5205L19.8343 14.5057C20.0091 14.3689 20.1176 14.3015 20.2205 14.266C20.3287 14.2286 20.4326 14.2272 20.5373 14.2616C20.6337 14.2929 20.7282 14.3544 20.8714 14.4472L20.9439 14.4942C21.094 14.5912 21.2804 14.7117 21.4031 14.8037C21.5339 14.9016 21.5969 14.9701 21.6284 15.047C21.6558 15.1146 21.6592 15.1887 21.6402 15.2944C21.6335 15.3319 21.6241 15.3732 21.6139 15.4169C21.598 15.4857 21.58 15.5639 21.5677 15.6498C21.5427 15.8223 21.5478 15.9738 21.583 16.1133C21.6182 16.2534 21.6952 16.4167 21.7991 16.5722C21.8875 16.7041 21.9724 16.7967 22.0741 16.8727C22.1869 16.9569 22.319 17.0173 22.4082 17.0553C22.438 17.0682 22.467 17.0799 22.4952 17.0914C22.5736 17.1232 22.6477 17.1537 22.7089 17.1901C22.7804 17.2328 22.8421 17.2879 22.898 17.3589C22.9471 17.4216 22.9726 17.4736 22.9858 17.5387C23 17.6086 23 17.6964 23 18.118C23 18.5397 23 18.6275 22.9858 18.6974C22.9726 18.7625 22.9471 18.8142 22.898 18.8772C22.8421 18.9482 22.7804 19.0033 22.7089 19.046C22.6477 19.0827 22.5736 19.1129 22.4949 19.145C22.4667 19.1568 22.4377 19.1685 22.4082 19.1811C22.319 19.2194 22.1869 19.2798 22.0741 19.3636C21.9724 19.4397 21.8875 19.5325 21.7991 19.6642C21.695 19.82 21.6182 19.9827 21.583 20.1231C21.5478 20.2623 21.543 20.4138 21.5677 20.5866C21.58 20.6722 21.5978 20.7505 21.6139 20.8195C21.6238 20.8631 21.6332 20.9042 21.6402 20.942C21.6592 21.048 21.6555 21.122 21.6284 21.1894C21.5969 21.2663 21.5339 21.3345 21.4031 21.4327C21.2804 21.5247 21.0935 21.6455 20.9436 21.7425L20.8714 21.7892C20.7283 21.882 20.6337 21.9432 20.5371 21.9748C20.4874 21.9919 20.4374 22 20.3872 22ZM19.0303 21.4075C19.4584 21.4075 19.6724 21.5758 19.8287 21.6988L19.8472 21.7137C20.0199 21.849 20.1265 21.9153 20.2269 21.9499C20.3308 21.9857 20.4305 21.9874 20.5309 21.9544C20.6249 21.9239 20.7183 21.863 20.8604 21.771L20.9326 21.7243C21.0822 21.6276 21.2688 21.5065 21.3907 21.4151C21.5183 21.3197 21.5792 21.254 21.6088 21.1813C21.6343 21.1184 21.6375 21.048 21.6192 20.9467C21.6125 20.9098 21.6031 20.8687 21.5932 20.8254C21.5773 20.756 21.5593 20.6772 21.5467 20.5908C21.5215 20.4152 21.5266 20.2606 21.5623 20.1183C21.5983 19.9757 21.6762 19.8102 21.7817 19.6525C21.8717 19.5183 21.9578 19.4238 22.0618 19.3463C22.1764 19.261 22.3099 19.1998 22.4004 19.1615C22.4299 19.1486 22.4592 19.1369 22.4874 19.1254C22.5652 19.0935 22.6383 19.0636 22.6985 19.0279C22.7677 18.9865 22.8273 18.9331 22.8816 18.864C22.9286 18.8045 22.9527 18.7553 22.9651 18.694C22.9788 18.6264 22.9788 18.5388 22.9788 18.1194C22.9788 17.6998 22.9788 17.6123 22.9651 17.5449C22.9527 17.4836 22.9286 17.4344 22.8816 17.3749C22.8276 17.3064 22.7675 17.2524 22.6985 17.211C22.6386 17.1752 22.5652 17.1453 22.4874 17.1135C22.4592 17.102 22.4299 17.09 22.4001 17.0774C22.3096 17.0388 22.1762 16.9776 22.0615 16.8923C21.9576 16.8149 21.8708 16.7206 21.7814 16.5862C21.6762 16.4285 21.598 16.2629 21.562 16.1203C21.5261 15.978 21.521 15.8237 21.5465 15.6481C21.5591 15.5612 21.5771 15.4829 21.5929 15.4135C21.6029 15.3702 21.6122 15.3294 21.619 15.2922C21.6372 15.191 21.634 15.1208 21.6085 15.0576C21.5787 14.9849 21.5177 14.9192 21.3904 14.8238C21.2685 14.7324 21.0822 14.6122 20.9326 14.5152L20.8598 14.4682C20.718 14.3762 20.6243 14.3155 20.5306 14.2848C20.4299 14.2518 20.3306 14.2535 20.2267 14.2893C20.1259 14.3239 20.0196 14.3902 19.8469 14.5255L19.8282 14.5403C19.6716 14.6633 19.4578 14.8317 19.0295 14.8317C18.6018 14.8317 18.3875 14.6631 18.2312 14.5403L18.2124 14.5255C18.0397 14.3902 17.9331 14.3239 17.8324 14.2893C17.7285 14.2535 17.6292 14.2518 17.5285 14.2848C17.4345 14.3155 17.3408 14.3762 17.199 14.4682L17.1273 14.5146C16.9775 14.6113 16.7908 14.7321 16.6687 14.8236C16.5414 14.9189 16.4802 14.9843 16.4506 15.0573C16.4251 15.1205 16.4219 15.1907 16.4401 15.2919C16.4468 15.3288 16.4562 15.3699 16.4662 15.4132C16.482 15.4826 16.5 15.5612 16.5126 15.6478C16.5381 15.8234 16.5328 15.978 16.4971 16.1201C16.4611 16.2629 16.3832 16.4282 16.2777 16.5859C16.188 16.7201 16.1015 16.8146 15.9976 16.892C15.8829 16.9773 15.7495 17.0385 15.659 17.0771C15.6294 17.0897 15.6002 17.1017 15.5717 17.1132C15.4938 17.1451 15.4208 17.175 15.3606 17.2108C15.2914 17.2521 15.2315 17.3058 15.1775 17.3746C15.1305 17.4341 15.1064 17.4836 15.094 17.5446C15.0803 17.612 15.0803 17.6995 15.0803 18.1192C15.0803 18.5388 15.0803 18.6264 15.094 18.6937C15.1066 18.7547 15.1305 18.8042 15.1775 18.8637C15.2317 18.9325 15.2916 18.9862 15.3606 19.0276C15.4205 19.0634 15.4941 19.0933 15.5717 19.1252C15.5999 19.1369 15.6292 19.1486 15.6587 19.1612C15.7492 19.1998 15.8827 19.261 15.9973 19.3461C16.1013 19.4235 16.1877 19.518 16.2774 19.6522C16.3829 19.8099 16.4608 19.9754 16.4968 20.118C16.5328 20.2603 16.5379 20.4149 16.5124 20.5905C16.4998 20.6772 16.4818 20.7558 16.4659 20.8251C16.456 20.8684 16.4466 20.9093 16.4399 20.9464C16.4216 21.0477 16.4248 21.1181 16.4503 21.181C16.4802 21.2537 16.5408 21.3194 16.6684 21.4148C16.7906 21.5065 16.9775 21.6273 17.1276 21.7243L17.1987 21.7704C17.3405 21.8624 17.4342 21.9231 17.5282 21.9539C17.6286 21.9868 17.7282 21.9854 17.8322 21.9494C17.9326 21.9147 18.0392 21.8484 18.2122 21.7131L18.2309 21.6983C18.3883 21.5758 18.6026 21.4075 19.0303 21.4075Z"   fill="#858C94" >
</path>
<path d="M7.48602 21.2716C7.3625 21.2716 7.23952 21.2514 7.11599 21.2109C6.87807 21.1329 6.64339 20.9808 6.28841 20.7504L6.10742 20.6335C5.73495 20.3925 5.27122 20.0925 4.96697 19.8646C4.64419 19.6228 4.48846 19.455 4.41192 19.2666C4.34507 19.1019 4.33646 18.9207 4.38346 18.6607C4.40039 18.5676 4.42375 18.4658 4.44816 18.3576C4.48739 18.1859 4.53223 17.9911 4.56311 17.7769C4.62515 17.3454 4.61277 16.9663 4.5247 16.6174C4.43636 16.2668 4.24462 15.8594 3.98443 15.4708C3.7637 15.1408 3.55155 14.909 3.29646 14.7192C3.01451 14.5095 2.68503 14.3582 2.46186 14.2634C2.38803 14.2321 2.31578 14.2025 2.24571 14.1737C2.05101 14.094 1.86736 14.0191 1.71591 13.9288C1.54 13.8236 1.38774 13.6875 1.25027 13.5127C1.12944 13.3592 1.06714 13.232 1.0349 13.0732C1 12.901 1 12.6832 1 11.6358C1 10.5887 1 10.3706 1.0349 10.1984C1.06714 10.0396 1.12944 9.91234 1.25027 9.75884C1.38774 9.5841 1.54029 9.44793 1.71591 9.3428C1.86736 9.25221 2.05101 9.17729 2.24545 9.0976C2.31578 9.06908 2.38803 9.03916 2.46215 9.00783C2.68529 8.91278 3.01451 8.76179 3.29673 8.55209C3.55184 8.36226 3.76396 8.13046 3.98469 7.80054C4.24491 7.41163 4.43662 7.00452 4.52499 6.65392C4.61277 6.30525 4.62515 5.92585 4.56311 5.49441C4.53223 5.28024 4.48739 5.08564 4.44816 4.91371C4.42346 4.80577 4.4001 4.70344 4.38346 4.61062C4.33646 4.3506 4.34507 4.16943 4.41192 4.00474C4.48846 3.81656 4.64419 3.64879 4.96697 3.40695C5.27149 3.1788 5.7355 2.87852 6.10849 2.63722L6.28812 2.52091C6.64313 2.29051 6.87781 2.13841 7.11573 2.06068C7.37377 1.97625 7.62863 1.97987 7.89473 2.07188C8.14903 2.15966 8.41702 2.32574 8.85016 2.66517L8.89686 2.70209C9.28142 3.0046 9.80826 3.41869 10.8601 3.41869C11.9122 3.41869 12.4388 3.0046 12.8233 2.70209L12.87 2.66517C13.3034 2.32604 13.5711 2.15966 13.8257 2.07188C14.0921 1.98018 14.3469 1.97652 14.6047 2.06068C14.8426 2.13841 15.0773 2.29051 15.4323 2.52091L15.6122 2.63749C15.9849 2.87852 16.4489 3.1788 16.7535 3.40695C17.0762 3.64879 17.232 3.81656 17.3085 4.00474C17.3754 4.16913 17.384 4.3506 17.337 4.61062C17.3203 4.70344 17.2967 4.80577 17.2723 4.91371C17.233 5.08537 17.1882 5.28024 17.1573 5.49441C17.0953 5.92585 17.1077 6.30525 17.1957 6.65392C17.2838 7.00452 17.4758 7.41163 17.736 7.80054C17.957 8.13046 18.1689 8.36226 18.424 8.55209C18.7059 8.76179 19.0354 8.91305 19.2583 9.00783C19.3319 9.03944 19.4047 9.06881 19.4748 9.0976C19.6692 9.17699 19.8528 9.25221 20.0043 9.3428C20.1802 9.44793 20.3327 9.5841 20.4699 9.75884C20.5907 9.91234 20.653 10.0396 20.6853 10.1984C20.7199 10.3706 20.7199 10.5884 20.7199 11.6358C20.7199 12.6829 20.7199 12.901 20.6853 13.0732C20.653 13.232 20.5907 13.3595 20.4699 13.5127C20.3324 13.6875 20.1802 13.8236 20.0043 13.9288C19.881 14.0026 19.7358 14.0661 19.5972 14.1236C19.2578 14.264 18.8424 14.1944 18.5537 14.1113C18.2766 14.0317 18.0496 13.9198 17.8792 13.7789C17.7854 13.7014 17.7172 13.6218 17.6622 13.5577C17.6291 13.5192 17.6004 13.4859 17.5725 13.4599C17.5008 13.3928 17.4342 13.3721 17.3271 13.3844C17.2247 13.3961 17.0846 13.4378 16.9694 13.4912C16.8706 13.5368 16.7911 13.5905 16.681 13.6646L16.6281 13.7001C16.5728 13.737 16.5097 13.7786 16.4447 13.8214C16.3464 13.8863 16.2446 13.9531 16.1603 14.0107C16.0169 14.1086 15.9288 14.1759 15.8722 14.2525C15.8168 14.3278 15.7903 14.413 15.7838 14.5372C15.7779 14.6471 15.7876 14.7871 15.8155 15.0063L15.8204 15.0424C15.8451 15.2331 15.8759 15.4702 15.8166 15.7218C15.7419 16.0392 15.5327 16.354 15.4463 16.4745C15.3005 16.6778 15.1751 16.7924 14.9989 16.8827C14.844 16.9621 14.6447 17.0256 14.4989 17.072C14.4756 17.0795 14.4533 17.0865 14.4326 17.0933C14.2763 17.1439 14.2153 17.1718 14.1836 17.2278C14.1506 17.2862 14.1506 17.3787 14.1506 17.5817L14.1506 18.3344C14.1506 18.5623 14.1506 18.6998 14.1697 18.8156C14.1909 18.9453 14.2368 19.0345 14.3281 19.1226C14.4221 19.2134 14.583 19.3188 14.7575 19.405C14.8031 19.4273 14.8477 19.4472 14.891 19.4668C14.9981 19.5148 15.0993 19.5601 15.2014 19.6343C15.334 19.7304 15.4748 19.8797 15.62 20.0777C15.7041 20.1923 15.7916 20.3246 15.7704 20.4462C15.7591 20.5105 15.7172 20.5667 15.6455 20.6134L15.4321 20.7518C15.0771 20.9819 14.8426 21.1343 14.6044 21.212C14.3464 21.2962 14.0915 21.2925 13.8254 21.2008C13.5711 21.113 13.3032 20.9467 12.8698 20.6078L12.8228 20.5709C12.4382 20.2684 11.9114 19.8543 10.8596 19.8543C9.80745 19.8543 9.28087 20.2687 8.89634 20.5709L8.84961 20.6078C8.41621 20.9472 8.14851 21.1133 7.89421 21.2008C7.75618 21.2475 7.62031 21.2716 7.48602 21.2716ZM10.8603 19.8308C11.9194 19.8308 12.4495 20.2477 12.8364 20.5519L12.8832 20.5888C13.3144 20.9262 13.5805 21.0918 13.8324 21.1787C14.0942 21.2691 14.3448 21.2727 14.5983 21.1896C14.8338 21.1128 15.0671 20.9612 15.4208 20.7317L15.6342 20.5933C15.7014 20.5497 15.739 20.4999 15.7494 20.4412C15.769 20.3288 15.6844 20.2013 15.6031 20.0905C15.4594 19.8943 15.3203 19.7466 15.1893 19.6516C15.0891 19.5789 14.9887 19.5339 14.8826 19.4863C14.8391 19.4668 14.7943 19.4466 14.7486 19.424C14.5722 19.3373 14.4095 19.2302 14.3139 19.1379C14.2188 19.046 14.1708 18.9534 14.1487 18.8184C14.1294 18.7007 14.1294 18.5626 14.1294 18.3333L14.1294 17.5806C14.1294 17.3734 14.1294 17.2789 14.1651 17.2152C14.2022 17.1492 14.2768 17.1193 14.4262 17.0706C14.4471 17.0639 14.4691 17.0566 14.4927 17.0494C14.6378 17.0032 14.8362 16.94 14.9895 16.8615C15.1624 16.7726 15.2857 16.6602 15.4291 16.46C15.5147 16.3406 15.7218 16.0288 15.7959 15.7154C15.8542 15.4677 15.8236 15.2331 15.7991 15.0441L15.7943 15.008C15.7658 14.7874 15.7564 14.6459 15.7623 14.5346C15.769 14.4074 15.7975 14.3157 15.855 14.2377C15.9132 14.1586 16.0029 14.0901 16.1482 13.9911C16.2325 13.9335 16.3343 13.8667 16.4329 13.8018C16.4978 13.7591 16.5609 13.7177 16.616 13.6808L16.6689 13.6453C16.78 13.5706 16.8601 13.5166 16.9603 13.47C17.0792 13.4152 17.2186 13.3735 17.3241 13.3615C17.4369 13.3486 17.5102 13.3715 17.5862 13.4428C17.6149 13.4697 17.6439 13.5035 17.6775 13.5426C17.7317 13.6061 17.7994 13.685 17.8915 13.761C18.0599 13.9002 18.2844 14.0104 18.5585 14.0893C18.844 14.1715 19.2545 14.2403 19.5886 14.1024C19.7264 14.0451 19.8708 13.9819 19.993 13.9089C20.1667 13.8049 20.3168 13.6707 20.453 13.4979C20.5714 13.3475 20.6324 13.2231 20.664 13.0679C20.6984 12.8979 20.6984 12.6804 20.6984 11.6352C20.6984 10.5898 20.6984 10.3726 20.664 10.2026C20.6326 10.0477 20.5717 9.92299 20.453 9.77255C20.3171 9.59977 20.1667 9.46556 19.993 9.36182C19.8429 9.27207 19.66 9.19743 19.4661 9.11828C19.3961 9.08948 19.3233 9.05987 19.2494 9.02827C19.0252 8.93291 18.6944 8.78111 18.4106 8.56999C18.1533 8.37847 17.9396 8.14501 17.7175 7.81313C17.456 7.42226 17.2629 7.01264 17.1743 6.6595C17.0856 6.30805 17.073 5.92558 17.1356 5.49109C17.1665 5.27577 17.2113 5.08063 17.2511 4.9084C17.2758 4.80048 17.2991 4.6987 17.3158 4.60642C17.3617 4.35118 17.3536 4.17362 17.2887 4.0134C17.2137 3.82942 17.0604 3.66419 16.7409 3.42512C16.4369 3.19755 15.9734 2.89754 15.6007 2.65651L15.4208 2.53993C15.0671 2.31037 14.8335 2.15911 14.598 2.08196C14.3445 1.99919 14.094 2.00281 13.8322 2.09286C13.5803 2.17979 13.3142 2.34505 12.8829 2.6828L12.8362 2.71972C12.449 3.0242 11.9192 3.44078 10.8601 3.44078C9.80101 3.44078 9.27093 3.02392 8.88399 2.71972L8.837 2.6828C8.406 2.34533 8.13964 2.17979 7.88774 2.09286C7.62593 2.00254 7.3754 1.99889 7.12191 2.08193C6.88642 2.15884 6.65279 2.31064 6.29913 2.53993L6.11948 2.65624C5.74678 2.89727 5.28328 3.19725 4.97906 3.42512C4.65976 3.66419 4.50591 3.82942 4.43126 4.0134C4.366 4.17362 4.35794 4.35087 4.40386 4.60642C4.42024 4.6987 4.44387 4.80075 4.46857 4.9084C4.50806 5.08063 4.5529 5.27608 4.58404 5.49109C4.64663 5.92585 4.63399 6.30778 4.54539 6.6595C4.45651 7.01237 4.26344 7.42226 4.00215 7.81313C3.78008 8.14528 3.56605 8.37877 3.30908 8.56999C3.02523 8.78138 2.69442 8.93291 2.47018 9.02827C2.39635 9.05987 2.32358 9.08948 2.25348 9.11828C2.05988 9.19743 1.87675 9.27207 1.72664 9.36212C1.55316 9.46583 1.40279 9.60031 1.26691 9.77312C1.14849 9.92353 1.08755 10.048 1.05613 10.2031C1.02174 10.3731 1.02174 10.5907 1.02174 11.6358C1.02174 12.6809 1.02174 12.8985 1.05613 13.0685C1.08755 13.2236 1.14849 13.348 1.26691 13.4985C1.40279 13.6713 1.55316 13.8055 1.72664 13.9095C1.87675 13.9992 2.05988 14.0742 2.25377 14.1533C2.32413 14.1818 2.39635 14.2117 2.47047 14.243C2.69468 14.339 3.02552 14.4902 3.30934 14.7016C3.56634 14.8931 3.78034 15.1266 4.00241 15.4584C4.2637 15.8493 4.45703 16.2589 4.54566 16.6121C4.63425 16.9638 4.64689 17.346 4.58433 17.7805C4.55343 17.9955 4.50861 18.1907 4.46886 18.3632C4.44413 18.4711 4.42079 18.5729 4.40413 18.6652C4.3582 18.9207 4.36626 19.098 4.43152 19.2582C4.50617 19.4424 4.65976 19.6074 4.97932 19.8465C5.28302 20.0741 5.74623 20.3738 6.11841 20.6145L6.29939 20.7317C6.65305 20.9612 6.88668 21.1125 7.12217 21.1896C7.37566 21.2724 7.62619 21.2688 7.88803 21.1787C8.1399 21.0918 8.40629 20.9263 8.83726 20.5888L8.88425 20.5519C9.27148 20.2477 9.80127 19.8308 10.8603 19.8308Z"   fill="#858C94" >
</path>
<path d="M10.8608 13.8636C11.429 13.8636 11.972 13.6293 12.3737 13.211C12.3985 13.1853 12.4226 13.1589 12.4462 13.1319C12.4697 13.1048 12.4926 13.0773 12.5148 13.0491C12.537 13.0209 12.5585 12.9922 12.5794 12.9629C12.6003 12.9336 12.6205 12.9038 12.6399 12.8735C12.6594 12.8432 12.6781 12.8124 12.6961 12.7811C12.7141 12.7499 12.7314 12.7181 12.7479 12.686C12.7644 12.6539 12.7801 12.6213 12.7951 12.5883C12.8101 12.5554 12.8243 12.5221 12.8377 12.4884C12.8511 12.4547 12.8637 12.4207 12.8755 12.3863C12.8873 12.352 12.8983 12.3174 12.9084 12.2825C12.9186 12.2476 12.9279 12.2125 12.9364 12.1771C12.9449 12.1418 12.9526 12.1062 12.9595 12.0704C12.9663 12.0347 12.9722 11.9988 12.9774 11.9627C12.9825 11.9266 12.9868 11.8904 12.9902 11.8541C12.9936 11.8179 12.9962 11.7815 12.9979 11.7451C12.9996 11.7087 13.0005 11.6723 13.0004 11.6358C13.0004 11.0442 12.7757 10.4791 12.3737 10.0605C12.349 10.0347 12.3236 10.0096 12.2977 9.98507C12.2717 9.96058 12.2452 9.93676 12.2182 9.91362C12.1912 9.89048 12.1636 9.86804 12.1354 9.84631C12.1073 9.82458 12.0787 9.80358 12.0496 9.78331C12.0205 9.76305 11.9909 9.74354 11.9609 9.72478C11.9308 9.70603 11.9004 9.68806 11.8695 9.67087C11.8386 9.65369 11.8074 9.6373 11.7757 9.6217C11.744 9.60611 11.712 9.59132 11.6797 9.57736C11.6473 9.56341 11.6147 9.5503 11.5817 9.53803C11.5487 9.52573 11.5155 9.51429 11.482 9.50371C11.4485 9.49314 11.4147 9.48343 11.3808 9.47458C11.3468 9.46572 11.3126 9.45773 11.2783 9.45061C11.2439 9.44351 11.2094 9.43729 11.1748 9.43196C11.1401 9.4266 11.1054 9.42214 11.0706 9.41858C11.0357 9.41502 11.0008 9.41236 10.9658 9.41058C10.9308 9.40881 10.8958 9.40794 10.8608 9.40796C10.8258 9.40794 10.7908 9.40881 10.7558 9.41058C10.7209 9.41236 10.6859 9.41502 10.6511 9.41858C10.6162 9.42214 10.5815 9.4266 10.5469 9.43196C10.5122 9.43729 10.4777 9.44351 10.4434 9.45061C10.409 9.45773 10.3749 9.46572 10.3409 9.47458C10.3069 9.48343 10.2732 9.49314 10.2397 9.50371C10.2062 9.51429 10.1729 9.52573 10.1399 9.53803C10.107 9.5503 10.0743 9.56342 10.042 9.57739C10.0096 9.59133 9.97763 9.60611 9.94597 9.6217C9.91432 9.6373 9.88304 9.65369 9.85216 9.67087C9.82128 9.68806 9.79082 9.70603 9.76078 9.72478C9.73075 9.74354 9.70118 9.76305 9.67207 9.78331C9.64297 9.80358 9.61435 9.82458 9.58623 9.84631C9.55811 9.86804 9.53052 9.89048 9.50346 9.91362C9.47641 9.93676 9.44991 9.96058 9.42397 9.98507C9.39804 10.0096 9.37269 10.0347 9.34793 10.0605C9.32315 10.0863 9.29901 10.1127 9.27549 10.1397C9.25197 10.1667 9.22908 10.1943 9.20684 10.2225C9.18463 10.2506 9.16309 10.2794 9.14222 10.3086C9.12134 10.3379 9.10118 10.3677 9.08171 10.398C9.06225 10.4283 9.04351 10.4591 9.0255 10.4904C9.00749 10.5217 8.99023 10.5534 8.97373 10.5855C8.9572 10.6177 8.94145 10.6502 8.92647 10.6832C8.91151 10.7162 8.89733 10.7495 8.88391 10.7832C8.87052 10.8169 8.85792 10.8509 8.84611 10.8852C8.83432 10.9195 8.82334 10.9541 8.81318 10.989C8.80301 11.0239 8.79368 11.0591 8.78517 11.0944C8.77667 11.1298 8.76901 11.1654 8.76218 11.2011C8.75536 11.2369 8.74938 11.2728 8.74424 11.3089C8.73912 11.3449 8.73485 11.3811 8.73143 11.4174C8.728 11.4537 8.72544 11.49 8.72374 11.5265C8.72202 11.5629 8.72117 11.5993 8.72119 11.6358C8.72119 12.2274 8.94621 12.7928 9.34793 13.211C9.37269 13.2369 9.39804 13.262 9.42397 13.2865C9.44991 13.311 9.47641 13.3348 9.50346 13.3579C9.53052 13.3811 9.55811 13.4035 9.58623 13.4252C9.61435 13.447 9.64297 13.468 9.67207 13.4882C9.70118 13.5085 9.73075 13.528 9.76078 13.5468C9.79082 13.5655 9.82128 13.5835 9.85216 13.6007C9.88304 13.6179 9.91432 13.6343 9.94597 13.6499C9.97761 13.6655 10.0096 13.6802 10.042 13.6942C10.0743 13.7081 10.107 13.7213 10.1399 13.7336C10.1729 13.7458 10.2062 13.7572 10.2397 13.7678C10.2732 13.7784 10.3069 13.7882 10.3409 13.797C10.3749 13.8058 10.409 13.8138 10.4434 13.8209C10.4777 13.828 10.5122 13.8343 10.5469 13.8396C10.5815 13.845 10.6162 13.8494 10.6511 13.853C10.6859 13.8565 10.7209 13.8592 10.7558 13.861C10.7908 13.8627 10.8258 13.8636 10.8608 13.8636Z"   fill="#858C94" >
</path>
<path d="M10.8603 13.8747C10.2859 13.8747 9.74591 13.6418 9.3399 13.2191C8.93389 12.7961 8.71021 12.2341 8.71021 11.636C8.71021 11.0377 8.93389 10.4757 9.3399 10.0529C9.74617 9.62988 10.2859 9.39697 10.8603 9.39697C11.4347 9.39697 11.9747 9.62988 12.3807 10.0529C12.787 10.4759 13.0107 11.0379 13.0107 11.636C13.0107 12.2341 12.787 12.7963 12.3807 13.2191C11.9747 13.6418 11.4349 13.8747 10.8603 13.8747ZM10.8603 9.41907C10.2916 9.41907 9.75719 9.64974 9.35521 10.068C8.95294 10.4868 8.73143 11.0433 8.73143 11.6354C8.73143 12.2276 8.95294 12.784 9.35495 13.2026C9.75719 13.6214 10.2916 13.8521 10.8603 13.8521C11.4291 13.8521 11.9634 13.6214 12.3654 13.2029C12.7677 12.784 12.9892 12.2276 12.9892 11.6357C12.9892 11.0435 12.7677 10.4871 12.3657 10.0686C11.9637 9.64974 11.4291 9.41907 10.8603 9.41907ZM22.9757 17.5419C22.9618 17.4732 22.9341 17.4231 22.8901 17.3672C22.8463 17.3115 22.7864 17.2503 22.704 17.2008C22.6216 17.1516 22.5171 17.1144 22.4046 17.0663C22.2918 17.0183 22.1718 16.9596 22.0681 16.8826C21.9647 16.8058 21.8783 16.7104 21.7905 16.5793C21.7029 16.4482 21.614 16.2815 21.5727 16.1171C21.5313 15.9524 21.537 15.7894 21.5571 15.6491C21.5773 15.5084 21.6122 15.3902 21.6293 15.2937C21.6468 15.1972 21.6468 15.1229 21.6184 15.0527C21.5899 14.9825 21.5327 14.916 21.3966 14.8142C21.2607 14.7124 21.0458 14.5748 20.8893 14.4734C20.7327 14.3719 20.6342 14.3062 20.534 14.2737C20.4336 14.2407 20.3313 14.2407 20.2233 14.2782C20.1154 14.3154 20.0015 14.3898 19.8407 14.5159C19.6798 14.6417 19.4715 14.8195 19.03 14.8195C18.5886 14.8195 18.3802 14.6417 18.219 14.5159C18.0579 14.3898 17.9441 14.3151 17.8364 14.2782C17.7284 14.241 17.6261 14.241 17.5257 14.2737C17.4256 14.3064 17.327 14.3722 17.1704 14.4734C17.0139 14.5748 16.7991 14.7121 16.6629 14.8142C16.5268 14.916 16.4699 14.9825 16.4411 15.0527C16.4127 15.1229 16.4127 15.1975 16.4301 15.2937C16.4476 15.3902 16.4819 15.5087 16.5026 15.6491C16.5228 15.7897 16.5287 15.9524 16.4871 16.1171C16.4457 16.2818 16.3568 16.4487 16.2693 16.5793C16.1815 16.7104 16.095 16.8055 15.9916 16.8826C15.8882 16.9596 15.7677 17.0183 15.6551 17.0663C15.5424 17.1144 15.4379 17.1516 15.3557 17.2008C15.2733 17.2501 15.2134 17.3113 15.1696 17.3672C15.1259 17.4228 15.098 17.4732 15.084 17.5419C15.07 17.611 15.07 17.6982 15.07 18.1188C15.07 18.5393 15.07 18.627 15.084 18.6956C15.098 18.7646 15.1256 18.8144 15.1696 18.8703C15.2134 18.9259 15.2733 18.9872 15.3557 19.0367C15.4379 19.0859 15.5426 19.1231 15.6551 19.1712C15.7677 19.2193 15.888 19.278 15.9916 19.3548C16.0953 19.4317 16.1815 19.5271 16.2693 19.6582C16.3568 19.7893 16.4457 19.956 16.4871 20.1207C16.5287 20.2853 16.5228 20.4481 16.5026 20.5884C16.4825 20.7291 16.4476 20.8476 16.4301 20.9438C16.4127 21.0403 16.4127 21.1144 16.4411 21.1848C16.4699 21.255 16.5268 21.3215 16.6629 21.4233C16.7988 21.5251 17.0136 21.6626 17.1704 21.7642C17.327 21.8656 17.4256 21.9313 17.5257 21.9638C17.6261 21.9968 17.7284 21.9968 17.8364 21.9593C17.9443 21.9221 18.0582 21.8477 18.219 21.7217C18.3802 21.5955 18.5886 21.4177 19.03 21.4177C19.4715 21.4177 19.6798 21.5955 19.8407 21.7217C20.0018 21.8477 20.1156 21.9224 20.2233 21.9593C20.3313 21.9968 20.4336 21.9968 20.534 21.9638C20.6342 21.9308 20.7327 21.8654 20.8893 21.7642C21.0458 21.6629 21.2607 21.5254 21.3966 21.4233C21.5327 21.3215 21.5899 21.2553 21.6184 21.1848C21.6468 21.1147 21.6468 21.04 21.6293 20.9438C21.6122 20.8473 21.5775 20.7288 21.5571 20.5884C21.537 20.4478 21.5311 20.2851 21.5727 20.1207C21.614 19.956 21.7029 19.7891 21.7905 19.6582C21.8783 19.5274 21.9647 19.432 22.0681 19.3548C22.1718 19.278 22.2921 19.219 22.4046 19.1712C22.5171 19.1231 22.6218 19.0859 22.704 19.0367C22.7862 18.9875 22.8461 18.9262 22.8901 18.8703C22.9339 18.8147 22.9618 18.7643 22.9757 18.6956C22.9897 18.6268 22.9897 18.5393 22.9897 18.1188C22.9897 17.6982 22.9897 17.6107 22.9757 17.5419ZM20.5883 18.3598C20.5845 18.3863 20.5801 18.4128 20.5751 18.4391C20.5701 18.4654 20.5644 18.4916 20.5582 18.5176C20.5519 18.5437 20.545 18.5695 20.5375 18.5952C20.5301 18.6209 20.522 18.6464 20.5133 18.6717C20.5046 18.6969 20.4954 18.722 20.4855 18.7468C20.4756 18.7716 20.4652 18.7961 20.4541 18.8204C20.4431 18.8446 20.4315 18.8686 20.4194 18.8923C20.4072 18.916 20.3945 18.9393 20.3813 18.9623C20.368 18.9853 20.3542 19.008 20.3399 19.0303C20.3255 19.0526 20.3107 19.0745 20.2953 19.0961C20.28 19.1177 20.2641 19.1388 20.2477 19.1595C20.2313 19.1803 20.2145 19.2006 20.1972 19.2205C20.1799 19.2404 20.1621 19.2598 20.1439 19.2788C20.1256 19.2977 20.1069 19.3162 20.0878 19.3342C20.0687 19.3522 20.0492 19.3697 20.0292 19.3868C20.0093 19.4037 19.989 19.4203 19.9682 19.4362C19.9475 19.4522 19.9265 19.4677 19.905 19.4826C19.8836 19.4975 19.8619 19.5119 19.8397 19.5257C19.8176 19.5395 19.7952 19.5527 19.7725 19.5654C19.7498 19.578 19.7267 19.5901 19.7034 19.6016C19.6801 19.6131 19.6566 19.624 19.6328 19.6342C19.6089 19.6445 19.5849 19.6542 19.5606 19.6632C19.5363 19.6722 19.5119 19.6807 19.4872 19.6885C19.4625 19.6962 19.4377 19.7034 19.4127 19.7099C19.3877 19.7164 19.3625 19.7223 19.3372 19.7275C19.312 19.7328 19.2866 19.7374 19.2611 19.7413C19.2356 19.7452 19.21 19.7485 19.1843 19.7511C19.1587 19.7537 19.133 19.7557 19.1072 19.757C19.0814 19.7583 19.0557 19.7589 19.0299 19.7589C19.0042 19.7589 18.9784 19.7582 18.9526 19.7569C18.9269 19.7555 18.9012 19.7535 18.8755 19.7509C18.8499 19.7483 18.8243 19.7449 18.7988 19.741C18.7733 19.7371 18.7479 19.7325 18.7226 19.7273C18.6973 19.7221 18.6722 19.7162 18.6472 19.7096C18.6222 19.7032 18.5973 19.696 18.5726 19.6882C18.548 19.6804 18.5235 19.672 18.4992 19.663C18.4749 19.654 18.4509 19.6443 18.4271 19.634C18.4033 19.6237 18.3797 19.6129 18.3564 19.6014C18.3331 19.5899 18.3101 19.5778 18.2873 19.5652C18.2646 19.5525 18.2422 19.5393 18.2201 19.5255C18.1979 19.5117 18.1762 19.4973 18.1548 19.4824C18.1334 19.4675 18.1123 19.452 18.0916 19.436C18.0709 19.42 18.0506 19.4035 18.0306 19.3865C18.0107 19.3694 17.9912 19.3519 17.9721 19.3338C17.953 19.3158 17.9344 19.2973 17.9162 19.2783C17.8979 19.2593 17.8802 19.2398 17.8629 19.2199C17.8456 19.2 17.8288 19.1797 17.8125 19.1589C17.7961 19.1381 17.7803 19.117 17.765 19.0954C17.7496 19.0738 17.7348 19.0519 17.7204 19.0296C17.7061 19.0073 17.6923 18.9846 17.679 18.9616C17.6658 18.9386 17.6531 18.9152 17.6409 18.8915C17.6288 18.8679 17.6172 18.8439 17.6062 18.8196C17.5951 18.7954 17.5847 18.7709 17.5748 18.746C17.5649 18.7213 17.5557 18.6962 17.547 18.6709C17.5383 18.6457 17.5302 18.6202 17.5227 18.5945C17.5152 18.5688 17.5084 18.543 17.5021 18.5169C17.4958 18.4909 17.4902 18.4647 17.4852 18.4384C17.4801 18.412 17.4757 18.3856 17.4719 18.3591C17.4681 18.3325 17.465 18.3059 17.4625 18.2792C17.46 18.2524 17.458 18.2257 17.4568 18.1989C17.4555 18.1721 17.4549 18.1452 17.4549 18.1184C17.4549 18.0916 17.4556 18.0647 17.4568 18.0379C17.4581 18.0111 17.46 17.9843 17.4625 17.9576C17.465 17.9309 17.4682 17.9043 17.472 17.8777C17.4758 17.8512 17.4802 17.8248 17.4852 17.7984C17.4902 17.7721 17.4959 17.7459 17.5021 17.7199C17.5084 17.6938 17.5153 17.668 17.5228 17.6423C17.5303 17.6166 17.5384 17.5911 17.547 17.5659C17.5557 17.5406 17.565 17.5155 17.5749 17.4908C17.5847 17.466 17.5952 17.4414 17.6062 17.4172C17.6172 17.3929 17.6288 17.369 17.641 17.3453C17.6531 17.3216 17.6659 17.2983 17.6791 17.2753C17.6924 17.2522 17.7062 17.2296 17.7205 17.2073C17.7348 17.1849 17.7497 17.163 17.765 17.1414C17.7804 17.1199 17.7963 17.0987 17.8126 17.078C17.829 17.0573 17.8458 17.037 17.8631 17.0171C17.8804 16.9972 17.8982 16.9778 17.9165 16.9588C17.9347 16.9398 17.9534 16.9213 17.9725 16.9033C17.9916 16.8853 18.0111 16.8678 18.031 16.8508C18.051 16.8338 18.0713 16.8173 18.092 16.8013C18.1127 16.7853 18.1338 16.7698 18.1552 16.7549C18.1767 16.74 18.1984 16.7256 18.2205 16.7118C18.2426 16.698 18.2651 16.6848 18.2878 16.6721C18.3105 16.6594 18.3336 16.6474 18.3568 16.6359C18.3801 16.6244 18.4037 16.6135 18.4275 16.6033C18.4513 16.593 18.4754 16.5833 18.4997 16.5743C18.5239 16.5653 18.5484 16.5568 18.5731 16.5491C18.5977 16.5413 18.6226 16.5341 18.6476 16.5276C18.6726 16.5211 18.6977 16.5152 18.723 16.51C18.7483 16.5047 18.7737 16.5002 18.7992 16.4962C18.8247 16.4923 18.8503 16.489 18.876 16.4864C18.9016 16.4838 18.9273 16.4818 18.9531 16.4805C18.9788 16.4792 19.0046 16.4786 19.0304 16.4786C19.0561 16.4786 19.0819 16.4793 19.1077 16.4806C19.1334 16.482 19.1591 16.4839 19.1847 16.4866C19.2104 16.4893 19.236 16.4926 19.2615 16.4965C19.287 16.5005 19.3124 16.505 19.3377 16.5103C19.3629 16.5155 19.3881 16.5214 19.4131 16.5279C19.4381 16.5344 19.4629 16.5416 19.4876 16.5494C19.5123 16.5571 19.5367 16.5656 19.561 16.5746C19.5853 16.5837 19.6093 16.5933 19.6332 16.6036C19.657 16.6139 19.6805 16.6247 19.7038 16.6362C19.7271 16.6477 19.7501 16.6598 19.7729 16.6724C19.7956 16.6851 19.818 16.6983 19.8402 16.7121C19.8623 16.7259 19.884 16.7403 19.9054 16.7552C19.9269 16.7701 19.9479 16.7856 19.9686 16.8016C19.9893 16.8176 20.0097 16.8341 20.0296 16.8511C20.0495 16.8682 20.069 16.8857 20.0881 16.9037C20.1072 16.9218 20.1258 16.9403 20.1441 16.9593C20.1623 16.9783 20.18 16.9977 20.1973 17.0176C20.2146 17.0375 20.2315 17.0579 20.2478 17.0786C20.2641 17.0994 20.28 17.1205 20.2953 17.1421C20.3107 17.1637 20.3255 17.1856 20.3399 17.2079C20.3542 17.2302 20.368 17.2529 20.3813 17.2759C20.3945 17.2989 20.4073 17.3223 20.4194 17.3459C20.4316 17.3696 20.4432 17.3936 20.4542 17.4178C20.4652 17.4421 20.4757 17.4666 20.4856 17.4914C20.4954 17.5162 20.5047 17.5413 20.5134 17.5665C20.5221 17.5918 20.5302 17.6173 20.5377 17.6429C20.5452 17.6686 20.552 17.6945 20.5583 17.7206C20.5646 17.7466 20.5702 17.7728 20.5752 17.7991C20.5803 17.8254 20.5847 17.8519 20.5885 17.8784C20.5922 17.905 20.5954 17.9316 20.5979 17.9583C20.6004 17.985 20.6023 18.0118 20.6036 18.0386C20.6048 18.0654 20.6055 18.0923 20.6054 18.1191C20.6054 18.1459 20.6048 18.1728 20.6035 18.1996C20.6022 18.2264 20.6003 18.2531 20.5978 18.2799C20.5952 18.3066 20.5921 18.3332 20.5883 18.3598Z"   fill="#858C94" >
</path>
<path d="M19.0339 19.7711C18.9554 19.7711 18.8765 19.7649 18.7976 19.7527C18.3784 19.6878 18.0086 19.4569 17.7565 19.1026C17.5043 18.7483 17.3993 18.3127 17.4616 17.8766C17.5239 17.4401 17.7454 17.0551 18.086 16.7926C18.4262 16.5298 18.8445 16.421 19.2634 16.4858C19.6826 16.5507 20.0521 16.7814 20.3045 17.1359C20.557 17.4902 20.6617 17.9258 20.5994 18.3619C20.5371 18.7984 20.3155 19.1834 19.9751 19.446C19.6987 19.659 19.3714 19.7711 19.0339 19.7711ZM19.0271 16.4898C18.6942 16.4898 18.3711 16.6002 18.0986 16.8104C17.7629 17.0696 17.5443 17.4494 17.4828 17.8799C17.4213 18.3102 17.5247 18.7397 17.7736 19.0892C18.0226 19.4387 18.3872 19.6665 18.8008 19.7306C19.2143 19.7946 19.6268 19.6869 19.9624 19.4278C20.2981 19.1686 20.5169 18.7889 20.5782 18.3583C20.6397 17.928 20.5363 17.4986 20.2873 17.149C20.0387 16.7996 19.6738 16.5717 19.2602 16.5079C19.1823 16.4959 19.1042 16.4898 19.0271 16.4898Z"   fill="#858C94" >
</path>
<path d="M19.0303 18.9704C19.4817 18.9704 19.848 18.5893 19.848 18.1187C19.848 17.6485 19.482 17.2671 19.0303 17.2671C18.5787 17.2671 18.2124 17.6482 18.2124 18.1187C18.2127 18.5893 18.579 18.9704 19.0303 18.9704Z"   fill="#858C94" >
</path>
<path d="M19.0305 18.982C18.5738 18.982 18.2021 18.595 18.2021 18.1194C18.2021 17.6438 18.5738 17.2566 19.0305 17.2566C19.4873 17.2566 19.8592 17.6436 19.8592 18.1194C19.8592 18.5953 19.4873 18.982 19.0305 18.982L19.0305 18.982ZM19.0305 17.2793C18.5856 17.2793 18.2236 17.6562 18.2236 18.1194C18.2236 18.583 18.5856 18.9596 19.0305 18.9596C19.4755 18.9596 19.8375 18.5827 19.8375 18.1194C19.8378 17.6562 19.4755 17.2793 19.0305 17.2793Z"   fill="#858C94" >
</path>
</svg>
