<svg xmlns="http://www.w3.org/2000/svg" xmlns:xlink="http://www.w3.org/1999/xlink" viewBox="0 0 24 24" fill="none">
<path d="M11.7364 19.44C11.7364 19.44 11.9032 20.1001 12.0464 20.45C12.1895 20.7999 12.3981 21.1522 12.6764 21.51C12.9547 21.8679 13.3049 22.2201 13.7264 22.57C14.1479 22.9199 14.6843 23.2478 15.3364 23.55C14.907 23.6454 14.4089 23.7265 13.8364 23.79C13.3433 23.8535 12.7462 23.9002 12.0464 23.94C11.3466 23.9796 10.5429 24 9.63638 24C9.17515 24 8.64076 23.9819 8.03638 23.95C7.43202 23.9184 6.80845 23.8755 6.15638 23.82C5.5043 23.7642 4.86256 23.6995 4.22638 23.62C3.59021 23.5405 3.00124 23.4596 2.47638 23.38C1.95154 23.3005 1.51218 23.2195 1.14638 23.14C0.780572 23.0605 0.551803 22.9795 0.456377 22.9C0.29733 22.7728 0.173852 22.3821 0.086377 21.73C-0.00109812 21.0779 0.0273312 20.2338 0.186377 19.2C0.281804 18.6115 0.524667 18.1701 0.906377 17.86C1.28809 17.5499 1.73948 17.3029 2.25638 17.12C2.77327 16.9371 3.30768 16.7731 3.85638 16.63C4.4051 16.4869 4.88696 16.2804 5.31638 16.01C5.65038 15.8032 5.91347 15.5988 6.09638 15.4C6.27928 15.2012 6.40482 15.0109 6.47638 14.82C6.54796 14.6291 6.58638 14.4267 6.58638 14.22C6.58638 14.0132 6.57229 13.7845 6.55638 13.53C6.52457 13.1642 6.39903 12.8747 6.17638 12.66C5.9537 12.4453 5.72086 12.2227 5.46638 12C5.33916 11.8887 5.21978 11.7288 5.11638 11.53C5.01302 11.3312 4.9259 11.1367 4.84638 10.93C4.76685 10.6914 4.6859 10.4304 4.60638 10.16C4.49505 10.1282 4.37771 10.0795 4.26638 10C4.17096 9.92048 4.07976 9.80313 3.97638 9.66C3.87299 9.51687 3.7759 9.31037 3.69638 9.04C3.60094 8.76962 3.56252 8.52266 3.58638 8.3C3.61024 8.07732 3.65277 7.88496 3.71638 7.71C3.77999 7.53504 3.88324 7.35902 4.02638 7.2C4.02638 6.59562 4.06277 5.99438 4.12638 5.39C4.18999 4.88105 4.29733 4.33847 4.45638 3.75C4.61542 3.16153 4.86239 2.63122 5.19638 2.17C5.49858 1.72467 5.84262 1.35628 6.21638 1.07C6.59013 0.783716 6.96467 0.569044 7.34638 0.41C7.7281 0.250953 8.11673 0.135666 8.50638 0.08C8.89605 0.0243338 9.27059 0 9.63638 0C10.0976 0 10.547 0.0586679 10.9764 0.17C11.4058 0.281332 11.8006 0.425048 12.1664 0.6C12.5322 0.774949 12.8601 0.967334 13.1464 1.19C13.4327 1.41266 13.6614 1.63733 13.8364 1.86C14.2499 2.36895 14.5555 2.92767 14.7464 3.54C14.9372 4.15233 15.0669 4.74334 15.1464 5.3C15.2259 5.93619 15.2664 6.57792 15.2664 7.23C15.3777 7.30952 15.4627 7.41276 15.5264 7.54C15.59 7.65133 15.6466 7.79504 15.6864 7.97C15.7262 8.14496 15.7282 8.36962 15.6964 8.64C15.6645 8.97401 15.5998 9.2412 15.4964 9.44C15.393 9.63882 15.2736 9.78867 15.1464 9.9C15.0032 10.0272 14.8554 10.1123 14.6964 10.16C14.6169 10.4304 14.5359 10.6914 14.4564 10.93C14.3769 11.1367 14.2898 11.3312 14.1864 11.53C14.083 11.7288 13.9636 11.8887 13.8364 12C13.6932 12.1272 13.5859 12.2528 13.5064 12.38C13.4268 12.5072 13.3641 12.6328 13.3164 12.76C13.2687 12.8872 13.212 13.0289 13.1564 13.18C13.1007 13.3311 13.0177 13.491 12.9064 13.65C12.1588 14.7951 11.7257 15.8275 11.6064 16.75C11.4871 17.6725 11.5296 18.5652 11.7364 19.44Z"   fill="#858C94" >
</path>
<circle cx="18" cy="18" r="5"   fill="#858C94" >
</circle>
<path    stroke="rgba(255, 255, 255, 1)" stroke-width="1"  stroke-linecap="round"  d="M16 18L19.9429 18">
</path>
</svg>
