<svg width="14" height="15" viewBox="0 0 14 15" fill="none" xmlns="http://www.w3.org/2000/svg">
<g clip-path="url(#clip0_312_7185)">
<path d="M5.25 3.90267C5.00838 3.90267 4.8125 4.09855 4.8125 4.34017C4.8125 4.58179 5.00838 4.77767 5.25 4.77767H8.75C8.99162 4.77767 9.1875 4.58179 9.1875 4.34017C9.1875 4.09855 8.99162 3.90267 8.75 3.90267H5.25Z" fill="#101113"/>
<path fill-rule="evenodd" clip-rule="evenodd" d="M6.96646 1.56934C5.75746 1.56933 4.80501 1.56932 4.06075 1.67047C3.29654 1.77433 2.68689 1.99207 2.20782 2.47632C1.72941 2.95993 1.51487 3.57426 1.41243 4.34449C1.31249 5.09588 1.31249 6.05786 1.3125 7.28079V10.2546C1.31249 11.134 1.31249 11.8303 1.36851 12.3545C1.42386 12.8725 1.54261 13.3399 1.88174 13.6524C2.15382 13.9031 2.4979 14.0612 2.86513 14.1032C3.32449 14.1558 3.75339 13.9365 4.1759 13.6372C4.60345 13.3343 5.12211 12.8756 5.77648 12.2968L5.79778 12.2779C6.10115 12.0096 6.30654 11.8285 6.47791 11.7032C6.64353 11.5821 6.74466 11.5383 6.82989 11.5212C6.9422 11.4986 7.0578 11.4986 7.17011 11.5212C7.25534 11.5383 7.35647 11.5821 7.52209 11.7032C7.69345 11.8285 7.89885 12.0096 8.20222 12.2779L8.22355 12.2968C8.87791 12.8756 9.39656 13.3343 9.8241 13.6372C10.2466 13.9364 10.6755 14.1558 11.1349 14.1032C11.5021 14.0612 11.8462 13.9031 12.1183 13.6524C12.4574 13.3399 12.5761 12.8725 12.6315 12.3545C12.6875 11.8303 12.6875 11.134 12.6875 10.2546V7.28078C12.6875 6.05787 12.6875 5.09588 12.5876 4.34449C12.4851 3.57426 12.2706 2.95993 11.7922 2.47632C11.3131 1.99207 10.7035 1.77433 9.93925 1.67047C9.19499 1.56932 8.24254 1.56933 7.03354 1.56934H6.96646ZM2.82987 3.0917C3.11965 2.79878 3.51313 2.62793 4.17858 2.5375C4.8571 2.44529 5.75006 2.44434 7 2.44434C8.24994 2.44434 9.1429 2.44529 9.82142 2.5375C10.4869 2.62793 10.8804 2.79878 11.1701 3.0917C11.4606 3.38527 11.6304 3.78495 11.7202 4.45986C11.8116 5.14687 11.8125 6.05064 11.8125 7.31372V10.2265C11.8125 11.1402 11.8119 11.7894 11.7614 12.2615C11.7097 12.7453 11.6144 12.9269 11.5253 13.009C11.3889 13.1347 11.2174 13.2131 11.0354 13.2339C10.9189 13.2472 10.7237 13.2021 10.3299 12.9232C9.94568 12.651 9.46232 12.2243 8.78192 11.6225L8.76666 11.609C8.48242 11.3576 8.24669 11.1491 8.03857 10.9969C7.82099 10.8378 7.60156 10.7155 7.3429 10.6634C7.11654 10.6178 6.88346 10.6178 6.6571 10.6634C6.39844 10.7155 6.17901 10.8378 5.96143 10.9969C5.75332 11.1491 5.51758 11.3576 5.23335 11.609L5.21807 11.6225C4.53768 12.2243 4.05432 12.651 3.67013 12.9232C3.27627 13.2021 3.08106 13.2472 2.9646 13.2339C2.78261 13.2131 2.6111 13.1347 2.47472 13.009C2.38562 12.9269 2.29025 12.7453 2.23855 12.2615C2.18811 11.7894 2.1875 11.1402 2.1875 10.2265V7.31372C2.1875 6.05064 2.18841 5.14687 2.27979 4.45986C2.36955 3.78495 2.53944 3.38527 2.82987 3.0917Z" fill="#101113"/>
</g>
<defs>
<clipPath id="clip0_312_7185">
<rect width="14" height="14" fill="white" transform="translate(0 0.839844)"/>
</clipPath>
</defs>
</svg>
