<svg xmlns="http://www.w3.org/2000/svg" xmlns:xlink="http://www.w3.org/1999/xlink" width="23.5673828125" height="23.9986572265625" viewBox="0 0 23.5673828125 23.9986572265625" fill="none">
<path d="M14.2385 15.9992L15.2205 12.4993L16.2025 12.7993L15.3187 15.9992L16.6935 15.9992L16.6935 16.9991L10.8016 16.9991L10.8016 15.9992L14.2385 15.9992ZM15.3187 10.9994L13.7475 9.29953L12.0781 10.9994L15.3187 10.9994ZM15.6133 11.2994L15.6133 11.9994L11.7835 11.9994L11.7835 11.1994L11.1944 11.7994L10.507 11.0994L13.6493 7.99959L13.7475 7.89961L16.8899 11.0994L16.2025 11.7994L15.6133 11.2994ZM9.72139 10.6994L9.72139 11.3994L10.1142 11.2994L10.8016 13.1993L9.91778 13.4993L9.81959 13.0993L9.81959 16.9991L8.8376 16.9991L8.8376 13.1993L8.34662 14.4993L7.46284 14.1993L8.8376 10.2995L8.8376 9.9995L7.85561 9.9995L7.85561 8.99954L8.8376 8.99954L8.8376 7.99959L9.72139 7.99959L9.72139 8.99954L10.8016 8.99954L10.8016 9.9995L9.72139 9.9995L9.72139 10.6994ZM4.90967 4.99976L19.6394 4.99976L19.6394 19.9989L4.90967 19.9989L4.90967 4.99976ZM5.89166 5.99971L5.89166 18.999L18.6574 18.999L18.6574 5.99971L5.89166 5.99971ZM11.0962 12.7993L12.0781 12.4993L12.8637 15.3992L11.8818 15.6992L11.0962 12.7993ZM12.7655 12.5993L13.7475 12.2994L14.5331 15.1992L13.5511 15.4992L12.7655 12.5993Z"   fill="#74798C" >
</path>
</svg>
