<svg xmlns="http://www.w3.org/2000/svg" xmlns:xlink="http://www.w3.org/1999/xlink" viewBox="0 0 26 26" fill="none">
<path d="M0.00537214 13.0001C0.00545732 13.2124 0.0107497 13.4245 0.0212493 13.6365C0.0317489 13.8485 0.0474431 14.0602 0.0683317 14.2714C0.0892203 14.4826 0.115278 14.6932 0.146506 14.9032C0.177734 15.1131 0.214093 15.3222 0.255584 15.5304C0.297074 15.7385 0.343648 15.9456 0.395302 16.1514C0.446957 16.3573 0.503632 16.5618 0.565326 16.7649C0.62702 16.968 0.693658 17.1695 0.765244 17.3693C0.836828 17.5692 0.913271 17.7671 0.994574 17.9632C1.07588 18.1593 1.16194 18.3532 1.25277 18.5451C1.34359 18.7369 1.43907 18.9265 1.5392 19.1136C1.63933 19.3008 1.74399 19.4854 1.85318 19.6674C1.96237 19.8494 2.07596 20.0287 2.19395 20.2051C2.31194 20.3816 2.43419 20.555 2.56071 20.7255C2.6872 20.8959 2.81781 21.0632 2.95254 21.2272C3.08726 21.3913 3.22592 21.5519 3.36851 21.7091C3.5111 21.8663 3.65748 22.02 3.80764 22.17C3.95778 22.3201 4.11152 22.4664 4.26884 22.6088C4.42616 22.7513 4.58688 22.8899 4.75103 23.0245C4.91516 23.1591 5.08248 23.2896 5.253 23.416C5.42353 23.5424 5.59707 23.6645 5.77361 23.7824C5.95013 23.9003 6.12946 24.0137 6.31156 24.1228C6.49366 24.2319 6.67833 24.3364 6.86556 24.4364C7.05279 24.5364 7.24236 24.6318 7.43426 24.7225C7.62616 24.8132 7.8202 24.8991 8.01634 24.9803C8.21246 25.0614 8.41048 25.1377 8.61035 25.2092C8.81023 25.2806 9.01173 25.3471 9.2149 25.4086C9.41803 25.4702 9.62258 25.5268 9.82849 25.5783C10.0344 25.6299 10.2415 25.6763 10.4497 25.7177C10.6579 25.7589 10.8669 25.7952 11.0769 25.8264C11.2869 25.8574 11.4975 25.8833 11.7088 25.9041C11.92 25.9249 12.1317 25.9404 12.3437 25.9508C12.5557 25.961 12.7678 25.9663 12.9801 25.9663C13.1923 25.966 13.4045 25.9607 13.6165 25.9506C13.8285 25.9399 14.0401 25.9244 14.2514 25.9036C14.4626 25.8825 14.6732 25.8564 14.8832 25.8254C15.0931 25.7941 15.3022 25.7578 15.5104 25.7165C15.7185 25.6748 15.9256 25.6283 16.1315 25.5768C16.3374 25.525 16.5419 25.4684 16.745 25.4066C16.9481 25.345 17.1495 25.2784 17.3494 25.2069C17.5492 25.1353 17.7472 25.0589 17.9433 24.9776C18.1394 24.8963 18.3334 24.8103 18.5252 24.7195C18.7171 24.6287 18.9066 24.5332 19.0938 24.4331C19.281 24.333 19.4656 24.2284 19.6476 24.1192C19.8297 24.0101 20.0089 23.8965 20.1854 23.7785C20.3618 23.6606 20.5353 23.5383 20.7058 23.4119C20.8763 23.2854 21.0435 23.1548 21.2076 23.0201C21.3716 22.8854 21.5323 22.7468 21.6895 22.6042C21.8468 22.4616 22.0004 22.3153 22.1505 22.1651C22.3005 22.015 22.4468 21.8613 22.5894 21.704C22.7319 21.5467 22.8705 21.386 23.0051 21.2219C23.1397 21.0578 23.2702 20.8904 23.3967 20.7199C23.5231 20.5494 23.6452 20.3759 23.7631 20.1994C23.881 20.0229 23.9945 19.8435 24.1036 19.6614C24.2127 19.4794 24.3172 19.2947 24.4173 19.1075C24.5173 18.9203 24.6127 18.7307 24.7034 18.5388C24.7941 18.3469 24.8801 18.1529 24.9613 17.9568C25.0425 17.7607 25.1188 17.5627 25.1903 17.3628C25.2618 17.1629 25.3283 16.9614 25.3899 16.7583C25.4516 16.5552 25.5082 16.3506 25.5595 16.1447C25.6113 15.9388 25.6578 15.7317 25.6989 15.5236C25.7403 15.3154 25.7766 15.1063 25.8076 14.8963C25.8388 14.6863 25.8647 14.4757 25.8855 14.2645C25.9063 14.0532 25.9221 13.8416 25.9322 13.6296C25.9427 13.4176 25.9477 13.2055 25.9477 12.9932C25.9477 12.7809 25.9427 12.5688 25.932 12.3568C25.9218 12.1448 25.9061 11.9331 25.8853 11.7219C25.8644 11.5107 25.8383 11.3 25.8071 11.0901C25.7761 10.8801 25.7398 10.671 25.6981 10.4629C25.657 10.2547 25.6105 10.0476 25.5587 9.84175C25.5072 9.63586 25.4506 9.43134 25.3889 9.22821C25.3272 9.02509 25.2607 8.82361 25.1891 8.62376C25.1176 8.42391 25.0412 8.22592 24.96 8.02983C24.8787 7.83374 24.7927 7.63975 24.7019 7.44787C24.6111 7.256 24.5157 7.06646 24.4157 6.87928C24.3156 6.69207 24.211 6.50746 24.1018 6.32541C23.9927 6.14333 23.8791 5.96407 23.7612 5.78758C23.6432 5.61109 23.521 5.43762 23.3946 5.26712C23.2681 5.09665 23.1376 4.92938 23.0029 4.7653C22.8682 4.60123 22.7296 4.44056 22.5871 4.28329C22.4445 4.12602 22.2981 3.97233 22.148 3.82225C21.9979 3.67216 21.8442 3.52586 21.687 3.38332C21.5297 3.24077 21.369 3.10219 21.2049 2.96755C21.0408 2.8329 20.8735 2.70234 20.703 2.5759C20.5325 2.44946 20.359 2.32729 20.1825 2.20937C20.006 2.09145 19.8267 1.97793 19.6446 1.86881C19.4626 1.75969 19.2779 1.65511 19.0907 1.55505C18.9035 1.455 18.714 1.3596 18.5221 1.26885C18.3302 1.1781 18.1362 1.09212 17.9401 1.01089C17.744 0.929667 17.546 0.853302 17.3461 0.781797C17.1462 0.710295 16.9448 0.643736 16.7416 0.582123C16.5385 0.52051 16.334 0.463919 16.1281 0.412346C15.9222 0.360775 15.7151 0.314285 15.507 0.272879C15.2988 0.231471 15.0897 0.195195 14.8797 0.164052C14.6697 0.132909 14.4592 0.106935 14.2479 0.0861311C14.0367 0.0653271 13.825 0.0497179 13.613 0.0393035C13.401 0.0288889 13.1889 0.0236816 12.9766 0.0236816C12.7643 0.0236817 12.552 0.0288925 12.34 0.0393142C12.1279 0.049736 11.9162 0.0653558 11.7049 0.0861738C11.4936 0.106992 11.2829 0.132983 11.0729 0.164148C10.8628 0.195312 10.6537 0.231613 10.4454 0.273049C10.2372 0.314483 10.03 0.361004 9.82408 0.41261C9.61811 0.464219 9.41351 0.520848 9.21033 0.582501C9.00713 0.644155 8.80558 0.710759 8.60566 0.78231C8.40573 0.853864 8.20771 0.930279 8.01154 1.01156C7.81537 1.09284 7.62131 1.17888 7.42936 1.26969C7.23741 1.36049 7.04782 1.45596 6.86058 1.55607C6.6733 1.65619 6.48864 1.76085 6.30654 1.87004C6.12441 1.97923 5.94508 2.09282 5.76856 2.21081C5.59202 2.32881 5.41847 2.45107 5.24795 2.5776C5.07743 2.70412 4.9101 2.83473 4.74598 2.96945C4.58185 3.1042 4.42116 3.24288 4.26386 3.3855C4.10654 3.52812 3.95283 3.67452 3.80272 3.82471C3.65261 3.97489 3.50626 4.12866 3.36371 4.28603C3.22112 4.44338 3.08251 4.60415 2.94786 4.76833C2.81319 4.93248 2.68263 5.09985 2.55619 5.27045C2.42973 5.44102 2.30754 5.61459 2.18961 5.79119C2.07169 5.96778 1.95816 6.14714 1.84905 6.32929C1.73993 6.51147 1.63535 6.69618 1.53531 6.88347C1.43527 7.07077 1.33988 7.26039 1.24915 7.45237C1.15842 7.64435 1.07245 7.83846 0.991253 8.03465C0.910054 8.23084 0.833717 8.42892 0.762248 8.62887C0.690776 8.82882 0.624255 9.0304 0.562683 9.23362C0.50111 9.43682 0.44456 9.64142 0.393038 9.84741C0.341512 10.0534 0.295073 10.2605 0.253722 10.4688C0.21237 10.6771 0.176154 10.8862 0.145074 11.0963C0.113994 11.3064 0.0880869 11.5171 0.0673537 11.7284C0.0466204 11.9397 0.0310854 12.1514 0.0207491 12.3635C0.0104126 12.5756 0.00528693 12.7878 0.00537214 13.0001Z"   fill="#FFFFFF" >
</path>
<path d="M6.54822 11.3244L2.83545 4.89727C2.99812 4.69259 3.16682 4.49305 3.34156 4.29861C3.5163 4.10414 3.69676 3.91516 3.88294 3.73163C4.0691 3.54811 4.26065 3.37038 4.45758 3.19843C4.65451 3.02649 4.85645 2.86063 5.0634 2.70093C5.27037 2.5412 5.48196 2.38787 5.69819 2.24094C5.91444 2.09402 6.13491 1.95377 6.35964 1.82018C6.58435 1.68659 6.81289 1.55993 7.04529 1.44017C7.27769 1.32041 7.51347 1.20779 7.75267 1.10229C7.99188 0.9968 8.23403 0.898635 8.47917 0.807795C8.72432 0.716952 8.97196 0.633603 9.22213 0.557746C9.4723 0.481886 9.72456 0.413659 9.97887 0.353062C10.2332 0.292464 10.4891 0.239608 10.7466 0.194493C11.0041 0.149378 11.2627 0.112086 11.5225 0.0826185C11.7823 0.0531504 12.0427 0.03156 12.3037 0.0178469C12.5648 0.00413385 12.826 -0.00167666 13.0874 0.000415363C13.3489 0.00250737 13.61 0.0124981 13.8708 0.0303875C14.1316 0.048277 14.3917 0.0740325 14.6509 0.107654C14.9102 0.141275 15.1682 0.182701 15.4249 0.231932C15.6817 0.281163 15.9367 0.338107 16.19 0.402766C16.4433 0.467426 16.6944 0.539683 16.9434 0.619536C17.1923 0.699387 17.4386 0.78669 17.6822 0.881443C17.9259 0.976196 18.1665 1.07823 18.4039 1.18753C18.6414 1.29684 18.8754 1.41322 19.1058 1.53668C19.3362 1.66014 19.5627 1.79046 19.7853 1.92762C20.0078 2.06478 20.226 2.20855 20.4399 2.35891C20.6538 2.50927 20.8629 2.66596 21.0673 2.829C21.2716 2.99201 21.4709 3.16103 21.6651 3.33612C21.8592 3.51119 22.0479 3.69197 22.2311 3.87847C22.4143 4.06494 22.5917 4.25679 22.7633 4.45402C22.9349 4.65123 23.1004 4.85347 23.2598 5.06071C23.4191 5.26794 23.5721 5.4798 23.7187 5.69628C23.8652 5.91277 24.0051 6.13349 24.1383 6.35845L13.5564 6.35845C13.3636 6.33905 13.1703 6.33125 12.9766 6.33506C12.8855 6.33567 12.7945 6.33816 12.7034 6.34253C12.6124 6.34687 12.5215 6.35309 12.4308 6.36116C12.34 6.36921 12.2495 6.37911 12.1591 6.39087C12.0687 6.40263 11.9787 6.41624 11.8889 6.43167C11.7991 6.44711 11.7096 6.46438 11.6205 6.48347C11.5314 6.50254 11.4428 6.52344 11.3545 6.54616C11.2663 6.56886 11.1786 6.59334 11.0913 6.61964C11.0041 6.64592 10.9174 6.67398 10.8313 6.70381C10.7452 6.73362 10.6597 6.7652 10.5749 6.79852C10.4901 6.83183 10.406 6.86687 10.3227 6.90363C10.2393 6.94035 10.1567 6.97879 10.0749 7.01893C9.99306 7.05905 9.91212 7.10082 9.83201 7.14424C9.75191 7.18765 9.67274 7.2327 9.59446 7.27936C9.51618 7.32601 9.43892 7.37425 9.36262 7.42407C9.28632 7.47386 9.21108 7.5252 9.13687 7.57811C9.06268 7.63097 8.98958 7.68536 8.91759 7.74122C8.84561 7.79708 8.77482 7.85441 8.70518 7.91317C8.63553 7.97192 8.56713 8.03207 8.49994 8.09362C8.43274 8.15516 8.36685 8.21806 8.30223 8.28229C8.23761 8.34653 8.17434 8.41207 8.11238 8.47889C8.05045 8.54572 7.9899 8.61377 7.93074 8.68309C7.87155 8.75235 7.81384 8.82283 7.75755 8.89449C7.70126 8.96614 7.64646 9.03891 7.59314 9.1128C7.53982 9.18668 7.48803 9.26164 7.43778 9.33766C7.38753 9.41365 7.33883 9.49063 7.29173 9.56863C7.24461 9.64661 7.19911 9.72552 7.15521 9.8054C7.11131 9.88523 7.06908 9.96595 7.02848 10.0475C6.98788 10.1291 6.94896 10.2114 6.91174 10.2946C6.87449 10.3778 6.83897 10.4617 6.80515 10.5463C6.77135 10.6309 6.73928 10.7162 6.70894 10.8021C6.6786 10.888 6.65003 10.9745 6.62325 11.0616C6.59646 11.1487 6.57145 11.2363 6.54822 11.3244L6.54822 11.3244Z"   fill="#DD4E41" >
</path>
<path d="M17.6176 8.23828L25.0665 8.23828C25.1033 8.33226 25.1389 8.42665 25.1735 8.52144C25.2081 8.61625 25.2415 8.71145 25.2738 8.80706C25.3061 8.90266 25.3373 8.99863 25.3673 9.09496C25.3973 9.19129 25.4262 9.28796 25.454 9.38497C25.4817 9.482 25.5083 9.57933 25.5337 9.67696C25.5593 9.77462 25.5836 9.87256 25.6068 9.97079C25.6298 10.069 25.6518 10.1675 25.6726 10.2662C25.6934 10.365 25.713 10.4639 25.7315 10.5631C25.7499 10.6623 25.7673 10.7617 25.7835 10.8614C25.7996 10.961 25.8145 11.0608 25.8282 11.1607C25.8421 11.2607 25.8547 11.3608 25.8661 11.4611C25.8774 11.5613 25.8876 11.6617 25.8968 11.7622C25.9057 11.8627 25.9135 11.9633 25.9201 12.064C25.9267 12.1647 25.9322 12.2654 25.9366 12.3663C25.9409 12.4671 25.9439 12.5679 25.9458 12.6688C25.9476 12.7697 25.9483 12.8706 25.9478 12.9715C25.948 13.1824 25.943 13.3931 25.9328 13.6037C25.9227 13.8143 25.9074 14.0245 25.8871 14.2344C25.8666 14.4442 25.8411 14.6535 25.8104 14.8621C25.78 15.0707 25.7444 15.2784 25.7036 15.4853C25.6628 15.6922 25.617 15.8979 25.5662 16.1025C25.5154 16.3072 25.4597 16.5105 25.3991 16.7124C25.3384 16.9143 25.2727 17.1146 25.2023 17.3133C25.1318 17.5121 25.0565 17.7089 24.9764 17.904C24.8964 18.099 24.8116 18.292 24.7221 18.4829C24.6326 18.6738 24.5385 18.8624 24.4398 19.0487C24.3411 19.2351 24.2379 19.4189 24.1303 19.6002C24.0226 19.7814 23.9106 19.96 23.7942 20.1358C23.6779 20.3116 23.5573 20.4845 23.4325 20.6544C23.3076 20.8244 23.1788 20.9912 23.0458 21.1548C22.9129 21.3185 22.776 21.4788 22.6352 21.6357C22.4945 21.7927 22.35 21.9462 22.2017 22.0961C22.0535 22.246 21.9017 22.3922 21.7463 22.5347C21.5909 22.6773 21.4321 22.8159 21.27 22.9507C21.1078 23.0854 20.9425 23.2162 20.7739 23.3429C20.6054 23.4696 20.4339 23.5921 20.2594 23.7104C20.0849 23.8288 19.9076 23.9428 19.7275 24.0524C19.5475 24.1621 19.3648 24.2674 19.1796 24.3681C18.9944 24.4689 18.8069 24.5651 18.617 24.6567C18.4271 24.7484 18.2351 24.8353 18.0409 24.9175C17.8468 24.9998 17.6508 25.0772 17.4528 25.1499C17.2549 25.2226 17.0554 25.2905 16.8541 25.3534C16.6529 25.4165 16.4503 25.4744 16.2462 25.5274C16.0421 25.5806 15.8369 25.6287 15.6305 25.6717C15.4241 25.7146 15.2168 25.7527 15.0085 25.7857C14.8003 25.8185 14.5913 25.8463 14.3817 25.8692C14.1721 25.8919 13.9621 25.9095 13.7516 25.922C13.5411 25.9345 13.3305 25.9419 13.1196 25.9441L18.434 16.7545C18.4892 16.6749 18.5427 16.5941 18.5944 16.5122C18.6462 16.4303 18.6961 16.3472 18.7441 16.2631C18.7922 16.179 18.8384 16.0938 18.8828 16.0077C18.9271 15.9215 18.9695 15.8344 19.0101 15.7464C19.0506 15.6584 19.0891 15.5695 19.1258 15.4798C19.1624 15.3901 19.197 15.2997 19.2297 15.2084C19.2623 15.1172 19.2929 15.0253 19.3215 14.9327C19.3502 14.8402 19.3767 14.747 19.4013 14.6533C19.4258 14.5596 19.4483 14.4653 19.4687 14.3706C19.489 14.2759 19.5073 14.1808 19.5236 14.0852C19.5398 13.9897 19.5539 13.8939 19.5659 13.7977C19.5779 13.7016 19.5878 13.6052 19.5956 13.5086C19.6034 13.4121 19.609 13.3153 19.6126 13.2185C19.6161 13.1217 19.6175 13.0248 19.6168 12.9279C19.6161 12.831 19.6133 12.7342 19.6083 12.6374C19.6033 12.5407 19.5962 12.4441 19.5871 12.3476C19.5778 12.2511 19.5665 12.1549 19.5531 12.059C19.5397 11.963 19.5242 11.8674 19.5065 11.7721C19.4889 11.6769 19.4692 11.582 19.4474 11.4876C19.4256 11.3932 19.4018 11.2993 19.3759 11.2059C19.35 11.1126 19.3221 11.0198 19.2921 10.9277C19.2621 10.8355 19.2301 10.7441 19.1961 10.6534C19.1621 10.5626 19.1262 10.4727 19.0883 10.3835C19.0503 10.2944 19.0105 10.2061 18.9686 10.1187C18.9268 10.0312 18.8831 9.9448 18.8375 9.85932C18.7919 9.77382 18.7445 9.68937 18.6952 9.60597C18.6458 9.52256 18.5947 9.44027 18.5418 9.3591C18.4889 9.27793 18.4342 9.19797 18.3778 9.11921C18.3213 9.04045 18.2632 8.96295 18.2034 8.88673C18.1435 8.81053 18.0821 8.73567 18.019 8.66215C17.9558 8.58864 17.8911 8.51654 17.8249 8.44585C17.7586 8.37518 17.6908 8.30599 17.6215 8.23828L17.6176 8.23828Z"   fill="#FFCD41" >
</path>
<path d="M8.26538 13C8.2653 12.9229 8.2671 12.8459 8.27079 12.7688C8.2745 12.6918 8.28008 12.6149 8.28755 12.5381C8.29503 12.4614 8.30439 12.3849 8.31563 12.3086C8.32687 12.2323 8.33997 12.1563 8.35494 12.0806C8.3699 12.005 8.38671 11.9297 8.40536 11.8549C8.42402 11.7801 8.4445 11.7058 8.46681 11.632C8.48913 11.5581 8.51325 11.4849 8.53915 11.4122C8.56504 11.3396 8.59272 11.2676 8.62217 11.1964C8.65161 11.1251 8.68278 11.0546 8.71569 10.9848C8.74859 10.9151 8.78318 10.8462 8.81946 10.7781C8.85575 10.7101 8.89368 10.643 8.93326 10.5768C8.97285 10.5106 9.01403 10.4454 9.05681 10.3813C9.0996 10.3171 9.14393 10.254 9.18981 10.192C9.2357 10.13 9.28308 10.0692 9.33194 10.0096C9.38081 9.9499 9.43111 9.89148 9.48284 9.8343C9.53458 9.7771 9.58769 9.72122 9.64216 9.66664C9.69665 9.61205 9.75244 9.55883 9.80954 9.50699C9.86664 9.45516 9.92496 9.40475 9.98453 9.35576C10.0441 9.30679 10.1048 9.25931 10.1667 9.21332C10.2286 9.16731 10.2916 9.12286 10.3557 9.07997C10.4198 9.03706 10.4849 8.99576 10.551 8.95606C10.6171 8.91635 10.6842 8.87829 10.7522 8.84188C10.8201 8.80547 10.889 8.77075 10.9587 8.73773C11.0284 8.70469 11.0988 8.67338 11.17 8.64381C11.2413 8.61424 11.3132 8.58643 11.3858 8.5604C11.4584 8.53435 11.5315 8.5101 11.6053 8.48765C11.6791 8.46521 11.7534 8.44459 11.8282 8.4258C11.903 8.407 11.9782 8.39005 12.0538 8.37495C12.1294 8.35985 12.2054 8.34661 12.2816 8.33524C12.3579 8.32386 12.4344 8.31436 12.5112 8.30675C12.5879 8.29913 12.6648 8.2934 12.7418 8.28956C12.8189 8.28572 12.8959 8.28376 12.9731 8.28369C13.0502 8.28364 13.1273 8.28548 13.2043 8.2892C13.2813 8.29294 13.3582 8.29856 13.4349 8.30606C13.5117 8.31356 13.5882 8.32295 13.6645 8.33422C13.7408 8.34548 13.8168 8.3586 13.8924 8.3736C13.9681 8.38858 14.0433 8.40541 14.1181 8.4241C14.1929 8.44279 14.2673 8.46331 14.3411 8.48565C14.4149 8.50799 14.4881 8.53213 14.5607 8.55806C14.6334 8.584 14.7053 8.6117 14.7766 8.64117C14.8478 8.67062 14.9184 8.70182 14.9881 8.73476C15.0578 8.76768 15.1267 8.80229 15.1948 8.8386C15.2628 8.87491 15.3299 8.91287 15.3961 8.95248C15.4622 8.99209 15.5274 9.0333 15.5915 9.07611C15.6557 9.11892 15.7187 9.16327 15.7807 9.20918C15.8427 9.25509 15.9035 9.30248 15.9631 9.35137C16.0228 9.40025 16.0812 9.45058 16.1384 9.50234C16.1955 9.55409 16.2514 9.60721 16.306 9.66172C16.3605 9.71622 16.4137 9.77203 16.4655 9.82914C16.5174 9.88626 16.5677 9.94461 16.6167 10.0042C16.6657 10.0638 16.7131 10.1245 16.7591 10.1865C16.8051 10.2484 16.8495 10.3114 16.8924 10.3755C16.9352 10.4396 16.9765 10.5047 17.0162 10.5708C17.0559 10.637 17.0939 10.704 17.1303 10.772C17.1667 10.84 17.2014 10.9089 17.2344 10.9785C17.2674 11.0482 17.2987 11.1187 17.3282 11.19C17.3578 11.2612 17.3855 11.3331 17.4116 11.4057C17.4376 11.4783 17.4618 11.5515 17.4842 11.6253C17.5066 11.6991 17.5272 11.7734 17.546 11.8482C17.5647 11.923 17.5817 11.9982 17.5968 12.0738C17.6118 12.1495 17.625 12.2254 17.6364 12.3017C17.6478 12.378 17.6572 12.4545 17.6648 12.5312C17.6724 12.608 17.6781 12.6849 17.6819 12.7619C17.6857 12.8389 17.6876 12.916 17.6877 12.9931C17.6877 13.0702 17.6858 13.1473 17.6821 13.2243C17.6783 13.3014 17.6727 13.3782 17.6651 13.455C17.6576 13.5318 17.6482 13.6083 17.6369 13.6846C17.6256 13.7609 17.6125 13.8368 17.5974 13.9125C17.5824 13.9881 17.5655 14.0633 17.5468 14.1381C17.5281 14.213 17.5076 14.2873 17.4852 14.3611C17.4628 14.4349 17.4387 14.5081 17.4127 14.5807C17.3868 14.6533 17.359 14.7253 17.3295 14.7965C17.3001 14.8678 17.2688 14.9383 17.2359 15.008C17.2029 15.0777 17.1683 15.1466 17.1319 15.2146C17.0956 15.2826 17.0576 15.3497 17.018 15.4159C16.9784 15.482 16.9371 15.5472 16.8943 15.6113C16.8514 15.6754 16.8071 15.7385 16.7612 15.8004C16.7152 15.8624 16.6678 15.9232 16.6189 15.9828C16.57 16.0424 16.5196 16.1008 16.4679 16.158C16.4161 16.2151 16.3629 16.271 16.3084 16.3255C16.2539 16.3801 16.1981 16.4332 16.1409 16.485C16.0838 16.5368 16.0254 16.5872 15.9658 16.6361C15.9062 16.6851 15.8454 16.7325 15.7835 16.7785C15.7216 16.8244 15.6585 16.8688 15.5944 16.9117C15.5303 16.9545 15.4652 16.9958 15.399 17.0354C15.3329 17.0751 15.2658 17.1131 15.1978 17.1494C15.1298 17.1858 15.0609 17.2205 14.9912 17.2535C14.9215 17.2864 14.851 17.3177 14.7798 17.3472C14.7086 17.3767 14.6366 17.4045 14.564 17.4305C14.4914 17.4564 14.4182 17.4806 14.3444 17.503C14.2706 17.5254 14.1963 17.546 14.1215 17.5648C14.0467 17.5835 13.9715 17.6004 13.8958 17.6154C13.8202 17.6305 13.7442 17.6437 13.6679 17.655C13.5916 17.6663 13.5151 17.6757 13.4384 17.6833C13.3616 17.6909 13.2848 17.6965 13.2077 17.7003C13.1307 17.7041 13.0536 17.706 12.9765 17.706C12.8995 17.7059 12.8225 17.704 12.7456 17.7002C12.6686 17.6964 12.5918 17.6907 12.5152 17.6831C12.4385 17.6755 12.3621 17.6661 12.2859 17.6547C12.2097 17.6434 12.1338 17.6302 12.0582 17.6152C11.9827 17.6001 11.9075 17.5832 11.8328 17.5645C11.7581 17.5458 11.6839 17.5252 11.6102 17.5028C11.5365 17.4805 11.4633 17.4563 11.3908 17.4303C11.3183 17.4044 11.2464 17.3767 11.1752 17.3472C11.1041 17.3177 11.0337 17.2865 10.964 17.2536C10.8944 17.2206 10.8256 17.186 10.7577 17.1497C10.6897 17.1134 10.6227 17.0754 10.5566 17.0359C10.4905 16.9963 10.4254 16.9551 10.3614 16.9123C10.2973 16.8695 10.2344 16.8252 10.1724 16.7793C10.1106 16.7335 10.0498 16.6861 9.99027 16.6373C9.9307 16.5884 9.87236 16.5381 9.81525 16.4864C9.75814 16.4347 9.70234 16.3816 9.64785 16.3272C9.59335 16.2727 9.5402 16.217 9.48842 16.16C9.43666 16.1029 9.38632 16.0446 9.3374 15.9851C9.2885 15.9256 9.24108 15.8649 9.19514 15.8031C9.1492 15.7412 9.10481 15.6783 9.06196 15.6143C9.0191 15.5503 8.97784 15.4853 8.93818 15.4192C8.89852 15.3532 8.8605 15.2862 8.8241 15.2183C8.78773 15.1504 8.75304 15.0816 8.72003 15.012C8.68702 14.9424 8.65574 14.872 8.62618 14.8009C8.59663 14.7298 8.56883 14.658 8.54278 14.5855C8.51674 14.513 8.4925 14.4399 8.47006 14.3662C8.4476 14.2925 8.42696 14.2183 8.40816 14.1436C8.38933 14.0689 8.37235 13.9938 8.35722 13.9182C8.34209 13.8427 8.32882 13.7668 8.31741 13.6906C8.30598 13.6145 8.29644 13.5381 8.28877 13.4614C8.2811 13.3847 8.27532 13.3079 8.27143 13.231C8.26752 13.1541 8.2655 13.0771 8.26538 13Z"   fill="#4C8BF5" >
</path>
<path d="M14.7626 19.4L11.0498 25.8517C10.8599 25.823 10.6707 25.79 10.4822 25.7527C10.2937 25.7155 10.1061 25.6741 9.91943 25.6286C9.73276 25.583 9.5472 25.5334 9.36272 25.4798C9.17828 25.4259 8.99509 25.3681 8.81319 25.3063C8.63129 25.2444 8.45086 25.1785 8.27186 25.1086C8.09291 25.0388 7.91555 24.9649 7.73982 24.8872C7.56412 24.8095 7.39025 24.7279 7.21815 24.6424C7.04605 24.557 6.87596 24.4677 6.70782 24.3747C6.53969 24.2817 6.37371 24.1851 6.20984 24.0847C6.04602 23.9844 5.88448 23.8804 5.72523 23.7729C5.56601 23.6654 5.40922 23.5544 5.25489 23.4399C5.1006 23.3254 4.94889 23.2076 4.79979 23.0864C4.6507 22.9652 4.50437 22.8408 4.36079 22.7131C4.21723 22.5854 4.07654 22.4546 3.93877 22.3207C3.801 22.1868 3.66628 22.0498 3.53455 21.91C3.40288 21.7701 3.27432 21.6273 3.14895 21.4817C3.02357 21.3361 2.90149 21.1878 2.78269 21.0368C2.66391 20.8858 2.54851 20.7322 2.43651 20.5761C2.32452 20.42 2.21605 20.2615 2.11109 20.1005C2.00613 19.9396 1.90479 19.7764 1.80707 19.611C1.70934 19.4456 1.61533 19.278 1.52504 19.1084C1.43474 18.9389 1.34824 18.7673 1.26556 18.5939C1.18286 18.4205 1.10406 18.2453 1.02913 18.0684C0.954205 17.8914 0.883238 17.7129 0.81623 17.5329C0.749221 17.3528 0.686235 17.1713 0.62727 16.9885C0.568308 16.8056 0.513426 16.6215 0.462625 16.4362C0.411823 16.2509 0.365153 16.0646 0.322616 15.8772C0.280076 15.6898 0.24171 15.5016 0.207517 15.3125C0.173323 15.1235 0.143336 14.9337 0.117556 14.7433C0.0917754 14.5529 0.0702264 14.3621 0.0529095 14.1707C0.0355921 13.9794 0.0225237 13.7877 0.0137041 13.5958C0.00488447 13.4039 0.00032223 13.2118 1.7401e-05 13.0197C-9.68591e-05 12.9504 0.000351581 12.8811 0.00136272 12.8118C0.00237386 12.7425 0.00394756 12.6732 0.00608382 12.604C0.00822011 12.5347 0.0109187 12.4655 0.0141795 12.3963C0.0174404 12.327 0.0212631 12.2578 0.0256478 12.1887C0.0300323 12.1195 0.0349779 12.0504 0.0404851 11.9813C0.0459923 11.9123 0.0520599 11.8432 0.0586881 11.7743C0.0653161 11.7053 0.0725042 11.6364 0.0802519 11.5675C0.0879993 11.4986 0.0963056 11.4299 0.105171 11.3611C0.114035 11.2924 0.123458 11.2237 0.133437 11.1552C0.143417 11.0866 0.153953 11.0181 0.165045 10.9497C0.176138 10.8813 0.187784 10.813 0.199986 10.7448C0.212188 10.6766 0.224942 10.6085 0.23825 10.5405C0.251558 10.4725 0.265418 10.4046 0.279828 10.3368C0.294237 10.269 0.309197 10.2013 0.324708 10.1338C0.340217 10.0663 0.356274 9.99885 0.372877 9.93159C0.389479 9.86433 0.406631 9.79717 0.424326 9.73016C0.44202 9.66316 0.460256 9.59633 0.479037 9.52963C0.497819 9.46292 0.517138 9.39638 0.536999 9.32998C0.556862 9.26358 0.577261 9.19737 0.598195 9.13132C0.619133 9.06526 0.640605 8.99938 0.662611 8.93368C0.684618 8.86797 0.707157 8.80245 0.730227 8.73711C0.753299 8.67175 0.7769 8.6066 0.801028 8.54165C0.825157 8.47669 0.849811 8.41192 0.874991 8.34736C0.900171 8.28282 0.925877 8.21847 0.952103 8.15432C0.978329 8.09018 1.00507 8.02626 1.03234 7.96257C1.0596 7.89886 1.08738 7.83537 1.11568 7.77211C1.14397 7.70886 1.17278 7.64584 1.2021 7.58305C1.23141 7.52027 1.26124 7.45773 1.29158 7.39542C1.32191 7.33311 1.35275 7.27105 1.38409 7.20925C1.41544 7.14745 1.44728 7.08591 1.47962 7.02464C1.51196 6.96335 1.5448 6.90232 1.57813 6.84157C1.61146 6.78082 1.64529 6.72035 1.6796 6.66016L6.97054 15.8029C7.00395 15.8737 7.03859 15.9439 7.07444 16.0134C7.11034 16.0829 7.14741 16.1519 7.1857 16.2201C7.22399 16.2883 7.26347 16.3559 7.30415 16.4227C7.34482 16.4896 7.38664 16.5557 7.42963 16.6211C7.47264 16.6865 7.51677 16.7511 7.56201 16.8149C7.60728 16.8787 7.65365 16.9418 7.70113 17.004C7.74861 17.0662 7.79718 17.1275 7.84679 17.188C7.89643 17.2485 7.94711 17.3081 7.99883 17.3668C8.05058 17.4256 8.10332 17.4833 8.15707 17.5402C8.21084 17.597 8.26559 17.653 8.32132 17.7079C8.37705 17.7628 8.43372 17.8168 8.49134 17.8697C8.54897 17.9226 8.6075 17.9745 8.66694 18.0254C8.7264 18.0763 8.78673 18.1262 8.84792 18.1749C8.90911 18.2237 8.97117 18.2714 9.03403 18.318C9.0969 18.3645 9.16058 18.41 9.22505 18.4543C9.28954 18.4987 9.35477 18.5419 9.42073 18.5839C9.48675 18.626 9.55345 18.6669 9.62089 18.7066C9.68833 18.7463 9.75642 18.7848 9.82521 18.8221C9.89399 18.8594 9.96341 18.8955 10.0335 18.9304C10.1035 18.9652 10.1741 18.9989 10.2454 19.0313C10.3166 19.0637 10.3884 19.0948 10.4607 19.1247C10.533 19.1545 10.6059 19.1831 10.6792 19.2104C10.7525 19.2377 10.8263 19.2637 10.9006 19.2884C10.9748 19.3131 11.0495 19.3366 11.1246 19.3586C11.1997 19.3807 11.2751 19.4015 11.3509 19.4209C11.4267 19.4403 11.5028 19.4585 11.5792 19.4752C11.6557 19.492 11.7324 19.5074 11.8093 19.5215C11.8863 19.5355 11.9635 19.5482 12.0409 19.5596C12.1184 19.5709 12.196 19.5809 12.2738 19.5895C12.3515 19.5982 12.4294 19.6054 12.5074 19.6113C12.5855 19.6172 12.6636 19.6217 12.7418 19.6248C12.82 19.628 12.8982 19.6297 12.9764 19.6301C13.127 19.6284 13.2774 19.6222 13.4277 19.6117C13.5779 19.6011 13.7276 19.5862 13.877 19.5669C14.0263 19.5475 14.175 19.5238 14.3229 19.4958C14.4709 19.4677 14.6179 19.4354 14.7639 19.3987L14.7626 19.4Z"   fill="#1DA362" >
</path>
</svg>
