<svg xmlns="http://www.w3.org/2000/svg" xmlns:xlink="http://www.w3.org/1999/xlink" viewBox="0 0 24 24" fill="none">
<path d="M19.5027 1.49866L4.50278 1.49866C2.84583 1.49866 1.50684 2.83766 1.50684 4.49458L1.50684 19.4945C1.50684 21.1514 2.84794 22.4953 4.5048 22.4953L4.50278 22.496L19.5027 22.496L19.5027 22.4953C19.6133 22.4953 19.7235 22.4892 19.8334 22.4771C19.9433 22.4649 20.0522 22.4468 20.1602 22.4226C20.172 22.42 20.1838 22.4171 20.1955 22.4142C20.2705 22.3964 20.3444 22.3759 20.4171 22.3526L20.4417 22.3446C20.4694 22.3354 20.497 22.3259 20.5244 22.316L20.5428 22.3092C20.5694 22.2993 20.5958 22.2891 20.6221 22.2785C20.6447 22.2694 20.6672 22.2601 20.6898 22.2504C20.7036 22.2445 20.7173 22.2385 20.731 22.2323C20.7446 22.2261 20.7589 22.2196 20.7739 22.2126C20.7944 22.203 20.8147 22.1932 20.8349 22.1832L20.8363 22.1825C20.8969 22.1524 20.9562 22.1203 21.0141 22.0862C21.0876 22.0433 21.1593 21.9972 21.229 21.9482C21.2986 21.8991 21.3661 21.8472 21.4313 21.7924C21.4966 21.7376 21.5594 21.6802 21.6198 21.6201C21.6802 21.5599 21.7379 21.4974 21.793 21.4324L21.7969 21.4278C21.8255 21.3939 21.8533 21.3595 21.8803 21.3244L21.8883 21.3141C21.9299 21.2597 21.9696 21.2039 22.0074 21.1467C22.0452 21.0895 22.081 21.0311 22.1147 20.9715C22.1485 20.9119 22.1802 20.8511 22.2098 20.7894C22.2395 20.7276 22.2669 20.6648 22.2922 20.6011L22.2979 20.5867C22.326 20.5149 22.3512 20.4421 22.3737 20.3683C22.3961 20.2945 22.4157 20.2199 22.4324 20.1446C22.449 20.0693 22.4627 19.9935 22.4735 19.9171C22.4843 19.8407 22.4921 19.764 22.4969 19.6871C22.4977 19.6743 22.4985 19.6615 22.4991 19.6488C22.5004 19.6234 22.5021 19.598 22.5028 19.5718C22.5035 19.5457 22.5045 19.5203 22.5045 19.4944L22.5045 4.49458C22.5041 2.83766 21.1596 1.49866 19.5027 1.49866ZM4.50278 20.9974C4.47822 20.9973 4.45368 20.9967 4.42916 20.9954C4.40465 20.9942 4.38018 20.9923 4.35576 20.9899C4.33131 20.9874 4.30696 20.9844 4.2827 20.9807C4.25842 20.9771 4.23423 20.9728 4.21019 20.968C4.18609 20.9632 4.16216 20.9577 4.13838 20.9517C4.11456 20.9457 4.09091 20.9391 4.06745 20.932C4.04397 20.9248 4.02067 20.917 3.99759 20.9087C3.97448 20.9004 3.95158 20.8915 3.92894 20.8821C3.90625 20.8727 3.88384 20.8627 3.86167 20.8521C3.83949 20.8416 3.81759 20.8305 3.79597 20.8189C3.77434 20.8073 3.75301 20.7952 3.73196 20.7825C3.71093 20.7699 3.69022 20.7567 3.66983 20.743C3.64945 20.7293 3.62941 20.7152 3.60971 20.7005C3.59002 20.6859 3.5707 20.6707 3.55175 20.6551C3.53281 20.6395 3.51426 20.6234 3.49608 20.6069C3.47793 20.5904 3.46019 20.5734 3.44286 20.556C3.42553 20.5386 3.40864 20.5208 3.39219 20.5026C3.37573 20.4844 3.35974 20.4658 3.34421 20.4468C3.32866 20.4278 3.3136 20.4084 3.29902 20.3887C3.28443 20.3689 3.27033 20.3488 3.25672 20.3284C3.24312 20.308 3.23004 20.2872 3.21746 20.2661C3.20487 20.245 3.1928 20.2236 3.18127 20.202C3.16974 20.1803 3.15875 20.1584 3.1483 20.1362C3.13784 20.114 3.12794 20.0915 3.11858 20.0688C3.10922 20.0461 3.10043 20.0232 3.09221 20.0001C3.08398 19.9769 3.07632 19.9536 3.06924 19.9301C3.06216 19.9066 3.05566 19.8829 3.04974 19.8591C3.04382 19.8353 3.03848 19.8113 3.03373 19.7872C3.02898 19.7631 3.02483 19.739 3.02126 19.7147C3.01772 19.6904 3.01476 19.666 3.01238 19.6416C3.01002 19.6171 3.00826 19.5927 3.00711 19.5681C3.00595 19.5436 3.0054 19.5191 3.00544 19.4945L3.00544 11.9973L6.00264 11.9973L6.00264 13.4946C6.00259 13.5436 6.00377 13.5927 6.00616 13.6418C6.00855 13.6908 6.01213 13.7397 6.01691 13.7886C6.0217 13.8375 6.0277 13.8862 6.03487 13.9348C6.04204 13.9833 6.05043 14.0317 6.05999 14.0799C6.06953 14.128 6.08027 14.1759 6.0922 14.2235C6.1041 14.2712 6.11718 14.3185 6.13143 14.3655C6.14566 14.4124 6.16103 14.4591 6.17758 14.5053C6.1941 14.5515 6.21175 14.5973 6.23055 14.6427C6.24932 14.6881 6.2692 14.7329 6.29019 14.7773C6.31117 14.8217 6.33323 14.8655 6.35638 14.9088C6.37952 14.9522 6.4037 14.9949 6.42895 15.037C6.45419 15.0791 6.48044 15.1206 6.50772 15.1614C6.535 15.2022 6.56327 15.2423 6.59252 15.2818C6.62177 15.3212 6.65195 15.3599 6.68313 15.3978C6.71427 15.4358 6.74634 15.4729 6.77934 15.5093C6.81229 15.5457 6.84616 15.5812 6.88089 15.6159C6.9156 15.6506 6.95116 15.6845 6.98755 15.7174C7.02393 15.7504 7.06112 15.7825 7.09909 15.8136C7.13706 15.8447 7.17576 15.8749 7.2152 15.9041C7.25465 15.9333 7.2948 15.9616 7.33562 15.9889C7.37645 16.0161 7.41794 16.0424 7.46008 16.0676C7.5022 16.0928 7.54492 16.117 7.58823 16.1401C7.63155 16.1632 7.6754 16.1852 7.71981 16.2062C7.7642 16.2272 7.80909 16.247 7.85446 16.2658C7.89984 16.2846 7.94563 16.3022 7.99188 16.3187C8.03812 16.3352 8.08473 16.3506 8.13173 16.3648C8.17872 16.379 8.22604 16.392 8.27369 16.4039C8.32131 16.4158 8.3692 16.4265 8.41738 16.4361C8.46552 16.4456 8.5139 16.4539 8.56248 16.4611C8.61105 16.4683 8.65977 16.4742 8.70864 16.479C8.75751 16.4837 8.80647 16.4873 8.8555 16.4897C8.90453 16.492 8.95361 16.4932 9.00271 16.4931L15.0027 16.4931C15.0518 16.4932 15.1008 16.492 15.1499 16.4897C15.1989 16.4874 15.2478 16.4838 15.2967 16.479C15.3455 16.4743 15.3942 16.4683 15.4428 16.4612C15.4914 16.454 15.5397 16.4457 15.5879 16.4362C15.636 16.4267 15.6839 16.4159 15.7315 16.4041C15.7792 16.3922 15.8265 16.3791 15.8734 16.3649C15.9204 16.3507 15.967 16.3353 16.0133 16.3188C16.0595 16.3023 16.1053 16.2847 16.1506 16.266C16.196 16.2472 16.2409 16.2273 16.2853 16.2064C16.3296 16.1854 16.3735 16.1634 16.4168 16.1403C16.4601 16.1171 16.5028 16.093 16.5449 16.0677C16.587 16.0425 16.6285 16.0163 16.6693 15.989C16.7101 15.9617 16.7502 15.9335 16.7896 15.9043C16.8291 15.875 16.8678 15.8448 16.9057 15.8137C16.9436 15.7825 16.9808 15.7505 17.0172 15.7175C17.0535 15.6846 17.089 15.6507 17.1238 15.616C17.1584 15.5813 17.1923 15.5457 17.2252 15.5094C17.2582 15.473 17.2902 15.4358 17.3213 15.3979C17.3525 15.3599 17.3826 15.3212 17.4119 15.2818C17.4411 15.2423 17.4693 15.2022 17.4966 15.1614C17.5238 15.1205 17.55 15.079 17.5752 15.0369C17.6004 14.9948 17.6246 14.9521 17.6477 14.9088C17.6708 14.8655 17.6928 14.8216 17.7137 14.7772C17.7347 14.7329 17.7545 14.688 17.7733 14.6426C17.792 14.5972 17.8096 14.5514 17.8261 14.5052C17.8426 14.459 17.8579 14.4123 17.8721 14.3654C17.8863 14.3184 17.8993 14.2711 17.9112 14.2234C17.923 14.1758 17.9337 14.1279 17.9432 14.0798C17.9527 14.0316 17.9611 13.9832 17.9682 13.9347C17.9753 13.8861 17.9812 13.8374 17.986 13.7886C17.9907 13.7397 17.9942 13.6908 17.9965 13.6417C17.9988 13.5927 18 13.5436 17.9999 13.4946L17.9999 11.9945L18.0027 11.9973L21.0055 11.9973L21.0055 19.4945C21.0056 19.5145 21.0052 19.5344 21.0044 19.5542C21.0036 19.5741 21.0025 19.594 21.0009 19.6139C20.9993 19.6337 20.9974 19.6535 20.995 19.6733C20.9926 19.6931 20.9899 19.7128 20.9867 19.7325C20.9836 19.7521 20.98 19.7717 20.9761 19.7912C20.9721 19.8107 20.9678 19.8302 20.9631 19.8495C20.9584 19.8689 20.9533 19.8881 20.9478 19.9073C20.9423 19.9264 20.9364 19.9454 20.9302 19.9643C20.9239 19.9832 20.9173 20.002 20.9103 20.0206C20.9033 20.0393 20.8959 20.0578 20.8882 20.0761C20.8804 20.0944 20.8723 20.1126 20.8638 20.1307C20.8553 20.1487 20.8465 20.1665 20.8373 20.1842C20.8281 20.2019 20.8186 20.2193 20.8087 20.2366C20.7988 20.2539 20.7886 20.271 20.778 20.2878C20.7674 20.3047 20.7565 20.3214 20.7453 20.3378C20.734 20.3542 20.7225 20.3704 20.7106 20.3864C20.6658 20.4462 20.617 20.5025 20.5641 20.5551C20.5556 20.5636 20.546 20.5728 20.5369 20.5813C20.52 20.5976 20.5024 20.6132 20.4847 20.6286C20.4504 20.6582 20.415 20.6863 20.3783 20.7128C20.3639 20.7232 20.3493 20.7335 20.3346 20.7433C20.3198 20.7531 20.3043 20.7629 20.289 20.7724C20.257 20.7922 20.2242 20.8107 20.1909 20.8279C20.1803 20.8336 20.1697 20.8389 20.159 20.8439C20.1398 20.8532 20.1205 20.8622 20.101 20.8707C20.0761 20.8815 20.051 20.8916 20.0256 20.901C20.0169 20.9042 20.0081 20.9074 19.9994 20.9105C19.9819 20.9166 19.9644 20.9222 19.9467 20.9274C19.9211 20.9353 19.8952 20.9426 19.8692 20.9491L19.8673 20.9495C19.8355 20.9574 19.8033 20.9643 19.7708 20.9701C19.75 20.9738 19.7292 20.9786 19.7083 20.9814C19.6401 20.9912 19.5716 20.9963 19.5027 20.9968L4.50278 20.9968L4.50278 20.9974ZM18.0027 10.4987C17.1742 10.4987 16.5013 11.1661 16.5013 11.9945L16.5013 13.4946C16.5013 14.323 15.8312 14.9945 15.0027 14.9945L9.00271 14.9945C8.17434 14.9945 7.50123 14.3229 7.50123 13.4946L7.50123 11.9945C7.50123 11.1661 6.83118 10.4987 6.00264 10.4987L3.00544 10.4987L3.00544 4.49458C3.00541 4.47006 3.00598 4.44555 3.00715 4.42108C3.00833 4.39659 3.0101 4.37214 3.01248 4.34777C3.01485 4.32334 3.01782 4.29902 3.02138 4.27478C3.02496 4.25052 3.02912 4.22638 3.03387 4.20234C3.03864 4.17829 3.04399 4.15436 3.04993 4.13059C3.05586 4.10681 3.06238 4.08318 3.06947 4.05972C3.07657 4.03623 3.08423 4.01296 3.09247 3.9899C3.10072 3.96679 3.10952 3.94391 3.11888 3.92127C3.12826 3.89861 3.13818 3.8762 3.14865 3.85406C3.15912 3.83188 3.17012 3.80998 3.18167 3.78836C3.1932 3.76673 3.20526 3.7454 3.21786 3.72437C3.23047 3.70334 3.24358 3.68263 3.25719 3.66224C3.2708 3.64186 3.2849 3.62182 3.29949 3.60212C3.31409 3.58243 3.32916 3.56311 3.34473 3.54416C3.36027 3.52521 3.37627 3.50665 3.39272 3.4885C3.40919 3.47032 3.42609 3.45257 3.44342 3.43525C3.46075 3.4179 3.4785 3.401 3.49667 3.38455C3.51483 3.36808 3.53338 3.35207 3.55233 3.33653C3.57129 3.32098 3.59061 3.30591 3.61032 3.29132C3.63001 3.27672 3.65005 3.26261 3.67044 3.24899C3.69081 3.23538 3.71151 3.22228 3.73255 3.20968C3.75358 3.19709 3.7749 3.18502 3.79653 3.17347C3.81816 3.16193 3.84005 3.15093 3.86223 3.14047C3.88441 3.13 3.90681 3.12008 3.92948 3.11071C3.95212 3.10135 3.97497 3.09254 3.99808 3.08429C4.02114 3.07606 4.04441 3.0684 4.0679 3.0613C4.09136 3.05419 4.11498 3.04768 4.13877 3.04175C4.16254 3.03582 4.18647 3.03046 4.21052 3.0257C4.23456 3.02095 4.2587 3.01679 4.28296 3.01321C4.30722 3.00963 4.33155 3.00665 4.35595 3.00428C4.38034 3.0019 4.40479 3.00013 4.42928 2.99896C4.45375 2.99779 4.47827 2.99722 4.50278 2.99725L19.5027 2.99725C19.5273 2.99722 19.5518 2.99778 19.5763 2.99893C19.6008 3.00009 19.6253 3.00185 19.6498 3.00421C19.6742 3.00657 19.6986 3.00953 19.7229 3.01309C19.7471 3.01665 19.7713 3.02081 19.7954 3.02556C19.8195 3.03029 19.8435 3.03562 19.8673 3.04154C19.8911 3.04747 19.9148 3.05397 19.9383 3.06107C19.9618 3.06814 19.9851 3.0758 20.0082 3.08404C20.0313 3.09225 20.0543 3.10104 20.077 3.1104C20.0997 3.11975 20.1221 3.12965 20.1443 3.14012C20.1666 3.15057 20.1885 3.16157 20.2102 3.1731C20.2318 3.18463 20.2532 3.19668 20.2743 3.20926C20.2954 3.22185 20.3161 3.23495 20.3366 3.24854C20.357 3.26215 20.3771 3.27625 20.3969 3.29082C20.4166 3.30542 20.436 3.32048 20.455 3.33601C20.474 3.35156 20.4926 3.36756 20.5108 3.38401C20.529 3.40047 20.5468 3.41736 20.5642 3.43468C20.5816 3.45201 20.5986 3.46975 20.6151 3.48791C20.6316 3.50607 20.6477 3.52462 20.6633 3.54357C20.6789 3.56253 20.694 3.58185 20.7087 3.60154C20.7234 3.62122 20.7375 3.64126 20.7512 3.66165C20.7649 3.68204 20.778 3.70275 20.7907 3.72379C20.8034 3.74482 20.8155 3.76615 20.8271 3.78779C20.8387 3.80942 20.8498 3.83132 20.8603 3.85349C20.8709 3.87566 20.8809 3.89807 20.8903 3.92074C20.8997 3.9434 20.9086 3.96627 20.9169 3.98938C20.9252 4.01249 20.933 4.03577 20.9402 4.05925C20.9473 4.08274 20.9539 4.10636 20.9599 4.13017C20.9659 4.15399 20.9714 4.17791 20.9762 4.20199C20.981 4.22606 20.9852 4.25022 20.9889 4.2745C20.9925 4.29878 20.9956 4.32313 20.998 4.34758C21.0005 4.372 21.0023 4.39647 21.0036 4.42099C21.0048 4.4455 21.0055 4.47002 21.0055 4.49458L21.0055 10.4987L18.0027 10.4987Z"   fill="#000000" >
</path>
<path d="M15.0027 8.24655L12.7506 8.24655L12.7506 5.99441C12.7506 5.98215 12.7503 5.96989 12.7497 5.95764C12.7491 5.94539 12.7481 5.93316 12.7469 5.92096C12.7458 5.90876 12.7443 5.89659 12.7424 5.88447C12.7406 5.87233 12.7386 5.86025 12.7362 5.84823C12.7338 5.8362 12.7311 5.82424 12.7281 5.81235C12.7251 5.80045 12.7219 5.78863 12.7183 5.77689C12.7147 5.76516 12.7109 5.75352 12.7068 5.74197C12.7026 5.73042 12.6982 5.71898 12.6935 5.70766C12.6888 5.69633 12.6839 5.68513 12.6786 5.67405C12.6734 5.66295 12.6679 5.652 12.6621 5.64119C12.6563 5.63038 12.6503 5.61971 12.644 5.6092C12.6377 5.59868 12.6311 5.58832 12.6243 5.57812C12.6175 5.56791 12.6104 5.55789 12.6031 5.54805C12.5958 5.5382 12.5883 5.52854 12.5805 5.51905C12.5727 5.50957 12.5647 5.50029 12.5565 5.49121C12.5482 5.48212 12.5398 5.47323 12.5311 5.46456C12.5224 5.45589 12.5136 5.44744 12.5045 5.4392C12.4954 5.43097 12.4861 5.42296 12.4766 5.41518C12.4671 5.40741 12.4575 5.39988 12.4476 5.39256C12.4378 5.38527 12.4278 5.37821 12.4176 5.3714C12.4074 5.36457 12.397 5.35801 12.3865 5.35171C12.376 5.34541 12.3653 5.33938 12.3545 5.33359C12.3437 5.32781 12.3327 5.3223 12.3216 5.31705C12.3105 5.3118 12.2993 5.30683 12.288 5.30214C12.2767 5.29745 12.2653 5.29304 12.2537 5.2889C12.2422 5.28477 12.2305 5.28093 12.2188 5.27737C12.207 5.2738 12.1952 5.27054 12.1833 5.26757C12.1714 5.26459 12.1595 5.2619 12.1474 5.25951C12.1354 5.25712 12.1233 5.25502 12.1112 5.25323C12.0991 5.25141 12.0869 5.24991 12.0747 5.24873C12.0625 5.24752 12.0503 5.24662 12.038 5.24601C12.0258 5.24541 12.0135 5.24512 12.0013 5.24512C11.989 5.24512 11.9767 5.24541 11.9645 5.24601C11.9523 5.24662 11.94 5.24752 11.9278 5.24873C11.9156 5.24991 11.9035 5.25141 11.8913 5.25323C11.8792 5.25502 11.8671 5.25712 11.8551 5.25951C11.8431 5.2619 11.8311 5.26459 11.8192 5.26757C11.8073 5.27054 11.7955 5.2738 11.7838 5.27737C11.772 5.28093 11.7604 5.28477 11.7488 5.2889C11.7373 5.29304 11.7258 5.29745 11.7145 5.30214C11.7032 5.30683 11.692 5.3118 11.6809 5.31705C11.6698 5.3223 11.6589 5.32781 11.6481 5.33359C11.6372 5.33938 11.6266 5.34541 11.616 5.35171C11.6055 5.35801 11.5952 5.36456 11.585 5.37137C11.5748 5.3782 11.5648 5.38527 11.5549 5.39256C11.5451 5.39988 11.5354 5.40741 11.5259 5.41518C11.5164 5.42296 11.5072 5.43097 11.4981 5.4392C11.489 5.44744 11.4801 5.45589 11.4714 5.46456C11.4628 5.47323 11.4543 5.48212 11.4461 5.49121C11.4378 5.50029 11.4298 5.50957 11.4221 5.51905C11.4143 5.52854 11.4067 5.5382 11.3994 5.54805C11.3921 5.55789 11.3851 5.56791 11.3782 5.57812C11.3714 5.58832 11.3649 5.59868 11.3586 5.6092C11.3523 5.61971 11.3462 5.63038 11.3404 5.64119C11.3347 5.652 11.3291 5.66295 11.3239 5.67405C11.3187 5.68513 11.3137 5.69633 11.309 5.70766C11.3043 5.71898 11.2999 5.73042 11.2958 5.74197C11.2916 5.75352 11.2878 5.76516 11.2842 5.77689C11.2807 5.78863 11.2774 5.80045 11.2744 5.81235C11.2714 5.82424 11.2687 5.8362 11.2664 5.84823C11.264 5.86025 11.2619 5.87233 11.2601 5.88447C11.2583 5.89659 11.2568 5.90876 11.2556 5.92096C11.2544 5.93316 11.2535 5.94539 11.2529 5.95764C11.2523 5.96989 11.252 5.98215 11.252 5.99441L11.252 8.24655L9.00272 8.24655C8.99045 8.24655 8.97819 8.24685 8.96594 8.24744C8.95371 8.24805 8.94149 8.24896 8.92929 8.25016C8.91707 8.25135 8.90489 8.25285 8.89277 8.25466C8.88065 8.25646 8.86857 8.25855 8.85653 8.26094C8.8445 8.26333 8.83254 8.26602 8.82065 8.269C8.80876 8.27198 8.79695 8.27523 8.78521 8.2788C8.77348 8.28236 8.76184 8.2862 8.75029 8.29033C8.73875 8.29448 8.72731 8.29888 8.71598 8.30357C8.70465 8.30826 8.69344 8.31323 8.68235 8.31848C8.67127 8.32373 8.66032 8.32923 8.64949 8.33502C8.63868 8.34081 8.62801 8.34684 8.6175 8.35314C8.60698 8.35945 8.59662 8.36598 8.58642 8.3728C8.57623 8.37963 8.56621 8.38668 8.55637 8.39399C8.54651 8.4013 8.53684 8.40885 8.52736 8.41661C8.51789 8.42439 8.50861 8.43241 8.49951 8.44063C8.49043 8.44886 8.48156 8.45732 8.47289 8.46599C8.46421 8.47466 8.45576 8.48355 8.44753 8.49264C8.43929 8.50171 8.43128 8.51099 8.4235 8.52048C8.41572 8.52998 8.40818 8.53963 8.40086 8.54948C8.39357 8.55932 8.38651 8.56935 8.3797 8.57955C8.37289 8.58974 8.36632 8.6001 8.36001 8.61062C8.35371 8.62115 8.34768 8.63181 8.34189 8.64262C8.33611 8.65342 8.3306 8.66439 8.32535 8.67548C8.32011 8.68656 8.31515 8.69777 8.31046 8.70909C8.30576 8.72041 8.30135 8.73184 8.29722 8.7434C8.29308 8.75495 8.28924 8.76658 8.28569 8.77832C8.28213 8.79006 8.27886 8.80187 8.27587 8.81378C8.27289 8.82566 8.2702 8.83764 8.26781 8.84966C8.26542 8.86169 8.26332 8.87376 8.26153 8.8859C8.25973 8.89802 8.25823 8.91018 8.25703 8.92239C8.25582 8.9346 8.25493 8.94681 8.25433 8.95907C8.25372 8.97133 8.25342 8.98359 8.25342 8.99584C8.25342 9.0081 8.25372 9.02034 8.25433 9.03259C8.25493 9.04485 8.25582 9.05706 8.25703 9.06927C8.25823 9.08148 8.25973 9.09365 8.26153 9.10579C8.26332 9.11791 8.26542 9.13 8.26781 9.14202C8.2702 9.15405 8.27289 9.166 8.27587 9.17791C8.27886 9.18979 8.28213 9.2016 8.28569 9.21334C8.28924 9.22509 8.29308 9.23671 8.29722 9.24827C8.30135 9.25982 8.30576 9.27126 8.31046 9.28258C8.31515 9.2939 8.32011 9.30512 8.32535 9.31621C8.3306 9.3273 8.33611 9.33824 8.34189 9.34905C8.34768 9.35985 8.35371 9.37054 8.36001 9.38106C8.36632 9.39159 8.37289 9.40192 8.3797 9.41212C8.38651 9.42231 8.39357 9.43234 8.40086 9.44219C8.40818 9.45205 8.41572 9.46171 8.4235 9.47118C8.43128 9.48067 8.43929 9.48995 8.44753 9.49902C8.45576 9.50812 8.46421 9.517 8.47289 9.52567C8.48156 9.53434 8.49043 9.5428 8.49951 9.55103C8.50861 9.55926 8.51789 9.56727 8.52736 9.57505C8.53684 9.58284 8.54651 9.59038 8.55637 9.59767C8.56621 9.60498 8.57623 9.61204 8.58642 9.61886C8.59662 9.62568 8.60698 9.63222 8.6175 9.63852C8.62801 9.64483 8.63868 9.65088 8.64949 9.65666C8.66032 9.66245 8.67127 9.66796 8.68235 9.67319C8.69344 9.67844 8.70465 9.68341 8.71598 9.68809C8.72731 9.6928 8.73875 9.69721 8.75029 9.70134C8.76184 9.70546 8.77348 9.7093 8.78521 9.71287C8.79695 9.71643 8.80876 9.71971 8.82065 9.72269C8.83254 9.72566 8.8445 9.72834 8.85653 9.73073C8.86857 9.73314 8.88065 9.73523 8.89277 9.73703C8.90489 9.73884 8.91707 9.74034 8.92929 9.74153C8.94149 9.74273 8.95371 9.74364 8.96594 9.74423C8.97819 9.74483 8.99045 9.74514 9.00272 9.74514L11.252 9.74514L11.252 11.9945C11.252 12.0067 11.2523 12.019 11.2529 12.0312C11.2535 12.0435 11.2544 12.0557 11.2556 12.0679C11.2568 12.0801 11.2583 12.0923 11.2601 12.1044C11.2619 12.1165 11.264 12.1286 11.2664 12.1406C11.2687 12.1527 11.2714 12.1646 11.2744 12.1765C11.2774 12.1884 11.2807 12.2002 11.2842 12.212C11.2878 12.2237 11.2916 12.2354 11.2958 12.2469C11.2999 12.2585 11.3043 12.2699 11.309 12.2812C11.3137 12.2925 11.3187 12.3037 11.3239 12.3148C11.3291 12.3259 11.3347 12.3369 11.3404 12.3477C11.3462 12.3585 11.3523 12.3692 11.3586 12.3797C11.3649 12.3902 11.3714 12.4006 11.3782 12.4108C11.3851 12.421 11.3921 12.431 11.3994 12.4408C11.4067 12.4507 11.4143 12.4603 11.4221 12.4698C11.4298 12.4793 11.4378 12.4886 11.4461 12.4977C11.4543 12.5068 11.4628 12.5156 11.4714 12.5243C11.4801 12.533 11.489 12.5414 11.4981 12.5497C11.5072 12.5579 11.5164 12.5659 11.5259 12.5737C11.5354 12.5815 11.5451 12.589 11.5549 12.5963C11.5648 12.6036 11.5748 12.6107 11.585 12.6175C11.5952 12.6243 11.6055 12.6309 11.616 12.6372C11.6266 12.6435 11.6372 12.6495 11.6481 12.6553C11.6589 12.6611 11.6698 12.6666 11.6809 12.6718C11.692 12.6771 11.7032 12.682 11.7145 12.6867C11.7258 12.6914 11.7373 12.6958 11.7488 12.7C11.7604 12.7041 11.772 12.7079 11.7838 12.7115C11.7955 12.7151 11.8073 12.7183 11.8192 12.7213C11.8311 12.7243 11.8431 12.727 11.8551 12.7294C11.8671 12.7318 11.8792 12.7338 11.8913 12.7356C11.9035 12.7375 11.9156 12.739 11.9278 12.7402C11.94 12.7414 11.9523 12.7423 11.9645 12.7429C11.9767 12.7435 11.989 12.7438 12.0013 12.7438C12.0135 12.7438 12.0258 12.7435 12.038 12.7429C12.0503 12.7423 12.0625 12.7414 12.0747 12.7402C12.0869 12.739 12.0991 12.7375 12.1112 12.7356C12.1233 12.7338 12.1354 12.7318 12.1474 12.7294C12.1595 12.727 12.1714 12.7243 12.1833 12.7213C12.1952 12.7183 12.207 12.7151 12.2188 12.7115C12.2305 12.7079 12.2422 12.7041 12.2537 12.7C12.2653 12.6958 12.2767 12.6914 12.288 12.6867C12.2993 12.682 12.3105 12.6771 12.3216 12.6718C12.3327 12.6666 12.3437 12.6611 12.3545 12.6553C12.3653 12.6495 12.376 12.6435 12.3865 12.6372C12.397 12.6309 12.4074 12.6243 12.4176 12.6175C12.4278 12.6107 12.4378 12.6036 12.4476 12.5963C12.4575 12.589 12.4671 12.5815 12.4766 12.5737C12.4861 12.5659 12.4954 12.5579 12.5045 12.5497C12.5136 12.5414 12.5224 12.533 12.5311 12.5243C12.5398 12.5156 12.5482 12.5068 12.5564 12.4977C12.5647 12.4886 12.5727 12.4793 12.5805 12.4698C12.5883 12.4603 12.5958 12.4507 12.6031 12.4408C12.6104 12.431 12.6175 12.421 12.6243 12.4108C12.6311 12.4006 12.6377 12.3902 12.644 12.3797C12.6503 12.3692 12.6563 12.3585 12.6621 12.3477C12.6679 12.3369 12.6734 12.3259 12.6786 12.3148C12.6839 12.3037 12.6888 12.2925 12.6935 12.2812C12.6982 12.2699 12.7026 12.2585 12.7068 12.2469C12.7109 12.2354 12.7147 12.2237 12.7183 12.212C12.7219 12.2002 12.7251 12.1884 12.7281 12.1765C12.7311 12.1646 12.7338 12.1527 12.7362 12.1406C12.7386 12.1286 12.7406 12.1165 12.7424 12.1044C12.7443 12.0923 12.7458 12.0801 12.7469 12.0679C12.7481 12.0557 12.7491 12.0435 12.7497 12.0312C12.7503 12.019 12.7506 12.0067 12.7506 11.9945L12.7506 9.74514L15.0027 9.74514C15.0149 9.74514 15.0272 9.74483 15.0395 9.74423C15.0517 9.74364 15.0639 9.74273 15.0761 9.74153C15.0884 9.74034 15.1005 9.73884 15.1126 9.73703C15.1248 9.73523 15.1368 9.73314 15.1489 9.73073C15.1609 9.72834 15.1729 9.72566 15.1848 9.72269C15.1967 9.71971 15.2085 9.71643 15.2202 9.71287C15.232 9.7093 15.2436 9.70546 15.2551 9.70134C15.2667 9.69719 15.2781 9.69278 15.2894 9.68809C15.3008 9.68341 15.312 9.67844 15.3231 9.67319C15.3341 9.66796 15.3451 9.66245 15.3559 9.65666C15.3667 9.65088 15.3774 9.64483 15.3879 9.63852C15.3984 9.63222 15.4088 9.62568 15.419 9.61886C15.4292 9.61204 15.4392 9.60498 15.4491 9.59767C15.4589 9.59038 15.4686 9.58284 15.4781 9.57505C15.4875 9.56727 15.4968 9.55926 15.5059 9.55103C15.515 9.5428 15.5238 9.53434 15.5325 9.52567C15.5412 9.517 15.5497 9.50812 15.5579 9.49902C15.5661 9.48995 15.5741 9.48067 15.5819 9.47118C15.5897 9.46171 15.5972 9.45205 15.6045 9.44219C15.6118 9.43234 15.6189 9.42231 15.6257 9.41212C15.6325 9.40192 15.6391 9.39159 15.6454 9.38106C15.6517 9.37054 15.6577 9.35985 15.6635 9.34905C15.6693 9.33824 15.6748 9.3273 15.6801 9.31621C15.6853 9.30512 15.6903 9.2939 15.695 9.28258C15.6997 9.27126 15.7041 9.25982 15.7082 9.24827C15.7123 9.23671 15.7162 9.22509 15.7197 9.21334C15.7233 9.2016 15.7266 9.18979 15.7295 9.17791C15.7325 9.166 15.7352 9.15405 15.7376 9.14202C15.74 9.13 15.7421 9.11791 15.7439 9.10579C15.7457 9.09365 15.7472 9.08148 15.7484 9.06927C15.7496 9.05706 15.7505 9.04485 15.7511 9.03259C15.7517 9.02034 15.752 9.0081 15.752 8.99584C15.752 8.98359 15.7517 8.97133 15.7511 8.95907C15.7505 8.94681 15.7496 8.9346 15.7484 8.92239C15.7472 8.91018 15.7457 8.89802 15.7439 8.8859C15.7421 8.87376 15.74 8.86169 15.7376 8.84966C15.7352 8.83764 15.7325 8.82566 15.7295 8.81378C15.7266 8.80187 15.7233 8.79006 15.7197 8.77832C15.7162 8.76658 15.7123 8.75495 15.7082 8.7434C15.7041 8.73184 15.6997 8.72041 15.695 8.70909C15.6903 8.69777 15.6853 8.68656 15.6801 8.67548C15.6748 8.66439 15.6693 8.65342 15.6635 8.64262C15.6577 8.63181 15.6517 8.62115 15.6454 8.61062C15.6391 8.6001 15.6325 8.58974 15.6257 8.57955C15.6189 8.56935 15.6118 8.55932 15.6045 8.54948C15.5972 8.53963 15.5897 8.52998 15.5819 8.52048C15.5741 8.51099 15.5661 8.50171 15.5579 8.49264C15.5497 8.48355 15.5412 8.47466 15.5325 8.46599C15.5238 8.45732 15.515 8.44886 15.5059 8.44063C15.4968 8.43241 15.4875 8.42439 15.4781 8.41661C15.4686 8.40885 15.4589 8.4013 15.4491 8.39399C15.4392 8.3867 15.4292 8.37965 15.419 8.37283C15.4088 8.36601 15.3984 8.35945 15.3879 8.35314C15.3774 8.34684 15.3667 8.34081 15.3559 8.33502C15.3451 8.32923 15.3341 8.32373 15.3231 8.31848C15.312 8.31323 15.3008 8.30826 15.2894 8.30357C15.2781 8.29888 15.2667 8.29448 15.2551 8.29033C15.2436 8.2862 15.232 8.28236 15.2202 8.2788C15.2085 8.27523 15.1967 8.27198 15.1848 8.269C15.1729 8.26602 15.1609 8.26333 15.1489 8.26094C15.1368 8.25855 15.1248 8.25646 15.1126 8.25466C15.1005 8.25285 15.0884 8.25135 15.0761 8.25016C15.0639 8.24896 15.0517 8.24805 15.0395 8.24744C15.0272 8.24685 15.0149 8.24655 15.0027 8.24655Z"   fill="#000000" >
</path>
</svg>
