<svg xmlns="http://www.w3.org/2000/svg" xmlns:xlink="http://www.w3.org/1999/xlink" viewBox="0 0 60 60" fill="none">
<path     fill="#FFFFFF" fill-opacity="0.4" d="M30 0C46.554 0 60 13.446 60 30C60 46.554 46.554 60 30 60C13.446 60 0 46.554 0 30C0 13.446 13.446 0 30 0Z">
</path>
<path fill-rule="evenodd"  fill="rgba(255, 255, 255, 1)"  d="M60 30C60 13.446 46.554 0 30 0C13.446 0 0 13.446 0 30C0 46.554 13.446 60 30 60C46.554 60 60 46.554 60 30ZM1 30C1 13.9837 13.9837 1 30 1C46.0163 1 59 13.9837 59 30C59 46.0163 46.0163 59 30 59C13.9837 59 1 46.0163 1 30Z">
</path>
<path d="M28.44 41.1401L19.95 41.1401C19.3801 41.1401 18.91 40.6681 18.91 40.0701L18.91 19.9301C18.91 19.3321 19.3801 18.8601 19.95 18.8601L36.92 18.8601C37.49 18.8601 37.97 19.3321 37.97 19.9301L37.97 26.5001C37.97 27.013 38.3936 27.4301 38.92 27.4301C39.4464 27.4301 39.87 27.013 39.87 26.5001L39.87 19.9301C39.87 18.3181 38.5545 17.0001 36.92 17.0001L19.95 17.0001C18.3156 17.0001 17 18.3181 17 19.9301L17 40.0701C17 41.6821 18.3156 43.0001 19.95 43.0001L28.44 43.0001C28.9663 43.0001 29.39 42.583 29.39 42.0701C29.39 41.5572 28.9663 41.1401 28.44 41.1401Z" stroke="rgba(78, 89, 105, 1)" stroke-width="0.30000001192092896"    fill-rule="evenodd"  fill="#4E5969" >
</path>
<path d="M35.9999 29.0002C32.134 29.0002 29 32.1343 29 36.0002C29 39.8662 32.134 43.0003 35.9999 43.0003C39.866 43.0003 43 39.8662 43 36.0002C43 32.1343 39.866 29.0002 35.9999 29.0002ZM35.9999 41.2502C33.1005 41.2502 30.75 38.8997 30.75 36.0002C30.75 33.1008 33.1005 30.7502 35.9999 30.7502C38.8995 30.7502 41.25 33.1008 41.25 36.0002C41.25 38.8997 38.8995 41.2502 35.9999 41.2502Z" stroke="rgba(78, 89, 105, 1)" stroke-width="0.30000001192092896"      fill="#4E5969" >
</path>
<path d="M38.89 35.9335L36.15 35.9335L36.15 33.8585C36.15 33.2871 35.651 32.8251 35.04 32.8251C34.429 32.8251 33.93 33.2871 33.93 33.8585L33.93 36.9668C33.93 37.5381 34.429 38.0001 35.04 38.0001L38.89 38.0001C39.501 38.0001 40 37.5381 40 36.9668C40 36.3955 39.501 35.9335 38.89 35.9335ZM36.15 24.0335C36.15 23.4621 35.651 23.0001 35.04 23.0001L20.11 23.0001C19.499 23.0001 19 23.4622 19 24.0335C19 24.6048 19.499 25.0668 20.11 25.0668L35.04 25.0668C35.651 25.0668 36.15 24.6048 36.15 24.0335ZM20.11 31.2751C19.499 31.2751 19 31.7371 19 32.3085C19 32.8798 19.499 33.3418 20.11 33.3418L26 33.3418C26.611 33.3418 27.11 32.8798 27.11 32.3085C27.11 31.7371 26.611 31.2751 26 31.2751L20.11 31.2751Z" stroke="rgba(78, 89, 105, 1)" stroke-width="0.30000001192092896"    fill-rule="evenodd"  fill="#4E5969" >
</path>
</svg>
