<svg xmlns="http://www.w3.org/2000/svg" xmlns:xlink="http://www.w3.org/1999/xlink"  viewBox="0 0 33.875732421875 32" fill="none">
<path d="M23.2888 7.99994C23.3235 7.99994 23.3581 8.00075 23.3927 8.00235C23.4273 8.00397 23.4619 8.00638 23.4964 8.00956C23.5308 8.01278 23.5652 8.01678 23.5995 8.0216C23.6338 8.02641 23.6679 8.032 23.7019 8.03838C23.7359 8.04475 23.7697 8.05194 23.8033 8.05988C23.8369 8.06785 23.8703 8.07656 23.9034 8.08606C23.9366 8.09556 23.9695 8.10584 24.0021 8.11685C24.0347 8.12788 24.0671 8.13966 24.0991 8.15219C24.1311 8.16472 24.1627 8.17797 24.1941 8.19197C24.2254 8.20597 24.2563 8.22066 24.2869 8.2361C24.3175 8.25153 24.3476 8.26766 24.3773 8.28447C24.407 8.30131 24.4363 8.31881 24.4651 8.337C24.4939 8.35519 24.5222 8.37403 24.5501 8.39353C24.5779 8.41303 24.6052 8.43316 24.632 8.45391C24.6588 8.47469 24.685 8.49606 24.7107 8.51803C24.7364 8.54003 24.7614 8.5626 24.786 8.58572C24.8104 8.60888 24.8343 8.63256 24.8576 8.65681C24.8809 8.68106 24.9035 8.70584 24.9255 8.73116C24.9475 8.75647 24.9688 8.78225 24.9894 8.80853C25.0101 8.83484 25.03 8.8616 25.0493 8.88878C25.0685 8.91603 25.087 8.94366 25.1049 8.97172C25.1227 8.99981 25.1397 9.02828 25.1561 9.05716C25.1724 9.08603 25.188 9.11525 25.2028 9.14481C25.2176 9.17444 25.2316 9.20435 25.2449 9.23456C25.2581 9.26481 25.2706 9.29535 25.2823 9.32616C25.294 9.35697 25.3048 9.38806 25.3149 9.41938C25.325 9.45069 25.3342 9.48222 25.3426 9.51397C25.351 9.54572 25.3586 9.57766 25.3654 9.60975C25.3721 9.64188 25.3781 9.6741 25.3832 9.70647C25.3882 9.73884 25.3925 9.77135 25.3959 9.80391C25.3993 9.83647 25.4018 9.86913 25.4035 9.90181C25.4052 9.9345 25.4061 9.96722 25.4061 9.99994L25.4061 27.3333C25.4061 27.366 25.4052 27.3987 25.4035 27.4314C25.4018 27.4641 25.3993 27.4967 25.3959 27.5293C25.3925 27.5619 25.3882 27.5943 25.3832 27.6267C25.3781 27.6591 25.3721 27.6914 25.3654 27.7234C25.3586 27.7556 25.351 27.7875 25.3426 27.8192C25.3342 27.851 25.325 27.8825 25.3149 27.9138C25.3048 27.9452 25.294 27.9762 25.2823 28.0071C25.2706 28.0379 25.2581 28.0684 25.2449 28.0986C25.2316 28.1289 25.2176 28.1588 25.2028 28.1884C25.188 28.218 25.1724 28.2472 25.1561 28.2761C25.1397 28.3049 25.1227 28.3334 25.1049 28.3615C25.087 28.3896 25.0685 28.4172 25.0493 28.4444C25.03 28.4716 25.0101 28.4984 24.9894 28.5247C24.9688 28.551 24.9475 28.5767 24.9255 28.6021C24.9035 28.6274 24.8809 28.6521 24.8576 28.6764C24.8343 28.7006 24.8104 28.7243 24.786 28.7475C24.7614 28.7706 24.7364 28.7932 24.7107 28.8152C24.685 28.8372 24.6588 28.8585 24.632 28.8793C24.6052 28.9001 24.5779 28.9202 24.5501 28.9397C24.5222 28.9592 24.4939 28.978 24.4651 28.9962C24.4363 29.0144 24.407 29.0319 24.3773 29.0487C24.3476 29.0656 24.3175 29.0817 24.2869 29.0971C24.2563 29.1126 24.2254 29.1272 24.1941 29.1412C24.1627 29.1552 24.1311 29.1685 24.0991 29.181C24.0671 29.1936 24.0347 29.2053 24.0021 29.2163C23.9695 29.2274 23.9366 29.2377 23.9034 29.2472C23.8703 29.2567 23.8369 29.2654 23.8033 29.2733C23.7697 29.2813 23.7359 29.2885 23.7019 29.2948C23.6679 29.3012 23.6338 29.3068 23.5995 29.3116C23.5652 29.3164 23.5308 29.3204 23.4964 29.3237C23.4619 29.3268 23.4273 29.3293 23.3927 29.3309C23.3581 29.3325 23.3235 29.3333 23.2888 29.3333L4.93949 29.3333C4.90484 29.3333 4.87021 29.3325 4.83561 29.3309C4.80101 29.3293 4.76646 29.3268 4.73197 29.3237C4.69749 29.3204 4.66312 29.3164 4.62885 29.3116C4.59455 29.3068 4.56043 29.3012 4.52646 29.2948C4.49248 29.2885 4.45868 29.2813 4.42507 29.2733C4.39145 29.2654 4.35807 29.2567 4.32489 29.2472C4.29175 29.2377 4.25885 29.2274 4.22621 29.2163C4.19359 29.2053 4.16128 29.1936 4.12928 29.181C4.09726 29.1685 4.06559 29.1552 4.03427 29.1412C4.00295 29.1272 3.97201 29.1126 3.94144 29.0971C3.91088 29.0817 3.88074 29.0656 3.85103 29.0487C3.8213 29.0319 3.79204 29.0144 3.76323 28.9962C3.73441 28.978 3.70609 28.9592 3.67828 28.9397C3.65045 28.9202 3.62313 28.9001 3.59634 28.8793C3.56956 28.8585 3.54334 28.8372 3.51767 28.8152C3.49197 28.7932 3.46688 28.7706 3.44237 28.7475C3.41789 28.7244 3.39401 28.7007 3.37072 28.6764C3.34745 28.6521 3.32483 28.6274 3.30286 28.6021C3.28087 28.5767 3.25956 28.551 3.23892 28.5247C3.21828 28.4984 3.19834 28.4716 3.17909 28.4444C3.15984 28.4172 3.1413 28.3896 3.12349 28.3615C3.10567 28.3334 3.0886 28.3049 3.07227 28.2761C3.05593 28.2472 3.04036 28.218 3.02554 28.1884C3.01073 28.1588 2.99669 28.1289 2.98343 28.0986C2.97017 28.0684 2.9577 28.0379 2.94603 28.0071C2.93436 27.9762 2.92349 27.9452 2.91344 27.9138C2.90338 27.8825 2.89414 27.851 2.88572 27.8192C2.8773 27.7875 2.86971 27.7556 2.86295 27.7234C2.85619 27.6914 2.85027 27.6591 2.84518 27.6267C2.8401 27.5943 2.83586 27.5619 2.83246 27.5293C2.82907 27.4967 2.82652 27.4641 2.82482 27.4314C2.82312 27.3987 2.82227 27.366 2.82227 27.3333L2.82227 9.99994C2.82227 9.96722 2.82312 9.9345 2.82482 9.90181C2.82652 9.86913 2.82907 9.83647 2.83246 9.80391C2.83586 9.77135 2.8401 9.73884 2.84518 9.70647C2.85027 9.6741 2.85619 9.64188 2.86295 9.60975C2.86971 9.57766 2.8773 9.54572 2.88572 9.51397C2.89414 9.48222 2.90338 9.45069 2.91344 9.41938C2.92349 9.38806 2.93436 9.35697 2.94603 9.32616C2.9577 9.29535 2.97017 9.26481 2.98343 9.23456C2.99669 9.20435 3.01073 9.17444 3.02554 9.14481C3.04036 9.11525 3.05593 9.08603 3.07227 9.05716C3.0886 9.02828 3.10567 8.99981 3.12349 8.97172C3.1413 8.94366 3.15984 8.91603 3.17909 8.88878C3.19834 8.8616 3.21828 8.83484 3.23892 8.80853C3.25956 8.78225 3.28087 8.75647 3.30286 8.73116C3.32483 8.70584 3.34745 8.68106 3.37072 8.65681C3.39401 8.63256 3.41789 8.60888 3.44237 8.58572C3.46688 8.5626 3.49197 8.54003 3.51767 8.51803C3.54334 8.49606 3.56956 8.47469 3.59634 8.45391C3.62313 8.43316 3.65045 8.41303 3.67828 8.39353C3.70609 8.37403 3.73441 8.35519 3.76323 8.337C3.79204 8.31881 3.8213 8.30131 3.85103 8.28447C3.88074 8.26766 3.91088 8.25153 3.94144 8.2361C3.97201 8.22066 4.00295 8.20597 4.03427 8.19197C4.06559 8.17797 4.09726 8.16472 4.12928 8.15219C4.16128 8.13966 4.19359 8.12788 4.22621 8.11685C4.25885 8.10584 4.29175 8.09556 4.32489 8.08606C4.35807 8.07656 4.39145 8.06785 4.42507 8.05988C4.45868 8.05194 4.49248 8.04475 4.52646 8.03838C4.56043 8.032 4.59455 8.02641 4.62885 8.0216C4.66312 8.01678 4.69749 8.01278 4.73197 8.00956C4.76646 8.00638 4.80101 8.00397 4.83561 8.00235C4.87021 8.00075 4.90484 7.99994 4.93949 7.99994L23.2888 7.99994ZM14.1142 12.9999C14.0911 12.9999 14.068 13.0005 14.0449 13.0015C14.0218 13.0026 13.9988 13.0042 13.9758 13.0063C13.9528 13.0085 13.9299 13.0112 13.9071 13.0144C13.8842 13.0176 13.8614 13.0213 13.8388 13.0256C13.8161 13.0298 13.7936 13.0346 13.7712 13.0399C13.7488 13.0452 13.7265 13.051 13.7044 13.0573C13.6823 13.0637 13.6604 13.0705 13.6387 13.0779C13.6169 13.0853 13.5953 13.0931 13.574 13.1014C13.5527 13.1098 13.5316 13.1186 13.5107 13.1279C13.4898 13.1373 13.4692 13.1471 13.4488 13.1574C13.4284 13.1677 13.4083 13.1784 13.3885 13.1896C13.3687 13.2009 13.3492 13.2125 13.33 13.2247C13.3108 13.2368 13.2919 13.2493 13.2733 13.2623C13.2548 13.2753 13.2366 13.2888 13.2187 13.3026C13.2009 13.3164 13.1834 13.3307 13.1663 13.3453C13.1491 13.36 13.1324 13.375 13.1161 13.3905C13.0998 13.4059 13.0838 13.4217 13.0683 13.4378C13.0528 13.454 13.0377 13.4706 13.0231 13.4874C13.0084 13.5043 12.9942 13.5215 12.9804 13.539C12.9667 13.5565 12.9534 13.5744 12.9406 13.5925C12.9277 13.6107 12.9154 13.6291 12.9035 13.6478C12.8916 13.6665 12.8802 13.6855 12.8694 13.7048C12.8584 13.724 12.8481 13.7435 12.8382 13.7632C12.8283 13.7829 12.819 13.8029 12.8101 13.823C12.8013 13.8432 12.793 13.8636 12.7852 13.8841C12.7774 13.9047 12.7701 13.9253 12.7635 13.9462C12.7567 13.9671 12.7506 13.9882 12.745 14.0093C12.7394 14.0305 12.7343 14.0518 12.7298 14.0732C12.7253 14.0946 12.7213 14.1161 12.718 14.1376C12.7146 14.1592 12.7117 14.1809 12.7095 14.2026C12.7072 14.2243 12.7055 14.2461 12.7044 14.2678C12.7033 14.2897 12.7027 14.3115 12.7027 14.3333L12.7027 17.3333L9.52684 17.3333C9.50375 17.3333 9.48066 17.3338 9.45757 17.3349C9.43448 17.336 9.41145 17.3376 9.38849 17.3397C9.3655 17.3418 9.34258 17.3445 9.31975 17.3477C9.29686 17.3509 9.2741 17.3547 9.25147 17.3589C9.22881 17.3632 9.20628 17.3679 9.18388 17.3732C9.16146 17.3785 9.13922 17.3844 9.11712 17.3907C9.09499 17.397 9.07306 17.4039 9.05132 17.4112C9.02956 17.4186 9.00802 17.4264 8.98668 17.4347C8.96531 17.4431 8.94421 17.452 8.92336 17.4613C8.90246 17.4706 8.88185 17.4804 8.86147 17.4907C8.84109 17.501 8.82098 17.5117 8.8012 17.523C8.78138 17.5342 8.76186 17.5458 8.74267 17.558C8.72345 17.5701 8.70456 17.5827 8.686 17.5957C8.66745 17.6087 8.64925 17.6221 8.63142 17.6359C8.61355 17.6498 8.59606 17.664 8.57895 17.6787C8.56182 17.6933 8.54511 17.7084 8.52877 17.7238C8.51242 17.7392 8.49648 17.755 8.481 17.7712C8.46548 17.7874 8.4504 17.8039 8.43574 17.8208C8.42109 17.8376 8.40689 17.8548 8.39313 17.8723C8.37937 17.8899 8.36607 17.9077 8.35324 17.9258C8.3404 17.944 8.32803 17.9624 8.31618 17.9811C8.30427 17.9999 8.29289 18.0188 8.28201 18.0381C8.27113 18.0573 8.26074 18.0768 8.25088 18.0965C8.24099 18.1163 8.23163 18.1362 8.22279 18.1563C8.21393 18.1765 8.20562 18.1969 8.19785 18.2174C8.19008 18.238 8.18283 18.2587 8.17615 18.2796C8.16943 18.3004 8.16328 18.3215 8.15766 18.3426C8.15203 18.3638 8.14697 18.3851 8.14247 18.4065C8.13797 18.4279 8.134 18.4494 8.13063 18.471C8.12722 18.4926 8.12441 18.5142 8.12216 18.5359C8.11988 18.5577 8.11819 18.5794 8.11706 18.6012C8.11591 18.623 8.11534 18.6448 8.11534 18.6666C8.11534 18.6884 8.11591 18.7103 8.11706 18.732C8.11819 18.7538 8.11988 18.7756 8.12216 18.7973C8.12441 18.819 8.12722 18.8407 8.13063 18.8623C8.134 18.8838 8.13797 18.9053 8.14247 18.9267C8.14697 18.9481 8.15203 18.9694 8.15766 18.9906C8.16328 19.0118 8.16943 19.0328 8.17615 19.0537C8.18283 19.0745 8.19008 19.0953 8.19785 19.1158C8.20562 19.1363 8.21393 19.1567 8.22279 19.1768C8.23163 19.197 8.24099 19.217 8.25088 19.2367C8.26074 19.2564 8.27113 19.2759 8.28201 19.2951C8.29289 19.3144 8.30427 19.3334 8.31618 19.3521C8.32803 19.3708 8.3404 19.3892 8.35324 19.4074C8.36607 19.4255 8.37937 19.4434 8.39313 19.4609C8.40689 19.4784 8.42109 19.4956 8.43574 19.5125C8.4504 19.5293 8.46548 19.5458 8.481 19.562C8.49648 19.5782 8.51242 19.594 8.52877 19.6094C8.54511 19.6248 8.56182 19.6399 8.57895 19.6545C8.59606 19.6692 8.61355 19.6835 8.63142 19.6973C8.64925 19.7112 8.66745 19.7246 8.686 19.7376C8.70456 19.7506 8.72345 19.7631 8.74267 19.7752C8.76186 19.7873 8.78138 19.799 8.8012 19.8103C8.82098 19.8215 8.84109 19.8322 8.86147 19.8425C8.88185 19.8528 8.90246 19.8626 8.92336 19.8719C8.94421 19.8813 8.96531 19.8901 8.98668 19.8984C9.00802 19.9068 9.02956 19.9147 9.05132 19.922C9.07306 19.9294 9.09499 19.9362 9.11712 19.9425C9.13922 19.9489 9.16146 19.9547 9.18388 19.96C9.20628 19.9653 9.22881 19.9701 9.25147 19.9743C9.2741 19.9786 9.29686 19.9823 9.31975 19.9855C9.34258 19.9887 9.3655 19.9914 9.38849 19.9935C9.41145 19.9957 9.43448 19.9973 9.45757 19.9983C9.48066 19.9994 9.50375 19.9999 9.52684 19.9999L12.7027 19.9999L12.7027 22.9999C12.7027 23.0217 12.7033 23.0436 12.7044 23.0654C12.7055 23.0872 12.7072 23.1089 12.7095 23.1306C12.7117 23.1523 12.7146 23.174 12.718 23.1956C12.7213 23.2172 12.7253 23.2387 12.7298 23.2601C12.7343 23.2815 12.7394 23.3027 12.745 23.3239C12.7506 23.3451 12.7567 23.3661 12.7635 23.387C12.7701 23.4079 12.7774 23.4286 12.7852 23.4491C12.793 23.4697 12.8013 23.49 12.8101 23.5102C12.819 23.5303 12.8283 23.5503 12.8382 23.57C12.8481 23.5898 12.8584 23.6092 12.8694 23.6285C12.8802 23.6477 12.8916 23.6667 12.9035 23.6854C12.9154 23.7041 12.9277 23.7226 12.9406 23.7407C12.9534 23.7588 12.9667 23.7767 12.9804 23.7942C12.9942 23.8118 13.0084 23.8289 13.0231 23.8458C13.0377 23.8627 13.0528 23.8792 13.0683 23.8953C13.0838 23.9115 13.0998 23.9273 13.1161 23.9427C13.1324 23.9582 13.1491 23.9732 13.1663 23.9879C13.1834 24.0025 13.2009 24.0168 13.2187 24.0306C13.2366 24.0445 13.2548 24.0579 13.2733 24.0709C13.2919 24.0839 13.3108 24.0964 13.33 24.1086C13.3492 24.1207 13.3687 24.1324 13.3885 24.1436C13.4083 24.1548 13.4284 24.1656 13.4488 24.1758C13.4692 24.1861 13.4898 24.1959 13.5107 24.2052C13.5316 24.2146 13.5527 24.2234 13.574 24.2318C13.5953 24.2402 13.6169 24.248 13.6387 24.2553C13.6604 24.2627 13.6823 24.2695 13.7044 24.2758C13.7265 24.2822 13.7488 24.288 13.7712 24.2933C13.7936 24.2986 13.8161 24.3034 13.8388 24.3077C13.8614 24.3119 13.8842 24.3157 13.9071 24.3188C13.9299 24.3221 13.9528 24.3247 13.9758 24.3268C13.9988 24.329 14.0218 24.3306 14.0449 24.3317C14.068 24.3328 14.0911 24.3333 14.1142 24.3333C14.1373 24.3333 14.1603 24.3328 14.1834 24.3317C14.2065 24.3306 14.2295 24.329 14.2525 24.3268C14.2755 24.3247 14.2984 24.3221 14.3213 24.3188C14.3441 24.3157 14.3669 24.3119 14.3896 24.3077C14.4122 24.3034 14.4347 24.2986 14.4571 24.2933C14.4795 24.288 14.5018 24.2822 14.5239 24.2758C14.546 24.2695 14.5679 24.2627 14.5897 24.2553C14.6114 24.248 14.633 24.2402 14.6543 24.2318C14.6757 24.2234 14.6968 24.2146 14.7177 24.2052C14.7385 24.1959 14.7592 24.1861 14.7796 24.1758C14.7999 24.1656 14.82 24.1548 14.8398 24.1436C14.8596 24.1324 14.8791 24.1207 14.8984 24.1086C14.9175 24.0964 14.9364 24.0839 14.955 24.0709C14.9735 24.0579 14.9917 24.0445 15.0096 24.0306C15.0275 24.0168 15.0449 24.0025 15.0621 23.9879C15.0792 23.9732 15.0959 23.9582 15.1123 23.9427C15.1286 23.9273 15.1445 23.9115 15.16 23.8953C15.1755 23.8792 15.1906 23.8627 15.2053 23.8458C15.2199 23.8289 15.2341 23.8118 15.2479 23.7942C15.2617 23.7767 15.275 23.7588 15.2878 23.7407C15.3006 23.7226 15.313 23.7041 15.3248 23.6854C15.3367 23.6667 15.3481 23.6477 15.359 23.6285C15.3699 23.6092 15.3803 23.5898 15.3902 23.57C15.4 23.5503 15.4094 23.5303 15.4182 23.5102C15.427 23.49 15.4353 23.4697 15.4431 23.4491C15.4509 23.4286 15.4582 23.4079 15.4649 23.387C15.4716 23.3661 15.4778 23.3451 15.4834 23.3239C15.489 23.3027 15.494 23.2815 15.4985 23.2601C15.503 23.2387 15.507 23.2172 15.5104 23.1956C15.5138 23.174 15.5166 23.1523 15.5189 23.1306C15.5211 23.1089 15.5228 23.0872 15.524 23.0654C15.5251 23.0436 15.5257 23.0217 15.5257 22.9999L15.5257 19.9999L18.7015 19.9999C18.7246 19.9999 18.7477 19.9994 18.7708 19.9983C18.7938 19.9973 18.8169 19.9957 18.8398 19.9935C18.8628 19.9914 18.8858 19.9887 18.9086 19.9855C18.9315 19.9823 18.9542 19.9786 18.9769 19.9743C18.9995 19.9701 19.022 19.9653 19.0445 19.96C19.0669 19.9547 19.0891 19.9489 19.1113 19.9425C19.1334 19.9362 19.1553 19.9294 19.177 19.922C19.1988 19.9147 19.2203 19.9068 19.2417 19.8984C19.263 19.8901 19.2841 19.8813 19.305 19.8719C19.3259 19.8626 19.3465 19.8528 19.3669 19.8425C19.3873 19.8322 19.4073 19.8215 19.4271 19.8103C19.447 19.799 19.4665 19.7873 19.4857 19.7752C19.5049 19.7631 19.5238 19.7506 19.5423 19.7376C19.5609 19.7246 19.5791 19.7112 19.597 19.6973C19.6148 19.6835 19.6323 19.6692 19.6494 19.6545C19.6665 19.6399 19.6832 19.6248 19.6996 19.6094C19.7159 19.594 19.7318 19.5782 19.7473 19.562C19.7629 19.5458 19.7779 19.5293 19.7926 19.5125C19.8073 19.4956 19.8215 19.4784 19.8352 19.4609C19.849 19.4434 19.8623 19.4255 19.8751 19.4074C19.8879 19.3892 19.9003 19.3708 19.9122 19.3521C19.924 19.3334 19.9354 19.3144 19.9463 19.2951C19.9572 19.2759 19.9676 19.2564 19.9775 19.2367C19.9874 19.217 19.9967 19.197 20.0056 19.1768C20.0144 19.1567 20.0227 19.1363 20.0305 19.1158C20.0383 19.0953 20.0455 19.0745 20.0522 19.0537C20.0589 19.0328 20.0651 19.0118 20.0707 18.9906C20.0763 18.9694 20.0814 18.9481 20.0859 18.9267C20.0904 18.9053 20.0943 18.8838 20.0977 18.8623C20.1011 18.8407 20.1039 18.819 20.1062 18.7973C20.1085 18.7756 20.1102 18.7538 20.1113 18.732C20.1124 18.7103 20.113 18.6884 20.113 18.6666C20.113 18.6448 20.1124 18.623 20.1113 18.6012C20.1102 18.5794 20.1085 18.5577 20.1062 18.5359C20.1039 18.5142 20.1011 18.4926 20.0977 18.471C20.0943 18.4494 20.0904 18.4279 20.0859 18.4065C20.0814 18.3851 20.0763 18.3638 20.0707 18.3426C20.0651 18.3215 20.0589 18.3004 20.0522 18.2796C20.0455 18.2587 20.0383 18.238 20.0305 18.2174C20.0227 18.1969 20.0144 18.1765 20.0056 18.1563C19.9967 18.1362 19.9874 18.1163 19.9775 18.0965C19.9676 18.0768 19.9572 18.0573 19.9463 18.0381C19.9354 18.0188 19.924 17.9999 19.9122 17.9811C19.9003 17.9624 19.8879 17.944 19.8751 17.9258C19.8623 17.9077 19.849 17.8899 19.8352 17.8723C19.8215 17.8548 19.8073 17.8376 19.7926 17.8208C19.7779 17.8039 19.7629 17.7874 19.7473 17.7712C19.7318 17.755 19.7159 17.7392 19.6996 17.7238C19.6832 17.7084 19.6665 17.6933 19.6494 17.6787C19.6323 17.664 19.6148 17.6498 19.597 17.6359C19.5791 17.6221 19.5609 17.6087 19.5423 17.5957C19.5238 17.5827 19.5049 17.5701 19.4857 17.558C19.4665 17.5458 19.447 17.5342 19.4271 17.523C19.4073 17.5117 19.3873 17.501 19.3669 17.4907C19.3465 17.4804 19.3259 17.4706 19.305 17.4613C19.2841 17.452 19.263 17.4431 19.2417 17.4347C19.2203 17.4264 19.1988 17.4186 19.177 17.4112C19.1553 17.4039 19.1334 17.397 19.1113 17.3907C19.0892 17.3844 19.0669 17.3785 19.0445 17.3732C19.0221 17.3679 18.9995 17.3632 18.9769 17.3589C18.9542 17.3546 18.9315 17.3509 18.9086 17.3477C18.8858 17.3445 18.8628 17.3418 18.8398 17.3397C18.8169 17.3376 18.7938 17.336 18.7708 17.3349C18.7477 17.3338 18.7246 17.3333 18.7015 17.3333L15.5257 17.3333L15.5257 14.3333C15.5257 14.3115 15.5251 14.2897 15.524 14.2678C15.5228 14.2461 15.5211 14.2243 15.5189 14.2026C15.5166 14.1809 15.5137 14.1592 15.5104 14.1376C15.507 14.1161 15.503 14.0946 15.4985 14.0732C15.494 14.0518 15.489 14.0305 15.4834 14.0093C15.4778 13.9881 15.4716 13.9671 15.4649 13.9462C15.4582 13.9253 15.4509 13.9047 15.4431 13.8841C15.4353 13.8635 15.427 13.8432 15.4182 13.823C15.4094 13.8029 15.4 13.7829 15.3902 13.7632C15.3803 13.7435 15.3699 13.724 15.359 13.7048C15.3481 13.6855 15.3367 13.6665 15.3248 13.6478C15.313 13.6291 15.3006 13.6107 15.2878 13.5925C15.275 13.5744 15.2617 13.5565 15.2479 13.539C15.2341 13.5215 15.2199 13.5043 15.2053 13.4874C15.1906 13.4706 15.1755 13.454 15.16 13.4378C15.1445 13.4217 15.1286 13.4059 15.1123 13.3905C15.0959 13.375 15.0792 13.36 15.0621 13.3453C15.0449 13.3307 15.0275 13.3164 15.0096 13.3026C14.9917 13.2888 14.9735 13.2753 14.955 13.2623C14.9364 13.2493 14.9175 13.2368 14.8984 13.2247C14.8791 13.2125 14.8596 13.2009 14.8398 13.1896C14.82 13.1784 14.7999 13.1677 14.7796 13.1574C14.7592 13.1471 14.7385 13.1373 14.7177 13.1279C14.6968 13.1186 14.6757 13.1098 14.6543 13.1014C14.633 13.0931 14.6114 13.0853 14.5897 13.0779C14.5679 13.0705 14.546 13.0637 14.5239 13.0573C14.5018 13.051 14.4795 13.0452 14.4571 13.0399C14.4347 13.0346 14.4122 13.0298 14.3896 13.0256C14.3669 13.0213 14.3441 13.0176 14.3213 13.0144C14.2984 13.0112 14.2755 13.0085 14.2525 13.0063C14.2295 13.0042 14.2065 13.0026 14.1834 13.0015C14.1603 13.0005 14.1373 12.9999 14.1142 12.9999ZM29.323 2.66528C30.2362 2.66528 30.9885 3.32129 31.0788 4.16129L31.0873 4.33195L31.0873 21.0093C31.0874 21.0357 31.0869 21.0622 31.0857 21.0886C31.0845 21.1151 31.0826 21.1415 31.0801 21.1678C31.0775 21.1942 31.0743 21.2205 31.0705 21.2467C31.0666 21.2729 31.0621 21.299 31.0569 21.325C31.0518 21.351 31.046 21.3769 31.0395 21.4027C31.033 21.4284 31.0258 21.454 31.0181 21.4794C31.0103 21.5049 31.0019 21.5301 30.9929 21.5551C30.9838 21.5802 30.9741 21.605 30.9638 21.6296C30.9535 21.6543 30.9426 21.6786 30.9311 21.7027C30.9195 21.7269 30.9074 21.7507 30.8947 21.7743C30.882 21.7979 30.8686 21.8212 30.8547 21.8441C30.8408 21.8671 30.8264 21.8897 30.8113 21.9121C30.7962 21.9344 30.7807 21.9564 30.7645 21.978C30.7483 21.9996 30.7316 22.0209 30.7144 22.0417C30.6972 22.0626 30.6795 22.0831 30.6612 22.1032C30.643 22.1233 30.6242 22.1429 30.605 22.1621C30.5857 22.1814 30.566 22.2002 30.5458 22.2185C30.5256 22.2368 30.5049 22.2547 30.4839 22.2721C30.4628 22.2896 30.4412 22.3065 30.4193 22.3229C30.3973 22.3393 30.375 22.3553 30.3522 22.3707C30.3294 22.3862 30.3063 22.4011 30.2828 22.4155C30.2593 22.4299 30.2354 22.4438 30.2112 22.4571C30.187 22.4704 30.1625 22.4832 30.1376 22.4954C30.1128 22.5076 30.0876 22.5193 30.0622 22.5303C30.0368 22.5414 30.0111 22.5519 29.9851 22.5619C29.9591 22.5718 29.9329 22.5812 29.9065 22.5899C29.88 22.5987 29.8534 22.6068 29.8265 22.6144C29.7997 22.6219 29.7726 22.6289 29.7454 22.6352C29.7182 22.6416 29.6909 22.6473 29.6634 22.6524C29.6359 22.6575 29.6083 22.662 29.5806 22.6658C29.5529 22.6697 29.5251 22.6729 29.4972 22.6756C29.4693 22.6782 29.4414 22.6802 29.4134 22.6815C29.3854 22.6829 29.3574 22.6836 29.3294 22.6837C29.3014 22.6838 29.2734 22.6833 29.2454 22.6821C29.2174 22.6809 29.1894 22.6791 29.1615 22.6767C29.1336 22.6743 29.1058 22.6712 29.0781 22.6676C29.0503 22.6639 29.0227 22.6596 28.9952 22.6547C28.9677 22.6498 28.9403 22.6443 28.913 22.6381C28.8857 22.6319 28.8587 22.6252 28.8318 22.6178C28.8048 22.6104 28.7781 22.6025 28.7516 22.5939C28.7251 22.5853 28.6988 22.5762 28.6728 22.5664C28.6467 22.5567 28.621 22.5463 28.5955 22.5354C28.5699 22.5245 28.5447 22.513 28.5197 22.501C28.4948 22.4889 28.4701 22.4763 28.4459 22.4632C28.4215 22.45 28.3976 22.4363 28.374 22.4221C28.3504 22.4078 28.3271 22.3931 28.3042 22.3778C28.2813 22.3625 28.2588 22.3468 28.2368 22.3304C28.2147 22.3141 28.193 22.2973 28.1718 22.2801C28.1506 22.2628 28.1298 22.2451 28.1095 22.2269C28.0891 22.2087 28.0693 22.19 28.0499 22.1709C28.0305 22.1518 28.0116 22.1323 27.9932 22.1123C27.9747 22.0924 27.9568 22.0721 27.9394 22.0513C27.922 22.0306 27.9052 22.0094 27.8889 21.9879C27.8726 21.9664 27.8568 21.9445 27.8416 21.9223C27.8264 21.9001 27.8117 21.8775 27.7976 21.8547C27.7835 21.8318 27.77 21.8086 27.7571 21.7851C27.7442 21.7616 27.7319 21.7379 27.7202 21.7138C27.7085 21.6898 27.6974 21.6655 27.6869 21.6409C27.6764 21.6164 27.6666 21.5916 27.6573 21.5666C27.6481 21.5417 27.6395 21.5165 27.6315 21.4911C27.6235 21.4657 27.6162 21.4402 27.6095 21.4145C27.6028 21.3888 27.5968 21.363 27.5914 21.337C27.586 21.311 27.5813 21.2849 27.5773 21.2587C27.5732 21.2325 27.5698 21.2063 27.5671 21.1799L27.5586 21.0093L27.5586 6.66394C27.5586 6.65431 27.5584 6.64466 27.5579 6.635C27.5575 6.62535 27.5568 6.61572 27.556 6.6061C27.5551 6.59647 27.554 6.58688 27.5527 6.57731C27.5513 6.56775 27.5498 6.55819 27.548 6.54866C27.5462 6.53916 27.5442 6.52969 27.5421 6.52025C27.5398 6.51085 27.5374 6.50147 27.5348 6.49213C27.5322 6.48281 27.5293 6.47353 27.5263 6.46431C27.5232 6.45513 27.52 6.44597 27.5165 6.43688C27.513 6.42781 27.5093 6.41878 27.5054 6.40985C27.5015 6.40094 27.4974 6.3921 27.4931 6.38331C27.4888 6.37456 27.4843 6.36591 27.4796 6.35731C27.4749 6.34875 27.47 6.34028 27.465 6.33191C27.4599 6.32353 27.4546 6.31528 27.4491 6.3071C27.4436 6.29897 27.438 6.29091 27.4322 6.28297C27.4263 6.27506 27.4203 6.26725 27.4141 6.25956C27.4079 6.25191 27.4016 6.24438 27.395 6.23694C27.3885 6.22953 27.3818 6.22225 27.3749 6.2151C27.368 6.20797 27.361 6.20097 27.3538 6.1941C27.3466 6.18725 27.3392 6.18056 27.3317 6.174C27.3242 6.16744 27.3165 6.16106 27.3087 6.15481C27.3009 6.14856 27.293 6.1425 27.2849 6.1366C27.2768 6.13069 27.2686 6.12494 27.2603 6.11935C27.2519 6.11378 27.2435 6.10841 27.2349 6.10316C27.2263 6.09794 27.2175 6.09288 27.2087 6.088C27.1999 6.08316 27.191 6.07847 27.1819 6.07397C27.1729 6.06947 27.1637 6.06513 27.1545 6.061C27.1453 6.05688 27.1359 6.05297 27.1265 6.04922C27.1171 6.04547 27.1076 6.04194 27.098 6.03856C27.0884 6.03522 27.0788 6.03206 27.069 6.0291C27.0593 6.02616 27.0495 6.02338 27.0397 6.02081C27.0298 6.01828 27.0199 6.01594 27.0099 6.01378C26.9999 6.01163 26.9899 6.00969 26.9799 6.00794L26.8528 5.99728L11.6441 5.99728C11.6171 5.99728 11.5901 5.99672 11.5632 5.99556C11.5362 5.99441 11.5093 5.99266 11.4824 5.99035C11.4555 5.98803 11.4287 5.98513 11.402 5.98163C11.3753 5.97816 11.3487 5.9741 11.3221 5.96947C11.2956 5.96485 11.2692 5.95963 11.2429 5.95381C11.2166 5.94806 11.1905 5.94172 11.1645 5.93478C11.1385 5.92788 11.1127 5.92041 11.0871 5.91238C11.0615 5.90435 11.0361 5.89575 11.011 5.88663C10.9857 5.8775 10.9608 5.86781 10.9361 5.8576C10.9113 5.84741 10.8869 5.83666 10.8627 5.82535C10.8385 5.8141 10.8146 5.80228 10.791 5.78998C10.7673 5.77767 10.744 5.76485 10.721 5.75154C10.698 5.73821 10.6753 5.7244 10.653 5.7101C10.6306 5.69579 10.6087 5.68101 10.5871 5.66576C10.5654 5.65051 10.5442 5.63479 10.5234 5.6186C10.5025 5.60244 10.482 5.58582 10.462 5.56876C10.4419 5.55168 10.4223 5.53419 10.4031 5.51629C10.384 5.49838 10.3652 5.48005 10.3469 5.46132C10.3286 5.4426 10.3107 5.42348 10.2934 5.40398C10.276 5.38448 10.2591 5.36461 10.2427 5.34439C10.2263 5.32416 10.2103 5.30357 10.1949 5.28264C10.1795 5.26172 10.1646 5.24048 10.1502 5.21892C10.1358 5.19735 10.122 5.17549 10.1087 5.15332C10.0954 5.13116 10.0826 5.10871 10.0704 5.08598C10.0581 5.06325 10.0465 5.04027 10.0353 5.01704C10.0242 4.99381 10.0137 4.97036 10.0037 4.9467C9.99372 4.92301 9.98433 4.89911 9.97553 4.87501C9.96673 4.85093 9.95849 4.82666 9.95088 4.8022C9.94321 4.77776 9.93616 4.75317 9.92974 4.72842C9.92329 4.70367 9.91747 4.67878 9.91224 4.65376C9.90702 4.62876 9.90239 4.60366 9.89838 4.57845C9.89435 4.55324 9.89097 4.52796 9.88819 4.5026L9.87973 4.33195C9.87973 3.46929 10.5742 2.75861 11.4634 2.67328L11.6441 2.66661L29.323 2.66661L29.323 2.66528Z"   fill="#FFFFFF" >
</path>
</svg>
