<svg xmlns="http://www.w3.org/2000/svg" xmlns:xlink="http://www.w3.org/1999/xlink"  viewBox="0 0 22.20751953125 22" fill="none">
<path d="M18.9428 3.22141C16.8058 1.17858 14.0356 0 11.1071 0C8.1786 0 5.3293 1.17858 3.27144 3.22144C-1.0817 7.54282 -1.0817 14.4571 3.27144 18.7785C5.32928 20.8213 8.17862 21.9999 11.1071 21.9999C14.0356 21.9999 16.8849 20.8213 18.9428 18.7785C23.296 14.4571 23.296 7.54282 18.9428 3.22141ZM17.8347 17.6785C16.0143 19.4856 13.6398 20.4284 11.1071 20.4284C8.57435 20.4284 6.19992 19.4856 4.37951 17.6785C0.65956 13.9856 0.65956 8.01423 4.37951 4.3214C6.19994 2.51427 8.57438 1.57143 11.1071 1.57143C13.6399 1.57143 16.0143 2.51427 17.8347 4.3214C21.5547 8.01423 21.5547 13.9856 17.8347 17.6785Z"   fill="#FFFFFF" >
</path>
<path d="M11.8981 9.79282L11.8981 5.78569C11.8981 5.31427 11.5815 5 11.1066 5C10.6317 5 10.3151 5.31427 10.3151 5.78569L10.3151 9.79282L6.27855 9.79282C5.80366 9.79282 5.48706 10.1071 5.48706 10.5785C5.48706 10.8142 5.56621 10.9714 5.72451 11.1285C5.88282 11.2857 6.04112 11.3642 6.27855 11.3642L10.3151 11.3642L10.3151 15.3714C10.3151 15.6071 10.3943 15.7642 10.5525 15.9214C10.7108 16.0785 10.8691 16.1571 11.1066 16.1571C11.5815 16.1571 11.8981 15.8428 11.8981 15.3713L11.8981 11.3643L15.9346 11.3643C16.4095 11.3643 16.7261 11.05 16.7261 10.5786C16.7261 10.1071 16.4095 9.79282 15.9346 9.79282L11.8981 9.79282Z"   fill="#FFFFFF" >
</path>
</svg>
