<svg xmlns="http://www.w3.org/2000/svg" xmlns:xlink="http://www.w3.org/1999/xlink" viewBox="0 0 36.000732421875 34.42578125" fill="none">
<path d="M1.65373 24.4646L14.6406 24.4646C14.4704 24.3409 14.3028 24.2138 14.1378 24.0833C13.9729 23.9528 13.8105 23.819 13.651 23.682C13.4914 23.5448 13.3347 23.4046 13.1808 23.2612C13.0269 23.1178 12.876 22.9713 12.728 22.8217C12.5801 22.6722 12.4352 22.5197 12.2935 22.3643C12.1517 22.2088 12.0131 22.0506 11.8778 21.8896C11.7424 21.7285 11.6104 21.5648 11.4817 21.3984C11.353 21.232 11.2277 21.0631 11.1059 20.8916L1.65373 20.8916C1.62685 20.8914 1.59998 20.8919 1.57313 20.893C1.54627 20.8942 1.51945 20.8959 1.49269 20.8984C1.46591 20.9008 1.43922 20.9039 1.41261 20.9077C1.38599 20.9115 1.35948 20.9159 1.33308 20.921C1.30668 20.926 1.28042 20.9317 1.2543 20.9381C1.22818 20.9444 1.20223 20.9514 1.17645 20.959C1.15068 20.9667 1.12511 20.9749 1.09973 20.9838C1.07436 20.9927 1.04922 21.0022 1.02432 21.0123C0.999415 21.0224 0.974774 21.0331 0.950393 21.0445C0.926016 21.0558 0.90193 21.0677 0.878136 21.0802C0.854343 21.0927 0.830869 21.1058 0.807718 21.1195C0.784568 21.1331 0.761766 21.1474 0.739311 21.1621C0.716857 21.1769 0.694782 21.1923 0.673084 21.2081C0.651382 21.224 0.630084 21.2404 0.609187 21.2573C0.588294 21.2742 0.567826 21.2916 0.547784 21.3095C0.527741 21.3274 0.508152 21.3458 0.489016 21.3647C0.469877 21.3835 0.451213 21.4029 0.433027 21.4227C0.41484 21.4425 0.397146 21.4627 0.379951 21.4834C0.362756 21.5041 0.346077 21.5251 0.329917 21.5466C0.313757 21.5681 0.298133 21.5899 0.283046 21.6122C0.267959 21.6345 0.253427 21.657 0.23945 21.68C0.225473 21.703 0.212067 21.7263 0.199234 21.7499C0.1864 21.7735 0.174154 21.7974 0.162495 21.8217C0.150836 21.8458 0.139778 21.8704 0.129321 21.8951C0.118865 21.9199 0.109022 21.9449 0.0997931 21.9702C0.0905643 21.9954 0.0819605 22.0209 0.0739818 22.0465C0.066003 22.0722 0.0586586 22.098 0.051949 22.1241C0.0452394 22.1501 0.0391725 22.1763 0.0337481 22.2026C0.0283239 22.2289 0.0235489 22.2554 0.0194231 22.2819C0.0152972 22.3085 0.0118256 22.3352 0.00900816 22.3619C0.00619073 22.3886 0.00403087 22.4154 0.00252861 22.4422C0.00102635 22.4691 0.000183478 22.4959 0 22.5228L0 22.8243C0 23.7288 0.740243 24.4646 1.65373 24.4646ZM30.7796 24.9011C30.7699 24.8769 30.7596 24.8529 30.7487 24.8292C30.7378 24.8056 30.7264 24.7822 30.7144 24.759C30.7024 24.7359 30.6898 24.7131 30.6767 24.6906C30.6636 24.668 30.6499 24.6458 30.6357 24.624C30.6215 24.6021 30.6068 24.5806 30.5916 24.5594C30.5763 24.5383 30.5606 24.5175 30.5444 24.4971C30.5282 24.4767 30.5114 24.4567 30.4943 24.4371C30.4771 24.4176 30.4594 24.3984 30.4413 24.3797C30.4232 24.3609 30.4046 24.3426 30.3856 24.3248C30.3666 24.3069 30.3472 24.2896 30.3273 24.2726C30.3075 24.2557 30.2873 24.2393 30.2666 24.2234C30.246 24.2075 30.225 24.1921 30.2036 24.1772C30.1822 24.1623 30.1605 24.1478 30.1384 24.134C30.1163 24.1201 30.0939 24.1068 30.0712 24.094C30.0485 24.0812 30.0255 24.069 30.0022 24.0574C29.9789 24.0457 29.9553 24.0346 29.9315 24.0241C29.9076 24.0135 29.8835 24.0036 29.8592 23.9942C29.8349 23.9848 29.8104 23.976 29.7856 23.9678C29.7609 23.9597 29.7359 23.9521 29.7108 23.9451C29.6857 23.9381 29.6604 23.9317 29.635 23.926C29.6096 23.9202 29.5841 23.915 29.5584 23.9105C29.5327 23.906 29.5069 23.9021 29.4811 23.8988C29.4552 23.8955 29.4293 23.8929 29.4033 23.8908C29.3773 23.8888 29.3513 23.8874 29.3253 23.8866C29.2992 23.8858 29.2731 23.8856 29.2471 23.8861C29.221 23.8866 29.195 23.8878 29.169 23.8895C29.143 23.8912 29.117 23.8936 29.0911 23.8965C29.0652 23.8995 29.0394 23.9032 29.0137 23.9074C28.988 23.9116 28.9624 23.9164 28.9369 23.9219C28.9114 23.9274 28.8861 23.9335 28.8609 23.9402C28.8357 23.9469 28.8107 23.9542 28.7858 23.9621C28.761 23.97 28.7364 23.9785 28.7119 23.9876L28.3227 24.1293C28.2983 24.1373 28.274 24.1459 28.2501 24.1551C28.226 24.1643 28.2023 24.1742 28.1788 24.1846C28.1553 24.195 28.1321 24.206 28.1091 24.2176C28.0862 24.2292 28.0635 24.2414 28.0412 24.2541C28.0189 24.2668 27.9969 24.2801 27.9752 24.294C27.9536 24.3078 27.9323 24.3222 27.9114 24.3372C27.8905 24.3521 27.8699 24.3675 27.8498 24.3835C27.8296 24.3995 27.8099 24.4159 27.7906 24.4329C27.7713 24.4498 27.7524 24.4672 27.7339 24.4852C27.7155 24.5031 27.6975 24.5215 27.68 24.5403C27.6625 24.5591 27.6455 24.5784 27.629 24.5981C27.6124 24.6177 27.5964 24.6378 27.5809 24.6583C27.5654 24.6788 27.5504 24.6997 27.5359 24.721C27.5215 24.7422 27.5076 24.7638 27.4942 24.7858C27.4808 24.8077 27.468 24.83 27.4558 24.8526C27.4435 24.8752 27.4319 24.8981 27.4208 24.9213C27.4097 24.9445 27.3992 24.9679 27.3893 24.9917C27.3794 25.0154 27.3701 25.0393 27.3614 25.0636C27.3527 25.0877 27.3447 25.1121 27.3372 25.1367C27.3297 25.1613 27.3229 25.1861 27.3167 25.211C27.3105 25.236 27.3049 25.2611 27.3 25.2863C27.2951 25.3116 27.2908 25.3369 27.2871 25.3623C27.2835 25.3878 27.2804 25.4133 27.2781 25.4389C27.2757 25.4645 27.274 25.4901 27.273 25.5158C27.2719 25.5415 27.2715 25.5672 27.2717 25.5929C27.2719 25.6186 27.2728 25.6443 27.2744 25.6699C27.2759 25.6956 27.2781 25.7212 27.2809 25.7467C27.2837 25.7723 27.2872 25.7978 27.2913 25.8231C27.2954 25.8485 27.3002 25.8738 27.3055 25.8989C27.3109 25.924 27.3169 25.949 27.3236 25.9739C27.3302 25.9987 27.3375 26.0233 27.3454 26.0478C27.3533 26.0723 27.3618 26.0965 27.3709 26.1205L30.1834 33.415C30.4984 34.2182 31.4209 34.6277 32.2534 34.3284L32.6449 34.1845C32.6693 34.1763 32.6934 34.1677 32.7174 34.1583C32.7413 34.149 32.7651 34.1391 32.7885 34.1286C32.812 34.1181 32.8352 34.107 32.8581 34.0954C32.8809 34.0837 32.9035 34.0715 32.9258 34.0587C32.9481 34.0458 32.97 34.0325 32.9916 34.0186C33.0133 34.0047 33.0345 33.9902 33.0554 33.9752C33.0763 33.9603 33.0968 33.9448 33.1168 33.9287C33.1369 33.9127 33.1566 33.8962 33.1759 33.8792C33.1952 33.8622 33.214 33.8447 33.2324 33.8267C33.2507 33.8088 33.2687 33.7904 33.2861 33.7715C33.3036 33.7527 33.3206 33.7334 33.3371 33.7136C33.3535 33.6939 33.3695 33.6738 33.385 33.6533C33.4004 33.6328 33.4154 33.6119 33.4298 33.5906C33.4442 33.5693 33.4581 33.5477 33.4715 33.5257C33.4848 33.5038 33.4975 33.4815 33.5097 33.4589C33.5219 33.4363 33.5336 33.4133 33.5446 33.3901C33.5557 33.3669 33.5661 33.3435 33.576 33.3197C33.5859 33.296 33.5951 33.2721 33.6038 33.2479C33.6125 33.2236 33.6205 33.1992 33.6279 33.1747C33.6354 33.1501 33.6422 33.1253 33.6484 33.1003C33.6545 33.0754 33.6601 33.0503 33.665 33.0251C33.6699 32.9998 33.6742 32.9745 33.6779 32.9491C33.6815 32.9237 33.6845 32.8981 33.6869 32.8725C33.6892 32.8469 33.6909 32.8213 33.692 32.7957C33.693 32.77 33.6935 32.7443 33.6933 32.7186C33.693 32.6929 33.6921 32.6672 33.6906 32.6416C33.6891 32.6159 33.6869 32.5903 33.6841 32.5647C33.6813 32.5392 33.6779 32.5137 33.6737 32.4884C33.6696 32.463 33.6649 32.4377 33.6595 32.4126C33.6542 32.3875 33.6482 32.3625 33.6416 32.3377C33.6349 32.3128 33.6277 32.2882 33.6198 32.2637C33.6119 32.2393 33.6035 32.215 33.5944 32.191L30.7819 24.9011L30.7796 24.9011ZM24.0455 30.418L1.65373 30.418C1.62683 30.4178 1.59994 30.4183 1.57306 30.4194C1.54618 30.4205 1.51934 30.4224 1.49254 30.4248C1.46575 30.4272 1.43904 30.4303 1.4124 30.4341C1.38576 30.4379 1.35923 30.4423 1.33281 30.4474C1.30639 30.4524 1.2801 30.4582 1.25396 30.4645C1.22782 30.4709 1.20185 30.4779 1.17605 30.4856C1.15026 30.4932 1.12466 30.5015 1.09927 30.5104C1.07388 30.5192 1.04873 30.5288 1.0238 30.5389C0.998881 30.5491 0.974218 30.5598 0.949823 30.5711C0.925429 30.5825 0.901329 30.5944 0.877518 30.607C0.85371 30.6195 0.830222 30.6326 0.807057 30.6463C0.783893 30.6599 0.76108 30.6742 0.738615 30.689C0.71615 30.7038 0.694062 30.7191 0.672353 30.735C0.650644 30.7509 0.629336 30.7673 0.608432 30.7843C0.587528 30.8012 0.567053 30.8187 0.547007 30.8366C0.526961 30.8546 0.507368 30.873 0.488225 30.8919C0.469083 30.9108 0.450418 30.9302 0.432229 30.95C0.414039 30.9698 0.396348 30.9901 0.379153 31.0108C0.361958 31.0314 0.345284 31.0526 0.329126 31.0741C0.312969 31.0956 0.29735 31.1175 0.282269 31.1398C0.267188 31.162 0.252663 31.1847 0.238695 31.2077C0.224726 31.2307 0.211331 31.254 0.198508 31.2776C0.185686 31.3013 0.173452 31.3252 0.161807 31.3495C0.150161 31.3738 0.139119 31.3983 0.128679 31.4231C0.118239 31.4479 0.108414 31.4729 0.0992039 31.4982C0.089994 31.5235 0.0814106 31.549 0.0734534 31.5747C0.0654964 31.6003 0.0581752 31.6262 0.0514898 31.6523C0.0448045 31.6783 0.0387633 31.7046 0.0333658 31.7309C0.0279685 31.7573 0.0232216 31.7837 0.0191252 31.8104C0.0150288 31.8369 0.0115879 31.8636 0.00880232 31.8904C0.00601678 31.9171 0.00389007 31.944 0.00242213 31.9708C0.00095419 31.9977 0.000146813 32.0245 0 32.0515L0 32.3552C0 33.2597 0.740243 33.9955 1.65373 33.9955L24.0455 33.9955C24.0724 33.9956 24.0993 33.9951 24.1262 33.9939C24.153 33.9927 24.1799 33.9909 24.2067 33.9884C24.2334 33.9859 24.2602 33.9828 24.2868 33.979C24.3134 33.9751 24.34 33.9707 24.3664 33.9656C24.3928 33.9605 24.4191 33.9547 24.4452 33.9483C24.4713 33.9419 24.4973 33.9349 24.5231 33.9272C24.5488 33.9195 24.5744 33.9112 24.5998 33.9023C24.6252 33.8934 24.6503 33.8838 24.6752 33.8736C24.7001 33.8634 24.7248 33.8527 24.7492 33.8413C24.7735 33.8299 24.7976 33.818 24.8214 33.8054C24.8452 33.7929 24.8687 33.7797 24.8918 33.766C24.915 33.7523 24.9378 33.738 24.9602 33.7232C24.9827 33.7083 25.0047 33.693 25.0264 33.6771C25.0481 33.6611 25.0694 33.6446 25.0903 33.6277C25.1112 33.6107 25.1316 33.5933 25.1516 33.5753C25.1716 33.5573 25.1912 33.5389 25.2103 33.5199C25.2294 33.501 25.2481 33.4816 25.2662 33.4618C25.2844 33.4419 25.3021 33.4216 25.3192 33.4009C25.3364 33.3802 25.353 33.3591 25.3692 33.3375C25.3853 33.316 25.4009 33.2941 25.4159 33.2718C25.431 33.2495 25.4455 33.2268 25.4594 33.2038C25.4734 33.1808 25.4867 33.1575 25.4995 33.1338C25.5123 33.1101 25.5245 33.0861 25.5361 33.0619C25.5477 33.0376 25.5587 33.0131 25.5691 32.9883C25.5795 32.9635 25.5893 32.9384 25.5985 32.9131C25.6077 32.8878 25.6163 32.8623 25.6242 32.8366C25.6321 32.8109 25.6394 32.785 25.646 32.7589C25.6527 32.7329 25.6586 32.7067 25.664 32.6803C25.6694 32.6539 25.6741 32.6274 25.6782 32.6008C25.6822 32.5742 25.6856 32.5476 25.6884 32.5208C25.6911 32.494 25.6932 32.4673 25.6946 32.4404C25.6961 32.4135 25.6969 32.3866 25.697 32.3597L25.697 32.0515C25.6968 32.0246 25.696 31.9977 25.6945 31.9709C25.6931 31.944 25.691 31.9172 25.6882 31.8905C25.6854 31.8638 25.682 31.8371 25.6779 31.8106C25.6738 31.784 25.669 31.7576 25.6636 31.7312C25.6583 31.7049 25.6522 31.6787 25.6456 31.6526C25.6389 31.6266 25.6316 31.6007 25.6236 31.5751C25.6157 31.5494 25.6071 31.5239 25.5979 31.4987C25.5887 31.4734 25.5789 31.4484 25.5685 31.4236C25.5581 31.3988 25.5471 31.3743 25.5354 31.3501C25.5238 31.3259 25.5116 31.3019 25.4988 31.2783C25.486 31.2546 25.4726 31.2313 25.4586 31.2083C25.4447 31.1854 25.4302 31.1627 25.4152 31.1405C25.4001 31.1182 25.3845 31.0963 25.3684 31.0748C25.3522 31.0533 25.3356 31.0322 25.3184 31.0115C25.3013 30.9908 25.2836 30.9706 25.2654 30.9508C25.2473 30.931 25.2287 30.9116 25.2095 30.8927C25.1904 30.8738 25.1709 30.8554 25.1509 30.8374C25.1308 30.8195 25.1104 30.802 25.0895 30.7851C25.0687 30.7682 25.0474 30.7517 25.0257 30.7358C25.004 30.72 24.982 30.7046 24.9595 30.6898C24.9371 30.675 24.9143 30.6607 24.8912 30.647C24.8681 30.6334 24.8446 30.6202 24.8208 30.6077C24.797 30.5951 24.773 30.5832 24.7486 30.5718C24.7242 30.5605 24.6996 30.5497 24.6747 30.5396C24.6498 30.5294 24.6247 30.5199 24.5994 30.511C24.574 30.502 24.5484 30.4938 24.5226 30.4861C24.4969 30.4784 24.471 30.4714 24.4448 30.465C24.4187 30.4586 24.3925 30.4529 24.3661 30.4478C24.3397 30.4427 24.3132 30.4382 24.2866 30.4345C24.26 30.4307 24.2333 30.4275 24.2065 30.425C24.1798 30.4225 24.1529 30.4207 24.1261 30.4195C24.0992 30.4183 24.0724 30.4179 24.0455 30.418ZM11.8394 13.9729C12.0374 15.1789 12.4221 16.3804 13.0139 17.5279C13.0924 17.6794 13.1741 17.8292 13.2591 17.9772C13.3441 18.1252 13.4321 18.2714 13.5233 18.4157C13.6145 18.5599 13.7088 18.7022 13.806 18.8424C13.9033 18.9827 14.0035 19.1208 14.1067 19.2567C14.2099 19.3927 14.3159 19.5264 14.4248 19.6578C14.5337 19.7892 14.6453 19.9183 14.7597 20.045C14.8741 20.1716 14.9912 20.2958 15.1109 20.4174C15.2306 20.5391 15.3528 20.6582 15.4776 20.7746C15.5911 20.8812 15.7067 20.9857 15.8242 21.0879C15.9417 21.1901 16.0612 21.2901 16.1826 21.3877C16.3039 21.4854 16.4271 21.5807 16.5521 21.6737C16.6771 21.7666 16.8038 21.8571 16.9323 21.9452C17.0608 22.0333 17.1909 22.1189 17.3226 22.2021C17.4543 22.2852 17.5876 22.3658 17.7224 22.4439C17.8573 22.5219 17.9935 22.5973 18.1312 22.6702C18.2689 22.743 18.408 22.8132 18.5483 22.8807C18.6887 22.9482 18.8304 23.0131 18.9732 23.0752C19.116 23.1373 19.26 23.1967 19.4052 23.2533C19.5503 23.3099 19.6964 23.3637 19.8436 23.4147C19.9908 23.4657 20.1389 23.5139 20.2879 23.5593C20.437 23.6047 20.5868 23.6471 20.7375 23.6868C20.8881 23.7264 21.0395 23.7632 21.1915 23.7971C21.3436 23.8309 21.4962 23.8618 21.6494 23.8899C21.8027 23.9179 21.9564 23.943 22.1106 23.9651C22.2648 23.9873 22.4194 24.0064 22.5743 24.0227C22.7292 24.0389 22.8844 24.0522 23.0398 24.0625C23.1952 24.0728 23.3508 24.0801 23.5065 24.0845C23.6622 24.0889 23.818 24.0903 23.9738 24.0887C24.1295 24.0871 24.2852 24.0825 24.4408 24.075C24.5964 24.0674 24.7518 24.0569 24.907 24.0435C25.0622 24.03 25.2171 24.0135 25.3716 23.9941C25.5262 23.9747 25.6803 23.9524 25.834 23.9271C25.9877 23.9019 26.1409 23.8736 26.2935 23.8425C26.4462 23.8113 26.5982 23.7773 26.7495 23.7403C26.9008 23.7034 27.0514 23.6636 27.2012 23.6209C27.351 23.5782 27.5 23.5326 27.648 23.4842C27.7961 23.4358 27.9432 23.3846 28.0893 23.3306C28.2354 23.2766 28.3804 23.2198 28.5244 23.1603C28.6683 23.1007 28.811 23.0384 28.9526 22.9734C29.0942 22.9084 29.2345 22.8407 29.3734 22.7703C35.3517 19.7396 37.7209 12.479 34.6676 6.55249C32.0599 1.51031 26.3697 -0.928666 21.0463 0.324571C20.8091 0.379164 20.5737 0.440803 20.3402 0.509488C20.1067 0.578176 19.8754 0.653783 19.6464 0.736316C19.4175 0.818852 19.1911 0.908163 18.9675 1.00425C18.7439 1.10033 18.5233 1.20302 18.3058 1.31231C18.1577 1.38758 18.0112 1.46585 17.8664 1.54715C17.7215 1.62844 17.5784 1.71269 17.437 1.79987C17.2956 1.88706 17.1561 1.97712 17.0184 2.07006C16.8807 2.16299 16.745 2.25872 16.6112 2.35723C16.4775 2.45576 16.3458 2.55698 16.2162 2.66092C16.0867 2.76487 15.9593 2.87143 15.8341 2.98061C15.7089 3.0898 15.586 3.20151 15.4654 3.31575C15.3448 3.43 15.2266 3.54667 15.1108 3.66578C15.0539 3.72386 14.9976 3.78253 14.9419 3.8418C14.8862 3.90101 14.8311 3.96081 14.7766 4.02117C14.7221 4.0815 14.6682 4.14243 14.6149 4.20388C14.5617 4.26533 14.5091 4.32731 14.4571 4.38986C14.4051 4.45236 14.3537 4.5154 14.3029 4.57896C14.2522 4.64252 14.2021 4.70658 14.1527 4.77116C14.1033 4.83571 14.0545 4.90078 14.0064 4.96638C13.9583 5.03191 13.9109 5.09797 13.8641 5.16452C13.8174 5.23104 13.7713 5.29801 13.7258 5.36548C13.6805 5.43294 13.6357 5.50086 13.5917 5.56924C13.5477 5.63759 13.5044 5.70642 13.4617 5.77568C13.4191 5.8449 13.3772 5.91458 13.3359 5.98468C13.2947 6.05479 13.2542 6.12527 13.2144 6.19622C13.1746 6.26713 13.1356 6.33846 13.0972 6.41018C13.0589 6.4819 13.0213 6.55397 12.9844 6.62646C12.9475 6.69892 12.9114 6.77176 12.876 6.84499C12.8406 6.91819 12.8059 6.99177 12.772 7.06567C12.7381 7.13957 12.7049 7.21382 12.6726 7.28842C12.6401 7.36302 12.6085 7.4379 12.5776 7.51314C12.5467 7.58837 12.5166 7.66389 12.4873 7.73975C12.4579 7.81559 12.4294 7.8917 12.4015 7.96813C12.3737 8.04456 12.3467 8.12123 12.3205 8.19823C12.2942 8.27518 12.2688 8.35242 12.2441 8.42991C12.2194 8.50739 12.1955 8.58509 12.1724 8.66306C12.1493 8.74104 12.127 8.81923 12.1055 8.89766C12.0839 8.97606 12.0632 9.0547 12.0433 9.13356C12.0234 9.21238 12.0043 9.29141 11.986 9.37065C11.9676 9.44989 11.9501 9.52928 11.9334 9.60887C11.9167 9.68847 11.9008 9.76823 11.8857 9.84814C11.8706 9.92802 11.8563 10.0081 11.8429 10.0883C11.8294 10.1685 11.8168 10.2488 11.8049 10.3293C11.7931 10.4097 11.7821 10.4903 11.7719 10.571C11.7543 10.7121 11.7393 10.8536 11.7269 10.9954C11.7144 11.1371 11.7045 11.279 11.6971 11.4211C11.6897 11.5632 11.6849 11.7053 11.6826 11.8476C11.6803 11.9898 11.6806 12.1321 11.6834 12.2744C11.6862 12.4166 11.6916 12.5588 11.6995 12.7008C11.7074 12.8429 11.7179 12.9848 11.7309 13.1264C11.7439 13.2681 11.7594 13.4095 11.7776 13.5507C11.7956 13.6918 11.8162 13.8325 11.8394 13.9729ZM23.8362 2.91654C28.9257 2.91654 33.0499 7.00474 33.0499 12.047C33.0499 17.0869 28.9257 21.1729 23.8362 21.1729C18.7513 21.1729 14.6271 17.0891 14.6271 12.047C14.6271 7.00474 18.7513 2.91654 23.8362 2.91654ZM1.77298 11.084C1.74413 11.0838 1.71531 11.0844 1.68649 11.0858C1.65767 11.0871 1.62891 11.089 1.60019 11.0918C1.57147 11.0945 1.54284 11.0979 1.51429 11.102C1.48573 11.1061 1.4573 11.111 1.42899 11.1165C1.40067 11.122 1.37251 11.1282 1.34451 11.1351C1.3165 11.142 1.28867 11.1496 1.26103 11.1578C1.2334 11.1661 1.20598 11.175 1.17878 11.1846C1.15158 11.1942 1.12463 11.2045 1.09794 11.2154C1.07124 11.2263 1.04483 11.2379 1.0187 11.2501C0.992573 11.2624 0.966762 11.2752 0.941263 11.2887C0.915764 11.3022 0.890613 11.3163 0.865811 11.331C0.841008 11.3458 0.816578 11.3611 0.792524 11.377C0.76847 11.3929 0.74482 11.4094 0.721579 11.4265C0.698333 11.4436 0.67552 11.4613 0.653143 11.4795C0.630766 11.4976 0.608846 11.5164 0.587391 11.5357C0.565931 11.5549 0.544957 11.5747 0.524468 11.5951C0.503982 11.6153 0.484003 11.6361 0.464537 11.6574C0.445068 11.6787 0.426132 11.7005 0.407732 11.7227C0.389331 11.7449 0.371486 11.7675 0.354196 11.7906C0.336908 11.8137 0.320195 11.8372 0.304058 11.8611C0.287922 11.885 0.272381 11.9093 0.257436 11.934C0.242491 11.9587 0.22816 11.9837 0.214443 12.0091C0.200726 12.0344 0.187639 12.0601 0.175182 12.0862C0.162725 12.1122 0.150914 12.1385 0.139748 12.1651C0.128582 12.1917 0.118074 12.2185 0.108226 12.2457C0.098377 12.2728 0.0891991 12.3001 0.0806917 12.3277C0.0721842 12.3552 0.0643574 12.383 0.0572112 12.4109C0.0500653 12.4388 0.0436089 12.467 0.0378418 12.4952C0.0320746 12.5235 0.0270037 12.5519 0.0226292 12.5804C0.0182547 12.6089 0.0145818 12.6375 0.0116105 12.6662C0.00863912 12.6949 0.00637295 12.7236 0.00481194 12.7525C0.00325091 12.7813 0.00239692 12.8101 0.00224997 12.8389L0.00224997 13.1674C0.00224997 14.1349 0.794239 14.9202 1.77298 14.9202L8.56114 14.9202C8.51541 14.6834 8.47522 14.4457 8.44066 14.207C8.40611 13.9684 8.37717 13.729 8.35386 13.489C8.33059 13.249 8.31298 13.0085 8.30099 12.7677C8.28903 12.5268 8.28274 12.2858 8.28214 12.0447C8.28214 11.7207 8.30914 11.4035 8.33164 11.0817L1.77298 11.0817L1.77298 11.084ZM1.65373 4.53653L10.2576 4.53653C11.0046 3.20904 11.9451 2.00755 13.0386 0.959063L1.65373 0.959063C1.62681 0.95888 1.59989 0.959354 1.57299 0.960493C1.54608 0.961632 1.51922 0.963432 1.49241 0.965893C1.46559 0.968354 1.43885 0.971473 1.41219 0.975248C1.38553 0.979024 1.35898 0.98345 1.33253 0.988531C1.30609 0.993614 1.27978 0.999341 1.25362 1.00571C1.22746 1.01209 1.20147 1.01911 1.17565 1.02676C1.14983 1.03441 1.12422 1.0427 1.09881 1.05161C1.0734 1.06052 1.04823 1.07005 1.02328 1.0802C0.998343 1.09036 0.973666 1.10111 0.949254 1.11248C0.924841 1.12385 0.900724 1.1358 0.876899 1.14835C0.853077 1.16091 0.829575 1.17404 0.806396 1.18774C0.783218 1.20145 0.760391 1.21572 0.737916 1.23055C0.71544 1.24538 0.693341 1.26075 0.671622 1.27666C0.649898 1.29258 0.628583 1.30903 0.607672 1.32599C0.586761 1.34295 0.566279 1.36042 0.546226 1.3784C0.526173 1.39637 0.506573 1.41482 0.487431 1.43376C0.468285 1.4527 0.449617 1.47209 0.431427 1.49194C0.413237 1.5118 0.395546 1.53209 0.378352 1.55281C0.361157 1.57354 0.344484 1.59467 0.328332 1.61622C0.312178 1.63776 0.296564 1.65969 0.281489 1.68201C0.266414 1.70432 0.251897 1.72699 0.237937 1.75001C0.223977 1.77304 0.210592 1.7964 0.197781 1.82008C0.184969 1.84377 0.172748 1.86775 0.161117 1.89204C0.149485 1.91633 0.138458 1.94088 0.128034 1.96571C0.11761 1.99054 0.107803 2.01561 0.0986126 2.04092C0.089422 2.06623 0.080859 2.09175 0.0729236 2.11749C0.0649884 2.14322 0.0576904 2.16913 0.0510293 2.19522C0.0443682 2.22131 0.0383527 2.24755 0.0329823 2.27393C0.0276119 2.30032 0.0228933 2.32683 0.0188264 2.35344C0.0147595 2.38006 0.0113494 2.40677 0.00859584 2.43355C0.0058423 2.46034 0.00374882 2.48718 0.00231531 2.51407C0.0008818 2.54096 0.000110032 2.56787 0 2.59479L0 2.89854C0 3.80303 0.740243 4.53878 1.65373 4.53878L1.65373 4.53653Z"   fill="#42464A" >
</path>
</svg>
