<svg xmlns="http://www.w3.org/2000/svg" xmlns:xlink="http://www.w3.org/1999/xlink" viewBox="0 0 26 26" fill="none">
<path     fill="#1370B3"  d="M0.590332 12.8512C0.590332 19.9501 6.18005 25.7024 13.0697 25.7024C19.9594 25.7024 25.549 19.9488 25.549 12.8512C25.549 5.75352 19.9594 0 13.0697 0C6.18005 0 0.590335 5.75352 0.590335 12.8512">
</path>
<path d="M0.590332 13.887C0.590332 20.414 6.18005 25.7048 13.0697 25.7048C19.9594 25.7048 25.549 20.414 25.549 13.887C25.549 7.36008 19.9594 2.06934 13.0697 2.06934C6.18005 2.06934 0.590335 7.36008 0.590335 13.887L0.590332 13.887Z"   fill="#1678BC" >
</path>
<path d="M19.1638 3.01588L17.1593 2.28271L19.6942 4.5251L18.7465 4.46792L18.5516 4.86827C18.5214 4.84394 18.4907 4.82031 18.4595 4.79736C18.4283 4.77442 18.3966 4.75219 18.3644 4.73066C18.3321 4.70914 18.2995 4.68836 18.2663 4.6683C18.2332 4.64826 18.1996 4.62896 18.1656 4.61041C18.1316 4.59187 18.0971 4.57411 18.0623 4.55711C18.0275 4.54013 17.9923 4.52394 17.9568 4.50852C17.9212 4.49311 17.8853 4.47851 17.8491 4.46472C17.8129 4.45092 17.7764 4.43795 17.7396 4.42579C17.7029 4.41364 17.6658 4.40232 17.6285 4.39185C17.5912 4.38137 17.5537 4.37173 17.516 4.36293C17.4783 4.35412 17.4403 4.34618 17.4023 4.33908C17.3642 4.33199 17.3259 4.32576 17.2876 4.3204C17.2492 4.31503 17.2107 4.31053 17.1722 4.30689C17.1336 4.30325 17.095 4.30047 17.0563 4.29856C17.0176 4.29666 16.9789 4.29564 16.9401 4.29549C16.9014 4.29532 16.8626 4.29603 16.8239 4.29762C16.8147 4.30001 16.8054 4.30254 16.7962 4.30521C16.7871 4.3079 16.7779 4.31073 16.7688 4.31369C16.7597 4.31667 16.7507 4.31979 16.7417 4.32304C16.7327 4.32629 16.7238 4.32968 16.7149 4.33322C16.706 4.33676 16.6971 4.34044 16.6884 4.34426C16.6796 4.34807 16.6709 4.35203 16.6622 4.35612C16.6536 4.3602 16.645 4.36442 16.6365 4.36879C16.628 4.37316 16.6195 4.37765 16.6111 4.38227C16.6028 4.38691 16.5945 4.39168 16.5862 4.39657C16.578 4.40144 16.5699 4.40645 16.5618 4.4116C16.5537 4.41676 16.5458 4.42204 16.5378 4.42742C16.5299 4.43282 16.5221 4.43834 16.5144 4.444C16.5067 4.44963 16.499 4.4554 16.4915 4.46129C16.484 4.46718 16.4765 4.47318 16.4692 4.47929C16.4618 4.48542 16.4545 4.49166 16.4474 4.498C16.4402 4.50435 16.4332 4.51082 16.4262 4.5174C16.4193 4.52397 16.4124 4.53065 16.4057 4.53744C16.3989 4.54422 16.3923 4.55111 16.3858 4.5581C16.3792 4.56511 16.3728 4.57221 16.3665 4.57941C16.3602 4.58662 16.354 4.59392 16.348 4.60132C16.3419 4.6087 16.3359 4.61618 16.3301 4.62376C16.3243 4.63135 16.3185 4.63902 16.313 4.64679C16.3074 4.65456 16.3019 4.66242 16.2966 4.67036C16.2912 4.67828 16.286 4.68629 16.2809 4.6944C16.2758 4.70251 16.2708 4.71068 16.266 4.71893C16.2612 4.72719 16.2565 4.73553 16.2519 4.74394C16.2473 4.75233 16.2429 4.7608 16.2386 4.76935C16.2343 4.7779 16.2301 4.78652 16.2261 4.7952C16.222 4.80387 16.2181 4.8126 16.2144 4.8214C16.2106 4.83021 16.207 4.83907 16.2035 4.84798C16.2001 4.85689 16.1967 4.86586 16.1935 4.87487C16.1903 4.88391 16.1873 4.89297 16.1844 4.90209L16.3365 5.55204L18.2747 5.71063C18.4268 5.93422 18.7322 5.92513 18.7322 6.38531L19.4576 6.3541L19.9607 6.1851C19.9981 6.234 20.0348 6.28341 20.0709 6.33333C20.1069 6.38325 20.1423 6.43365 20.1769 6.48453C20.2115 6.53544 20.2455 6.58681 20.2787 6.63863C20.3119 6.69048 20.3444 6.74276 20.3762 6.79549C20.408 6.84823 20.439 6.9014 20.4693 6.95497C20.4996 7.00857 20.5292 7.06258 20.558 7.11699C20.5868 7.1714 20.6149 7.22619 20.6422 7.28139C20.6694 7.33659 20.696 7.39215 20.7217 7.44806C20.7474 7.50399 20.7724 7.56026 20.7966 7.61685C20.8208 7.67347 20.8442 7.73043 20.8668 7.78768C20.8894 7.84496 20.9112 7.90252 20.9323 7.96039C20.9533 8.01825 20.9735 8.0764 20.9929 8.13482C21.0123 8.19327 21.0309 8.25195 21.0487 8.31088C21.0665 8.36984 21.0834 8.429 21.0996 8.48841C21.1157 8.54783 21.131 8.60747 21.1455 8.66729C21.16 8.72713 21.1737 8.78716 21.1865 8.84739L20.6171 9.25815L20.4625 9.75992L20.4495 11.5266C20.4495 11.5266 20.0868 11.8996 20.0296 11.7865C19.9724 11.6734 20.0465 10.3384 19.8359 10.2058C19.8301 10.2018 19.8242 10.1979 19.8183 10.1941C19.8124 10.1903 19.8064 10.1866 19.8003 10.183C19.7942 10.1794 19.7881 10.1759 19.7819 10.1725C19.7757 10.1691 19.7695 10.1658 19.7632 10.1627C19.7569 10.1595 19.7506 10.1565 19.7442 10.1535C19.7377 10.1506 19.7313 10.1478 19.7248 10.1451C19.7183 10.1424 19.7117 10.1398 19.7051 10.1373C19.6985 10.1348 19.6919 10.1324 19.6852 10.1302C19.6785 10.128 19.6718 10.1258 19.665 10.1238C19.6583 10.1218 19.6515 10.1199 19.6447 10.1181C19.6378 10.1164 19.631 10.1147 19.6241 10.1132C19.6172 10.1117 19.6103 10.1103 19.6034 10.109C19.5964 10.1077 19.5895 10.1065 19.5825 10.1055C19.5756 10.1044 19.5686 10.1035 19.5616 10.1027C19.5546 10.1019 19.5475 10.1013 19.5405 10.1007C19.5335 10.1002 19.5264 10.0998 19.5194 10.0994C19.5123 10.0991 19.5053 10.099 19.4983 10.0989C19.4912 10.0989 19.4842 10.0989 19.4771 10.0991C19.4701 10.0993 19.463 10.0997 19.456 10.1001C19.4489 10.1005 19.4419 10.1011 19.4349 10.1018C19.4279 10.1025 19.4209 10.1033 19.4139 10.1042C19.4069 10.1052 19.4 10.1063 19.393 10.1074C19.3861 10.1086 19.3791 10.1099 19.3722 10.1113C19.3653 10.1128 19.3585 10.1143 19.3516 10.116C19.3448 10.1177 19.3379 10.1195 19.3312 10.1214C19.3244 10.1233 19.3176 10.1253 19.3109 10.1274C19.3042 10.1296 19.2975 10.1318 19.2909 10.1342C19.2842 10.1366 19.2777 10.1391 19.2711 10.1417C19.2646 10.1444 19.2581 10.1471 19.2516 10.1499C19.2452 10.1528 19.2388 10.1557 19.2324 10.1588C19.2261 10.1619 19.2198 10.165 19.2135 10.1683C19.2073 10.1716 19.2011 10.175 19.195 10.1785C18.9779 9.73004 18.6854 9.41154 18.302 9.25945C18.248 9.13397 18.1885 9.01121 18.1234 8.89113C18.0582 8.77109 17.9878 8.65424 17.912 8.54059C17.9038 8.54196 17.8956 8.54354 17.8875 8.54536C17.8793 8.54722 17.8713 8.5493 17.8633 8.55161C17.8553 8.55395 17.8474 8.55648 17.8395 8.55928C17.8317 8.56207 17.8239 8.56512 17.8163 8.56837C17.8086 8.57162 17.801 8.57512 17.7936 8.57883C17.7861 8.58253 17.7788 8.58647 17.7716 8.59061C17.7644 8.59477 17.7573 8.59914 17.7503 8.60371C17.7434 8.60828 17.7365 8.61305 17.7299 8.61803C17.7232 8.62303 17.7167 8.62821 17.7103 8.63357C17.7039 8.63895 17.6978 8.64451 17.6917 8.65025C17.6857 8.65599 17.6798 8.66191 17.6742 8.668C17.6685 8.67409 17.663 8.68037 17.6577 8.68679C17.6524 8.69321 17.6473 8.69979 17.6424 8.70652C17.6375 8.71325 17.6328 8.72013 17.6283 8.72713C17.6238 8.73414 17.6195 8.74128 17.6154 8.74854C17.6114 8.7558 17.6075 8.76319 17.6039 8.77068C17.6078 8.75712 17.6115 8.74344 17.6148 8.72967C17.6181 8.71594 17.6211 8.70213 17.6238 8.68821C17.6265 8.67435 17.6288 8.66041 17.6309 8.64639C17.633 8.6324 17.6347 8.61836 17.6361 8.6043C17.6375 8.59023 17.6386 8.57611 17.6394 8.56199C17.6401 8.54788 17.6406 8.53373 17.6407 8.51959C17.6408 8.50545 17.6406 8.49131 17.6401 8.47716C17.6396 8.46305 17.6388 8.44893 17.6376 8.43481C17.6364 8.42072 17.6349 8.40665 17.6332 8.39261C17.6313 8.3786 17.6292 8.36463 17.6268 8.35067C17.6243 8.33675 17.6216 8.32289 17.6185 8.30908C17.6154 8.29527 17.612 8.28153 17.6084 8.26787C17.6046 8.25423 17.6006 8.24067 17.5963 8.22719C17.592 8.21374 17.5874 8.20036 17.5825 8.1871C17.5775 8.17385 17.5723 8.16072 17.5668 8.14767C17.5612 8.13467 17.5554 8.12177 17.5493 8.10903L16.655 7.93744L16.0297 7.89582C15.7983 7.96344 15.6397 8.13632 15.5981 8.45479L15.2484 8.75768L15.0378 9.51683C14.9845 9.71704 15.6878 10.0368 15.9725 9.96142C16.2572 9.88604 16.7966 10.6933 16.7966 10.6933L16.6536 11.2666C16.6536 11.2666 16.4327 11.6708 16.3767 11.5851L15.8451 10.7557C15.4733 10.5347 15.0885 10.5724 14.7037 10.7557C14.6141 11.5526 14.5906 12.5119 14.7037 12.9097C14.8168 13.3075 14.9806 13.483 15.147 13.4297C15.3134 13.3764 15.9842 12.8564 15.9842 12.8564C15.9842 12.8564 16.6003 14.5216 16.6003 14.6113C16.6003 14.701 17.5181 15.3834 17.574 15.3834C17.6299 15.3834 17.8236 15.4718 17.8522 15.2691C17.8808 15.0663 17.7404 14.6958 17.8236 14.6373C17.9068 14.5788 18.0186 14.6945 18.0472 14.9818C18.0875 15.3899 18.1239 16.2297 18.0745 16.4117C17.9614 16.8433 17.405 17.4517 17.405 17.4517C17.405 17.4517 17.2386 18.0821 17.3231 18.1133C17.4076 18.1445 17.6858 18.9752 17.7989 19.2027C17.912 19.4301 19.7774 25.2552 23.4848 20.3934C25.7506 17.423 26.251 13.3322 24.9888 9.95751C24.1855 7.80744 22.2668 6.67519 20.946 3.95444L19.1638 3.01588Z"   fill="#10549A" >
</path>
<path d="M3.24731 2.51423C3.26422 3.40988 3.64511 4.29124 4.58365 5.15698C5.65089 4.8645 6.66355 4.83459 7.60991 5.08548C8.69536 3.90777 9.84578 3.48138 11.0547 3.54897C11.0024 3.59024 10.9508 3.63251 10.9001 3.67578C10.8494 3.71906 10.7995 3.7633 10.7505 3.80849C10.7015 3.85371 10.6534 3.89985 10.6062 3.94692C10.559 3.994 10.5127 4.04197 10.4673 4.09084C10.422 4.13972 10.3776 4.18946 10.3342 4.24006C10.2908 4.29065 10.2483 4.34207 10.2069 4.39429C10.1655 4.44655 10.1251 4.49959 10.0858 4.55339C10.0464 4.60722 10.0081 4.66176 9.97085 4.71706C9.93361 4.77236 9.89745 4.82837 9.86238 4.88505C9.82732 4.94177 9.79337 4.99912 9.76054 5.05714C9.72769 5.11519 9.696 5.17381 9.66543 5.23305C9.63486 5.29231 9.60546 5.35216 9.57722 5.41253C9.54899 5.47294 9.52192 5.53385 9.49605 5.5953C9.47018 5.65674 9.4455 5.71867 9.42204 5.78108C9.39857 5.84349 9.37631 5.90631 9.35528 5.96958C9.33426 6.03285 9.31446 6.09651 9.29592 6.16054C9.29978 6.17405 9.30382 6.18751 9.30806 6.20091C9.31227 6.21432 9.31669 6.22768 9.32131 6.24095C9.32593 6.25423 9.33073 6.26744 9.33571 6.28059C9.34068 6.29374 9.34584 6.30682 9.35117 6.31982C9.3565 6.33282 9.36204 6.34574 9.36775 6.35859C9.37344 6.37144 9.37933 6.38421 9.3854 6.39688C9.39144 6.40957 9.39769 6.42217 9.40411 6.43466C9.41053 6.44718 9.41711 6.45959 9.42389 6.47191C9.43064 6.48425 9.43757 6.49646 9.44468 6.5086C9.45177 6.52073 9.45903 6.53277 9.46649 6.54468C9.47391 6.55661 9.48153 6.56844 9.4893 6.58015C9.49706 6.59188 9.50499 6.60348 9.51311 6.61496C9.52119 6.62646 9.52944 6.63784 9.53787 6.64908C9.54627 6.66036 9.55483 6.6715 9.56356 6.68252C9.5723 6.69354 9.58116 6.70446 9.5902 6.71523C9.59921 6.72599 9.6084 6.73663 9.61772 6.74714C9.62706 6.75768 9.63653 6.76806 9.64616 6.7783C9.65578 6.78855 9.66553 6.79869 9.67543 6.80866C9.68534 6.81864 9.69536 6.82847 9.70555 6.83817C9.7157 6.84787 9.72601 6.85744 9.73647 6.86683C9.74691 6.87625 9.75747 6.88552 9.76819 6.89461C9.77888 6.90375 9.78969 6.91271 9.80066 6.92153C9.8116 6.93034 9.8227 6.93899 9.8339 6.94747C9.84507 6.95601 9.85639 6.96433 9.86782 6.97251C9.87924 6.98071 9.89077 6.98873 9.90245 6.99658C9.91408 7.00445 9.92584 7.01217 9.93772 7.01969C9.94958 7.02723 9.96154 7.03459 9.97362 7.0418C9.98571 7.04901 9.99787 7.05602 10.0102 7.06287C10.0224 7.06973 10.0348 7.07643 10.0472 7.08293C10.0597 7.08946 10.0722 7.09581 10.0849 7.10195C10.0975 7.10812 10.1102 7.11411 10.123 7.1199C10.1358 7.12572 10.1487 7.13135 10.1617 7.13679C11.004 7.26679 11.9426 7.17708 12.8655 7.42538L12.8097 8.14424C12.2403 9.21798 11.0443 9.55466 10.0798 10.4269C10.0876 10.462 10.0949 10.4972 10.1017 10.5325C10.1084 10.5678 10.1146 10.6032 10.1203 10.6387C10.1259 10.6742 10.1309 10.7097 10.1354 10.7454C10.1399 10.781 10.1439 10.8168 10.1472 10.8525C10.1506 10.8883 10.1534 10.9241 10.1556 10.96C10.1579 10.9959 10.1596 11.0318 10.1606 11.0677C10.1617 11.1036 10.1623 11.1395 10.1622 11.1754C10.1622 11.2114 10.1616 11.2473 10.1604 11.2832C10.1592 11.3192 10.1575 11.3551 10.1552 11.3909C10.1529 11.4268 10.15 11.4626 10.1465 11.4984C10.1431 11.5341 10.1391 11.5698 10.1345 11.6055C10.1299 11.6411 10.1248 11.6767 10.1191 11.7122C10.1134 11.7477 10.1071 11.783 10.1003 11.8183C10.0934 11.8536 10.0861 11.8888 10.0781 11.9238C10.0702 11.9589 10.0617 11.9938 10.0527 12.0285C10.0436 12.0633 10.034 12.098 10.0239 12.1324C9.66769 11.8374 9.29983 11.6944 8.91113 11.7321L8.84224 11.7763C7.6567 12.9683 8.65765 13.9783 10.5322 14.9221C10.5629 14.9279 10.5937 14.9332 10.6246 14.9379C10.6554 14.9427 10.6864 14.9469 10.7174 14.9507C10.7484 14.9544 10.7795 14.9577 10.8107 14.9603C10.8418 14.9631 10.873 14.9653 10.9042 14.967C10.9354 14.9687 10.9666 14.9698 10.9979 14.9705C11.0291 14.9711 11.0603 14.9713 11.0916 14.9709C11.1228 14.9705 11.1541 14.9696 11.1853 14.9682C11.2165 14.9668 11.2477 14.9649 11.2789 14.9624C11.31 14.96 11.3411 14.957 11.3722 14.9536C11.4032 14.9501 11.4342 14.9461 11.4651 14.9416C11.4961 14.9372 11.5269 14.9322 11.5577 14.9267C11.5884 14.9211 11.6191 14.9151 11.6497 14.9086C11.6802 14.9021 11.7107 14.8951 11.741 14.8875C11.7713 14.88 11.8015 14.872 11.8316 14.8635C11.8617 14.8549 11.8916 14.8459 11.9214 14.8364C11.9511 14.8269 11.9807 14.8169 12.0102 14.8064C12.9981 14.2474 15.4511 13.6703 15.91 15.6371C15.6838 15.9256 15.3393 15.9659 14.9623 15.9256C14.8323 16.0335 14.5866 16.0816 14.4606 16.1856C13.0111 17.3556 11.5136 17.8028 9.7613 17.5207C9.80343 17.5729 9.84672 17.6242 9.89115 17.6744C9.93559 17.7247 9.98111 17.774 10.0278 17.8223C10.0744 17.8705 10.1221 17.9177 10.1709 17.9638C10.2196 18.0099 10.2693 18.055 10.3201 18.0988C10.3709 18.1428 10.4226 18.1855 10.4752 18.2271C10.5279 18.2686 10.5815 18.309 10.636 18.3482C10.6904 18.3874 10.7457 18.4254 10.8019 18.4621C10.8581 18.4988 10.9151 18.5343 10.9728 18.5684C11.9478 18.6399 12.5003 18.7751 12.5639 18.9857L11.667 18.9857C13.3062 19.7176 14.9168 19.8267 16.4612 19.0273C16.4716 19.1755 16.3767 19.3796 16.2376 19.6032C16.7575 19.1599 17.2255 18.5957 17.7715 18.1953L17.856 18.7413C18.7491 18.5411 19.4835 17.0995 20.0308 14.2331L20.3922 15.2653C20.747 13.7054 20.738 11.8413 20.5742 9.82375C20.6058 9.85615 20.637 9.88898 20.6678 9.92229C20.6985 9.9556 20.7287 9.98937 20.7584 10.0236C20.7881 10.0578 20.8173 10.0925 20.846 10.1275C20.8747 10.1626 20.9028 10.1982 20.9304 10.2341C20.958 10.27 20.9851 10.3063 21.0116 10.3431C21.0381 10.3798 21.0641 10.4169 21.0896 10.4545C21.115 10.492 21.1398 10.5299 21.1641 10.5681C21.1884 10.6064 21.2121 10.645 21.2353 10.6839C21.2584 10.7229 21.2809 10.7622 21.3029 10.8018C21.3249 10.8415 21.3462 10.8814 21.367 10.9217C21.3877 10.962 21.4079 11.0026 21.4274 11.0434C21.447 11.0843 21.4659 11.1255 21.4843 11.1669C21.5026 11.2084 21.5203 11.2501 21.5373 11.292C21.5544 11.334 21.5709 11.3763 21.5867 11.4187C21.6025 11.4612 21.6177 11.5039 21.6322 11.5468C21.6467 11.5897 21.6606 11.6328 21.6739 11.6761C21.7454 8.8163 20.9355 6.17872 18.944 4.64091C19.3834 4.54991 20.0516 4.82421 21.3424 5.81866C20.6249 4.37312 19.3756 3.0303 17.6337 1.76807C20.0152 2.48043 22.1588 3.93245 23.8214 6.7364C23.8383 6.14625 22.4643 4.20024 21.1838 3.09659L21.2566 2.71962L22.7659 4.10015L22.8477 3.78556C24.8237 6.14625 25.2357 8.18715 25.2682 10.1552C25.2188 11.5462 25.0277 12.8591 24.5585 14.0303C25.4071 13.4389 25.7867 12.8162 25.3891 10.8299L25.692 9.58587C26.1262 11.5358 26.1495 13.6534 25.1265 16.1765C24.6326 17.5571 23.421 18.9233 22.567 20.2973L23.6589 19.5174L24.8367 17.1372C24.845 17.1882 24.8522 17.2394 24.8585 17.2907C24.8648 17.342 24.8701 17.3934 24.8744 17.4449C24.8787 17.4964 24.8819 17.548 24.8842 17.5997C24.8864 17.6513 24.8876 17.703 24.8878 17.7546C24.888 17.8063 24.8872 17.858 24.8854 17.9097C24.8836 17.9613 24.8807 18.0129 24.8769 18.0645C24.873 18.116 24.8681 18.1675 24.8622 18.2188C24.8563 18.2702 24.8494 18.3214 24.8415 18.3725C24.8336 18.4236 24.8247 18.4745 24.8148 18.5252C24.8049 18.5759 24.794 18.6265 24.7821 18.6768C24.7702 18.7271 24.7573 18.7771 24.7435 18.8269C24.7296 18.8768 24.7148 18.9262 24.6989 18.9754C24.6831 19.0247 24.6664 19.0736 24.6486 19.1221C24.6309 19.1706 24.6122 19.2188 24.5926 19.2666C24.5729 19.3145 24.5523 19.3619 24.5308 19.4089C24.5093 19.4559 24.4869 19.5025 24.4636 19.5486C24.4109 19.6314 24.3569 19.7134 24.3017 19.7945C24.2464 19.8757 24.1899 19.9559 24.1321 20.0352C24.0743 20.1146 24.0152 20.193 23.9549 20.2705C23.8946 20.3479 23.8331 20.4244 23.7705 20.4999C23.7077 20.5755 23.6439 20.65 23.5788 20.7235C23.5137 20.797 23.4475 20.8694 23.3801 20.9408C23.3127 21.0122 23.2443 21.0825 23.1747 21.1518C23.1051 21.221 23.0344 21.2891 22.9627 21.3561C22.8909 21.4231 22.8181 21.4889 22.7443 21.5536C22.6704 21.6183 22.5956 21.6818 22.5197 21.7441C22.4438 21.8064 22.367 21.8675 22.2893 21.9274C22.2115 21.9873 22.1327 22.0459 22.0531 22.1033C21.9735 22.1607 21.8929 22.2168 21.8115 22.2716C21.7301 22.3264 21.6478 22.38 21.5647 22.4322C21.4816 22.4844 21.3976 22.5353 21.3129 22.5849C21.2282 22.6344 21.1427 22.6827 21.0564 22.7295C21.0434 23.087 20.8393 23.4692 20.3389 23.8839C18.649 25.1903 16.352 25.7363 13.4804 25.5738L13.8977 25.9755C13.7544 25.9775 13.6111 25.9765 13.4678 25.9725C13.3245 25.9684 13.1813 25.9612 13.0384 25.9509C12.8954 25.9406 12.7527 25.9272 12.6103 25.9108C12.4679 25.8944 12.326 25.8748 12.1844 25.8521C12.0428 25.8296 11.9018 25.804 11.7614 25.7752C11.6209 25.7466 11.4812 25.7149 11.3421 25.6802C11.203 25.6454 11.0648 25.6076 10.9273 25.567C10.7899 25.5262 10.6534 25.4825 10.5179 25.436L11.1782 25.8767C4.73835 24.2686 0.665652 20.0347 0.596754 14.2734L0.00138465 15.3654C-0.0220142 14.1343 0.418664 13.0697 0.624054 11.9257L0.722849 10.9755L0.295169 12.0154C0.495352 10.5647 0.798236 9.07368 1.91098 7.28758C1.90623 7.23502 1.90208 7.18239 1.89853 7.1297C1.89497 7.07704 1.89202 7.02436 1.88966 6.9716C1.8873 6.91888 1.88554 6.86612 1.88438 6.81334C1.88322 6.76057 1.88266 6.70779 1.8827 6.655C1.88273 6.60221 1.88337 6.54943 1.8846 6.49664C1.88584 6.44388 1.88767 6.39114 1.8901 6.33838C1.89253 6.28567 1.89556 6.23296 1.89919 6.1803C1.90281 6.12764 1.90704 6.07503 1.91186 6.02244C1.91668 5.96988 1.9221 5.91738 1.92811 5.86492C1.93412 5.81249 1.94073 5.76013 1.94793 5.70783C1.95513 5.65552 1.96292 5.60332 1.97131 5.55119C1.97969 5.49909 1.98867 5.44707 1.99823 5.39514C2.0078 5.34324 2.01795 5.29145 2.02869 5.23975C2.03943 5.18808 2.05076 5.13654 2.06267 5.0851C2.07458 5.03366 2.08707 4.98237 2.10015 4.93123C2.11322 4.88009 2.12687 4.82911 2.14111 4.77825C2.15534 4.72742 2.17014 4.67677 2.18552 4.62626C2.20091 4.57579 2.21686 4.52546 2.23338 4.47532C2.2499 4.4252 2.26699 4.37525 2.28465 4.32549C2.3023 4.27575 2.32052 4.22621 2.3393 4.17688C2.35808 4.12754 2.37742 4.07842 2.39731 4.02952C2.41721 3.98063 2.43765 3.93197 2.45865 3.88355C2.47965 3.8351 2.5012 3.78691 2.52329 3.73897C2.54539 3.69104 2.56801 3.64335 2.5912 3.59592C2.61435 3.54849 2.63807 3.50132 2.66231 3.45442C2.68654 3.40753 2.71132 3.36092 2.73663 3.31459C2.76192 3.26826 2.78774 3.22223 2.8141 3.17649C2.84046 3.13074 2.86732 3.0853 2.89469 3.04017C2.92206 2.99505 2.94996 2.95023 2.97835 2.90573C3.00674 2.86123 3.03563 2.81705 3.06504 2.77319C3.09444 2.72935 3.12432 2.68585 3.15471 2.64268C3.18508 2.59952 3.21596 2.5567 3.24731 2.51423L3.24731 2.51423Z"   fill="#E36724" >
</path>
<path d="M9.29573 6.16043C8.89405 7.85032 9.02923 9.32445 10.0757 10.4268C10.2816 10.24 10.4982 10.0667 10.7256 9.90684C11.3249 9.54025 12.049 9.25686 12.8055 8.15062L12.8614 7.43176C12.4364 7.27576 11.3275 7.20817 10.1576 7.14317C9.6805 6.93258 9.38802 6.60761 9.29314 6.16693L9.29573 6.16043ZM8.83814 11.7761C6.43067 11.6669 5.70531 13.2529 6.06149 15.9242C6.11738 14.4943 8.32337 12.7589 8.32728 12.7264C8.32977 12.7035 8.33281 12.6807 8.33642 12.6579C8.34002 12.6351 8.34416 12.6125 8.34883 12.5899C8.35353 12.5673 8.35876 12.5449 8.36452 12.5226C8.37031 12.5003 8.37661 12.4781 8.38342 12.4561C8.39027 12.4341 8.39761 12.4123 8.40548 12.3906C8.41338 12.3689 8.42178 12.3475 8.43069 12.3262C8.43961 12.305 8.44903 12.284 8.45893 12.2632C8.46888 12.2424 8.47929 12.2218 8.49018 12.2015C8.5011 12.1812 8.5125 12.1612 8.52438 12.1414C8.53627 12.1217 8.54861 12.1023 8.5614 12.0831C8.57423 12.0639 8.58748 12.0451 8.60119 12.0266C8.6149 12.0081 8.62907 11.9899 8.64364 11.9721C8.65824 11.9542 8.67325 11.9367 8.68869 11.9196C8.70412 11.9025 8.71997 11.8858 8.73619 11.8694C8.75244 11.8531 8.76905 11.8371 8.78603 11.8215C8.80305 11.806 8.82041 11.7908 8.83814 11.7761ZM15.2 15.9359C14.6866 15.6681 13.9456 15.6577 12.8913 16.0074C10.5515 16.5937 8.62105 16.2674 7.01044 15.2353C7.27692 16.1166 7.99448 16.8901 9.63111 17.4452C9.68486 17.4568 9.73877 17.4677 9.79282 17.4777C9.84691 17.4878 9.90109 17.497 9.95543 17.5055C10.0098 17.5139 10.0642 17.5216 10.1188 17.5284C10.1734 17.5353 10.228 17.5413 10.2828 17.5465C10.3375 17.5518 10.3923 17.5562 10.4472 17.5597C10.5021 17.5634 10.557 17.5661 10.612 17.5681C10.6669 17.5701 10.7219 17.5713 10.7769 17.5716C10.8319 17.5719 10.8869 17.5715 10.9418 17.5702C10.9968 17.5689 11.0518 17.5668 11.1067 17.5639C11.1616 17.561 11.2165 17.5573 11.2712 17.5527C11.3261 17.5482 11.3808 17.5428 11.4354 17.5367C11.4901 17.5305 11.5446 17.5235 11.5991 17.5158C11.6535 17.508 11.7078 17.4994 11.762 17.49C11.8162 17.4807 11.8702 17.4705 11.9241 17.4595C11.978 17.4485 12.0317 17.4367 12.0853 17.4241C12.1388 17.4116 12.1921 17.3982 12.2453 17.384C12.3084 17.3656 12.3711 17.3459 12.4333 17.3248C12.4956 17.3037 12.5574 17.2813 12.6186 17.2575C12.6799 17.2337 12.7407 17.2086 12.8009 17.1822C12.8611 17.1559 12.9207 17.1282 12.9798 17.0992C13.0388 17.0702 13.0971 17.04 13.1548 17.0085C13.2126 16.9771 13.2696 16.9444 13.3259 16.9104C13.3822 16.8765 13.4377 16.8413 13.4925 16.805C13.5473 16.7687 13.6012 16.7312 13.6544 16.6925C14.1744 16.2609 14.6852 15.9385 15.1987 15.9359L15.2 15.9359ZM4.58347 5.14648L2.10449 7.09637C2.46977 6.14222 2.97545 5.22057 3.94131 4.44971L4.58347 5.14648Z"   fill="#D5562C" >
</path>
<path d="M9.31546 9.162C9.27905 9.04759 9.91861 8.7915 9.98361 8.78891C10.0486 8.78632 10.9248 8.63032 11.0236 8.67453L11.3304 8.8175C11.94 8.58353 12.2494 8.36903 12.5159 8.05835L12.499 8.64462C12.2819 8.97741 10.9976 9.77295 10.3684 10.1473C10.3411 10.1603 10.3216 10.202 10.2995 10.2188C10.2579 10.2478 10.2185 10.2794 10.181 10.3136C10.1436 10.3477 10.1086 10.3842 10.0759 10.4229C10.0434 10.4463 9.46364 9.60136 9.31546 9.1568L9.31546 9.162Z"   fill="#F0B991" >
</path>
<path d="M11.8945 7.22119L12.3846 7.43828L12.5146 8.05576L12.4977 8.64202L12.8201 8.11294C12.8281 8.08668 12.8351 8.06018 12.8413 8.03344C12.8475 8.00669 12.8527 7.97977 12.857 7.95267C12.8613 7.92557 12.8647 7.89835 12.8671 7.87101C12.8696 7.84368 12.871 7.81629 12.8716 7.78885C12.8721 7.76141 12.8717 7.73399 12.8704 7.70658C12.8691 7.67918 12.8668 7.65185 12.8636 7.6246C12.8603 7.59735 12.8562 7.57023 12.8511 7.54325C12.846 7.51628 12.84 7.48952 12.8331 7.46296C12.8216 7.45116 12.8096 7.43987 12.7971 7.42909C12.7846 7.41832 12.7717 7.40811 12.7583 7.39844C12.745 7.38878 12.7312 7.3797 12.7171 7.3712C12.7029 7.36272 12.6885 7.35486 12.6736 7.34761C12.6588 7.34038 12.6437 7.33379 12.6283 7.32783C12.613 7.32189 12.5974 7.31662 12.5815 7.31201C12.5657 7.30741 12.5497 7.3035 12.5335 7.30028C12.5174 7.29705 12.5011 7.29452 12.4847 7.29269L11.8945 7.22119Z"   fill="#7E3430" >
</path>
<path d="M5.74956 4.93841C5.82737 4.93137 5.9053 4.92598 5.98336 4.92224C6.06139 4.9185 6.13947 4.9164 6.21761 4.91594C6.29574 4.9155 6.37385 4.91671 6.45194 4.91957C6.53002 4.92242 6.60801 4.92692 6.68589 4.93308C6.76379 4.93922 6.84151 4.94702 6.91908 4.95646C6.99663 4.96589 7.07396 4.97695 7.15104 4.98965C7.22815 5.00236 7.30494 5.01669 7.38141 5.03264C7.45791 5.04858 7.53403 5.06613 7.60978 5.0853C8.64973 3.92446 9.81186 3.50458 11.0546 3.54878C11.0034 3.58927 10.953 3.63072 10.9034 3.67312C10.8538 3.71551 10.805 3.75882 10.7571 3.80307C10.7091 3.84732 10.662 3.89245 10.6157 3.93848C10.5695 3.9845 10.5241 4.03138 10.4796 4.07912C10.4351 4.12687 10.3916 4.17544 10.3489 4.22483C10.3063 4.27423 10.2646 4.32441 10.2238 4.37537C10.1831 4.42634 10.1433 4.47807 10.1046 4.53056C10.0658 4.58304 10.028 4.63622 9.99122 4.69012C9.95445 4.74403 9.91873 4.79862 9.88402 4.85389C9.84931 4.90914 9.81564 4.96503 9.78306 5.02157C9.75049 5.0781 9.71898 5.13523 9.68854 5.19295C9.65809 5.25069 9.62877 5.30898 9.60056 5.36782C9.57235 5.42664 9.54526 5.48599 9.51928 5.54586C9.49331 5.60573 9.46847 5.66607 9.44479 5.72687C9.4211 5.78767 9.39855 5.84889 9.37717 5.91054C9.35582 5.97219 9.33561 6.03423 9.31659 6.09665C8.99029 7.15089 9.05661 8.15834 9.31659 9.1385C9.33713 9.19786 9.35914 9.25667 9.38263 9.31491C9.40612 9.37316 9.43102 9.43079 9.45738 9.4878C9.48373 9.54482 9.51149 9.60114 9.54066 9.65675C9.56983 9.71238 9.60038 9.76725 9.63227 9.82133C9.66419 9.87543 9.69742 9.92871 9.73198 9.98114C9.76653 10.0336 9.80239 10.0851 9.83951 10.1358C9.87665 10.1864 9.91502 10.2361 9.95463 10.2849C9.99426 10.3336 10.0351 10.3813 10.0771 10.428C10.0846 10.4632 10.0916 10.4984 10.0981 10.5337C10.1045 10.569 10.1105 10.6044 10.1158 10.6399C10.1212 10.6754 10.126 10.711 10.1303 10.7467C10.1346 10.7823 10.1384 10.818 10.1416 10.8538C10.1448 10.8896 10.1474 10.9254 10.1496 10.9612C10.1517 10.997 10.1532 11.0329 10.1542 11.0688C10.1553 11.1047 10.1557 11.1406 10.1556 11.1765C10.1556 11.2124 10.155 11.2483 10.1538 11.2842C10.1526 11.3201 10.1509 11.356 10.1486 11.3918C10.1463 11.4277 10.1435 11.4634 10.1402 11.4992C10.1368 11.5349 10.1329 11.5706 10.1284 11.6063C10.124 11.6419 10.119 11.6775 10.1134 11.7129C10.1079 11.7484 10.1018 11.7838 10.0952 11.8191C10.0886 11.8544 10.0814 11.8896 10.0737 11.9247C10.066 11.9598 10.0578 11.9947 10.049 12.0295C10.0403 12.0643 10.031 12.099 10.0212 12.1335C9.64288 11.8112 9.25809 11.6786 8.87202 11.754C6.46192 11.6149 5.69106 13.1839 6.06415 15.9268C5.09829 13.4088 5.90815 11.5317 8.43523 10.3539C7.52528 8.96691 7.87887 6.9741 8.26755 5.70018C7.71246 5.292 6.78951 5.0775 5.74956 4.93841ZM15.9047 15.6369C15.5589 14.3369 14.4526 14.0016 12.6873 14.5072C11.8476 14.9791 10.6919 15.1208 10.1355 14.7048C10.1265 14.6966 10.1165 14.6897 10.1057 14.684C9.56877 14.4032 9.1112 14.1147 8.76023 13.7013C8.71739 13.6565 8.67103 13.6158 8.62111 13.5791L8.45343 14.0159C8.42614 15.0272 9.96136 15.8917 11.9308 15.5394C13.6883 15.2235 14.9687 15.3249 15.9033 15.6369L15.9047 15.6369Z"   fill="#FF9D00" >
</path>
<path d="M19.2597 17.0696C19.3479 16.8407 19.4302 16.6097 19.5066 16.3766C19.583 16.1434 19.6534 15.9085 19.7177 15.6718C19.7821 15.435 19.8404 15.1968 19.8925 14.9571C19.9447 14.7174 19.9907 14.4765 20.0305 14.2345L20.3919 15.2653C20.4324 15.0412 20.4688 14.8165 20.5011 14.5911C20.5334 14.3658 20.5617 14.1399 20.5858 13.9135C20.6099 13.6871 20.6299 13.4603 20.6457 13.2332C20.6616 13.006 20.6733 12.7787 20.681 12.5512C20.6886 12.3236 20.6921 12.096 20.6914 11.8683C20.6907 11.6406 20.6859 11.413 20.677 11.1855C20.6681 10.958 20.655 10.7308 20.6378 10.5037C20.6206 10.2767 20.5993 10.05 20.5739 9.82378C20.6054 9.85633 20.6364 9.88936 20.6669 9.92285C20.6974 9.95631 20.7274 9.99024 20.7569 10.0246C20.7864 10.0589 20.8154 10.0937 20.8439 10.1289C20.8725 10.1641 20.9004 10.1997 20.9279 10.2357C20.9554 10.2717 20.9823 10.3081 21.0088 10.3449C21.0352 10.3816 21.0611 10.4188 21.0864 10.4564C21.1118 10.4939 21.1365 10.5318 21.1608 10.57C21.185 10.6083 21.2087 10.6469 21.2318 10.6858C21.2549 10.7248 21.2775 10.764 21.2995 10.8036C21.3215 10.8432 21.3429 10.8831 21.3637 10.9234C21.3845 10.9636 21.4047 11.0041 21.4244 11.0449C21.444 11.0857 21.4631 11.1268 21.4815 11.1682C21.5 11.2095 21.5178 11.2511 21.5351 11.293C21.5523 11.3349 21.5689 11.377 21.585 11.4194C21.601 11.4617 21.6164 11.5043 21.6312 11.5471C21.646 11.5899 21.6601 11.633 21.6737 11.6762C21.6567 8.14556 20.6337 5.91748 18.9438 4.64223C19.5093 4.61494 20.271 4.93082 21.3409 5.81868C20.4673 4.11834 19.1206 2.8678 17.6309 1.76807C19.5912 2.28804 21.6425 3.28119 23.8186 6.73643L22.9944 4.53953L21.2486 2.71962L22.7344 4.06895L22.8475 3.77907C25.9323 7.56708 25.5344 10.8364 24.5595 14.0226L19.2597 17.0696Z"   fill="#F5B044" >
</path>
<path d="M22.2144 14.6972C23.478 12.7473 23.8277 10.3307 23.3038 7.46826C25.2537 11.138 25.2537 15.3173 22.5238 20.218L20.6831 21.3646L22.2144 14.6972Z"   fill="#FF9D00" >
</path>
<path d="M18.1509 18.5969C19.0985 17.891 19.6588 16.387 20.0176 14.2486C20.5375 15.0454 20.687 16.2362 20.4648 17.8091C21.2811 16.7808 21.4852 14.7594 21.6633 12.6978C23.0087 16.6223 22.1833 20.058 19.9162 22.0755C20.0462 21.9702 18.7216 21.6582 19.1622 21.0992C20.1411 19.8656 20.431 17.2878 20.1749 17.2397C19.2298 18.5032 18.6331 18.7242 18.1509 18.5955L18.1509 18.5969Z"   fill="#FF9D00" >
</path>
<path d="M15.5278 21.0942C17.9262 20.478 19.3354 19.2457 20.1023 17.6182C20.0555 19.8671 19.2352 21.5791 17.2308 22.4721C16.0153 22.1419 15.5408 21.6636 15.5278 21.0942Z"   fill="#FF9D00" >
</path>
<path d="M19.5822 23.1765L18.9647 23.7966L19.6342 23.8096C18.8178 24.2711 17.9443 24.4088 17.0681 24.4713C17.6895 23.9513 18.5371 23.5262 19.577 23.1791L19.5822 23.1765Z"   fill="#10549A" >
</path>
</svg>
