<svg xmlns="http://www.w3.org/2000/svg" xmlns:xlink="http://www.w3.org/1999/xlink" viewBox="0 0 24 24" fill="none">
<path d="M18.7031 3.75L4.52344 3.75C4.0962 3.75 3.75 4.09621 3.75 4.52344C3.75 4.95067 4.0962 5.29687 4.52344 5.29687L18.7031 5.29687L18.7031 19.4766C18.7031 19.9038 19.0493 20.25 19.4766 20.25C19.9038 20.25 20.25 19.9038 20.25 19.4766L20.25 5.29687C20.25 4.43996 19.56 3.75 18.7031 3.75ZM21.4531 1L8.72946 1C8.30223 1 7.95603 1.34621 7.95603 1.77344C7.95603 2.20067 8.30223 2.54688 8.72946 2.54688L21.4531 2.54688L21.4531 15.3516C21.4531 15.7788 21.7993 16.125 22.2266 16.125C22.6538 16.125 23 15.7788 23 15.3516L23 2.54688C23 1.68996 22.31 1 21.4531 1ZM13.2891 13.9766L5.21094 13.9766C4.7837 13.9766 4.4375 14.3228 4.4375 14.75C4.4375 15.1772 4.7837 15.5234 5.21094 15.5234L13.2891 15.5234C13.7163 15.5234 14.0625 15.1772 14.0625 14.75C14.0625 14.3228 13.7187 13.9766 13.2891 13.9766ZM15.9531 6.5C16.8076 6.5 17.5 7.19241 17.5 8.04688L17.5 21.4531C17.5 22.3076 16.8076 23 15.9531 23L2.54687 23C1.69241 23 1 22.3076 1 21.4531L1 8.04688C1 7.19241 1.69241 6.5 2.54687 6.5L15.9531 6.5Z"   fill="#336DF4" >
</path>
<path    stroke="rgba(51, 214, 192, 1)" stroke-width="2"  stroke-linecap="round"  d="M4.5 15L13.5 15">
</path>
</svg>
