<svg xmlns="http://www.w3.org/2000/svg" xmlns:xlink="http://www.w3.org/1999/xlink" viewBox="0 0 24 24" fill="none">
<path d="M21.5236 14.0216L18.7345 14.0216L18.7345 13.5547C18.7342 13.5208 18.7332 13.487 18.7314 13.4532C18.7295 13.4194 18.7268 13.3856 18.7233 13.352C18.7198 13.3183 18.7155 13.2847 18.7104 13.2513C18.7053 13.2178 18.6993 13.1845 18.6926 13.1513C18.6858 13.1181 18.6783 13.0851 18.6699 13.0523C18.6616 13.0195 18.6524 12.9869 18.6425 12.9545C18.6326 12.9222 18.6219 12.8901 18.6104 12.8582C18.5989 12.8264 18.5866 12.7948 18.5736 12.7636C18.5606 12.7323 18.5468 12.7014 18.5323 12.6708C18.5177 12.6402 18.5025 12.61 18.4865 12.5802C18.4705 12.5504 18.4538 12.5209 18.4364 12.4919C18.419 12.4629 18.4008 12.4343 18.382 12.4061C18.3632 12.378 18.3437 12.3503 18.3236 12.3231C18.3034 12.2959 18.2826 12.2692 18.2612 12.243C18.2397 12.2168 18.2176 12.1911 18.1949 12.166C18.1722 12.1409 18.1489 12.1164 18.1251 12.0923C18.1012 12.0683 18.0767 12.045 18.0517 12.0222C18.0266 11.9994 18.0011 11.9772 17.975 11.9556C17.9489 11.9341 17.9223 11.9132 17.8951 11.8929C17.868 11.8726 17.8404 11.853 17.8124 11.8341C17.7843 11.8152 17.7558 11.7969 17.7268 11.7794C17.6978 11.7618 17.6685 11.745 17.6387 11.7289C17.6089 11.7128 17.5788 11.6974 17.5483 11.6827C17.5178 11.6681 17.4869 11.6542 17.4557 11.641C17.4245 11.6279 17.393 11.6155 17.3612 11.6039C17.3294 11.5922 17.2973 11.5814 17.265 11.5713C17.2327 11.5613 17.2001 11.552 17.1674 11.5435C17.1346 11.535 17.1016 11.5273 17.0685 11.5205C17.0353 11.5136 17.002 11.5075 16.9686 11.5022C16.9351 11.497 16.9016 11.4925 16.8679 11.4889C16.8342 11.4853 16.8005 11.4824 16.7667 11.4804C16.7329 11.4784 16.6991 11.4772 16.6652 11.4769C15.8879 11.4696 15.1106 11.4769 14.3345 11.4769L12.5733 11.4769L12.5733 9.97844L15.0434 9.97844C15.0675 9.97851 15.0917 9.97798 15.1159 9.97685C15.14 9.97572 15.1641 9.97402 15.1882 9.97168C15.2123 9.96937 15.2363 9.96649 15.2602 9.96297C15.2841 9.95948 15.3079 9.95542 15.3317 9.95075C15.3554 9.94608 15.379 9.94084 15.4025 9.93501C15.4259 9.92918 15.4492 9.92279 15.4724 9.9158C15.4956 9.90882 15.5185 9.90129 15.5413 9.89319C15.5641 9.88509 15.5867 9.87643 15.609 9.8672C15.6314 9.85799 15.6535 9.84824 15.6754 9.83795C15.6973 9.82765 15.7189 9.81681 15.7402 9.80547C15.7615 9.79409 15.7826 9.7822 15.8034 9.76982C15.8241 9.75742 15.8446 9.74451 15.8647 9.73111C15.8848 9.71771 15.9046 9.70383 15.9241 9.68945C15.9435 9.67507 15.9626 9.66022 15.9813 9.64491C16 9.6296 16.0183 9.61384 16.0363 9.59761C16.0542 9.58139 16.0717 9.56475 16.0889 9.54767C16.106 9.53059 16.1227 9.51311 16.1389 9.49522C16.1552 9.47732 16.171 9.45904 16.1864 9.44033C16.2017 9.42167 16.2166 9.40264 16.231 9.38323C16.2455 9.36382 16.2594 9.34407 16.2729 9.32397C16.2863 9.30386 16.2993 9.28345 16.3117 9.26272C16.3242 9.24199 16.3361 9.22097 16.3475 9.19965C16.3589 9.17834 16.3698 9.15677 16.3802 9.13493C16.3905 9.11305 16.4003 9.09096 16.4096 9.06864C16.4188 9.0463 16.4276 9.02374 16.4357 9.00099C16.4439 8.97823 16.4515 8.95527 16.4585 8.93212C16.4656 8.90901 16.472 8.8857 16.4779 8.86223C16.4838 8.83878 16.4891 8.81519 16.4938 8.79147C16.4985 8.76777 16.5027 8.74396 16.5062 8.72006C16.5098 8.69611 16.5127 8.67212 16.5151 8.64806C16.5175 8.62399 16.5193 8.59989 16.5205 8.57571C16.5216 8.55158 16.5223 8.52743 16.5223 8.50326L16.5223 2.47401C16.5222 2.44984 16.5216 2.42568 16.5204 2.40156C16.5192 2.37741 16.5174 2.35331 16.515 2.32926C16.5126 2.3052 16.5096 2.28123 16.5061 2.25732C16.5025 2.23342 16.4983 2.20963 16.4936 2.18593C16.4889 2.16223 16.4835 2.13866 16.4776 2.11522C16.4718 2.09179 16.4653 2.06851 16.4582 2.04538C16.4512 2.02226 16.4436 1.99933 16.4354 1.97659C16.4273 1.95384 16.4185 1.93131 16.4093 1.90899C16.4 1.88667 16.3901 1.8646 16.3798 1.84276C16.3694 1.82093 16.3585 1.79936 16.3471 1.77806C16.3357 1.75676 16.3238 1.73576 16.3113 1.71504C16.2988 1.69433 16.2859 1.67393 16.2724 1.65386C16.259 1.63378 16.245 1.61405 16.2306 1.59466C16.2162 1.57527 16.2013 1.55624 16.1859 1.53758C16.1705 1.51893 16.1547 1.50065 16.1385 1.48277C16.1222 1.46489 16.1055 1.44742 16.0884 1.43036C16.0713 1.4133 16.0538 1.39666 16.0359 1.38047C16.0179 1.36427 15.9996 1.34852 15.9809 1.33322C15.9622 1.31792 15.9431 1.30309 15.9237 1.28872C15.9042 1.27436 15.8844 1.26049 15.8643 1.2471C15.8442 1.23371 15.8238 1.22082 15.803 1.20843C15.7823 1.19605 15.7612 1.18418 15.7399 1.17283C15.7185 1.16148 15.6969 1.15066 15.6751 1.14037C15.6532 1.13008 15.6311 1.12033 15.6087 1.11113C15.5864 1.10193 15.5638 1.09328 15.5411 1.08519C15.5183 1.07709 15.4953 1.06956 15.4722 1.0626C15.449 1.05563 15.4257 1.04924 15.4023 1.04342C15.3788 1.0376 15.3552 1.03236 15.3315 1.02769C15.3078 1.02303 15.284 1.01896 15.2601 1.01547C15.2362 1.01198 15.2122 1.00908 15.1881 1.00676C15.1641 1.00445 15.1399 1.00273 15.1158 1.00161C15.0917 1.00048 15.0675 0.999946 15.0434 1L9.01412 1C8.99 0.999985 8.96587 1.00056 8.94176 1.00172C8.91765 1.00289 8.89359 1.00464 8.86958 1.00699C8.84554 1.00934 8.82159 1.01227 8.79771 1.0158C8.77383 1.01932 8.75006 1.02343 8.72639 1.02812C8.70271 1.03281 8.67915 1.03808 8.65574 1.04393C8.63232 1.04978 8.60905 1.0562 8.58596 1.06319C8.56285 1.07018 8.53995 1.07773 8.51723 1.08585C8.4945 1.09396 8.47198 1.10263 8.44967 1.11186C8.42735 1.12108 8.40529 1.13084 8.38347 1.14115C8.36166 1.15146 8.34009 1.16229 8.31882 1.17366C8.2975 1.18502 8.2765 1.1969 8.2558 1.2093C8.23509 1.2217 8.2147 1.23459 8.19463 1.248C8.17454 1.26139 8.15481 1.27528 8.13542 1.28965C8.11603 1.30401 8.097 1.31885 8.07834 1.33415C8.05968 1.34945 8.0414 1.36521 8.0235 1.38141C8.00561 1.39761 7.98813 1.41424 7.97105 1.4313C7.95397 1.44836 7.93733 1.46583 7.92114 1.4837C7.9049 1.50158 7.88914 1.51985 7.87383 1.5385C7.8585 1.55715 7.84365 1.57616 7.82927 1.59555C7.81489 1.61493 7.80099 1.63465 7.78756 1.65471C7.77414 1.67478 7.76123 1.69516 7.74883 1.71586C7.7364 1.73656 7.72452 1.75755 7.71313 1.77883C7.70175 1.80011 7.69089 1.82166 7.68057 1.84348C7.67023 1.86529 7.66045 1.88735 7.65122 1.90965C7.64197 1.93194 7.63329 1.95445 7.62517 1.97718C7.61702 1.9999 7.60945 2.02281 7.60244 2.0459C7.59541 2.069 7.58897 2.09226 7.58312 2.11568C7.57725 2.13908 7.57196 2.16262 7.56725 2.1863C7.56253 2.20997 7.5584 2.23375 7.55486 2.25762C7.55133 2.28149 7.54836 2.30544 7.546 2.32946C7.54364 2.35347 7.54187 2.37753 7.54069 2.40165C7.53949 2.42575 7.5389 2.44987 7.5389 2.47401L7.5389 8.50446C7.5389 8.52859 7.53949 8.55272 7.54069 8.5768C7.54187 8.60093 7.54364 8.62499 7.546 8.64903C7.54836 8.67303 7.55133 8.69697 7.55486 8.72085C7.5584 8.74473 7.56253 8.7685 7.56725 8.79215C7.57196 8.81585 7.57725 8.83939 7.58312 8.86279C7.58897 8.8862 7.59541 8.90947 7.60244 8.93257C7.60945 8.95566 7.61702 8.97854 7.62517 9.00129C7.63329 9.02399 7.64197 9.04651 7.65122 9.0688C7.66045 9.09112 7.67023 9.11316 7.68057 9.13498C7.69089 9.15681 7.70175 9.17836 7.71313 9.19965C7.72452 9.22093 7.7364 9.2419 7.74883 9.26261C7.76123 9.28331 7.77414 9.3037 7.78756 9.32377C7.80099 9.34382 7.81489 9.36355 7.82927 9.38294C7.84365 9.4023 7.8585 9.42133 7.87383 9.43995C7.88914 9.45861 7.9049 9.47689 7.92114 9.49476C7.93733 9.51265 7.95397 9.53012 7.97105 9.54715C7.98813 9.56422 8.00561 9.58087 8.0235 9.59704C8.04138 9.61325 8.05965 9.62901 8.07834 9.64432C8.097 9.65961 8.11603 9.67444 8.13542 9.68882C8.15481 9.70319 8.17454 9.71707 8.19463 9.73045C8.2147 9.74386 8.23509 9.75676 8.2558 9.76914C8.2765 9.78155 8.2975 9.79343 8.31882 9.80481C8.34009 9.81618 8.36166 9.82702 8.38347 9.83733C8.40529 9.84763 8.42735 9.85738 8.44967 9.86659C8.47198 9.87582 8.4945 9.88448 8.51723 9.8926C8.53995 9.90072 8.56288 9.90827 8.58599 9.91528C8.60907 9.92226 8.63234 9.92868 8.65574 9.93453C8.67915 9.94038 8.70271 9.94565 8.72639 9.95036C8.75006 9.95503 8.77383 9.95914 8.79771 9.96268C8.82159 9.96619 8.84554 9.96912 8.86958 9.97148C8.89359 9.97383 8.91765 9.97558 8.94176 9.97676C8.96587 9.97792 8.99 9.97848 9.01412 9.97844L11.3889 9.97844L11.3889 11.4708L7.31402 11.4708C7.25329 11.4694 7.19261 11.4706 7.13197 11.4743C7.07132 11.4781 7.01096 11.4843 6.95086 11.4931C6.89076 11.5019 6.83112 11.5133 6.77198 11.5271C6.71283 11.5409 6.65435 11.5572 6.59656 11.5759C6.57765 11.5824 6.55883 11.5892 6.54009 11.5963C6.52136 11.6034 6.50272 11.6107 6.48421 11.6183C6.46569 11.6259 6.44727 11.6337 6.42899 11.6418C6.41067 11.6499 6.39251 11.6583 6.37445 11.6669C6.35638 11.6756 6.33844 11.6845 6.32064 11.6936C6.30281 11.7027 6.28515 11.7121 6.26762 11.7218C6.25006 11.7314 6.23265 11.7413 6.21539 11.7514C6.19811 11.7615 6.18101 11.7719 6.16405 11.7825C6.14706 11.7931 6.13023 11.804 6.11359 11.8151C6.09692 11.8261 6.08041 11.8375 6.06408 11.849C6.04773 11.8606 6.03156 11.8724 6.01555 11.8844C5.99954 11.8964 5.98369 11.9087 5.96804 11.9211C5.95237 11.9336 5.93688 11.9463 5.9216 11.9592C5.90627 11.9721 5.89116 11.9852 5.87624 11.9985C5.8613 12.0118 5.84656 12.0254 5.83202 12.0391C5.81746 12.0529 5.8031 12.0668 5.78895 12.081C5.7748 12.0951 5.76086 12.1095 5.74711 12.124C5.73337 12.1386 5.71983 12.1533 5.7065 12.1682C5.69316 12.1832 5.68003 12.1983 5.66715 12.2136C5.65422 12.2289 5.64155 12.2444 5.6291 12.26C5.61662 12.2757 5.6044 12.2915 5.59238 12.3075C5.58036 12.3235 5.56857 12.3397 5.55703 12.3561C5.54546 12.3724 5.53412 12.3889 5.52305 12.4056C5.51194 12.4223 5.5011 12.4391 5.49049 12.4561C5.47988 12.473 5.46951 12.4901 5.4594 12.5074C5.44926 12.5247 5.43937 12.5421 5.42973 12.5596C5.4201 12.5772 5.41071 12.5948 5.40159 12.6126C5.39243 12.6304 5.38356 12.6484 5.37494 12.6664C5.3663 12.6845 5.35794 12.7027 5.34984 12.721C5.34172 12.7393 5.33385 12.7577 5.32628 12.7762C5.31868 12.7947 5.31136 12.8134 5.3043 12.8321C5.29723 12.8508 5.29042 12.8697 5.28389 12.8886C5.26112 12.9688 5.24185 13.0499 5.22602 13.1318C5.21017 13.2137 5.19783 13.2961 5.18903 13.3791C5.18023 13.462 5.17497 13.5452 5.17327 13.6286C5.17155 13.712 5.17338 13.7953 5.17878 13.8786L5.17878 13.98L2.47645 13.98C2.45229 13.98 2.42815 13.9806 2.40402 13.9817C2.37989 13.9829 2.35581 13.9847 2.33177 13.987C2.30773 13.9894 2.28375 13.9923 2.25986 13.9958C2.23596 13.9994 2.21216 14.0035 2.18847 14.0081C2.16477 14.0128 2.14121 14.0181 2.11777 14.024C2.09434 14.0298 2.07106 14.0363 2.04794 14.0432C2.02482 14.0502 2.00188 14.0578 1.97914 14.0659C1.95639 14.0741 1.93385 14.0827 1.91153 14.0919C1.8892 14.1012 1.86712 14.111 1.84528 14.1213C1.82344 14.1316 1.80186 14.1424 1.78055 14.1538C1.75924 14.1652 1.73822 14.1771 1.71749 14.1895C1.69677 14.2019 1.67636 14.2148 1.65627 14.2282C1.63618 14.2416 1.61643 14.2555 1.59702 14.2699C1.57761 14.2843 1.55856 14.2991 1.53988 14.3144C1.5212 14.3298 1.50291 14.3455 1.485 14.3617C1.4671 14.3779 1.4496 14.3946 1.43251 14.4117C1.41543 14.4287 1.39877 14.4462 1.38254 14.4641C1.36631 14.482 1.35053 14.5003 1.3352 14.519C1.31987 14.5376 1.30501 14.5566 1.29061 14.576C1.27621 14.5954 1.2623 14.6152 1.24887 14.6353C1.23545 14.6554 1.22252 14.6757 1.2101 14.6965C1.19767 14.7172 1.18576 14.7382 1.17437 14.7595C1.16298 14.7808 1.15212 14.8024 1.14178 14.8242C1.13145 14.846 1.12166 14.8681 1.11241 14.8904C1.10316 14.9127 1.09447 14.9353 1.08633 14.958C1.07818 14.9807 1.0706 15.0037 1.06359 15.0268C1.05657 15.0499 1.05013 15.0732 1.04426 15.0966C1.03838 15.12 1.03309 15.1436 1.02837 15.1673C1.02366 15.191 1.01953 15.2148 1.01598 15.2387C1.01244 15.2626 1.00948 15.2865 1.00711 15.3106C1.00474 15.3346 1.00296 15.3587 1.00178 15.3828C1.00059 15.4069 1 15.4311 1 15.4552L1 21.4845C1.00002 21.5086 1.00063 21.5327 1.00184 21.5568C1.00304 21.581 1.00484 21.605 1.00722 21.629C1.00961 21.6531 1.01258 21.677 1.01615 21.7009C1.01971 21.7248 1.02385 21.7486 1.02858 21.7722C1.03331 21.7959 1.03862 21.8195 1.04451 21.8429C1.05039 21.8663 1.05685 21.8896 1.06388 21.9127C1.0709 21.9357 1.07849 21.9586 1.08665 21.9814C1.0948 22.0041 1.1035 22.0266 1.11276 22.0489C1.12202 22.0712 1.13182 22.0933 1.14216 22.1151C1.1525 22.1369 1.16337 22.1585 1.17477 22.1797C1.18617 22.201 1.19808 22.222 1.21051 22.2427C1.22294 22.2634 1.23587 22.2838 1.2493 22.3038C1.26273 22.3239 1.27664 22.3436 1.29104 22.363C1.30544 22.3824 1.3203 22.4014 1.33564 22.4201C1.35097 22.4387 1.36675 22.457 1.38297 22.4748C1.3992 22.4926 1.41586 22.5101 1.43295 22.5272C1.45003 22.5443 1.46753 22.5609 1.48543 22.5771C1.50333 22.5933 1.52162 22.609 1.5403 22.6245C1.55897 22.6398 1.57801 22.6546 1.59741 22.6689C1.61682 22.6833 1.63656 22.6971 1.65665 22.7104C1.67674 22.7239 1.69714 22.7368 1.71786 22.7492C1.73857 22.7616 1.75959 22.7735 1.78089 22.7848C1.80219 22.7961 1.82375 22.807 1.84559 22.8175C1.86742 22.8278 1.8895 22.8375 1.91181 22.8467C1.93412 22.8559 1.95665 22.8646 1.97939 22.8726C2.00213 22.8807 2.02505 22.8883 2.04816 22.8952C2.07127 22.9022 2.09453 22.9086 2.11796 22.9145C2.14138 22.9204 2.16494 22.9257 2.18862 22.9304C2.2123 22.9351 2.23609 22.9392 2.25997 22.9426C2.28386 22.9461 2.30781 22.9491 2.33184 22.9515C2.35587 22.9538 2.37994 22.9555 2.40406 22.9567C2.42817 22.9579 2.4523 22.9585 2.47645 22.9585L8.50568 22.9585C8.52981 22.9585 8.55392 22.9579 8.57803 22.9567C8.60211 22.9555 8.62617 22.9537 8.65021 22.9513C8.6742 22.949 8.69815 22.946 8.72203 22.9424C8.74589 22.9389 8.76966 22.9349 8.79333 22.9302C8.81701 22.9255 8.84055 22.9202 8.86395 22.9143C8.88735 22.9084 8.9106 22.902 8.93371 22.895C8.95679 22.8881 8.9797 22.8805 9.00242 22.8723C9.02515 22.8642 9.04764 22.8555 9.06993 22.8463C9.09223 22.8371 9.11429 22.8273 9.13611 22.817C9.15793 22.8067 9.17947 22.7958 9.20076 22.7843C9.22204 22.773 9.24304 22.7612 9.26374 22.7487C9.28442 22.7364 9.30481 22.7235 9.3249 22.7102C9.34495 22.6967 9.36468 22.6828 9.38407 22.6685C9.40344 22.6541 9.42246 22.6393 9.44115 22.624C9.45979 22.6086 9.47807 22.5928 9.49596 22.5766C9.51383 22.5604 9.53132 22.5438 9.54839 22.5267C9.56545 22.5098 9.58209 22.4923 9.59831 22.4743C9.61452 22.4565 9.63029 22.4383 9.64562 22.4196C9.66092 22.401 9.67578 22.382 9.69016 22.3626C9.70453 22.3432 9.71843 22.3235 9.73186 22.3035C9.74529 22.2834 9.75819 22.263 9.77062 22.2423C9.78302 22.2217 9.79493 22.2007 9.80631 22.1794C9.8177 22.1581 9.82856 22.1366 9.8389 22.1148C9.84922 22.093 9.85901 22.0709 9.86827 22.0486C9.8775 22.0264 9.88618 22.0038 9.89435 21.9811C9.90249 21.9584 9.91006 21.9355 9.91709 21.9124C9.9241 21.8893 9.93054 21.8661 9.93644 21.8427C9.94231 21.8193 9.94762 21.7958 9.95236 21.7721C9.95707 21.7484 9.9612 21.7247 9.96478 21.7008C9.96832 21.6769 9.97129 21.653 9.9737 21.629C9.97606 21.605 9.97785 21.5809 9.97907 21.5568C9.98027 21.5327 9.98089 21.5086 9.98091 21.4845L9.98091 15.4552C9.98091 15.4311 9.98032 15.407 9.97914 15.3828C9.97794 15.3587 9.97617 15.3347 9.97381 15.3106C9.97143 15.2866 9.96848 15.2627 9.96494 15.2388C9.96138 15.2149 9.95726 15.1911 9.95256 15.1674C9.94784 15.1438 9.94254 15.1202 9.93669 15.0968C9.93081 15.0734 9.92437 15.0501 9.91739 15.027C9.91036 15.0039 9.90278 14.981 9.89466 14.9582C9.88652 14.9355 9.87784 14.913 9.86861 14.8907C9.85935 14.8684 9.84958 14.8463 9.83926 14.8245C9.82892 14.8027 9.81808 14.7811 9.80672 14.7598C9.79533 14.7385 9.78343 14.7175 9.77102 14.6968C9.7586 14.6761 9.74569 14.6557 9.73229 14.6356C9.71887 14.6156 9.70496 14.5959 9.69059 14.5764C9.67621 14.5571 9.66135 14.538 9.64605 14.5194C9.63072 14.5007 9.61495 14.4824 9.59874 14.4645C9.58253 14.4467 9.56588 14.4292 9.54883 14.4121C9.53175 14.395 9.51426 14.3784 9.49637 14.3622C9.47848 14.346 9.4602 14.3302 9.44156 14.3149C9.42287 14.2996 9.40384 14.2847 9.38448 14.2703C9.36507 14.2559 9.34534 14.2421 9.32527 14.2286C9.30517 14.2152 9.28479 14.2023 9.2641 14.1899C9.24338 14.1775 9.22238 14.1656 9.2011 14.1542C9.17979 14.1428 9.15824 14.132 9.13643 14.1216C9.11459 14.1113 9.09252 14.1015 9.07023 14.0923C9.04791 14.0831 9.0254 14.0744 9.00267 14.0662C8.97993 14.0581 8.957 14.0505 8.93391 14.0435C8.9108 14.0365 8.88754 14.0301 8.86413 14.0242C8.84071 14.0184 8.81717 14.0131 8.79349 14.0084C8.76979 14.0036 8.746 13.9995 8.72215 13.996C8.69824 13.9924 8.6743 13.9895 8.65028 13.9871C8.62624 13.9848 8.60218 13.983 8.57807 13.9818C8.55394 13.9806 8.52981 13.98 8.50568 13.98L6.35946 13.98L6.35946 13.5669L6.35946 13.4447L6.35946 13.4105L6.35946 13.397C6.36055 13.3848 6.36055 13.3726 6.35946 13.3603L6.35946 13.3811C6.37185 13.3202 6.38815 13.2603 6.40836 13.2015C6.41394 13.187 6.42004 13.1727 6.42668 13.1587C6.45108 13.1108 6.47796 13.0643 6.50735 13.0194C6.52447 12.9925 6.54647 12.968 6.56234 12.9411L6.54769 12.9656C6.58801 12.9203 6.63201 12.8812 6.6699 12.8433C6.68457 12.8323 6.69802 12.8213 6.71267 12.8128C6.76245 12.7833 6.81379 12.7568 6.86668 12.7333L6.84223 12.7333C6.86668 12.7272 6.89357 12.7138 6.91802 12.7052C6.97748 12.6863 7.03778 12.6704 7.0989 12.6576C7.12212 12.6576 7.14657 12.6514 7.16734 12.6502L16.8131 12.6502C16.8669 12.6615 16.9198 12.6758 16.972 12.693C17.0026 12.7028 17.0331 12.7187 17.0637 12.726L17.0392 12.726C17.0871 12.7504 17.1336 12.7773 17.1786 12.8067L17.214 12.8311L17.236 12.8556C17.2756 12.8909 17.3131 12.9284 17.3485 12.968L17.3338 12.9436C17.3472 12.9668 17.3656 12.9876 17.3803 13.0084C17.4129 13.0576 17.4426 13.1085 17.4695 13.1611C17.4695 13.1709 17.4805 13.1856 17.4866 13.2002C17.4906 13.2098 17.4939 13.2195 17.4964 13.2296C17.5136 13.2817 17.5279 13.3347 17.5391 13.3885L17.5391 13.397C17.5399 13.3856 17.5399 13.3742 17.5391 13.3628C17.5391 13.3848 17.5391 13.408 17.5452 13.43L17.5452 14.0191L15.4956 14.0191C15.4714 14.0191 15.4473 14.0197 15.4232 14.0209C15.3991 14.0221 15.375 14.0239 15.351 14.0262C15.3269 14.0286 15.303 14.0316 15.2791 14.0351C15.2552 14.0386 15.2315 14.0428 15.2078 14.0475C15.1841 14.0522 15.1605 14.0575 15.1371 14.0633C15.1137 14.0692 15.0904 14.0756 15.0674 14.0827C15.0442 14.0897 15.0213 14.0972 14.9986 14.1054C14.9758 14.1135 14.9533 14.1222 14.931 14.1314C14.9087 14.1407 14.8867 14.1504 14.8648 14.1608C14.843 14.1711 14.8214 14.1819 14.8002 14.1933C14.7789 14.2047 14.7579 14.2166 14.7372 14.229C14.7164 14.2414 14.696 14.2543 14.676 14.2677C14.6559 14.2812 14.6362 14.2951 14.6168 14.3094C14.5974 14.3238 14.5783 14.3387 14.5597 14.354C14.541 14.3693 14.5228 14.3851 14.5049 14.4013C14.487 14.4175 14.4695 14.4341 14.4524 14.4512C14.4354 14.4683 14.4187 14.4858 14.4025 14.5036C14.3863 14.5215 14.3705 14.5398 14.3552 14.5585C14.3399 14.5771 14.3251 14.5962 14.3107 14.6156C14.2963 14.635 14.2824 14.6547 14.269 14.6748C14.2555 14.6948 14.2426 14.7152 14.2302 14.7359C14.2178 14.7566 14.2059 14.7776 14.1945 14.7989C14.1832 14.8202 14.1723 14.8418 14.162 14.8636C14.1517 14.8854 14.1419 14.9075 14.1327 14.9298C14.1234 14.9521 14.1147 14.9746 14.1066 14.9973C14.0985 15.0201 14.0909 15.043 14.0839 15.0661C14.0769 15.0892 14.0704 15.1125 14.0646 15.1359C14.0587 15.1593 14.0534 15.1829 14.0487 15.2065C14.044 15.2302 14.0399 15.254 14.0363 15.2779C14.0328 15.3018 14.0298 15.3257 14.0275 15.3497C14.0251 15.3738 14.0233 15.3979 14.0221 15.422C14.0209 15.4461 14.0204 15.4702 14.0204 15.4943L14.0204 21.5236C14.0203 21.5477 14.0209 21.5719 14.0221 21.596C14.0232 21.6201 14.025 21.6442 14.0273 21.6683C14.0297 21.6923 14.0326 21.7163 14.0362 21.7402C14.0397 21.7641 14.0438 21.7879 14.0485 21.8116C14.0532 21.8353 14.0585 21.8588 14.0643 21.8822C14.0702 21.9057 14.0766 21.929 14.0836 21.9521C14.0906 21.9752 14.0981 21.9981 14.1063 22.0209C14.1144 22.0436 14.1231 22.0662 14.1323 22.0885C14.1415 22.1108 14.1513 22.1329 14.1616 22.1547C14.1719 22.1766 14.1828 22.1982 14.1942 22.2195C14.2055 22.2408 14.2174 22.2618 14.2298 22.2825C14.2422 22.3033 14.2551 22.3236 14.2685 22.3437C14.2819 22.3638 14.2958 22.3836 14.3102 22.403C14.3246 22.4224 14.3395 22.4414 14.3548 22.4601C14.3701 22.4788 14.3859 22.4971 14.4021 22.5149C14.4183 22.5329 14.4349 22.5505 14.452 22.5675C14.4691 22.5846 14.4865 22.6013 14.5045 22.6174C14.5223 22.6338 14.5406 22.6496 14.5593 22.6648C14.578 22.6801 14.597 22.695 14.6164 22.7095C14.6358 22.7239 14.6555 22.7378 14.6756 22.7512C14.6957 22.7646 14.7161 22.7775 14.7368 22.79C14.7575 22.8024 14.7785 22.8143 14.7998 22.8256C14.8211 22.837 14.8427 22.8478 14.8645 22.8583C14.8864 22.8686 14.9084 22.8783 14.9308 22.8875C14.9531 22.8968 14.9756 22.9055 14.9983 22.9136C15.0211 22.9218 15.044 22.9294 15.0671 22.9365C15.0902 22.9435 15.1135 22.9499 15.137 22.9558C15.1604 22.9617 15.1839 22.967 15.2076 22.9717C15.2313 22.9764 15.2551 22.9805 15.279 22.9841C15.3029 22.9876 15.3269 22.9906 15.3509 22.993C15.3749 22.9953 15.399 22.997 15.4231 22.9982C15.4473 22.9994 15.4714 23 15.4956 23L21.5236 23C21.5477 23 21.5718 22.9994 21.596 22.9982C21.6201 22.9972 21.6441 22.9954 21.6682 22.993C21.6922 22.9907 21.7162 22.9878 21.7401 22.9841C21.7639 22.9807 21.7877 22.9766 21.8114 22.9719C21.8351 22.9672 21.8586 22.9619 21.8821 22.956C21.9055 22.9503 21.9288 22.9439 21.9519 22.9367C21.975 22.9298 21.9979 22.9223 22.0206 22.9143C22.0434 22.9061 22.0659 22.8974 22.0882 22.8882C22.1105 22.879 22.1326 22.8693 22.1544 22.859C22.1763 22.8487 22.1978 22.8378 22.2191 22.8263C22.2404 22.815 22.2614 22.8031 22.2822 22.7907C22.3029 22.7783 22.3233 22.7655 22.3434 22.7521C22.3635 22.7387 22.3832 22.7248 22.4026 22.7104C22.422 22.6961 22.441 22.6813 22.4597 22.666C22.4784 22.6507 22.4967 22.6349 22.5146 22.6186C22.5325 22.6024 22.55 22.5858 22.5671 22.5689C22.5842 22.5518 22.6008 22.5343 22.6171 22.5163C22.6333 22.4985 22.6491 22.4802 22.6644 22.4616C22.6797 22.443 22.6946 22.424 22.709 22.4046C22.7234 22.3852 22.7373 22.3655 22.7507 22.3454C22.7642 22.3253 22.7771 22.305 22.7895 22.2843C22.8019 22.2636 22.8139 22.2426 22.8253 22.2213C22.8366 22.2 22.8475 22.1785 22.8579 22.1566C22.8682 22.1348 22.878 22.1128 22.8873 22.0905C22.8965 22.0682 22.9052 22.0457 22.9134 22.0229C22.9215 22.0002 22.9291 21.9773 22.9362 21.9542C22.9432 21.9311 22.9496 21.9078 22.9555 21.8844C22.9614 21.861 22.9667 21.8375 22.9714 21.8138C22.9762 21.7901 22.9803 21.7664 22.9839 21.7425C22.9874 21.7186 22.9904 21.6947 22.9928 21.6706C22.9952 21.6466 22.997 21.6225 22.9982 21.5984C22.9994 21.5743 23 21.5502 23 21.526L23 15.4968C23 15.4727 22.9994 15.4485 22.9982 15.4244C22.9971 15.4003 22.9953 15.3762 22.9929 15.3522C22.9905 15.3281 22.9876 15.3042 22.9841 15.2803C22.9805 15.2564 22.9764 15.2326 22.9716 15.2089C22.9669 15.1853 22.9616 15.1617 22.9558 15.1383C22.9499 15.1149 22.9434 15.0916 22.9364 15.0685C22.9294 15.0454 22.9218 15.0224 22.9137 14.9997C22.9055 14.977 22.8969 14.9545 22.8876 14.9321C22.8783 14.9099 22.8686 14.8878 22.8582 14.8659C22.8479 14.8441 22.837 14.8226 22.8256 14.8013C22.8142 14.78 22.8023 14.759 22.7899 14.7383C22.7775 14.7176 22.7645 14.6972 22.7511 14.6771C22.7377 14.6571 22.7238 14.6373 22.7094 14.6179C22.695 14.5986 22.6801 14.5795 22.6648 14.5609C22.6494 14.5422 22.6337 14.5239 22.6174 14.5061C22.6012 14.4882 22.5845 14.4707 22.5674 14.4536C22.5503 14.4366 22.5329 14.42 22.515 14.4037C22.497 14.3876 22.4787 14.3718 22.4601 14.3565C22.4414 14.3412 22.4223 14.3264 22.4029 14.312C22.3835 14.2976 22.3638 14.2838 22.3437 14.2704C22.3236 14.257 22.3032 14.2441 22.2824 14.2317C22.2617 14.2193 22.2407 14.2074 22.2194 14.196C22.1981 14.1847 22.1765 14.1739 22.1546 14.1635C22.1328 14.1532 22.1107 14.1435 22.0884 14.1343C22.0661 14.1251 22.0436 14.1164 22.0208 14.1083C21.9981 14.1002 21.9751 14.0927 21.952 14.0857C21.9289 14.0787 21.9056 14.0723 21.8822 14.0665C21.8587 14.0606 21.8352 14.0554 21.8115 14.0507C21.7878 14.046 21.764 14.0419 21.7401 14.0384C21.7162 14.0349 21.6923 14.032 21.6682 14.0297C21.6442 14.0273 21.6201 14.0256 21.596 14.0244C21.5718 14.0233 21.5477 14.0228 21.5236 14.0228L21.5236 14.0216Z"   fill="#0054FE" >
</path>
<path    stroke="rgba(51, 214, 192, 1)" stroke-width="1"  stroke-linecap="round"  d="M3.29175 18.646L7.16211 18.646">
</path>
<path    stroke="rgba(51, 214, 192, 1)" stroke-width="1"  stroke-linecap="round"  d="M16.8379 18.646L20.7083 18.646">
</path>
<path    stroke="rgba(51, 214, 192, 1)" stroke-width="1"  stroke-linecap="round"  d="M10.0647 5.5835L13.9351 5.5835">
</path>
</svg>
