<svg xmlns="http://www.w3.org/2000/svg" xmlns:xlink="http://www.w3.org/1999/xlink" viewBox="0 0 28 28" fill="none">
<path d="M18.2008 22.2106L25.4011 22.2106C25.4109 22.2105 25.4207 22.2103 25.4305 22.2098C25.4403 22.2092 25.4501 22.2084 25.4599 22.2074C25.4695 22.2064 25.4792 22.2051 25.489 22.2036C25.4987 22.2021 25.5083 22.2003 25.518 22.1983C25.5276 22.1962 25.5372 22.194 25.5467 22.1914C25.5562 22.1889 25.5656 22.1862 25.575 22.1832C25.5843 22.1801 25.5937 22.1769 25.603 22.1734C25.6122 22.1699 25.6214 22.1662 25.6304 22.1622C25.6395 22.1583 25.6485 22.1541 25.6574 22.1496C25.6661 22.1452 25.6749 22.1406 25.6836 22.1357C25.6923 22.1308 25.7007 22.1257 25.709 22.1204C25.7175 22.1151 25.7258 22.1095 25.734 22.1038C25.7421 22.0981 25.7502 22.0921 25.758 22.086C25.7659 22.0798 25.7736 22.0734 25.7812 22.0669C25.7887 22.0603 25.7962 22.0536 25.8034 22.0466C25.8107 22.0397 25.8178 22.0326 25.8248 22.0253C25.8316 22.0179 25.8384 22.0105 25.8451 22.0028C25.8516 21.9951 25.858 21.9873 25.8642 21.9793C25.8705 21.9714 25.8765 21.9632 25.8823 21.9549C25.8882 21.9466 25.8938 21.9382 25.8992 21.9296C25.9047 21.921 25.9099 21.9123 25.915 21.9034C25.92 21.8945 25.9249 21.8856 25.9295 21.8764C25.9341 21.8673 25.9384 21.8581 25.9426 21.8488C25.9469 21.8394 25.9509 21.83 25.9546 21.8205C25.9583 21.8109 25.9618 21.8013 25.9651 21.7916C25.9685 21.7818 25.9716 21.772 25.9744 21.7621C25.9773 21.7523 25.9799 21.7423 25.9822 21.7323C25.9846 21.7223 25.9868 21.7122 25.9887 21.7021C25.9906 21.6919 25.9923 21.6818 25.9938 21.6716C25.9951 21.6613 25.9963 21.6511 25.9974 21.6408C25.9983 21.6305 25.9989 21.6202 25.9994 21.6099C26 21.5996 26.0003 21.5893 26.0003 21.579C26.0003 21.5686 26 21.5583 25.9994 21.548C25.9989 21.5377 25.9983 21.5274 25.9974 21.5171C25.9963 21.5068 25.9951 21.4966 25.9938 21.4864C25.9923 21.4762 25.9906 21.466 25.9887 21.4559C25.9868 21.4457 25.9846 21.4356 25.9822 21.4256C25.9799 21.4156 25.9773 21.4057 25.9744 21.3958C25.9716 21.3859 25.9685 21.3761 25.9651 21.3664C25.9618 21.3566 25.9583 21.347 25.9546 21.3375C25.9509 21.3279 25.9469 21.3185 25.9426 21.3091C25.9384 21.2998 25.9341 21.2906 25.9295 21.2815C25.9249 21.2724 25.92 21.2634 25.915 21.2545C25.9099 21.2457 25.9047 21.2369 25.8992 21.2284C25.8938 21.2198 25.8882 21.2113 25.8823 21.203C25.8765 21.1947 25.8705 21.1866 25.8642 21.1786C25.858 21.1706 25.8516 21.1628 25.8451 21.1551C25.8384 21.1475 25.8316 21.14 25.8248 21.1327C25.8178 21.1254 25.8107 21.1182 25.8034 21.1113C25.7962 21.1044 25.7887 21.0976 25.7812 21.0911C25.7736 21.0845 25.7659 21.0781 25.758 21.072C25.7502 21.0658 25.7421 21.0599 25.734 21.0541C25.7258 21.0484 25.7175 21.0429 25.709 21.0375C25.7007 21.0322 25.6923 21.0271 25.6836 21.0222C25.6749 21.0174 25.6661 21.0127 25.6574 21.0083C25.6485 21.0039 25.6395 20.9997 25.6304 20.9957C25.6214 20.9917 25.6122 20.988 25.603 20.9845C25.5937 20.9811 25.5843 20.9778 25.575 20.9748C25.5656 20.9718 25.5562 20.969 25.5467 20.9665C25.5372 20.964 25.5276 20.9617 25.518 20.9597C25.5083 20.9576 25.4987 20.9559 25.489 20.9543C25.4792 20.9528 25.4695 20.9515 25.4599 20.9505C25.4501 20.9495 25.4403 20.9487 25.4305 20.9482C25.4207 20.9477 25.4109 20.9474 25.4011 20.9474L18.2008 20.9474C18.1909 20.9474 18.1811 20.9477 18.1713 20.9482C18.1615 20.9487 18.1518 20.9495 18.142 20.9505C18.1322 20.9515 18.1225 20.9528 18.1128 20.9543C18.1031 20.9559 18.0934 20.9576 18.0838 20.9597C18.0742 20.9617 18.0646 20.964 18.0551 20.9665C18.0456 20.969 18.0361 20.9718 18.0268 20.9748C18.0174 20.9778 18.0081 20.9811 17.9988 20.9845C17.9896 20.988 17.9804 20.9917 17.9714 20.9957C17.9623 20.9997 17.9534 21.0039 17.9445 21.0083C17.9356 21.0127 17.9269 21.0174 17.9182 21.0222C17.9096 21.0271 17.901 21.0322 17.8926 21.0375C17.8842 21.0429 17.876 21.0484 17.8678 21.0541C17.8596 21.0599 17.8516 21.0658 17.8438 21.072C17.8359 21.0781 17.8281 21.0845 17.8206 21.0911C17.813 21.0976 17.8056 21.1044 17.7983 21.1113C17.791 21.1182 17.7839 21.1254 17.777 21.1327C17.7701 21.14 17.7633 21.1475 17.7567 21.1551C17.7501 21.1628 17.7437 21.1706 17.7375 21.1786C17.7313 21.1866 17.7253 21.1947 17.7194 21.203C17.7136 21.2113 17.7079 21.2198 17.7025 21.2284C17.697 21.2369 17.6918 21.2457 17.6868 21.2545C17.6817 21.2634 17.6769 21.2724 17.6723 21.2815C17.6677 21.2906 17.6633 21.2998 17.6591 21.3091C17.6549 21.3185 17.6509 21.3279 17.6471 21.3375C17.6434 21.347 17.6399 21.3566 17.6366 21.3664C17.6333 21.3761 17.6302 21.3859 17.6273 21.3958C17.6245 21.4057 17.6219 21.4156 17.6195 21.4256C17.6171 21.4356 17.615 21.4457 17.6131 21.4559C17.6112 21.466 17.6095 21.4762 17.608 21.4864C17.6066 21.4966 17.6054 21.5068 17.6044 21.5171C17.6035 21.5274 17.6028 21.5377 17.6023 21.548C17.6018 21.5583 17.6016 21.5686 17.6016 21.579C17.6016 21.5893 17.6018 21.5996 17.6023 21.6099C17.6028 21.6202 17.6035 21.6305 17.6044 21.6408C17.6054 21.6511 17.6066 21.6613 17.608 21.6716C17.6095 21.6818 17.6112 21.6919 17.6131 21.7021C17.615 21.7122 17.6171 21.7223 17.6195 21.7323C17.6219 21.7423 17.6245 21.7523 17.6273 21.7621C17.6302 21.772 17.6333 21.7818 17.6366 21.7916C17.6399 21.8013 17.6434 21.8109 17.6471 21.8205C17.6509 21.83 17.6549 21.8394 17.6591 21.8488C17.6633 21.8581 17.6677 21.8673 17.6723 21.8764C17.6769 21.8856 17.6817 21.8945 17.6868 21.9034C17.6918 21.9123 17.697 21.921 17.7025 21.9296C17.7079 21.9382 17.7136 21.9466 17.7194 21.9549C17.7253 21.9632 17.7313 21.9714 17.7375 21.9793C17.7437 21.9873 17.7501 21.9951 17.7567 22.0028C17.7633 22.0105 17.7701 22.0179 17.777 22.0253C17.7839 22.0326 17.791 22.0397 17.7983 22.0466C17.8056 22.0536 17.813 22.0603 17.8206 22.0669C17.8281 22.0734 17.8359 22.0798 17.8438 22.086C17.8516 22.0921 17.8596 22.0981 17.8678 22.1038C17.876 22.1095 17.8842 22.1151 17.8926 22.1204C17.901 22.1257 17.9096 22.1308 17.9182 22.1357C17.9269 22.1406 17.9356 22.1452 17.9445 22.1496C17.9534 22.1541 17.9623 22.1583 17.9714 22.1622C17.9804 22.1662 17.9896 22.1699 17.9988 22.1734C18.0081 22.1769 18.0174 22.1801 18.0268 22.1832C18.0361 22.1862 18.0456 22.1889 18.0551 22.1914C18.0646 22.194 18.0742 22.1962 18.0838 22.1983C18.0934 22.2003 18.1031 22.2021 18.1128 22.2036C18.1225 22.2051 18.1322 22.2064 18.142 22.2074C18.1518 22.2084 18.1615 22.2092 18.1713 22.2098C18.1811 22.2103 18.1909 22.2105 18.2008 22.2106Z"   fill="#FFFFFF" >
</path>
<path d="M21.2007 17.7895L21.2007 25.3685C21.2007 25.3788 21.2009 25.3891 21.2014 25.3995C21.2019 25.4098 21.2026 25.4201 21.2036 25.4304C21.2045 25.4406 21.2057 25.4509 21.2072 25.4612C21.2086 25.4714 21.2103 25.4815 21.2122 25.4917C21.2141 25.5018 21.2163 25.5119 21.2187 25.5219C21.221 25.5319 21.2237 25.5419 21.2265 25.5519C21.2294 25.5618 21.2324 25.5715 21.2358 25.5812C21.2391 25.5909 21.2426 25.6005 21.2464 25.6101C21.2501 25.6197 21.2541 25.6292 21.2583 25.6384C21.2625 25.6478 21.2669 25.6571 21.2715 25.6663C21.2762 25.6754 21.281 25.6843 21.2861 25.6933C21.2911 25.702 21.2963 25.7107 21.3018 25.7193C21.3073 25.7279 21.3129 25.7364 21.3188 25.7448C21.3246 25.7531 21.3307 25.7612 21.3369 25.7692C21.3431 25.7772 21.3495 25.785 21.3561 25.7926C21.3627 25.8003 21.3695 25.8078 21.3764 25.8151C21.3834 25.8223 21.3905 25.8294 21.3977 25.8365C21.405 25.8433 21.4125 25.8501 21.4201 25.8566C21.4276 25.8632 21.4354 25.8696 21.4433 25.8758C21.4512 25.8819 21.4592 25.8879 21.4673 25.8936C21.4755 25.8994 21.4838 25.905 21.4922 25.9103C21.5007 25.9156 21.5092 25.9207 21.5178 25.9255C21.5265 25.9304 21.5353 25.935 21.5442 25.9393C21.553 25.9439 21.562 25.9481 21.5711 25.952C21.5802 25.9559 21.5893 25.9596 21.5986 25.963C21.6078 25.9666 21.6171 25.9699 21.6265 25.9729C21.6359 25.9758 21.6454 25.9786 21.6549 25.9811C21.6644 25.9836 21.674 25.9858 21.6836 25.9879C21.6933 25.9899 21.7029 25.9917 21.7127 25.9933C21.7224 25.9948 21.7321 25.9961 21.7419 25.997C21.7517 25.9981 21.7614 25.9989 21.7713 25.9993C21.7811 25.9998 21.7909 26 21.8007 26C21.8105 26 21.8203 25.9998 21.8301 25.9993C21.8399 25.9989 21.8497 25.9981 21.8595 25.997C21.8693 25.9961 21.879 25.9948 21.8887 25.9933C21.8984 25.9917 21.9081 25.9899 21.9178 25.9879C21.9274 25.9858 21.937 25.9836 21.9465 25.9811C21.956 25.9786 21.9655 25.9758 21.9749 25.9729C21.9843 25.9699 21.9936 25.9666 22.0028 25.963C22.0121 25.9596 22.0212 25.9559 22.0303 25.952C22.0394 25.9481 22.0484 25.9439 22.0573 25.9393C22.0661 25.935 22.0749 25.9304 22.0835 25.9255C22.0922 25.9207 22.1007 25.9156 22.1092 25.9103C22.1176 25.905 22.1259 25.8994 22.134 25.8936C22.1422 25.8879 22.1502 25.8819 22.1581 25.8758C22.166 25.8696 22.1738 25.8632 22.1813 25.8566C22.1889 25.8501 22.1964 25.8433 22.2037 25.8365C22.2109 25.8294 22.218 25.8223 22.225 25.8151C22.2319 25.8078 22.2387 25.8003 22.2453 25.7926C22.2519 25.785 22.2583 25.7772 22.2645 25.7692C22.2708 25.7612 22.2768 25.7531 22.2826 25.7448C22.2885 25.7364 22.2942 25.7279 22.2996 25.7193C22.305 25.7107 22.3103 25.702 22.3154 25.6933C22.3204 25.6843 22.3253 25.6754 22.3299 25.6663C22.3345 25.6571 22.3389 25.6478 22.3431 25.6384C22.3473 25.6292 22.3513 25.6197 22.355 25.6101C22.3588 25.6005 22.3623 25.5909 22.3656 25.5812C22.369 25.5715 22.372 25.5618 22.3749 25.5519C22.3777 25.5419 22.3804 25.5319 22.3827 25.5219C22.3851 25.5119 22.3873 25.5018 22.3892 25.4917C22.3911 25.4815 22.3928 25.4714 22.3942 25.4612C22.3957 25.4509 22.3969 25.4406 22.3978 25.4304C22.3988 25.4201 22.3995 25.4098 22.4 25.3995C22.4005 25.3891 22.4007 25.3788 22.4007 25.3685L22.4007 17.7895C22.4007 17.7792 22.4005 17.7689 22.4 17.7585C22.3995 17.7482 22.3988 17.7379 22.3978 17.7276C22.3969 17.7173 22.3957 17.7071 22.3942 17.6969C22.3928 17.6866 22.3911 17.6765 22.3892 17.6663C22.3873 17.6562 22.3851 17.6461 22.3827 17.6361C22.3804 17.626 22.3777 17.6161 22.3749 17.6062C22.372 17.5963 22.369 17.5865 22.3656 17.5768C22.3623 17.567 22.3588 17.5574 22.355 17.5478C22.3513 17.5383 22.3473 17.5288 22.3431 17.5195C22.3389 17.5102 22.3345 17.5009 22.3299 17.4918C22.3253 17.4827 22.3204 17.4737 22.3154 17.4648C22.3103 17.456 22.305 17.4472 22.2996 17.4386C22.2941 17.4301 22.2885 17.4216 22.2826 17.4133C22.2768 17.405 22.2708 17.3969 22.2645 17.3889C22.2583 17.3809 22.2519 17.3731 22.2453 17.3654C22.2387 17.3577 22.2319 17.3502 22.225 17.3429C22.218 17.3356 22.2109 17.3285 22.2037 17.3216C22.1964 17.3146 22.1889 17.3079 22.1813 17.3013C22.1738 17.2948 22.166 17.2884 22.1581 17.2822C22.1502 17.2761 22.1422 17.2701 22.134 17.2644C22.1259 17.2587 22.1176 17.2531 22.1092 17.2478C22.1007 17.2425 22.0922 17.2374 22.0835 17.2325C22.0749 17.2277 22.0661 17.223 22.0572 17.2186C22.0484 17.2142 22.0394 17.21 22.0303 17.206C22.0212 17.2021 22.0121 17.1984 22.0028 17.1949C21.9936 17.1914 21.9843 17.1881 21.9749 17.1851C21.9655 17.1821 21.956 17.1794 21.9465 17.1769C21.937 17.1744 21.9274 17.1721 21.9178 17.1701C21.9081 17.1681 21.8984 17.1663 21.8887 17.1648C21.879 17.1633 21.8693 17.162 21.8595 17.161C21.8497 17.16 21.8399 17.1592 21.8301 17.1587C21.8203 17.1582 21.8105 17.158 21.8007 17.158C21.7909 17.158 21.7811 17.1582 21.7713 17.1587C21.7614 17.1592 21.7517 17.16 21.7419 17.161C21.7321 17.162 21.7224 17.1633 21.7127 17.1648C21.7029 17.1663 21.6933 17.1681 21.6836 17.1701C21.674 17.1721 21.6644 17.1744 21.6549 17.1769C21.6454 17.1794 21.6359 17.1821 21.6265 17.1851C21.6171 17.1881 21.6078 17.1914 21.5986 17.1949C21.5893 17.1984 21.5802 17.2021 21.5711 17.206C21.562 17.21 21.553 17.2142 21.5442 17.2186C21.5353 17.223 21.5265 17.2277 21.5178 17.2325C21.5092 17.2374 21.5007 17.2425 21.4922 17.2478C21.4838 17.2531 21.4755 17.2587 21.4673 17.2644C21.4592 17.2701 21.4512 17.2761 21.4433 17.2822C21.4354 17.2884 21.4276 17.2948 21.4201 17.3013C21.4125 17.3079 21.405 17.3146 21.3977 17.3216C21.3905 17.3285 21.3834 17.3356 21.3764 17.3429C21.3695 17.3502 21.3627 17.3577 21.3561 17.3654C21.3495 17.3731 21.3431 17.3809 21.3369 17.3889C21.3307 17.3969 21.3246 17.405 21.3188 17.4133C21.3129 17.4216 21.3073 17.4301 21.3018 17.4386C21.2963 17.4472 21.2911 17.456 21.2861 17.4648C21.281 17.4737 21.2762 17.4827 21.2715 17.4918C21.2669 17.5009 21.2625 17.5102 21.2583 17.5195C21.2541 17.5288 21.2501 17.5383 21.2464 17.5478C21.2426 17.5574 21.2391 17.567 21.2358 17.5768C21.2324 17.5865 21.2294 17.5963 21.2265 17.6062C21.2237 17.6161 21.221 17.6261 21.2187 17.6361C21.2163 17.6461 21.2141 17.6562 21.2122 17.6663C21.2103 17.6765 21.2086 17.6866 21.2072 17.6969C21.2057 17.7071 21.2045 17.7173 21.2036 17.7276C21.2026 17.7379 21.2019 17.7482 21.2014 17.7585C21.2009 17.7689 21.2007 17.7792 21.2007 17.7895Z"   fill="#FFFFFF" >
</path>
<path d="M16.6888 14.4446C13.5338 14.4446 10.9766 11.6581 10.9766 8.2223C10.9766 4.78653 13.5338 2 16.6888 2C19.8437 2 22.401 4.78526 22.401 8.2223C22.401 11.6581 19.8437 14.4446 16.6888 14.4446ZM16.6888 12.9768C19.0997 12.9768 21.0533 10.8484 21.0533 8.2223C21.0533 5.5962 19.0997 3.46779 16.6888 3.46779C14.2779 3.46779 12.3242 5.5962 12.3242 8.2223C12.3242 10.8484 14.2779 12.9768 16.6888 12.9768Z"   fill="#FFFFFF" >
</path>
<path d="M13.3537 4.7714C13.2986 4.74408 13.2431 4.71804 13.187 4.69329C13.1308 4.66854 13.0742 4.64511 13.0171 4.623C12.96 4.60089 12.9024 4.58011 12.8444 4.56068C12.7865 4.54125 12.7281 4.52319 12.6693 4.50649C12.6106 4.48977 12.5515 4.47443 12.4921 4.46048C12.4327 4.44653 12.3731 4.43396 12.3132 4.42277C12.2533 4.4116 12.1932 4.40183 12.1328 4.39345C12.0725 4.38507 12.012 4.37811 11.9514 4.37254C11.8908 4.36698 11.8301 4.36283 11.7693 4.3601C11.7085 4.35736 11.6476 4.35605 11.5868 4.35616C11.5259 4.35626 11.4651 4.35777 11.4043 4.36071C11.3436 4.36365 11.2829 4.368 11.2222 4.37376C11.1616 4.37953 11.1012 4.3867 11.0409 4.39528C10.9806 4.40386 10.9205 4.41383 10.8606 4.42521C10.8007 4.4366 10.7411 4.44937 10.6818 4.46353C10.6224 4.47769 10.5634 4.49322 10.5047 4.51012C10.446 4.52703 10.3877 4.54529 10.3298 4.56492C10.2718 4.58454 10.2144 4.6055 10.1573 4.6278C10.1003 4.6501 10.0437 4.67372 9.98768 4.69865C9.93162 4.72359 9.87613 4.74982 9.82117 4.77733C9.76622 4.80486 9.71187 4.83365 9.65814 4.8637C9.60439 4.89375 9.55133 4.92504 9.49891 4.95757C9.44648 4.9901 9.39475 5.02383 9.34376 5.05875C9.29277 5.09368 9.24251 5.12979 9.19304 5.16708C9.14354 5.20436 9.09487 5.24276 9.04699 5.2823C8.99912 5.32184 8.95212 5.36248 8.90596 5.40422C8.85978 5.44596 8.81453 5.48873 8.77018 5.53259C8.7258 5.57644 8.68238 5.62127 8.63992 5.66714C8.59743 5.71301 8.55593 5.75986 8.51545 5.80765C8.47492 5.85544 8.43544 5.90416 8.39699 5.9538C8.35851 6.00344 8.32113 6.05395 8.2848 6.10533C8.24846 6.1567 8.21322 6.2089 8.17908 6.26194C8.1451 6.31483 8.11226 6.36853 8.08055 6.42297C8.04883 6.47742 8.01829 6.53259 7.98893 6.58849C7.95955 6.64439 7.93137 6.70092 7.9044 6.75813C7.87742 6.81534 7.85166 6.87316 7.82714 6.93159C7.8026 6.99 7.77932 7.04897 7.75729 7.10847C7.73526 7.16798 7.7145 7.22798 7.69501 7.28847C7.6755 7.34897 7.6573 7.40986 7.64039 7.47119C7.62348 7.53253 7.60787 7.59424 7.59356 7.6563C7.57927 7.71839 7.56629 7.78075 7.55464 7.84345C7.54297 7.90612 7.53265 7.96903 7.52367 8.03219C7.51467 8.09536 7.50702 8.15871 7.50071 8.22222C7.49439 8.28576 7.48942 8.34939 7.48582 8.41315C7.48219 8.47692 7.47993 8.54071 7.47902 8.60458C7.4781 8.66845 7.47854 8.73229 7.48034 8.79614C7.48212 8.85998 7.48526 8.92375 7.48976 8.98743C7.49424 9.05114 7.50007 9.1147 7.50726 9.17812C7.51444 9.24154 7.52296 9.30475 7.53282 9.36778C7.54268 9.4308 7.55387 9.49354 7.5664 9.55605C7.57891 9.61856 7.59274 9.68071 7.60788 9.74257C7.62303 9.80442 7.63949 9.86587 7.65725 9.92695C7.675 9.98803 7.69404 10.0487 7.71436 10.1088C7.73468 10.169 7.75626 10.2287 7.77911 10.2879C7.80195 10.347 7.82604 10.4056 7.85136 10.4637C7.8767 10.5217 7.90325 10.5791 7.93101 10.6359C7.95877 10.6927 7.98771 10.7488 8.01785 10.8043C8.04798 10.8597 8.07928 10.9144 8.11175 10.9683C8.1442 11.0223 8.17777 11.0755 8.21248 11.1279C8.24719 11.1803 8.28298 11.2318 8.31988 11.2825C8.35675 11.3332 8.3947 11.3831 8.43371 11.432C8.4727 11.4809 8.51271 11.5289 8.55375 11.576C8.59476 11.623 8.63678 11.6691 8.67977 11.7142C8.72275 11.7593 8.76666 11.8033 8.81153 11.8463C10.3116 13.2889 12.3708 13.4442 13.9549 12.1053L15.0566 13.1626C14.993 13.2163 14.9283 13.2686 14.8625 13.3194C14.7967 13.3701 14.7299 13.4194 14.662 13.467C14.5942 13.5147 14.5254 13.5607 14.4556 13.6052C14.3858 13.6496 14.3151 13.6924 14.2435 13.7336C14.1719 13.7747 14.0995 13.8142 14.0262 13.852C13.953 13.8898 13.879 13.9258 13.8042 13.9602C13.7295 13.9945 13.654 14.0271 13.5779 14.0579C13.5017 14.0887 13.425 14.1178 13.3476 14.145C13.2703 14.1723 13.1924 14.1977 13.114 14.2213C13.0356 14.2449 12.9567 14.2667 12.8773 14.2867C12.798 14.3066 12.7183 14.3247 12.6382 14.3409C12.5581 14.3572 12.4777 14.3715 12.397 14.384C12.3163 14.3965 12.2353 14.4071 12.1542 14.4158C12.073 14.4245 11.9918 14.4313 11.9103 14.4363C11.8289 14.4412 11.7474 14.4442 11.6658 14.4454C11.5842 14.4465 11.5027 14.4457 11.4212 14.4431C11.3396 14.4404 11.2582 14.4358 11.1769 14.4294C11.0955 14.4229 11.0143 14.4146 10.9334 14.4043C10.8524 14.3941 10.7716 14.382 10.6912 14.368C10.6107 14.354 10.5305 14.3381 10.4507 14.3204C10.3709 14.3027 10.2915 14.2831 10.2125 14.2617C10.1335 14.2402 10.055 14.217 9.97702 14.1919C9.899 14.1668 9.82155 14.1399 9.74469 14.1112C9.6678 14.0825 9.59156 14.052 9.51597 14.0198C9.44035 13.9875 9.36547 13.9536 9.29132 13.9178C9.21713 13.8821 9.14376 13.8446 9.07117 13.8055C8.99856 13.7663 8.92682 13.7255 8.85595 13.683C8.78505 13.6405 8.71511 13.5964 8.64609 13.5506C8.57706 13.5049 8.50904 13.4575 8.44201 13.4086C8.37497 13.3597 8.30899 13.3093 8.24408 13.2572C8.17916 13.2052 8.11537 13.1518 8.0527 13.0968C7.99004 13.0418 7.92856 12.9854 7.86826 12.9276C7.80813 12.87 7.74924 12.8109 7.6916 12.7505C7.63396 12.6901 7.57763 12.6284 7.5226 12.5653C7.46757 12.5023 7.41391 12.4379 7.36161 12.3724C7.30932 12.3068 7.25843 12.24 7.20895 12.1721C7.15949 12.1041 7.11149 12.035 7.06494 11.9648C7.0184 11.8946 6.97337 11.8233 6.92984 11.751C6.88632 11.6786 6.84435 11.6053 6.80393 11.531C6.76351 11.4567 6.72468 11.3815 6.68745 11.3054C6.65022 11.2293 6.61462 11.1523 6.58066 11.0745C6.54668 10.9967 6.51437 10.9182 6.48374 10.8389C6.45308 10.7595 6.42413 10.6795 6.39687 10.5989C6.36962 10.5182 6.34409 10.4369 6.32028 10.3551C6.29647 10.2732 6.2744 10.1908 6.25408 10.1079C6.23376 10.025 6.2152 9.94167 6.19841 9.85788C6.18162 9.77411 6.16662 9.68999 6.15339 9.6055C6.14016 9.52101 6.12873 9.43626 6.1191 9.35125C6.10947 9.26624 6.10164 9.18105 6.09561 9.09567C6.08958 9.01028 6.08537 8.92478 6.08296 8.83921C6.08056 8.75364 6.07996 8.66805 6.08118 8.58243C6.0824 8.49682 6.08543 8.41129 6.09029 8.32582C6.09513 8.24034 6.10178 8.15503 6.11024 8.06988C6.1187 7.98473 6.12896 7.89982 6.14101 7.81514C6.15306 7.73046 6.16691 7.64613 6.18254 7.56211C6.19817 7.47808 6.21557 7.39446 6.23475 7.31125C6.25392 7.22805 6.27484 7.14534 6.29752 7.0631C6.3202 6.98088 6.34461 6.89922 6.37073 6.81815C6.39687 6.73708 6.42471 6.65665 6.45426 6.57687C6.48379 6.49711 6.51501 6.41805 6.54791 6.33975C6.5808 6.26144 6.61534 6.18396 6.65151 6.10727C6.68769 6.03058 6.72547 5.95479 6.76485 5.87986C6.80423 5.80495 6.84519 5.73101 6.88772 5.65802C6.93023 5.58501 6.97427 5.51306 7.01985 5.44214C7.06561 5.3711 7.11284 5.30114 7.16155 5.2323C7.21025 5.16346 7.26039 5.09579 7.31196 5.02929C7.36351 4.96278 7.41644 4.89751 7.47074 4.83347C7.52504 4.76943 7.58066 4.70669 7.63758 4.64524C7.69453 4.58379 7.75273 4.52369 7.8122 4.46496C7.87166 4.40622 7.93234 4.3489 7.99423 4.29299C8.0561 4.23708 8.11912 4.18264 8.18329 4.12967C8.24746 4.0767 8.31271 4.02524 8.37904 3.97531C8.44538 3.92538 8.51273 3.87702 8.58109 3.83022C8.64945 3.78343 8.71876 3.73825 8.78904 3.69469C8.85931 3.65113 8.93045 3.60922 9.00248 3.56897C9.07449 3.52872 9.14735 3.49017 9.221 3.45332C9.29464 3.41646 9.36903 3.38134 9.44416 3.34796C9.51929 3.31457 9.59506 3.28295 9.67152 3.25309C9.74798 3.22323 9.82503 3.19517 9.90267 3.16891C9.98029 3.14264 10.0584 3.1182 10.1371 3.09557C10.2158 3.07295 10.2949 3.05217 10.3744 3.03323C10.454 3.01429 10.5339 2.99722 10.6141 2.982C10.6944 2.96679 10.7749 2.95345 10.8557 2.94198C10.9365 2.93052 11.0176 2.92095 11.0988 2.91326C11.18 2.90558 11.2613 2.89978 11.3428 2.89589C11.4243 2.89199 11.5058 2.88999 11.5874 2.8899C11.6689 2.8898 11.7504 2.8916 11.8319 2.8953C11.9133 2.899 11.9947 2.90459 12.0759 2.91208C12.1572 2.91958 12.2382 2.92895 12.319 2.94022C12.3999 2.95149 12.4805 2.96463 12.5608 2.97965C12.641 2.99468 12.721 3.01156 12.8006 3.03031C12.8801 3.04905 12.9593 3.06965 13.038 3.09208C13.1167 3.11451 13.1949 3.13877 13.2726 3.16485C13.3503 3.19093 13.4274 3.2188 13.5039 3.24847C13.5804 3.27815 13.6563 3.30959 13.7315 3.34279C13.8067 3.376 13.8812 3.41094 13.9549 3.44762L13.3549 4.77267L13.3537 4.7714Z"   fill="#FFFFFF" >
</path>
<path d="M22.3722 15.1885C22.3727 15.1966 22.3732 15.2048 22.3735 15.2129C22.3738 15.2211 22.374 15.2292 22.374 15.2374C22.3741 15.2455 22.374 15.2537 22.3738 15.2618C22.3736 15.27 22.3733 15.2781 22.3728 15.2862C22.3724 15.2944 22.3718 15.3025 22.3711 15.3106C22.3704 15.3187 22.3695 15.3268 22.3685 15.3349C22.3676 15.343 22.3665 15.3511 22.3653 15.3591C22.364 15.3672 22.3627 15.3752 22.3612 15.3832C22.3597 15.3912 22.3581 15.3992 22.3564 15.4071C22.3547 15.4151 22.3528 15.423 22.3508 15.4309C22.3489 15.4388 22.3467 15.4466 22.3445 15.4544C22.3423 15.4622 22.34 15.47 22.3375 15.4777C22.335 15.4855 22.3324 15.4931 22.3297 15.5008C22.327 15.5084 22.3242 15.516 22.3212 15.5235C22.3182 15.5311 22.3152 15.5385 22.312 15.546C22.3088 15.5534 22.3055 15.5608 22.3021 15.5681C22.2987 15.5754 22.2951 15.5827 22.2915 15.5898C22.2878 15.597 22.284 15.6042 22.2802 15.6112C22.2763 15.6183 22.2723 15.6253 22.2682 15.6322C22.2641 15.6391 22.2599 15.6459 22.2556 15.6527C22.2513 15.6595 22.2469 15.6662 22.2424 15.6728C22.2378 15.6794 22.2332 15.6859 22.2285 15.6924C22.2237 15.6989 22.2189 15.7053 22.214 15.7115C22.2091 15.7178 22.204 15.724 22.1989 15.7301C22.1938 15.7362 22.1886 15.7423 22.1832 15.7482C22.1779 15.7541 22.1725 15.7599 22.167 15.7657C22.1615 15.7714 22.1559 15.7771 22.1502 15.7826C22.1446 15.7882 22.1388 15.7936 22.133 15.799C22.1271 15.8043 22.1212 15.8095 22.1152 15.8147C22.1091 15.8198 22.1031 15.8248 22.0969 15.8298C22.0907 15.8347 22.0845 15.8395 22.0781 15.8442C22.0718 15.8489 22.0654 15.8535 22.059 15.858C22.0525 15.8624 22.046 15.8667 22.0394 15.871C22.0329 15.8752 22.0262 15.8793 22.0195 15.8832C22.0128 15.8872 22.006 15.8911 21.9992 15.8948C21.9923 15.8985 21.9855 15.9022 21.9785 15.9057C21.9716 15.9091 21.9645 15.9125 21.9575 15.9158C21.9504 15.919 21.9433 15.9221 21.9362 15.9251C21.929 15.9281 21.9218 15.931 21.9146 15.9337C21.9073 15.9364 21.9 15.939 21.8927 15.9415C21.8854 15.944 21.878 15.9463 21.8706 15.9486C21.8632 15.9508 21.8558 15.9528 21.8483 15.9548C21.8408 15.9568 21.8333 15.9586 21.8258 15.9603C21.8182 15.962 21.8107 15.9635 21.8031 15.9649C21.7955 15.9663 21.7879 15.9676 21.7803 15.9688C21.7727 15.9699 21.765 15.9709 21.7574 15.9718C21.7497 15.9727 21.7421 15.9734 21.7344 15.974C21.7267 15.9746 21.719 15.9751 21.7113 15.9754C21.7036 15.9758 21.6959 15.976 21.6882 15.976C21.6805 15.9761 21.6728 15.976 21.6651 15.9758C21.6574 15.9756 21.6497 15.9752 21.6421 15.9747C21.6344 15.9742 21.6267 15.9736 21.619 15.9729C21.6114 15.9721 21.6037 15.9712 21.5961 15.9702C21.5884 15.9691 21.5808 15.968 21.5732 15.9667C21.5656 15.9654 21.558 15.9639 21.5505 15.9624C21.5429 15.9608 21.5354 15.9591 21.5279 15.9573C21.5204 15.9554 21.5129 15.9534 21.5055 15.9513C21.4981 15.9492 21.4907 15.947 21.4833 15.9446C21.4759 15.9423 21.4686 15.9398 21.4613 15.9371C21.454 15.9345 21.4468 15.9318 21.4396 15.9289C21.4324 15.926 21.4253 15.923 21.4181 15.9199C21.411 15.9167 21.404 15.9134 21.397 15.9101C21.39 15.9067 21.3831 15.9032 21.3762 15.8995C21.3693 15.8959 21.3625 15.8922 21.3557 15.8883C21.2644 15.8402 21.1725 15.7937 21.0798 15.7487C20.9871 15.7037 20.8938 15.6602 20.7998 15.6184C20.7058 15.5765 20.6111 15.5363 20.5159 15.4976C20.4207 15.4589 20.3249 15.4219 20.2285 15.3865C20.1322 15.351 20.0353 15.3172 19.9379 15.285C19.8405 15.2529 19.7427 15.2224 19.6444 15.1935C19.5461 15.1646 19.4474 15.1374 19.3482 15.1119C19.2491 15.0863 19.1496 15.0624 19.0497 15.0402C18.9498 15.018 18.8497 14.9975 18.7492 14.9787C18.6487 14.9599 18.548 14.9428 18.4469 14.9274C18.3459 14.9119 18.2447 14.8982 18.1433 14.8862C18.0419 14.8742 17.9403 14.8639 17.8385 14.8553C17.7368 14.8467 17.6349 14.8399 17.533 14.8347C17.431 14.8295 17.329 14.8261 17.227 14.8244C17.125 14.8227 17.0229 14.8227 16.9208 14.8244C16.8188 14.8261 16.7168 14.8296 16.6148 14.8347C16.5129 14.8399 16.411 14.8467 16.3093 14.8553C16.2076 14.8639 16.106 14.8742 16.0046 14.8862C15.9031 14.8982 15.8019 14.912 15.7009 14.9274C15.5999 14.9428 15.4991 14.9599 15.3986 14.9787C15.2981 14.9976 15.198 15.0181 15.0981 15.0403C14.9982 15.0625 14.8988 15.0863 14.7996 15.1119C14.7005 15.1374 14.6017 15.1646 14.5034 15.1935C14.4051 15.2224 14.3073 15.2529 14.2099 15.2851C14.1125 15.3172 14.0156 15.351 13.9193 15.3865C13.8229 15.4219 13.7271 15.459 13.6319 15.4976C13.5367 15.5363 13.4421 15.5766 13.3481 15.6184C13.2541 15.6603 13.1607 15.7037 13.068 15.7487C12.9754 15.7937 12.8834 15.8402 12.7921 15.8883C12.7008 15.9364 12.6103 15.986 12.5206 16.0372C12.4308 16.0883 12.3419 16.141 12.2537 16.1951C12.1655 16.2493 12.0782 16.3049 11.9918 16.362C11.9049 16.4195 11.8188 16.4785 11.7337 16.5389C11.6486 16.5993 11.5644 16.6611 11.4811 16.7243C11.3978 16.7875 11.3155 16.8521 11.2341 16.918C11.1528 16.984 11.0724 17.0512 10.9931 17.1198C10.9138 17.1884 10.8355 17.2584 10.7583 17.3296C10.6811 17.4008 10.6049 17.4733 10.5299 17.547C10.4548 17.6208 10.3809 17.6958 10.3081 17.772C10.2353 17.8482 10.1637 17.9256 10.0932 18.0042C10.0227 18.0828 9.95342 18.1625 9.88533 18.2434C9.81726 18.3243 9.75039 18.4063 9.68477 18.4894C9.61915 18.5725 9.5548 18.6567 9.4917 18.742C9.42862 18.8272 9.36681 18.9135 9.30631 19.0009C9.24581 19.0882 9.18663 19.1765 9.12878 19.2658C9.07093 19.355 9.01444 19.4452 8.95929 19.5364C8.90413 19.6276 8.85038 19.7196 8.79799 19.8126C8.74562 19.9055 8.69465 19.9993 8.64508 20.094C8.59552 20.1886 8.54738 20.2841 8.50069 20.3803C8.45399 20.4766 8.40875 20.5735 8.36495 20.6713C8.32115 20.7691 8.27884 20.8675 8.23801 20.9667C8.19719 21.0658 8.15785 21.1656 8.12002 21.2661C8.08218 21.3666 8.04585 21.4677 8.01104 21.5693C7.97625 21.671 7.94298 21.7732 7.91125 21.876C7.87951 21.9788 7.84933 22.0821 7.82071 22.1859C7.79208 22.2896 7.76501 22.3939 7.73951 22.4986C7.714 22.6032 7.69007 22.7083 7.66772 22.8138C7.64536 22.9193 7.6246 23.0251 7.60544 23.1313C7.58626 23.2375 7.56868 23.3439 7.55271 23.4507C7.53674 23.5574 7.52237 23.6644 7.5096 23.7717C7.49684 23.8789 7.48568 23.9863 7.47614 24.0939C7.46661 24.2015 7.45869 24.3093 7.45238 24.4171C7.44607 24.525 7.44139 24.6329 7.43833 24.741C7.43526 24.849 7.43381 24.957 7.43399 25.0651C7.43399 25.4706 7.12557 25.799 6.74397 25.799C6.73262 25.799 6.72127 25.7987 6.70993 25.7981C6.6986 25.7974 6.68729 25.7965 6.67599 25.7952C6.6647 25.794 6.65344 25.7925 6.64221 25.7908C6.63099 25.7889 6.61982 25.7868 6.6087 25.7845C6.59757 25.7821 6.5865 25.7795 6.5755 25.7765C6.5645 25.7735 6.55358 25.7703 6.54273 25.7669C6.53188 25.7633 6.52111 25.7595 6.51044 25.7554C6.49977 25.7513 6.48919 25.747 6.47871 25.7425C6.46825 25.7378 6.45789 25.7329 6.44763 25.7277C6.43739 25.7226 6.42727 25.7172 6.41728 25.7116C6.40729 25.706 6.39743 25.7 6.38771 25.6938C6.378 25.6877 6.36843 25.6812 6.35901 25.6745C6.3496 25.6678 6.34034 25.661 6.33124 25.6539C6.32216 25.6467 6.31323 25.6393 6.30448 25.6317C6.29573 25.624 6.28717 25.6162 6.27878 25.6082C6.27039 25.6001 6.2622 25.5918 6.2542 25.5834C6.2462 25.5749 6.2384 25.5663 6.23082 25.5574C6.22322 25.5485 6.21583 25.5394 6.20866 25.5302C6.20149 25.5209 6.19455 25.5115 6.18782 25.5018C6.18108 25.4921 6.17458 25.4824 6.16832 25.4725C6.16204 25.4625 6.156 25.4524 6.15019 25.442C6.14439 25.4318 6.13883 25.4214 6.13351 25.4109C6.1282 25.4003 6.12313 25.3896 6.11831 25.3788C6.1135 25.368 6.10893 25.357 6.10461 25.346C6.10031 25.3349 6.09626 25.3238 6.09248 25.3125C6.08869 25.3012 6.08517 25.2899 6.08192 25.2784C6.07866 25.267 6.07567 25.2555 6.07295 25.2439C6.07023 25.2323 6.06778 25.2206 6.0656 25.2089C6.06342 25.1971 6.06152 25.1854 6.0599 25.1735C6.05827 25.1617 6.05692 25.1499 6.05585 25.138C6.05478 25.1261 6.05399 25.1141 6.05347 25.1022C6.05295 25.0903 6.05271 25.0783 6.05275 25.0664C6.05253 24.9428 6.05416 24.8192 6.05765 24.6957C6.06114 24.5722 6.06648 24.4488 6.07366 24.3254C6.08086 24.2021 6.08991 24.0789 6.10081 23.9559C6.1117 23.8328 6.12444 23.71 6.13901 23.5873C6.15359 23.4647 6.17001 23.3424 6.18827 23.2203C6.20651 23.0982 6.22659 22.9765 6.2485 22.8551C6.27041 22.7337 6.29414 22.6127 6.31968 22.492C6.34522 22.3714 6.37256 22.2512 6.40171 22.1315C6.43085 22.0118 6.46179 21.8927 6.49452 21.774C6.52725 21.6553 6.56175 21.5372 6.59802 21.4196C6.63429 21.3021 6.67233 21.1852 6.71211 21.0689C6.75189 20.9527 6.7934 20.8371 6.83665 20.7222C6.8799 20.6073 6.92487 20.4932 6.97156 20.3798C7.01823 20.2664 7.06659 20.1538 7.11665 20.0421C7.1667 19.9303 7.21843 19.8193 7.27182 19.7093C7.32522 19.5992 7.38024 19.4901 7.4369 19.3818C7.49357 19.2736 7.55184 19.1663 7.61172 19.06C7.6716 18.9537 7.73307 18.8485 7.79613 18.7442C7.85917 18.64 7.92376 18.5368 7.98989 18.4347C8.05604 18.3326 8.1237 18.2316 8.19287 18.1318C8.26205 18.0319 8.33271 17.9333 8.40485 17.8358C8.47697 17.7383 8.55056 17.642 8.62558 17.5469C8.70059 17.4519 8.77704 17.3581 8.85488 17.2656C8.93272 17.1731 9.01195 17.0819 9.09253 16.992C9.17311 16.9021 9.25501 16.8136 9.33824 16.7265C9.42149 16.6393 9.50602 16.5536 9.59181 16.4692C9.67762 16.3849 9.76469 16.302 9.85297 16.2206C9.94128 16.1391 10.0308 16.0592 10.1215 15.9807C10.2122 15.9022 10.304 15.8253 10.397 15.7499C10.49 15.6745 10.5842 15.6006 10.6794 15.5283C10.7746 15.4561 10.8709 15.3854 10.9683 15.3163C11.0656 15.2472 11.164 15.1798 11.2633 15.114C11.3622 15.0487 11.4621 14.9851 11.5629 14.9232C11.6637 14.8613 11.7654 14.8011 11.8681 14.7426C11.9707 14.6841 12.0742 14.6274 12.1786 14.5724C12.283 14.5174 12.3881 14.4641 12.4941 14.4127C12.6001 14.3612 12.7069 14.3116 12.8143 14.2637C12.9218 14.2159 13.03 14.1699 13.1389 14.1257C13.2479 14.0815 13.3574 14.0391 13.4676 13.9986C13.5778 13.9581 13.6885 13.9194 13.7999 13.8826C13.9113 13.8458 14.0232 13.811 14.1356 13.7779C14.248 13.7449 14.3609 13.7138 14.4743 13.6846C14.5876 13.6554 14.7014 13.6281 14.8157 13.6027C14.9299 13.5774 15.0444 13.5539 15.1593 13.5324C15.2742 13.5109 15.3895 13.4913 15.505 13.4737C15.6205 13.4561 15.7362 13.4404 15.8522 13.4267C15.9682 13.413 16.0844 13.4012 16.2007 13.3914C16.317 13.3816 16.4335 13.3737 16.5501 13.3678C16.6667 13.362 16.7833 13.358 16.9 13.3561C17.0167 13.3541 17.1334 13.3541 17.2501 13.3561C17.3668 13.3581 17.4835 13.362 17.6001 13.3679C17.7166 13.3739 17.8331 13.3817 17.9494 13.3915C18.0658 13.4014 18.1819 13.4132 18.2979 13.4269C18.4139 13.4407 18.5297 13.4564 18.6452 13.474C18.7607 13.4917 18.8759 13.5113 18.9908 13.5328C19.1057 13.5543 19.2202 13.5778 19.3345 13.6032C19.4487 13.6286 19.5624 13.6559 19.6758 13.6851C19.7892 13.7144 19.902 13.7455 20.0145 13.7785C20.1269 13.8116 20.2388 13.8465 20.3501 13.8833C20.4615 13.9201 20.5723 13.9587 20.6824 13.9993C20.7926 14.0398 20.9021 14.0822 21.0111 14.1264C21.12 14.1707 21.2281 14.2167 21.3356 14.2646C21.4431 14.3125 21.5499 14.3621 21.6558 14.4136C21.7618 14.4651 21.867 14.5183 21.9713 14.5733C22.1993 14.687 22.353 14.922 22.3722 15.1885Z"   fill="#FFFFFF" >
</path>
<path d="M12.9216 13.808C12.932 13.8106 12.9424 13.8136 12.9526 13.8168C12.9629 13.82 12.9731 13.8235 12.9832 13.8272C12.9933 13.831 13.0033 13.835 13.0133 13.8392C13.0232 13.8435 13.033 13.848 13.0427 13.8527C13.0525 13.8575 13.0621 13.8625 13.0716 13.8677C13.081 13.873 13.0904 13.8785 13.0996 13.8842C13.1089 13.8899 13.118 13.8959 13.1269 13.9021C13.1359 13.9083 13.1447 13.9147 13.1533 13.9214C13.162 13.9281 13.1705 13.9349 13.1788 13.942C13.1871 13.9491 13.1953 13.9564 13.2033 13.9639C13.2113 13.9714 13.2191 13.9791 13.2267 13.9871C13.2344 13.995 13.2418 14.0031 13.2491 14.0114C13.2564 14.0197 13.2634 14.0282 13.2703 14.0368C13.2772 14.0455 13.2838 14.0543 13.2903 14.0633C13.2967 14.0723 13.303 14.0815 13.309 14.0908C13.3151 14.1001 13.3209 14.1096 13.3265 14.1192C13.332 14.1289 13.3374 14.1386 13.3425 14.1485C13.3477 14.1584 13.3526 14.1685 13.3573 14.1786C13.3619 14.1888 13.3664 14.199 13.3706 14.2094C13.3748 14.2198 13.3787 14.2303 13.3824 14.2409C13.3861 14.2514 13.3896 14.2621 13.3928 14.2729C13.396 14.2836 13.399 14.2945 13.4017 14.3054C13.4044 14.3163 13.4068 14.3273 13.409 14.3383C13.4112 14.3494 13.4132 14.3605 13.4149 14.3716C13.4165 14.3827 13.418 14.3939 13.4192 14.4051C13.4203 14.4163 13.4212 14.4276 13.4218 14.4389C13.4225 14.4501 13.4229 14.4614 13.423 14.4727C13.4231 14.4839 13.423 14.4952 13.4226 14.5065C13.4222 14.5178 13.4215 14.529 13.4206 14.5402C13.4196 14.5515 13.4185 14.5627 13.417 14.5739C13.4156 14.5851 13.4139 14.5962 13.4119 14.6073C13.4099 14.6184 13.4077 14.6294 13.4052 14.6404C13.4025 14.6514 13.3995 14.6623 13.3963 14.6731C13.3931 14.6839 13.3896 14.6947 13.3859 14.7053C13.3821 14.716 13.3782 14.7265 13.374 14.737C13.3698 14.7474 13.3654 14.7578 13.3607 14.768C13.356 14.7782 13.3511 14.7883 13.346 14.7983C13.3409 14.8083 13.3355 14.8182 13.3299 14.8279C13.3243 14.8376 13.3186 14.8472 13.3125 14.8566C13.3065 14.866 13.3003 14.8753 13.2939 14.8844C13.2874 14.8935 13.2808 14.9024 13.274 14.9112C13.2671 14.92 13.2601 14.9286 13.2529 14.937C13.2456 14.9454 13.2382 14.9536 13.2306 14.9617C13.223 14.9697 13.2152 14.9776 13.2073 14.9852C13.1993 14.9929 13.1912 15.0003 13.1829 15.0076C13.1746 15.0148 13.1661 15.0218 13.1575 15.0287C13.1489 15.0355 13.1401 15.0421 13.1312 15.0484C13.1222 15.0548 13.1132 15.061 13.104 15.0669C13.0948 15.0728 13.0855 15.0785 13.076 15.0839C13.0665 15.0894 13.0569 15.0946 13.0473 15.0996C13.0376 15.1045 13.0278 15.1092 13.0179 15.1137C13.008 15.1182 12.9979 15.1224 12.9878 15.1264C12.9777 15.1303 12.9675 15.134 12.9573 15.1375C12.947 15.141 12.9367 15.1441 12.9262 15.1471C12.9158 15.15 12.9054 15.1527 12.8948 15.1551C12.8843 15.1575 12.8737 15.1596 12.8631 15.1615C12.8524 15.1634 12.8418 15.165 12.8311 15.1663C12.8203 15.1676 12.8096 15.1687 12.7989 15.1695C12.7881 15.1703 12.7773 15.1708 12.7665 15.171C12.7558 15.1713 12.745 15.1713 12.7342 15.171C12.7234 15.1707 12.7127 15.1701 12.7019 15.1693C12.6912 15.1685 12.6804 15.1674 12.6697 15.166C12.659 15.1646 12.6484 15.1629 12.6377 15.161C12.6271 15.1591 12.6165 15.1569 12.606 15.1545C12.5375 15.1374 12.4688 15.1213 12.3998 15.1063C12.3309 15.0912 12.2617 15.0771 12.1924 15.0641C12.1231 15.051 12.0536 15.039 11.984 15.0279C11.9144 15.0169 11.8446 15.0069 11.7747 14.9978C11.7048 14.9888 11.6348 14.9809 11.5647 14.9739C11.4946 14.9669 11.4244 14.9609 11.3542 14.956C11.2839 14.9511 11.2136 14.9472 11.1433 14.9443C11.0729 14.9414 11.0025 14.9396 10.9321 14.9387C10.8617 14.9379 10.7913 14.9381 10.7209 14.9393C10.6505 14.9405 10.5801 14.9428 10.5097 14.946C10.4394 14.9493 10.3691 14.9536 10.2989 14.9589C10.2286 14.9642 10.1585 14.9705 10.0884 14.9779C10.0183 14.9852 9.94839 14.9936 9.87854 15.003C9.80869 15.0124 9.73897 15.0228 9.66941 15.0342C9.59983 15.0456 9.53043 15.058 9.46118 15.0715C9.39193 15.0849 9.32286 15.0994 9.25399 15.1148C9.18512 15.1303 9.11647 15.1467 9.04802 15.1642C8.9796 15.1816 8.9114 15.2 8.84344 15.2195C8.77551 15.2389 8.70782 15.2593 8.64039 15.2807C8.57299 15.3021 8.50586 15.3245 8.43904 15.3478C8.37221 15.3712 8.3057 15.3955 8.23951 15.4208C8.17331 15.4461 8.10747 15.4723 8.04198 15.4995C7.97647 15.5267 7.91134 15.5549 7.84657 15.584C7.78182 15.6131 7.71745 15.6431 7.65348 15.6741C7.5895 15.7051 7.52596 15.737 7.46283 15.7698C7.3997 15.8027 7.337 15.8364 7.27477 15.871C7.21251 15.9057 7.15072 15.9412 7.08942 15.9777C7.02812 16.0141 6.96729 16.0515 6.90695 16.0897C6.84663 16.1279 6.7868 16.167 6.7275 16.207C6.66821 16.2469 6.60942 16.2877 6.5512 16.3294C6.49297 16.3711 6.43528 16.4136 6.37816 16.4569C6.32105 16.5003 6.26452 16.5444 6.20856 16.5894C6.15343 16.6336 6.0989 16.6786 6.04499 16.7244C5.99108 16.7702 5.9378 16.8168 5.88516 16.8642C5.83252 16.9117 5.78053 16.9599 5.72921 17.0089C5.67788 17.0578 5.62723 17.1076 5.57724 17.1581C5.52727 17.2086 5.478 17.2599 5.42941 17.3119C5.38085 17.3639 5.33298 17.4166 5.28584 17.4701C5.2387 17.5235 5.1923 17.5777 5.14663 17.6325C5.10096 17.6873 5.05605 17.7429 5.01189 17.7991C4.96774 17.8553 4.92437 17.9121 4.88175 17.9696C4.83915 18.0272 4.79734 18.0853 4.75632 18.1441C4.71528 18.2029 4.67507 18.2622 4.63566 18.3222C4.59627 18.3822 4.55768 18.4428 4.51992 18.5039C4.48218 18.5651 4.44526 18.6268 4.40919 18.689C4.37309 18.7513 4.33787 18.8141 4.30351 18.8774C4.26915 18.9408 4.23566 19.0046 4.20303 19.0689C4.17041 19.1333 4.13866 19.1981 4.1078 19.2634C4.07694 19.3287 4.04697 19.3944 4.0179 19.4606C3.98883 19.5268 3.96067 19.5934 3.93341 19.6605C3.90616 19.7275 3.87982 19.795 3.8544 19.8628C3.82898 19.9307 3.80449 19.9989 3.78093 20.0675C3.75737 20.1361 3.73474 20.205 3.71306 20.2743C3.69138 20.3435 3.67064 20.4131 3.65085 20.483C3.63106 20.5529 3.61223 20.6231 3.59435 20.6935C3.57647 20.764 3.55956 20.8347 3.5436 20.9057C3.52765 20.9766 3.51267 21.0478 3.49866 21.1193C3.48464 21.1907 3.47161 21.2623 3.45954 21.3341C3.44748 21.4059 3.4364 21.4779 3.4263 21.5501C3.4162 21.6222 3.40708 21.6945 3.39895 21.7669C3.39081 21.8394 3.38367 21.9119 3.37751 21.9845C3.37135 22.0572 3.36618 22.1299 3.36201 22.2027C3.35783 22.2755 3.35464 22.3483 3.35245 22.4212C3.35026 22.4941 3.34906 22.567 3.34885 22.64C3.34871 22.6514 3.34831 22.6629 3.34764 22.6744C3.34697 22.6858 3.34603 22.6973 3.34483 22.7087C3.34362 22.7201 3.34215 22.7315 3.34042 22.7428C3.33868 22.7541 3.33669 22.7654 3.33443 22.7766C3.33217 22.7879 3.32965 22.7991 3.32687 22.8102C3.32409 22.8213 3.32105 22.8323 3.31776 22.8432C3.31446 22.8542 3.31092 22.865 3.30712 22.8758C3.30332 22.8865 3.29927 22.8972 3.29497 22.9078C3.29068 22.9183 3.28614 22.9288 3.28136 22.9391C3.27657 22.9494 3.27155 22.9596 3.2663 22.9697C3.26104 22.9797 3.25555 22.9896 3.24983 22.9994C3.24411 23.0092 3.23817 23.0188 3.232 23.0283C3.22583 23.0377 3.21945 23.047 3.21285 23.0562C3.20625 23.0653 3.19944 23.0743 3.19242 23.0831C3.1854 23.0919 3.17818 23.1005 3.17076 23.1089C3.16334 23.1173 3.15573 23.1255 3.14792 23.1336C3.14012 23.1416 3.13214 23.1494 3.12397 23.157C3.1158 23.1646 3.10746 23.172 3.09895 23.1792C3.09044 23.1864 3.08177 23.1933 3.07293 23.2001C3.06409 23.2068 3.05511 23.2133 3.04597 23.2196C3.03683 23.2258 3.02755 23.2319 3.01813 23.2376C3.00871 23.2434 2.99916 23.249 2.98948 23.2543C2.9798 23.2596 2.97001 23.2646 2.9601 23.2694C2.95018 23.2742 2.94017 23.2787 2.93004 23.283C2.91992 23.2873 2.9097 23.2913 2.89939 23.295C2.88908 23.2988 2.87869 23.3023 2.86821 23.3055C2.85774 23.3087 2.8472 23.3116 2.83659 23.3143C2.82598 23.317 2.81531 23.3193 2.80459 23.3215C2.79387 23.3236 2.7831 23.3254 2.7723 23.327C2.76149 23.3285 2.75065 23.3298 2.73979 23.3308C2.72892 23.3318 2.71804 23.3325 2.70714 23.333C2.69624 23.3334 2.68533 23.3335 2.67443 23.3334C2.66352 23.3335 2.65261 23.3334 2.64171 23.333C2.63082 23.3325 2.61993 23.3318 2.60906 23.3308C2.5982 23.3298 2.58736 23.3285 2.57655 23.327C2.56575 23.3254 2.55498 23.3236 2.54426 23.3215C2.53354 23.3193 2.52287 23.317 2.51226 23.3143C2.50165 23.3116 2.49111 23.3087 2.48064 23.3055C2.47017 23.3023 2.45977 23.2988 2.44946 23.295C2.43915 23.2913 2.42893 23.2873 2.41881 23.283C2.40869 23.2787 2.39867 23.2742 2.38875 23.2694C2.37884 23.2646 2.36905 23.2596 2.35937 23.2543C2.34969 23.249 2.34014 23.2434 2.33072 23.2376C2.3213 23.2319 2.31202 23.2258 2.30288 23.2196C2.29374 23.2133 2.28476 23.2068 2.27592 23.2001C2.26708 23.1933 2.25841 23.1864 2.2499 23.1792C2.24139 23.172 2.23305 23.1646 2.22488 23.157C2.21671 23.1494 2.20873 23.1416 2.20093 23.1336C2.19312 23.1255 2.18551 23.1173 2.17809 23.1089C2.17067 23.1005 2.16345 23.0919 2.15643 23.0831C2.14941 23.0743 2.1426 23.0653 2.136 23.0562C2.1294 23.047 2.12302 23.0377 2.11685 23.0283C2.11068 23.0188 2.10474 23.0092 2.09902 22.9994C2.0933 22.9896 2.08781 22.9797 2.08255 22.9697C2.0773 22.9596 2.07228 22.9494 2.06749 22.9391C2.06271 22.9288 2.05817 22.9183 2.05388 22.9078C2.04958 22.8972 2.04553 22.8865 2.04173 22.8758C2.03793 22.865 2.03439 22.8542 2.03109 22.8432C2.0278 22.8323 2.02476 22.8213 2.02198 22.8102C2.0192 22.7991 2.01668 22.7879 2.01442 22.7766C2.01216 22.7654 2.01017 22.7541 2.00843 22.7428C2.0067 22.7315 2.00523 22.7201 2.00402 22.7087C2.00282 22.6973 2.00188 22.6858 2.00121 22.6744C2.00054 22.6629 2.00014 22.6514 2 22.64C2 19.856 3.24325 17.2248 5.37332 15.5031C5.43934 15.4501 5.50603 15.3979 5.57341 15.3468C5.64079 15.2957 5.70883 15.2455 5.77753 15.1963C5.84622 15.1472 5.91556 15.099 5.98552 15.0519C6.05548 15.0047 6.12604 14.9586 6.19723 14.9135C6.26839 14.8684 6.34013 14.8244 6.41248 14.7814C6.4848 14.7384 6.55768 14.6965 6.63111 14.6556C6.70455 14.6147 6.77849 14.5749 6.85297 14.5361C6.92746 14.4974 7.00243 14.4598 7.07789 14.4232C7.15335 14.3867 7.22928 14.3512 7.30567 14.3169C7.38207 14.2826 7.45891 14.2493 7.53618 14.2172C7.61344 14.1851 7.69111 14.1542 7.76919 14.1243C7.84728 14.0945 7.92573 14.0658 8.00457 14.0382C8.08342 14.0107 8.1626 13.9842 8.24213 13.959C8.32165 13.9337 8.40149 13.9097 8.48165 13.8867C8.56181 13.8638 8.64226 13.842 8.723 13.8214C8.80374 13.8008 8.88472 13.7814 8.96597 13.7632C9.04722 13.745 9.12867 13.7279 9.21037 13.712C9.29206 13.6962 9.37394 13.6815 9.45601 13.668C9.53811 13.6545 9.62034 13.6423 9.70275 13.6312C9.78513 13.6201 9.86765 13.6102 9.95033 13.6015C10.033 13.5928 10.1157 13.5853 10.1986 13.5791C10.2815 13.5728 10.3644 13.5677 10.4474 13.5638C10.5303 13.56 10.6134 13.5573 10.6964 13.5559C10.7795 13.5544 10.8625 13.5542 10.9456 13.5551C11.0287 13.5561 11.1117 13.5583 11.1947 13.5617C11.2777 13.5651 11.3607 13.5696 11.4436 13.5754C11.5265 13.5812 11.6092 13.5882 11.6919 13.5964C11.7747 13.6046 11.8572 13.6141 11.9397 13.6247C12.0222 13.6353 12.1045 13.6471 12.1866 13.6601C12.2687 13.6731 12.3507 13.6873 12.4325 13.7027C12.5142 13.7181 12.5958 13.7346 12.6771 13.7524C12.7585 13.7702 12.8396 13.7891 12.9204 13.8092L12.9216 13.808Z"   fill="#FFFFFF" >
</path>
</svg>
