<svg xmlns="http://www.w3.org/2000/svg" xmlns:xlink="http://www.w3.org/1999/xlink" viewBox="0 0 28 28" fill="none">
<path d="M24.5001 22.89C24.5001 23.45 23.8234 23.9167 22.2309 24.4125C20.9534 24.815 20.1834 26.5592 18.5793 26.3317C17.3251 26.1567 17.3659 25.4217 16.5843 25.1358C15.8609 24.8733 12.2793 24.8033 11.3343 25.7308C10.1559 26.8975 7.64762 25.7425 6.77845 25.5208C5.60595 25.2175 3.80345 24.9958 3.5643 24.4358C3.31345 23.8525 3.7743 23.52 3.95512 22.7558C4.0543 22.33 3.43013 21.3733 3.64595 20.895C3.9493 20.23 4.9818 20.6792 5.48345 20.3933C5.95595 20.2183 6.2418 19.7342 6.17762 19.2383C6.39345 19.9442 6.2768 20.3758 5.74012 20.685C5.07512 21.0642 4.1943 20.6383 4.02513 21.035C3.83262 21.4842 4.5093 22.1958 4.37512 22.8725C4.21763 23.6717 3.8268 23.8583 4.01345 24.2492C4.1593 24.5642 6.0318 24.8033 7.05262 25.0425C7.89845 25.2408 10.0743 26.2558 10.9026 25.1358C11.4743 24.3542 10.5234 22.82 10.4359 22.6625C10.0919 22.0854 9.72764 21.5213 9.3431 20.9703C8.95857 20.4194 8.55481 19.8829 8.1318 19.3608C6.94762 18.1242 6.67345 18.9233 6.4868 18.8358C6.30012 18.7483 6.2243 17.64 6.82512 16.7417C7.28595 16.0533 7.73512 14.3383 8.30095 13.2883C8.5518 12.8217 10.5234 10.395 10.5234 9.89332C10.5176 7.98582 8.94263 2.05334 13.4984 1.88418C17.4068 1.73834 17.8093 5.34918 17.8093 6.30582C17.7568 7.2975 17.8968 8.28918 18.2176 9.2225C19.3784 12.2383 20.7376 12.1333 21.8051 15.4875C22.7734 18.5208 22.0793 19.2733 21.7584 19.2675C21.0001 19.25 21.0001 20.8658 19.5709 20.615C18.6318 20.4517 18.6318 19.0867 18.0076 19.2908C17.5351 19.4483 17.5234 20.5217 17.7276 21.1925C18.2818 23.0008 16.8993 24.9317 18.3868 25.5675C19.7284 26.1392 20.5334 24.4825 21.8051 24.0683C23.6951 23.45 24.0976 23.1525 24.0918 22.8083C24.0859 22.365 23.2868 22.3242 22.7793 21.8983C22.7662 21.8881 22.7532 21.8776 22.7404 21.8669C22.7277 21.8563 22.715 21.8454 22.7026 21.8344C22.6901 21.8233 22.6778 21.8121 22.6657 21.8007C22.6536 21.7893 22.6416 21.7777 22.6298 21.766C22.6181 21.7542 22.6065 21.7422 22.5951 21.7301C22.5836 21.718 22.5724 21.7057 22.5613 21.6933C22.5503 21.6808 22.5394 21.6682 22.5287 21.6554C22.5181 21.6427 22.5076 21.6297 22.4973 21.6166C22.487 21.6036 22.4769 21.5903 22.467 21.5769C22.4572 21.5635 22.4475 21.55 22.438 21.5363C22.4285 21.5226 22.4192 21.5088 22.4101 21.4948C22.4011 21.4809 22.3922 21.4668 22.3836 21.4525C22.3749 21.4383 22.3665 21.424 22.3583 21.4095C22.3501 21.395 22.3421 21.3804 22.3343 21.3657C22.3265 21.351 22.3189 21.3361 22.3116 21.3212C22.3043 21.3063 22.2971 21.2912 22.2903 21.276C22.2834 21.2609 22.2767 21.2456 22.2703 21.2303C22.2639 21.2149 22.2577 21.1995 22.2517 21.1839C22.2457 21.1684 22.24 21.1527 22.2345 21.137C22.229 21.1213 22.2238 21.1055 22.2188 21.0896C22.2137 21.0738 22.2089 21.0578 22.2044 21.0418C22.1999 21.0258 22.1956 21.0097 22.1915 20.9936C22.1874 20.9774 22.1836 20.9612 22.18 20.945C22.1765 20.9287 22.1731 20.9124 22.17 20.896C22.1669 20.8797 22.1641 20.8633 22.1615 20.8468C22.1589 20.8304 22.1565 20.8139 22.1544 20.7974C22.1523 20.7809 22.1505 20.7643 22.1489 20.7478C22.1473 20.7312 22.1459 20.7146 22.1448 20.698C22.1437 20.6814 22.1428 20.6647 22.1422 20.6481C22.1416 20.6315 22.1413 20.6148 22.1412 20.5982C22.141 20.5815 22.1412 20.5649 22.1416 20.5482C22.1419 20.5316 22.1426 20.5149 22.1434 20.4983C22.1493 20.23 22.2193 19.9675 22.3593 19.7342C22.3534 20.3992 22.5868 21.0467 23.0301 21.5425C23.6776 22.1083 24.5001 22.05 24.5001 22.89ZM18.4509 17.71C18.3576 17.3308 18.3751 15.785 18.2468 15.2367C17.7976 13.3583 17.1851 12.9967 17.1851 12.985C16.8643 10.8967 15.8259 10.5117 15.8259 9.63082C15.8259 9.21082 16.0068 9.0475 16.0068 8.49332C16.0068 8.14332 15.4293 8.14332 15.0443 7.9625C14.7759 7.84 14.5076 7.72332 14.2334 7.60668C14.1518 7.44332 14.1109 7.2625 14.1168 7.07582C14.1168 7 14.1459 6.18332 14.7876 6.18332C15.5401 6.18332 15.5343 7.0875 15.5343 7.0875C15.5343 7.40832 15.3943 7.44918 15.3943 7.64168C15.3943 7.74668 15.5226 7.805 15.6276 7.805C15.8318 7.805 16.0126 7.58332 16.0418 7.26832C16.1176 6.42832 15.8201 5.43668 14.8809 5.36082C13.5626 5.25 13.5801 6.72 13.6559 7.39082C13.3351 7.21 12.9501 7.16332 12.5943 7.26832C12.5943 6.35832 12.4076 5.45418 11.7601 5.495C11.1126 5.54168 10.9609 6.2825 10.9609 6.7025C10.9609 7.48418 11.2876 7.79918 11.3634 7.83418C11.4451 7.86918 11.5676 7.79332 11.6201 7.69418C11.6551 7.61832 11.5851 7.58332 11.5268 7.58332C11.4334 7.58332 11.1884 7.28582 11.1884 6.93C11.1884 6.65 11.3168 6.23582 11.7426 6.23582C12.0809 6.23582 12.2618 6.69668 12.2734 7.0175C12.2793 7.14582 12.2676 7.27418 12.2443 7.4025C11.9993 7.6475 11.7368 7.875 11.4509 8.0675C11.2701 8.16668 10.9493 8.4 10.9493 8.65082C10.9434 8.7325 10.9901 8.81417 11.0601 8.84918C11.3401 8.97168 11.6318 9.6425 12.3551 9.6425C13.3584 9.6425 14.3384 9.3625 15.1901 8.83168C15.3068 8.6625 15.4701 8.61 15.5518 8.715C15.6684 8.86082 15.4876 9.0475 15.3184 9.0825C14.4726 9.45 13.6034 9.75332 12.7109 9.98668C12.0284 10.045 11.7893 9.77082 11.7718 9.94C12.0518 10.29 12.4659 10.5 12.9151 10.5175C13.7668 10.4592 14.5484 9.8 15.1026 9.59582C15.3243 9.52 15.4059 9.58418 15.4293 9.63667C15.4526 9.68917 15.4759 9.835 15.1609 9.95168C14.2976 10.2725 13.1601 11.4392 12.6351 11.4392C11.8768 11.4392 11.3693 9.98668 11.1243 10.0392C11.0659 10.0508 11.1243 10.3542 10.9901 10.7333C10.8676 11.0658 10.4243 11.7717 10.2609 12.2442C10.1151 12.6175 10.1443 13.0317 10.3368 13.3817C10.3055 13.4152 10.2745 13.4491 10.244 13.4833C10.2135 13.5176 10.1834 13.5522 10.1538 13.5872C10.1241 13.6222 10.0949 13.6576 10.066 13.6933C10.0372 13.729 10.0089 13.765 9.98092 13.8014C9.953 13.8378 9.9255 13.8745 9.89845 13.9116C9.87141 13.9486 9.8448 13.986 9.81866 14.0237C9.79252 14.0614 9.76685 14.0994 9.74164 14.1378C9.7164 14.1761 9.69165 14.2147 9.66737 14.2536C9.64309 14.2926 9.61927 14.3318 9.59595 14.3713C9.57262 14.4108 9.54976 14.4506 9.5274 14.4906C9.50503 14.5307 9.48316 14.571 9.46175 14.6116C9.44036 14.6521 9.41947 14.693 9.39907 14.7341C9.37865 14.7752 9.35874 14.8165 9.33936 14.8581C9.31997 14.8997 9.30107 14.9415 9.2827 14.9835C9.2643 15.0256 9.24644 15.0678 9.22908 15.1102C9.21171 15.1527 9.19484 15.1954 9.17852 15.2383C9.1622 15.2811 9.14639 15.3242 9.13111 15.3675C9.11582 15.4107 9.10108 15.4542 9.08684 15.4978C9.07262 15.5414 9.05892 15.5852 9.04574 15.6291C9.03259 15.6731 9.01995 15.7172 9.00784 15.7614C8.99573 15.8057 8.98419 15.8501 8.97317 15.8946C8.96215 15.9391 8.95165 15.9838 8.94172 16.0286C8.93177 16.0734 8.92236 16.1183 8.91353 16.1633C8.90467 16.2083 8.89636 16.2534 8.88859 16.2986C8.88086 16.3438 8.87364 16.3892 8.86696 16.4346C8.86032 16.4799 8.85419 16.5254 8.84864 16.5709C8.84309 16.6165 8.83809 16.6621 8.83363 16.7077C8.82918 16.7534 8.82529 16.7991 8.82193 16.8449C8.81859 16.8906 8.8158 16.9364 8.81356 16.9822C8.81132 17.0281 8.80965 17.0739 8.80853 17.1198C8.80741 17.1656 8.80684 17.2115 8.80684 17.2574C8.80681 17.3033 8.80735 17.3491 8.80845 17.395C8.9018 18.6608 8.49345 18.4392 8.49345 18.4392C8.86095 19.1625 9.39762 19.7808 10.0568 20.2533C10.8209 20.8658 11.5384 21.5367 11.5559 21.9158C11.5209 22.1433 11.4276 22.3533 11.2759 22.5283C11.4451 22.7792 11.6434 23.0067 11.8709 23.2108C12.5068 23.7242 13.3468 23.9108 14.1401 23.7008C15.0793 23.6833 15.9659 23.2517 16.5551 22.5167C16.7943 22.19 17.4768 21.665 17.3309 21.175C17.1326 20.4983 17.1093 18.6842 18.2876 18.9467C18.2934 18.62 18.4801 18.3225 18.7718 18.1767C18.7776 18.1592 18.5501 18.1183 18.4509 17.71Z"   fill="#0054FE" >
</path>
<path d="M13.6907 7.17507C13.6557 7.17507 13.6091 7.13424 13.5624 7.04674C13.56 7.0418 13.5574 7.03696 13.5546 7.03222C13.5518 7.0275 13.5488 7.02288 13.5457 7.01836C13.5426 7.01384 13.5393 7.00944 13.5358 7.00518C13.5324 7.00091 13.5288 6.99678 13.525 6.99279C13.5212 6.98878 13.5173 6.98493 13.5133 6.98123C13.5092 6.97753 13.505 6.97397 13.5007 6.97056C13.4964 6.96717 13.4919 6.96394 13.4874 6.96088C13.4828 6.95784 13.4781 6.95496 13.4733 6.95224C13.4686 6.94953 13.4637 6.94699 13.4587 6.94464C13.4538 6.94229 13.4487 6.94013 13.4436 6.93816C13.4385 6.93619 13.4333 6.93441 13.428 6.93283C13.4227 6.93126 13.4174 6.92988 13.4121 6.9287C13.4067 6.92751 13.4013 6.92653 13.3958 6.92575C13.3904 6.92496 13.3849 6.92439 13.3795 6.92402C13.374 6.92364 13.3685 6.92347 13.363 6.9235C13.3575 6.92354 13.352 6.92379 13.3466 6.92424C13.5857 6.88339 13.7199 6.93589 13.7607 7.06424C13.7782 7.10507 13.7607 7.15174 13.7199 7.16339C13.7082 7.17507 13.7024 7.17507 13.6907 7.17507ZM12.6291 6.91839C12.5357 6.91839 12.4541 6.97089 12.4132 7.05257C12.2966 7.26839 12.2266 7.16339 12.2266 7.10507C12.2324 6.86589 12.5824 6.91839 12.6291 6.91839Z"   fill="#0054FE" >
</path>
</svg>
