<svg xmlns="http://www.w3.org/2000/svg" xmlns:xlink="http://www.w3.org/1999/xlink" viewBox="0 0 24 24" fill="none">
<path d="M1 18.6637L1 19.6631C1 21.1653 1.62067 23.0053 3.12913 23.0053L20.8787 23.0053C22.3778 23.0053 22.9984 21.1653 22.9984 19.6631L22.9984 18.6637C22.9984 20.1628 22.0541 20.5603 20.5535 20.5603L3.44497 20.5603C1.93493 20.5603 1 20.1643 1 18.6637ZM1 3.12654L1 15.6641C1 17.1631 1.93493 18.1169 3.44497 18.1169L20.555 18.1169C22.0556 18.1169 23 17.1631 23 15.6641L23 3.12654C22.9984 1.62593 22.3778 1.00684 20.8787 1.00684L18.9994 1.00684L18.9994 3.27582C19.5997 3.62779 20.0004 4.26575 20.0004 5.00584C20.0004 6.10733 19.1 7.00769 18.0001 7.00769C16.9002 7.00769 15.9998 6.1089 15.9998 5.00584C15.9998 4.26575 16.3989 3.62779 16.9991 3.27582L16.9991 1.00684L6.99929 1.00684L6.99929 3.27582C7.59796 3.62779 7.99864 4.26575 7.99864 5.00584C7.99864 6.10733 7.09828 7.00769 5.99836 7.00769C4.89844 7.00769 3.99807 6.1089 3.99807 5.00584C3.99807 4.26575 4.39719 3.62779 4.99743 3.27582L4.99743 1.00684L3.12756 1.00684C1.62067 1.00684 1 1.62593 1 3.12654Z"   fill="#858C94" >
</path>
<path     fill="#FFFFFF"  d="M16.99 1.00684L18.99 1.00684L18.99 3.27684C19.59 3.62867 20 4.26705 20 5.00684C20 6.10788 19.0995 7.00684 18 7.00684C16.9005 7.00684 16 6.10945 16 5.00684C16 4.26705 16.39 3.62867 16.99 3.27684L16.99 1.00684L7.01 1.00684L7.01 3.27684C7.60843 3.62867 8 4.26705 8 5.00684C8 6.10788 7.09948 7.00684 6 7.00684C4.90052 7.00684 4 6.10945 4 5.00684C4 4.26705 4.41 3.62867 5.01 3.27684L5.01 1.00684L7.01 1.00684L16.99 1.00684Z">
</path>
</svg>
