<svg xmlns="http://www.w3.org/2000/svg" xmlns:xlink="http://www.w3.org/1999/xlink" viewBox="0 0 24 24" fill="none">
<path d="M18.5506 12.7522C18.5206 9.7125 21.0294 8.25525 21.1411 8.1825C19.7311 6.11925 17.5351 5.83725 16.7529 5.80425C14.8839 5.61525 13.1064 6.9045 12.1576 6.9045C11.2119 6.9045 9.7479 5.832 8.19765 5.8605C6.16065 5.8905 4.28189 7.04475 3.23339 8.8695C1.11689 12.5422 2.69114 17.9827 4.7544 20.9617C5.7624 22.4197 6.96465 24.057 8.54265 23.9984C10.0621 23.9377 10.6374 23.0152 12.4741 23.0152C14.3109 23.0152 14.8276 23.9984 16.4364 23.9684C18.0714 23.9377 19.1079 22.4827 20.1091 21.0202C21.2664 19.329 21.7434 17.691 21.7711 17.607C21.7351 17.5905 18.5821 16.383 18.5506 12.7522ZM15.5289 3.8325C16.3666 2.81625 16.9321 1.40625 16.7776 0C15.5709 0.0495 14.1084 0.804 13.2429 1.81725C12.4659 2.7165 11.7864 4.152 11.9686 5.5305C13.3156 5.6355 14.6904 4.84575 15.5289 3.8325Z"   fill="#0054FE" >
</path>
</svg>
