<svg xmlns="http://www.w3.org/2000/svg" xmlns:xlink="http://www.w3.org/1999/xlink" viewBox="0 0 24 24" fill="none">
<path d="M9.78 14.2L9.78 11.54C7.81792 10.6899 6.44 8.75078 6.44 6.5C6.44 3.46245 8.93799 1 12 1C15.0682 1 17.56 3.46874 17.56 6.5C17.56 8.75436 16.1799 10.6907 14.22 11.54L14.22 14.2L19.22 14.2C20.7558 14.2 22 15.4206 22 16.95L22 19.7L2 19.7L2 16.95C2 15.4312 3.25018 14.2 4.78 14.2L9.78 14.2Z"   fill="#858C94" >
</path>
<path     fill="#FFFFFF"  d="M3 21L21 21C21.5523 21 22 21.4477 22 22L22 22C22 22.5523 21.5523 23 21 23L3 23C2.44772 23 2 22.5523 2 22L2 22C2 21.4477 2.44772 21 3 21Z">
</path>
</svg>
