<svg xmlns="http://www.w3.org/2000/svg" xmlns:xlink="http://www.w3.org/1999/xlink" viewBox="0 0 60 60" fill="none">
<path     fill="#FFFFFF" fill-opacity="0.4" d="M30 0C46.554 0 60 13.446 60 30C60 46.554 46.554 60 30 60C13.446 60 0 46.554 0 30C0 13.446 13.446 0 30 0Z">
</path>
<path fill-rule="evenodd"  fill="rgba(255, 255, 255, 1)"  d="M60 30C60 13.446 46.554 0 30 0C13.446 0 0 13.446 0 30C0 46.554 13.446 60 30 60C46.554 60 60 46.554 60 30ZM1 30C1 13.9837 13.9837 1 30 1C46.0163 1 59 13.9837 59 30C59 46.0163 46.0163 59 30 59C13.9837 59 1 46.0163 1 30Z">
</path>
<path    stroke="rgba(78, 89, 105, 1)" stroke-width="1.3333334922790527"    d="M18 38.2103L42 38.2103">
</path>
<path    stroke="rgba(78, 89, 105, 1)" stroke-width="1.3333334922790527"    d="M29.6111 17L29.6111 20.421">
</path>
<path    stroke="rgba(78, 89, 105, 1)" stroke-width="1.3333334922790527"    d="M25.3889 43L34.7222 43">
</path>
<path d="M21.1665 38.2101L21.1665 29.3158C21.1665 24.4044 25.0475 20.4215 29.8332 20.4215C34.6189 20.4215 38.4999 24.4044 38.4999 29.3158L38.4999 38.2101C38.4999 38.2101 21.1665 20.4215 21.1665 38.2101Z" stroke="rgba(78, 89, 105, 1)" stroke-width="1.3333334922790527"      fill="#4E5969" >
</path>
</svg>
