<svg xmlns="http://www.w3.org/2000/svg" xmlns:xlink="http://www.w3.org/1999/xlink" width="23.5673828125" height="23.9986572265625" viewBox="0 0 23.5673828125 23.9986572265625" fill="none">
<path d="M22.647 22.8269L0.920608 22.8269C0.905542 22.8269 0.890486 22.8265 0.875436 22.8258C0.860386 22.825 0.845367 22.8239 0.830372 22.8224C0.815378 22.8209 0.80043 22.819 0.785527 22.8168C0.770625 22.8145 0.755785 22.8119 0.741007 22.8089C0.726229 22.8059 0.711533 22.8026 0.696919 22.7988C0.682304 22.7951 0.667788 22.791 0.653369 22.7866C0.63895 22.7821 0.624649 22.7773 0.610464 22.7721C0.59628 22.767 0.582227 22.7614 0.568307 22.7556C0.554388 22.7497 0.540618 22.7435 0.526997 22.7369C0.513377 22.7304 0.499922 22.7235 0.486636 22.7162C0.473349 22.709 0.460244 22.7014 0.447321 22.6935C0.434398 22.6857 0.421673 22.6775 0.409146 22.6689C0.396619 22.6604 0.384303 22.6516 0.372202 22.6424C0.3601 22.6333 0.348227 22.6239 0.336581 22.6141C0.324933 22.6044 0.313529 22.5944 0.302364 22.5841C0.291202 22.5738 0.280293 22.5632 0.269639 22.5523C0.258985 22.5415 0.248601 22.5304 0.238484 22.519C0.228365 22.5077 0.218526 22.4961 0.208968 22.4842C0.19941 22.4723 0.190144 22.4602 0.181169 22.4479C0.172194 22.4356 0.163521 22.423 0.15515 22.4103C0.14678 22.3975 0.138722 22.3846 0.130976 22.3714C0.12323 22.3583 0.115807 22.3449 0.108704 22.3314C0.101602 22.3179 0.09483 22.3042 0.0883883 22.2903C0.0819465 22.2764 0.0758427 22.2624 0.0700771 22.2482C0.0643114 22.234 0.0588906 22.2197 0.0538151 22.2053C0.0487393 22.1908 0.0440147 22.1763 0.0396412 22.1616C0.0352676 22.1469 0.0312503 22.1321 0.0275895 22.1173C0.0239287 22.1024 0.0206285 22.0874 0.0176892 22.0724C0.0147499 22.0573 0.0121749 22.0422 0.0099642 22.027C0.00775348 22.0119 0.00590975 21.9966 0.00443298 21.9814C0.00295621 21.9661 0.00184819 21.9508 0.00110891 21.9355C0.000369638 21.9202 0 21.9048 0 21.8895C0 21.8741 0.000369638 21.8588 0.00110891 21.8435C0.00184819 21.8282 0.00295621 21.8129 0.00443298 21.7976C0.00590975 21.7823 0.00775348 21.7671 0.0099642 21.7519C0.0121749 21.7367 0.0147499 21.7216 0.0176892 21.7066C0.0206285 21.6915 0.0239287 21.6766 0.0275895 21.6617C0.0312503 21.6468 0.0352676 21.632 0.0396412 21.6174C0.0440147 21.6027 0.0487393 21.5881 0.0538151 21.5736C0.0588906 21.5592 0.0643114 21.5449 0.0700771 21.5307C0.0758427 21.5165 0.0819465 21.5025 0.0883883 21.4887C0.09483 21.4748 0.101602 21.4611 0.108704 21.4476C0.115807 21.434 0.123231 21.4207 0.130976 21.4075C0.138722 21.3944 0.14678 21.3814 0.15515 21.3687C0.163521 21.3559 0.172194 21.3434 0.181169 21.331C0.190144 21.3187 0.19941 21.3066 0.208968 21.2948C0.218526 21.2829 0.228365 21.2713 0.238484 21.2599C0.248601 21.2486 0.258985 21.2374 0.269639 21.2266C0.280293 21.2157 0.291202 21.2052 0.302364 21.1949C0.313529 21.1846 0.324933 21.1746 0.336581 21.1648C0.348227 21.1551 0.3601 21.1457 0.372202 21.1365C0.384303 21.1274 0.396619 21.1185 0.409146 21.11C0.421673 21.1015 0.434398 21.0933 0.447321 21.0854C0.460244 21.0775 0.473349 21.07 0.486636 21.0627C0.499922 21.0555 0.513377 21.0486 0.526997 21.042C0.540618 21.0355 0.554388 21.0293 0.568307 21.0234C0.582227 21.0175 0.59628 21.012 0.610464 21.0068C0.624649 21.0016 0.63895 20.9968 0.653369 20.9924C0.667788 20.9879 0.682304 20.9838 0.696919 20.9801C0.711533 20.9764 0.726229 20.973 0.741007 20.97C0.755785 20.967 0.770625 20.9644 0.785527 20.9622C0.80043 20.9599 0.815378 20.958 0.830372 20.9565C0.845367 20.955 0.860386 20.9539 0.875436 20.9531C0.890486 20.9524 0.905542 20.952 0.920608 20.952L22.647 20.952C22.662 20.952 22.6771 20.9524 22.6921 20.9531C22.7072 20.9539 22.7222 20.955 22.7372 20.9565C22.7522 20.958 22.7671 20.9599 22.782 20.9622C22.7969 20.9644 22.8118 20.967 22.8266 20.97C22.8413 20.973 22.856 20.9764 22.8706 20.9801C22.8853 20.9838 22.8998 20.9879 22.9142 20.9924C22.9286 20.9968 22.9429 21.0016 22.9571 21.0068C22.9713 21.012 22.9853 21.0175 22.9993 21.0234C23.0131 21.0293 23.0269 21.0355 23.0405 21.042C23.0541 21.0486 23.0677 21.0555 23.081 21.0627C23.0941 21.07 23.1073 21.0775 23.1201 21.0854C23.1333 21.0933 23.1459 21.1015 23.1584 21.11C23.171 21.1185 23.1832 21.1274 23.1954 21.1365C23.2076 21.1457 23.2193 21.1551 23.2311 21.1648C23.2426 21.1746 23.2539 21.1846 23.2651 21.1949C23.2764 21.2052 23.2872 21.2157 23.2978 21.2266C23.3086 21.2374 23.319 21.2486 23.3291 21.2599C23.3393 21.2713 23.3492 21.2829 23.3586 21.2948C23.368 21.3066 23.3775 21.3187 23.3864 21.331C23.3954 21.3434 23.4039 21.3559 23.4124 21.3687C23.4207 21.3814 23.4288 21.3944 23.4366 21.4075C23.4442 21.4207 23.4518 21.434 23.4589 21.4476C23.4661 21.4611 23.4727 21.4748 23.4792 21.4887C23.4856 21.5025 23.4918 21.5165 23.4976 21.5307C23.5034 21.5449 23.5086 21.5592 23.5137 21.5736C23.5188 21.5881 23.5236 21.6027 23.528 21.6174C23.5324 21.632 23.5363 21.6468 23.5399 21.6617C23.5436 21.6766 23.5469 21.6915 23.5498 21.7066C23.5528 21.7216 23.5554 21.7367 23.5577 21.7519C23.5597 21.7671 23.5616 21.7823 23.5632 21.7976C23.5646 21.8129 23.5657 21.8282 23.5664 21.8435C23.5671 21.8588 23.5676 21.8741 23.5676 21.8895C23.5676 21.9048 23.5671 21.9202 23.5664 21.9355C23.5657 21.9508 23.5646 21.9661 23.5632 21.9814C23.5616 21.9966 23.5597 22.0119 23.5577 22.027C23.5554 22.0422 23.5528 22.0573 23.5498 22.0724C23.5469 22.0874 23.5436 22.1024 23.5399 22.1173C23.5363 22.1321 23.5324 22.1469 23.528 22.1616C23.5236 22.1763 23.5188 22.1908 23.5137 22.2053C23.5086 22.2197 23.5034 22.234 23.4976 22.2482C23.4918 22.2624 23.4856 22.2764 23.4792 22.2903C23.4727 22.3042 23.4661 22.3179 23.4589 22.3314C23.4518 22.3449 23.4442 22.3583 23.4366 22.3714C23.4288 22.3846 23.4207 22.3975 23.4124 22.4103C23.4039 22.423 23.3954 22.4356 23.3864 22.4479C23.3775 22.4602 23.368 22.4723 23.3586 22.4842C23.3492 22.4961 23.3393 22.5077 23.3291 22.519C23.319 22.5304 23.3086 22.5415 23.2978 22.5523C23.2872 22.5632 23.2764 22.5738 23.2651 22.5841C23.2539 22.5944 23.2426 22.6044 23.2311 22.6141C23.2193 22.6239 23.2076 22.6333 23.1954 22.6424C23.1832 22.6516 23.171 22.6604 23.1584 22.6689C23.1459 22.6775 23.1333 22.6857 23.1201 22.6935C23.1073 22.7014 23.0941 22.709 23.081 22.7162C23.0677 22.7235 23.0541 22.7304 23.0405 22.7369C23.0269 22.7435 23.0131 22.7497 22.9993 22.7556C22.9853 22.7614 22.9713 22.767 22.9571 22.7721C22.9429 22.7773 22.9286 22.7821 22.9142 22.7866C22.8998 22.791 22.8853 22.7951 22.8706 22.7988C22.856 22.8026 22.8413 22.8059 22.8266 22.8089C22.8118 22.8119 22.7969 22.8145 22.782 22.8168C22.7671 22.819 22.7522 22.8209 22.7372 22.8224C22.7222 22.8239 22.7072 22.825 22.6921 22.8258C22.6771 22.8265 22.662 22.8269 22.647 22.8269Z"   fill="#0054FE" >
</path>
<path d="M21.1739 19.827L12.7043 19.827C12.6892 19.827 12.6742 19.8267 12.6591 19.8259C12.6441 19.8252 12.6291 19.824 12.6141 19.8225C12.5991 19.821 12.5841 19.8191 12.5692 19.8169C12.5543 19.8146 12.5395 19.812 12.5247 19.809C12.5099 19.806 12.4952 19.8027 12.4806 19.7989C12.466 19.7952 12.4515 19.7911 12.4371 19.7867C12.4226 19.7822 12.4083 19.7774 12.3941 19.7723C12.38 19.7671 12.3659 19.7616 12.352 19.7557C12.3381 19.7498 12.3243 19.7436 12.3107 19.7371C12.2971 19.7305 12.2836 19.7236 12.2703 19.7164C12.257 19.7091 12.2439 19.7016 12.231 19.6937C12.2181 19.6858 12.2054 19.6776 12.1928 19.6691C12.1803 19.6605 12.168 19.6517 12.1559 19.6426C12.1438 19.6334 12.1319 19.624 12.1203 19.6142C12.1086 19.6045 12.0972 19.5945 12.0861 19.5842C12.0749 19.5739 12.064 19.5633 12.0533 19.5525C12.0427 19.5416 12.0323 19.5305 12.0222 19.5191C12.0121 19.5078 12.0022 19.4962 11.9927 19.4843C11.9831 19.4725 11.9738 19.4604 11.9649 19.448C11.9559 19.4357 11.9472 19.4232 11.9388 19.4104C11.9305 19.3977 11.9224 19.3847 11.9147 19.3715C11.9069 19.3584 11.8995 19.345 11.8924 19.3315C11.8853 19.318 11.8785 19.3043 11.8721 19.2904C11.8656 19.2765 11.8595 19.2625 11.8538 19.2483C11.848 19.2342 11.8426 19.2199 11.8375 19.2054C11.8324 19.191 11.8277 19.1764 11.8233 19.1617C11.819 19.147 11.8149 19.1323 11.8113 19.1174C11.8076 19.1025 11.8043 19.0875 11.8014 19.0725C11.7984 19.0574 11.7959 19.0423 11.7937 19.0271C11.7914 19.012 11.7896 18.9968 11.7881 18.9815C11.7866 18.9662 11.7855 18.9509 11.7848 18.9356C11.7841 18.9203 11.7837 18.9049 11.7837 18.8896C11.7837 18.8743 11.7841 18.8589 11.7848 18.8436C11.7855 18.8283 11.7866 18.813 11.7881 18.7977C11.7896 18.7824 11.7914 18.7672 11.7937 18.7521C11.7959 18.7369 11.7984 18.7217 11.8014 18.7067C11.8043 18.6917 11.8076 18.6767 11.8113 18.6618C11.8149 18.6469 11.819 18.6322 11.8233 18.6175C11.8277 18.6028 11.8324 18.5882 11.8375 18.5738C11.8426 18.5593 11.848 18.545 11.8538 18.5309C11.8595 18.5167 11.8656 18.5026 11.8721 18.4888C11.8785 18.4749 11.8853 18.4612 11.8924 18.4477C11.8995 18.4342 11.9069 18.4208 11.9147 18.4077C11.9224 18.3945 11.9305 18.3815 11.9388 18.3688C11.9472 18.356 11.9559 18.3435 11.9649 18.3312C11.9738 18.3188 11.9831 18.3067 11.9927 18.2949C12.0022 18.283 12.0121 18.2714 12.0222 18.2601C12.0323 18.2487 12.0427 18.2376 12.0533 18.2267C12.064 18.2159 12.0749 18.2053 12.0861 18.195C12.0972 18.1847 12.1086 18.1747 12.1203 18.1649C12.1319 18.1552 12.1438 18.1458 12.1559 18.1366C12.168 18.1275 12.1803 18.1187 12.1928 18.1101C12.2054 18.1016 12.2181 18.0934 12.231 18.0855C12.2439 18.0776 12.257 18.0701 12.2703 18.0628C12.2836 18.0556 12.2971 18.0487 12.3107 18.0421C12.3243 18.0356 12.3381 18.0294 12.352 18.0235C12.3659 18.0176 12.38 18.0121 12.3941 18.0069C12.4083 18.0018 12.4226 17.997 12.4371 17.9925C12.4515 17.9881 12.466 17.984 12.4806 17.9802C12.4952 17.9765 12.5099 17.9732 12.5247 17.9702C12.5395 17.9672 12.5543 17.9645 12.5692 17.9623C12.5841 17.96 12.5991 17.9582 12.6141 17.9567C12.6291 17.9552 12.6441 17.954 12.6591 17.9533C12.6742 17.9525 12.6892 17.9521 12.7043 17.9521L21.1739 17.9521C21.189 17.9521 21.204 17.9525 21.2191 17.9533C21.2341 17.954 21.2491 17.9552 21.2641 17.9567C21.2791 17.9582 21.2941 17.96 21.309 17.9623C21.3239 17.9645 21.3387 17.9672 21.3535 17.9702C21.3683 17.9732 21.383 17.9765 21.3976 17.9802C21.4122 17.984 21.4267 17.9881 21.4411 17.9925C21.4556 17.997 21.4698 18.0018 21.484 18.0069C21.4982 18.0121 21.5123 18.0176 21.5262 18.0235C21.5401 18.0294 21.5539 18.0356 21.5675 18.0421C21.5811 18.0487 21.5946 18.0556 21.6079 18.0628C21.6211 18.0701 21.6343 18.0776 21.6472 18.0855C21.6601 18.0934 21.6728 18.1016 21.6854 18.1101C21.6979 18.1187 21.7102 18.1275 21.7223 18.1366C21.7344 18.1458 21.7463 18.1552 21.7579 18.1649C21.7696 18.1747 21.781 18.1847 21.7921 18.195C21.8033 18.2053 21.8142 18.2159 21.8249 18.2267C21.8355 18.2376 21.8459 18.2487 21.856 18.2601C21.8661 18.2714 21.876 18.283 21.8855 18.2949C21.8951 18.3067 21.9044 18.3188 21.9133 18.3312C21.9223 18.3435 21.931 18.356 21.9394 18.3688C21.9477 18.3815 21.9558 18.3945 21.9635 18.4077C21.9713 18.4208 21.9787 18.4342 21.9858 18.4477C21.9929 18.4612 21.9997 18.4749 22.0061 18.4888C22.0125 18.5026 22.0186 18.5167 22.0244 18.5309C22.0302 18.545 22.0356 18.5593 22.0407 18.5738C22.0458 18.5882 22.0505 18.6028 22.0548 18.6175C22.0592 18.6322 22.0632 18.6469 22.0669 18.6618C22.0706 18.6767 22.0739 18.6917 22.0768 18.7067C22.0798 18.7217 22.0823 18.7369 22.0845 18.7521C22.0867 18.7672 22.0886 18.7824 22.0901 18.7977C22.0916 18.813 22.0927 18.8283 22.0934 18.8436C22.0941 18.8589 22.0945 18.8743 22.0945 18.8896C22.0945 18.9049 22.0941 18.9203 22.0934 18.9356C22.0927 18.9509 22.0916 18.9662 22.0901 18.9815C22.0886 18.9968 22.0867 19.012 22.0845 19.0271C22.0823 19.0423 22.0798 19.0574 22.0768 19.0725C22.0739 19.0875 22.0706 19.1025 22.0669 19.1174C22.0632 19.1323 22.0592 19.147 22.0549 19.1617C22.0505 19.1764 22.0458 19.191 22.0407 19.2054C22.0356 19.2199 22.0302 19.2342 22.0244 19.2483C22.0186 19.2625 22.0125 19.2765 22.0061 19.2904C21.9997 19.3043 21.9929 19.318 21.9858 19.3315C21.9787 19.345 21.9713 19.3584 21.9635 19.3715C21.9558 19.3847 21.9477 19.3977 21.9394 19.4104C21.931 19.4232 21.9223 19.4357 21.9133 19.448C21.9044 19.4604 21.8951 19.4725 21.8855 19.4843C21.876 19.4962 21.8661 19.5078 21.856 19.5191C21.8459 19.5305 21.8355 19.5416 21.8249 19.5525C21.8142 19.5633 21.8033 19.5739 21.7921 19.5842C21.781 19.5945 21.7696 19.6045 21.7579 19.6142C21.7463 19.624 21.7344 19.6334 21.7223 19.6426C21.7102 19.6517 21.6979 19.6605 21.6854 19.6691C21.6728 19.6776 21.6601 19.6858 21.6472 19.6937C21.6343 19.7016 21.6211 19.7091 21.6079 19.7164C21.5946 19.7236 21.5811 19.7305 21.5675 19.7371C21.5539 19.7436 21.5401 19.7498 21.5262 19.7557C21.5123 19.7616 21.4982 19.7671 21.484 19.7723C21.4698 19.7774 21.4556 19.7822 21.4411 19.7867C21.4267 19.7911 21.4122 19.7952 21.3976 19.7989C21.383 19.8027 21.3683 19.806 21.3535 19.809C21.3387 19.812 21.3239 19.8146 21.309 19.8169C21.2941 19.8191 21.2791 19.821 21.2641 19.8225C21.2491 19.824 21.2341 19.8252 21.2191 19.8259C21.204 19.8267 21.189 19.827 21.1739 19.827Z"   fill="#0054FE" >
</path>
<path     fill="#0054FE"  d="M3.5777 18.8717L7.51867 17.7964L4.63367 14.8586L3.57774 18.8716M2.60126 19.8659C2.59061 19.8551 2.58013 19.8441 2.56984 19.8329C2.55953 19.8217 2.54941 19.8103 2.53948 19.7988C2.52956 19.7872 2.51981 19.7756 2.51025 19.7637C2.5007 19.7518 2.49133 19.7398 2.48215 19.7276C2.47298 19.7155 2.464 19.7032 2.45522 19.6907C2.44645 19.6782 2.43788 19.6656 2.42952 19.6529C2.42114 19.6401 2.41298 19.6272 2.40503 19.6142C2.39706 19.6012 2.38932 19.588 2.38181 19.5747C2.37427 19.5614 2.36695 19.548 2.35985 19.5345C2.35275 19.521 2.34586 19.5073 2.3392 19.4936C2.33253 19.4798 2.32609 19.4659 2.31987 19.452C2.31366 19.438 2.30767 19.4239 2.3019 19.4098C2.29613 19.3956 2.2906 19.3813 2.28529 19.367C2.27999 19.3526 2.27491 19.3382 2.27007 19.3236C2.26522 19.3091 2.26062 19.2945 2.25624 19.2798C2.25187 19.2651 2.24773 19.2504 2.24383 19.2356C2.23994 19.2207 2.23628 19.2059 2.23286 19.1909C2.22943 19.176 2.22625 19.161 2.22331 19.146C2.22038 19.1309 2.21768 19.1158 2.21522 19.1007C2.21277 19.0856 2.21056 19.0704 2.20859 19.0552C2.20663 19.04 2.2049 19.0247 2.20343 19.0095C2.20195 18.9942 2.20072 18.9789 2.19973 18.9636C2.19875 18.9483 2.19801 18.933 2.19752 18.9176C2.19702 18.9023 2.19678 18.887 2.19678 18.8716C2.19678 18.8563 2.19702 18.841 2.19752 18.8256C2.19801 18.8103 2.19875 18.795 2.19973 18.7797C2.20072 18.7644 2.20195 18.749 2.20343 18.7338C2.2049 18.7185 2.20662 18.7033 2.20859 18.6881C2.21056 18.6729 2.21277 18.6577 2.21522 18.6426C2.21768 18.6274 2.22037 18.6123 2.22331 18.5973C2.22625 18.5823 2.22943 18.5673 2.23285 18.5523C2.23627 18.5374 2.23993 18.5225 2.24383 18.5077L3.29981 14.4946C3.30371 14.4798 3.30785 14.4651 3.31222 14.4504C3.31659 14.4357 3.3212 14.4211 3.32605 14.4066C3.33088 14.3921 3.33595 14.3776 3.34126 14.3633C3.34657 14.3489 3.35211 14.3346 3.35788 14.3205C3.36363 14.3063 3.36962 14.2922 3.37585 14.2783C3.38207 14.2643 3.38851 14.2504 3.39516 14.2367C3.40182 14.2229 3.4087 14.2092 3.41581 14.1957C3.42291 14.1822 3.43023 14.1688 3.43777 14.1555C3.4453 14.1422 3.45304 14.1291 3.46099 14.116C3.46895 14.103 3.47712 14.0901 3.48548 14.0774C3.49385 14.0646 3.50243 14.052 3.51121 14.0395C3.51997 14.027 3.52894 14.0147 3.53811 14.0026C3.54729 13.9904 3.55666 13.9784 3.56621 13.9665C3.57577 13.9547 3.58552 13.943 3.59544 13.9314C3.60537 13.9199 3.61548 13.9085 3.62578 13.8973C3.63609 13.8861 3.64657 13.8751 3.65722 13.8643C3.66787 13.8534 3.67869 13.8428 3.68969 13.8323C3.70068 13.8218 3.71184 13.8115 3.72318 13.8014C3.7345 13.7913 3.74599 13.7813 3.75763 13.7716C3.76928 13.7619 3.78108 13.7523 3.79303 13.743C3.80498 13.7337 3.81708 13.7245 3.82932 13.7156C3.84157 13.7066 3.85395 13.6979 3.86647 13.6894C3.87899 13.6809 3.89165 13.6726 3.90445 13.6645C3.91724 13.6564 3.93016 13.6485 3.9432 13.6408C3.95626 13.6331 3.96942 13.6257 3.9827 13.6184C3.99598 13.6112 4.00939 13.6042 4.0229 13.5974C4.03642 13.5906 4.05004 13.5841 4.06376 13.5778C4.07747 13.5714 4.09129 13.5653 4.10521 13.5594C4.11912 13.5536 4.13313 13.5479 4.14723 13.5425C4.16133 13.5371 4.17552 13.532 4.18979 13.527C4.20406 13.5221 4.2184 13.5174 4.2328 13.513C4.24723 13.5085 4.26171 13.5043 4.27626 13.5003C4.29082 13.4964 4.30543 13.4926 4.3201 13.4891C4.33477 13.4857 4.34949 13.4824 4.36427 13.4794C4.37904 13.4764 4.39386 13.4737 4.40873 13.4712C4.42358 13.4687 4.43848 13.4664 4.45343 13.4644C4.46836 13.4624 4.48332 13.4607 4.4983 13.4592C4.5133 13.4577 4.52831 13.4564 4.54334 13.4554C4.55839 13.4544 4.57342 13.4537 4.58847 13.4532C4.60355 13.4527 4.6186 13.4524 4.63365 13.4524C4.64872 13.4524 4.6638 13.4527 4.67885 13.4532C4.6939 13.4537 4.70896 13.4544 4.72398 13.4554C4.73901 13.4564 4.75402 13.4577 4.769 13.4592C4.78401 13.4607 4.79899 13.4624 4.8139 13.4644C4.82884 13.4664 4.84373 13.4687 4.8586 13.4712C4.87347 13.4737 4.88829 13.4764 4.90307 13.4794C4.91784 13.4824 4.93257 13.4857 4.94723 13.4891C4.96192 13.4926 4.97653 13.4964 4.99108 13.5003C5.00562 13.5043 5.02012 13.5085 5.03453 13.513C5.04894 13.5174 5.06327 13.5221 5.07754 13.527C5.09181 13.532 5.10599 13.5371 5.12008 13.5425C5.13418 13.5479 5.1482 13.5536 5.1621 13.5594C5.17605 13.5653 5.18986 13.5714 5.20358 13.5778C5.21729 13.5841 5.23092 13.5906 5.24443 13.5974C5.25794 13.6042 5.27133 13.6112 5.28461 13.6184C5.29791 13.6257 5.31108 13.6331 5.32411 13.6408C5.33718 13.6485 5.35009 13.6563 5.36289 13.6644C5.37568 13.6726 5.38834 13.6809 5.40086 13.6894C5.41338 13.6979 5.42576 13.7066 5.43801 13.7156C5.45025 13.7245 5.46236 13.7337 5.4743 13.743C5.48627 13.7523 5.49805 13.7619 5.5097 13.7716C5.52135 13.7813 5.53283 13.7913 5.54415 13.8014C5.5555 13.8115 5.56666 13.8218 5.57764 13.8323C5.58864 13.8428 5.59948 13.8534 5.61012 13.8643L8.49512 16.802C8.51643 16.8237 8.53703 16.8461 8.55689 16.8692C8.57677 16.8923 8.59588 16.916 8.6142 16.9403C8.63256 16.9647 8.6501 16.9896 8.66683 17.0151C8.68359 17.0406 8.69949 17.0667 8.71454 17.0933C8.72962 17.1199 8.74382 17.1469 8.75714 17.1744C8.77049 17.202 8.78292 17.2299 8.79443 17.2582C8.80598 17.2866 8.81659 17.3153 8.82626 17.3444C8.83597 17.3734 8.84472 17.4028 8.8525 17.4324C8.8603 17.462 8.86713 17.4919 8.873 17.522C8.87889 17.5521 8.88382 17.5824 8.88773 17.6128C8.89167 17.6432 8.89461 17.6737 8.89659 17.7044C8.89857 17.735 8.89954 17.7657 8.89954 17.7963C8.89954 17.827 8.89855 17.8577 8.89657 17.8883C8.89461 17.9189 8.89167 17.9495 8.88771 17.9799C8.8838 18.0103 8.87889 18.0406 8.873 18.0707C8.86713 18.1008 8.8603 18.1306 8.85247 18.1603C8.84469 18.1899 8.83595 18.2193 8.82626 18.2483C8.81657 18.2774 8.80596 18.3061 8.79441 18.3344C8.7829 18.3628 8.77047 18.3907 8.75712 18.4183C8.7438 18.4458 8.7296 18.4728 8.71452 18.4994C8.69947 18.526 8.68357 18.552 8.66681 18.5775C8.65008 18.6031 8.63254 18.628 8.61417 18.6523C8.59583 18.6767 8.57673 18.7004 8.55684 18.7235C8.53698 18.7465 8.51638 18.7689 8.49507 18.7906C8.47378 18.8123 8.4518 18.8333 8.42913 18.8535C8.40648 18.8738 8.38319 18.8932 8.35928 18.9119C8.33539 18.9306 8.3109 18.9485 8.28584 18.9655C8.26078 18.9825 8.23518 18.9987 8.20908 19.0141C8.18298 19.0294 8.15642 19.0439 8.12941 19.0575C8.10238 19.071 8.07495 19.0837 8.0471 19.0954C8.01925 19.1072 7.99106 19.118 7.96252 19.1278C7.93398 19.1377 7.90517 19.1466 7.87605 19.1546L3.93512 20.2299C3.92058 20.2339 3.90596 20.2376 3.89128 20.2411C3.87661 20.2446 3.86189 20.2478 3.84711 20.2508C3.83234 20.2538 3.81752 20.2565 3.80265 20.259C3.7878 20.2616 3.7729 20.2638 3.75795 20.2658C3.74302 20.2678 3.72806 20.2695 3.71307 20.271C3.69808 20.2726 3.68307 20.2738 3.66803 20.2748C3.653 20.2758 3.63795 20.2766 3.6229 20.2771C3.60783 20.2776 3.59277 20.2778 3.57772 20.2778C3.56265 20.2778 3.54759 20.2776 3.53252 20.2771C3.51747 20.2766 3.50242 20.2758 3.48739 20.2748C3.47236 20.2738 3.45736 20.2726 3.44237 20.271C3.42736 20.2695 3.4124 20.2678 3.39747 20.2658C3.38254 20.2638 3.36764 20.2616 3.35277 20.259C3.3379 20.2565 3.32308 20.2538 3.30831 20.2508C3.29353 20.2478 3.27881 20.2446 3.26414 20.2411C3.24947 20.2376 3.23486 20.2339 3.2203 20.2299C3.20575 20.226 3.19127 20.2217 3.17684 20.2173C3.16244 20.2128 3.1481 20.2081 3.13383 20.2032C3.11956 20.1982 3.10537 20.1931 3.09127 20.1877C3.07719 20.1823 3.06318 20.1767 3.04925 20.1708C3.03533 20.1649 3.02151 20.1588 3.0078 20.1525C2.99408 20.1462 2.98046 20.1396 2.96694 20.1328C2.95343 20.126 2.94003 20.119 2.92676 20.1118C2.91347 20.1045 2.9003 20.0971 2.88724 20.0894C2.8742 20.0817 2.86128 20.0739 2.84848 20.0658C2.8357 20.0577 2.82305 20.0494 2.81051 20.0408C2.79799 20.0323 2.78561 20.0236 2.77336 20.0146C2.76112 20.0057 2.74902 19.9966 2.73707 19.9872C2.72512 19.9779 2.71332 19.9683 2.70167 19.9586C2.69003 19.9489 2.67854 19.9389 2.66722 19.9289C2.65588 19.9187 2.64472 19.9084 2.63373 19.8979C2.62273 19.8875 2.6119 19.8768 2.60126 19.8659Z">
</path>
<path d="M7.57159 17.1489L5.42341 14.9614C4.97475 14.5046 4.97475 13.7611 5.42341 13.3043L15.188 3.36112C15.6367 2.9042 16.3667 2.9042 16.8154 3.36112L18.9636 5.54861C19.4123 6.00552 19.4123 6.74892 18.9636 7.20578L9.19904 17.1489C8.75034 17.6058 8.02029 17.6058 7.57159 17.1489Z"   fill="#FFFFFF" >
</path>
<path d="M16.1642 4.02394C16.1615 4.02124 16.1588 4.0186 16.156 4.01602C16.1532 4.01344 16.1503 4.01094 16.1474 4.00852C16.1445 4.00608 16.1415 4.00372 16.1385 4.00144C16.1355 3.99916 16.1324 3.99696 16.1293 3.99483C16.1262 3.99271 16.123 3.99066 16.1197 3.98869C16.1165 3.98672 16.1132 3.98483 16.1099 3.98302C16.1066 3.98122 16.1032 3.9795 16.0998 3.97786C16.0964 3.97622 16.0929 3.97467 16.0895 3.9732C16.086 3.97173 16.0825 3.97036 16.079 3.96908C16.0754 3.96778 16.0718 3.96657 16.0682 3.96547C16.0646 3.96436 16.061 3.96333 16.0573 3.9624C16.0537 3.96147 16.05 3.96064 16.0463 3.95989C16.0426 3.95914 16.0389 3.95848 16.0352 3.95792C16.0314 3.95736 16.0277 3.95689 16.024 3.95651C16.0202 3.95614 16.0165 3.95586 16.0127 3.95567C16.0089 3.95548 16.0052 3.95539 16.0014 3.95539C15.9976 3.95539 15.9939 3.95548 15.9901 3.95567C15.9863 3.95586 15.9826 3.95614 15.9789 3.95651C15.9751 3.95689 15.9714 3.95736 15.9677 3.95792C15.9639 3.95848 15.9602 3.95914 15.9565 3.95989C15.9528 3.96064 15.9491 3.96147 15.9455 3.9624C15.9418 3.96333 15.9382 3.96436 15.9346 3.96547C15.931 3.96657 15.9274 3.96778 15.9239 3.96908C15.9203 3.97036 15.9168 3.97173 15.9133 3.9732C15.9099 3.97467 15.9064 3.97622 15.903 3.97786C15.8996 3.9795 15.8962 3.98122 15.8929 3.98302C15.8896 3.98483 15.8863 3.98672 15.8831 3.98869C15.8799 3.99066 15.8767 3.99271 15.8735 3.99483C15.8704 3.99696 15.8673 3.99916 15.8643 4.00144C15.8613 4.00372 15.8583 4.00608 15.8554 4.00852C15.8525 4.01094 15.8496 4.01344 15.8468 4.01602C15.844 4.0186 15.8413 4.02124 15.8387 4.02394L6.07417 13.9671C6.07151 13.9698 6.06892 13.9726 6.06639 13.9754C6.06387 13.9783 6.06142 13.9812 6.05902 13.9841C6.05664 13.9871 6.05433 13.9901 6.05209 13.9932C6.04986 13.9963 6.04768 13.9994 6.04558 14.0026C6.04349 14.0058 6.04148 14.009 6.03955 14.0123C6.03762 14.0156 6.03577 14.0189 6.034 14.0223C6.03223 14.0257 6.03053 14.0292 6.02892 14.0326C6.02732 14.0361 6.0258 14.0396 6.02436 14.0431C6.02292 14.0467 6.02157 14.0503 6.02031 14.0539C6.01904 14.0575 6.01785 14.0611 6.01677 14.0648C6.01568 14.0685 6.01467 14.0721 6.01375 14.0759C6.01285 14.0796 6.01202 14.0833 6.01129 14.0871C6.01055 14.0908 6.00991 14.0946 6.00936 14.0984C6.0088 14.1022 6.00834 14.106 6.00797 14.1098C6.00761 14.1137 6.00733 14.1175 6.00715 14.1213C6.00696 14.1251 6.00687 14.129 6.00687 14.1328C6.00687 14.1366 6.00696 14.1405 6.00715 14.1443C6.00733 14.1481 6.00761 14.1519 6.00797 14.1558C6.00834 14.1596 6.0088 14.1634 6.00936 14.1672C6.00991 14.171 6.01055 14.1748 6.01129 14.1785C6.01202 14.1823 6.01285 14.186 6.01375 14.1897C6.01467 14.1935 6.01568 14.1971 6.01677 14.2008C6.01785 14.2045 6.01904 14.2081 6.02031 14.2117C6.02157 14.2153 6.02292 14.2189 6.02436 14.2225C6.0258 14.226 6.02732 14.2295 6.02892 14.233C6.03053 14.2365 6.03223 14.2399 6.034 14.2433C6.03577 14.2467 6.03762 14.25 6.03955 14.2533C6.04148 14.2566 6.04349 14.2598 6.04558 14.263C6.04768 14.2662 6.04986 14.2693 6.05209 14.2724C6.05433 14.2755 6.05664 14.2785 6.05902 14.2815C6.06142 14.2844 6.06387 14.2873 6.06639 14.2902C6.06892 14.293 6.07151 14.2958 6.07417 14.2985L8.22242 16.4861C8.22509 16.4887 8.2278 16.4914 8.23061 16.494C8.23339 16.4965 8.23625 16.499 8.23917 16.5015C8.24207 16.5039 8.24504 16.5063 8.24808 16.5085C8.25109 16.5108 8.25418 16.513 8.25731 16.5151C8.26041 16.5173 8.26361 16.5193 8.26686 16.5213C8.27006 16.5232 8.27335 16.5251 8.27669 16.5269C8.27998 16.5288 8.28334 16.5305 8.28677 16.5321C8.29017 16.5337 8.2936 16.5353 8.2971 16.5367C8.30058 16.5382 8.30407 16.5396 8.30764 16.5409C8.31119 16.5422 8.31475 16.5434 8.31834 16.5445C8.32193 16.5456 8.32557 16.5466 8.32923 16.5476C8.33287 16.5485 8.33655 16.5493 8.34025 16.5501C8.34394 16.5508 8.34764 16.5515 8.35137 16.552C8.3551 16.5526 8.35883 16.5531 8.36258 16.5534C8.36633 16.5538 8.37008 16.5541 8.37386 16.5543C8.37761 16.5545 8.38136 16.5546 8.38511 16.5546C8.38889 16.5546 8.39264 16.5545 8.39641 16.5543C8.40016 16.5541 8.40391 16.5538 8.40769 16.5534C8.41142 16.5531 8.41517 16.5526 8.4189 16.552C8.4226 16.5515 8.42631 16.5508 8.43001 16.5501C8.4337 16.5493 8.43738 16.5485 8.44104 16.5476C8.44467 16.5466 8.44831 16.5456 8.45188 16.5445C8.45549 16.5434 8.45908 16.5422 8.4626 16.5409C8.46617 16.5396 8.46967 16.5382 8.47317 16.5367C8.47664 16.5353 8.48007 16.5337 8.4835 16.5321C8.48691 16.5305 8.49027 16.5288 8.49356 16.5269C8.49689 16.5251 8.50019 16.5232 8.50341 16.5213C8.50663 16.5193 8.50981 16.5173 8.51296 16.5151C8.51607 16.513 8.51915 16.5108 8.52219 16.5085C8.5252 16.5063 8.52817 16.5039 8.5311 16.5015C8.534 16.499 8.53685 16.4965 8.53966 16.494C8.54244 16.4914 8.54518 16.4887 8.54785 16.4861L18.3124 6.54286C18.3151 6.54014 18.3177 6.53736 18.3202 6.53452C18.3227 6.53168 18.3251 6.52878 18.3275 6.5258C18.3299 6.52285 18.3322 6.51983 18.3345 6.51673C18.3367 6.51366 18.3389 6.51052 18.341 6.50733C18.3431 6.50415 18.3451 6.50091 18.347 6.49761C18.3489 6.49433 18.3508 6.491 18.3526 6.4876C18.3543 6.48423 18.356 6.4808 18.3576 6.47734C18.3593 6.47387 18.3608 6.47035 18.3622 6.46681C18.3636 6.46327 18.365 6.45971 18.3663 6.45608C18.3675 6.45247 18.3687 6.44884 18.3698 6.44518C18.3709 6.4415 18.3719 6.43782 18.3728 6.4341C18.3737 6.43037 18.3745 6.42664 18.3752 6.42287C18.376 6.4191 18.3766 6.41532 18.3772 6.41155C18.3778 6.40775 18.3782 6.40396 18.3786 6.40014C18.379 6.39632 18.3792 6.3925 18.3794 6.38865C18.3796 6.38483 18.3797 6.38099 18.3797 6.37717C18.3797 6.37335 18.3796 6.36951 18.3794 6.36569C18.3792 6.36187 18.379 6.35802 18.3786 6.3542C18.3782 6.35038 18.3778 6.34659 18.3772 6.34281C18.3766 6.33902 18.376 6.33524 18.3752 6.33147C18.3745 6.32772 18.3737 6.32397 18.3728 6.32024C18.3719 6.31652 18.3709 6.31284 18.3698 6.30918C18.3687 6.3055 18.3675 6.30187 18.3663 6.29826C18.365 6.29465 18.3636 6.29106 18.3622 6.28753C18.3608 6.28399 18.3593 6.28047 18.3576 6.277C18.356 6.27353 18.3543 6.27011 18.3526 6.26674C18.3508 6.26334 18.3489 6.26001 18.347 6.25673C18.3451 6.25343 18.3431 6.25019 18.341 6.247C18.3389 6.24382 18.3367 6.24068 18.3345 6.23761C18.3322 6.23451 18.3299 6.23149 18.3275 6.22854C18.3251 6.22556 18.3227 6.22265 18.3202 6.21982C18.3177 6.21698 18.3151 6.21419 18.3124 6.21148L16.1642 4.02394ZM17.4661 2.6982L19.6143 4.88569C20.4232 5.70938 20.4232 7.04491 19.6143 7.86865L9.84975 17.8117C9.04084 18.6354 7.72934 18.6354 6.92038 17.8117L4.7722 15.6242C3.9633 14.8005 3.9633 13.465 4.7722 12.6412L14.5367 2.69825C15.3457 1.87451 16.6571 1.87451 17.4661 2.69825L17.4661 2.6982Z"   fill="#0054FE" >
</path>
</svg>
