<svg xmlns="http://www.w3.org/2000/svg" xmlns:xlink="http://www.w3.org/1999/xlink" viewBox="0 0 24 24" fill="none">
<path d="M7.55509 5.4C7.55507 5.47202 7.55683 5.54401 7.56038 5.61595C7.56392 5.68789 7.56926 5.75971 7.57635 5.83138C7.58347 5.90305 7.59235 5.97453 7.60299 6.04578C7.61366 6.11701 7.62608 6.18797 7.64025 6.25861C7.65444 6.32925 7.67033 6.39953 7.68799 6.46938C7.70566 6.53926 7.72505 6.60867 7.74614 6.6776C7.76724 6.74652 7.79004 6.8149 7.81452 6.88272C7.83903 6.95053 7.86517 7.01771 7.893 7.08428C7.92083 7.15082 7.9503 7.21665 7.98138 7.28179C8.01248 7.3469 8.04517 7.41123 8.07945 7.47475C8.11373 7.53827 8.14957 7.60093 8.18695 7.66271C8.22436 7.72451 8.26325 7.78536 8.30366 7.84524C8.34409 7.90513 8.38596 7.96401 8.42926 8.02188C8.47262 8.07973 8.51734 8.1365 8.56348 8.19218C8.60964 8.24787 8.65714 8.3024 8.70598 8.35578C8.75484 8.40916 8.805 8.46132 8.85644 8.51224C8.90788 8.56319 8.96054 8.61283 9.01444 8.66123C9.06837 8.7096 9.12343 8.75665 9.17966 8.80234C9.23592 8.84803 9.29324 8.89235 9.35165 8.93527C9.41009 8.97817 9.46957 9.01964 9.53004 9.05966C9.59057 9.09968 9.65201 9.13821 9.71439 9.17526C9.7768 9.21231 9.8401 9.24779 9.90426 9.28175C9.96843 9.31571 10.0334 9.34809 10.0991 9.37888C10.1649 9.4097 10.2314 9.43887 10.2986 9.46644C10.3659 9.49401 10.4337 9.51992 10.5022 9.5442C10.5707 9.56848 10.6398 9.59107 10.7094 9.61197C10.7791 9.63289 10.8491 9.65209 10.9197 9.6696C10.9903 9.6871 11.0613 9.70289 11.1326 9.71694C11.204 9.731 11.2757 9.74331 11.3476 9.75386C11.4196 9.76445 11.4918 9.77326 11.5642 9.78033C11.6366 9.78738 11.7092 9.79268 11.7818 9.79622C11.8545 9.79975 11.9272 9.80152 12 9.80152C12.0728 9.80152 12.1455 9.79975 12.2181 9.79622C12.2908 9.79268 12.3634 9.78738 12.4357 9.78033C12.5082 9.77326 12.5803 9.76445 12.6523 9.75389C12.7243 9.74331 12.796 9.731 12.8673 9.71694C12.9387 9.70289 13.0097 9.6871 13.0802 9.6696C13.1508 9.65209 13.2209 9.63289 13.2905 9.61197C13.3602 9.59107 13.4292 9.56848 13.4977 9.5442C13.5662 9.51992 13.6341 9.49401 13.7013 9.46644C13.7685 9.43887 13.835 9.4097 13.9008 9.37888C13.9666 9.34809 14.0316 9.31571 14.0957 9.28175C14.1599 9.24779 14.2232 9.21231 14.2856 9.17526C14.348 9.13821 14.4094 9.09968 14.4699 9.05966C14.5304 9.01964 14.5899 8.97817 14.6483 8.93527C14.7067 8.89235 14.7641 8.84803 14.8203 8.80234C14.8766 8.75665 14.9316 8.7096 14.9855 8.66123C15.0394 8.61283 15.0921 8.56319 15.1435 8.51226C15.195 8.46132 15.2451 8.40916 15.294 8.35578C15.3429 8.3024 15.3904 8.24787 15.4365 8.19218C15.4826 8.1365 15.5274 8.07973 15.5707 8.02188C15.614 7.96401 15.6559 7.90513 15.6963 7.84524C15.7367 7.78536 15.7756 7.72451 15.813 7.66271C15.8504 7.60093 15.8862 7.53827 15.9205 7.47475C15.9548 7.41123 15.9875 7.3469 16.0186 7.28179C16.0497 7.21665 16.0791 7.15082 16.107 7.08428C16.1348 7.01771 16.161 6.95053 16.1854 6.88272C16.21 6.8149 16.2327 6.74652 16.2538 6.6776C16.2749 6.60867 16.2943 6.53926 16.312 6.46938C16.3296 6.39953 16.3456 6.32925 16.3597 6.25861C16.3739 6.18797 16.3863 6.11701 16.397 6.04578C16.4076 5.97453 16.4165 5.90305 16.4236 5.83138C16.4307 5.75971 16.4361 5.68789 16.4396 5.61595C16.4432 5.54401 16.4449 5.47202 16.4449 5.4C16.4449 5.32798 16.4431 5.25602 16.4395 5.1841C16.4359 5.11218 16.4306 5.04039 16.4235 4.96872C16.4163 4.89704 16.4074 4.82562 16.3968 4.75439C16.3861 4.68316 16.3737 4.61222 16.3595 4.54161C16.3453 4.47097 16.3293 4.40074 16.3117 4.33089C16.294 4.26103 16.2746 4.19167 16.2535 4.12275C16.2324 4.05383 16.2096 3.98547 16.1851 3.91768C16.1605 3.84988 16.1344 3.78271 16.1065 3.71619C16.0787 3.64967 16.0492 3.58385 16.0181 3.51875C15.987 3.45366 15.9543 3.38936 15.92 3.32586C15.8857 3.26235 15.8499 3.19971 15.8125 3.13795C15.7751 3.07619 15.7362 3.01537 15.6958 2.9555C15.6554 2.89562 15.6135 2.83676 15.5702 2.77893C15.5268 2.72108 15.4821 2.66433 15.4359 2.60868C15.3898 2.55301 15.3423 2.4985 15.2934 2.44515C15.2446 2.39179 15.1944 2.33964 15.143 2.28872C15.0916 2.23781 15.0389 2.18818 14.985 2.13983C14.9311 2.09146 14.876 2.04444 14.8198 1.99877C14.7636 1.95308 14.7062 1.90879 14.6478 1.86589C14.5894 1.82299 14.5299 1.78154 14.4694 1.74153C14.409 1.70153 14.3475 1.66301 14.2851 1.62599C14.2227 1.58897 14.1595 1.55349 14.0953 1.51955C14.0311 1.4856 13.9662 1.45323 13.9004 1.42245C13.8347 1.39166 13.7682 1.36249 13.701 1.33493C13.6338 1.30737 13.5659 1.28146 13.4974 1.25721C13.4289 1.23295 13.3599 1.21037 13.2903 1.18946C13.2207 1.16856 13.1506 1.14936 13.08 1.13186C13.0095 1.11437 12.9385 1.09859 12.8671 1.08455C12.7958 1.0705 12.7242 1.05819 12.6522 1.04762C12.5803 1.03706 12.5081 1.02825 12.4357 1.02119C12.3633 1.01413 12.2908 1.00883 12.2181 1.0053C12.1454 1.00177 12.0727 1 12 1C11.9273 1 11.8546 1.00177 11.7819 1.0053C11.7092 1.00883 11.6367 1.01413 11.5643 1.02119C11.4919 1.02825 11.4197 1.03706 11.3478 1.04762C11.2758 1.05819 11.2042 1.0705 11.1328 1.08455C11.0615 1.09859 10.9905 1.11437 10.92 1.13186C10.8494 1.14936 10.7793 1.16856 10.7097 1.18946C10.6401 1.21037 10.571 1.23295 10.5025 1.25721C10.4341 1.28146 10.3662 1.30737 10.299 1.33493C10.2318 1.36249 10.1653 1.39166 10.0995 1.42245C10.0338 1.45323 9.96883 1.4856 9.90469 1.51955C9.84054 1.55349 9.77727 1.58897 9.71486 1.62599C9.65245 1.66301 9.59101 1.70153 9.53054 1.74153C9.47007 1.78154 9.41061 1.82299 9.35217 1.86589C9.29374 1.90879 9.23641 1.95308 9.18018 1.99877C9.12395 2.04444 9.06889 2.09146 9.01499 2.13983C8.96109 2.18818 8.90841 2.23781 8.85696 2.28872C8.80554 2.33964 8.75539 2.39179 8.70652 2.44515C8.65769 2.4985 8.61019 2.55301 8.56405 2.60868C8.51791 2.66433 8.47317 2.72108 8.42981 2.77893C8.3865 2.83676 8.34463 2.89562 8.3042 2.9555C8.2638 3.01537 8.22488 3.07619 8.18747 3.13795C8.15007 3.19971 8.11423 3.26235 8.07995 3.32586C8.04567 3.38936 8.01295 3.45366 7.98185 3.51875C7.95074 3.58385 7.92128 3.64967 7.89345 3.71619C7.86562 3.78271 7.83942 3.84988 7.81492 3.91768C7.79041 3.98547 7.76762 4.05383 7.74648 4.12275C7.72537 4.19167 7.70598 4.26103 7.68829 4.33089C7.67063 4.40074 7.65468 4.47097 7.6405 4.54161C7.62631 4.61222 7.61388 4.68316 7.60321 4.75439C7.59255 4.82562 7.58364 4.89704 7.5765 4.96872C7.56938 5.04039 7.56402 5.11218 7.56045 5.1841C7.55688 5.25602 7.55509 5.32798 7.55509 5.4ZM21.9191 21.5342L18.3746 11.5728C18.206 11.1676 17.7967 10.9 17.3428 10.9L6.65719 10.9C6.20327 10.9 5.79401 11.1652 5.62534 11.5728L2.08084 21.5342C1.78816 22.2364 2.3264 23 3.11269 23L20.8898 23C21.6736 23 22.2118 22.2364 21.9191 21.5342ZM13.3667 20.4194C13.451 21.1658 12.9103 21.8411 12.1562 21.9246C11.4022 22.008 10.7226 21.4728 10.6358 20.7263C10.6234 20.6257 10.6258 20.5176 10.6358 20.4219L11.3997 13.7188L11.1666 13.7188C10.7201 13.7188 10.4572 13.2228 10.7102 12.8594L11.5436 11.6636C11.7643 11.3469 12.2356 11.3469 12.4539 11.6636L13.2873 12.8594C13.5403 13.2228 13.2774 13.7188 12.8309 13.7188L12.5978 13.7188L13.3667 20.4194Z"   fill="#336DF4" >
</path>
<rect x="9" y="11" width="6" height="11"   fill="#336DF4" >
</rect>
<path d="M13.9617 20.5686C14.0832 21.2793 12.2247 21.995 12.2247 21.995C11.139 22.0745 10.1555 21.5686 10.0305 20.8579C10.0126 20.762 10.0305 20.6598 10.0305 20.5686L11.1276 14.1845L10.7923 14.1845C10.1495 14.1845 9.77287 13.7126 10.1371 13.3666L11.3409 12.2294C11.6587 11.9278 12.337 11.9278 12.6513 12.2294L13.8551 13.3666C14.2193 13.7126 13.8275 14.1845 13.1846 14.1845L12.8494 14.1845L13.9617 20.5686Z"   fill="#33D6C0" >
</path>
</svg>
