<svg viewBox="0 0 14 15" fill="none" xmlns="http://www.w3.org/2000/svg">
<path fill-rule="evenodd" clip-rule="evenodd" d="M1.70945 7.39581C1.75126 4.50212 4.12761 2.1748 7.04584 2.1748C8.97576 2.1748 10.6673 3.1923 11.6043 4.71651C11.7309 4.92235 11.6666 5.1918 11.4607 5.31834C11.2549 5.44488 10.9855 5.3806 10.8589 5.17477C10.0756 3.90057 8.6614 3.0498 7.04584 3.0498C4.60496 3.0498 2.627 4.99096 2.58459 7.39457L2.81814 7.16284C2.98967 6.99266 3.26667 6.99375 3.43686 7.16527C3.60704 7.3368 3.60595 7.61381 3.43443 7.78399L2.45454 8.75621C2.28396 8.92545 2.00882 8.92545 1.83825 8.75621L0.858362 7.78399C0.686838 7.61381 0.68575 7.3368 0.855932 7.16527C1.02611 6.99375 1.30312 6.99266 1.47465 7.16284L1.70945 7.39581ZM11.5419 6.96781C11.7124 6.79936 11.9866 6.79936 12.157 6.96781L13.1407 7.94003C13.3125 8.10989 13.3141 8.38689 13.1443 8.55874C12.9744 8.73059 12.6974 8.73221 12.5256 8.56235L12.2864 8.32602C12.246 11.2225 9.85915 13.5498 6.93129 13.5498C4.99538 13.5498 3.29789 12.533 2.3572 11.0087C2.23031 10.8031 2.29413 10.5336 2.49975 10.4067C2.70537 10.2798 2.97493 10.3436 3.10182 10.5492C3.8881 11.8233 5.30816 12.6748 6.93129 12.6748C9.38492 12.6748 11.3703 10.7306 11.4113 8.32717L11.1734 8.56235C11.0015 8.73221 10.7245 8.73059 10.5547 8.55874C10.3848 8.38689 10.3864 8.10989 10.5583 7.94003L11.5419 6.96781Z"/>
</svg>
