<svg xmlns="http://www.w3.org/2000/svg" xmlns:xlink="http://www.w3.org/1999/xlink" viewBox="0 0 24 24" fill="none">
<path d="M12.2619 2C12.2816 2 12.3014 2.0004 12.3211 2.00119C12.3408 2.00198 12.3605 2.00316 12.3802 2.00474C12.3999 2.00632 12.4195 2.00829 12.4391 2.01065C12.4587 2.01301 12.4783 2.01576 12.4978 2.01891C12.5173 2.02205 12.5367 2.02559 12.5561 2.02951C12.5755 2.03343 12.5948 2.03773 12.614 2.04242C12.6333 2.04712 12.6524 2.05219 12.6715 2.05765C12.6905 2.0631 12.7094 2.06894 12.7283 2.07515C12.7471 2.08137 12.7659 2.08795 12.7845 2.09492C12.8031 2.10188 12.8216 2.10921 12.8399 2.11691C12.8582 2.12461 12.8765 2.13267 12.8945 2.1411C12.9126 2.14953 12.9305 2.15832 12.9483 2.16746C12.966 2.1766 12.9836 2.1861 13.001 2.19594C13.0184 2.20579 13.0356 2.21598 13.0527 2.22651C13.0697 2.23705 13.0866 2.24792 13.1033 2.25913C13.1199 2.27033 13.1364 2.28187 13.1526 2.29373C13.1689 2.3056 13.1849 2.31779 13.2008 2.33029C13.2166 2.3428 13.2322 2.35562 13.2475 2.36874C13.2629 2.38187 13.278 2.3953 13.2929 2.40903C13.3078 2.42278 13.3225 2.43681 13.3369 2.45111C13.3513 2.46544 13.3654 2.48004 13.3792 2.49491C13.3931 2.50981 13.4067 2.52497 13.4201 2.54038C13.4334 2.55582 13.4465 2.5715 13.4592 2.58744C13.472 2.6034 13.4845 2.61959 13.4967 2.63603C13.5089 2.65249 13.5208 2.66919 13.5324 2.68611C13.544 2.70302 13.5553 2.72017 13.5663 2.73754C13.5773 2.75492 13.588 2.77251 13.5984 2.79031C13.6088 2.80812 13.6188 2.82612 13.6286 2.84432C13.6383 2.86253 13.6477 2.88092 13.6568 2.8995C13.6659 2.91807 13.6746 2.93683 13.683 2.95577C13.6915 2.9747 13.6995 2.99379 13.7073 3.01304C13.715 3.03229 13.7224 3.05169 13.7295 3.07124C13.7365 3.09079 13.7432 3.11047 13.7496 3.13028C13.7559 3.1501 13.7619 3.17004 13.7676 3.1901C13.7732 3.21015 13.7785 3.23031 13.7834 3.25057C13.7883 3.27084 13.7929 3.2912 13.7971 3.31163C13.8013 3.33208 13.8052 3.35262 13.8086 3.37322C13.8121 3.39383 13.8152 3.41449 13.8179 3.4352C13.8207 3.45593 13.8231 3.47671 13.8251 3.49754C13.8271 3.51836 13.8287 3.53921 13.83 3.5601C13.8312 3.58098 13.8321 3.60189 13.8326 3.62281C13.8331 3.64372 13.8333 3.66465 13.8331 3.68559C13.8328 3.70651 13.8322 3.72742 13.8313 3.74833C13.8303 3.76923 13.829 3.7901 13.8273 3.81096C13.8256 3.83181 13.8235 3.85262 13.821 3.87338C13.8186 3.89414 13.8158 3.91486 13.8126 3.93551C13.8094 3.95617 13.8058 3.97676 13.8019 3.99726C13.798 4.01778 13.7938 4.03821 13.7891 4.05856C13.7845 4.07889 13.7795 4.09913 13.7741 4.11929C13.7687 4.13943 13.763 4.15945 13.757 4.17937C13.7509 4.19928 13.7445 4.21906 13.7377 4.23872C13.7309 4.25837 13.7238 4.27788 13.7163 4.29726C13.7089 4.31663 13.7011 4.33585 13.6929 4.35491C13.6848 4.37398 13.6763 4.39287 13.6675 4.41158C13.6587 4.43031 13.6495 4.44886 13.64 4.46721C13.6306 4.48557 13.6208 4.50374 13.6106 4.52169C13.6005 4.53965 13.5901 4.55742 13.5793 4.57497C13.5686 4.59252 13.5575 4.60984 13.5461 4.62695C13.5347 4.64404 13.5231 4.66091 13.5111 4.67758C13.4991 4.69419 13.4869 4.7106 13.4743 4.72675C13.4618 4.74289 13.449 4.7588 13.4358 4.77443C13.4227 4.79005 13.4093 4.80544 13.3957 4.82055C13.382 4.83565 13.3681 4.85047 13.3539 4.86503C13.3397 4.87956 13.3253 4.8938 13.3106 4.90779L13.3095 6.44445L17.2381 6.44445C17.2876 6.44445 17.3371 6.44568 17.3866 6.44818C17.436 6.45063 17.4854 6.45435 17.5347 6.45932C17.584 6.46427 17.6331 6.47044 17.6822 6.47787C17.7312 6.48526 17.78 6.49391 17.8286 6.50378C17.8773 6.51365 17.9256 6.52474 17.9738 6.53703C18.0219 6.5493 18.0698 6.56279 18.1173 6.57748C18.1648 6.59216 18.212 6.60802 18.2589 6.62511C18.3057 6.64214 18.3521 6.66037 18.3981 6.67974C18.4442 6.69912 18.4897 6.71966 18.5348 6.74133C18.5799 6.76297 18.6245 6.78576 18.6686 6.80966C18.7127 6.83357 18.7562 6.85854 18.7992 6.88464C18.8422 6.91071 18.8846 6.93784 18.9263 6.96607C18.9681 6.99427 19.0092 7.02352 19.0496 7.05378C19.0901 7.08404 19.1299 7.11529 19.169 7.14758C19.208 7.17982 19.2463 7.21305 19.2839 7.24724C19.3215 7.28141 19.3583 7.31651 19.3944 7.35255C19.4304 7.38857 19.4656 7.42547 19.5 7.46328C19.5344 7.50104 19.5679 7.53969 19.6005 7.57917C19.6332 7.61865 19.665 7.65891 19.6958 7.69998C19.7267 7.74102 19.7566 7.78284 19.7856 7.82542C19.8146 7.86797 19.8427 7.91125 19.8697 7.95521C19.8968 7.99917 19.9229 8.0438 19.948 8.08909C19.973 8.13435 19.9971 8.18024 20.0202 8.22672C20.0432 8.27321 20.0652 8.32024 20.0861 8.36784C20.1071 8.41542 20.1269 8.46349 20.1457 8.51209C20.1646 8.56065 20.1823 8.60969 20.1989 8.65917C20.2155 8.70862 20.231 8.75847 20.2454 8.80873C20.2598 8.85899 20.2731 8.90956 20.2852 8.96047C20.2973 9.01138 20.3083 9.06258 20.3182 9.11404C20.3281 9.1655 20.3368 9.21716 20.3443 9.26909C20.3519 9.32097 20.3583 9.37302 20.3635 9.42526C20.3687 9.47748 20.3728 9.52979 20.3757 9.58224L20.3809 9.77779L20.3809 18.6667C20.3809 18.7192 20.3798 18.7717 20.3775 18.8241C20.3751 18.8766 20.3716 18.929 20.3669 18.9813C20.3623 19.0335 20.3564 19.0857 20.3494 19.1377C20.3424 19.1896 20.3343 19.2414 20.325 19.293C20.3157 19.3446 20.3053 19.3959 20.2937 19.447C20.2821 19.498 20.2694 19.5488 20.2555 19.5992C20.2417 19.6496 20.2267 19.6996 20.2106 19.7493C20.1946 19.799 20.1774 19.8482 20.1591 19.897C20.1408 19.9458 20.1215 19.9941 20.1011 20.042C20.0806 20.0898 20.0591 20.1371 20.0366 20.1839C20.0141 20.2307 19.9905 20.2768 19.9659 20.3224C19.9413 20.368 19.9157 20.4129 19.8891 20.4572C19.8625 20.5015 19.835 20.5451 19.8064 20.5881C19.7779 20.631 19.7484 20.6731 19.718 20.7146C19.6876 20.756 19.6563 20.7966 19.6241 20.8365C19.5918 20.8764 19.5587 20.9154 19.5248 20.9537C19.4908 20.9918 19.456 21.0292 19.4204 21.0657C19.3847 21.1021 19.3483 21.1377 19.3111 21.1723C19.2739 21.2069 19.2359 21.2406 19.1972 21.2734C19.1584 21.3061 19.119 21.3378 19.0789 21.3686C19.0388 21.3994 18.998 21.4291 18.9565 21.4578C18.915 21.4865 18.873 21.5142 18.8303 21.5408C18.7876 21.5674 18.7443 21.5929 18.7005 21.6174C18.6567 21.6418 18.6123 21.6651 18.5675 21.6873C18.5226 21.7095 18.4773 21.7306 18.4315 21.7506C18.3857 21.7705 18.3394 21.7893 18.2928 21.8069C18.2462 21.8245 18.1991 21.841 18.1518 21.8562C18.1044 21.8715 18.0567 21.8856 18.0087 21.8984C17.9607 21.9113 17.9124 21.923 17.8639 21.9334C17.8154 21.9439 17.7667 21.9531 17.7177 21.9612C17.6688 21.9692 17.6197 21.9759 17.5705 21.9815C17.5212 21.9871 17.4719 21.9914 17.4225 21.9945L17.2381 22L6.76191 22C6.71239 22 6.66291 21.9988 6.61344 21.9963C6.56399 21.9938 6.51461 21.9901 6.46531 21.9852C6.41603 21.9802 6.36687 21.974 6.31786 21.9666C6.26883 21.9592 6.22002 21.9505 6.17137 21.9407C6.12273 21.9308 6.07436 21.9197 6.02621 21.9075C5.97806 21.8952 5.93023 21.8817 5.8827 21.867C5.83516 21.8523 5.78797 21.8364 5.74115 21.8194C5.69432 21.8023 5.64789 21.7841 5.60188 21.7647C5.55584 21.7453 5.51029 21.7248 5.46519 21.7032C5.42008 21.6815 5.37547 21.6587 5.3314 21.6348C5.2873 21.6109 5.24377 21.5859 5.2008 21.5598C5.15783 21.5337 5.11545 21.5066 5.07368 21.4784C5.03192 21.4502 4.99081 21.4209 4.95035 21.3907C4.90989 21.3604 4.87011 21.3291 4.83104 21.2969C4.79198 21.2646 4.75365 21.2314 4.71606 21.1972C4.67847 21.1631 4.64164 21.128 4.60562 21.0919C4.5696 21.0559 4.53441 21.019 4.50001 20.9812C4.46564 20.9434 4.43212 20.9048 4.39947 20.8653C4.36681 20.8258 4.33504 20.7856 4.30417 20.7445C4.27331 20.7034 4.24338 20.6616 4.21438 20.619C4.18538 20.5765 4.15734 20.5332 4.13026 20.4893C4.10318 20.4453 4.0771 20.4006 4.05203 20.3554C4.02696 20.3101 4.0029 20.2642 3.97985 20.2177C3.95681 20.1712 3.93481 20.1242 3.91387 20.0766C3.89293 20.029 3.87306 19.981 3.85425 19.9324C3.83545 19.8838 3.81774 19.8348 3.80112 19.7853C3.7845 19.7358 3.769 19.686 3.75462 19.6357C3.74023 19.5855 3.72697 19.5349 3.71481 19.484C3.70266 19.4331 3.69166 19.3819 3.68181 19.3304C3.67197 19.279 3.66325 19.2273 3.65569 19.1754C3.64813 19.1235 3.64172 19.0714 3.63649 19.0192C3.63126 18.967 3.62718 18.9146 3.62429 18.8622L3.61906 18.6667L3.61906 9.77779C3.61906 9.72526 3.62021 9.67279 3.62254 9.62034C3.62487 9.56787 3.62839 9.5155 3.63305 9.46323C3.63774 9.41094 3.64356 9.3588 3.65056 9.30683C3.65756 9.25482 3.66568 9.20302 3.67499 9.15146C3.68429 9.09987 3.69473 9.04854 3.70632 8.9975C3.71791 8.94646 3.73063 8.89571 3.74448 8.84529C3.75832 8.79487 3.77328 8.74482 3.78936 8.69516C3.80544 8.64547 3.82263 8.59625 3.8409 8.54745C3.85916 8.49865 3.87851 8.45032 3.89894 8.40248C3.91937 8.35464 3.94085 8.30735 3.96339 8.26058C3.98591 8.2138 4.00948 8.16763 4.03408 8.12206C4.05866 8.07649 4.08427 8.03154 4.11086 7.98724C4.13745 7.94295 4.165 7.89935 4.19356 7.85643C4.22209 7.81352 4.25156 7.77133 4.28198 7.7299C4.3124 7.68844 4.34373 7.64779 4.37594 7.60794C4.40818 7.56808 4.44128 7.52904 4.47524 7.49084C4.50922 7.45261 4.54401 7.41529 4.57964 7.37883C4.61527 7.34235 4.6517 7.3068 4.68893 7.27216C4.72613 7.23753 4.76411 7.20383 4.80283 7.17112C4.84155 7.13836 4.88096 7.10662 4.92111 7.07586C4.96123 7.04511 5.00201 7.01537 5.04348 6.98667C5.08495 6.95794 5.12701 6.93029 5.16971 6.90367C5.21241 6.87706 5.25565 6.85154 5.29948 6.82711C5.34331 6.80268 5.38765 6.77935 5.43251 6.75714C5.47737 6.73492 5.52272 6.71386 5.56854 6.69391C5.61433 6.67396 5.66056 6.65518 5.70719 6.63758C5.75384 6.61995 5.80086 6.60349 5.84823 6.58823C5.89559 6.57297 5.9433 6.55888 5.9913 6.54602C6.0393 6.53315 6.08755 6.52149 6.13609 6.51102C6.18461 6.50055 6.23332 6.49133 6.28226 6.48331C6.33119 6.47529 6.3803 6.46852 6.42953 6.46297C6.47876 6.4574 6.52809 6.45307 6.57752 6.45L6.76191 6.44445L11.2143 6.44445L11.2143 4.90891C11.1996 4.89495 11.1851 4.88068 11.1709 4.86615C11.1567 4.85162 11.1427 4.8368 11.1291 4.82169C11.1154 4.80659 11.102 4.79125 11.0888 4.77563C11.0757 4.75997 11.0629 4.74409 11.0503 4.72794C11.0377 4.7118 11.0254 4.69539 11.0134 4.67878C11.0015 4.66214 10.9898 4.64526 10.9784 4.62818C10.967 4.61107 10.9559 4.59374 10.9451 4.57619C10.9343 4.55866 10.9239 4.5409 10.9137 4.52294C10.9036 4.50497 10.8938 4.48681 10.8843 4.46846C10.8748 4.45009 10.8656 4.43155 10.8568 4.41283C10.848 4.39412 10.8395 4.37523 10.8313 4.35616C10.8231 4.3371 10.8153 4.31788 10.8078 4.29851C10.8003 4.27913 10.7932 4.25961 10.7864 4.23994C10.7796 4.22029 10.7732 4.2005 10.7671 4.18057C10.761 4.16065 10.7553 4.14063 10.7499 4.12049C10.7445 4.10033 10.7395 4.08008 10.7349 4.05973C10.7302 4.03939 10.7259 4.01895 10.722 3.99843C10.718 3.97791 10.7145 3.95732 10.7113 3.93666C10.7081 3.916 10.7052 3.89528 10.7028 3.8745C10.7003 3.85373 10.6982 3.83292 10.6965 3.81205C10.6948 3.7912 10.6934 3.77031 10.6924 3.74939C10.6915 3.72849 10.6909 3.70757 10.6906 3.68663C10.6904 3.6657 10.6905 3.64476 10.691 3.62382C10.6915 3.6029 10.6924 3.58199 10.6937 3.56109C10.6949 3.54018 10.6965 3.51932 10.6985 3.49848C10.7005 3.47767 10.7029 3.45689 10.7056 3.43614C10.7083 3.41541 10.7115 3.39473 10.7149 3.37411C10.7184 3.3535 10.7222 3.33296 10.7264 3.31249C10.7306 3.29204 10.7351 3.27168 10.7401 3.2514C10.745 3.23112 10.7503 3.21095 10.7559 3.19088C10.7615 3.17081 10.7675 3.15086 10.7739 3.13103C10.7802 3.11121 10.7869 3.09151 10.794 3.07195C10.801 3.0524 10.8084 3.03299 10.8161 3.01372C10.8239 2.99446 10.8319 2.97536 10.8404 2.9564C10.8488 2.93746 10.8575 2.9187 10.8666 2.90012C10.8757 2.88153 10.8851 2.86312 10.8948 2.84489C10.9045 2.82668 10.9146 2.80866 10.925 2.79085C10.9354 2.77304 10.946 2.75544 10.957 2.73804C10.968 2.72066 10.9793 2.7035 10.9909 2.68655C11.0026 2.66963 11.0145 2.65294 11.0267 2.63648C11.0389 2.62002 11.0513 2.60381 11.0641 2.58786C11.0769 2.57189 11.09 2.55618 11.1033 2.54075C11.1166 2.52531 11.1303 2.51015 11.1441 2.49525C11.158 2.48036 11.1721 2.46575 11.1865 2.45142C11.2009 2.43708 11.2156 2.42305 11.2305 2.40932C11.2454 2.39557 11.2605 2.38212 11.2759 2.36898C11.2912 2.35584 11.3068 2.34302 11.3227 2.3305C11.3385 2.31798 11.3545 2.30579 11.3708 2.29392C11.387 2.28204 11.4035 2.2705 11.4202 2.25928C11.4369 2.24806 11.4537 2.23719 11.4708 2.22664C11.4878 2.2161 11.5051 2.2059 11.5225 2.19605C11.5399 2.1862 11.5575 2.1767 11.5752 2.16755C11.593 2.1584 11.6109 2.14961 11.629 2.14117C11.6471 2.13274 11.6653 2.12467 11.6836 2.11697C11.702 2.10926 11.7205 2.10193 11.7391 2.09496C11.7577 2.08799 11.7765 2.0814 11.7953 2.07518C11.8142 2.06896 11.8331 2.06312 11.8522 2.05766C11.8712 2.0522 11.8904 2.04713 11.9096 2.04243C11.9288 2.03774 11.9482 2.03343 11.9676 2.02951C11.987 2.02558 12.0064 2.02205 12.0259 2.01891C12.0454 2.01576 12.065 2.01301 12.0846 2.01065C12.1043 2.00828 12.1239 2.00631 12.1436 2.00473C12.1633 2.00316 12.183 2.00197 12.2027 2.00118C12.2224 2.0004 12.2422 2 12.2619 2ZM13.5714 15.3333L10.4286 15.3333C10.4121 15.3333 10.3956 15.3338 10.3791 15.3346C10.3626 15.3355 10.3462 15.3368 10.3298 15.3384C10.3134 15.3401 10.297 15.3421 10.2807 15.3446C10.2644 15.3471 10.2481 15.35 10.2319 15.3533C10.2157 15.3566 10.1996 15.3603 10.1836 15.3645C10.1675 15.3686 10.1516 15.3731 10.1358 15.378C10.1199 15.3829 10.1042 15.3882 10.0886 15.3939C10.073 15.3996 10.0576 15.4057 10.0422 15.4121C10.0269 15.4186 10.0117 15.4254 9.99675 15.4327C9.98172 15.4399 9.96687 15.4475 9.95218 15.4555C9.93752 15.4635 9.92301 15.4718 9.9087 15.4805C9.89438 15.4892 9.88029 15.4982 9.86639 15.5077C9.85247 15.5171 9.83879 15.5268 9.82531 15.5369C9.81183 15.547 9.7986 15.5574 9.78561 15.5682C9.7726 15.5789 9.75983 15.59 9.74733 15.6014C9.73481 15.6128 9.72256 15.6245 9.71058 15.6365C9.69857 15.6485 9.68686 15.6608 9.67541 15.6734C9.66397 15.686 9.6528 15.6989 9.64192 15.712C9.63105 15.7252 9.62049 15.7386 9.61022 15.7523C9.59994 15.766 9.58997 15.7799 9.58032 15.7941C9.57067 15.8083 9.56134 15.8227 9.55233 15.8373C9.54332 15.852 9.53462 15.8669 9.52628 15.882C9.51793 15.897 9.50992 15.9123 9.50226 15.9278C9.49458 15.9433 9.48726 15.959 9.48029 15.9748C9.47334 15.9907 9.46671 16.0067 9.46045 16.0229C9.45419 16.039 9.44829 16.0554 9.44277 16.0719C9.43724 16.0883 9.43209 16.105 9.4273 16.1217C9.42251 16.1384 9.41809 16.1553 9.41404 16.1722C9.40999 16.1892 9.40633 16.2063 9.40307 16.2234C9.39978 16.2405 9.39688 16.2577 9.39437 16.275C9.39184 16.2923 9.38973 16.3097 9.38799 16.3271C9.38625 16.3445 9.38487 16.3619 9.38391 16.3794C9.38296 16.3968 9.38237 16.4143 9.38217 16.4318C9.382 16.4492 9.3822 16.4667 9.38278 16.4842C9.38337 16.5017 9.38436 16.5191 9.38573 16.5366C9.38708 16.554 9.38885 16.5714 9.39099 16.5888C9.39312 16.6061 9.39565 16.6234 9.39857 16.6406C9.40149 16.6578 9.40479 16.675 9.40844 16.692C9.41213 16.709 9.41618 16.726 9.4206 16.7429C9.42504 16.7597 9.42983 16.7764 9.43501 16.7931C9.44019 16.8097 9.44572 16.8261 9.45163 16.8425C9.45755 16.8588 9.46381 16.875 9.47044 16.891C9.47707 16.907 9.48404 16.9228 9.49139 16.9385C9.49873 16.9542 9.50639 16.9696 9.51442 16.985C9.52245 17.0002 9.53079 17.0153 9.53949 17.0302C9.54818 17.045 9.55719 17.0596 9.56654 17.0741C9.5759 17.0885 9.58555 17.1027 9.59552 17.1166C9.60551 17.1305 9.6158 17.1442 9.62638 17.1576C9.63696 17.171 9.64784 17.1842 9.65901 17.197C9.67018 17.2099 9.68163 17.2225 9.69336 17.2348C9.70508 17.2471 9.71708 17.2591 9.72936 17.2708C9.74161 17.2825 9.75413 17.2938 9.7669 17.3049C9.77969 17.316 9.79271 17.3267 9.80594 17.3371C9.81918 17.3476 9.83265 17.3576 9.84636 17.3674C9.86006 17.3771 9.87398 17.3865 9.8881 17.3956C9.90222 17.4046 9.91651 17.4133 9.93102 17.4216C9.94553 17.4299 9.96021 17.4379 9.97507 17.4455C9.98992 17.4531 10.0049 17.4603 10.0201 17.4671C10.0353 17.4739 10.0506 17.4804 10.0661 17.4865C10.0816 17.4926 10.0971 17.4982 10.1129 17.5035C10.1286 17.5088 10.1444 17.5137 10.1604 17.5182C10.1763 17.5227 10.1923 17.5268 10.2084 17.5305C10.2246 17.5342 10.2408 17.5375 10.257 17.5404C10.2733 17.5432 10.2896 17.5457 10.306 17.5478L10.4286 17.5556L13.5714 17.5556C13.5886 17.5556 13.6057 17.5551 13.6228 17.5542C13.6399 17.5533 13.657 17.5519 13.674 17.5501C13.6911 17.5483 13.7081 17.5461 13.725 17.5434C13.742 17.5407 13.7589 17.5376 13.7757 17.534C13.7925 17.5305 13.8092 17.5265 13.8258 17.5221C13.8424 17.5176 13.8589 17.5127 13.8753 17.5075C13.8917 17.5022 13.908 17.4965 13.9241 17.4903C13.9402 17.4842 13.9562 17.4776 13.972 17.4707C13.9879 17.4637 14.0035 17.4563 14.019 17.4486C14.0345 17.4408 14.0498 17.4326 14.0649 17.424C14.08 17.4154 14.0949 17.4065 14.1096 17.3971C14.1243 17.3878 14.1387 17.3781 14.153 17.3679C14.1672 17.3578 14.1812 17.3474 14.195 17.3365C14.2087 17.3257 14.2222 17.3145 14.2355 17.303C14.2487 17.2914 14.2617 17.2795 14.2743 17.2673C14.287 17.2551 14.2994 17.2426 14.3115 17.2297C14.3237 17.2169 14.3355 17.2037 14.347 17.1903C14.3585 17.1768 14.3696 17.163 14.3805 17.149C14.3914 17.1349 14.4019 17.1206 14.4121 17.106C14.4223 17.0914 14.4322 17.0765 14.4417 17.0614C14.4512 17.0463 14.4603 17.0309 14.4692 17.0154C14.478 16.9998 14.4864 16.984 14.4945 16.9679C14.5025 16.9519 14.5102 16.9357 14.5176 16.9193C14.5249 16.9028 14.5318 16.8862 14.5384 16.8694C14.5449 16.8526 14.5511 16.8357 14.5569 16.8185C14.5626 16.8014 14.568 16.7842 14.573 16.7668C14.578 16.7494 14.5825 16.7319 14.5867 16.7143C14.5908 16.6966 14.5946 16.6789 14.5979 16.6611C14.6013 16.6433 14.6042 16.6254 14.6067 16.6074C14.6092 16.5894 14.6113 16.5714 14.613 16.5533C14.6147 16.5352 14.6159 16.5171 14.6168 16.4989C14.6176 16.4808 14.618 16.4626 14.618 16.4445C14.618 16.4263 14.6176 16.4081 14.6168 16.39C14.6159 16.3718 14.6147 16.3537 14.613 16.3356C14.6113 16.3175 14.6092 16.2995 14.6067 16.2815C14.6042 16.2635 14.6013 16.2456 14.5979 16.2278C14.5946 16.21 14.5908 16.1923 14.5867 16.1746C14.5825 16.157 14.578 16.1395 14.573 16.1221C14.568 16.1047 14.5626 16.0875 14.5569 16.0704C14.5511 16.0532 14.5449 16.0363 14.5384 16.0195C14.5318 16.0027 14.5249 15.9861 14.5176 15.9697C14.5102 15.9532 14.5025 15.937 14.4945 15.921C14.4864 15.905 14.478 15.8891 14.4692 15.8735C14.4603 15.8579 14.4512 15.8426 14.4417 15.8275C14.4322 15.8124 14.4223 15.7975 14.4121 15.7829C14.4019 15.7683 14.3914 15.754 14.3805 15.74C14.3696 15.7259 14.3585 15.7121 14.347 15.6987C14.3355 15.6852 14.3237 15.672 14.3115 15.6592C14.2994 15.6463 14.287 15.6338 14.2743 15.6216C14.2617 15.6094 14.2487 15.5975 14.2355 15.5859C14.2222 15.5744 14.2087 15.5632 14.195 15.5524C14.1812 15.5416 14.1672 15.5311 14.153 15.521C14.1387 15.5109 14.1243 15.5011 14.1096 15.4918C14.0949 15.4824 14.08 15.4735 14.0649 15.4649C14.0498 15.4563 14.0345 15.4481 14.019 15.4404C14.0035 15.4326 13.9879 15.4252 13.972 15.4182C13.9562 15.4113 13.9402 15.4047 13.9241 15.3986C13.908 15.3925 13.8917 15.3867 13.8753 15.3814C13.8589 15.3762 13.8424 15.3713 13.8258 15.3669C13.8092 15.3624 13.7925 15.3584 13.7757 15.3549C13.7589 15.3513 13.742 15.3482 13.725 15.3455C13.7081 15.3428 13.6911 15.3406 13.674 15.3388C13.657 15.337 13.6399 15.3356 13.6228 15.3347C13.6057 15.3338 13.5886 15.3333 13.5714 15.3333ZM9.11905 10.8889C9.09335 10.8889 9.06764 10.8896 9.04193 10.8909C9.01625 10.8922 8.99062 10.8942 8.96503 10.8969C8.93942 10.8996 8.91391 10.9029 8.88847 10.9069C8.86304 10.9109 8.8377 10.9156 8.81248 10.9209C8.78726 10.9262 8.76217 10.9322 8.73722 10.9389C8.71228 10.9455 8.6875 10.9527 8.66287 10.9607C8.63827 10.9686 8.61386 10.9771 8.58966 10.9863C8.56542 10.9955 8.54143 11.0053 8.51769 11.0158C8.49392 11.0262 8.47042 11.0372 8.44717 11.0489C8.42392 11.0606 8.40096 11.0728 8.37827 11.0857C8.35561 11.0985 8.33324 11.112 8.31117 11.126C8.28909 11.14 8.26739 11.1546 8.246 11.1698C8.22462 11.1849 8.2036 11.2006 8.18295 11.2169C8.1623 11.2331 8.14202 11.2499 8.12213 11.2672C8.10227 11.2845 8.0828 11.3023 8.06374 11.3207C8.04469 11.339 8.02608 11.3578 8.00788 11.3771C7.98969 11.3963 7.97196 11.4161 7.9547 11.4363C7.93744 11.4565 7.92064 11.4771 7.90432 11.4982C7.88799 11.5193 7.87218 11.5408 7.85685 11.5627C7.84153 11.5846 7.82673 11.6069 7.81246 11.6296C7.79817 11.6523 7.78442 11.6753 7.77119 11.6987C7.75795 11.7221 7.74528 11.7458 7.73318 11.7699C7.72105 11.794 7.70948 11.8183 7.69848 11.843C7.68751 11.8676 7.67707 11.8926 7.66723 11.9178C7.65738 11.9429 7.64815 11.9684 7.63948 11.9941C7.63081 12.0198 7.62276 12.0457 7.61527 12.0717C7.60781 12.0978 7.60096 12.1241 7.59472 12.1506C7.58846 12.1771 7.58284 12.2036 7.5778 12.2304C7.57279 12.2572 7.5684 12.284 7.56462 12.311C7.56086 12.338 7.55772 12.3651 7.55519 12.3922C7.55266 12.4194 7.55077 12.4465 7.54952 12.4738C7.54826 12.501 7.54763 12.5283 7.54763 12.5556C7.54763 12.5828 7.54826 12.6101 7.54952 12.6373C7.55077 12.6646 7.55266 12.6918 7.55519 12.7189C7.55772 12.7461 7.56086 12.7731 7.56462 12.8001C7.5684 12.8271 7.57279 12.8539 7.5778 12.8807C7.58284 12.9075 7.58846 12.9341 7.59472 12.9605C7.60096 12.987 7.60781 13.0133 7.61527 13.0394C7.62276 13.0655 7.63081 13.0914 7.63948 13.1171C7.64815 13.1427 7.65738 13.1682 7.66723 13.1934C7.67707 13.2186 7.68751 13.2435 7.69848 13.2682C7.70948 13.2928 7.72105 13.3172 7.73318 13.3412C7.74528 13.3653 7.75795 13.389 7.77119 13.4124C7.78442 13.4358 7.79817 13.4588 7.81246 13.4815C7.82673 13.5042 7.84153 13.5265 7.85685 13.5484C7.87218 13.5703 7.88799 13.5918 7.90432 13.6129C7.92064 13.634 7.93744 13.6546 7.9547 13.6748C7.97196 13.695 7.98969 13.7148 8.00788 13.7341C8.02608 13.7533 8.04469 13.7722 8.06374 13.7905C8.0828 13.8088 8.10227 13.8266 8.12213 13.8439C8.14202 13.8612 8.1623 13.878 8.18295 13.8942C8.2036 13.9105 8.22462 13.9262 8.246 13.9414C8.26739 13.9565 8.28909 13.9711 8.31117 13.9851C8.33324 13.9991 8.35561 14.0126 8.37827 14.0254C8.40096 14.0383 8.42392 14.0506 8.44717 14.0622C8.47042 14.0739 8.49392 14.0849 8.51769 14.0954C8.54143 14.1058 8.56542 14.1156 8.58966 14.1248C8.61386 14.134 8.63827 14.1426 8.66287 14.1505C8.6875 14.1584 8.71228 14.1657 8.73722 14.1723C8.76217 14.1789 8.78726 14.1849 8.81248 14.1902C8.8377 14.1955 8.86304 14.2002 8.88847 14.2042C8.91391 14.2082 8.93942 14.2115 8.96503 14.2142C8.99062 14.2169 9.01625 14.2189 9.04193 14.2202C9.06764 14.2216 9.09335 14.2222 9.11905 14.2222C9.14476 14.2222 9.17047 14.2216 9.19615 14.2202C9.22184 14.2189 9.24747 14.2169 9.27308 14.2142C9.29866 14.2115 9.32418 14.2082 9.34961 14.2042C9.37508 14.2002 9.40039 14.1955 9.42561 14.1902C9.45082 14.1849 9.47592 14.1789 9.50086 14.1723C9.52581 14.1657 9.55058 14.1584 9.57521 14.1505C9.59981 14.1426 9.62422 14.134 9.64845 14.1248C9.67266 14.1156 9.69665 14.1058 9.7204 14.0954C9.74416 14.0849 9.76766 14.0739 9.79091 14.0622C9.81417 14.0506 9.83712 14.0383 9.85981 14.0254C9.8825 14.0126 9.90487 13.9991 9.92692 13.9851C9.94899 13.9711 9.9707 13.9565 9.99208 13.9414C10.0135 13.9262 10.0345 13.9105 10.0551 13.8942C10.0758 13.878 10.0961 13.8612 10.116 13.8439C10.1358 13.8266 10.1553 13.8088 10.1743 13.7905C10.1934 13.7721 10.212 13.7533 10.2302 13.7341C10.2484 13.7148 10.2661 13.695 10.2834 13.6748C10.3007 13.6546 10.3175 13.634 10.3338 13.6129C10.3501 13.5918 10.3659 13.5703 10.3812 13.5484C10.3966 13.5265 10.4114 13.5042 10.4256 13.4815C10.4399 13.4588 10.4537 13.4358 10.4669 13.4124C10.4801 13.389 10.4928 13.3653 10.5049 13.3412C10.517 13.3172 10.5286 13.2928 10.5396 13.2682C10.5506 13.2435 10.561 13.2186 10.5709 13.1934C10.5807 13.1682 10.5899 13.1427 10.5986 13.1171C10.6073 13.0914 10.6153 13.0655 10.6228 13.0394C10.6303 13.0133 10.6371 12.987 10.6434 12.9605C10.6496 12.9341 10.6552 12.9075 10.6603 12.8807C10.6653 12.8539 10.6697 12.8271 10.6735 12.8001C10.6772 12.7731 10.6804 12.7461 10.6829 12.7189C10.6854 12.6918 10.6873 12.6646 10.6886 12.6373C10.6898 12.6101 10.6905 12.5828 10.6905 12.5556C10.6905 12.5283 10.6898 12.501 10.6886 12.4738C10.6873 12.4465 10.6854 12.4194 10.6829 12.3922C10.6804 12.3651 10.6772 12.338 10.6735 12.311C10.6697 12.284 10.6653 12.2572 10.6603 12.2304C10.6552 12.2036 10.6496 12.1771 10.6434 12.1506C10.6371 12.1241 10.6303 12.0978 10.6228 12.0717C10.6153 12.0457 10.6073 12.0198 10.5986 11.9941C10.5899 11.9684 10.5807 11.9429 10.5709 11.9178C10.561 11.8926 10.5506 11.8676 10.5396 11.843C10.5286 11.8183 10.517 11.794 10.5049 11.7699C10.4928 11.7458 10.4801 11.7221 10.4669 11.6987C10.4537 11.6753 10.4399 11.6523 10.4256 11.6296C10.4114 11.6069 10.3966 11.5846 10.3812 11.5627C10.3659 11.5408 10.3501 11.5193 10.3338 11.4982C10.3175 11.4771 10.3007 11.4565 10.2834 11.4363C10.2661 11.4161 10.2484 11.3963 10.2302 11.3771C10.212 11.3578 10.1934 11.339 10.1743 11.3207C10.1553 11.3023 10.1358 11.2845 10.116 11.2672C10.0961 11.2499 10.0758 11.2331 10.0551 11.2169C10.0345 11.2006 10.0135 11.1849 9.99208 11.1698C9.9707 11.1546 9.94899 11.14 9.92692 11.126C9.90487 11.112 9.8825 11.0985 9.85981 11.0857C9.83712 11.0728 9.81417 11.0606 9.79091 11.0489C9.76766 11.0372 9.74416 11.0262 9.7204 11.0158C9.69665 11.0053 9.67266 10.9955 9.64845 10.9863C9.62422 10.9771 9.59981 10.9686 9.57521 10.9607C9.55058 10.9527 9.52581 10.9455 9.50086 10.9389C9.47592 10.9322 9.45082 10.9262 9.42561 10.9209C9.40039 10.9156 9.37508 10.9109 9.34961 10.9069C9.32418 10.9029 9.29866 10.8996 9.27308 10.8969C9.24747 10.8942 9.22184 10.8922 9.19615 10.8909C9.17047 10.8896 9.14476 10.8889 9.11905 10.8889ZM15.4048 10.8889C15.3791 10.8889 15.3534 10.8896 15.3276 10.8909C15.302 10.8922 15.2763 10.8942 15.2507 10.8969C15.2251 10.8996 15.1996 10.9029 15.1742 10.9069C15.1487 10.9109 15.1234 10.9156 15.0982 10.9209C15.073 10.9262 15.0479 10.9322 15.0229 10.9389C14.998 10.9455 14.9732 10.9527 14.9486 10.9607C14.924 10.9686 14.8996 10.9771 14.8754 10.9863C14.8511 10.9955 14.8271 11.0053 14.8034 11.0158C14.7796 11.0262 14.7561 11.0372 14.7329 11.0489C14.7096 11.0606 14.6867 11.0728 14.664 11.0857C14.6413 11.0985 14.619 11.112 14.5969 11.126C14.5748 11.14 14.5531 11.1546 14.5317 11.1698C14.5103 11.1849 14.4893 11.2006 14.4687 11.2169C14.448 11.2331 14.4277 11.2499 14.4078 11.2672C14.388 11.2845 14.3685 11.3023 14.3495 11.3207C14.3304 11.339 14.3118 11.3578 14.2936 11.3771C14.2754 11.3963 14.2577 11.4161 14.2404 11.4363C14.2232 11.4565 14.2064 11.4771 14.19 11.4982C14.1737 11.5193 14.1579 11.5408 14.1426 11.5627C14.1272 11.5846 14.1124 11.6069 14.0982 11.6296C14.0839 11.6523 14.0701 11.6753 14.0569 11.6987C14.0437 11.7221 14.031 11.7458 14.0189 11.7699C14.0068 11.794 13.9952 11.8183 13.9842 11.843C13.9732 11.8676 13.9628 11.8926 13.9529 11.9178C13.9431 11.9429 13.9339 11.9684 13.9252 11.9941C13.9165 12.0198 13.9085 12.0457 13.901 12.0717C13.8935 12.0978 13.8867 12.1241 13.8804 12.1506C13.8742 12.1771 13.8686 12.2036 13.8635 12.2304C13.8585 12.2572 13.8541 12.284 13.8503 12.311C13.8466 12.338 13.8434 12.3651 13.8409 12.3922C13.8384 12.4194 13.8365 12.4465 13.8352 12.4738C13.834 12.501 13.8333 12.5283 13.8333 12.5556C13.8333 12.5828 13.834 12.6101 13.8352 12.6373C13.8365 12.6646 13.8384 12.6918 13.8409 12.7189C13.8434 12.7461 13.8466 12.7731 13.8503 12.8001C13.8541 12.8271 13.8585 12.8539 13.8635 12.8807C13.8686 12.9075 13.8742 12.9341 13.8804 12.9605C13.8867 12.987 13.8935 13.0133 13.901 13.0394C13.9085 13.0655 13.9165 13.0914 13.9252 13.1171C13.9339 13.1427 13.9431 13.1682 13.9529 13.1934C13.9628 13.2186 13.9732 13.2435 13.9842 13.2682C13.9952 13.2928 14.0068 13.3172 14.0189 13.3412C14.031 13.3653 14.0437 13.389 14.0569 13.4124C14.0701 13.4358 14.0839 13.4588 14.0982 13.4815C14.1124 13.5042 14.1272 13.5265 14.1426 13.5484C14.1579 13.5703 14.1737 13.5918 14.19 13.6129C14.2064 13.634 14.2232 13.6546 14.2404 13.6748C14.2577 13.695 14.2754 13.7148 14.2936 13.7341C14.3118 13.7533 14.3304 13.7722 14.3495 13.7905C14.3685 13.8088 14.388 13.8266 14.4078 13.8439C14.4277 13.8612 14.448 13.878 14.4687 13.8942C14.4893 13.9105 14.5103 13.9262 14.5317 13.9414C14.5531 13.9565 14.5748 13.9711 14.5969 13.9851C14.619 13.9991 14.6413 14.0126 14.664 14.0254C14.6867 14.0383 14.7096 14.0506 14.7329 14.0622C14.7561 14.0739 14.7796 14.0849 14.8034 14.0954C14.8271 14.1058 14.8511 14.1156 14.8754 14.1248C14.8996 14.134 14.924 14.1426 14.9486 14.1505C14.9732 14.1584 14.998 14.1657 15.0229 14.1723C15.0479 14.1789 15.073 14.1849 15.0982 14.1902C15.1234 14.1955 15.1487 14.2002 15.1742 14.2042C15.1996 14.2082 15.2251 14.2115 15.2507 14.2142C15.2763 14.2169 15.302 14.2189 15.3276 14.2202C15.3534 14.2216 15.3791 14.2222 15.4048 14.2222C15.4305 14.2222 15.4562 14.2216 15.4819 14.2202C15.5076 14.2189 15.5332 14.2169 15.5588 14.2142C15.5844 14.2115 15.6099 14.2082 15.6353 14.2042C15.6608 14.2002 15.6861 14.1955 15.7113 14.1902C15.7365 14.1849 15.7616 14.1789 15.7866 14.1723C15.8115 14.1657 15.8363 14.1584 15.8609 14.1505C15.8855 14.1426 15.9099 14.134 15.9342 14.1248C15.9584 14.1156 15.9824 14.1058 16.0061 14.0954C16.0299 14.0849 16.0534 14.0739 16.0766 14.0622C16.0999 14.0506 16.1228 14.0383 16.1455 14.0254C16.1682 14.0126 16.1906 13.9991 16.2126 13.9851C16.2347 13.9711 16.2564 13.9565 16.2778 13.9414C16.2992 13.9262 16.3202 13.9105 16.3409 13.8942C16.3615 13.878 16.3818 13.8612 16.4017 13.8439C16.4215 13.8266 16.441 13.8088 16.4601 13.7905C16.4791 13.7721 16.4977 13.7533 16.5159 13.7341C16.5341 13.7148 16.5518 13.695 16.5691 13.6748C16.5864 13.6546 16.6032 13.634 16.6195 13.6129C16.6358 13.5918 16.6516 13.5703 16.6669 13.5484C16.6823 13.5265 16.6971 13.5042 16.7114 13.4815C16.7257 13.4588 16.7394 13.4358 16.7526 13.4124C16.7658 13.389 16.7785 13.3653 16.7906 13.3412C16.8028 13.3172 16.8143 13.2928 16.8253 13.2682C16.8363 13.2435 16.8467 13.2186 16.8566 13.1934C16.8664 13.1682 16.8757 13.1427 16.8843 13.1171C16.893 13.0914 16.9011 13.0655 16.9085 13.0394C16.916 13.0133 16.9228 12.987 16.9291 12.9605C16.9353 12.9341 16.941 12.9075 16.946 12.8807C16.951 12.8539 16.9554 12.8271 16.9592 12.8001C16.9629 12.7731 16.9661 12.7461 16.9686 12.7189C16.9711 12.6918 16.973 12.6646 16.9743 12.6373C16.9756 12.6101 16.9762 12.5828 16.9762 12.5556C16.9762 12.5283 16.9756 12.501 16.9743 12.4738C16.973 12.4465 16.9711 12.4194 16.9686 12.3922C16.9661 12.3651 16.9629 12.338 16.9592 12.311C16.9554 12.284 16.951 12.2572 16.946 12.2304C16.941 12.2036 16.9353 12.1771 16.9291 12.1506C16.9228 12.1241 16.916 12.0978 16.9085 12.0717C16.9011 12.0457 16.893 12.0198 16.8843 11.9941C16.8757 11.9684 16.8664 11.9429 16.8566 11.9178C16.8467 11.8926 16.8363 11.8676 16.8253 11.843C16.8143 11.8183 16.8028 11.794 16.7906 11.7699C16.7785 11.7458 16.7658 11.7221 16.7526 11.6987C16.7394 11.6753 16.7257 11.6523 16.7114 11.6296C16.6971 11.6069 16.6823 11.5846 16.6669 11.5627C16.6516 11.5408 16.6358 11.5193 16.6195 11.4982C16.6032 11.4771 16.5864 11.4565 16.5691 11.4363C16.5518 11.4161 16.5341 11.3963 16.5159 11.3771C16.4977 11.3578 16.4791 11.339 16.4601 11.3207C16.441 11.3023 16.4215 11.2845 16.4017 11.2672C16.3818 11.2499 16.3615 11.2331 16.3409 11.2169C16.3202 11.2006 16.2992 11.1849 16.2778 11.1698C16.2564 11.1546 16.2347 11.14 16.2126 11.126C16.1906 11.112 16.1682 11.0985 16.1455 11.0857C16.1228 11.0728 16.0999 11.0606 16.0766 11.0489C16.0534 11.0372 16.0299 11.0262 16.0061 11.0158C15.9824 11.0053 15.9584 10.9955 15.9342 10.9863C15.9099 10.9771 15.8855 10.9686 15.8609 10.9607C15.8363 10.9527 15.8115 10.9455 15.7866 10.9389C15.7616 10.9322 15.7365 10.9262 15.7113 10.9209C15.6861 10.9156 15.6608 10.9109 15.6353 10.9069C15.6099 10.9029 15.5844 10.8996 15.5588 10.8969C15.5332 10.8942 15.5076 10.8922 15.4819 10.8909C15.4562 10.8896 15.4305 10.8889 15.4048 10.8889ZM2.04763 10.8889C2.06349 10.8889 2.07934 10.8893 2.09519 10.8901C2.11103 10.8908 2.12685 10.892 2.14265 10.8935C2.15844 10.895 2.1742 10.8969 2.18992 10.8992C2.20563 10.9015 2.22129 10.9042 2.23689 10.9072C2.2525 10.9102 2.26804 10.9136 2.28349 10.9175C2.29894 10.9213 2.3143 10.9254 2.32958 10.93C2.34487 10.9345 2.36004 10.9394 2.3751 10.9446C2.39017 10.9499 2.40512 10.9555 2.41993 10.9615C2.43476 10.9675 2.44945 10.9738 2.46401 10.9805C2.47856 10.9872 2.49296 10.9942 2.50722 11.0016C2.52148 11.009 2.53557 11.0167 2.5495 11.0248C2.56342 11.0328 2.57716 11.0412 2.59073 11.05C2.60428 11.0587 2.61765 11.0677 2.63082 11.0771C2.644 11.0865 2.65697 11.0961 2.66974 11.1061C2.68251 11.1161 2.69505 11.1264 2.70736 11.137C2.71968 11.1476 2.73177 11.1585 2.74362 11.1697C2.75547 11.1809 2.76709 11.1923 2.77846 11.2041C2.78982 11.2158 2.80093 11.2278 2.81178 11.2401C2.82262 11.2523 2.83319 11.2649 2.84351 11.2777C2.85382 11.2904 2.86385 11.3035 2.87361 11.3167C2.88336 11.33 2.89283 11.3435 2.90202 11.3572C2.91118 11.371 2.92006 11.3849 2.92866 11.3991C2.93723 11.4132 2.9455 11.4276 2.95346 11.4421C2.96143 11.4566 2.96908 11.4714 2.97642 11.4863C2.98375 11.5012 2.99076 11.5163 2.99746 11.5316C3.00414 11.5468 3.01049 11.5622 3.01651 11.5778C3.02255 11.5934 3.02825 11.6091 3.0336 11.6249C3.03895 11.6407 3.04396 11.6567 3.04863 11.6728C3.05331 11.6889 3.05764 11.705 3.06162 11.7213C3.06559 11.7376 3.06922 11.754 3.07249 11.7704C3.07577 11.7869 3.07869 11.8034 3.08126 11.8201C3.08383 11.8366 3.08605 11.8533 3.08791 11.87L3.09523 12L3.09523 16.4445C3.09521 16.462 3.09481 16.4794 3.09403 16.4969C3.09322 16.5144 3.09204 16.5318 3.09047 16.5492C3.08889 16.5666 3.08693 16.584 3.08457 16.6013C3.08223 16.6186 3.07951 16.6359 3.0764 16.6531C3.07327 16.6702 3.06977 16.6873 3.06591 16.7043C3.06203 16.7213 3.05778 16.7382 3.05314 16.755C3.04851 16.7718 3.04351 16.7885 3.03814 16.805C3.03277 16.8215 3.02704 16.8379 3.02096 16.8542C3.01485 16.8704 3.00838 16.8865 3.00156 16.9025C2.99475 16.9184 2.98759 16.9341 2.98007 16.9497C2.97254 16.9653 2.96468 16.9807 2.95648 16.9958C2.94828 17.011 2.93974 17.026 2.93087 17.0407C2.92201 17.0554 2.91282 17.07 2.90329 17.0843C2.89378 17.0985 2.88396 17.1126 2.87383 17.1264C2.86368 17.1402 2.85324 17.1537 2.8425 17.167C2.83175 17.1803 2.82071 17.1933 2.8094 17.206C2.79808 17.2187 2.78648 17.2311 2.77461 17.2433C2.76273 17.2554 2.75059 17.2672 2.7382 17.2788C2.72579 17.2903 2.71313 17.3015 2.70024 17.3124C2.68734 17.3233 2.6742 17.3339 2.66083 17.3441C2.64745 17.3544 2.63386 17.3643 2.62004 17.3738C2.60623 17.3834 2.59221 17.3926 2.57798 17.4014C2.56376 17.4103 2.54935 17.4188 2.53475 17.4269C2.52014 17.435 2.50537 17.4428 2.49043 17.4502C2.47548 17.4576 2.46038 17.4646 2.44512 17.4713C2.42987 17.4779 2.41446 17.4841 2.39892 17.49C2.38338 17.4959 2.36772 17.5013 2.35194 17.5064C2.33616 17.5115 2.32028 17.5162 2.30429 17.5205C2.28829 17.5247 2.27222 17.5286 2.25606 17.5321C2.23989 17.5356 2.22366 17.5387 2.20737 17.5414C2.19107 17.544 2.17472 17.5463 2.15831 17.5481C2.14191 17.55 2.12548 17.5514 2.10901 17.5524C2.09254 17.5534 2.07607 17.5541 2.05958 17.5543C2.04308 17.5545 2.02659 17.5543 2.01011 17.5536C1.99364 17.553 1.97718 17.552 1.96073 17.5505C1.9443 17.5491 1.9279 17.5472 1.91155 17.5449C1.8952 17.5426 1.87891 17.54 1.86268 17.5369C1.84645 17.5338 1.83029 17.5303 1.81421 17.5264C1.79813 17.5225 1.78215 17.5182 1.76627 17.5135C1.75038 17.5088 1.73461 17.5037 1.71895 17.4982C1.70329 17.4927 1.68776 17.4869 1.67236 17.4806C1.65696 17.4743 1.64171 17.4677 1.62661 17.4607C1.6115 17.4536 1.59657 17.4462 1.58179 17.4385C1.56702 17.4307 1.55243 17.4225 1.53802 17.414C1.52361 17.4055 1.5094 17.3966 1.49538 17.3874C1.48137 17.3782 1.46757 17.3686 1.45398 17.3587C1.44039 17.3488 1.42703 17.3386 1.41389 17.328C1.40076 17.3174 1.38787 17.3065 1.37522 17.2953C1.36258 17.284 1.35019 17.2725 1.33805 17.2607C1.32592 17.2488 1.31405 17.2367 1.30246 17.2242C1.29087 17.2118 1.27956 17.1991 1.26853 17.186C1.25751 17.173 1.24678 17.1598 1.23634 17.1462C1.22591 17.1327 1.21578 17.1189 1.20596 17.1048C1.19614 17.0908 1.18664 17.0765 1.17745 17.062C1.16827 17.0474 1.15941 17.0327 1.15089 17.0177C1.14236 17.0027 1.13417 16.9875 1.12632 16.9722C1.11847 16.9568 1.11096 16.9412 1.10381 16.9254C1.09665 16.9097 1.08984 16.8938 1.0834 16.8777C1.07695 16.8616 1.07086 16.8453 1.06514 16.8289C1.05941 16.8125 1.05406 16.7959 1.04907 16.7793C1.04408 16.7626 1.03946 16.7458 1.03522 16.7289C1.03098 16.712 1.02712 16.695 1.02364 16.6779C1.02015 16.6608 1.01705 16.6436 1.01433 16.6264C1.01162 16.6091 1.00928 16.5918 1.00733 16.5745L1 16.4445L1 12C1 11.9818 1.00042 11.9636 1.00126 11.9455C1.0021 11.9273 1.00336 11.9092 1.00505 11.8911C1.00673 11.873 1.00882 11.855 1.01134 11.837C1.01385 11.819 1.01678 11.8011 1.02013 11.7832C1.02347 11.7654 1.02723 11.7477 1.0314 11.73C1.03556 11.7124 1.04013 11.6949 1.04511 11.6775C1.05009 11.6601 1.05546 11.6428 1.06124 11.6257C1.06702 11.6085 1.07318 11.5916 1.07975 11.5748C1.08631 11.558 1.09325 11.5414 1.10058 11.525C1.10791 11.5085 1.11562 11.4923 1.1237 11.4762C1.13178 11.4602 1.14023 11.4444 1.14905 11.4288C1.15786 11.4132 1.16703 11.3978 1.17655 11.3827C1.18608 11.3676 1.19595 11.3527 1.20616 11.3381C1.21638 11.3235 1.22692 11.3092 1.2378 11.2951C1.24867 11.2811 1.25987 11.2673 1.27138 11.2538C1.2829 11.2403 1.29472 11.2272 1.30684 11.2143C1.31896 11.2015 1.33138 11.1889 1.34408 11.1767C1.35679 11.1645 1.36976 11.1526 1.38302 11.1411C1.39627 11.1296 1.40978 11.1184 1.42355 11.1076C1.43732 11.0967 1.45134 11.0863 1.46559 11.0761C1.47985 11.066 1.49433 11.0563 1.50903 11.047C1.52374 11.0376 1.53865 11.0286 1.55377 11.0201C1.5689 11.0115 1.58421 11.0033 1.5997 10.9956C1.6152 10.9878 1.63087 10.9804 1.64671 10.9735C1.66255 10.9665 1.67854 10.96 1.69469 10.9539C1.71083 10.9477 1.7271 10.942 1.74351 10.9367C1.75992 10.9315 1.77644 10.9266 1.79307 10.9222C1.8097 10.9178 1.82642 10.9138 1.84324 10.9102C1.86006 10.9067 1.87694 10.9036 1.8939 10.9009C1.91086 10.8983 1.92787 10.896 1.94494 10.8942C1.962 10.8925 1.97909 10.8911 1.99621 10.8902C2.01333 10.8894 2.03047 10.8889 2.04763 10.8889ZM21.9524 10.8889C21.9682 10.8889 21.9841 10.8893 22 10.8901C22.0158 10.8908 22.0316 10.892 22.0474 10.8935C22.0632 10.895 22.079 10.8969 22.0947 10.8992C22.1104 10.9015 22.1261 10.9042 22.1417 10.9072C22.1572 10.9102 22.1728 10.9136 22.1883 10.9175C22.2037 10.9213 22.2191 10.9254 22.2343 10.93C22.2496 10.9345 22.2648 10.9394 22.2799 10.9446C22.2949 10.9499 22.3099 10.9555 22.3247 10.9615C22.3395 10.9675 22.3542 10.9738 22.3688 10.9805C22.3833 10.9872 22.3977 10.9942 22.412 11.0016C22.4263 11.009 22.4403 11.0167 22.4542 11.0248C22.4682 11.0328 22.4819 11.0412 22.4955 11.05C22.5091 11.0587 22.5224 11.0677 22.5356 11.0771C22.5488 11.0865 22.5617 11.0961 22.5745 11.1061C22.5873 11.1161 22.5998 11.1264 22.6121 11.137C22.6245 11.1476 22.6365 11.1585 22.6484 11.1697C22.6602 11.1809 22.6718 11.1923 22.6832 11.2041C22.6946 11.2158 22.7057 11.2278 22.7165 11.2401C22.7274 11.2524 22.738 11.2649 22.7483 11.2777C22.7586 11.2904 22.7686 11.3035 22.7784 11.3168C22.7881 11.33 22.7976 11.3435 22.8068 11.3572C22.8159 11.371 22.8248 11.3849 22.8334 11.3991C22.842 11.4132 22.8503 11.4276 22.8582 11.4421C22.8662 11.4566 22.8738 11.4714 22.8812 11.4863C22.8885 11.5012 22.8955 11.5163 22.9022 11.5316C22.9089 11.5468 22.9153 11.5622 22.9213 11.5778C22.9273 11.5934 22.933 11.6091 22.9384 11.6249C22.9437 11.6407 22.9487 11.6567 22.9534 11.6728C22.9581 11.6889 22.9624 11.705 22.9664 11.7213C22.9704 11.7376 22.974 11.754 22.9773 11.7704C22.9805 11.7869 22.9834 11.8034 22.986 11.8201C22.9886 11.8366 22.9908 11.8533 22.9927 11.87L23 12L23 16.4445C23 16.462 22.9996 16.4794 22.9988 16.4969C22.998 16.5144 22.9968 16.5318 22.9952 16.5492C22.9936 16.5666 22.9917 16.584 22.9893 16.6013C22.987 16.6186 22.9843 16.6359 22.9811 16.6531C22.978 16.6702 22.9745 16.6873 22.9707 16.7043C22.9668 16.7213 22.9626 16.7382 22.9579 16.755C22.9533 16.7718 22.9483 16.7885 22.9429 16.805C22.9375 16.8215 22.9318 16.8379 22.9257 16.8542C22.9196 16.8704 22.9132 16.8865 22.9063 16.9025C22.8995 16.9184 22.8924 16.9341 22.8848 16.9497C22.8773 16.9653 22.8694 16.9807 22.8612 16.9958C22.853 17.011 22.8445 17.026 22.8356 17.0407C22.8268 17.0554 22.8176 17.07 22.8081 17.0843C22.7986 17.0985 22.7887 17.1126 22.7786 17.1264C22.7684 17.1402 22.758 17.1537 22.7472 17.167C22.7365 17.1803 22.7255 17.1933 22.7141 17.206C22.7028 17.2187 22.6912 17.2311 22.6794 17.2433C22.6675 17.2554 22.6553 17.2672 22.6429 17.2788C22.6305 17.2903 22.6179 17.3015 22.605 17.3124C22.5921 17.3233 22.579 17.3339 22.5656 17.3441C22.5522 17.3544 22.5386 17.3643 22.5248 17.3738C22.511 17.3834 22.497 17.3926 22.4828 17.4014C22.4685 17.4103 22.4541 17.4188 22.4395 17.4269C22.4249 17.435 22.4101 17.4428 22.3952 17.4502C22.3802 17.4576 22.3651 17.4646 22.3499 17.4713C22.3346 17.4779 22.3192 17.4841 22.3037 17.49C22.2881 17.4959 22.2725 17.5013 22.2567 17.5064C22.2409 17.5115 22.225 17.5162 22.2091 17.5205C22.1931 17.5247 22.177 17.5286 22.1608 17.5321C22.1446 17.5356 22.1284 17.5387 22.1121 17.5413C22.0958 17.544 22.0795 17.5463 22.0631 17.5481C22.0467 17.55 22.0303 17.5514 22.0138 17.5524C21.9973 17.5534 21.9808 17.5541 21.9644 17.5543C21.9479 17.5545 21.9314 17.5543 21.9149 17.5536C21.8984 17.553 21.8819 17.552 21.8655 17.5505C21.8491 17.5491 21.8327 17.5472 21.8163 17.5449C21.8 17.5426 21.7837 17.54 21.7674 17.5369C21.7512 17.5338 21.735 17.5303 21.719 17.5264C21.7029 17.5225 21.6869 17.5182 21.671 17.5135C21.6551 17.5088 21.6394 17.5037 21.6237 17.4982C21.6081 17.4927 21.5925 17.4869 21.5771 17.4806C21.5617 17.4743 21.5465 17.4677 21.5314 17.4607C21.5163 17.4536 21.5013 17.4462 21.4866 17.4385C21.4718 17.4307 21.4572 17.4225 21.4428 17.414C21.4284 17.4055 21.4142 17.3966 21.4001 17.3874C21.3861 17.3782 21.3723 17.3686 21.3587 17.3587C21.3452 17.3488 21.3318 17.3386 21.3186 17.328C21.3055 17.3174 21.2926 17.3065 21.28 17.2953C21.2673 17.284 21.255 17.2725 21.2428 17.2607C21.2307 17.2488 21.2188 17.2367 21.2072 17.2242C21.1956 17.2118 21.1843 17.1991 21.1733 17.186C21.1623 17.173 21.1515 17.1598 21.1411 17.1462C21.1307 17.1327 21.1205 17.1189 21.1107 17.1048C21.1009 17.0908 21.0914 17.0765 21.0822 17.062C21.073 17.0474 21.0642 17.0327 21.0557 17.0177C21.0471 17.0027 21.0389 16.9875 21.0311 16.9722C21.0232 16.9568 21.0157 16.9412 21.0086 16.9254C21.0014 16.9097 20.9946 16.8938 20.9882 16.8777C20.9817 16.8616 20.9756 16.8453 20.9699 16.8289C20.9642 16.8125 20.9588 16.7959 20.9538 16.7793C20.9488 16.7626 20.9442 16.7458 20.94 16.7289C20.9357 16.712 20.9319 16.695 20.9284 16.6779C20.9249 16.6608 20.9218 16.6436 20.9191 16.6264C20.9164 16.6091 20.914 16.5918 20.9121 16.5745L20.9048 16.4445L20.9048 12C20.9048 11.9818 20.9052 11.9636 20.906 11.9455C20.9069 11.9273 20.9081 11.9092 20.9098 11.8911C20.9115 11.873 20.9136 11.855 20.9161 11.837C20.9186 11.819 20.9215 11.8011 20.9249 11.7832C20.9282 11.7654 20.932 11.7477 20.9361 11.73C20.9403 11.7124 20.9449 11.6949 20.9499 11.6775C20.9549 11.6601 20.9602 11.6428 20.966 11.6257C20.9718 11.6085 20.978 11.5916 20.9845 11.5748C20.9911 11.558 20.998 11.5414 21.0053 11.525C21.0127 11.5085 21.0204 11.4923 21.0285 11.4762C21.0365 11.4602 21.045 11.4444 21.0538 11.4288C21.0626 11.4132 21.0718 11.3978 21.0813 11.3827C21.0908 11.3676 21.1007 11.3527 21.1109 11.3381C21.1211 11.3235 21.1317 11.3092 21.1426 11.2951C21.1534 11.2811 21.1646 11.2673 21.1761 11.2538C21.1877 11.2403 21.1995 11.2272 21.2116 11.2143C21.2237 11.2015 21.2361 11.1889 21.2488 11.1767C21.2615 11.1645 21.2745 11.1526 21.2878 11.1411C21.301 11.1296 21.3145 11.1184 21.3283 11.1076C21.3421 11.0967 21.3561 11.0863 21.3704 11.0761C21.3846 11.066 21.3991 11.0563 21.4138 11.047C21.4285 11.0376 21.4434 11.0286 21.4585 11.0201C21.4736 11.0115 21.489 11.0033 21.5045 10.9956C21.52 10.9878 21.5356 10.9804 21.5515 10.9735C21.5673 10.9665 21.5833 10.96 21.5994 10.9539C21.6156 10.9477 21.6319 10.942 21.6483 10.9367C21.6647 10.9315 21.6812 10.9266 21.6978 10.9222C21.7144 10.9178 21.7312 10.9138 21.748 10.9102C21.7648 10.9067 21.7817 10.9036 21.7987 10.9009C21.8156 10.8983 21.8326 10.896 21.8497 10.8942C21.8668 10.8925 21.8839 10.8911 21.901 10.8902C21.9181 10.8894 21.9352 10.8889 21.9524 10.8889Z"   fill="#858C94" >
</path>
</svg>
