<svg xmlns="http://www.w3.org/2000/svg" xmlns:xlink="http://www.w3.org/1999/xlink" viewBox="0 0 24 24" fill="none">
<path d="M21.628 6.23023L12.388 1.0991C12.1516 0.966967 11.8703 0.966967 11.6339 1.0991L2.38266 6.23023C2.14631 6.36236 2 6.6046 2 6.86886L2 17.1421C2 17.4064 2.14631 17.6486 2.38266 17.7808L11.6227 22.9009C11.859 23.033 12.1404 23.033 12.3767 22.9009L21.6167 17.7808C21.8531 17.6486 21.9994 17.4064 21.9994 17.1421L21.9994 6.85785C22.0106 6.6046 21.8643 6.36236 21.628 6.23023ZM17.8802 9.72071L12.7256 12.7157L12.7256 18.6066C12.7256 18.8048 12.6581 18.992 12.5118 19.1241C12.3767 19.2673 12.1854 19.3443 11.9828 19.3443C11.7802 19.3443 11.6002 19.2673 11.4538 19.1241C11.3188 18.981 11.24 18.7938 11.24 18.6066L11.24 12.7157L6.10792 9.73172C5.74778 9.52251 5.63523 9.07106 5.83781 8.71871C5.92785 8.55355 6.09667 8.42141 6.27674 8.36636C6.46807 8.3113 6.67065 8.34434 6.83947 8.43242L11.9828 11.4164L17.1262 8.43242C17.295 8.33333 17.4976 8.3113 17.6889 8.35535C17.8802 8.4104 18.0378 8.53152 18.1391 8.69669C18.3642 9.06005 18.2404 9.5115 17.8802 9.72071Z"   fill="#336DF4" >
</path>
<path d="M5 8L4.5 10.5L9 20L12.5 21L21 9.5L19 7L7.5 5.5L5 8Z"   fill="#336DF4" >
</path>
<path d="M17.6425 8.50498L12.7035 11.7767L12.7035 18.2001C12.7035 18.4162 12.6329 18.6122 12.4926 18.7563C12.363 18.9124 12.1786 18.9962 11.9843 18.9962C11.79 18.9962 11.6163 18.9124 11.476 18.7563C11.3465 18.6002 11.2746 18.4042 11.2746 18.2001L11.2746 11.7767L6.35484 8.51588C6.00945 8.28773 5.90162 7.79868 6.0959 7.41441C6.18225 7.23429 6.34518 7.09276 6.51787 7.03272C6.70136 6.97268 6.89302 7.00209 7.05492 7.09815L11.9843 10.3589L16.9232 7.09815C17.0851 6.99008 17.2768 6.97378 17.4603 7.02181C17.6438 7.08185 17.7947 7.21248 17.8918 7.3926C18.1077 7.78887 17.9879 8.27682 17.6425 8.50498Z"   fill="#33D6C0" >
</path>
</svg>
