<svg xmlns="http://www.w3.org/2000/svg" xmlns:xlink="http://www.w3.org/1999/xlink" viewBox="0 0 24 24" fill="none">
<path d="M12.388 1.0991L21.628 6.23023C21.8643 6.36236 22.0106 6.6046 21.9994 6.85785L21.9994 17.1421C21.9994 17.4064 21.8531 17.6486 21.6167 17.7808L12.3767 22.9009C12.1404 23.033 11.859 23.033 11.6227 22.9009L2.38266 17.7808C2.14631 17.6486 2 17.4064 2 17.1421L2 6.86886C2 6.6046 2.14631 6.36236 2.38266 6.23023L11.6339 1.0991C11.8703 0.966967 12.1516 0.966967 12.388 1.0991Z" fill-rule="evenodd"  fill="#858C94" >
</path>
<path d="M17.6425 8.50498L12.7035 11.7767L12.7035 18.2001C12.7035 18.4162 12.6329 18.6122 12.4926 18.7563C12.363 18.9124 12.1786 18.9962 11.9843 18.9962C11.79 18.9962 11.6163 18.9124 11.476 18.7563C11.3465 18.6002 11.2746 18.4042 11.2746 18.2001L11.2746 11.7767L6.35484 8.51588C6.00945 8.28773 5.90162 7.79868 6.0959 7.41441C6.18225 7.23429 6.34518 7.09276 6.51787 7.03272C6.70136 6.97268 6.89302 7.00209 7.05492 7.09815L11.9843 10.3589L16.9232 7.09815C17.0851 6.99008 17.2768 6.97378 17.4603 7.02181C17.6438 7.08185 17.7947 7.21248 17.8918 7.3926C18.1077 7.78887 17.9879 8.27682 17.6425 8.50498Z"   fill="#FFFFFF" >
</path>
</svg>
