<svg xmlns="http://www.w3.org/2000/svg" xmlns:xlink="http://www.w3.org/1999/xlink" width="23.5673828125" height="23.9986572265625" viewBox="0 0 23.5673828125 23.9986572265625" fill="none">
<path d="M19.0801 4.56326C15.0663 0.475984 8.49543 0.475984 4.48158 4.56326C0.467729 8.65054 0.467729 15.3416 4.48158 19.4289C8.49543 23.5161 15.0663 23.5161 19.0801 19.4289C23.094 15.3416 23.094 8.65054 19.0801 4.56326ZM18.2585 12.9839L5.31013 12.9839C4.8084 12.9839 4.39873 12.5667 4.39873 12.0558L4.39873 11.941C4.39873 11.4301 4.8084 11.0129 5.31013 11.0129L18.2608 11.0129C18.7625 11.0129 19.1722 11.4301 19.1722 11.941L19.1722 12.0558C19.1699 12.5667 18.7602 12.9839 18.2585 12.9839Z"   fill="#0054FE" >
</path>
</svg>
