<svg xmlns="http://www.w3.org/2000/svg" xmlns:xlink="http://www.w3.org/1999/xlink" viewBox="0 0 32 32" fill="none">
<path d="M26.5922 5.38054C26.6777 5.46591 26.7623 5.55233 26.8458 5.63976C26.9293 5.72718 27.0117 5.8156 27.0931 5.90501C27.1744 5.99442 27.2547 6.08481 27.3338 6.17618C27.413 6.26753 27.4911 6.35985 27.568 6.4531C27.6449 6.54632 27.7207 6.64048 27.7954 6.73558C27.87 6.83065 27.9435 6.92662 28.0158 7.02348C28.0882 7.12034 28.1593 7.21804 28.2293 7.31665C28.2993 7.41521 28.3681 7.51461 28.4356 7.61487C28.5032 7.71512 28.5695 7.81617 28.6347 7.918C28.6998 8.01984 28.7637 8.12247 28.8263 8.22585C28.889 8.32924 28.9503 8.43336 29.0104 8.53825C29.0706 8.64313 29.1294 8.74872 29.187 8.85504C29.2446 8.96133 29.3008 9.06829 29.3558 9.17595C29.4108 9.28359 29.4645 9.3919 29.5168 9.50089C29.5692 9.60984 29.6202 9.71941 29.67 9.82963C29.7197 9.93979 29.7681 10.0506 29.8151 10.1619C32.8206 17.2759 29.9333 25.5093 23.1431 29.188C16.3532 32.866 7.87965 30.7871 3.56296 24.3831C-0.75404 17.9799 0.49696 9.34506 6.45348 4.42985C12.41 -0.485071 21.125 -0.0737709 26.5922 5.38086L26.5922 5.38054ZM15.9572 29.4889C23.3852 29.4889 29.429 23.4463 29.429 16.0171C29.429 8.58755 23.3852 2.54403 15.9569 2.54403C8.52887 2.54403 2.48476 8.58846 2.48476 16.0171C2.48476 23.4457 8.52887 29.4889 15.9569 29.4889L15.9572 29.4889ZM21.4082 17.1259C21.4541 17.1849 21.4983 17.2452 21.5406 17.3069C21.583 17.3686 21.6235 17.4315 21.6621 17.4956C21.7007 17.5597 21.7374 17.6249 21.7721 17.6911C21.8069 17.7574 21.8396 17.8246 21.8703 17.8928C21.9011 17.9611 21.9298 18.0301 21.9564 18.1001C21.983 18.17 22.0076 18.2406 22.03 18.312C22.0524 18.3834 22.0727 18.4554 22.0909 18.5279C22.109 18.6005 22.125 18.6736 22.1388 18.7471C22.1526 18.8207 22.1642 18.8945 22.1736 18.9688C22.183 19.043 22.1902 19.1175 22.1952 19.1921C22.2002 19.2668 22.203 19.3415 22.2035 19.4163C22.2041 19.4911 22.2024 19.5659 22.1985 19.6406C22.1946 19.7154 22.1885 19.7899 22.1801 19.8642C22.1718 19.9386 22.1612 20.0126 22.1485 20.0864C22.1357 20.1601 22.1208 20.2334 22.1037 20.3062C22.0866 20.3791 22.0674 20.4513 22.046 20.523C22.0246 20.5947 22.0011 20.6657 21.9754 20.736C21.9498 20.8063 21.9221 20.8758 21.8924 20.9444C21.8626 21.0131 21.8309 21.0808 21.7971 21.1476C21.7633 21.2143 21.7276 21.28 21.6899 21.3447C21.6522 21.4093 21.6126 21.4728 21.5711 21.535C21.5297 21.5973 21.4864 21.6583 21.4413 21.718C21.3962 21.7777 21.3494 21.836 21.3008 21.893C21.2523 21.9499 21.2021 22.0053 21.1502 22.0593C21.0984 22.1132 21.045 22.1656 20.99 22.2163C20.935 22.2671 20.8786 22.3162 20.8207 22.3636C20.7628 22.411 20.7036 22.4566 20.643 22.5005C20.5824 22.5444 20.5205 22.5865 20.4574 22.6266C20.3943 22.6668 20.3301 22.7052 20.2647 22.7416C20.1993 22.7779 20.1329 22.8123 20.0655 22.8448C19.9981 22.8772 19.9297 22.9076 19.8605 22.936C19.7913 22.9644 19.7213 22.9907 19.6505 23.0149C19.2584 23.1492 18.8465 23.2174 18.4322 23.2167C18.2715 23.2167 18.1115 23.2068 17.9522 23.1867C17.91 23.1815 17.8679 23.1755 17.8259 23.1688C17.7839 23.1621 17.7421 23.1547 17.7003 23.1466C17.6586 23.1385 17.617 23.1297 17.5756 23.1202C17.5341 23.1107 17.4929 23.1005 17.4518 23.0896C17.4107 23.0787 17.3698 23.0671 17.3291 23.0548C17.2884 23.0425 17.2479 23.0296 17.2077 23.0159C17.1674 23.0023 17.1274 22.9879 17.0876 22.9729C17.0478 22.9579 17.0083 22.9423 16.9691 22.9259C16.9298 22.9096 16.8909 22.8926 16.8522 22.8749C16.8135 22.8573 16.7752 22.839 16.7371 22.82C16.6991 22.8011 16.6614 22.7815 16.6239 22.7613C16.5866 22.741 16.5495 22.7202 16.5128 22.6987C16.4761 22.6772 16.4398 22.6551 16.4039 22.6324C16.3679 22.6097 16.3324 22.5864 16.2972 22.5625C16.2621 22.5386 16.2273 22.5141 16.193 22.489C16.1587 22.4639 16.1248 22.4383 16.0914 22.412C16.0579 22.3858 16.0249 22.359 15.9923 22.3317C15.9598 22.3044 15.9277 22.2765 15.8961 22.248C15.8645 22.2196 15.8333 22.1907 15.8027 22.1612C15.7721 22.1317 15.742 22.1017 15.7123 22.0712C15.6827 22.0407 15.6536 22.0097 15.6251 21.9783C15.5965 21.9468 15.5685 21.9148 15.5409 21.8824C15.5135 21.85 15.4865 21.8171 15.4601 21.7838C15.4338 21.7504 15.4079 21.7167 15.3827 21.6824C15.3575 21.6482 15.3328 21.6136 15.3087 21.5786C15.2847 21.5435 15.2612 21.5081 15.2383 21.4723C15.2155 21.4364 15.1932 21.4002 15.1715 21.3636C15.1499 21.327 15.1289 21.2901 15.1085 21.2528C15.0881 21.2155 15.0683 21.1779 15.0492 21.1399C15.0301 21.1019 15.0116 21.0636 14.9937 21.025C14.9759 20.9865 14.9587 20.9476 14.9422 20.9084C14.9257 20.8692 14.9098 20.8298 14.8947 20.7901C14.8795 20.7504 14.865 20.7104 14.8511 20.6702C14.8373 20.63 14.8241 20.5896 14.8117 20.549C14.7992 20.5083 14.7874 20.4675 14.7763 20.4264C14.7652 20.3854 14.7548 20.3442 14.7451 20.3028C14.7354 20.2614 14.7264 20.2198 14.7181 20.1782C14.7098 20.1365 14.7022 20.0947 14.6954 20.0527C14.6885 20.0108 14.6823 19.9687 14.6769 19.9265C14.6714 19.8844 14.6666 19.8421 14.6626 19.7998C14.6586 19.7575 14.6553 19.7151 14.6527 19.6727C14.6501 19.6302 14.6482 19.5878 14.647 19.5453C14.6458 19.5028 14.6454 19.4603 14.6457 19.4178C14.6459 19.3752 14.6469 19.3328 14.6486 19.2903C14.6504 19.2478 14.6528 19.2054 14.6559 19.163C14.6591 19.1206 14.6629 19.0782 14.6675 19.036C14.6721 18.9937 14.6773 18.9515 14.6833 18.9095C14.6893 18.8674 14.696 18.8254 14.7034 18.7835C14.7108 18.7417 14.719 18.7 14.7278 18.6584C14.7366 18.6168 14.7462 18.5753 14.7564 18.5341C14.7666 18.4928 14.7775 18.4517 14.7891 18.4108C14.8008 18.3699 14.8131 18.3293 14.826 18.2888C14.839 18.2483 14.8527 18.2081 14.8671 18.168C14.8814 18.128 14.8964 18.0882 14.9121 18.0487C14.9278 18.0092 14.9441 17.97 14.9612 17.9311C14.9782 17.8921 14.9959 17.8534 15.0142 17.8151C15.0325 17.7767 15.0515 17.7387 15.0711 17.701C15.0907 17.6632 15.1109 17.6258 15.1318 17.5888C15.1527 17.5518 15.1742 17.5151 15.1963 17.4788C15.2184 17.4425 15.2411 17.4065 15.2644 17.371C15.2878 17.3355 15.3117 17.3003 15.3362 17.2656C15.3607 17.2309 15.3858 17.1965 15.4115 17.1627C15.4372 17.1288 15.4634 17.0954 15.4902 17.0624C15.517 17.0294 15.5443 16.9968 15.5723 16.9648L12.8633 13.474L10.1543 9.98555C10.1469 9.97606 10.1397 9.96636 10.1328 9.95651C10.1259 9.94667 10.1193 9.93665 10.1128 9.92648C10.1064 9.91629 10.1003 9.90598 10.0944 9.89549C10.0885 9.885 10.0828 9.87436 10.0774 9.86361C10.0721 9.85283 10.0669 9.84196 10.0621 9.83095C10.0573 9.81993 10.0527 9.8088 10.0484 9.79758C10.0441 9.78633 10.0401 9.77499 10.0363 9.76356C10.0326 9.75211 10.0291 9.74059 10.026 9.72899C10.0228 9.71739 10.0199 9.7057 10.0173 9.69395C10.0147 9.68221 10.0124 9.6704 10.0104 9.65853C10.0084 9.64667 10.0067 9.63477 10.0053 9.62282C10.0038 9.61087 10.0027 9.59892 10.0019 9.5869C10.001 9.57489 10.0005 9.56288 10.0003 9.55087C10 9.53883 10.0001 9.52679 10.0004 9.51477C10.0008 9.50273 10.0014 9.49072 10.0024 9.47874C10.0033 9.46673 10.0045 9.45477 10.0061 9.44285C10.0075 9.4309 10.0093 9.419 10.0114 9.40717C10.0134 9.3953 10.0158 9.38352 10.0184 9.37181C10.021 9.36006 10.024 9.3484 10.0271 9.33679C10.0304 9.32519 10.0339 9.31371 10.0376 9.30228C10.0414 9.29086 10.0455 9.27955 10.0498 9.26836C10.0541 9.25711 10.0587 9.246 10.0636 9.23502C10.0685 9.22403 10.0736 9.21316 10.0791 9.20244C10.0845 9.19169 10.0902 9.18108 10.0961 9.17065C10.1021 9.16016 10.1082 9.14988 10.1147 9.13974C10.1211 9.12958 10.1278 9.11959 10.1348 9.10977C10.1417 9.09993 10.1489 9.09029 10.1563 9.08083C10.1637 9.07134 10.1713 9.06208 10.1792 9.053C10.1871 9.04388 10.1952 9.03498 10.2035 9.02631C10.2118 9.0176 10.2203 9.00911 10.229 9.00085C10.2378 8.99259 10.2467 8.98453 10.2558 8.97668C10.2649 8.96883 10.2742 8.96124 10.2838 8.95388C10.2933 8.9465 10.3029 8.93935 10.3128 8.93247C10.3226 8.92555 10.3327 8.9189 10.3428 8.91252C10.353 8.9061 10.3633 8.89995 10.3738 8.89406C10.3843 8.88814 10.3949 8.88252 10.4057 8.87716C10.4164 8.87177 10.4273 8.86664 10.4383 8.86183C10.4493 8.85697 10.4604 8.8524 10.4717 8.84812C10.4829 8.84385 10.4943 8.83983 10.5057 8.83611C10.5171 8.83236 10.5287 8.82893 10.5403 8.82577C10.5519 8.82261 10.5635 8.8197 10.5753 8.81713C10.587 8.81455 10.5988 8.81223 10.6107 8.81024C10.6225 8.80822 10.6344 8.80649 10.6464 8.80509C10.6583 8.80368 10.6703 8.80254 10.6823 8.80172C10.6943 8.8009 10.7063 8.80034 10.7183 8.8001C10.7303 8.79987 10.7423 8.79993 10.7544 8.80028C10.7664 8.80063 10.7784 8.80128 10.7904 8.80224C10.8024 8.80318 10.8143 8.80441 10.8263 8.80593C10.8382 8.8074 10.8501 8.80916 10.862 8.81121C10.8738 8.81326 10.8856 8.81557 10.8974 8.81821C10.9091 8.82085 10.9208 8.82375 10.9324 8.82697C10.944 8.83019 10.9555 8.83368 10.9669 8.83746C10.9783 8.84121 10.9897 8.84528 11.0009 8.84962C11.0121 8.85395 11.0232 8.85858 11.0342 8.86347C11.0452 8.86834 11.0561 8.87349 11.0668 8.87894C11.0776 8.88433 11.0882 8.89002 11.0986 8.89599C11.1091 8.90194 11.1194 8.90815 11.1296 8.9146C11.1397 8.92104 11.1497 8.92775 11.1595 8.93472C11.1693 8.94167 11.179 8.94884 11.1884 8.95629C11.1979 8.96373 11.2072 8.97137 11.2163 8.97928C11.2254 8.98714 11.2342 8.99525 11.2429 9.0036C11.2516 9.01192 11.2601 9.02045 11.2684 9.02921C11.2766 9.03794 11.2847 9.0469 11.2925 9.05604C11.3003 9.06518 11.3079 9.0745 11.3153 9.08405L11.5382 9.37145L11.7614 9.65915L12.08 9.41165L12.3983 9.16444C12.4054 9.1589 12.4126 9.15351 12.4199 9.14824C12.4273 9.14297 12.4347 9.13781 12.4422 9.13283C12.4498 9.12782 12.4574 9.12296 12.4651 9.11824C12.4728 9.11349 12.4805 9.10892 12.4884 9.1045C12.4963 9.10005 12.5042 9.09577 12.5122 9.09164C12.5203 9.08748 12.5283 9.08349 12.5365 9.07966C12.5447 9.07582 12.553 9.07213 12.5612 9.06858C12.5695 9.06504 12.5779 9.06164 12.5864 9.05842C12.5948 9.05519 12.6033 9.05212 12.6118 9.04922C12.6203 9.04629 12.629 9.0435 12.6376 9.04093C12.6462 9.03832 12.6549 9.03589 12.6637 9.0336C12.6724 9.03132 12.6812 9.02918 12.69 9.02721C12.6988 9.02525 12.7077 9.02346 12.7165 9.02182C12.7254 9.02018 12.7343 9.01872 12.7433 9.01743C12.7522 9.01611 12.7611 9.01497 12.7701 9.014C12.7791 9.01301 12.7881 9.01221 12.7971 9.01157C12.8061 9.01093 12.8151 9.01043 12.8242 9.01011C12.8332 9.00978 12.8422 9.00964 12.8512 9.00967C12.8602 9.00967 12.8693 9.00987 12.8783 9.01022C12.8873 9.01057 12.8963 9.01107 12.9053 9.01178C12.9143 9.01245 12.9233 9.0133 12.9323 9.01432C12.9413 9.01532 12.9502 9.01649 12.9592 9.01784C12.9681 9.01919 12.977 9.02068 12.9859 9.02238C12.9948 9.02402 13.0036 9.02587 13.0124 9.02786C13.0212 9.02985 13.03 9.03199 13.0387 9.03433C13.0474 9.03665 13.0561 9.03914 13.0647 9.04177C13.0734 9.04441 13.0819 9.0472 13.0905 9.05015C13.099 9.05308 13.1075 9.05622 13.1159 9.0595C13.1243 9.06275 13.1327 9.06618 13.141 9.06975C13.1493 9.07333 13.1575 9.07705 13.1656 9.08092C13.1738 9.08478 13.1819 9.0888 13.1899 9.09299C13.1979 9.09715 13.2058 9.10148 13.2137 9.10594C13.2267 9.11338 13.2396 9.12123 13.2521 9.12949C13.2647 9.13772 13.277 9.14634 13.289 9.15536C13.3011 9.16435 13.3129 9.1737 13.3243 9.18343C13.3358 9.19315 13.3469 9.2032 13.3578 9.2136C13.3687 9.224 13.3792 9.23472 13.3894 9.2458C13.3996 9.25681 13.4094 9.26818 13.4189 9.27984C13.4284 9.2915 13.4376 9.30343 13.4463 9.31564C13.4551 9.32783 13.4635 9.34031 13.4715 9.35306C13.4795 9.36577 13.4871 9.37875 13.4943 9.39193C13.5015 9.40512 13.5083 9.41853 13.5147 9.43213C13.5211 9.44572 13.527 9.45952 13.5326 9.47352C13.5381 9.4875 13.5432 9.50162 13.5479 9.51592C13.5526 9.53021 13.5568 9.54463 13.5606 9.55919C13.5644 9.57372 13.5677 9.58837 13.5706 9.60313C13.5735 9.6179 13.5759 9.63272 13.5779 9.64764C13.5799 9.66252 13.5814 9.67746 13.5825 9.69246C13.5835 9.70746 13.5841 9.72246 13.5843 9.73752C13.5844 9.75255 13.5841 9.76758 13.5833 9.78261C13.5825 9.79761 13.5813 9.81258 13.5796 9.82752C13.5779 9.84246 13.5757 9.85731 13.5731 9.87214C13.5705 9.88693 13.5674 9.90164 13.564 9.91626C13.5604 9.93088 13.5565 9.94538 13.5521 9.95977C13.5477 9.97412 13.5428 9.98836 13.5376 10.0025C13.5323 10.0165 13.5266 10.0304 13.5205 10.0442C13.5143 10.0579 13.5078 10.0714 13.5008 10.0847C13.4939 10.098 13.4865 10.1111 13.4787 10.124C13.471 10.1369 13.4628 10.1496 13.4543 10.1619C13.4458 10.1743 13.4369 10.1864 13.4276 10.1982C13.4183 10.21 13.4087 10.2216 13.3987 10.2328C13.3887 10.2441 13.3784 10.255 13.3677 10.2656C13.3571 10.2762 13.3461 10.2865 13.3348 10.2964C13.3235 10.3063 13.3119 10.3159 13.3001 10.3252L12.9818 10.5693L12.6632 10.8166L13.6169 12.0451L14.5703 13.2739L15.3269 12.6877L16.0835 12.1018C16.093 12.0944 16.1027 12.0872 16.1126 12.0803C16.1224 12.0734 16.1325 12.0667 16.1426 12.0603C16.1528 12.0539 16.1632 12.0478 16.1737 12.0419C16.1842 12.036 16.1949 12.0304 16.2056 12.025C16.2164 12.0196 16.2273 12.0145 16.2384 12.0097C16.2494 12.0049 16.2605 12.0003 16.2718 11.996C16.2831 11.9918 16.2944 11.9878 16.3059 11.9841C16.3173 11.9803 16.3289 11.9769 16.3405 11.9738C16.3522 11.9706 16.3639 11.9678 16.3756 11.9653C16.3874 11.9627 16.3992 11.9604 16.4111 11.9585C16.423 11.9565 16.4349 11.9548 16.4469 11.9534C16.4589 11.952 16.4708 11.9509 16.4829 11.9502C16.4949 11.9494 16.5069 11.9489 16.519 11.9487C16.531 11.9485 16.543 11.9486 16.5551 11.949C16.5671 11.9494 16.5791 11.9501 16.5912 11.9511C16.6032 11.9521 16.6152 11.9535 16.6271 11.9551C16.636 11.9561 16.645 11.9574 16.6539 11.9589C16.6628 11.9603 16.6717 11.9619 16.6805 11.9636C16.6894 11.9654 16.6982 11.9673 16.707 11.9694C16.7158 11.9715 16.7245 11.9738 16.7332 11.9762C16.7419 11.9786 16.7506 11.9811 16.7591 11.9839C16.7678 11.9866 16.7763 11.9895 16.7848 11.9926C16.7933 11.9956 16.8017 11.9988 16.8101 12.0021C16.8185 12.0055 16.8268 12.009 16.8351 12.0127C16.8433 12.0163 16.8515 12.0202 16.8596 12.0241C16.8677 12.0281 16.8757 12.0322 16.8837 12.0365C16.8917 12.0407 16.8995 12.0451 16.9073 12.0497C16.9151 12.0542 16.9228 12.0589 16.9304 12.0638C16.9381 12.0686 16.9456 12.0736 16.953 12.0787C16.9605 12.0838 16.9678 12.0891 16.9751 12.0945C16.9823 12.0998 16.9894 12.1054 16.9965 12.111C17.0035 12.1166 17.0105 12.1224 17.0173 12.1284C17.0241 12.1342 17.0308 12.1403 17.0374 12.1464C17.044 12.1526 17.0505 12.1589 17.0569 12.1652C17.0633 12.1716 17.0695 12.1782 17.0757 12.1848C17.0818 12.1914 17.0878 12.1981 17.0937 12.205C17.0996 12.2118 17.1053 12.2188 17.111 12.2258C17.1166 12.2329 17.1221 12.24 17.1275 12.2473C17.1328 12.2546 17.138 12.2619 17.1431 12.2694C17.1482 12.2768 17.1532 12.2844 17.158 12.292C17.1628 12.2996 17.1675 12.3074 17.172 12.3152C17.1765 12.323 17.1809 12.3309 17.1852 12.3389C17.1894 12.3468 17.1935 12.3548 17.1974 12.363C17.2014 12.3711 17.2052 12.3793 17.2088 12.3875C17.2124 12.3958 17.2159 12.4041 17.2193 12.4125C17.2226 12.4209 17.2258 12.4294 17.2288 12.4379C17.2318 12.4464 17.2347 12.4549 17.2374 12.4635C17.2401 12.4722 17.2426 12.4808 17.245 12.4895C17.2474 12.4982 17.2496 12.507 17.2517 12.5158C17.2537 12.5246 17.2556 12.5334 17.2574 12.5422C17.2591 12.5511 17.2606 12.56 17.2621 12.5689C17.2635 12.5778 17.2647 12.5868 17.2658 12.5957C17.2669 12.6047 17.2678 12.6137 17.2685 12.6227C17.2693 12.6316 17.2698 12.6406 17.2703 12.6497C17.2707 12.6587 17.2709 12.6677 17.271 12.6767C17.2711 12.6858 17.271 12.6948 17.2708 12.7038C17.2705 12.7128 17.2701 12.7219 17.2695 12.7309C17.2689 12.7399 17.2681 12.7489 17.2672 12.7579C17.2663 12.7668 17.2652 12.7758 17.264 12.7847C17.2628 12.7937 17.2614 12.8026 17.2598 12.8115C17.2582 12.8203 17.2565 12.8292 17.2546 12.838C17.2527 12.8469 17.2506 12.8557 17.2483 12.8644C17.2461 12.8731 17.2437 12.8818 17.2412 12.8905C17.2386 12.8992 17.2359 12.9078 17.2331 12.9163C17.2302 12.9249 17.2272 12.9334 17.224 12.9418C17.2208 12.9503 17.2175 12.9587 17.214 12.967C17.2105 12.9753 17.2069 12.9836 17.2031 12.9918C17.1993 13 17.1953 13.0081 17.1912 13.0161C17.1871 13.0242 17.1829 13.0321 17.1785 13.04C17.1741 13.0479 17.1696 13.0557 17.1649 13.0635C17.1602 13.0712 17.1554 13.0788 17.1505 13.0863C17.1455 13.0939 17.1404 13.1013 17.1352 13.1087C17.13 13.116 17.1246 13.1233 17.1191 13.1305C17.1136 13.1376 17.108 13.1447 17.1022 13.1516C17.0964 13.1586 17.0906 13.1654 17.0845 13.1721C17.0785 13.1789 17.0724 13.1855 17.0661 13.192C17.0599 13.1985 17.0535 13.2049 17.047 13.2112C17.0405 13.2174 17.0339 13.2236 17.0272 13.2296C17.0205 13.2356 17.0136 13.2415 17.0067 13.2473C16.9998 13.2531 16.9927 13.2587 16.9856 13.2643L16.2293 13.8517L15.4724 14.4375L16.1033 15.2506L16.7342 16.063C16.7826 16.0387 16.8314 16.0154 16.8808 15.9933C16.9301 15.9711 16.98 15.95 17.0302 15.93C17.0805 15.9099 17.1312 15.891 17.1823 15.8732C17.2333 15.8553 17.2848 15.8386 17.3366 15.823C17.3884 15.8073 17.4406 15.7928 17.493 15.7795C17.5454 15.766 17.5981 15.7538 17.6511 15.7427C17.704 15.7316 17.7572 15.7216 17.8106 15.7128C17.864 15.7039 17.9175 15.6963 17.9713 15.6897C18.025 15.6832 18.0788 15.6779 18.1328 15.6737C18.1867 15.6694 18.2407 15.6664 18.2948 15.6646C18.3489 15.6626 18.403 15.6619 18.4571 15.6624C18.5112 15.6629 18.5653 15.6645 18.6194 15.6672C18.6734 15.67 18.7274 15.674 18.7812 15.6791C18.8351 15.6842 18.8889 15.6904 18.9424 15.6978C18.9961 15.7052 19.0495 15.7138 19.1027 15.7235C19.156 15.7333 19.209 15.7441 19.2617 15.7561C19.3145 15.7681 19.367 15.7812 19.4192 15.7955C19.4714 15.8097 19.5233 15.8251 19.5748 15.8416C19.6263 15.8581 19.6775 15.8757 19.7283 15.8944C19.7791 15.913 19.8294 15.9328 19.8794 15.9537C19.9293 15.9745 19.9788 15.9965 20.0277 16.0195C20.0767 16.0425 20.1252 16.0665 20.1732 16.0916C20.2211 16.1166 20.2685 16.1427 20.3154 16.1699C20.3622 16.197 20.4084 16.2251 20.454 16.2542C20.4996 16.2833 20.5446 16.3134 20.589 16.3444C20.6333 16.3754 20.6769 16.4074 20.7199 16.4404C20.7628 16.4733 20.805 16.5071 20.8465 16.5418C20.888 16.5766 20.9287 16.6122 20.9687 16.6487C21.0087 16.6852 21.0478 16.7225 21.0862 16.7607C21.1245 16.7989 21.162 16.8379 21.1987 16.8777C21.2354 16.9174 21.2712 16.958 21.3061 16.9994C21.341 17.0407 21.3751 17.0827 21.4082 17.1256L21.4082 17.1259ZM16.2548 19.1674C16.2502 19.2029 16.2466 19.2386 16.2438 19.2743C16.241 19.3101 16.2391 19.3459 16.2381 19.3818C16.2371 19.4176 16.2369 19.4534 16.2377 19.4893C16.2384 19.5252 16.24 19.561 16.2425 19.5967C16.245 19.6325 16.2484 19.6682 16.2526 19.7038C16.2569 19.7394 16.262 19.7749 16.268 19.8102C16.274 19.8456 16.2809 19.8808 16.2886 19.9158C16.2963 19.9508 16.3049 19.9856 16.3143 20.0202C16.3237 20.0548 16.334 20.0892 16.3451 20.1233C16.3563 20.1574 16.3682 20.1912 16.381 20.2247C16.3938 20.2582 16.4074 20.2914 16.4218 20.3242C16.4362 20.357 16.4514 20.3895 16.4674 20.4216C16.4834 20.4537 16.5002 20.4854 16.5177 20.5167C16.5353 20.5479 16.5536 20.5787 16.5727 20.6091C16.5918 20.6394 16.6116 20.6693 16.6321 20.6987C16.6527 20.7281 16.6739 20.757 16.6959 20.7854C16.7178 20.8137 16.7405 20.8415 16.7638 20.8687C16.7872 20.896 16.8111 20.9226 16.8358 20.9487C16.8604 20.9747 16.8857 21.0002 16.9115 21.025C16.9374 21.0498 16.9639 21.074 16.991 21.0975C17.018 21.121 17.0457 21.1439 17.0739 21.166C17.1021 21.1882 17.1308 21.2096 17.16 21.2304C17.1893 21.2511 17.219 21.2712 17.2493 21.2904C17.2795 21.3097 17.3102 21.3283 17.3413 21.346C17.3725 21.3638 17.404 21.3809 17.436 21.3971C17.468 21.4133 17.5004 21.4287 17.5331 21.4434C17.5658 21.458 17.5989 21.4718 17.6323 21.4849C17.6657 21.4979 17.6994 21.5101 17.7334 21.5214C17.7675 21.5328 17.8017 21.5433 17.8363 21.553C17.8708 21.5626 17.9056 21.5715 17.9405 21.5795C17.9755 21.5874 18.0106 21.5945 18.0459 21.6008C18.0812 21.607 18.1167 21.6124 18.1523 21.6169C18.1879 21.6214 18.2235 21.625 18.2593 21.6278C18.295 21.6305 18.3308 21.6324 18.3667 21.6334C18.4025 21.6344 18.4384 21.6345 18.4742 21.6337C18.5101 21.6329 18.5459 21.6313 18.5817 21.6288C18.6174 21.6262 18.6531 21.6228 18.6887 21.6185C18.7243 21.6143 18.7598 21.6091 18.7952 21.6031C18.8305 21.597 18.8657 21.5902 18.9007 21.5824C18.9357 21.5747 18.9705 21.566 19.0051 21.5566C19.0397 21.5471 19.074 21.5368 19.1081 21.5257C19.1422 21.5145 19.176 21.5025 19.2095 21.4897C19.243 21.4769 19.2761 21.4633 19.309 21.4489C19.3418 21.4344 19.3742 21.4192 19.4063 21.4031C19.4384 21.3871 19.4701 21.3703 19.5013 21.3527C19.5326 21.3351 19.5634 21.3168 19.5937 21.2977C19.6241 21.2786 19.6539 21.2587 19.6833 21.2382C19.7127 21.2176 19.7415 21.1963 19.7699 21.1743C19.7982 21.1523 19.826 21.1297 19.8532 21.1063C19.8804 21.083 19.907 21.059 19.9331 21.0343C19.9591 21.0097 19.9845 20.9844 20.0093 20.9585C20.0341 20.9326 20.0583 20.906 20.0818 20.879C20.1053 20.8519 20.1281 20.8242 20.1502 20.796C20.1724 20.7678 20.1938 20.739 20.2145 20.7098C20.2352 20.6805 20.2552 20.6507 20.2745 20.6205C20.2937 20.5902 20.3122 20.5595 20.33 20.5284C20.3478 20.4972 20.3647 20.4657 20.3809 20.4337C20.3971 20.4017 20.4125 20.3693 20.4271 20.3366C20.4418 20.3038 20.4556 20.2707 20.4685 20.2373C20.4815 20.2038 20.4937 20.1701 20.505 20.1361C20.5164 20.1021 20.5268 20.0678 20.5365 20.0333C20.5461 19.9987 20.5549 19.964 20.5629 19.929C20.5708 19.894 20.5779 19.8589 20.5841 19.8236C20.5903 19.7882 20.5956 19.7528 20.6001 19.7172C20.6046 19.6816 20.6082 19.6459 20.6109 19.6102C20.6136 19.5744 20.6154 19.5386 20.6164 19.5028C20.6174 19.4669 20.6175 19.4311 20.6167 19.3953C20.6159 19.3594 20.6142 19.3236 20.6116 19.2878C20.6091 19.252 20.6056 19.2163 20.6013 19.1807C20.597 19.1451 20.5918 19.1097 20.5857 19.0743C20.5797 19.039 20.5728 19.0038 20.565 18.9688C20.5572 18.9338 20.5486 18.899 20.5391 18.8644C20.5296 18.8298 20.5192 18.7955 20.508 18.7614C20.4969 18.7273 20.4849 18.6936 20.472 18.6601C20.4592 18.6266 20.4455 18.5935 20.431 18.5607C20.4166 18.5279 20.4013 18.4954 20.3853 18.4633C20.3692 18.4313 20.3524 18.3996 20.3347 18.3684C20.3171 18.3372 20.2988 18.3064 20.2796 18.2761C20.2605 18.2457 20.2406 18.2158 20.22 18.1865C20.1995 18.1571 20.1781 18.1283 20.1561 18.1C20.1341 18.0717 20.1114 18.0439 20.088 18.0167C20.0647 17.9895 20.0407 17.9629 20.016 17.9369C19.9913 17.9109 19.966 17.8855 19.9401 17.8607C19.9141 17.836 19.8876 17.8118 19.8605 17.7884C19.8334 17.7649 19.8057 17.7421 19.7775 17.72C19.7492 17.6979 19.7204 17.6765 19.6912 17.6558C19.6619 17.6351 19.6321 17.6151 19.6019 17.5959C19.5716 17.5766 19.5409 17.5582 19.5097 17.5405C19.4785 17.5227 19.4469 17.5058 19.4149 17.4896C19.3829 17.4734 19.3505 17.4581 19.3178 17.4435C19.285 17.4289 19.2519 17.4151 19.2185 17.4022C19.185 17.3892 19.1513 17.3771 19.1173 17.3658C19.0832 17.3545 19.0489 17.344 19.0144 17.3344C18.9799 17.3248 18.9451 17.316 18.9101 17.3081C18.8751 17.3002 18.84 17.2931 18.8046 17.287C18.7693 17.2808 18.7339 17.2755 18.6983 17.2711C18.6521 17.265 18.6053 17.2621 18.5591 17.2579C18.5126 17.2534 18.4661 17.2534 18.4199 17.2534C18.387 17.2533 18.3541 17.2541 18.3212 17.2556C18.2883 17.257 18.2555 17.2592 18.2227 17.2622C18.1899 17.2652 18.1573 17.2689 18.1246 17.2733C18.092 17.2778 18.0595 17.2829 18.0271 17.2889C17.9948 17.2948 17.9626 17.3014 17.9305 17.3088C17.8984 17.3162 17.8665 17.3243 17.8348 17.3331C17.8031 17.3419 17.7716 17.3514 17.7403 17.3617C17.7091 17.3719 17.678 17.3828 17.6473 17.3945C17.6165 17.4062 17.586 17.4185 17.5558 17.4315C17.5256 17.4445 17.4956 17.4583 17.466 17.4726C17.4364 17.487 17.4072 17.5021 17.3782 17.5178C17.3493 17.5335 17.3208 17.5498 17.2926 17.5669C17.2644 17.5839 17.2367 17.6015 17.2093 17.6197C17.1819 17.638 17.1549 17.6569 17.1284 17.6763C17.1019 17.6958 17.0758 17.7159 17.0502 17.7365C17.0245 17.7572 16.9994 17.7784 16.9748 17.8002C16.9501 17.822 16.926 17.8444 16.9023 17.8673C16.8787 17.8902 16.8556 17.9136 16.833 17.9375C16.8104 17.9614 16.7884 17.9859 16.7669 18.0108C16.7454 18.0357 16.7245 18.0612 16.7042 18.0871C16.6838 18.1129 16.6641 18.1393 16.645 18.166C16.6258 18.1928 16.6073 18.22 16.5894 18.2476C16.5715 18.2752 16.5542 18.3032 16.5376 18.3316C16.521 18.36 16.505 18.3888 16.4896 18.4179C16.4743 18.447 16.4596 18.4764 16.4456 18.5062C16.4316 18.536 16.4183 18.5661 16.4056 18.5965C16.393 18.6269 16.3811 18.6575 16.3698 18.6885C16.3586 18.7194 16.348 18.7505 16.3382 18.782C16.3283 18.8134 16.3192 18.845 16.3108 18.8768C16.3024 18.9086 16.2947 18.9406 16.2878 18.9728C16.2808 19.0049 16.2745 19.0372 16.2691 19.0697C16.2636 19.1021 16.2588 19.1347 16.2548 19.1674Z" stroke="rgba(66, 70, 74, 1)" stroke-width="1"      fill="#42464A" >
</path>
</svg>
