<svg xmlns="http://www.w3.org/2000/svg" xmlns:xlink="http://www.w3.org/1999/xlink" viewBox="0 0 24 24" fill="none">
<path d="M20.1125 16.3913C20.1583 16.5218 20.2042 16.6087 20.2042 16.6957L20.2042 16.8261C20.25 16.9565 20.25 17.087 20.25 17.2174L20.25 17.6522C20.25 20.0435 19.1042 22.0001 16.5833 22.0001L7.41667 22.0001C4.89583 22.0001 3.75 20.0435 3.75 17.6522L3.75 17.2174C3.75 17.087 3.75 16.9565 3.79583 16.9131L3.79583 16.7826C3.84167 16.6522 3.84167 16.5652 3.8875 16.4783C3.8875 16.4348 3.93333 16.3913 3.93333 16.3478C3.97917 16.2174 4.07083 16.087 4.11667 15.9565L4.11667 15.9131C4.1625 15.7826 4.20833 15.6957 4.25417 15.5217C4.3 15.4783 4.3 15.4348 4.34583 15.3913C4.39167 15.3043 4.48333 15.2174 4.52917 15.1304C4.575 15.1304 4.575 15.087 4.62083 15.0435L4.94167 14.7391L4.9875 14.6957L5.2625 14.4348C5.30833 14.4348 5.35417 14.3913 5.4 14.3478C5.44583 14.3044 5.5375 14.2174 5.62917 14.1739C5.675 14.1304 5.72083 14.1304 5.76667 14.087C5.85833 14.0435 5.99583 13.9565 6.13333 13.8696C6.17917 13.8696 6.225 13.8696 6.27083 13.8261C6.40833 13.7391 6.5 13.6957 6.59167 13.6522C6.6375 13.6087 6.72917 13.6087 6.775 13.5652L7.05 13.4348C7.09583 13.3913 7.1875 13.3913 7.23333 13.3478L7.64583 13.2174C8.0125 13.087 8.37917 13 8.7 12.9565C7.37083 11.8696 6.5 10.087 6.5 8.08696C6.5 4.73913 8.975 2 12 2C15.025 2 17.5 4.73913 17.5 8.08696C17.5 10.087 16.6292 11.8696 15.2542 12.9131C15.6208 12.9565 15.9417 13.0435 16.3083 13.1739L16.7208 13.3044C16.7667 13.3478 16.8583 13.3478 16.9042 13.3913L17.1792 13.5218C17.225 13.5652 17.3167 13.5652 17.3625 13.6087C17.5 13.6957 17.5917 13.7391 17.6833 13.7826C17.7292 13.7826 17.775 13.7826 17.8208 13.8261C17.9125 13.8696 18.05 13.9565 18.1875 14.0435C18.2333 14.087 18.2792 14.087 18.325 14.1304C18.3708 14.1739 18.4625 14.2609 18.5542 14.3044C18.6 14.3044 18.6458 14.3478 18.6917 14.3913L18.9667 14.6522L19.0125 14.6957C19.15 14.7826 19.2417 14.913 19.3333 15C19.3792 15 19.3792 15.0435 19.425 15.087C19.4708 15.1739 19.5625 15.2609 19.6083 15.3478C19.6542 15.3913 19.6542 15.4348 19.7 15.4783C19.7458 15.6087 19.8375 15.6957 19.8833 15.8261L19.8833 15.8696C19.975 16 20.0208 16.1304 20.0667 16.2609C20.1125 16.3044 20.1125 16.3478 20.1125 16.3913Z" fill-rule="evenodd"  fill="#336DF4" >
</path>
<path d="M7.41667 12.6087C6.31667 11.4782 5.58333 9.86953 5.58333 8.08691C5.58333 6.78256 5.95 5.60865 6.59167 4.60864L6.5 4.60864C4.48333 4.60864 2.83333 6.39126 2.83333 8.56518C2.83333 9.86953 3.42917 10.9999 4.3 11.7391C2.74167 12.0434 1 13.1739 1 14.5217L1 14.826C1 16.1739 1.59583 17.3043 2.83333 17.6087L2.83333 16.7826C2.83333 14.7826 5.17083 13.1304 7.41667 12.6087ZM19.7 11.7391C20.6167 10.9999 21.1667 9.86953 21.1667 8.56518C21.1667 6.39126 19.5167 4.60864 17.5 4.60864L17.4083 4.60864C18.05 5.60865 18.4167 6.78256 18.4167 8.08691C18.4167 9.86953 17.7292 11.4782 16.5833 12.6087C18.8292 13.1304 21.1667 14.7826 21.1667 16.7826L21.1667 17.6087C22.4042 17.3478 23 16.2173 23 14.826L23 14.5217C23 13.1739 21.2583 12.0434 19.7 11.7391Z"   fill="#336DF4" >
</path>
<path    stroke="rgba(51, 214, 192, 1)" stroke-width="1"  stroke-linecap="round"  d="M9 8C9.4998 5.99994 9.5 4.99995 12 4">
</path>
</svg>
