<svg xmlns="http://www.w3.org/2000/svg" xmlns:xlink="http://www.w3.org/1999/xlink" viewBox="0 0 24 24" fill="none">
<rect  x="1" y="2" width="22" height="16" rx="2"    fill="#336DF4" >
</rect>
<rect  x="4" y="19" width="16" height="3" rx="1.5"    fill="#336DF4" >
</rect>
<path d="M14.9657 8.52055L12.9181 7.0137C12.911 7.0137 12.9052 7 12.8983 7C12.8914 7 12.8785 6.97945 12.8785 6.97945L12.8587 6.96575L12.8388 6.94521C12.8388 6.94521 12.8256 6.93155 12.8256 6.92466C12.8256 6.91777 12.8058 6.91129 12.8058 6.90411C12.8058 6.89694 12.7926 6.89101 12.7926 6.88356C12.7926 6.87612 12.7794 6.86386 12.7794 6.85616C12.7794 6.84847 12.7662 6.84354 12.7662 6.83562C12.7662 6.82769 12.753 6.81636 12.753 6.80822C12.753 6.80008 12.7398 6.79601 12.7398 6.78767C12.7398 6.77934 12.7266 6.76878 12.7266 6.76027C12.7266 6.75177 12.7199 6.74153 12.7199 6.73288C12.7199 6.72422 12.7133 6.71427 12.7133 6.70548C12.7133 6.69669 12.7067 6.69383 12.7067 6.68493C12.7067 6.67603 12.7001 6.66652 12.7001 6.65753C12.7001 6.64855 12.7001 6.63919 12.7001 6.63014C12.7001 6.62108 12.6935 6.61184 12.6935 6.60274C12.6935 6.59364 12.6935 6.58447 12.6935 6.57534C12.6935 6.56622 12.6935 6.55707 12.6935 6.54795C12.6935 6.53882 12.6935 6.52966 12.6935 6.52055C12.6935 6.51144 12.7001 6.50222 12.7001 6.49315C12.7001 6.48409 12.7001 6.47475 12.7001 6.46575C12.7001 6.45675 12.7067 6.44727 12.7067 6.43836C12.7067 6.42944 12.7133 6.41977 12.7133 6.41096C12.7133 6.40215 12.7199 6.39224 12.7199 6.38356C12.7199 6.37488 12.7266 6.36469 12.7266 6.35616C12.7266 6.34763 12.7398 6.34398 12.7398 6.33562C12.7398 6.32726 12.7464 6.31639 12.7464 6.30822C12.7464 6.30005 12.7596 6.29563 12.7596 6.28767C12.7596 6.27971 12.7728 6.268 12.7728 6.26027C12.7728 6.25254 12.786 6.24721 12.786 6.23973C12.786 6.23224 12.8058 6.22639 12.8058 6.21918C12.8058 6.21196 12.819 6.19872 12.819 6.19178C12.819 6.18485 12.8388 6.17123 12.8388 6.17123L12.8587 6.15753L12.8785 6.13699C12.8785 6.13699 12.8914 6.11644 12.8983 6.11644C12.9051 6.11644 12.911 6.10274 12.9181 6.10274C12.9252 6.10274 12.9306 6.08904 12.9379 6.08904C12.9452 6.08904 12.9502 6.07534 12.9577 6.07534C12.9653 6.07534 12.9764 6.06164 12.9841 6.06164C12.9919 6.06164 13.0026 6.04795 13.0106 6.04795C13.0185 6.04795 13.0223 6.0411 13.0304 6.0411C13.0385 6.0411 13.0486 6.0274 13.0568 6.0274C13.0651 6.0274 13.0749 6.02055 13.0832 6.02055C13.0916 6.02055 13.0946 6.0137 13.103 6.0137C13.1115 6.0137 13.1209 6.00685 13.1295 6.00685C13.138 6.00685 13.1472 6.00685 13.1559 6.00685C13.1645 6.00685 13.1736 6 13.1823 6C13.191 6 13.2 6 13.2087 6C13.2174 6 13.2264 6 13.2351 6C13.2438 6 13.2529 6 13.2616 6C13.2702 6 13.2793 6.00685 13.288 6.00685C13.2966 6.00685 13.3058 6.00685 13.3144 6.00685C13.323 6.00685 13.3323 6.0137 13.3408 6.0137C13.3493 6.0137 13.3589 6.02055 13.3672 6.02055C13.3756 6.02055 13.3788 6.0274 13.3871 6.0274C13.3953 6.0274 13.4053 6.03425 13.4135 6.03425C13.4216 6.03425 13.4319 6.04795 13.4399 6.04795C13.4478 6.04795 13.4519 6.06164 13.4597 6.06164C13.4675 6.06164 13.4786 6.06849 13.4861 6.06849C13.4937 6.06849 13.4986 6.08219 13.5059 6.08219C13.5133 6.08219 13.5186 6.10274 13.5258 6.10274L16.716 8.44521C16.8377 8.53439 16.9113 8.66551 16.9339 8.80822C16.9339 8.81878 16.9538 8.83155 16.9538 8.84247C16.9538 8.85337 16.967 8.86549 16.967 8.87671C16.967 8.88792 16.9736 8.8995 16.9736 8.91096C16.9736 8.92242 16.9868 8.93354 16.9868 8.94521C16.9868 8.95687 16.9934 8.96761 16.9934 8.97945C16.9934 8.99128 17 9.00176 17 9.0137C17 9.02563 17 9.04279 17 9.05479C17 9.06678 17 9.07703 17 9.08904C17 9.10104 17 9.11132 17 9.12329C17 9.13526 16.9934 9.14567 16.9934 9.15753C16.9934 9.1694 16.9868 9.18689 16.9868 9.19863C16.9868 9.21036 16.9802 9.22133 16.9802 9.23288C16.9802 9.24442 16.967 9.25581 16.967 9.26712C16.967 9.27842 16.9538 9.29034 16.9538 9.30137C16.9538 9.31239 16.9406 9.31808 16.9406 9.32877C16.9406 9.33946 16.9273 9.35269 16.9273 9.36301C16.9273 9.37333 16.9075 9.38051 16.9075 9.39041C16.9075 9.4003 16.8948 9.41522 16.8877 9.42466C16.8807 9.43409 16.8689 9.44311 16.8613 9.45205C16.8537 9.46099 16.8497 9.4642 16.8415 9.4726C16.8333 9.481 16.8237 9.49217 16.8151 9.5C16.8064 9.50782 16.7977 9.51331 16.7886 9.52055C16.7794 9.52776 16.7718 9.5411 16.7622 9.5411C16.7527 9.5411 16.7391 9.56164 16.7292 9.56164C16.7192 9.56164 16.7131 9.57534 16.7028 9.57534C16.6925 9.57534 16.6803 9.59589 16.6698 9.59589C16.6592 9.59589 16.6476 9.60274 16.6367 9.60274C16.6259 9.60274 16.6147 9.61644 16.6037 9.61644C16.5926 9.61644 16.5819 9.62329 16.5707 9.62329C16.5595 9.62329 16.549 9.63014 16.5376 9.63014C16.5263 9.63014 16.516 9.63014 16.5046 9.63014C16.4932 9.63014 16.483 9.63699 16.4716 9.63699L7.62087 9.63014C7.61219 9.63014 7.60313 9.63014 7.59445 9.63014C7.58578 9.63014 7.58328 9.63014 7.57464 9.63014C7.56599 9.63014 7.55681 9.62329 7.54822 9.62329C7.53963 9.62329 7.53032 9.62329 7.5218 9.62329C7.51328 9.62329 7.5038 9.61644 7.49538 9.61644C7.48695 9.61644 7.47727 9.60959 7.46896 9.60959C7.46064 9.60959 7.45071 9.60274 7.44254 9.60274C7.43436 9.60274 7.43075 9.58904 7.42272 9.58904C7.4147 9.58904 7.40415 9.57534 7.3963 9.57534C7.38845 9.57534 7.38415 9.56849 7.37649 9.56849C7.36883 9.56849 7.35752 9.55479 7.35007 9.55479C7.34262 9.55479 7.33747 9.5411 7.33025 9.5411C7.32303 9.5411 7.31741 9.52055 7.31044 9.52055C7.30346 9.52055 7.29073 9.50685 7.28402 9.50685C7.2773 9.50685 7.2642 9.4863 7.2642 9.4863L7.25099 9.46575L7.23118 9.45205C7.23118 9.45205 7.21136 9.43856 7.21136 9.43151C7.21136 9.42445 7.19815 9.41144 7.19815 9.40411C7.19815 9.39678 7.18494 9.39114 7.18494 9.38356C7.18494 9.37597 7.16513 9.37084 7.16513 9.36301C7.16513 9.35519 7.15852 9.34366 7.15852 9.33562C7.15852 9.32757 7.14531 9.32332 7.14531 9.31507C7.14531 9.30682 7.1321 9.29609 7.1321 9.28767C7.1321 9.27924 7.1255 9.26886 7.1255 9.26027C7.1255 9.25168 7.11889 9.24161 7.11889 9.23288C7.11889 9.22414 7.10568 9.22117 7.10568 9.21233C7.10568 9.20348 7.10568 9.19387 7.10568 9.18493C7.10568 9.17598 7.09908 9.16656 7.09908 9.15753C7.09908 9.14851 7.09247 9.13921 7.09247 9.13014C7.09247 9.12105 7.09247 9.11185 7.09247 9.10274C7.09247 9.09363 7.09247 9.08447 7.09247 9.07534C7.09247 9.06622 7.09247 9.05705 7.09247 9.04795C7.09247 9.03883 7.09247 9.02962 7.09247 9.02055C7.09247 9.01146 7.09908 9.00217 7.09908 8.99315C7.09908 8.98413 7.10568 8.9747 7.10568 8.96575C7.10568 8.9568 7.10568 8.9472 7.10568 8.93836C7.10568 8.92951 7.11889 8.91969 7.11889 8.91096C7.11889 8.90222 7.1255 8.89215 7.1255 8.88356C7.1255 8.87496 7.1321 8.87144 7.1321 8.86301C7.1321 8.85458 7.14531 8.84386 7.14531 8.83562C7.14531 8.82736 7.15852 8.82311 7.15852 8.81507C7.15852 8.80702 7.16513 8.7955 7.16513 8.78767C7.16513 8.77985 7.18494 8.7747 7.18494 8.76712C7.18494 8.75953 7.19815 8.74704 7.19815 8.73973C7.19815 8.73239 7.21136 8.72623 7.21136 8.71918C7.21136 8.71213 7.23118 8.69863 7.23118 8.69863L7.25099 8.67808L7.2642 8.66438C7.2642 8.66438 7.2773 8.64384 7.28402 8.64384C7.29073 8.64384 7.30346 8.63014 7.31044 8.63014C7.31741 8.63014 7.32303 8.60959 7.33025 8.60959C7.33747 8.60959 7.34262 8.59589 7.35007 8.59589C7.35752 8.59589 7.36883 8.58219 7.37649 8.58219C7.38415 8.58219 7.38845 8.56849 7.3963 8.56849C7.40415 8.56849 7.4147 8.56164 7.42272 8.56164C7.43075 8.56164 7.43436 8.54795 7.44254 8.54795C7.45071 8.54795 7.46064 8.5411 7.46896 8.5411C7.47727 8.5411 7.48695 8.53425 7.49538 8.53425C7.5038 8.53425 7.51328 8.5274 7.5218 8.5274C7.53032 8.5274 7.53963 8.52055 7.54822 8.52055C7.55681 8.52055 7.56599 8.52055 7.57464 8.52055C7.58328 8.52055 7.58578 8.52055 7.59445 8.52055C7.60313 8.52055 7.61219 8.5137 7.62087 8.5137L14.9657 8.5137L14.9657 8.52055ZM9.03435 11.4726L11.0819 12.9726C11.0893 12.9726 11.0945 12.9932 11.1017 12.9932C11.1089 12.9932 11.1146 13.0068 11.1215 13.0068C11.1284 13.0068 11.1347 13.0274 11.1413 13.0274C11.148 13.0274 11.1612 13.0479 11.1612 13.0479C11.1612 13.0479 11.181 13.0616 11.181 13.0685C11.181 13.0754 11.2008 13.0819 11.2008 13.089C11.2008 13.0962 11.214 13.1021 11.214 13.1096C11.214 13.117 11.2272 13.1224 11.2272 13.1301C11.2272 13.1379 11.247 13.1495 11.247 13.1575C11.247 13.1655 11.2602 13.1699 11.2602 13.1781C11.2602 13.1863 11.2668 13.1971 11.2668 13.2055C11.2668 13.2139 11.2801 13.2243 11.2801 13.2329C11.2801 13.2415 11.2867 13.2446 11.2867 13.2534C11.2867 13.2622 11.2999 13.2719 11.2999 13.2808C11.2999 13.2897 11.3065 13.2992 11.3065 13.3082C11.3065 13.3173 11.3131 13.3265 11.3131 13.3356C11.3131 13.3448 11.3131 13.3538 11.3131 13.363C11.3131 13.3722 11.3197 13.3811 11.3197 13.3904C11.3197 13.3997 11.3197 13.4085 11.3197 13.4178C11.3197 13.4271 11.3197 13.4359 11.3197 13.4452C11.3197 13.4545 11.3197 13.4633 11.3197 13.4726C11.3197 13.4819 11.3197 13.4976 11.3197 13.5068C11.3197 13.5161 11.3131 13.5251 11.3131 13.5342C11.3131 13.5434 11.3065 13.5525 11.3065 13.5616C11.3065 13.5707 11.2999 13.58 11.2999 13.589C11.2999 13.598 11.2933 13.6007 11.2933 13.6096C11.2933 13.6185 11.2867 13.6283 11.2867 13.637C11.2867 13.6457 11.2734 13.6558 11.2734 13.6644C11.2734 13.6729 11.2668 13.6834 11.2668 13.6918C11.2668 13.7001 11.2536 13.7042 11.2536 13.7123C11.2536 13.7204 11.2404 13.7318 11.2404 13.7397C11.2404 13.7476 11.2272 13.7526 11.2272 13.7603C11.2272 13.7679 11.2074 13.7803 11.2074 13.7877C11.2074 13.795 11.1942 13.8012 11.1942 13.8082C11.1942 13.8153 11.1744 13.8288 11.1744 13.8288L11.1546 13.8493C11.1546 13.8493 11.1415 13.863 11.1347 13.863C11.128 13.863 11.1219 13.8836 11.1149 13.8836C11.1079 13.8836 11.1024 13.8973 11.0951 13.8973C11.0878 13.8973 11.0762 13.9178 11.0687 13.9178C11.0612 13.9178 11.0566 13.9315 11.0489 13.9315C11.0411 13.9315 11.0304 13.9452 11.0225 13.9452C11.0145 13.9452 11.0108 13.9521 11.0026 13.9521C10.9945 13.9521 10.9845 13.9658 10.9762 13.9658C10.9679 13.9658 10.9582 13.9726 10.9498 13.9726C10.9414 13.9726 10.932 13.9795 10.9234 13.9795C10.9148 13.9795 10.9056 13.9863 10.897 13.9863C10.8883 13.9863 10.8793 13.9932 10.8705 13.9932C10.8618 13.9932 10.8529 14 10.8441 14C10.8353 14 10.8266 14 10.8177 14C10.8088 14 10.8002 14 10.7913 14C10.7824 14 10.7737 14 10.7649 14C10.756 14 10.7473 14 10.7384 14C10.7296 14 10.7208 13.9932 10.712 13.9932C10.7032 13.9932 10.6943 13.9863 10.6856 13.9863C10.6769 13.9863 10.6678 13.9863 10.6592 13.9863C10.6506 13.9863 10.6479 13.9795 10.6394 13.9795C10.6309 13.9795 10.6213 13.9658 10.6129 13.9658C10.6046 13.9658 10.5947 13.9589 10.5865 13.9589C10.5783 13.9589 10.5681 13.9452 10.5601 13.9452C10.5521 13.9452 10.5481 13.9315 10.5403 13.9315C10.5325 13.9315 10.5215 13.9178 10.5139 13.9178C10.5063 13.9178 10.5014 13.9041 10.4941 13.9041C10.4867 13.9041 10.4813 13.8904 10.4742 13.8904L7.28402 11.5411C7.27681 11.5411 7.27115 11.5274 7.2642 11.5274C7.25726 11.5274 7.25105 11.5137 7.24439 11.5137C7.23772 11.5137 7.22457 11.4932 7.22457 11.4932L7.20476 11.4726C7.20476 11.4726 7.18494 11.459 7.18494 11.4521C7.18494 11.4451 7.17173 11.4388 7.17173 11.4315C7.17173 11.4242 7.15192 11.4185 7.15192 11.411C7.15192 11.4034 7.13871 11.3914 7.13871 11.3836C7.13871 11.3758 7.1255 11.371 7.1255 11.363C7.1255 11.355 7.11229 11.3439 7.11229 11.3356C7.11229 11.3274 7.09908 11.3235 7.09908 11.3151C7.09908 11.3066 7.09247 11.2963 7.09247 11.2877C7.09247 11.2791 7.08587 11.269 7.08587 11.2603C7.08587 11.2515 7.07266 11.2418 7.07266 11.2329C7.07266 11.224 7.06605 11.2145 7.06605 11.2055C7.06605 11.1965 7.06605 11.1872 7.06605 11.1781C7.06605 11.1675 7.04624 11.1616 7.04624 11.1507C7.04624 11.1398 7.03303 11.1276 7.03303 11.1164C7.03303 11.1052 7.02642 11.0937 7.02642 11.0822C7.02642 11.0707 7.01321 11.0596 7.01321 11.0479C7.01321 11.0363 7.00661 11.0255 7.00661 11.0137C7.00661 11.0019 7 10.9845 7 10.9726C7 10.9607 7 10.9503 7 10.9384C7 10.9264 7 10.9161 7 10.9041C7 10.8921 7 10.8818 7 10.8699C7 10.8579 7.00661 10.8406 7.00661 10.8288C7.00661 10.8169 7.01321 10.8062 7.01321 10.7945C7.01321 10.7828 7.01981 10.7718 7.01981 10.7603C7.01981 10.7487 7.03303 10.7373 7.03303 10.726C7.03303 10.7147 7.04624 10.7028 7.04624 10.6918C7.04624 10.6808 7.05945 10.6682 7.05945 10.6575C7.05945 10.6468 7.07266 10.6405 7.07266 10.6301C7.07266 10.6198 7.09247 10.6058 7.09247 10.5959C7.09247 10.586 7.10521 10.5779 7.11229 10.5685C7.11936 10.5591 7.13107 10.55 7.13871 10.5411C7.14634 10.5322 7.15035 10.5221 7.15852 10.5137C7.16669 10.5053 7.17627 10.501 7.18494 10.4932C7.19361 10.4853 7.20223 10.4798 7.21136 10.4726C7.22049 10.4654 7.22822 10.4521 7.23778 10.4521C7.24734 10.4521 7.26086 10.4315 7.27081 10.4315C7.28075 10.4315 7.28694 10.411 7.29723 10.411C7.30751 10.411 7.31966 10.3973 7.33025 10.3973C7.34084 10.3973 7.35243 10.3836 7.36328 10.3836C7.37412 10.3836 7.38525 10.3767 7.3963 10.3767C7.40736 10.3767 7.41811 10.3699 7.42933 10.3699C7.44055 10.3699 7.45101 10.363 7.46235 10.363C7.47369 10.363 7.48397 10.3562 7.49538 10.3562C7.50679 10.3562 7.51697 10.3562 7.5284 10.3562L16.3791 10.3562C16.3878 10.3562 16.3969 10.3562 16.4055 10.3562C16.4142 10.3562 16.4167 10.363 16.4254 10.363C16.434 10.363 16.4432 10.363 16.4518 10.363C16.4604 10.363 16.4697 10.3699 16.4782 10.3699C16.4867 10.3699 16.4962 10.3767 16.5046 10.3767C16.513 10.3767 16.5227 10.3836 16.531 10.3836C16.5394 10.3836 16.5493 10.3904 16.5575 10.3904C16.5656 10.3904 16.5692 10.3973 16.5773 10.3973C16.5853 10.3973 16.5958 10.411 16.6037 10.411C16.6116 10.411 16.6159 10.4247 16.6235 10.4247C16.6312 10.4247 16.6425 10.4384 16.6499 10.4384C16.6574 10.4384 16.6625 10.4521 16.6698 10.4521C16.677 10.4521 16.6826 10.4658 16.6896 10.4658C16.6965 10.4658 16.7092 10.4863 16.716 10.4863C16.7227 10.4863 16.7358 10.5 16.7358 10.5L16.749 10.5205L16.7688 10.5411C16.7688 10.5411 16.7886 10.5546 16.7886 10.5616C16.7886 10.5687 16.8018 10.5749 16.8018 10.5822C16.8018 10.5895 16.8151 10.5952 16.8151 10.6027C16.8151 10.6103 16.8349 10.6223 16.8349 10.6301C16.8349 10.638 16.8415 10.6426 16.8415 10.6507C16.8415 10.6587 16.8547 10.6698 16.8547 10.6781C16.8547 10.6863 16.8679 10.6902 16.8679 10.6986C16.8679 10.7071 16.8745 10.7174 16.8745 10.726C16.8745 10.7346 16.8811 10.7447 16.8811 10.7534C16.8811 10.7622 16.8943 10.772 16.8943 10.7808C16.8943 10.7897 16.8943 10.7993 16.8943 10.8082C16.8943 10.8172 16.9009 10.8266 16.9009 10.8356C16.9009 10.8446 16.9075 10.8539 16.9075 10.863C16.9075 10.8721 16.9075 10.8813 16.9075 10.8904C16.9075 10.8995 16.9075 10.9087 16.9075 10.9178C16.9075 10.9269 16.9075 10.9361 16.9075 10.9452C16.9075 10.9543 16.9075 10.9635 16.9075 10.9726C16.9075 10.9817 16.9009 10.9841 16.9009 10.9932C16.9009 11.0022 16.8943 11.0116 16.8943 11.0205C16.8943 11.0295 16.8943 11.0391 16.8943 11.0479C16.8943 11.0568 16.8811 11.0666 16.8811 11.0753C16.8811 11.0841 16.8745 11.0941 16.8745 11.1027C16.8745 11.1113 16.8679 11.1217 16.8679 11.1301C16.8679 11.1386 16.8547 11.1424 16.8547 11.1507C16.8547 11.1589 16.8415 11.17 16.8415 11.1781C16.8415 11.1861 16.8349 11.1908 16.8349 11.1986C16.8349 11.2065 16.8151 11.2184 16.8151 11.226C16.8151 11.2336 16.8018 11.2392 16.8018 11.2466C16.8018 11.2539 16.7886 11.2601 16.7886 11.2671C16.7886 11.2742 16.7688 11.2877 16.7688 11.2877L16.749 11.3082L16.7358 11.3288C16.7358 11.3288 16.7227 11.3425 16.716 11.3425C16.7092 11.3425 16.6965 11.363 16.6896 11.363C16.6826 11.363 16.677 11.3767 16.6698 11.3767C16.6625 11.3767 16.6574 11.3904 16.6499 11.3904C16.6425 11.3904 16.6312 11.4041 16.6235 11.4041C16.6159 11.4041 16.6116 11.4178 16.6037 11.4178C16.5958 11.4178 16.5853 11.4315 16.5773 11.4315C16.5692 11.4315 16.5656 11.4384 16.5575 11.4384C16.5493 11.4384 16.5394 11.4452 16.531 11.4452C16.5227 11.4452 16.5131 11.4589 16.5046 11.4589C16.4962 11.4589 16.4867 11.4589 16.4782 11.4589C16.4697 11.4589 16.4604 11.4658 16.4518 11.4658C16.4432 11.4658 16.434 11.4726 16.4254 11.4726C16.4167 11.4726 16.4142 11.4726 16.4055 11.4726C16.3969 11.4726 16.3878 11.4726 16.3791 11.4726L9.03435 11.4726Z"   fill="#33D6C0" >
</path>
</svg>
