<svg xmlns="http://www.w3.org/2000/svg" xmlns:xlink="http://www.w3.org/1999/xlink" viewBox="0 0 60 60" fill="none">
<path     fill="#FFFFFF" fill-opacity="0.4" d="M30 0C46.554 0 60 13.446 60 30C60 46.554 46.554 60 30 60C13.446 60 0 46.554 0 30C0 13.446 13.446 0 30 0Z">
</path>
<path fill-rule="evenodd"  fill="rgba(255, 255, 255, 1)"  d="M60 30C60 13.446 46.554 0 30 0C13.446 0 0 13.446 0 30C0 46.554 13.446 60 30 60C46.554 60 60 46.554 60 30ZM1 30C1 13.9837 13.9837 1 30 1C46.0163 1 59 13.9837 59 30C59 46.0163 46.0163 59 30 59C13.9837 59 1 46.0163 1 30Z">
</path>
<path    stroke="rgba(78, 89, 105, 1)" stroke-width="1.3333333730697632"    d="M42.0001 42.0003L40.4527 38.2111L39.938 36.9481L37.2261 30.6317L36.3959 30.6317L33.684 36.9481L33.1682 38.2111L31.6218 42.0003">
</path>
<path    stroke="rgba(78, 89, 105, 1)" stroke-width="1.3333333730697632"    d="M33.1682 38.2106L40.4534 38.2106">
</path>
<path    stroke="rgba(78, 89, 105, 1)" stroke-width="1.3333333730697632"    d="M25.7839 18.0002L26.4326 21.1585">
</path>
<path    stroke="rgba(78, 89, 105, 1)" stroke-width="1.3333333730697632"    d="M18 21.7898L34.8647 21.7898">
</path>
<path    stroke="rgba(78, 89, 105, 1)" stroke-width="1.3333333730697632"    d="M21.8921 21.7898C21.8921 21.7898 23.1171 26.7326 26.1809 29.4787C29.2435 32.2249 34.2164 34.4215 34.2164 34.4215">
</path>
<path    stroke="rgba(78, 89, 105, 1)" stroke-width="1.3333333730697632"    d="M30.973 21.7892C30.973 21.7892 29.7479 26.732 26.6841 29.4781C23.6215 32.2243 18.6487 34.4209 18.6487 34.4209">
</path>
</svg>
