<svg xmlns="http://www.w3.org/2000/svg" xmlns:xlink="http://www.w3.org/1999/xlink" viewBox="0 0 24 24" fill="none">
<path d="M16.1645 1.04613C16.0999 1.0156 16.019 1.00034 15.9381 1.00034L8.15949 1.00034C8.14952 0.999924 8.13954 0.999891 8.12956 1.00024C8.11958 1.00058 8.10963 1.00131 8.09971 1.00241C8.08979 1.00352 8.07993 1.00499 8.07015 1.00684C8.06034 1.0087 8.05065 1.01092 8.04104 1.01351C8.03143 1.0161 8.02196 1.01905 8.01261 1.02236C8.00326 1.02567 7.99405 1.02934 7.98501 1.03335C7.97597 1.03736 7.96713 1.04171 7.95846 1.0464C7.94979 1.05107 7.94134 1.05607 7.9331 1.0614C7.28622 1.42782 6.67168 1.85527 6.75256 2.66444C6.81723 3.42778 6.46147 3.65677 5.68521 3.64151C3.5182 3.61099 3.01686 4.14533 3.00071 6.16056C2.98453 6.86284 3.24328 7.04605 3.93866 7.04605Q11.9922 7.02315 20.0457 7.04605C20.7412 7.04605 21.0807 6.86284 20.9837 6.16056C20.9546 6.00484 20.9604 5.84912 20.9662 5.6934C20.9701 5.58958 20.974 5.48577 20.9675 5.38196C20.9029 4.42014 20.256 3.79418 19.2372 3.7484C18.8814 3.73313 18.5094 3.73313 18.1536 3.7484C17.6038 3.77891 17.3289 3.51937 17.3774 3.03084C17.4583 2.06903 16.9893 1.47361 16.1645 1.04613ZM13.0248 3.76026C12.6708 3.76196 12.3162 3.76367 11.9599 3.76367C11.6035 3.76367 11.2471 3.76196 10.8913 3.76026C10.1816 3.75687 9.47422 3.7535 8.77403 3.76367C8.19184 3.77891 7.96545 3.54991 7.96545 3.0003C7.96545 2.45069 8.27269 2.34383 8.77403 2.34383C10.8925 2.3591 13.0272 2.3591 15.1457 2.34383C15.647 2.34383 15.9543 2.45069 15.9543 3.0003C15.9543 3.54991 15.7279 3.77891 15.1457 3.76367C14.4348 3.7535 13.731 3.75687 13.0248 3.76026ZM14.5449 8.11134C16.2646 8.10795 17.9818 8.10456 19.7062 8.11473C20.7573 8.13 20.8543 8.20633 20.7412 9.21395C20.3207 13.4123 19.8679 17.5955 19.4151 21.7786C19.2857 22.9237 19.1886 22.9847 17.9273 22.9847C16.7869 22.9847 15.6453 22.9822 14.5027 22.9798C11.643 22.9735 8.77729 22.9673 5.91163 23C4.94131 23 4.56937 22.6947 4.48849 21.7939C4.13273 18.084 3.71227 14.3894 3.32412 10.6796C3.27563 10.2368 3.21093 9.77883 3.16243 9.32082C3.04921 8.26741 3.17858 8.11473 4.31063 8.11473L11.9599 8.11473C12.823 8.11473 13.6843 8.11304 14.5449 8.11134Z" fill-rule="evenodd"  fill="#858C94" >
</path>
<path d="M16.8592 17.0175L16.872 16.9906L16.8848 16.9636L16.8976 16.9367L16.9104 16.903L16.9232 16.876L16.9296 16.8423L16.9424 16.8154L16.9488 16.7817L16.9552 16.7547L16.9616 16.721L16.968 16.6873L16.968 16.6604L16.9744 16.6267L16.9744 16.593L16.9744 16.566L16.9808 16.5323L16.9744 16.4987L16.9744 16.465L16.9744 16.438L16.968 16.4043L16.968 16.3706C16.968 16.3601 16.9616 16.3541 16.9616 16.3437L16.9552 16.31L16.9488 16.2763L16.9424 16.2493L16.9296 16.2156L16.9232 16.1887L16.9104 16.1617L16.8976 16.128L16.8848 16.1011L16.872 16.0741L16.8592 16.0472L15.822 14.1806L13.7862 15.3666L14.9834 17.4825L16.0589 17.4825L16.8592 17.0175ZM9.95134 11.4245L8.71575 13.628L10.7516 14.814L12.5506 11.593C12.5574 11.5815 12.5626 11.5705 12.5698 11.5593C12.577 11.548 12.5815 11.5366 12.589 11.5256C12.5965 11.5146 12.6068 11.5094 12.6146 11.4987C12.6224 11.488 12.632 11.4754 12.6402 11.465C12.6484 11.4545 12.6573 11.4414 12.6658 11.4313C12.6743 11.4211 12.6826 11.4142 12.6914 11.4043C12.7002 11.3944 12.7079 11.3802 12.717 11.3706C12.7261 11.361 12.7333 11.3529 12.7426 11.3437C12.752 11.3344 12.765 11.3256 12.7746 11.3167C12.7843 11.3077 12.7903 11.2984 12.8003 11.2898C12.8102 11.2812 12.8221 11.2778 12.8323 11.2695C12.8424 11.2613 12.8539 11.2505 12.8643 11.2426C12.8747 11.2347 12.8856 11.2232 12.8963 11.2156C12.9069 11.2081 12.9174 11.2026 12.9283 11.1954C12.9392 11.1882 12.9492 11.182 12.9603 11.1752C12.9714 11.1684 12.981 11.155 12.9923 11.155C13.0036 11.155 13.0128 11.1348 13.0243 11.1348C13.0358 11.1348 13.051 11.1213 13.0627 11.1213C13.0744 11.1213 13.0829 11.1011 13.0948 11.1011C13.1066 11.1011 13.1212 11.0876 13.1332 11.0876C13.1452 11.0876 13.1594 11.0741 13.1716 11.0741C13.1837 11.0741 13.1913 11.0606 13.2036 11.0606C13.2158 11.0606 13.2296 11.0472 13.242 11.0472C13.2544 11.0472 13.2679 11.0404 13.2804 11.0404C13.2929 11.0404 13.3062 11.027 13.3188 11.027C13.3314 11.027 13.3446 11.0202 13.3572 11.0202C13.3699 11.0202 13.3829 11.0135 13.3956 11.0135C13.4083 11.0135 13.4213 11.0135 13.4341 11.0135C13.4468 11.0135 13.4597 11.0067 13.4725 11.0067C13.4853 11.0067 13.498 11.0067 13.5109 11.0067C13.5237 11.0067 13.5364 11 13.5493 11C13.5621 11 13.5748 11 13.5877 11L10.63 11C10.3504 11 10.1118 11.1712 9.95134 11.4245ZM7.16005 17.186L8.63892 19.7736C8.63892 19.7619 8.61972 19.745 8.61972 19.7332C8.61972 19.7213 8.60051 19.7115 8.60051 19.6995C8.60051 19.6874 8.58771 19.678 8.58771 19.6658C8.58771 19.6535 8.5749 19.6377 8.5749 19.6253C8.5749 19.6129 8.5621 19.6042 8.5621 19.5916C8.5621 19.5791 8.5493 19.5639 8.5493 19.5512C8.5493 19.5385 8.53649 19.5236 8.53649 19.5108C8.53649 19.498 8.52369 19.49 8.52369 19.4771C8.52369 19.4642 8.51729 19.4496 8.51729 19.4367C8.51729 19.4236 8.51088 19.4093 8.51088 19.3962C8.51088 19.3831 8.50448 19.369 8.50448 19.3558C8.50448 19.3426 8.49808 19.3286 8.49808 19.3154C8.49808 19.3021 8.49168 19.2882 8.49168 19.2749C8.49168 19.2616 8.49168 19.2545 8.49168 19.2412C8.49168 19.2279 8.48528 19.2141 8.48528 19.2008C8.48528 19.1875 8.48528 19.1737 8.48528 19.1604C8.48528 19.147 8.48528 19.1332 8.48528 19.1199C8.48528 19.1066 8.49168 19.0928 8.49168 19.0795C8.49168 19.0662 8.49168 19.0524 8.49168 19.0391C8.49168 19.0258 8.49808 19.0119 8.49808 18.9987C8.49808 18.9854 8.50448 18.9714 8.50448 18.9582C8.50448 18.945 8.51088 18.9309 8.51088 18.9178C8.51088 18.9047 8.51729 18.8903 8.51729 18.8774C8.51729 18.8643 8.52369 18.8566 8.52369 18.8437C8.52369 18.8307 8.53649 18.816 8.53649 18.8032C8.53649 18.7904 8.5493 18.7755 8.5493 18.7628C8.5493 18.7501 8.5621 18.7417 8.5621 18.7291C8.5621 18.7166 8.5749 18.701 8.5749 18.6887C8.5749 18.6762 8.58771 18.6672 8.58771 18.655C8.58771 18.6427 8.60051 18.6266 8.60051 18.6146C8.60051 18.6025 8.61972 18.5927 8.61972 18.5809C8.61972 18.569 8.63892 18.5589 8.63892 18.5472L9.79129 16.5121L10.5531 16.9771C10.5531 16.9771 9.875 15.1527 9.35595 14.8544C8.87705 14.5589 7 14.8544 7 14.8544L7.76184 15.279L7.16005 16.3437C7.16005 16.3515 7.14725 16.3559 7.14725 16.3639C7.14725 16.3719 7.13444 16.3827 7.13444 16.3908C7.13444 16.399 7.12164 16.4027 7.12164 16.4111C7.12164 16.4193 7.10883 16.4295 7.10883 16.438C7.10883 16.4465 7.09603 16.4563 7.09603 16.465C7.09603 16.4736 7.08963 16.4832 7.08963 16.4919C7.08963 16.5006 7.07682 16.51 7.07682 16.5189C7.07682 16.5277 7.07042 16.5369 7.07042 16.5458C7.07042 16.5548 7.06402 16.5637 7.06402 16.5728C7.06402 16.5818 7.05762 16.5906 7.05762 16.5997C7.05762 16.6088 7.05122 16.6175 7.05122 16.6267C7.05122 16.6358 7.04481 16.6444 7.04481 16.6536C7.04481 16.6629 7.04481 16.6713 7.04481 16.6806C7.04481 16.6899 7.04481 16.6982 7.04481 16.7075C7.04481 16.7169 7.03841 16.7252 7.03841 16.7345C7.03841 16.7438 7.03841 16.7521 7.03841 16.7615C7.03841 16.7708 7.03841 16.7858 7.03841 16.7951C7.03841 16.8045 7.04481 16.8128 7.04481 16.8221C7.04481 16.8314 7.04481 16.8398 7.04481 16.8491C7.04481 16.8583 7.04481 16.8668 7.04481 16.876C7.04481 16.8852 7.05122 16.8938 7.05122 16.903C7.05122 16.9122 7.05762 16.9208 7.05762 16.9299C7.05762 16.939 7.06402 16.9478 7.06402 16.9569C7.06402 16.9659 7.07042 16.9749 7.07042 16.9838C7.07042 16.9928 7.07682 17.0019 7.07682 17.0108C7.07682 17.0196 7.08963 17.029 7.08963 17.0377C7.08963 17.0465 7.09603 17.0561 7.09603 17.0647C7.09603 17.0733 7.10883 17.0832 7.10883 17.0916C7.10883 17.1001 7.12164 17.1102 7.12164 17.1186C7.12164 17.1269 7.13444 17.1306 7.13444 17.1388C7.13444 17.147 7.14725 17.1578 7.14725 17.1658C7.14725 17.1737 7.16005 17.1781 7.16005 17.186ZM9.63764 20.1509L11.7503 20.1509L11.7503 17.6981L9.39437 17.6981L8.83739 18.6685C8.83739 18.6777 8.82458 18.6927 8.82458 18.7022C8.82458 18.7116 8.81178 18.7195 8.81178 18.7291C8.81178 18.7387 8.79898 18.7464 8.79898 18.7561C8.79898 18.7658 8.78617 18.7732 8.78617 18.783C8.78617 18.7929 8.77337 18.8068 8.77337 18.8167C8.77337 18.8267 8.76697 18.8336 8.76697 18.8437C8.76697 18.8537 8.75416 18.8672 8.75416 18.8774C8.75416 18.8875 8.74776 18.894 8.74776 18.9043C8.74776 18.9146 8.74136 18.9277 8.74136 18.938C8.74136 18.9483 8.73495 18.9613 8.73495 18.9717C8.73495 18.9821 8.72855 18.9882 8.72855 18.9987C8.72855 19.0091 8.72215 19.0218 8.72215 19.0323C8.72215 19.0428 8.72215 19.0555 8.72215 19.066C8.72215 19.0766 8.71575 19.0824 8.71575 19.093C8.71575 19.1035 8.71575 19.1161 8.71575 19.1267C8.71575 19.1373 8.71575 19.1498 8.71575 19.1604C8.71575 19.171 8.71575 19.1768 8.71575 19.1873C8.71575 19.1979 8.71575 19.2104 8.71575 19.221C8.71575 19.2316 8.72215 19.2442 8.72215 19.2547C8.72215 19.2653 8.72215 19.2712 8.72215 19.2817C8.72215 19.2922 8.72855 19.3049 8.72855 19.3154C8.72855 19.3258 8.73495 19.3386 8.73495 19.3491C8.73495 19.3594 8.74136 19.3657 8.74136 19.376C8.74136 19.3863 8.74776 19.3994 8.74776 19.4097C8.74776 19.4199 8.75416 19.4332 8.75416 19.4434C8.75416 19.4535 8.76697 19.4603 8.76697 19.4704C8.76697 19.4804 8.77337 19.4873 8.77337 19.4973C8.77337 19.5073 8.78617 19.5212 8.78617 19.531C8.78617 19.5408 8.79898 19.5482 8.79898 19.558C8.79898 19.5677 8.81178 19.5821 8.81178 19.5916C8.81178 19.6012 8.82458 19.6092 8.82458 19.6186C8.82458 19.628 8.83739 19.6363 8.83739 19.6456C8.99662 19.9425 9.27783 20.1509 9.63764 20.1509ZM12.7042 11.721L12.1857 12.6981L12.7106 13.6752L11.9488 14.093C11.9488 14.093 13.7857 14.3899 14.3047 14.093C14.8238 13.7974 15.5019 11.9771 15.5019 11.9771L14.7401 12.442L14.3047 11.721C14.3047 11.7121 14.2855 11.7028 14.2855 11.6941C14.2855 11.6853 14.2727 11.6825 14.2727 11.6739C14.2727 11.6653 14.2535 11.6553 14.2535 11.6469C14.2535 11.6385 14.2343 11.6281 14.2343 11.6199C14.2343 11.6118 14.2216 11.601 14.2151 11.593C14.2086 11.585 14.2026 11.5805 14.1959 11.5728C14.1892 11.565 14.1836 11.56 14.1767 11.5526C14.1697 11.545 14.1647 11.5329 14.1575 11.5256C14.1503 11.5183 14.1393 11.5124 14.1319 11.5054C14.1245 11.4984 14.1203 11.4919 14.1127 11.4852C14.1051 11.4784 14.0949 11.465 14.0871 11.465C14.0793 11.465 14.0695 11.4447 14.0615 11.4447C14.0534 11.4447 14.0505 11.4313 14.0423 11.4313C14.0341 11.4313 14.025 11.4111 14.0166 11.4111C14.0082 11.4111 13.9996 11.3976 13.991 11.3976C13.9825 11.3976 13.9741 11.3774 13.9654 11.3774C13.9567 11.3774 13.9487 11.3639 13.9398 11.3639C13.9309 11.3639 13.9168 11.3504 13.9078 11.3504C13.8988 11.3504 13.8913 11.3369 13.8822 11.3369C13.8731 11.3369 13.8659 11.3235 13.8566 11.3235C13.8473 11.3235 13.8339 11.3167 13.8246 11.3167C13.8152 11.3167 13.8084 11.3032 13.799 11.3032C13.7895 11.3032 13.7829 11.2965 13.7734 11.2965C13.7638 11.2965 13.751 11.2898 13.7414 11.2898C13.7317 11.2898 13.7254 11.2763 13.7157 11.2763C13.706 11.2763 13.6935 11.2763 13.6837 11.2763C13.6739 11.2763 13.6615 11.2695 13.6517 11.2695C13.6419 11.2695 13.636 11.2628 13.6261 11.2628C13.6162 11.2628 13.604 11.2628 13.5941 11.2628C13.5842 11.2628 13.572 11.2561 13.5621 11.2561C13.5521 11.2561 13.5464 11.2561 13.5365 11.2561C13.5265 11.2561 13.5144 11.2561 13.5045 11.2561C13.4945 11.2561 13.4824 11.2561 13.4725 11.2561C13.4625 11.2561 13.4568 11.2561 13.4469 11.2561C13.4369 11.2561 13.4248 11.2628 13.4149 11.2628C13.4049 11.2628 13.3991 11.2628 13.3892 11.2628C13.3794 11.2628 13.367 11.2695 13.3572 11.2695C13.3474 11.2695 13.335 11.2763 13.3252 11.2763C13.3154 11.2763 13.3093 11.2763 13.2996 11.2763C13.2899 11.2763 13.2772 11.2898 13.2676 11.2898C13.258 11.2898 13.2515 11.2965 13.242 11.2965C13.2324 11.2965 13.2194 11.3032 13.21 11.3032C13.2005 11.3032 13.1937 11.3167 13.1844 11.3167C13.175 11.3167 13.1616 11.3235 13.1524 11.3235C13.1431 11.3235 13.1359 11.3369 13.1268 11.3369C13.1176 11.3369 13.1101 11.3504 13.1012 11.3504C13.0922 11.3504 13.0844 11.3639 13.0755 11.3639C13.0667 11.3639 13.0586 11.3774 13.0499 11.3774C13.0412 11.3774 13.0328 11.3976 13.0243 11.3976C13.0158 11.3976 13.0071 11.4111 12.9987 11.4111C12.9903 11.4111 12.9813 11.4313 12.9731 11.4313C12.9649 11.4313 12.9555 11.4447 12.9475 11.4447C12.9395 11.4447 12.9297 11.465 12.9219 11.465C12.9141 11.465 12.9103 11.4784 12.9027 11.4852C12.8951 11.4919 12.8845 11.4984 12.8771 11.5054C12.8697 11.5124 12.865 11.5183 12.8579 11.5256C12.8507 11.5328 12.8392 11.545 12.8323 11.5526C12.8253 11.56 12.8198 11.565 12.8131 11.5728C12.8064 11.5805 12.8003 11.585 12.7939 11.593C12.7874 11.6009 12.7746 11.6117 12.7746 11.6199C12.7746 11.6281 12.7554 11.6385 12.7554 11.6469C12.7554 11.6553 12.7426 11.6653 12.7426 11.6739C12.7426 11.6824 12.7234 11.6853 12.7234 11.6941C12.7234 11.7029 12.7106 11.7121 12.7106 11.721L12.7042 11.721ZM14.8617 20.1105C14.8795 20.1105 14.9016 20.1105 14.9193 20.1105C14.9371 20.1105 14.9529 20.1038 14.9706 20.1038C14.9882 20.1038 15.0043 20.0903 15.0218 20.0903C15.0392 20.0903 15.0558 20.0768 15.073 20.0768C15.0902 20.0768 15.1073 20.0633 15.1242 20.0633C15.1411 20.0633 15.1589 20.0502 15.1754 20.0431C15.1919 20.036 15.2106 20.0243 15.2266 20.0162C15.2427 20.008 15.2559 19.9984 15.2714 19.9892C15.287 19.9801 15.3012 19.9723 15.3163 19.9623C15.3312 19.9521 15.3466 19.9396 15.3611 19.9286C15.3755 19.9175 15.3921 19.9068 15.4059 19.8949C15.4196 19.8829 15.4313 19.874 15.4443 19.8612C15.4573 19.8484 15.4704 19.8343 15.4827 19.8208C15.495 19.8071 15.5032 19.7946 15.5147 19.7803C15.5262 19.766 15.5425 19.7482 15.5531 19.7332C15.5638 19.7181 15.569 19.7017 15.5787 19.686L17 17.0984C16.7957 17.4573 16.4071 17.6509 15.9821 17.6509L13.6645 17.6509L13.6645 16.7615C13.6645 16.7615 12.4674 18.2493 12.4674 18.8841C12.4674 19.5201 13.6645 21 13.6645 21L13.6645 20.1105L14.8617 20.1105Z"   fill="#FFFFFF" >
</path>
</svg>
