<svg xmlns="http://www.w3.org/2000/svg" xmlns:xlink="http://www.w3.org/1999/xlink" viewBox="0 0 60 60" fill="none">
<path     fill="#FFFFFF" fill-opacity="0.4" d="M30 0C46.554 0 60 13.446 60 30C60 46.554 46.554 60 30 60C13.446 60 0 46.554 0 30C0 13.446 13.446 0 30 0Z">
</path>
<path fill-rule="evenodd"  fill="rgba(255, 255, 255, 1)"  d="M60 30C60 13.446 46.554 0 30 0C13.446 0 0 13.446 0 30C0 46.554 13.446 60 30 60C46.554 60 60 46.554 60 30ZM1 30C1 13.9837 13.9837 1 30 1C46.0163 1 59 13.9837 59 30C59 46.0163 46.0163 59 30 59C13.9837 59 1 46.0163 1 30Z">
</path>
<path d="M42.2727 30.0236C42.4138 30.0236 42.5433 30.0758 42.661 30.1802C42.7786 30.2846 42.8688 30.4212 42.9315 30.5899C42.9943 30.7585 43.0139 30.9513 42.9904 31.1682C42.9669 31.385 42.8766 31.6139 42.7197 31.8549C42.406 32.3368 42.0177 32.9472 41.5549 33.6862C41.0921 34.4251 40.5078 35.2363 39.8019 36.1198C39.5979 36.3769 39.4019 36.5535 39.2136 36.6499C39.0254 36.7463 38.8136 36.7784 38.5782 36.7463C38.3273 36.7142 38.1311 36.6017 37.9899 36.409C37.8487 36.2162 37.6605 35.9994 37.4252 35.7584C37.0801 35.405 36.7467 35.0154 36.4251 34.5898C36.1035 34.1641 35.8094 33.7545 35.5427 33.3608C35.276 32.9673 35.0485 32.6179 34.8603 32.3127C34.6721 32.0074 34.5465 31.7987 34.4838 31.6862C34.3269 31.4453 34.2367 31.2204 34.2132 31.0115C34.1896 30.8027 34.2054 30.626 34.2602 30.4814C34.3151 30.3368 34.3936 30.2244 34.4955 30.1441C34.5976 30.0638 34.7034 30.0236 34.8132 30.0236L37.2134 30.0236C37.2134 28.851 36.982 27.6903 36.5192 26.5418C36.0564 25.3932 35.3937 24.3772 34.5309 23.4937C33.7307 22.6744 32.8131 22.068 31.7776 21.6745C30.7423 21.2809 29.6834 21.0922 28.601 21.1082C27.5185 21.1243 26.4635 21.3411 25.436 21.7588C24.4085 22.1765 23.4947 22.7949 22.6946 23.6142C21.8945 24.4334 21.2709 25.3892 20.8238 26.4815C20.3768 27.5739 20.1297 28.6983 20.0826 29.8549C20.0355 31.0115 20.1963 32.132 20.565 33.2163C20.9337 34.3005 21.5259 35.2363 22.3416 36.0235C23.0632 36.6981 23.7849 37.2322 24.5065 37.6258C25.2281 38.0193 25.9341 38.3044 26.6243 38.4812C27.3146 38.6579 27.9735 38.7383 28.601 38.7221C29.2285 38.706 29.805 38.6338 30.3305 38.5053C30.8561 38.3767 31.3228 38.2041 31.7306 37.9872C32.1385 37.7704 32.4601 37.5495 32.6954 37.3245C33.0719 37.0997 33.4719 36.9792 33.8954 36.9631C34.3191 36.947 34.6877 37.1077 35.0015 37.445C35.3937 37.8466 35.5349 38.2604 35.425 38.6859C35.3152 39.1116 35.0721 39.5173 34.6956 39.9028C34.523 40.0795 34.3269 40.2161 34.1073 40.3125C33.0719 41.0674 31.9503 41.5654 30.7423 41.8064C29.5344 42.0473 28.3186 42.0634 27.0949 41.8545C25.8713 41.6457 24.6791 41.2321 23.5182 40.6136C22.3573 39.9952 21.3141 39.212 20.3885 38.2644C19.259 37.1077 18.4119 35.8025 17.8471 34.3488C17.2824 32.8951 17 31.4091 17 29.8911C17 28.3731 17.2863 26.8831 17.8589 25.4213C18.4315 23.9595 19.2825 22.6503 20.412 21.4937C21.5415 20.3372 22.8162 19.4657 24.2359 18.8794C25.6556 18.293 27.1067 17.9999 28.5892 17.9999C30.0716 17.9999 31.5267 18.293 32.9543 18.8794C34.3818 19.4657 35.6603 20.3372 36.7899 21.4937C37.4174 22.1363 37.9468 22.819 38.3782 23.5419C38.8096 24.2647 39.1547 24.9997 39.4136 25.7466C39.6724 26.4936 39.8567 27.2325 39.9666 27.9634C40.0764 28.6943 40.1313 29.3811 40.1313 30.0236L42.2727 30.0236L42.2727 30.0236ZM30.3188 29.9754C30.3188 30.3931 30.1776 30.7505 29.8952 31.0477C29.6128 31.3449 29.2677 31.4935 28.8598 31.4935C28.4519 31.4935 28.1029 31.3449 27.8126 31.0477C27.5224 30.7505 27.3773 30.3931 27.3773 29.9754L27.3773 25.4454C27.3773 25.0278 27.5224 24.6744 27.8126 24.3852C28.1029 24.0961 28.4519 23.9515 28.8598 23.9515C29.2677 23.9515 29.6128 24.0961 29.8952 24.3852C30.1776 24.6744 30.3188 25.0278 30.3188 25.4454L30.3188 29.9754ZM28.8598 32.9873C29.2677 32.9873 29.6128 33.136 29.8952 33.4331C30.1776 33.7304 30.3188 34.0878 30.3188 34.5054C30.3188 34.9231 30.1776 35.2764 29.8952 35.5657C29.6128 35.8548 29.2677 35.9994 28.8598 35.9994C28.4519 35.9994 28.1029 35.8548 27.8126 35.5657C27.5224 35.2764 27.3773 34.9231 27.3773 34.5054C27.3773 34.0878 27.5224 33.7304 27.8126 33.4331C28.1029 33.136 28.4519 32.9873 28.8598 32.9873Z"   fill="#4E5969" >
</path>
</svg>
