<svg xmlns="http://www.w3.org/2000/svg" xmlns:xlink="http://www.w3.org/1999/xlink" viewBox="0 0 24 24" fill="none">
<path d="M0 3C0 2.97545 0.000602271 2.95092 0.00180682 2.92641C0.00301137 2.90187 0.00481673 2.8774 0.00722292 2.85298C0.00962908 2.82854 0.0126332 2.80418 0.0162352 2.7799C0.0198373 2.75562 0.0240328 2.73144 0.028822 2.70736C0.0336112 2.68328 0.0389883 2.65934 0.0449531 2.63552C0.050918 2.61171 0.0574634 2.58806 0.0645895 2.56458C0.0717157 2.54108 0.0794137 2.51777 0.0876839 2.49466C0.0959541 2.47155 0.104786 2.44866 0.114181 2.42597C0.123575 2.4033 0.13352 2.38086 0.144016 2.35866C0.154512 2.33647 0.165546 2.31455 0.177118 2.2929C0.18869 2.27126 0.200787 2.2499 0.213407 2.22885C0.226027 2.20779 0.239156 2.18706 0.252795 2.16664C0.266433 2.14623 0.280566 2.12617 0.295188 2.10645C0.309811 2.08673 0.324909 2.06739 0.340484 2.04841C0.356058 2.02943 0.372087 2.01085 0.388573 1.99266C0.405059 1.97447 0.42198 1.9567 0.439341 1.93934C0.456698 1.92198 0.474471 1.90506 0.492661 1.88857C0.510851 1.87209 0.529432 1.85606 0.548409 1.84048C0.567387 1.82491 0.586732 1.80981 0.60645 1.79519C0.626168 1.78057 0.646233 1.76643 0.666644 1.75279C0.687056 1.73916 0.707789 1.72603 0.728845 1.71341C0.749901 1.70079 0.771255 1.68869 0.792905 1.67712C0.814554 1.66555 0.836475 1.65451 0.858668 1.64402C0.880859 1.63352 0.903295 1.62358 0.925976 1.61418C0.948656 1.60479 0.971552 1.59595 0.994664 1.58768C1.01778 1.57941 1.04108 1.57172 1.06457 1.56459C1.08806 1.55746 1.11172 1.55092 1.13553 1.54495C1.15934 1.53899 1.18329 1.53361 1.20736 1.52882C1.23144 1.52403 1.25562 1.51984 1.2799 1.51624C1.30419 1.51263 1.32855 1.50963 1.35297 1.50722C1.37741 1.50482 1.40188 1.50301 1.4264 1.50181C1.45092 1.5006 1.47545 1.5 1.5 1.5L12 1.5C12.0245 1.5 12.0491 1.5006 12.0736 1.50181C12.0981 1.50301 12.1226 1.50482 12.147 1.50722C12.1715 1.50963 12.1958 1.51263 12.2201 1.51624C12.2444 1.51984 12.2686 1.52403 12.2926 1.52882C12.3167 1.53361 12.3407 1.53899 12.3645 1.54495C12.3883 1.55092 12.4119 1.55746 12.4354 1.56459C12.4589 1.57172 12.4822 1.57941 12.5053 1.58768C12.5284 1.59595 12.5513 1.60479 12.574 1.61418C12.5967 1.62357 12.6191 1.63352 12.6413 1.64402C12.6635 1.65451 12.6855 1.66555 12.7071 1.67712C12.7287 1.68869 12.7501 1.70079 12.7712 1.71341C12.7922 1.72603 12.813 1.73916 12.8334 1.75279C12.8538 1.76643 12.8738 1.78057 12.8936 1.79519C12.9133 1.80981 12.9326 1.82491 12.9516 1.84048C12.9706 1.85606 12.9892 1.87209 13.0073 1.88857C13.0255 1.90506 13.0433 1.92198 13.0607 1.93934C13.078 1.9567 13.095 1.97447 13.1114 1.99266C13.1279 2.01085 13.1439 2.02943 13.1595 2.04841C13.1751 2.06739 13.1902 2.08673 13.2048 2.10645C13.2194 2.12617 13.2336 2.14623 13.2472 2.16664C13.2608 2.18706 13.274 2.20779 13.2866 2.22885C13.2992 2.2499 13.3113 2.27126 13.3229 2.2929C13.3345 2.31455 13.3455 2.33647 13.356 2.35866C13.3665 2.38086 13.3764 2.4033 13.3858 2.42597C13.3952 2.44866 13.404 2.47155 13.4123 2.49466C13.4206 2.51777 13.4283 2.54108 13.4354 2.56458C13.4425 2.58806 13.4491 2.61171 13.455 2.63552C13.461 2.65934 13.4664 2.68328 13.4712 2.70736C13.476 2.73144 13.4802 2.75562 13.4838 2.7799C13.4874 2.80418 13.4904 2.82854 13.4928 2.85298C13.4952 2.8774 13.497 2.90187 13.4982 2.92641C13.4994 2.95092 13.5 2.97545 13.5 3L13.5 9C13.5 9.02454 13.4994 9.04908 13.4982 9.07359C13.497 9.09813 13.4952 9.1226 13.4928 9.14702C13.4904 9.17147 13.4874 9.19582 13.4838 9.2201C13.4802 9.24438 13.476 9.26857 13.4712 9.29264C13.4664 9.31671 13.461 9.34066 13.455 9.36448C13.4491 9.38829 13.4425 9.41194 13.4354 9.43542C13.4283 9.45893 13.4206 9.48223 13.4123 9.50533C13.404 9.52844 13.3952 9.55134 13.3858 9.57403C13.3764 9.59669 13.3665 9.61912 13.356 9.64132C13.3455 9.66352 13.3345 9.68545 13.3229 9.70708C13.3113 9.72874 13.2992 9.75009 13.2866 9.77116C13.274 9.79221 13.2608 9.81293 13.2472 9.83334C13.2336 9.85376 13.2194 9.87384 13.2048 9.89355C13.1902 9.91326 13.1751 9.93262 13.1595 9.95158C13.1439 9.97057 13.1279 9.98916 13.1114 10.0073C13.095 10.0255 13.078 10.0433 13.0607 10.0607C13.0433 10.078 13.0255 10.095 13.0073 10.1114C12.9892 10.1279 12.9706 10.1439 12.9516 10.1595C12.9326 10.1751 12.9133 10.1902 12.8936 10.2048C12.8738 10.2194 12.8538 10.2336 12.8333 10.2472C12.8129 10.2608 12.7922 10.274 12.7712 10.2866C12.7501 10.2992 12.7287 10.3113 12.7071 10.3229C12.6855 10.3345 12.6635 10.3455 12.6413 10.356C12.6191 10.3665 12.5967 10.3764 12.574 10.3858C12.5513 10.3952 12.5284 10.404 12.5053 10.4123C12.4822 10.4206 12.4589 10.4283 12.4354 10.4354C12.4119 10.4425 12.3883 10.4491 12.3645 10.455C12.3407 10.461 12.3167 10.4664 12.2926 10.4712C12.2686 10.476 12.2444 10.4802 12.2201 10.4838C12.1958 10.4874 12.1715 10.4904 12.147 10.4928C12.1226 10.4952 12.0981 10.497 12.0736 10.4982C12.0491 10.4994 12.0245 10.5 12 10.5L5.1 10.5L5.1 16.5C5.1 16.5147 5.10035 16.5295 5.10108 16.5442C5.1018 16.5589 5.10291 16.5736 5.10434 16.5882C5.10576 16.6029 5.10757 16.6175 5.10975 16.632C5.11191 16.6466 5.11441 16.6611 5.1173 16.6756C5.12018 16.69 5.12339 16.7044 5.12698 16.7187C5.13056 16.733 5.13448 16.7472 5.13874 16.7613C5.14303 16.7753 5.14765 16.7893 5.15262 16.8032C5.15756 16.8171 5.16286 16.8308 5.16851 16.8444C5.17416 16.858 5.18011 16.8715 5.18641 16.8848C5.19272 16.8981 5.19933 16.9113 5.20626 16.9243C5.21323 16.9372 5.22047 16.95 5.22804 16.9627C5.23561 16.9753 5.24351 16.9878 5.25169 17C5.25987 17.0123 5.26833 17.0243 5.27712 17.0361C5.28588 17.048 5.29493 17.0596 5.30428 17.071C5.31363 17.0823 5.32324 17.0935 5.33313 17.1044C5.34305 17.1153 5.35319 17.126 5.3636 17.1364C5.37403 17.1468 5.38469 17.157 5.39559 17.1668C5.40652 17.1768 5.41767 17.1864 5.42904 17.1957C5.44043 17.2051 5.45203 17.2141 5.46387 17.2229C5.4757 17.2317 5.48773 17.2401 5.49998 17.2483C5.51224 17.2565 5.52466 17.2644 5.5373 17.272C5.54993 17.2795 5.56275 17.2868 5.57573 17.2937C5.58874 17.3007 5.60189 17.3073 5.6152 17.3136C5.62852 17.3199 5.64197 17.3258 5.65559 17.3315C5.6692 17.3371 5.68294 17.3424 5.69679 17.3474C5.71066 17.3524 5.72466 17.357 5.73874 17.3613C5.75283 17.3655 5.76703 17.3694 5.78133 17.373C5.7956 17.3766 5.80997 17.3798 5.82443 17.3827C5.83887 17.3856 5.85337 17.3881 5.86795 17.3902C5.88251 17.3924 5.89713 17.3942 5.91178 17.3957C5.92643 17.3971 5.94112 17.3982 5.95584 17.3989C5.97054 17.3996 5.98526 17.4 6 17.4L9 17.4L9 19.5L6 19.5C5.9509 19.5 5.90184 19.4988 5.85279 19.4964C5.80376 19.494 5.75482 19.4904 5.70595 19.4856C5.65709 19.4808 5.60838 19.4747 5.5598 19.4675C5.51123 19.4603 5.46288 19.4519 5.41472 19.4423C5.36658 19.4328 5.31869 19.422 5.27107 19.4101C5.22342 19.3982 5.17612 19.3851 5.12916 19.3708C5.08216 19.3566 5.03557 19.3412 4.98933 19.3246C4.94311 19.3081 4.89731 19.2904 4.85196 19.2716C4.80659 19.2528 4.7617 19.233 4.71734 19.212C4.67294 19.191 4.62909 19.1689 4.5858 19.1458C4.54252 19.1226 4.49981 19.0984 4.45769 19.0732C4.41558 19.0479 4.37412 19.0217 4.33329 18.9944C4.29246 18.9671 4.25234 18.9389 4.21289 18.9096C4.17347 18.8804 4.13477 18.8502 4.09683 18.819C4.05888 18.7879 4.02171 18.7558 3.98531 18.7229C3.94894 18.6899 3.91338 18.656 3.87867 18.6213C3.84396 18.5866 3.81012 18.5511 3.77714 18.5147C3.74416 18.4783 3.71212 18.4411 3.68098 18.4032C3.64983 18.3652 3.61962 18.3265 3.59037 18.2871C3.56114 18.2477 3.53287 18.2075 3.50559 18.1667C3.47831 18.1259 3.45206 18.0844 3.42682 18.0423C3.40158 18.0002 3.37737 17.9575 3.35423 17.9142C3.3311 17.8709 3.30902 17.8271 3.28802 17.7827C3.26705 17.7383 3.24715 17.6934 3.22835 17.648C3.20958 17.6027 3.19191 17.5569 3.17536 17.5107C3.15884 17.4644 3.14344 17.4178 3.12919 17.3708C3.11491 17.3239 3.10184 17.2766 3.08991 17.2289C3.07798 17.1813 3.06722 17.1334 3.05763 17.0853C3.04805 17.0371 3.03966 16.9888 3.03246 16.9402C3.02527 16.8916 3.01924 16.8429 3.01444 16.794C3.00963 16.7452 3.00602 16.6962 3.00361 16.6472C3.00119 16.5982 3 16.5491 3 16.5L3 10.5L1.5 10.5C1.47545 10.5 1.45092 10.4994 1.4264 10.4982C1.40188 10.497 1.37741 10.4952 1.35297 10.4928C1.32855 10.4904 1.30419 10.4874 1.2799 10.4838C1.25562 10.4802 1.23144 10.476 1.20736 10.4712C1.18329 10.4664 1.15934 10.461 1.13553 10.455C1.11172 10.4491 1.08806 10.4425 1.06457 10.4354C1.04108 10.4283 1.01778 10.4206 0.994664 10.4123C0.971552 10.404 0.948656 10.3952 0.925976 10.3858C0.903295 10.3764 0.880859 10.3665 0.858668 10.356C0.836475 10.3455 0.814554 10.3345 0.792905 10.3229C0.771255 10.3113 0.749901 10.2992 0.728845 10.2866C0.707789 10.274 0.687056 10.2608 0.666644 10.2472C0.646233 10.2336 0.626168 10.2194 0.60645 10.2048C0.586732 10.1902 0.567387 10.1751 0.548409 10.1595C0.529432 10.1439 0.510851 10.1279 0.492661 10.1114C0.474471 10.095 0.456698 10.078 0.439341 10.0607C0.42198 10.0433 0.405059 10.0255 0.388573 10.0073C0.372087 9.98916 0.356058 9.97057 0.340484 9.95158C0.324909 9.93262 0.309811 9.91326 0.295188 9.89355C0.280566 9.87384 0.266433 9.85376 0.252795 9.83334C0.239156 9.81293 0.226027 9.79221 0.213407 9.77116C0.200787 9.75009 0.18869 9.72874 0.177118 9.70708C0.165546 9.68545 0.154512 9.66352 0.144016 9.64132C0.13352 9.61912 0.123575 9.59669 0.114181 9.57403C0.104786 9.55134 0.0959541 9.52844 0.0876839 9.50533C0.0794137 9.48223 0.0717157 9.45893 0.0645895 9.43542C0.0574634 9.41194 0.050918 9.38829 0.0449531 9.36448C0.0389883 9.34066 0.0336112 9.31671 0.028822 9.29264C0.0240328 9.26857 0.0198373 9.24438 0.0162352 9.2201C0.0126332 9.19582 0.00962908 9.17147 0.0072229 9.14702C0.00481673 9.1226 0.00301137 9.09813 0.00180682 9.07359C0.000602271 9.04908 0 9.02454 0 9L0 3Z"   fill="#0054FE" >
</path>
<path d="M10.5 15C10.5 14.9755 10.5006 14.9509 10.5018 14.9264C10.503 14.9019 10.5048 14.8774 10.5072 14.853C10.5096 14.8285 10.5126 14.8042 10.5162 14.7799C10.5198 14.7556 10.524 14.7314 10.5288 14.7074C10.5336 14.6833 10.539 14.6593 10.545 14.6355C10.5509 14.6117 10.5575 14.5881 10.5646 14.5646C10.5717 14.5411 10.5794 14.5178 10.5877 14.4947C10.5959 14.4716 10.6048 14.4487 10.6142 14.426C10.6236 14.4033 10.6335 14.3809 10.644 14.3587C10.6545 14.3365 10.6655 14.3145 10.6771 14.2929C10.6887 14.2713 10.7008 14.2499 10.7134 14.2288C10.726 14.2078 10.7392 14.187 10.7528 14.1666C10.7664 14.1462 10.7806 14.1262 10.7952 14.1064C10.8098 14.0867 10.8249 14.0674 10.8405 14.0484C10.8561 14.0294 10.8721 14.0108 10.8886 13.9927C10.9051 13.9745 10.922 13.9567 10.9393 13.9393C10.9567 13.922 10.9745 13.905 10.9927 13.8886C11.0108 13.8721 11.0294 13.8561 11.0484 13.8405C11.0674 13.8249 11.0867 13.8098 11.1064 13.7952C11.1262 13.7806 11.1462 13.7664 11.1666 13.7528C11.1871 13.7392 11.2078 13.726 11.2288 13.7134C11.2499 13.7008 11.2713 13.6887 11.2929 13.6771C11.3146 13.6655 11.3365 13.6545 11.3587 13.644C11.3809 13.6335 11.4033 13.6236 11.426 13.6142C11.4487 13.6048 11.4716 13.596 11.4947 13.5877C11.5178 13.5794 11.5411 13.5717 11.5646 13.5646C11.5881 13.5575 11.6117 13.5509 11.6355 13.545C11.6593 13.539 11.6833 13.5336 11.7074 13.5288C11.7314 13.524 11.7556 13.5198 11.7799 13.5162C11.8042 13.5126 11.8285 13.5096 11.853 13.5072C11.8774 13.5048 11.9019 13.503 11.9264 13.5018C11.9509 13.5006 11.9755 13.5 12 13.5L18.9 13.5L18.9 7.5C18.9 7.48526 18.8996 7.47054 18.8989 7.45584C18.8982 7.44112 18.8971 7.42643 18.8957 7.41178C18.8942 7.39713 18.8924 7.38251 18.8902 7.36795C18.8881 7.35337 18.8856 7.33887 18.8827 7.32443C18.8798 7.30997 18.8766 7.2956 18.873 7.28133C18.8694 7.26703 18.8655 7.25283 18.8613 7.23874C18.857 7.22466 18.8524 7.21066 18.8474 7.19679C18.8424 7.18294 18.8371 7.1692 18.8315 7.15559C18.8258 7.14197 18.8199 7.12852 18.8136 7.1152C18.8073 7.10189 18.8007 7.08874 18.7937 7.07573C18.7868 7.06275 18.7795 7.04993 18.772 7.0373C18.7644 7.02466 18.7565 7.01224 18.7483 6.99998C18.7401 6.98773 18.7317 6.9757 18.7229 6.96387C18.7141 6.95203 18.7051 6.94043 18.6957 6.92904C18.6864 6.91767 18.6768 6.90652 18.6669 6.89559C18.657 6.8847 18.6468 6.87403 18.6364 6.8636C18.626 6.8532 18.6153 6.84304 18.6044 6.83313C18.5935 6.82324 18.5823 6.81363 18.571 6.80428C18.5596 6.79494 18.548 6.78588 18.5361 6.77712C18.5243 6.76833 18.5123 6.75986 18.5 6.75169C18.4878 6.7435 18.4753 6.73562 18.4627 6.72804C18.4501 6.72048 18.4373 6.71322 18.4243 6.70627C18.4113 6.69933 18.3981 6.69271 18.3848 6.68641C18.3715 6.68012 18.358 6.67415 18.3444 6.66851C18.3308 6.66287 18.3171 6.65757 18.3032 6.65262C18.2893 6.64765 18.2753 6.64303 18.2613 6.63877C18.2472 6.63448 18.233 6.63056 18.2187 6.62698C18.2044 6.6234 18.19 6.62017 18.1756 6.6173C18.1611 6.61442 18.1466 6.61191 18.132 6.60975C18.1175 6.60758 18.1029 6.60577 18.0882 6.60434C18.0736 6.6029 18.0589 6.60181 18.0442 6.60108C18.0295 6.60036 18.0147 6.6 18 6.6L15 6.6L15 4.5L18 4.5C18.0491 4.5 18.0982 4.5012 18.1472 4.50361C18.1962 4.50602 18.2452 4.50962 18.294 4.51444C18.3429 4.51925 18.3916 4.52526 18.4402 4.53246C18.4888 4.53966 18.5371 4.54805 18.5853 4.55763C18.6334 4.56723 18.6813 4.57798 18.7289 4.58991C18.7766 4.60183 18.8239 4.61492 18.8708 4.62919C18.9178 4.64344 18.9644 4.65883 19.0107 4.67536C19.0569 4.69191 19.1027 4.70957 19.148 4.72835C19.1934 4.74715 19.2383 4.76704 19.2827 4.78802C19.3271 4.80902 19.3709 4.83109 19.4142 4.85423C19.4575 4.87737 19.5002 4.90157 19.5423 4.92682C19.5844 4.95206 19.6259 4.97831 19.6667 5.00559C19.7075 5.03288 19.7477 5.06113 19.7871 5.09037C19.8265 5.11962 19.8652 5.14982 19.9032 5.18098C19.9411 5.21212 19.9783 5.24417 20.0147 5.27714C20.0511 5.31011 20.0866 5.34395 20.1213 5.37867C20.156 5.41339 20.1899 5.44894 20.2229 5.48531C20.2558 5.5217 20.2879 5.55888 20.319 5.59683C20.3502 5.63478 20.3804 5.67347 20.4096 5.71289C20.4389 5.75233 20.4671 5.79246 20.4944 5.83329C20.5217 5.87412 20.5479 5.91559 20.5732 5.9577C20.5984 5.99981 20.6226 6.04251 20.6458 6.0858C20.6689 6.1291 20.691 6.17295 20.712 6.21734C20.733 6.26171 20.7528 6.30659 20.7716 6.35196C20.7904 6.39732 20.8081 6.44311 20.8246 6.48933C20.8412 6.53556 20.8566 6.58217 20.8708 6.62916C20.8851 6.67612 20.8982 6.72343 20.9101 6.77107C20.922 6.8187 20.9328 6.86658 20.9423 6.91472C20.9519 6.96288 20.9603 7.01123 20.9675 7.05982C20.9747 7.10838 20.9808 7.15709 20.9856 7.20595C20.9904 7.25482 20.994 7.30376 20.9964 7.35279C20.9988 7.40184 21 7.4509 21 7.5L21 13.5L22.5 13.5C22.5245 13.5 22.5491 13.5006 22.5736 13.5018C22.5981 13.503 22.6226 13.5048 22.647 13.5072C22.6715 13.5096 22.6958 13.5126 22.7201 13.5162C22.7444 13.5198 22.7686 13.524 22.7926 13.5288C22.8167 13.5336 22.8407 13.539 22.8645 13.545C22.8883 13.5509 22.9119 13.5575 22.9354 13.5646C22.9589 13.5717 22.9822 13.5794 23.0053 13.5877C23.0284 13.596 23.0513 13.6048 23.074 13.6142C23.0967 13.6236 23.1191 13.6335 23.1413 13.644C23.1635 13.6545 23.1855 13.6655 23.2071 13.6771C23.2287 13.6887 23.2501 13.7008 23.2711 13.7134C23.2922 13.726 23.3129 13.7392 23.3333 13.7528C23.3538 13.7664 23.3738 13.7806 23.3936 13.7952C23.4133 13.8098 23.4326 13.8249 23.4516 13.8405C23.4706 13.8561 23.4892 13.8721 23.5073 13.8886C23.5255 13.905 23.5432 13.922 23.5605 13.9393C23.5781 13.9567 23.595 13.9745 23.6114 13.9927C23.628 14.0108 23.644 14.0294 23.6595 14.0484C23.6751 14.0674 23.6902 14.0867 23.7049 14.1064C23.7195 14.1262 23.7335 14.1462 23.7471 14.1666C23.7609 14.187 23.774 14.2078 23.7865 14.2288C23.7991 14.2499 23.8113 14.2713 23.8228 14.2929C23.8344 14.3145 23.8455 14.3365 23.8561 14.3587C23.8666 14.3809 23.8765 14.4033 23.8859 14.426C23.8952 14.4487 23.9041 14.4716 23.9123 14.4947C23.9206 14.5178 23.9283 14.5411 23.9353 14.5646C23.9425 14.5881 23.9491 14.6117 23.955 14.6355C23.9609 14.6593 23.9663 14.6833 23.9712 14.7074C23.976 14.7314 23.9802 14.7556 23.9838 14.7799C23.9874 14.8042 23.9904 14.8285 23.9927 14.853C23.9952 14.8774 23.997 14.9019 23.9981 14.9264C23.9994 14.9509 24 14.9755 24 15L24 21C24 21.0245 23.9994 21.0491 23.9981 21.0736C23.997 21.0981 23.9952 21.1226 23.9927 21.147C23.9904 21.1715 23.9874 21.1958 23.9838 21.2201C23.9802 21.2444 23.976 21.2686 23.9712 21.2926C23.9663 21.3167 23.9609 21.3407 23.955 21.3645C23.9491 21.3883 23.9425 21.4119 23.9353 21.4354C23.9283 21.4589 23.9206 21.4822 23.9123 21.5053C23.9041 21.5284 23.8952 21.5513 23.8859 21.574C23.8765 21.5967 23.8666 21.6191 23.8561 21.6413C23.8455 21.6635 23.8344 21.6855 23.8228 21.7071C23.8113 21.7287 23.7991 21.7501 23.7865 21.7712C23.774 21.7922 23.7609 21.8129 23.7471 21.8333C23.7335 21.8538 23.7195 21.8738 23.7049 21.8936C23.6902 21.9133 23.6751 21.9326 23.6595 21.9516C23.644 21.9706 23.628 21.9892 23.6114 22.0073C23.595 22.0255 23.5781 22.0433 23.5605 22.0607C23.5432 22.078 23.5255 22.095 23.5073 22.1114C23.4892 22.1279 23.4706 22.1439 23.4516 22.1595C23.4326 22.1751 23.4133 22.1902 23.3936 22.2048C23.3738 22.2194 23.3538 22.2336 23.3333 22.2472C23.3129 22.2608 23.2922 22.274 23.2711 22.2866C23.2501 22.2992 23.2287 22.3113 23.2071 22.3229C23.1855 22.3344 23.1635 22.3455 23.1413 22.356C23.1191 22.3665 23.0967 22.3764 23.074 22.3858C23.0513 22.3952 23.0284 22.404 23.0053 22.4123C22.9822 22.4206 22.9589 22.4283 22.9354 22.4354C22.9119 22.4425 22.8883 22.4491 22.8645 22.455C22.8407 22.461 22.8167 22.4664 22.7926 22.4712C22.7686 22.476 22.7444 22.4802 22.7201 22.4838C22.6958 22.4874 22.6715 22.4904 22.647 22.4928C22.6226 22.4952 22.5981 22.497 22.5736 22.4982C22.5491 22.4994 22.5245 22.5 22.5 22.5L12 22.5C11.9755 22.5 11.9509 22.4994 11.9264 22.4982C11.9019 22.497 11.8774 22.4952 11.853 22.4928C11.8285 22.4904 11.8042 22.4874 11.7799 22.4838C11.7556 22.4802 11.7314 22.476 11.7074 22.4712C11.6833 22.4664 11.6593 22.461 11.6355 22.455C11.6117 22.4491 11.5881 22.4425 11.5646 22.4354C11.5411 22.4283 11.5178 22.4206 11.4947 22.4123C11.4716 22.404 11.4487 22.3952 11.426 22.3858C11.4033 22.3764 11.3809 22.3665 11.3587 22.356C11.3365 22.3455 11.3146 22.3345 11.2929 22.3229C11.2713 22.3113 11.2499 22.2992 11.2288 22.2866C11.2078 22.274 11.1871 22.2608 11.1666 22.2472C11.1462 22.2336 11.1262 22.2194 11.1064 22.2048C11.0867 22.1902 11.0674 22.1751 11.0484 22.1595C11.0294 22.1439 11.0108 22.1279 10.9927 22.1114C10.9745 22.095 10.9567 22.078 10.9393 22.0607C10.922 22.0433 10.9051 22.0255 10.8886 22.0073C10.8721 21.9892 10.8561 21.9706 10.8405 21.9516C10.8249 21.9326 10.8098 21.9133 10.7952 21.8936C10.7806 21.8738 10.7664 21.8538 10.7528 21.8333C10.7392 21.8129 10.726 21.7922 10.7134 21.7711C10.7008 21.7501 10.6887 21.7287 10.6771 21.7071C10.6655 21.6855 10.6545 21.6635 10.644 21.6413C10.6335 21.6191 10.6236 21.5967 10.6142 21.574C10.6048 21.5513 10.5959 21.5284 10.5877 21.5053C10.5794 21.4822 10.5717 21.4589 10.5646 21.4354C10.5575 21.4119 10.5509 21.3883 10.545 21.3645C10.539 21.3407 10.5336 21.3167 10.5288 21.2926C10.524 21.2686 10.5198 21.2444 10.5162 21.2201C10.5126 21.1958 10.5096 21.1715 10.5072 21.147C10.5048 21.1226 10.503 21.0981 10.5018 21.0736C10.5006 21.0491 10.5 21.0245 10.5 21L10.5 15Z"   fill="#0054FE" >
</path>
<path    stroke="rgba(51, 214, 192, 1)" stroke-width="2"  stroke-linecap="round"  d="M2.5 5L10.5 5">
</path>
<path    stroke="rgba(51, 214, 192, 1)" stroke-width="2"  stroke-linecap="round"  d="M13 18L21 18">
</path>
</svg>
