<svg xmlns="http://www.w3.org/2000/svg" xmlns:xlink="http://www.w3.org/1999/xlink" viewBox="0 0 24 20.99951171875" fill="none">
<path d="M2.29935 10.3658C6.94322 8.46886 9.19104 9.48126 11.2041 10.8365L8.87915 18.7614C6.85926 17.4138 4.66245 16.3049 0 18.2165L2.27231 10.3773L2.29935 10.3658Z"   fill="#0054FE" >
</path>
<path d="M12.4212 11.6023C14.4403 12.949 16.505 13.937 21.2494 12.3275L19.0352 19.968C14.3778 21.8787 12.1419 20.7976 10.1255 19.4418L12.4212 11.6023Z"   fill="#0054FE" >
</path>
<path d="M11.591 9.40749C10.3761 8.59568 9.06833 7.83687 7.21086 7.82328C5.98565 7.81391 4.5269 8.15962 2.67432 8.9184L4.96908 1.03097C9.62816 -0.879476 11.8671 0.203161 13.8856 1.55715L11.591 9.40749Z"   fill="#0054FE" >
</path>
<path d="M24.0001 2.89524C19.3472 4.80214 17.1111 3.72981 15.097 2.38403L12.8018 10.2783C14.8143 11.6316 17.2465 12.7423 21.7078 10.7625L24.0001 2.89524Z"   fill="#0054FE" >
</path>
</svg>
