<svg viewBox="0 0 20 21" fill="none" xmlns="http://www.w3.org/2000/svg">
<path d="M4.57638 3.59168L4.04605 3.06135L4.04605 3.06135L4.57638 3.59168ZM3.37113 4.79693L3.90146 5.32726L3.90146 5.32726L3.37113 4.79693ZM9.39737 3.59168L9.9277 4.12201C10.0684 3.98136 10.1474 3.7906 10.1474 3.59168C10.1474 3.39277 10.0684 3.20201 9.9277 3.06135L9.39737 3.59168ZM16.6288 10.8232L17.1592 10.2928C17.0185 10.1522 16.8278 10.0732 16.6288 10.0732C16.4299 10.0732 16.2392 10.1522 16.0985 10.2928L16.6288 10.8232ZM6.85829 5.0701C6.5654 5.36299 6.5654 5.83786 6.85829 6.13076C7.15119 6.42365 7.62606 6.42365 7.91895 6.13076L6.85829 5.0701ZM14.0898 12.3016C13.7969 12.5945 13.7969 13.0693 14.0898 13.3622C14.3827 13.6551 14.8575 13.6551 15.1504 13.3622L14.0898 12.3016ZM12.7391 2.84702L12.2088 2.31669V2.31669L12.7391 2.84702ZM17.3735 7.48142L17.9038 8.01175L17.3735 7.48142ZM1.71203 17.3907L2.42354 17.6278H2.42354L1.71203 17.3907ZM2.84629 13.9879L3.5578 14.2251L2.84629 13.9879ZM4.86568 10.7205L5.39601 11.2508L4.86568 10.7205ZM6.23264 17.3742L5.99547 16.6627H5.99547L6.23264 17.3742ZM2.82986 18.5085L2.59269 17.797H2.59269L2.82986 18.5085ZM8.51346 16.2831L8.0522 15.6917L8.0522 15.6917L8.51346 16.2831ZM7.50414 16.9069L7.18147 16.2299H7.18147L7.50414 16.9069ZM3.31361 12.7164L2.63656 12.3937H2.63656L3.31361 12.7164ZM3.9374 11.7071L4.52879 12.1683H4.52879L3.9374 11.7071ZM3.49826 18.2857L3.73543 18.9972H3.73543L3.49826 18.2857ZM1.93483 16.7223L1.22332 16.4851L1.22332 16.4851L1.93483 16.7223ZM4.04605 3.06135L2.8408 4.2666L3.90146 5.32726L5.10671 4.12201L4.04605 3.06135ZM15.9539 17.3797L17.1592 16.1745L16.0985 15.1138L14.8933 16.3191L15.9539 17.3797ZM10.0723 17.3797C10.6254 17.9329 11.0925 18.4022 11.5143 18.724C11.9533 19.059 12.4302 19.3039 13.0131 19.3039V17.8039C12.89 17.8039 12.7298 17.7647 12.4242 17.5315C12.1012 17.2851 11.7161 16.9022 11.1329 16.3191L10.0723 17.3797ZM14.8933 16.3191C14.3101 16.9022 13.925 17.2851 13.6021 17.5315C13.2964 17.7647 13.1362 17.8039 13.0131 17.8039V19.3039C13.596 19.3039 14.0729 19.059 14.5119 18.724C14.9337 18.4022 15.4008 17.9329 15.9539 17.3797L14.8933 16.3191ZM2.8408 4.2666C2.28764 4.81977 1.81829 5.28687 1.49651 5.7086C1.16153 6.14765 0.916656 6.6245 0.916656 7.20742H2.41666C2.41666 7.08433 2.45586 6.92409 2.68904 6.61848C2.93543 6.29555 3.31831 5.91041 3.90146 5.32726L2.8408 4.2666ZM3.90146 9.08759C3.31832 8.50444 2.93543 8.1193 2.68904 7.79637C2.45586 7.49075 2.41666 7.33051 2.41666 7.20742H0.916656C0.916656 7.79035 1.16153 8.2672 1.49651 8.70625C1.81829 9.12798 2.28764 9.59508 2.8408 10.1482L3.90146 9.08759ZM9.9277 3.06135C9.37453 2.50819 8.90743 2.03884 8.48569 1.71706C8.04665 1.38208 7.5698 1.13721 6.98687 1.13721V2.63721C7.10996 2.63721 7.27021 2.67641 7.57582 2.90959C7.89875 3.15598 8.28389 3.53886 8.86704 4.12201L9.9277 3.06135ZM5.10671 4.12201C5.68986 3.53886 6.075 3.15598 6.39793 2.90959C6.70354 2.67641 6.86378 2.63721 6.98687 2.63721V1.13721C6.40395 1.13721 5.9271 1.38208 5.48805 1.71706C5.06632 2.03884 4.59922 2.50819 4.04605 3.06135L5.10671 4.12201ZM16.0985 11.3535C16.6817 11.9366 17.0646 12.3218 17.3109 12.6447C17.5441 12.9503 17.5833 13.1106 17.5833 13.2337H19.0833C19.0833 12.6507 18.8385 12.1739 18.5035 11.7348C18.1817 11.3131 17.7123 10.846 17.1592 10.2928L16.0985 11.3535ZM17.1592 16.1745C17.7123 15.6213 18.1817 15.1542 18.5035 14.7325C18.8385 14.2934 19.0833 13.8166 19.0833 13.2337H17.5833C17.5833 13.3567 17.5441 13.517 17.3109 13.8226C17.0646 14.1455 16.6817 14.5307 16.0985 15.1138L17.1592 16.1745ZM8.86704 3.06135L6.85829 5.0701L7.91895 6.13076L9.9277 4.12201L8.86704 3.06135ZM16.0985 10.2928L14.0898 12.3016L15.1504 13.3622L17.1592 11.3535L16.0985 10.2928ZM12.497 4.14975L13.2694 3.37735L12.2088 2.31669L11.4364 3.08909L12.497 4.14975ZM16.8432 6.95109L16.0708 7.72349L17.1314 8.78415L17.9038 8.01175L16.8432 6.95109ZM11.9667 3.61942C11.218 3.66346 11.218 3.66377 11.218 3.66409C11.218 3.6642 11.2181 3.66452 11.2181 3.66475C11.2181 3.66521 11.2181 3.66569 11.2182 3.66619C11.2182 3.66721 11.2183 3.66832 11.2184 3.66954C11.2185 3.67197 11.2187 3.67482 11.219 3.67806C11.2194 3.68454 11.2201 3.69263 11.2209 3.70226C11.2225 3.72152 11.225 3.74698 11.2286 3.77819C11.2357 3.84056 11.2474 3.92608 11.2662 4.03101C11.3038 4.24057 11.3704 4.52945 11.4874 4.86696C11.7217 5.54202 12.1611 6.41924 12.9812 7.23935L14.0418 6.17869C13.4137 5.55055 13.0807 4.88297 12.9046 4.3753C12.8165 4.12144 12.7684 3.90947 12.7426 3.76601C12.7298 3.69444 12.7226 3.64041 12.7188 3.60737C12.7169 3.59086 12.7159 3.57965 12.7154 3.57416C12.7152 3.57141 12.7151 3.57011 12.7151 3.57029C12.7151 3.57038 12.7151 3.57085 12.7152 3.57169C12.7152 3.57212 12.7153 3.57264 12.7153 3.57325C12.7153 3.57356 12.7153 3.57389 12.7153 3.57424C12.7154 3.57442 12.7154 3.5747 12.7154 3.57479C12.7154 3.57508 12.7154 3.57538 11.9667 3.61942ZM12.9812 7.23935C13.8013 8.05946 14.6785 8.49888 15.3536 8.73308C15.6911 8.85018 15.98 8.9167 16.1895 8.95431C16.2944 8.97314 16.38 8.98481 16.4423 8.99196C16.4735 8.99554 16.499 8.99799 16.5183 8.99964C16.5279 9.00047 16.536 9.00109 16.5425 9.00156C16.5457 9.00179 16.5486 9.00199 16.551 9.00215C16.5522 9.00223 16.5533 9.0023 16.5543 9.00236C16.5548 9.00239 16.5553 9.00242 16.5558 9.00245C16.556 9.00246 16.5563 9.00248 16.5564 9.00249C16.5568 9.00251 16.5571 9.00253 16.6011 8.25382C16.6451 7.50511 16.6454 7.50513 16.6457 7.50515C16.6458 7.50515 16.6461 7.50517 16.6463 7.50518C16.6466 7.5052 16.647 7.50522 16.6473 7.50524C16.6479 7.50528 16.6484 7.50531 16.6488 7.50534C16.6497 7.5054 16.6501 7.50543 16.6502 7.50544C16.6504 7.50545 16.6491 7.50536 16.6464 7.50512C16.6409 7.50465 16.6297 7.50361 16.6132 7.50172C16.5801 7.49793 16.5261 7.49075 16.4545 7.4779C16.3111 7.45215 16.0991 7.40402 15.8452 7.31595C15.3376 7.13981 14.67 6.80683 14.0418 6.17869L12.9812 7.23935ZM5.39601 11.2508L12.497 4.14975L11.4364 3.08909L4.33535 10.1901L5.39601 11.2508ZM16.0708 7.72349L8.96974 14.8245L10.0304 15.8852L17.1314 8.78415L16.0708 7.72349ZM8.96974 14.8245C8.47627 15.318 8.27262 15.5198 8.0522 15.6917L8.97473 16.8745C9.28463 16.6328 9.56194 16.3537 10.0304 15.8852L8.96974 14.8245ZM6.46981 18.0858C7.09832 17.8762 7.47201 17.753 7.8268 17.584L7.18147 16.2299C6.92912 16.3501 6.65753 16.442 5.99547 16.6627L6.46981 18.0858ZM8.0522 15.6917C7.78236 15.9022 7.49039 16.0827 7.18147 16.2299L7.8268 17.584C8.23407 17.3899 8.61898 17.152 8.97473 16.8745L8.0522 15.6917ZM2.45585 17.7647C2.42003 17.7289 2.40753 17.6759 2.42354 17.6278L1.00052 17.1535C0.804834 17.7406 0.957622 18.3878 1.39519 18.8253L2.45585 17.7647ZM3.5578 14.2251C3.77849 13.563 3.87039 13.2914 3.99065 13.0391L2.63656 12.3937C2.46748 12.7485 2.34428 13.1222 2.13478 13.7507L3.5578 14.2251ZM4.33535 10.1901C3.86688 10.6586 3.58774 10.9359 3.34602 11.2458L4.52879 12.1683C4.70071 11.9479 4.90254 11.7443 5.39601 11.2508L4.33535 10.1901ZM3.99065 13.0391C4.13788 12.7301 4.31832 12.4382 4.52879 12.1683L3.34602 11.2458C3.06855 11.6015 2.83066 11.9865 2.63656 12.3937L3.99065 13.0391ZM1.39519 18.8253C1.83275 19.2629 2.47998 19.4157 3.06703 19.22L2.59269 17.797C2.54464 17.813 2.49166 17.8005 2.45585 17.7647L1.39519 18.8253ZM16.8432 3.37735C17.83 4.36421 17.83 5.96423 16.8432 6.95109L17.9038 8.01175C19.4765 6.4391 19.4765 3.88934 17.9038 2.31669L16.8432 3.37735ZM17.9038 2.31669C16.3312 0.744045 13.7814 0.744045 12.2088 2.31669L13.2694 3.37735C14.2563 2.39049 15.8563 2.39049 16.8432 3.37735L17.9038 2.31669ZM3.26109 17.5742L2.59269 17.797L3.06703 19.22L3.73543 18.9972L3.26109 17.5742ZM2.42354 17.6278L2.64634 16.9594L1.22332 16.4851L1.00052 17.1535L2.42354 17.6278ZM4.02859 17.7554L2.46516 16.1919L1.4045 17.2526L2.96793 18.816L4.02859 17.7554ZM5.99547 16.6627L3.26109 17.5742L3.73543 18.9972L6.46981 18.0858L5.99547 16.6627ZM2.64634 16.9594L3.5578 14.2251L2.13478 13.7507L1.22332 16.4851L2.64634 16.9594Z" fill="white"/>
</svg>
