<svg viewBox="0 0 20 21" fill="none" xmlns="http://www.w3.org/2000/svg">
<path d="M18.3333 10.2205C18.3333 14.8229 14.6024 18.5539 9.99999 18.5539C5.39762 18.5539 1.66666 14.8229 1.66666 10.2205C1.66666 5.61817 5.39762 1.88721 9.99999 1.88721C14.6024 1.88721 18.3333 5.61817 18.3333 10.2205Z" stroke="#2E3A59" stroke-width="1.5"/>
<path d="M6.66666 10.2205C6.66666 8.64919 6.66666 7.86352 7.15481 7.37536C7.64297 6.88721 8.42864 6.88721 9.99999 6.88721C11.5713 6.88721 12.357 6.88721 12.8452 7.37536C13.3333 7.86352 13.3333 8.64919 13.3333 10.2205C13.3333 11.7919 13.3333 12.5776 12.8452 13.0657C12.357 13.5539 11.5713 13.5539 9.99999 13.5539C8.42864 13.5539 7.64297 13.5539 7.15481 13.0657C6.66666 12.5776 6.66666 11.7919 6.66666 10.2205Z" stroke="#2E3A59" stroke-width="1.5"/>
</svg>
