<svg width="14" height="15" viewBox="0 0 14 15" fill="none" xmlns="http://www.w3.org/2000/svg">
<path d="M12.2499 6.53189H7.58333V1.86519C7.58333 1.54326 7.32196 1.28189 6.99992 1.28189C6.67799 1.28189 6.41663 1.54326 6.41663 1.86519V6.53189H1.74992C1.42799 6.53189 1.16663 6.79326 1.16663 7.11519C1.16663 7.43722 1.42799 7.69859 1.74992 7.69859H6.41663V12.3652C6.41663 12.6872 6.67799 12.9486 6.99992 12.9486C7.32196 12.9486 7.58333 12.6872 7.58333 12.3652V7.69859H12.2499C12.572 7.69859 12.8333 7.43722 12.8333 7.11519C12.8333 6.79326 12.572 6.53189 12.2499 6.53189Z" fill="white"/>
</svg>
