<svg width="24" height="25" viewBox="0 0 24 25" fill="none" xmlns="http://www.w3.org/2000/svg">
<path d="M18.2577 3.62352C18.538 3.7396 18.7207 4.01308 18.7207 4.31643V8.55907C18.7207 8.97328 18.3849 9.30907 17.9707 9.30907H13.728C13.4247 9.30907 13.1512 9.12634 13.0351 8.84608C12.9191 8.56583 12.9832 8.24324 13.1977 8.02874L14.8007 6.42574C12.1674 5.32435 9.01606 5.84613 6.87348 7.98871C4.04217 10.82 4.04217 15.4105 6.87348 18.2418C9.70478 21.0731 14.2952 21.0731 17.1265 18.2418C18.7727 16.5955 19.4622 14.3554 19.1935 12.2089C19.142 11.7979 19.4335 11.423 19.8445 11.3716C20.2555 11.3201 20.6304 11.6116 20.6819 12.0226C21.0057 14.6086 20.1746 17.315 18.1872 19.3024C14.7701 22.7195 9.2299 22.7195 5.81282 19.3024C2.39573 15.8853 2.39573 10.3451 5.81282 6.92805C8.55119 4.18968 12.6515 3.64643 15.9309 5.29552L17.4404 3.7861C17.6549 3.5716 17.9774 3.50743 18.2577 3.62352Z" fill="#8F9BB3"/>
</svg>
