<svg viewBox="0 0 14 14" fill="none" xmlns="http://www.w3.org/2000/svg">
<path fill-rule="evenodd" clip-rule="evenodd" d="M0.947876 6.99089C0.947876 7.23251 1.14375 7.42839 1.38538 7.42839L7.78603 7.42839L6.64232 8.40871C6.45887 8.56596 6.43762 8.84215 6.59487 9.02561C6.75211 9.20906 7.02831 9.23031 7.21176 9.07306L9.25343 7.32306C9.3504 7.23994 9.40621 7.1186 9.40621 6.99089C9.40621 6.86317 9.3504 6.74183 9.25343 6.65871L7.21176 4.90871C7.02831 4.75146 6.75211 4.77271 6.59487 4.95616C6.43762 5.13962 6.45887 5.41581 6.64232 5.57306L7.78603 6.55339L1.38538 6.55339C1.14375 6.55339 0.947876 6.74926 0.947876 6.99089Z"/>
<path d="M5.46871 5.67841L5.68937 5.67841C5.53855 5.25048 5.61402 4.756 5.93052 4.38675C6.40226 3.83638 7.23084 3.77264 7.78121 4.24439L9.82287 5.99438C10.1138 6.24374 10.2812 6.60776 10.2812 6.99091C10.2812 7.37406 10.1138 7.73808 9.82287 7.98743L7.78121 9.73743C7.23084 10.2092 6.40226 10.1454 5.93052 9.59507C5.61402 9.22582 5.53855 8.73134 5.68937 8.30341L5.46871 8.30341L5.46871 9.32422C5.46871 10.9741 5.46871 11.7991 5.98127 12.3117C6.49383 12.8242 7.31879 12.8242 8.96871 12.8242L9.55205 12.8242C11.202 12.8242 12.0269 12.8242 12.5395 12.3117C13.052 11.7991 13.052 10.9741 13.052 9.32422L13.052 4.65755C13.052 3.00764 13.052 2.18268 12.5395 1.67011C12.0269 1.15755 11.202 1.15755 9.55205 1.15755L8.96871 1.15755C7.31879 1.15755 6.49383 1.15755 5.98127 1.67012C5.46871 2.18268 5.46871 3.00764 5.46871 4.65755L5.46871 5.67841Z" />
</svg>
