<svg width="17" height="17" viewBox="0 0 17 17" fill="none" xmlns="http://www.w3.org/2000/svg">
<path d="M8.05664 1.32812C4.19102 1.32812 1.05664 4.4625 1.05664 8.32812C1.05664 12.1938 4.19102 15.3281 8.05664 15.3281C11.9223 15.3281 15.0566 12.1938 15.0566 8.32812C15.0566 4.4625 11.9223 1.32812 8.05664 1.32812ZM8.55664 11.7031C8.55664 11.7719 8.50039 11.8281 8.43164 11.8281H7.68164C7.61289 11.8281 7.55664 11.7719 7.55664 11.7031V7.45312C7.55664 7.38438 7.61289 7.32812 7.68164 7.32812H8.43164C8.50039 7.32812 8.55664 7.38438 8.55664 7.45312V11.7031ZM8.05664 6.32812C7.86038 6.32412 7.67351 6.24334 7.53612 6.10312C7.39874 5.96291 7.32179 5.77443 7.32179 5.57812C7.32179 5.38182 7.39874 5.19334 7.53612 5.05313C7.67351 4.91291 7.86038 4.83213 8.05664 4.82812C8.2529 4.83213 8.43977 4.91291 8.57716 5.05313C8.71454 5.19334 8.79149 5.38182 8.79149 5.57812C8.79149 5.77443 8.71454 5.96291 8.57716 6.10312C8.43977 6.24334 8.2529 6.32412 8.05664 6.32812Z" fill="#0095FF"/>
</svg>
