<svg width="17" height="17" viewBox="0 0 17 17" fill="none" xmlns="http://www.w3.org/2000/svg">
<path fill-rule="evenodd" clip-rule="evenodd" d="M8.55729 2.33008C5.15154 2.33008 2.39062 5.09099 2.39062 8.49675C2.39062 11.9025 5.15154 14.6634 8.55729 14.6634C11.963 14.6634 14.724 11.9025 14.724 8.49675C14.724 5.09099 11.963 2.33008 8.55729 2.33008ZM1.39062 8.49675C1.39062 4.5387 4.59925 1.33008 8.55729 1.33008C12.5153 1.33008 15.724 4.5387 15.724 8.49675C15.724 12.4548 12.5153 15.6634 8.55729 15.6634C4.59925 15.6634 1.39062 12.4548 1.39062 8.49675ZM8.55729 5.66341C8.14308 5.66341 7.80729 5.9992 7.80729 6.41341C7.80729 6.68955 7.58343 6.91341 7.30729 6.91341C7.03115 6.91341 6.80729 6.68955 6.80729 6.41341C6.80729 5.44691 7.59079 4.66341 8.55729 4.66341C9.52379 4.66341 10.3073 5.44691 10.3073 6.41341C10.3073 7.05564 9.96106 7.61646 9.44746 7.92032C9.3163 7.99792 9.20802 8.08266 9.13748 8.16579C9.06899 8.2465 9.05729 8.29915 9.05729 8.33008V9.16341C9.05729 9.43955 8.83343 9.66341 8.55729 9.66341C8.28115 9.66341 8.05729 9.43955 8.05729 9.16341V8.33008C8.05729 7.99282 8.20494 7.71917 8.37502 7.51875C8.54304 7.32076 8.75255 7.16955 8.93827 7.05967C9.16025 6.92834 9.30729 6.68778 9.30729 6.41341C9.30729 5.9992 8.97151 5.66341 8.55729 5.66341ZM8.55729 11.8301C8.92548 11.8301 9.22396 11.5316 9.22396 11.1634C9.22396 10.7952 8.92548 10.4967 8.55729 10.4967C8.1891 10.4967 7.89062 10.7952 7.89062 11.1634C7.89062 11.5316 8.1891 11.8301 8.55729 11.8301Z" fill="#2E3A59"/>
</svg>
