<svg viewBox="0 0 21 21" fill="none" xmlns="http://www.w3.org/2000/svg">
<path d="M18.582 14.0684H6.95117L7.53516 12.8789L17.2383 12.8613C17.5664 12.8613 17.8477 12.627 17.9062 12.3027L19.25 4.78125C19.2852 4.58398 19.2324 4.38086 19.1035 4.22656C19.0398 4.15063 18.9603 4.08946 18.8706 4.0473C18.7809 4.00514 18.6831 3.983 18.584 3.98242L6.24023 3.94141L6.13477 3.44531C6.06836 3.12891 5.7832 2.89844 5.45898 2.89844H2.44141C2.25855 2.89844 2.08319 2.97108 1.95389 3.10037C1.82459 3.22967 1.75195 3.40504 1.75195 3.58789C1.75195 3.77075 1.82459 3.94611 1.95389 4.07541C2.08319 4.2047 2.25855 4.27734 2.44141 4.27734H4.90039L5.36133 6.46875L6.49609 11.9629L5.03516 14.3477C4.95929 14.4501 4.91359 14.5716 4.90324 14.6987C4.89288 14.8257 4.91828 14.9531 4.97656 15.0664C5.09375 15.2988 5.33008 15.4453 5.5918 15.4453H6.81836C6.55687 15.7926 6.41563 16.2157 6.41602 16.6504C6.41602 17.7559 7.31445 18.6543 8.41992 18.6543C9.52539 18.6543 10.4238 17.7559 10.4238 16.6504C10.4238 16.2148 10.2793 15.791 10.0215 15.4453H13.168C12.9065 15.7926 12.7652 16.2157 12.7656 16.6504C12.7656 17.7559 13.6641 18.6543 14.7695 18.6543C15.875 18.6543 16.7734 17.7559 16.7734 16.6504C16.7734 16.2148 16.6289 15.791 16.3711 15.4453H18.584C18.9629 15.4453 19.2734 15.1367 19.2734 14.7559C19.2723 14.5732 19.199 14.3984 19.0694 14.2696C18.9399 14.1408 18.7647 14.0685 18.582 14.0684ZM6.52734 5.30078L17.7734 5.33789L16.6719 11.5059L7.83789 11.5215L6.52734 5.30078ZM8.41992 17.2676C8.08008 17.2676 7.80273 16.9902 7.80273 16.6504C7.80273 16.3105 8.08008 16.0332 8.41992 16.0332C8.75976 16.0332 9.03711 16.3105 9.03711 16.6504C9.03711 16.8141 8.97208 16.9711 8.85634 17.0868C8.74059 17.2026 8.58361 17.2676 8.41992 17.2676ZM14.7695 17.2676C14.4297 17.2676 14.1523 16.9902 14.1523 16.6504C14.1523 16.3105 14.4297 16.0332 14.7695 16.0332C15.1094 16.0332 15.3867 16.3105 15.3867 16.6504C15.3867 16.8141 15.3217 16.9711 15.2059 17.0868C15.0902 17.2026 14.9332 17.2676 14.7695 17.2676Z" fill="#5050FA"/>
</svg>
