<svg viewBox="0 0 48 57" fill="none" xmlns="http://www.w3.org/2000/svg">
<path d="M2.98016 0.496094C2.27516 0.496094 1.52316 0.776094 1.00616 1.33609C0.489156 1.89609 0.160156 2.59609 0.160156 3.29609V53.6961C0.160156 54.3961 0.442156 55.1428 1.00616 55.6561C1.57016 56.2161 2.27516 56.4961 2.98016 56.4961H44.3402C45.0452 56.4961 45.7972 56.2161 46.3142 55.6561C46.8782 55.0961 47.1602 54.3961 47.1602 53.6961V16.3628L31.1802 0.496094H2.98016Z" fill="#74DCB0"/>
<path d="M21.4616 32.1128L15.0696 23.2461H19.4876L23.6706 29.5928L28.0416 23.2461H32.3186L25.7856 32.1128L32.6476 41.5394H28.1826L23.5766 34.8194L18.9706 41.5861H14.5996L21.4616 32.1128Z" fill="white"/>
<path d="M47.1597 16.3628H33.9997C33.2947 16.3628 32.5427 16.0828 32.0257 15.5228C31.4617 15.0094 31.1797 14.2628 31.1797 13.5628V0.496094L47.1597 16.3628Z" fill="#B1F1D6"/>
</svg>
