<svg width="14" height="15" viewBox="0 0 14 15" fill="none" xmlns="http://www.w3.org/2000/svg">
<g clip-path="url(#clip0_734_23896)">
<path fill-rule="evenodd" clip-rule="evenodd" d="M6.70829 1.77136C3.88934 1.77136 1.60413 4.05658 1.60413 6.87553C1.60413 9.69448 3.88934 11.9797 6.70829 11.9797C9.52725 11.9797 11.8125 9.69448 11.8125 6.87553C11.8125 4.05658 9.52725 1.77136 6.70829 1.77136ZM0.729126 6.87553C0.729126 3.57333 3.40609 0.896362 6.70829 0.896362C10.0105 0.896362 12.6875 3.57333 12.6875 6.87553C12.6875 10.1777 10.0105 12.8547 6.70829 12.8547C3.40609 12.8547 0.729126 10.1777 0.729126 6.87553ZM6.70829 4.9797C6.94992 4.9797 7.14579 5.17557 7.14579 5.4172V6.43803H8.16663C8.40825 6.43803 8.60413 6.6339 8.60413 6.87553C8.60413 7.11715 8.40825 7.31303 8.16663 7.31303H7.14579V8.33386C7.14579 8.57549 6.94992 8.77136 6.70829 8.77136C6.46667 8.77136 6.27079 8.57549 6.27079 8.33386V7.31303H5.24996C5.00833 7.31303 4.81246 7.11715 4.81246 6.87553C4.81246 6.6339 5.00833 6.43803 5.24996 6.43803H6.27079V5.4172C6.27079 5.17557 6.46667 4.9797 6.70829 4.9797ZM11.3573 11.5245C11.5281 11.3536 11.8051 11.3536 11.976 11.5245L13.1427 12.6912C13.3135 12.862 13.3135 13.139 13.1427 13.3099C12.9718 13.4807 12.6948 13.4807 12.5239 13.3099L11.3573 12.1432C11.1864 11.9724 11.1864 11.6954 11.3573 11.5245Z" fill="#101113"/>
</g>
<defs>
<clipPath id="clip0_734_23896">
<rect width="14" height="14" fill="white" transform="translate(0 0.167236)"/>
</clipPath>
</defs>
</svg>
