<svg width="14" height="15" viewBox="0 0 14 15" fill="none" xmlns="http://www.w3.org/2000/svg">
<path d="M12.2499 6.58386H7.58333V1.91716C7.58333 1.59523 7.32196 1.33386 6.99992 1.33386C6.67799 1.33386 6.41663 1.59523 6.41663 1.91716V6.58386H1.74992C1.42799 6.58386 1.16663 6.84523 1.16663 7.16716C1.16663 7.4892 1.42799 7.75056 1.74992 7.75056H6.41663V12.4172C6.41663 12.7392 6.67799 13.0006 6.99992 13.0006C7.32196 13.0006 7.58333 12.7392 7.58333 12.4172V7.75056H12.2499C12.572 7.75056 12.8333 7.4892 12.8333 7.16716C12.8333 6.84523 12.572 6.58386 12.2499 6.58386Z" fill="#101113"/>
</svg>
