<svg width="14" height="15" viewBox="0 0 14 15" fill="none" xmlns="http://www.w3.org/2000/svg">
<g clip-path="url(#clip0_1190_4644)">
<path fill-rule="evenodd" clip-rule="evenodd" d="M6.70817 2.49719C3.88922 2.49719 1.604 4.78241 1.604 7.60136C1.604 10.4203 3.88922 12.7055 6.70817 12.7055C9.52712 12.7055 11.8123 10.4203 11.8123 7.60136C11.8123 4.78241 9.52712 2.49719 6.70817 2.49719ZM0.729004 7.60136C0.729004 4.29916 3.40597 1.62219 6.70817 1.62219C10.0104 1.62219 12.6873 4.29916 12.6873 7.60136C12.6873 10.9036 10.0104 13.5805 6.70817 13.5805C3.40597 13.5805 0.729004 10.9036 0.729004 7.60136ZM6.70817 5.70553C6.94979 5.70553 7.14567 5.9014 7.14567 6.14303V7.16386H8.1665C8.40813 7.16386 8.604 7.35973 8.604 7.60136C8.604 7.84298 8.40813 8.03886 8.1665 8.03886H7.14567V9.05969C7.14567 9.30132 6.94979 9.49719 6.70817 9.49719C6.46655 9.49719 6.27067 9.30132 6.27067 9.05969V8.03886H5.24984C5.00821 8.03886 4.81234 7.84298 4.81234 7.60136C4.81234 7.35973 5.00821 7.16386 5.24984 7.16386H6.27067V6.14303C6.27067 5.9014 6.46655 5.70553 6.70817 5.70553ZM11.3571 12.2503C11.528 12.0795 11.805 12.0795 11.9759 12.2503L13.1425 13.417C13.3134 13.5879 13.3134 13.8649 13.1425 14.0357C12.9717 14.2066 12.6947 14.2066 12.5238 14.0357L11.3571 12.8691C11.1863 12.6982 11.1863 12.4212 11.3571 12.2503Z" fill="#E9EFF7"/>
</g>
<defs>
<clipPath id="clip0_1190_4644">
<rect width="14" height="14" fill="white" transform="translate(0 0.893005)"/>
</clipPath>
</defs>
</svg>
