<svg width="14" height="15" viewBox="0 0 14 15" fill="none" xmlns="http://www.w3.org/2000/svg">
<path fill-rule="evenodd" clip-rule="evenodd" d="M0.751696 1.77901C0.828104 1.54978 1.07587 1.4259 1.30509 1.50231L1.48265 1.56149C1.84804 1.68327 2.15681 1.78619 2.39961 1.89914C2.6577 2.0192 2.88164 2.16801 3.05145 2.4036C3.22125 2.63919 3.29161 2.8987 3.32389 3.18151C3.34038 3.32594 3.34792 3.48787 3.35136 3.66736H9.59626C10.795 3.66736 11.3944 3.66736 11.6537 4.06068C11.9131 4.454 11.677 5.0049 11.2048 6.10671L10.9548 6.69005C10.7343 7.20446 10.6241 7.46166 10.4049 7.60617C10.1858 7.75069 9.90592 7.75069 9.34626 7.75069H3.44361C3.50486 8.06562 3.60148 8.24991 3.73867 8.3871C3.90011 8.54854 4.12678 8.6538 4.55481 8.71135C4.99544 8.77059 5.57942 8.77152 6.41674 8.77152H10.5001C10.7417 8.77152 10.9376 8.9674 10.9376 9.20902C10.9376 9.45065 10.7417 9.64652 10.5001 9.64652H6.38473C5.58697 9.64653 4.94395 9.64654 4.43822 9.57855C3.91316 9.50796 3.47107 9.35694 3.11995 9.00582C2.76883 8.6547 2.61781 8.21261 2.54722 7.68754C2.47922 7.18181 2.47923 6.53879 2.47924 5.74103L2.47924 4.18246C2.47924 3.76655 2.47858 3.49135 2.45454 3.28076C2.43177 3.08135 2.39202 2.98517 2.34161 2.91522C2.2912 2.84528 2.21252 2.77715 2.03054 2.69249C1.83836 2.60309 1.5775 2.51544 1.18293 2.38391L1.0284 2.3324C0.79917 2.256 0.675287 2.00823 0.751696 1.77901ZM4.66674 4.97986C4.42512 4.97986 4.22924 5.17573 4.22924 5.41736C4.22924 5.65898 4.42512 5.85486 4.66674 5.85486H6.41674C6.65837 5.85486 6.85424 5.65898 6.85424 5.41736C6.85424 5.17573 6.65837 4.97986 6.41674 4.97986H4.66674Z" fill="white"/>
<path d="M4.37496 10.6674C4.85821 10.6674 5.24996 11.0591 5.24996 11.5424C5.24996 12.0256 4.85821 12.4174 4.37496 12.4174C3.89171 12.4174 3.49996 12.0256 3.49996 11.5424C3.49996 11.0591 3.89171 10.6674 4.37496 10.6674Z" fill="white"/>
<path d="M9.62496 10.6674C10.1082 10.6674 10.5 11.0592 10.5 11.5424C10.5 12.0257 10.1082 12.4174 9.62496 12.4174C9.14171 12.4174 8.74996 12.0257 8.74996 11.5424C8.74996 11.0592 9.14171 10.6674 9.62496 10.6674Z" fill="white"/>
</svg>
