<svg width="20" height="21" viewBox="0 0 20 21" fill="none" xmlns="http://www.w3.org/2000/svg">
<path d="M12.8275 3.54536L12.3258 4.10283L12.8275 3.54536ZM16.1265 6.51444L15.6248 7.07191V7.07191L16.1265 6.51444ZM18.0451 8.62906L17.36 8.93419L17.36 8.93419L18.0451 8.62906ZM2.64306 17.5243L3.17339 16.994L3.17339 16.994L2.64306 17.5243ZM17.3571 17.5243L16.8268 16.994L16.8268 16.994L17.3571 17.5243ZM5.00008 11.5007C4.58587 11.5007 4.25008 11.8364 4.25008 12.2507C4.25008 12.6649 4.58587 13.0007 5.00008 13.0007V11.5007ZM11.6667 13.0007C12.081 13.0007 12.4167 12.6649 12.4167 12.2507C12.4167 11.8364 12.081 11.5007 11.6667 11.5007V13.0007ZM5.00008 14.4173C4.58587 14.4173 4.25008 14.7531 4.25008 15.1673C4.25008 15.5815 4.58587 15.9173 5.00008 15.9173V14.4173ZM9.58342 15.9173C9.99763 15.9173 10.3334 15.5815 10.3334 15.1673C10.3334 14.7531 9.99763 14.4173 9.58342 14.4173V15.9173ZM11.6667 17.7507H8.33341V19.2507H11.6667V17.7507ZM2.41675 11.834V8.50065H0.916748V11.834H2.41675ZM17.5834 11.4697V11.834H19.0834V11.4697H17.5834ZM12.3258 4.10283L15.6248 7.07191L16.6282 5.95697L13.3293 2.98789L12.3258 4.10283ZM19.0834 11.4697C19.0834 10.0738 19.0986 9.15101 18.7302 8.32393L17.36 8.93419C17.5683 9.40194 17.5834 9.94131 17.5834 11.4697H19.0834ZM15.6248 7.07191C16.7609 8.09437 17.1516 8.46644 17.36 8.93419L18.7302 8.32394C18.3619 7.49686 17.6658 6.89079 16.6282 5.95697L15.6248 7.07191ZM8.35824 2.58398C9.68587 2.58398 10.1557 2.59556 10.5724 2.75547L11.1098 1.35503C10.3733 1.07241 9.57228 1.08398 8.35824 1.08398V2.58398ZM13.3293 2.98789C12.4312 2.17967 11.8462 1.63762 11.1098 1.35503L10.5724 2.75547C10.9892 2.91541 11.3441 3.21925 12.3258 4.10283L13.3293 2.98789ZM8.33341 17.7507C6.74086 17.7507 5.6219 17.7491 4.77578 17.6353C3.95123 17.5244 3.49897 17.3196 3.17339 16.994L2.11273 18.0547C2.76346 18.7054 3.58503 18.9887 4.57591 19.1219C5.54521 19.2522 6.78327 19.2507 8.33341 19.2507V17.7507ZM0.916748 11.834C0.916748 13.3841 0.915155 14.6222 1.04547 15.5915C1.1787 16.5824 1.462 17.4039 2.11273 18.0547L3.17339 16.994C2.84781 16.6684 2.64296 16.2162 2.5321 15.3916C2.41834 14.5455 2.41675 13.4265 2.41675 11.834H0.916748ZM11.6667 19.2507C13.2169 19.2507 14.455 19.2522 15.4243 19.1219C16.4151 18.9887 17.2367 18.7054 17.8874 18.0547L16.8268 16.994C16.5012 17.3196 16.0489 17.5244 15.2244 17.6353C14.3783 17.7491 13.2593 17.7507 11.6667 17.7507V19.2507ZM17.5834 11.834C17.5834 13.4265 17.5818 14.5455 17.4681 15.3916C17.3572 16.2162 17.1524 16.6684 16.8268 16.994L17.8874 18.0547C18.5382 17.4039 18.8215 16.5824 18.9547 15.5915C19.085 14.6222 19.0834 13.3841 19.0834 11.834H17.5834ZM2.41675 8.50065C2.41675 6.9081 2.41834 5.78914 2.5321 4.94301C2.64296 4.11847 2.84781 3.6662 3.17339 3.34063L2.11273 2.27997C1.462 2.9307 1.1787 3.75226 1.04547 4.74314C0.915155 5.71245 0.916748 6.9505 0.916748 8.50065H2.41675ZM8.35824 1.08398C6.79975 1.08398 5.55573 1.08241 4.58256 1.21265C3.58838 1.34571 2.76405 1.62865 2.11273 2.27997L3.17339 3.34063C3.49838 3.01563 3.95202 2.81041 4.78154 2.6994C5.63206 2.58556 6.75749 2.58398 8.35824 2.58398V1.08398ZM5.00008 13.0007H11.6667V11.5007H5.00008V13.0007ZM5.00008 15.9173H9.58342V14.4173H5.00008V15.9173ZM10.0834 2.25065V4.33398H11.5834V2.25065H10.0834ZM15.0001 9.25065H18.3334V7.75065H15.0001V9.25065ZM10.0834 4.33398C10.0834 5.29487 10.0818 6.09099 10.1664 6.7199C10.2538 7.37039 10.4456 7.95311 10.9133 8.42079L11.9739 7.36013C11.8314 7.21761 11.7181 7.00419 11.653 6.52003C11.585 6.0143 11.5834 5.33728 11.5834 4.33398H10.0834ZM15.0001 7.75065C13.9968 7.75065 13.3198 7.74906 12.814 7.68107C12.3299 7.61597 12.1165 7.50265 11.9739 7.36013L10.9133 8.42079C11.381 8.88846 11.9637 9.08023 12.6142 9.16769C13.2431 9.25224 14.0392 9.25065 15.0001 9.25065V7.75065Z" fill="#2E3A59"/>
</svg>
