<svg width="20" height="21" viewBox="0 0 20 21" fill="none" xmlns="http://www.w3.org/2000/svg">
<path d="M15.0001 1.83399V2.58399V1.83399ZM13.3334 1.83398V1.08398V1.83398ZM10.0001 9.41732C9.58587 9.41732 9.25008 9.7531 9.25008 10.1673C9.25008 10.5815 9.58587 10.9173 10.0001 10.9173V9.41732ZM11.6667 10.9173C12.081 10.9173 12.4167 10.5815 12.4167 10.1673C12.4167 9.7531 12.081 9.41732 11.6667 9.41732V10.9173ZM11.6667 5.91732C12.081 5.91732 12.4167 5.58153 12.4167 5.16732C12.4167 4.7531 12.081 4.41732 11.6667 4.41732L11.6667 5.91732ZM11.6667 15.9173C12.081 15.9173 12.4167 15.5815 12.4167 15.1673C12.4167 14.7531 12.081 14.4173 11.6667 14.4173V15.9173ZM10.0001 11.9173C9.58587 11.9173 9.25008 12.2531 9.25008 12.6673C9.25008 13.0815 9.58587 13.4173 10.0001 13.4173V11.9173ZM12.5001 13.4173C12.9143 13.4173 13.2501 13.0815 13.2501 12.6673C13.2501 12.2531 12.9143 11.9173 12.5001 11.9173V13.4173ZM10.0001 6.91732C9.58587 6.91732 9.25008 7.2531 9.25008 7.66732C9.25008 8.08153 9.58587 8.41732 10.0001 8.41732V6.91732ZM12.5001 8.41732C12.9143 8.41732 13.2501 8.08153 13.2501 7.66732C13.2501 7.2531 12.9143 6.91732 12.5001 6.91732V8.41732ZM1.66675 4.20899H0.916748V4.20899L1.66675 4.20899ZM6.66675 4.20898L7.41675 4.20899V4.20898H6.66675ZM3.56374 18.1466L2.90005 18.4959L2.90005 18.4959L3.56374 18.1466ZM2.34 15.8215L1.67631 16.1708H1.67631L2.34 15.8215ZM1.66675 13.1122H2.41675H1.66675ZM6.66675 13.1122H5.91675H6.66675ZM5.99349 15.8215L5.32981 15.4722L5.3298 15.4722L5.99349 15.8215ZM4.76975 18.1466L4.10606 17.7973L4.76975 18.1466ZM6.63528 14.0935L5.89154 13.9967V13.9967L6.63528 14.0935ZM6.4273 14.9304L5.72463 14.6682L5.72463 14.6682L6.4273 14.9304ZM1.90619 14.9304L1.20351 15.1926L1.20351 15.1926L1.90619 14.9304ZM1.69822 14.0935L2.44195 13.9967L1.69822 14.0935ZM5.01013 17.6899L5.67382 18.0392H5.67382L5.01013 17.6899ZM10.7501 15.1673V5.16732H9.25008V15.1673H10.7501ZM13.3334 2.58398L15.0001 2.58399V1.08399L13.3334 1.08398V2.58398ZM17.5834 5.16732V15.1673H19.0834V5.16732H17.5834ZM15.0001 17.7507H13.3334V19.2507H15.0001V17.7507ZM17.5834 15.1673C17.5834 15.9742 17.5818 16.5039 17.5291 16.8962C17.4792 17.2669 17.3964 17.4007 17.3149 17.4822L18.3756 18.5428C18.7822 18.1362 18.9435 17.6331 19.0157 17.096C19.085 16.5806 19.0834 15.9318 19.0834 15.1673H17.5834ZM15.0001 19.2507C15.7646 19.2507 16.4134 19.2522 16.9288 19.1829C17.4658 19.1107 17.9689 18.9495 18.3756 18.5428L17.3149 17.4822C17.2334 17.5637 17.0996 17.6465 16.7289 17.6963C16.3367 17.7491 15.807 17.7507 15.0001 17.7507V19.2507ZM15.0001 2.58399C15.807 2.58399 16.3367 2.58558 16.7289 2.63832C17.0996 2.68815 17.2334 2.77097 17.3149 2.85247L18.3756 1.79181C17.9689 1.38516 17.4658 1.22389 16.9288 1.15169C16.4134 1.08239 15.7646 1.08399 15.0001 1.08399V2.58399ZM19.0834 5.16732C19.0834 4.40285 19.085 3.75404 19.0157 3.2386C18.9435 2.70157 18.7822 2.19846 18.3756 1.79181L17.3149 2.85247C17.3964 2.93397 17.4792 3.06778 17.5291 3.43847C17.5818 3.83073 17.5834 4.36044 17.5834 5.16732H19.0834ZM10.7501 5.16732C10.7501 4.36044 10.7517 3.83073 10.8044 3.43847C10.8543 3.06778 10.9371 2.93397 11.0186 2.85247L9.95791 1.79181C9.55125 2.19846 9.38999 2.70157 9.31779 3.2386C9.24849 3.75404 9.25008 4.40285 9.25008 5.16732H10.7501ZM13.3334 1.08398C12.5689 1.08398 11.9201 1.08239 11.4047 1.15169C10.8677 1.22389 10.3646 1.38516 9.95791 1.79181L11.0186 2.85247C11.1001 2.77097 11.2339 2.68815 11.6046 2.63832C11.9968 2.58558 12.5265 2.58398 13.3334 2.58398V1.08398ZM9.25008 15.1673C9.25008 15.9318 9.24849 16.5806 9.31779 17.096C9.38999 17.6331 9.55125 18.1362 9.95791 18.5428L11.0186 17.4822C10.9371 17.4007 10.8543 17.2669 10.8044 16.8962C10.7517 16.5039 10.7501 15.9742 10.7501 15.1673H9.25008ZM13.3334 17.7507C12.5265 17.7507 11.9968 17.7491 11.6046 17.6963C11.2339 17.6465 11.1001 17.5637 11.0186 17.4822L9.95791 18.5428C10.3646 18.9495 10.8677 19.1107 11.4047 19.1829C11.9201 19.2522 12.5689 19.2507 13.3334 19.2507V17.7507ZM10.0001 10.9173H11.6667V9.41732H10.0001V10.9173ZM10.0001 5.91732L11.6667 5.91732L11.6667 4.41732L10.0001 4.41732L10.0001 5.91732ZM10.0001 15.9173H11.6667V14.4173H10.0001V15.9173ZM10.0001 13.4173L12.5001 13.4173V11.9173L10.0001 11.9173V13.4173ZM10.0001 8.41732H12.5001V6.91732H10.0001V8.41732ZM2.41675 5.00065L2.41675 4.20898L0.916748 4.20899L0.916748 5.00065L2.41675 5.00065ZM5.91675 4.20898L5.91675 5.00065L7.41675 5.00065V4.20899L5.91675 4.20898ZM1.66675 5.00065C1.18286 5.57367 1.1831 5.57387 1.18333 5.57407C1.18342 5.57414 1.18366 5.57435 1.18383 5.57449C1.18416 5.57477 1.18452 5.57507 1.18488 5.57537C1.18562 5.57599 1.18641 5.57665 1.18727 5.57737C1.18898 5.57879 1.19093 5.58041 1.19312 5.58221C1.1975 5.58581 1.20284 5.59016 1.20914 5.59519C1.22173 5.60527 1.23815 5.61812 1.25832 5.63334C1.29864 5.66377 1.35411 5.70378 1.42414 5.75006C1.56397 5.84247 1.76324 5.96079 2.01704 6.0777C2.52474 6.31154 3.25677 6.54232 4.16675 6.54232V5.04232C3.51423 5.04232 2.99626 4.87726 2.64458 4.71527C2.46869 4.63426 2.33593 4.55467 2.25116 4.49864C2.20888 4.4707 2.1789 4.44886 2.16185 4.436C2.15333 4.42957 2.14808 4.42541 2.14618 4.42389C2.14523 4.42313 2.14512 4.42303 2.14585 4.42364C2.14622 4.42394 2.14681 4.42442 2.1476 4.42508C2.148 4.42542 2.14845 4.42579 2.14896 4.42622C2.14921 4.42643 2.14947 4.42665 2.14975 4.42689C2.14989 4.42701 2.15011 4.42719 2.15018 4.42725C2.15041 4.42744 2.15063 4.42763 1.66675 5.00065ZM4.16675 6.54232C5.07673 6.54232 5.80876 6.31154 6.31646 6.0777C6.57026 5.96079 6.76953 5.84247 6.90936 5.75006C6.97938 5.70378 7.03486 5.66377 7.07518 5.63334C7.09535 5.61812 7.11177 5.60527 7.12436 5.59519C7.13066 5.59016 7.136 5.58581 7.14038 5.58221C7.14257 5.58041 7.14452 5.57879 7.14623 5.57737C7.14708 5.57665 7.14788 5.57599 7.14861 5.57537C7.14898 5.57507 7.14933 5.57477 7.14967 5.57449C7.14984 5.57435 7.15008 5.57414 7.15016 5.57407C7.1504 5.57387 7.15063 5.57367 6.66675 5.00065C6.18286 4.42763 6.18309 4.42744 6.18331 4.42725C6.18338 4.42719 6.1836 4.42701 6.18374 4.42689C6.18402 4.42665 6.18429 4.42643 6.18454 4.42622C6.18505 4.42579 6.1855 4.42542 6.18589 4.42508C6.18669 4.42442 6.18727 4.42394 6.18764 4.42364C6.18838 4.42303 6.18827 4.42313 6.18732 4.42389C6.18541 4.42542 6.18016 4.42957 6.17165 4.436C6.1546 4.44886 6.12462 4.4707 6.08234 4.49864C5.99756 4.55467 5.8648 4.63426 5.68892 4.71527C5.33724 4.87726 4.81927 5.04232 4.16675 5.04232V6.54232ZM2.41675 13.1122L2.41675 5.00065H0.916748L0.916748 13.1122H2.41675ZM5.91675 5.00065L5.91675 13.1122H7.41675L7.41675 5.00065H5.91675ZM5.91675 13.1122C5.91675 13.6237 5.91531 13.814 5.89154 13.9967L7.37901 14.1902C7.41818 13.8892 7.41675 13.5865 7.41675 13.1122H5.91675ZM6.65718 16.1708C6.88065 15.7462 7.02371 15.4774 7.12998 15.1926L5.72463 14.6682C5.65947 14.8428 5.57047 15.0149 5.32981 15.4722L6.65718 16.1708ZM5.89154 13.9967C5.86181 14.2252 5.80592 14.4504 5.72463 14.6682L7.12998 15.1926C7.25091 14.8685 7.33449 14.5324 7.37901 14.1902L5.89154 13.9967ZM4.16675 17.7507C4.17326 17.7507 4.18206 17.7524 4.19204 17.7582C4.20213 17.7642 4.21634 17.7762 4.22743 17.7973L2.90005 18.4959C3.15055 18.9719 3.64739 19.2507 4.16675 19.2507V17.7507ZM3.00369 15.4722C2.76303 15.0149 2.67403 14.8428 2.60887 14.6682L1.20351 15.1926C1.30978 15.4774 1.45285 15.7462 1.67631 16.1708L3.00369 15.4722ZM0.916748 13.1122C0.916748 13.5865 0.915315 13.8892 0.954489 14.1902L2.44195 13.9967C2.41818 13.814 2.41675 13.6237 2.41675 13.1122H0.916748ZM2.60887 14.6682C2.52758 14.4504 2.47168 14.2252 2.44195 13.9967L0.954489 14.1902C0.999007 14.5324 1.08258 14.8685 1.20351 15.1926L2.60887 14.6682ZM4.16675 19.2507C4.68611 19.2507 5.18295 18.9719 5.43344 18.4959L4.10606 17.7973C4.11715 17.7762 4.13136 17.7642 4.14145 17.7582C4.15144 17.7524 4.16024 17.7507 4.16675 17.7507V19.2507ZM4.16675 2.58398C5.16996 2.58398 5.91675 3.34731 5.91675 4.20898H7.41675C7.41675 2.44731 5.92496 1.08398 4.16675 1.08398V2.58398ZM4.16675 1.08398C2.40854 1.08398 0.916748 2.44731 0.916748 4.20899H2.41675C2.41675 3.34731 3.16354 2.58398 4.16675 2.58398V1.08398ZM4.34644 17.3406L4.10606 17.7973L5.43344 18.4959L5.67382 18.0392L4.34644 17.3406ZM4.22743 17.7973L3.98705 17.3406L2.65968 18.0392L2.90005 18.4959L4.22743 17.7973ZM5.01013 16.9399H3.32337V18.4399H5.01013V16.9399ZM5.3298 15.4722L4.34644 17.3406L5.67382 18.0392L6.65718 16.1708L5.3298 15.4722ZM3.98705 17.3406L3.00369 15.4722L1.67631 16.1708L2.65968 18.0392L3.98705 17.3406Z" fill="#2E3A59"/>
</svg>
