<svg width="20" height="21" viewBox="0 0 20 21" fill="none" xmlns="http://www.w3.org/2000/svg">
<path d="M17.3571 15.8576L16.8268 15.3273H16.8268L17.3571 15.8576ZM17.3571 4.47688L16.8268 5.00721L16.8268 5.00721L17.3571 4.47688ZM12.5023 2.75135C12.0881 2.75014 11.7513 3.08494 11.7501 3.49915C11.7489 3.91336 12.0837 4.25013 12.4979 4.25134L12.5023 2.75135ZM7.50228 4.25134C7.91649 4.25013 8.25129 3.91336 8.25008 3.49915C8.24887 3.08494 7.9121 2.75014 7.49789 2.75135L7.50228 4.25134ZM9.25008 4.3339C9.25008 4.74812 9.58587 5.0839 10.0001 5.0839C10.4143 5.0839 10.7501 4.74812 10.7501 4.3339H9.25008ZM10.7501 2.66724C10.7501 2.25302 10.4143 1.91724 10.0001 1.91724C9.58587 1.91724 9.25008 2.25302 9.25008 2.66724H10.7501ZM6.66675 8.16724C6.25253 8.16724 5.91675 8.50302 5.91675 8.91724C5.91675 9.33145 6.25253 9.66724 6.66675 9.66724V8.16724ZM13.3334 9.66724C13.7476 9.66724 14.0834 9.33145 14.0834 8.91724C14.0834 8.50302 13.7476 8.16724 13.3334 8.16724V9.66724ZM6.66675 11.0839C6.25253 11.0839 5.91675 11.4197 5.91675 11.8339C5.91675 12.2481 6.25253 12.5839 6.66675 12.5839V11.0839ZM11.2501 12.5839C11.6643 12.5839 12.0001 12.2481 12.0001 11.8339C12.0001 11.4197 11.6643 11.0839 11.2501 11.0839V12.5839ZM11.6667 16.0839H8.33341V17.5839H11.6667V16.0839ZM8.33341 16.0839C6.74086 16.0839 5.6219 16.0823 4.77578 15.9686C3.95123 15.8577 3.49897 15.6528 3.17339 15.3273L2.11273 16.3879C2.76346 17.0387 3.58503 17.322 4.57591 17.4552C5.54521 17.5855 6.78327 17.5839 8.33341 17.5839V16.0839ZM0.916748 10.1672C0.916748 11.7174 0.915155 12.9554 1.04547 13.9247C1.1787 14.9156 1.462 15.7372 2.11273 16.3879L3.17339 15.3273C2.84781 15.0017 2.64296 14.5494 2.5321 13.7249C2.41834 12.8788 2.41675 11.7598 2.41675 10.1672H0.916748ZM17.5834 10.1672C17.5834 11.7598 17.5818 12.8788 17.4681 13.7249C17.3572 14.5494 17.1524 15.0017 16.8268 15.3273L17.8874 16.3879C18.5382 15.7372 18.8215 14.9156 18.9547 13.9247C19.085 12.9554 19.0834 11.7174 19.0834 10.1672H17.5834ZM11.6667 17.5839C13.2169 17.5839 14.455 17.5855 15.4243 17.4552C16.4151 17.322 17.2367 17.0387 17.8874 16.3879L16.8268 15.3273C16.5012 15.6528 16.0489 15.8577 15.2244 15.9686C14.3783 16.0823 13.2593 16.0839 11.6667 16.0839V17.5839ZM19.0834 10.1672C19.0834 8.61709 19.085 7.37903 18.9547 6.40973C18.8215 5.41885 18.5382 4.59728 17.8874 3.94655L16.8268 5.00721C17.1524 5.33279 17.3572 5.78505 17.4681 6.6096C17.5818 7.45572 17.5834 8.57469 17.5834 10.1672H19.0834ZM2.41675 10.1672C2.41675 8.57469 2.41834 7.45572 2.5321 6.6096C2.64296 5.78505 2.84781 5.33279 3.17339 5.00721L2.11273 3.94655C1.462 4.59728 1.1787 5.41885 1.04547 6.40973C0.915155 7.37903 0.916748 8.61709 0.916748 10.1672H2.41675ZM12.4979 4.25134C13.8056 4.25517 14.7363 4.27907 15.4441 4.39918C16.1302 4.51558 16.5304 4.71079 16.8268 5.00721L17.8874 3.94655C17.2979 3.35706 16.5672 3.0683 15.6951 2.92031C14.8447 2.77603 13.7899 2.75512 12.5023 2.75135L12.4979 4.25134ZM7.49789 2.75135C6.2103 2.75512 5.15546 2.77603 4.3051 2.92031C3.43293 3.0683 2.70222 3.35706 2.11273 3.94655L3.17339 5.00721C3.46981 4.71079 3.86998 4.51558 4.55603 4.39918C5.2639 4.27907 6.19461 4.25517 7.50228 4.25134L7.49789 2.75135ZM10.7501 4.3339V2.66724H9.25008V4.3339H10.7501ZM6.66675 9.66724H13.3334V8.16724H6.66675V9.66724ZM6.66675 12.5839H11.2501V11.0839H6.66675V12.5839Z" fill="#2E3A59"/>
</svg>
