<svg width="20" height="21" viewBox="0 0 20 21" fill="none" xmlns="http://www.w3.org/2000/svg">
<path d="M14.1667 9.25065C14.581 9.25065 14.9167 8.91487 14.9167 8.50065C14.9167 8.08644 14.581 7.75065 14.1667 7.75065V9.25065ZM5.83342 8.50065L5.34026 7.93558C5.10472 8.14115 5.0214 8.47127 5.13117 8.76399C5.24094 9.05672 5.52078 9.25065 5.83342 9.25065V8.50065ZM9.19115 6.56572C9.50323 6.29336 9.53543 5.81958 9.26307 5.5075C8.99071 5.19542 8.51693 5.16322 8.20485 5.43558L9.19115 6.56572ZM5.83342 11.084C5.4192 11.084 5.08341 11.4198 5.08342 11.834C5.08342 12.2482 5.4192 12.584 5.83342 12.584V11.084ZM14.1667 11.834L14.6599 12.3991C14.8954 12.1935 14.9788 11.8634 14.869 11.5706C14.7592 11.2779 14.4794 11.084 14.1667 11.084V11.834ZM10.809 13.7689C10.4969 14.0413 10.4647 14.5151 10.7371 14.8271C11.0095 15.1392 11.4832 15.1714 11.7953 14.8991L10.809 13.7689ZM17.5834 10.1673C17.5834 14.3555 14.1882 17.7507 10.0001 17.7507V19.2507C15.0167 19.2507 19.0834 15.1839 19.0834 10.1673H17.5834ZM10.0001 17.7507C5.81192 17.7507 2.41675 14.3555 2.41675 10.1673H0.916748C0.916748 15.1839 4.98349 19.2507 10.0001 19.2507V17.7507ZM2.41675 10.1673C2.41675 5.97916 5.81192 2.58398 10.0001 2.58398V1.08398C4.98349 1.08398 0.916748 5.15073 0.916748 10.1673H2.41675ZM10.0001 2.58398C14.1882 2.58398 17.5834 5.97916 17.5834 10.1673H19.0834C19.0834 5.15073 15.0167 1.08398 10.0001 1.08398V2.58398ZM14.1667 7.75065H5.83342V9.25065H14.1667V7.75065ZM6.32657 9.06572L9.19115 6.56572L8.20485 5.43558L5.34026 7.93558L6.32657 9.06572ZM5.83342 12.584L14.1667 12.584V11.084H5.83342V12.584ZM13.6736 11.2689L10.809 13.7689L11.7953 14.8991L14.6599 12.3991L13.6736 11.2689Z" fill="#2E3A59"/>
<line x1="4.5985" y1="4.22437" x2="15.9529" y2="15.6863" stroke="#2E3A59" stroke-width="1.5"/>
</svg>
