<svg width="16" height="17" viewBox="0 0 16 17" fill="none" xmlns="http://www.w3.org/2000/svg">
<rect width="16" height="16" transform="translate(0 0.167236)" fill="white" fill-opacity="0.01"/>
<g clip-path="url(#clip0_734_18818)">
<path d="M15.3712 10.2003L14.2016 9.20027C14.257 8.86099 14.2855 8.51456 14.2855 8.16813C14.2855 7.8217 14.257 7.47527 14.2016 7.13599L15.3712 6.13599C15.4595 6.06046 15.5226 5.95987 15.5523 5.84759C15.5819 5.73531 15.5767 5.61666 15.5373 5.50741L15.5212 5.46099C15.1992 4.56103 14.7171 3.72676 14.098 2.99849L14.0659 2.96099C13.9908 2.87269 13.8907 2.80921 13.7788 2.77893C13.6669 2.74865 13.5485 2.75297 13.4391 2.79134L11.9873 3.30741C11.4516 2.86813 10.8534 2.5217 10.207 2.27884L9.92659 0.760986C9.90544 0.646776 9.85004 0.541705 9.76775 0.459732C9.68546 0.37776 9.58017 0.322766 9.46588 0.302058L9.41767 0.293129C8.48731 0.125272 7.50874 0.125272 6.57838 0.293129L6.53017 0.302058C6.41587 0.322766 6.31059 0.37776 6.2283 0.459732C6.146 0.541705 6.0906 0.646776 6.06945 0.760986L5.78731 2.28599C5.14604 2.52889 4.54886 2.87514 4.01945 3.31099L2.55695 2.79134C2.4476 2.75267 2.32908 2.74818 2.21712 2.77849C2.10516 2.80879 2.00508 2.87244 1.93017 2.96099L1.89802 2.99849C1.27971 3.72728 0.797622 4.56141 0.474808 5.46099L0.458737 5.50741C0.37838 5.73063 0.444451 5.98063 0.624808 6.13599L1.80874 7.1467C1.75338 7.48242 1.72659 7.82527 1.72659 8.16634C1.72659 8.5092 1.75338 8.85206 1.80874 9.18599L0.624808 10.1967C0.536586 10.2722 0.473445 10.3728 0.44378 10.4851C0.414115 10.5974 0.419331 10.716 0.458737 10.8253L0.474808 10.8717C0.798023 11.7717 1.27659 12.6021 1.89802 13.3342L1.93017 13.3717C2.00526 13.46 2.10535 13.5235 2.21724 13.5538C2.32913 13.584 2.44757 13.5797 2.55695 13.5413L4.01945 13.0217C4.55159 13.4592 5.14624 13.8056 5.78731 14.0467L6.06945 15.5717C6.0906 15.6859 6.146 15.791 6.2283 15.873C6.31059 15.9549 6.41587 16.0099 6.53017 16.0306L6.57838 16.0396C7.51728 16.2083 8.47876 16.2083 9.41767 16.0396L9.46588 16.0306C9.58017 16.0099 9.68546 15.9549 9.76775 15.873C9.85004 15.791 9.90544 15.6859 9.92659 15.5717L10.207 14.0538C10.8531 13.8116 11.4547 13.4641 11.9873 13.0253L13.4391 13.5413C13.5484 13.58 13.667 13.5845 13.7789 13.5542C13.8909 13.5239 13.991 13.4602 14.0659 13.3717L14.098 13.3342C14.7194 12.6003 15.198 11.7717 15.5212 10.8717L15.5373 10.8253C15.6177 10.6056 15.5516 10.3556 15.3712 10.2003ZM12.9337 7.3467C12.9784 7.61634 13.0016 7.89313 13.0016 8.16992C13.0016 8.4467 12.9784 8.72349 12.9337 8.99313L12.8159 9.7092L14.1498 10.8503C13.9476 11.3161 13.6923 11.7572 13.3891 12.1646L11.732 11.5771L11.1712 12.0378C10.7444 12.3878 10.2695 12.6628 9.75516 12.8556L9.07481 13.111L8.75516 14.8431C8.25083 14.9003 7.74165 14.9003 7.23731 14.8431L6.91767 13.1074L6.24267 12.8485C5.73374 12.6556 5.26052 12.3806 4.83731 12.0324L4.27659 11.5699L2.60874 12.1628C2.30517 11.7538 2.05159 11.3128 1.84802 10.8485L3.19624 9.6967L3.08017 8.98242C3.03731 8.71634 3.01409 8.44134 3.01409 8.16992C3.01409 7.8967 3.03552 7.62349 3.08017 7.35742L3.19624 6.64313L1.84802 5.49134C2.04981 5.02527 2.30517 4.58599 2.60874 4.17706L4.27659 4.76992L4.83731 4.30742C5.26052 3.9592 5.73374 3.6842 6.24267 3.49134L6.91945 3.23599L7.23909 1.50027C7.74088 1.44313 8.25338 1.44313 8.75695 1.50027L9.07659 3.23241L9.75695 3.48777C10.2695 3.68063 10.7462 3.95563 11.173 4.30563L11.7337 4.76634L13.3909 4.17884C13.6945 4.58777 13.948 5.02884 14.1516 5.49313L12.8177 6.6342L12.9337 7.3467ZM7.99981 4.84849C6.26409 4.84849 4.85695 6.25563 4.85695 7.99134C4.85695 9.72706 6.26409 11.1342 7.99981 11.1342C9.73552 11.1342 11.1427 9.72706 11.1427 7.99134C11.1427 6.25563 9.73552 4.84849 7.99981 4.84849ZM9.41409 9.40563C9.2286 9.59166 9.00815 9.73918 8.76543 9.8397C8.52271 9.94022 8.26252 9.99175 7.99981 9.99134C7.46588 9.99134 6.96409 9.78242 6.58552 9.40563C6.39949 9.22013 6.25198 8.99969 6.15146 8.75697C6.05094 8.51425 5.9994 8.25405 5.99981 7.99134C5.99981 7.45742 6.20874 6.95563 6.58552 6.57706C6.96409 6.19849 7.46588 5.99134 7.99981 5.99134C8.53374 5.99134 9.03552 6.19849 9.41409 6.57706C9.60012 6.76255 9.74764 6.983 9.84816 7.22572C9.94868 7.46844 10.0002 7.72863 9.99981 7.99134C9.99981 8.52527 9.79088 9.02706 9.41409 9.40563Z" fill="#101426"/>
</g>
<defs>
<clipPath id="clip0_734_18818">
<rect width="16" height="16" fill="white" transform="translate(0 0.167236)"/>
</clipPath>
</defs>
</svg>
