<svg width="14" height="14" viewBox="0 0 14 14" fill="none" xmlns="http://www.w3.org/2000/svg">
<path fill-rule="evenodd" clip-rule="evenodd" d="M10.2013 2.58443C10.3847 2.74168 10.406 3.01787 10.2487 3.20132L6.99275 6.99994L10.2487 10.7985C10.406 10.982 10.3847 11.2582 10.2013 11.4154C10.0178 11.5727 9.7416 11.5514 9.58436 11.368L6.08436 7.28466C5.94392 7.12082 5.94392 6.87905 6.08436 6.71522L9.58436 2.63188C9.7416 2.44843 10.0178 2.42718 10.2013 2.58443ZM7.86797 2.58449C8.05143 2.74174 8.07267 3.01793 7.91543 3.20138L4.65947 7L7.91543 10.7986C8.07267 10.9821 8.05143 11.2583 7.86797 11.4155C7.68452 11.5728 7.40832 11.5515 7.25108 11.3681L3.75108 7.28472C3.61064 7.12088 3.61064 6.87911 3.75108 6.71527L7.25108 2.63194C7.40832 2.44849 7.68452 2.42724 7.86797 2.58449Z" fill="white"/>
</svg>
