<svg width="14" height="14" viewBox="0 0 14 14" fill="none" xmlns="http://www.w3.org/2000/svg">
<g clip-path="url(#clip0_855_37687)">
<path fill-rule="evenodd" clip-rule="evenodd" d="M6.96649 0.729172H7.03343C8.37999 0.729164 9.43526 0.729158 10.2586 0.839857C11.1014 0.953164 11.7664 1.18961 12.2884 1.71158C12.8104 2.23356 13.0468 2.89857 13.1601 3.74133C13.2708 4.5647 13.2708 5.61997 13.2708 6.96654V7.03347C13.2708 8.38004 13.2708 9.43531 13.1601 10.2587C13.0468 11.1014 12.8104 11.7665 12.2884 12.2884C11.7664 12.8104 11.1014 13.0468 10.2586 13.1602C9.43526 13.2709 8.37999 13.2708 7.03343 13.2708H6.96649C5.61993 13.2708 4.56466 13.2709 3.74129 13.1602C2.89853 13.0468 2.23351 12.8104 1.71154 12.2884C1.18957 11.7665 0.953118 11.1014 0.839812 10.2587C0.729113 9.43531 0.729119 8.38004 0.729126 7.03348V6.96653C0.729119 5.61997 0.729113 4.5647 0.839812 3.74133C0.953118 2.89857 1.18957 2.23356 1.71154 1.71158C2.23351 1.18961 2.89853 0.953164 3.74129 0.839857C4.56466 0.729158 5.61993 0.729164 6.96649 0.729172ZM3.85788 1.70705C3.11214 1.80732 2.66256 1.998 2.33026 2.3303C1.99796 2.6626 1.80727 3.11219 1.70701 3.85793C1.60506 4.61625 1.60413 5.61271 1.60413 7.00001C1.60413 8.3873 1.60506 9.38377 1.70701 10.1421C1.80727 10.8878 1.99796 11.3374 2.33026 11.6697C2.66256 12.002 3.11214 12.1927 3.85788 12.293C4.6162 12.3949 5.61266 12.3958 6.99996 12.3958C8.38726 12.3958 9.38372 12.3949 10.142 12.293C10.8878 12.1927 11.3374 12.002 11.6697 11.6697C12.002 11.3374 12.1926 10.8878 12.2929 10.1421C12.3949 9.38377 12.3958 8.3873 12.3958 7.00001C12.3958 5.61271 12.3949 4.61625 12.2929 3.85793C12.1926 3.11219 12.002 2.6626 11.6697 2.3303C11.3374 1.998 10.8878 1.80732 10.142 1.70705C9.38372 1.6051 8.38726 1.60417 6.99996 1.60417C5.61266 1.60417 4.6162 1.6051 3.85788 1.70705Z" fill="#101113"/>
<path fill-rule="evenodd" clip-rule="evenodd" d="M4.68432 3.48231C4.85517 3.65317 4.85517 3.93018 4.68432 4.10103L4.55618 4.22917H4.66663C5.64632 4.22917 6.50726 4.73762 6.99996 5.50503C7.49266 4.73762 8.3536 4.22917 9.33329 4.22917H9.44374L9.3156 4.10103C9.14475 3.93018 9.14475 3.65317 9.3156 3.48231C9.48645 3.31146 9.76347 3.31146 9.93432 3.48231L10.8093 4.35731C10.9802 4.52817 10.9802 4.80518 10.8093 4.97603L9.93432 5.85103C9.76347 6.02189 9.48645 6.02189 9.3156 5.85103C9.14475 5.68018 9.14475 5.40317 9.3156 5.23231L9.44374 5.10417H9.33329C8.28625 5.10417 7.43746 5.95297 7.43746 7.00001V10.5C7.43746 10.7416 7.24158 10.9375 6.99996 10.9375C6.75834 10.9375 6.56246 10.7416 6.56246 10.5V7.00001C6.56246 5.95297 5.71367 5.10417 4.66663 5.10417H4.55618L4.68432 5.23231C4.85517 5.40317 4.85517 5.68018 4.68432 5.85103C4.51346 6.02189 4.23645 6.02189 4.0656 5.85103L3.1906 4.97603C3.01975 4.80518 3.01975 4.52817 3.1906 4.35731L4.0656 3.48231C4.23645 3.31146 4.51346 3.31146 4.68432 3.48231Z" fill="#101113"/>
</g>
<defs>
<clipPath id="clip0_855_37687">
<rect width="14" height="14" fill="white"/>
</clipPath>
</defs>
</svg>
