<svg width="14" height="14" viewBox="0 0 14 14" fill="none" xmlns="http://www.w3.org/2000/svg">
<path fill-rule="evenodd" clip-rule="evenodd" d="M9.91671 1.89583C10.0544 1.89583 10.1841 1.96066 10.2667 2.07083L12.0167 4.40416C12.1617 4.59746 12.1225 4.87169 11.9292 5.01666C11.7359 5.16164 11.4617 5.12246 11.3167 4.92916L10.3542 3.64583V10.3542L11.3167 9.07083C11.4617 8.87753 11.7359 8.83835 11.9292 8.98333C12.1225 9.1283 12.1617 9.40253 12.0167 9.59583L10.2667 11.9292C10.1841 12.0393 10.0544 12.1042 9.91671 12.1042C9.779 12.1042 9.64933 12.0393 9.56671 11.9292L7.81671 9.59583C7.67173 9.40253 7.71091 9.1283 7.90421 8.98333C8.09751 8.83835 8.37173 8.87753 8.51671 9.07083L9.47921 10.3542V3.64583L8.51671 4.92916C8.37173 5.12246 8.09751 5.16164 7.90421 5.01666C7.71091 4.87169 7.67173 4.59746 7.81671 4.40416L9.56671 2.07083C9.64933 1.96066 9.779 1.89583 9.91671 1.89583ZM1.89587 4.08333C1.89587 3.8417 2.09175 3.64583 2.33337 3.64583H6.41671C6.65833 3.64583 6.85421 3.8417 6.85421 4.08333C6.85421 4.32495 6.65833 4.52083 6.41671 4.52083H2.33337C2.09175 4.52083 1.89587 4.32495 1.89587 4.08333ZM1.89587 7C1.89587 6.75837 2.09175 6.5625 2.33337 6.5625H6.41671C6.65833 6.5625 6.85421 6.75837 6.85421 7C6.85421 7.24162 6.65833 7.4375 6.41671 7.4375H2.33337C2.09175 7.4375 1.89587 7.24162 1.89587 7ZM1.89587 9.91666C1.89587 9.67504 2.09175 9.47916 2.33337 9.47916H6.41671C6.65833 9.47916 6.85421 9.67504 6.85421 9.91666C6.85421 10.1583 6.65833 10.3542 6.41671 10.3542H2.33337C2.09175 10.3542 1.89587 10.1583 1.89587 9.91666Z" fill="#101113"/>
</svg>
