<svg viewBox="0 0 20 20" fill="none" xmlns="http://www.w3.org/2000/svg">
<g clip-path="url(#clip0_887_42934)">
<path d="M9.25 15.0003C9.25 15.4145 9.58579 15.7503 10 15.7503C10.4142 15.7503 10.75 15.4145 10.75 15.0003H9.25ZM15 6.66699L15.5303 7.19732C15.8232 6.90443 15.8232 6.42956 15.5303 6.13666L15 6.66699ZM14.2803 4.88666C13.9874 4.59377 13.5126 4.59377 13.2197 4.88666C12.9268 5.17956 12.9268 5.65443 13.2197 5.94732L14.2803 4.88666ZM13.2197 7.38666C12.9268 7.67956 12.9268 8.15443 13.2197 8.44732C13.5126 8.74022 13.9874 8.74022 14.2803 8.44732L13.2197 7.38666ZM10.75 15.0003V10.0003H9.25V15.0003H10.75ZM13.3333 7.41699H15V5.91699H13.3333V7.41699ZM15.5303 6.13666L14.2803 4.88666L13.2197 5.94732L14.4697 7.19732L15.5303 6.13666ZM14.4697 6.13666L13.2197 7.38666L14.2803 8.44732L15.5303 7.19732L14.4697 6.13666ZM10.75 10.0003C10.75 8.57359 11.9066 7.41699 13.3333 7.41699V5.91699C11.0782 5.91699 9.25 7.74516 9.25 10.0003H10.75Z" fill="#2E3A59"/>
<path d="M9.25 15.0003C9.25 15.4145 9.58579 15.7503 10 15.7503C10.4142 15.7503 10.75 15.4145 10.75 15.0003H9.25ZM5 6.66699L4.46967 6.13666C4.17678 6.42956 4.17678 6.90443 4.46967 7.19732L5 6.66699ZM6.78033 5.94732C7.07322 5.65443 7.07322 5.17956 6.78033 4.88666C6.48744 4.59377 6.01256 4.59377 5.71967 4.88666L6.78033 5.94732ZM5.71967 8.44732C6.01256 8.74022 6.48744 8.74022 6.78033 8.44732C7.07322 8.15443 7.07322 7.67956 6.78033 7.38666L5.71967 8.44732ZM10.75 15.0003V10.0003H9.25V15.0003H10.75ZM6.66667 5.91699H5V7.41699H6.66667V5.91699ZM5.53033 7.19732L6.78033 5.94732L5.71967 4.88666L4.46967 6.13666L5.53033 7.19732ZM4.46967 7.19732L5.71967 8.44732L6.78033 7.38666L5.53033 6.13666L4.46967 7.19732ZM10.75 10.0003C10.75 7.74516 8.92183 5.91699 6.66667 5.91699V7.41699C8.0934 7.41699 9.25 8.57359 9.25 10.0003H10.75Z" fill="#101113"/>
<path d="M18.3332 10.0003C18.3332 13.9287 18.3332 15.8929 17.1128 17.1133C15.8924 18.3337 13.9282 18.3337 9.99984 18.3337C6.07147 18.3337 4.10728 18.3337 2.88689 17.1133C1.6665 15.8929 1.6665 13.9287 1.6665 10.0003C1.6665 6.07195 1.6665 4.10777 2.88689 2.88738C4.10728 1.66699 6.07147 1.66699 9.99984 1.66699C13.9282 1.66699 15.8924 1.66699 17.1128 2.88738C17.9242 3.69883 18.1961 4.83912 18.2873 6.66699" stroke="#101113" stroke-width="1.5" stroke-linecap="round"/>
</g>
<defs>
<clipPath id="clip0_887_42934">
<rect width="20" height="20" fill="white"/>
</clipPath>
</defs>
</svg>
