<svg viewBox="0 0 20 20" fill="none" xmlns="http://www.w3.org/2000/svg">
<path d="M11.6696 3.33301H8.33009C5.18158 3.33301 3.60733 3.33301 2.62921 4.30932C1.89702 5.04016 1.71292 6.10444 1.66664 7.91171C1.66071 8.14341 1.85084 8.32857 2.07547 8.38731C2.79212 8.57473 3.32084 9.22557 3.32084 9.99967C3.32084 10.7738 2.79212 11.4246 2.07547 11.612C1.85084 11.6708 1.66071 11.8559 1.66664 12.0876C1.71292 13.8949 1.89702 14.9592 2.62921 15.69M14.9998 3.41668C16.0904 3.52279 16.8236 3.76346 17.3705 4.30932C18.1027 5.04016 18.2868 6.10444 18.333 7.91171C18.339 8.14341 18.1488 8.32857 17.9242 8.38731C17.2076 8.57473 16.6788 9.22557 16.6788 9.99967C16.6788 10.7738 17.2076 11.4246 17.9242 11.612C18.1488 11.6708 18.339 11.8559 18.333 12.0876C18.2868 13.8949 18.1027 14.9592 17.3705 15.69C16.3923 16.6663 14.8181 16.6663 11.6696 16.6663H8.33009C7.35705 16.6663 6.53437 16.6663 5.83317 16.6375" stroke="#2E3A59" stroke-width="1.5" stroke-linecap="round"/>
<path d="M9.28829 8.35209C9.60495 7.78403 9.76328 7.5 10 7.5C10.2367 7.5 10.395 7.78403 10.7117 8.35209L10.7936 8.49906C10.8836 8.66048 10.9286 8.7412 10.9988 8.79445C11.0689 8.84771 11.1563 8.86748 11.331 8.90701L11.4901 8.94301C12.105 9.08214 12.4125 9.1517 12.4856 9.38693C12.5588 9.62216 12.3492 9.86727 11.93 10.3575L11.8215 10.4843C11.7024 10.6236 11.6428 10.6933 11.616 10.7794C11.5892 10.8656 11.5982 10.9585 11.6163 11.1444L11.6327 11.3136C11.696 11.9676 11.7277 12.2947 11.5362 12.4401C11.3447 12.5854 11.0568 12.4529 10.4811 12.1878L10.3321 12.1192C10.1685 12.0439 10.0867 12.0062 10 12.0062C9.91329 12.0062 9.83148 12.0439 9.66787 12.1192L9.51892 12.1878C8.94317 12.4529 8.65529 12.5854 8.46379 12.4401C8.27228 12.2947 8.30397 11.9676 8.36735 11.3136L8.38375 11.1444C8.40176 10.9585 8.41076 10.8656 8.38397 10.7794C8.35717 10.6933 8.29761 10.6236 8.17848 10.4843L8.07002 10.3575C7.65081 9.86727 7.44121 9.62216 7.51436 9.38693C7.5875 9.1517 7.89496 9.08214 8.50988 8.94301L8.66897 8.90701C8.84371 8.86748 8.93108 8.84771 9.00124 8.79445C9.07139 8.7412 9.11638 8.66048 9.20637 8.49906L9.28829 8.35209Z" stroke="#101113" stroke-width="1.5"/>
</svg>
