<svg viewBox="0 0 20 20" fill="none" xmlns="http://www.w3.org/2000/svg">
<g clip-path="url(#clip0_887_41771)">
<path d="M7.94645 12.7311C7.61368 12.4845 7.14397 12.5543 6.89731 12.887C6.65065 13.2198 6.72046 13.6895 7.05322 13.9362L7.94645 12.7311ZM12.9465 13.9362C13.2792 13.6895 13.349 13.2198 13.1024 12.887C12.8557 12.5543 12.386 12.4845 12.0532 12.7311L12.9465 13.9362ZM4.9032 4.2571L5.29869 4.89435L4.9032 4.2571ZM6.56986 3.22272L6.17437 2.58547V2.58547L6.56986 3.22272ZM13.4298 3.22272L13.0343 3.85996L13.0343 3.85996L13.4298 3.22272ZM15.0965 4.2571L14.701 4.89434L15.0965 4.2571ZM19.0832 10.1703C19.0832 9.75605 18.7474 9.42026 18.3332 9.42026C17.919 9.42026 17.5832 9.75605 17.5832 10.1703H19.0832ZM2.64281 17.3238L3.18203 16.8025H3.18203L2.64281 17.3238ZM17.3569 17.3238L16.8176 16.8025L16.8176 16.8025L17.3569 17.3238ZM17.2426 6.87939C17.4415 7.24273 17.8973 7.37605 18.2606 7.17717C18.624 6.97828 18.7573 6.52251 18.5584 6.15917L17.2426 6.87939ZM2.09917 6.51928L2.75706 6.87939H2.75706L2.09917 6.51928ZM9.99984 13.417C9.23984 13.417 8.53306 13.1659 7.94645 12.7311L7.05322 13.9362C7.88391 14.5519 8.90077 14.917 9.99984 14.917V13.417ZM12.0532 12.7311C11.4666 13.1659 10.7598 13.417 9.99984 13.417V14.917C11.0989 14.917 12.1158 14.5519 12.9465 13.9362L12.0532 12.7311ZM11.6665 17.5837H8.33317V19.0837H11.6665V17.5837ZM5.29869 4.89435L6.96536 3.85997L6.17437 2.58547L4.5077 3.61985L5.29869 4.89435ZM13.0343 3.85996L14.701 4.89434L15.492 3.61985L13.8253 2.58547L13.0343 3.85996ZM2.4165 11.4378V10.1703H0.916504V11.4378H2.4165ZM17.5832 10.1703V11.4378H19.0832V10.1703H17.5832ZM6.96536 3.85997C7.81401 3.33327 8.40288 2.96888 8.89329 2.7304C9.36834 2.49939 9.69235 2.41699 9.99984 2.41699V0.916992C9.38405 0.916992 8.82864 1.09388 8.2373 1.38145C7.66132 1.66154 6.99685 2.07502 6.17437 2.58547L6.96536 3.85997ZM13.8253 2.58547C13.0028 2.07501 12.3384 1.66154 11.7624 1.38145C11.171 1.09388 10.6156 0.916992 9.99984 0.916992V2.41699C10.3073 2.41699 10.6313 2.49939 11.1064 2.7304C11.5968 2.96888 12.1857 3.33327 13.0343 3.85996L13.8253 2.58547ZM8.33317 17.5837C6.73991 17.5837 5.62297 17.582 4.77891 17.4646C3.95909 17.3506 3.50875 17.1404 3.18203 16.8025L2.1036 17.8451C2.75319 18.517 3.57668 18.8118 4.57229 18.9503C5.54365 19.0854 6.78373 19.0837 8.33317 19.0837V17.5837ZM0.916504 11.4378C0.916504 13.0426 0.915013 14.3193 1.0448 15.3178C1.17706 16.3353 1.45743 17.1767 2.1036 17.8451L3.18203 16.8025C2.85188 16.461 2.6441 15.9847 2.53229 15.1244C2.41799 14.2451 2.4165 13.0837 2.4165 11.4378H0.916504ZM11.6665 19.0837C13.2159 19.0837 14.456 19.0854 15.4274 18.9503C16.423 18.8118 17.2465 18.517 17.8961 17.8451L16.8176 16.8025C16.4909 17.1404 16.0406 17.3506 15.2208 17.4646C14.3767 17.582 13.2598 17.5837 11.6665 17.5837V19.0837ZM17.5832 11.4378C17.5832 13.0837 17.5817 14.2451 17.4674 15.1244C17.3556 15.9847 17.1478 16.461 16.8176 16.8025L17.8961 17.8451C18.5422 17.1767 18.8226 16.3353 18.9549 15.3178C19.0847 14.3193 19.0832 13.0426 19.0832 11.4378H17.5832ZM14.701 4.89434C15.5037 5.39255 16.0598 5.73862 16.4731 6.05515C16.8728 6.36127 17.0933 6.60664 17.2426 6.87939L18.5584 6.15917C18.275 5.64147 17.884 5.24632 17.3851 4.86426C16.8998 4.4926 16.2701 4.1028 15.492 3.61985L14.701 4.89434ZM4.5077 3.61985C3.72954 4.1028 3.09989 4.4926 2.61459 4.86426C2.1157 5.24632 1.72465 5.64147 1.44128 6.15917L2.75706 6.87939C2.90636 6.60664 3.12687 6.36127 3.5266 6.05515C3.93992 5.73862 4.49595 5.39255 5.29869 4.89435L4.5077 3.61985ZM2.4165 10.1703C2.4165 9.20286 2.41727 8.52866 2.4673 7.99622C2.5159 7.47894 2.60708 7.15338 2.75706 6.87939L1.44128 6.15917C1.15859 6.67561 1.03344 7.22203 0.973877 7.85589C0.915741 8.47457 0.916504 9.23063 0.916504 10.1703H2.4165Z" fill="#2E3A59"/>
</g>
<defs>
<clipPath id="clip0_887_41771">
<rect width="20" height="20" fill="white"/>
</clipPath>
</defs>
</svg>
