<svg viewBox="0 0 20 20" fill="none" xmlns="http://www.w3.org/2000/svg">
<g clip-path="url(#clip0_887_41780)">
<path d="M18.3333 10.0004C18.3333 10.9899 17.5312 11.7921 16.5417 11.7921C15.5522 11.7921 14.75 10.9899 14.75 10.0004C14.75 9.0109 15.5522 8.20874 16.5417 8.20874C17.5312 8.20874 18.3333 9.0109 18.3333 10.0004Z" fill="#2E3A59"/>
<path d="M8.76463 4.7827L8.2343 5.31303L8.2343 5.31303L8.76463 4.7827ZM11.991 8.00912L12.5214 7.47879L11.991 8.00912ZM15.2175 11.2355L15.7478 10.7052L15.2175 11.2355ZM8.76463 2.20156L8.2343 1.67123L8.2343 1.67123L8.76463 2.20156ZM11.3458 2.20156L10.8154 2.7319L10.817 2.73349L11.3458 2.20156ZM17.7986 8.6544L17.2662 9.18266L17.2683 9.18473L17.7986 8.6544ZM1.13617 17.8033C0.843281 18.0962 0.843281 18.5711 1.13617 18.864C1.42907 19.1569 1.90394 19.1569 2.19683 18.864L1.13617 17.8033ZM3.79339 16.2068L4.32372 16.7371L4.32372 16.7371L3.79339 16.2068ZM3.97233 15.1713L3.29453 15.4924L3.97233 15.1713ZM3.18129 13.5013L2.50349 13.8224L2.50349 13.8224L3.18129 13.5013ZM6.02127 8.50223L6.45012 7.88693L6.45012 7.88693L6.02127 8.50223ZM10.6444 11.7244L10.2156 12.3397H10.2156L10.6444 11.7244ZM11.2939 11.1109L10.6552 11.504V11.504L11.2939 11.1109ZM10.7556 10.2362L11.3944 9.84313L10.7556 10.2362ZM5.38604 9.13747L6.00134 8.70862L5.38604 9.13747ZM9.4275 16.4702L9.82955 15.8371L9.4275 16.4702ZM10.0464 15.8241L9.43114 16.253L10.0464 15.8241ZM3.83826 12.9208L3.4362 13.554L3.4362 13.554L3.83826 12.9208ZM10.0876 14.5715C9.85073 14.2317 9.38325 14.1482 9.04343 14.385C8.70361 14.6219 8.62013 15.0894 8.85697 15.4292L10.0876 14.5715ZM7.10094 12.9096C7.33778 13.2495 7.80526 13.3329 8.14508 13.0961C8.4849 12.8593 8.56838 12.3918 8.33154 12.052L7.10094 12.9096ZM15.5322 5.30541C15.2405 5.01137 14.7656 5.00951 14.4716 5.30126C14.1775 5.593 14.1757 6.06787 14.4674 6.36191L15.5322 5.30541ZM11.9711 3.88062C12.2649 4.17263 12.7398 4.1712 13.0318 3.87742C13.3238 3.58365 13.3223 3.10878 13.0286 2.81677L11.9711 3.88062ZM17.5833 10.0004C17.5833 10.5757 17.117 11.0421 16.5417 11.0421V12.5421C17.9454 12.5421 19.0833 11.4041 19.0833 10.0004H17.5833ZM16.5417 11.0421C15.9664 11.0421 15.5 10.5757 15.5 10.0004H14C14 11.4041 15.1379 12.5421 16.5417 12.5421V11.0421ZM15.5 10.0004C15.5 9.42511 15.9664 8.95874 16.5417 8.95874V7.45874C15.1379 7.45874 14 8.59669 14 10.0004H15.5ZM16.5417 8.95874C17.117 8.95874 17.5833 9.42511 17.5833 10.0004H19.0833C19.0833 8.59669 17.9454 7.45874 16.5417 7.45874V8.95874ZM8.2343 5.31303L11.4607 8.53945L12.5214 7.47879L9.29496 4.25237L8.2343 5.31303ZM11.4607 8.53945L14.6871 11.7659L15.7478 10.7052L12.5214 7.47879L11.4607 8.53945ZM14.6871 11.7659C15.6928 12.7715 17.3233 12.7715 18.3289 11.7659L17.2683 10.7052C16.8484 11.1251 16.1677 11.1251 15.7478 10.7052L14.6871 11.7659ZM8.2343 1.67123C7.22864 2.67689 7.22864 4.30737 8.2343 5.31303L9.29496 4.25237C8.87509 3.8325 8.87509 3.15176 9.29496 2.73189L8.2343 1.67123ZM11.8761 1.67123C10.8704 0.665579 9.23995 0.665579 8.2343 1.67123L9.29496 2.73189C9.71482 2.31203 10.3956 2.31203 10.8154 2.73189L11.8761 1.67123ZM17.2683 9.18473C17.6881 9.6046 17.6881 10.2853 17.2683 10.7052L18.3289 11.7659C19.3346 10.7602 19.3346 9.12973 18.3289 8.12407L17.2683 9.18473ZM2.19683 18.864L4.32372 16.7371L3.26306 15.6764L1.13617 17.8033L2.19683 18.864ZM4.65014 14.8503L3.8591 13.1803L2.50349 13.8224L3.29453 15.4924L4.65014 14.8503ZM5.59243 9.11753L10.2156 12.3397L11.0733 11.1091L6.45012 7.88693L5.59243 9.11753ZM11.9327 10.7179L11.3944 9.84313L10.1169 10.6293L10.6552 11.504L11.9327 10.7179ZM11.4178 9.64297L12.5214 8.53945L11.4607 7.47879L10.3572 8.58231L11.4178 9.64297ZM11.3944 9.84313C11.3549 9.77902 11.3646 9.6962 11.4178 9.64297L10.3572 8.58231C9.81281 9.12669 9.71338 9.97361 10.1169 10.6293L11.3944 9.84313ZM10.2156 12.3397C11.2887 13.0877 12.6182 11.8319 11.9327 10.7179L10.6552 11.504C10.6252 11.4553 10.6057 11.3794 10.6197 11.2977C10.6322 11.2247 10.6669 11.1713 10.7036 11.1366C10.7404 11.1018 10.7958 11.0702 10.8693 11.0619C10.9517 11.0526 11.0263 11.0764 11.0733 11.1091L10.2156 12.3397ZM6.00134 8.70862C6.03396 8.75543 6.0585 8.83231 6.04739 8.9177C6.03756 8.99332 6.00367 9.04865 5.96806 9.08426C5.93245 9.11987 5.87713 9.15375 5.80151 9.16359C5.71612 9.17469 5.63923 9.15015 5.59243 9.11753L6.45012 7.88693C5.34536 7.11695 4.00075 8.46155 4.77074 9.56631L6.00134 8.70862ZM9.02544 17.1033C10.1376 17.8096 11.4151 16.4762 10.6617 15.3953L9.43114 16.253C9.39844 16.2061 9.37447 16.1309 9.38421 16.0478C9.3929 15.9737 9.42505 15.9183 9.46001 15.8818C9.49496 15.8454 9.5489 15.8109 9.62252 15.799C9.70513 15.7857 9.78127 15.8064 9.82955 15.8371L9.02544 17.1033ZM3.8591 13.1803C3.98516 13.4464 3.68478 13.7118 3.4362 13.554L4.24032 12.2877C3.21939 11.6394 1.98576 12.7294 2.50349 13.8224L3.8591 13.1803ZM4.32372 16.7371C4.82103 16.2398 4.95063 15.4846 4.65014 14.8503L3.29453 15.4924C3.32423 15.5551 3.31117 15.6283 3.26306 15.6764L4.32372 16.7371ZM10.6617 15.3953L10.0876 14.5715L8.85697 15.4292L9.43114 16.253L10.6617 15.3953ZM18.331 8.12615L15.5322 5.30541L14.4674 6.36191L17.2662 9.18265L18.331 8.12615ZM13.0286 2.81677L11.8745 1.66964L10.817 2.73349L11.9711 3.88062L13.0286 2.81677ZM3.4362 13.554L9.02544 17.1033L9.82955 15.8371L4.24032 12.2877L3.4362 13.554ZM8.33154 12.052L6.00134 8.70862L4.77074 9.56631L7.10094 12.9096L8.33154 12.052Z" fill="#2E3A59"/>
</g>
<defs>
<clipPath id="clip0_887_41780">
<rect width="20" height="20" fill="white"/>
</clipPath>
</defs>
</svg>
