<svg viewBox="0 0 20 20" fill="none" xmlns="http://www.w3.org/2000/svg">
<g clip-path="url(#clip0_887_44442)">
<path d="M18.8682 20.6027L18.8682 20.6053C18.8685 20.7445 18.8414 20.8825 18.7884 21.0112C18.7353 21.14 18.6574 21.257 18.5591 21.3556C18.4607 21.4542 18.3439 21.5324 18.2153 21.5858C18.0867 21.6392 17.9488 21.6667 17.8095 21.6667H14.9985C14.9956 21.6667 14.9897 21.6671 14.9727 21.658C14.9519 21.6469 14.914 21.6203 14.8675 21.5647C14.7682 21.446 14.6857 21.261 14.6598 21.0733C14.5703 20.4242 14.3263 19.8061 13.9483 19.271C13.5703 18.7358 13.0693 18.2992 12.4875 17.9978C11.9057 17.6964 11.2601 17.5391 10.6048 17.5391C9.94962 17.5391 9.30397 17.6964 8.72217 17.9978C8.14037 18.2992 7.63941 18.7358 7.2614 19.271C6.88339 19.8061 6.63938 20.4242 6.54987 21.0733C6.52399 21.261 6.44143 21.446 6.3422 21.5647C6.29572 21.6203 6.25773 21.6469 6.23698 21.658C6.22078 21.6667 6.21465 21.6667 6.21156 21.6667L6.21114 21.6667H3.39217C3.25291 21.6667 3.11502 21.6392 2.9864 21.5858C2.85778 21.5324 2.74095 21.4542 2.6426 21.3556C2.54426 21.257 2.46634 21.14 2.4133 21.0112C2.36026 20.8825 2.33314 20.7445 2.3335 20.6053V20.6027V17.7973L2.3335 17.7969C2.33348 17.7938 2.33344 17.7877 2.34206 17.7715C2.35308 17.7509 2.37956 17.7131 2.43479 17.6667C2.55269 17.5678 2.73679 17.485 2.92423 17.4586C3.57054 17.3674 4.1856 17.1227 4.71795 16.7451C5.25029 16.3674 5.68443 15.8677 5.98403 15.2878C6.28363 14.7079 6.43997 14.0647 6.43997 13.412C6.43997 12.7593 6.28363 12.1161 5.98403 11.5362C5.68443 10.9563 5.25029 10.4566 4.71795 10.0789C4.1856 9.70126 3.57054 9.45659 2.92423 9.36541C2.73679 9.33896 2.55269 9.25623 2.43479 9.15728C2.37956 9.11092 2.35308 9.0731 2.34206 9.05246C2.33344 9.03633 2.33348 9.03023 2.3335 9.02713L2.3335 9.02672V6.20133C2.3335 5.92056 2.44504 5.65128 2.64358 5.45274C2.84212 5.2542 3.11139 5.14267 3.39217 5.14267H6.21199C6.94383 5.14267 7.51106 4.76116 7.87638 4.325C8.23697 3.89449 8.45879 3.35189 8.53215 2.82599C8.57835 2.49483 8.70336 2.17958 8.89668 1.90675C9.08999 1.63392 9.34596 1.41147 9.64309 1.25809C9.93724 1.10625 10.2632 1.0265 10.5942 1.02534C10.6573 1.02512 10.719 1.01915 10.7787 1.00795C11.051 1.03174 11.3165 1.10867 11.5602 1.23502C11.8572 1.38904 12.1129 1.61202 12.306 1.88525C12.4991 2.15848 12.6239 2.47402 12.6699 2.80541C12.743 3.33159 12.9647 3.87436 13.3253 4.30495C13.6906 4.74121 14.2579 5.12267 14.9896 5.12267H17.8095C17.9485 5.12267 18.0862 5.15005 18.2146 5.20325C18.3431 5.25646 18.4598 5.33444 18.5581 5.43274C18.6564 5.53105 18.7344 5.64776 18.7876 5.7762C18.8408 5.90464 18.8682 6.04231 18.8682 6.18133V8.99882C18.8682 9.73181 19.2511 10.2995 19.6883 10.6645C20.1198 11.0248 20.6638 11.246 21.1909 11.3179C21.5233 11.3632 21.8399 11.4878 22.114 11.681C22.3882 11.8742 22.6119 12.1305 22.7663 12.4283C22.9207 12.7261 23.0013 13.0566 23.0013 13.392C23.0013 13.7274 22.9207 14.0579 22.7663 14.3557C22.6119 14.6535 22.3882 14.9098 22.114 15.103C21.8399 15.2962 21.5233 15.4208 21.1909 15.4661C20.6638 15.538 20.1198 15.7592 19.6883 16.1195C19.2511 16.4845 18.8682 17.0522 18.8682 17.7852L18.8682 20.6027ZM10.6001 0.021071L10.599 0.999999C10.5973 0.999997 10.5957 0.999991 10.5941 0.999982C10.1151 0.997095 9.70668 0.654504 9.61886 0.185755C9.66115 0.171568 9.70373 0.158303 9.74657 0.145968C9.77431 0.13798 9.80215 0.130382 9.8301 0.123176C10.0208 0.074012 10.2161 0.0430934 10.4134 0.0310603C10.4422 0.0293045 10.471 0.0279508 10.4999 0.0270012C10.5301 0.0260065 10.5604 0.0254552 10.5907 0.0253495C10.5945 0.0253362 10.5978 0.0236694 10.6001 0.021071Z" stroke="#2E3A59" stroke-width="2"/>
</g>
<defs>
<clipPath id="clip0_887_44442">
<rect width="20" height="20" fill="white"/>
</clipPath>
</defs>
</svg>
