<svg viewBox="0 0 20 20" fill="none" xmlns="http://www.w3.org/2000/svg">
<g clip-path="url(#clip0_887_43033)">
<path d="M10.3332 12.9333C10.3332 13.1174 10.1839 13.2667 9.99984 13.2667C9.81574 13.2667 9.6665 13.1174 9.6665 12.9333C9.6665 12.7493 9.81574 12.6 9.99984 12.6C10.1839 12.6 10.3332 12.7493 10.3332 12.9333Z" fill="#2E3A59"/>
<path d="M8.43734 7.39616C8.43734 6.53321 9.13689 5.83366 9.99984 5.83366C10.8628 5.83366 11.5623 6.53321 11.5623 7.39616C11.5623 7.96903 11.254 8.46989 10.7943 8.74189C10.3982 8.97624 9.99984 9.33176 9.99984 9.79199V10.8337M5.83317 2.78184C7.05889 2.0728 8.48197 1.66699 9.99984 1.66699C14.6022 1.66699 18.3332 5.39795 18.3332 10.0003C18.3332 14.6027 14.6022 18.3337 9.99984 18.3337C5.39746 18.3337 1.6665 14.6027 1.6665 10.0003C1.6665 8.48246 2.07231 7.05938 2.78136 5.83366M10.3332 12.9333C10.3332 13.1174 10.1839 13.2667 9.99984 13.2667C9.81574 13.2667 9.6665 13.1174 9.6665 12.9333C9.6665 12.7493 9.81574 12.6 9.99984 12.6C10.1839 12.6 10.3332 12.7493 10.3332 12.9333Z" stroke="#2E3A59" stroke-width="1.5" stroke-linecap="round"/>
</g>
<defs>
<clipPath id="clip0_887_43033">
<rect width="20" height="20" fill="white"/>
</clipPath>
</defs>
</svg>
