<svg viewBox="0 0 20 20" fill="none" xmlns="http://www.w3.org/2000/svg">
<path d="M17.3569 15.69L16.8265 15.1597L16.8265 15.1597L17.3569 15.69ZM11.6665 15.9163C11.2523 15.9163 10.9165 16.2521 10.9165 16.6663C10.9165 17.0806 11.2523 17.4163 11.6665 17.4163V15.9163ZM17.3569 4.30932L16.8265 4.83965L16.8265 4.83965L17.3569 4.30932ZM4.67311 3.34906L4.5996 2.60267L4.67311 3.34906ZM0.916504 7.08301C0.916504 7.49722 1.25229 7.83301 1.6665 7.83301C2.08072 7.83301 2.4165 7.49722 2.4165 7.08301H0.916504ZM1.68255 6.33962L0.936166 6.2661L1.68255 6.33962ZM19.0824 9.16414C19.0812 8.74993 18.7444 8.41513 18.3302 8.41634C17.916 8.41756 17.5812 8.75433 17.5824 9.16854L19.0824 9.16414ZM17.3903 5.99253C17.4784 6.39727 17.8779 6.65395 18.2827 6.56585C18.6874 6.47775 18.9441 6.07822 18.856 5.67349L17.3903 5.99253ZM1.6665 8.41634C1.25229 8.41634 0.916504 8.75213 0.916504 9.16634C0.916504 9.58055 1.25229 9.91634 1.6665 9.91634V8.41634ZM8.4165 16.6663C8.4165 17.0806 8.75229 17.4163 9.1665 17.4163C9.58072 17.4163 9.9165 17.0806 9.9165 16.6663H8.4165ZM1.6665 10.9163C1.25229 10.9163 0.916504 11.2521 0.916504 11.6663C0.916504 12.0806 1.25229 12.4163 1.6665 12.4163V10.9163ZM5.9165 16.6663C5.9165 17.0806 6.25229 17.4163 6.6665 17.4163C7.08072 17.4163 7.4165 17.0806 7.4165 16.6663H5.9165ZM1.6665 13.4163C1.25229 13.4163 0.916504 13.7521 0.916504 14.1663C0.916504 14.5806 1.25229 14.9163 1.6665 14.9163V13.4163ZM3.4165 16.6663C3.4165 17.0806 3.75229 17.4163 4.1665 17.4163C4.58072 17.4163 4.9165 17.0806 4.9165 16.6663H3.4165ZM5.4165 4.08301H11.6665V2.58301H5.4165V4.08301ZM17.5832 9.99967C17.5832 11.5922 17.5816 12.7112 17.4678 13.5573C17.357 14.3819 17.1521 14.8341 16.8265 15.1597L17.8872 16.2204C18.5379 15.5696 18.8212 14.7481 18.9544 13.7572C19.0848 12.7879 19.0832 11.5498 19.0832 9.99967H17.5832ZM11.6665 17.4163C13.2167 17.4163 14.4547 17.4179 15.424 17.2876C16.4149 17.1544 17.2365 16.8711 17.8872 16.2204L16.8265 15.1597C16.501 15.4853 16.0487 15.6901 15.2241 15.801C14.378 15.9147 13.2591 15.9163 11.6665 15.9163V17.4163ZM11.6665 4.08301C13.2591 4.08301 14.378 4.0846 15.2241 4.19836C16.0487 4.30922 16.501 4.51407 16.8265 4.83965L17.8872 3.77899C17.2365 3.12826 16.4149 2.84495 15.424 2.71173C14.4547 2.58141 13.2167 2.58301 11.6665 2.58301V4.08301ZM5.4165 2.58301C5.0474 2.58301 4.80848 2.5821 4.5996 2.60267L4.74663 4.09545C4.86368 4.08392 5.01171 4.08301 5.4165 4.08301V2.58301ZM2.4165 7.08301C2.4165 6.67821 2.41741 6.53019 2.42894 6.41313L0.936166 6.2661C0.915594 6.47498 0.916504 6.71391 0.916504 7.08301H2.4165ZM4.5996 2.60267C2.66093 2.79361 1.12711 4.32743 0.936166 6.2661L2.42894 6.41313C2.54974 5.18662 3.52012 4.21625 4.74663 4.09545L4.5996 2.60267ZM19.0832 9.99967C19.0832 9.70892 19.0832 9.43026 19.0824 9.16414L17.5824 9.16854C17.5832 9.43206 17.5832 9.70845 17.5832 9.99967H19.0832ZM18.856 5.67349C18.6939 4.92884 18.4064 4.29817 17.8872 3.77899L16.8265 4.83965C17.09 5.10314 17.2714 5.44635 17.3903 5.99253L18.856 5.67349ZM1.6665 9.91634C5.39443 9.91634 8.4165 12.9384 8.4165 16.6663H9.9165C9.9165 12.11 6.22285 8.41634 1.6665 8.41634V9.91634ZM1.6665 12.4163C4.01371 12.4163 5.9165 14.3191 5.9165 16.6663H7.4165C7.4165 13.4907 4.84214 10.9163 1.6665 10.9163V12.4163ZM1.6665 14.9163C2.633 14.9163 3.4165 15.6998 3.4165 16.6663H4.9165C4.9165 14.8714 3.46143 13.4163 1.6665 13.4163V14.9163Z" fill="#2E3A59"/>
</svg>
