<svg viewBox="0 0 20 22" fill="none" xmlns="http://www.w3.org/2000/svg">
<path d="M4.34841 8.77223C3.94656 8.67177 3.53936 8.91609 3.4389 9.31794C3.33844 9.71978 3.58276 10.127 3.9846 10.2274L4.34841 8.77223ZM7.31794 11.0608C7.71978 11.1612 8.12698 10.9169 8.22744 10.5151C8.32791 10.1132 8.08359 9.70602 7.68174 9.60556L7.31794 11.0608ZM4.34841 12.1056C3.94656 12.0051 3.53936 12.2494 3.4389 12.6513C3.33844 13.0531 3.58276 13.4603 3.9846 13.5608L4.34841 12.1056ZM7.31794 14.3941C7.71978 14.4946 8.12698 14.2503 8.22744 13.8484C8.32791 13.4466 8.08359 13.0394 7.68174 12.9389L7.31794 14.3941ZM16.0151 13.5608C16.4169 13.4603 16.6612 13.0531 16.5608 12.6513C16.4603 12.2494 16.0531 12.0051 15.6513 12.1056L16.0151 13.5608ZM12.3179 12.9389C11.9161 13.0394 11.6718 13.4466 11.7722 13.8484C11.8727 14.2503 12.2799 14.4946 12.6817 14.3941L12.3179 12.9389ZM16.5832 6.58317C16.5832 6.16896 16.2474 5.83317 15.8332 5.83317C15.419 5.83317 15.0832 6.16896 15.0832 6.58317H16.5832ZM13.2498 7.79152C13.2498 7.37731 12.9141 7.04152 12.4998 7.04152C12.0856 7.04152 11.7498 7.37731 11.7498 7.79152H13.2498ZM15.3508 10.2083L15.029 10.8858L15.029 10.8858L15.3508 10.2083ZM14.3156 9.7166L14.6374 9.03914L14.6374 9.03914L14.3156 9.7166ZM14.0174 9.7166L13.6956 9.03914L13.6956 9.03914L14.0174 9.7166ZM12.9822 10.2083L13.304 10.8858L12.9822 10.2083ZM12.5789 10.316L12.1991 10.9627L12.1991 10.9627L12.5789 10.316ZM15.7541 10.316L15.3744 9.66921L15.3744 9.66921L15.7541 10.316ZM9.24984 18.9075C9.24984 19.3217 9.58562 19.6575 9.99984 19.6575C10.4141 19.6575 10.7498 19.3217 10.7498 18.9075H9.24984ZM16.7348 4.51463L16.7609 5.26417L16.7348 4.51463ZM13.7498 4.90604L13.9649 5.62453L13.7498 4.90604ZM11.3947 6.00213L11.019 5.353V5.353L11.3947 6.00213ZM3.31851 4.56224L3.2725 5.31083L3.31851 4.56224ZM5.83317 4.90604L6.02453 4.18086V4.18086L5.83317 4.90604ZM8.56838 6.06272L8.91897 5.3997L8.91897 5.3997L8.56838 6.06272ZM11.3562 18.7242L11.0034 18.0624L11.3562 18.7242ZM14.1665 17.5276L13.9751 16.8025H13.9751L14.1665 17.5276ZM16.6541 17.1855L16.6073 16.437L16.6541 17.1855ZM8.64352 18.7242L8.29072 19.386L8.64352 18.7242ZM5.83317 17.5276L6.02453 16.8025H6.02453L5.83317 17.5276ZM3.34555 17.1855L3.39237 16.437H3.39237L3.34555 17.1855ZM19.0832 10.7818C19.0832 10.3676 18.7474 10.0318 18.3332 10.0318C17.919 10.0318 17.5832 10.3676 17.5832 10.7818H19.0832ZM17.5832 7.83317C17.5832 8.24738 17.919 8.58317 18.3332 8.58317C18.7474 8.58317 19.0832 8.24738 19.0832 7.83317H17.5832ZM0.916504 10.8087C0.916504 11.223 1.25229 11.5587 1.6665 11.5587C2.08072 11.5587 2.4165 11.223 2.4165 10.8087H0.916504ZM2.4165 13.6665C2.4165 13.2523 2.08072 12.9165 1.6665 12.9165C1.25229 12.9165 0.916504 13.2523 0.916504 13.6665H2.4165ZM3.9846 10.2274L7.31794 11.0608L7.68174 9.60556L4.34841 8.77223L3.9846 10.2274ZM3.9846 13.5608L7.31794 14.3941L7.68174 12.9389L4.34841 12.1056L3.9846 13.5608ZM15.6513 12.1056L12.3179 12.9389L12.6817 14.3941L16.0151 13.5608L15.6513 12.1056ZM15.0832 6.58317V9.92508H16.5832V6.58317H15.0832ZM13.2498 9.92508V7.79152H11.7498V9.92508H13.2498ZM15.6726 9.53087L14.6374 9.03914L13.9938 10.3941L15.029 10.8858L15.6726 9.53087ZM13.6956 9.03914L12.6604 9.53087L13.304 10.8858L14.3392 10.3941L13.6956 9.03914ZM14.6374 9.03914C14.6278 9.0346 14.4143 8.91448 14.1665 8.91448V10.4145C14.0662 10.4145 13.9925 10.39 13.9654 10.3799C13.9541 10.3757 13.9493 10.3732 13.9566 10.3765C13.964 10.3799 13.9739 10.3846 13.9938 10.3941L14.6374 9.03914ZM14.3392 10.3941C14.3591 10.3846 14.369 10.3799 14.3765 10.3765C14.3837 10.3732 14.3789 10.3757 14.3676 10.3799C14.3405 10.39 14.2668 10.4145 14.1665 10.4145V8.91448C13.9187 8.91448 13.7052 9.0346 13.6956 9.03914L14.3392 10.3941ZM11.7498 9.92508C11.7498 10.0135 11.7476 10.1702 11.7687 10.3051C11.7928 10.4588 11.8744 10.772 12.1991 10.9627L12.9586 9.66921C13.0662 9.7324 13.1457 9.8221 13.1952 9.91516C13.2381 9.99568 13.2486 10.06 13.2507 10.0734C13.253 10.0882 13.2517 10.0876 13.2508 10.0554C13.2499 10.0243 13.2498 9.98568 13.2498 9.92508H11.7498ZM12.6604 9.53087C12.6038 9.5578 12.566 9.57565 12.535 9.58943C12.503 9.60363 12.4975 9.60468 12.5065 9.60187C12.514 9.59953 12.5675 9.58282 12.6481 9.58318C12.741 9.58358 12.852 9.60663 12.9586 9.66921L12.1991 10.9627C12.5116 11.1462 12.8156 11.0766 12.9518 11.0343C13.0791 10.9947 13.2176 10.9268 13.304 10.8858L12.6604 9.53087ZM15.0832 9.92508C15.0832 9.98568 15.0831 10.0243 15.0822 10.0554C15.0813 10.0876 15.08 10.0882 15.0823 10.0734C15.0844 10.06 15.0949 9.99568 15.1378 9.91516C15.1873 9.82209 15.2668 9.73239 15.3744 9.66921L16.1339 10.9627C16.4586 10.772 16.5403 10.4588 16.5643 10.3051C16.5854 10.1702 16.5832 10.0135 16.5832 9.92508H15.0832ZM15.029 10.8858C15.1154 10.9268 15.2539 10.9947 15.3812 11.0343C15.5174 11.0766 15.8214 11.1462 16.1339 10.9627L15.3744 9.66921C15.481 9.60663 15.592 9.58358 15.6849 9.58318C15.7655 9.58282 15.819 9.59953 15.8265 9.60187C15.8356 9.60468 15.83 9.60363 15.798 9.58943C15.767 9.57565 15.7293 9.5578 15.6726 9.53087L15.029 10.8858ZM9.24984 6.87817V18.9075H10.7498V6.87817H9.24984ZM16.7087 3.76508C15.7585 3.79818 14.5049 3.8971 13.5347 4.18755L13.9649 5.62453C14.7396 5.39262 15.8302 5.29659 16.7609 5.26417L16.7087 3.76508ZM13.5347 4.18755C12.691 4.44015 11.7479 4.93115 11.019 5.353L11.7704 6.65126C12.4773 6.24216 13.296 5.8248 13.9649 5.62453L13.5347 4.18755ZM3.2725 5.31083C4.07575 5.3602 4.97735 5.45588 5.64181 5.63122L6.02453 4.18086C5.21147 3.96631 4.18854 3.8643 3.36451 3.81366L3.2725 5.31083ZM5.64181 5.63122C6.42906 5.83896 7.40534 6.29613 8.21779 6.72573L8.91897 5.3997C8.08785 4.96023 6.98596 4.43457 6.02453 4.18086L5.64181 5.63122ZM11.709 19.386C12.5334 18.9466 13.5455 18.4672 14.3579 18.2528L13.9751 16.8025C12.985 17.0637 11.8447 17.6139 11.0034 18.0624L11.709 19.386ZM14.3579 18.2528C15.0147 18.0795 15.9038 17.9839 16.7009 17.9341L16.6073 16.437C15.7888 16.4882 14.7795 16.5902 13.9751 16.8025L14.3579 18.2528ZM8.99632 18.0624C8.15495 17.6139 7.01463 17.0637 6.02453 16.8025L5.64181 18.2528C6.45413 18.4672 7.46628 18.9466 8.29072 19.386L8.99632 18.0624ZM6.02453 16.8025C5.22021 16.5902 4.21088 16.4882 3.39237 16.437L3.29874 17.9341C4.09592 17.9839 4.98495 18.0795 5.64181 18.2528L6.02453 16.8025ZM17.5832 15.4528C17.5832 15.9534 17.1659 16.402 16.6073 16.437L16.7009 17.9341C17.9904 17.8534 19.0832 16.8039 19.0832 15.4528H17.5832ZM19.0832 6.11083C19.0832 4.82627 18.0589 3.71805 16.7087 3.76508L16.7609 5.26417C17.1971 5.24898 17.5832 5.60798 17.5832 6.11083H19.0832ZM0.916504 15.4528C0.916504 16.8039 2.00928 17.8534 3.29874 17.9341L3.39237 16.437C2.8338 16.402 2.4165 15.9534 2.4165 15.4528H0.916504ZM11.0034 18.0624C10.3799 18.3947 9.6198 18.3947 8.99632 18.0624L8.29072 19.386C9.35523 19.9535 10.6445 19.9535 11.709 19.386L11.0034 18.0624ZM11.019 5.353C10.374 5.72631 9.57103 5.7445 8.91897 5.3997L8.21779 6.72573C9.33327 7.31557 10.6849 7.27947 11.7704 6.65126L11.019 5.353ZM2.4165 6.16467C2.4165 5.65052 2.82122 5.2831 3.2725 5.31083L3.36451 3.81366C1.98896 3.72912 0.916504 4.84854 0.916504 6.16467H2.4165ZM19.0832 15.4528V10.7818H17.5832V15.4528H19.0832ZM19.0832 7.83317V6.11083H17.5832V7.83317H19.0832ZM2.4165 10.8087V6.16467H0.916504V10.8087H2.4165ZM2.4165 15.4528V13.6665H0.916504V15.4528H2.4165Z" fill="white"/>
</svg>
