<svg viewBox="0 0 20 20" fill="none" xmlns="http://www.w3.org/2000/svg">
<path d="M12.4998 7.50033C13.8805 7.50033 14.9998 6.38104 14.9998 5.00033C14.9998 3.61961 13.8805 2.50033 12.4998 2.50033M4.90746 17.1539C5.6884 17.3756 6.56864 17.5003 7.49984 17.5003C10.7215 17.5003 13.3332 16.0079 13.3332 14.167C13.3332 12.326 10.7215 10.8337 7.49984 10.8337C4.27818 10.8337 1.6665 12.326 1.6665 14.167C1.6665 14.4547 1.73031 14.734 1.85028 15.0003M14.9998 11.667C16.4617 11.9876 17.4998 12.7994 17.4998 13.7503C17.4998 14.6081 16.6551 15.3528 15.4165 15.7257M10.8332 5.00033C10.8332 6.84127 9.34079 8.33366 7.49984 8.33366C5.65889 8.33366 4.1665 6.84127 4.1665 5.00033C4.1665 3.15938 5.65889 1.66699 7.49984 1.66699C9.34079 1.66699 10.8332 3.15938 10.8332 5.00033Z" stroke="#2E3A59" stroke-width="1.5" stroke-linecap="round"/>
</svg>
