<svg viewBox="0 0 14 14" fill="none" xmlns="http://www.w3.org/2000/svg">
<path d="M6.89001 3.91462C7.48112 2.85424 7.77667 2.32405 8.21854 2.32405C8.6604 2.32405 8.95596 2.85424 9.54706 3.91462L9.69998 4.18895C9.86796 4.49028 9.95194 4.64095 10.0829 4.74036C10.2138 4.83976 10.3769 4.87667 10.7031 4.95047L11.0001 5.01766C12.1479 5.27737 12.7219 5.40723 12.8584 5.84632C12.995 6.28541 12.6037 6.74295 11.8212 7.65801L11.6187 7.89475C11.3963 8.15478 11.2852 8.2848 11.2351 8.44565C11.1851 8.60649 11.2019 8.77996 11.2355 9.1269L11.2662 9.44276C11.3845 10.6637 11.4436 11.2741 11.0861 11.5455C10.7287 11.8169 10.1913 11.5694 9.11656 11.0746L8.83851 10.9466C8.5331 10.806 8.3804 10.7356 8.21854 10.7356C8.05667 10.7356 7.90397 10.806 7.59856 10.9466L7.32052 11.0746C6.24578 11.5694 5.70842 11.8169 5.35094 11.5455C4.99346 11.2741 5.05261 10.6637 5.17092 9.44276L5.20153 9.1269C5.23515 8.77996 5.25196 8.60649 5.20194 8.44565C5.15192 8.2848 5.04073 8.15478 4.81836 7.89475L4.61591 7.65801C3.83339 6.74295 3.44212 6.28541 3.57867 5.84632C3.71521 5.40723 4.28914 5.27737 5.43699 5.01766L5.73395 4.95047C6.06013 4.87667 6.22322 4.83976 6.35418 4.74036C6.48513 4.64095 6.56911 4.49028 6.73709 4.18895L6.89001 3.91462Z" />
<path fill-rule="evenodd" clip-rule="evenodd" d="M5.10149 3.02538C3.94555 2.69228 2.70558 2.86822 1.50921 3.56885L1.38779 3.63996C1.17928 3.76206 0.911275 3.69203 0.789171 3.48352C0.667066 3.27502 0.737105 3.00701 0.945607 2.88491L1.06703 2.8138C2.44395 2.00744 3.92989 1.77716 5.34378 2.18459L5.46504 2.21954C5.69722 2.28644 5.8312 2.5289 5.76429 2.76107C5.69739 2.99325 5.45493 3.12723 5.22276 3.06032L5.10149 3.02538ZM2.82112 5.78691C2.84163 6.02766 2.66309 6.23946 2.42234 6.25997C2.33299 6.26758 2.2645 6.27193 2.20709 6.27557C2.10362 6.28214 2.0362 6.28641 1.94772 6.3034C1.8331 6.3254 1.68428 6.37198 1.41419 6.50702C1.19808 6.61508 0.935282 6.52748 0.827224 6.31137C0.719166 6.09525 0.806764 5.83246 1.02288 5.7244C1.33613 5.56778 1.56348 5.48618 1.78278 5.44408C1.92681 5.41644 2.07548 5.40675 2.20918 5.39805C2.25777 5.39488 2.30438 5.39185 2.34807 5.38812C2.58882 5.36761 2.80061 5.54616 2.82112 5.78691ZM3.45205 9.24002C2.76141 9.07818 2.03377 9.23869 1.4893 9.66769C1.29951 9.81723 1.02443 9.7846 0.874892 9.59481C0.725351 9.40502 0.757979 9.12994 0.947768 8.9804C1.70482 8.3839 2.70611 8.16652 3.65168 8.3881C3.88694 8.44322 4.03296 8.67862 3.97783 8.91387C3.9227 9.14913 3.68731 9.29515 3.45205 9.24002Z" />
</svg>
