<svg viewBox="0 0 108 36" fill="none" xmlns="http://www.w3.org/2000/svg">
<g opacity="0.5">
<path d="M17.6624 4.26234C17.6624 4.26234 25.8082 3.73 30.3004 11.8054L17.1329 12.0797C17.1329 12.0797 14.6442 12.0499 12.5876 15.1016C12.0023 16.3745 11.3778 17.6888 12.1651 20.2332C11.0678 18.4674 6.3357 10.6375 6.3357 10.6375C6.3357 10.6375 9.43453 4.75904 17.6624 4.26234Z" fill="#EA4335"/>
<path d="M30.1502 24.7511C30.1502 24.7511 26.5416 32.051 17.279 31.8889L23.6242 20.3845C23.6242 20.3845 24.8943 18.2511 23.2728 14.9488C22.4597 13.8075 21.6309 12.6109 19.0262 12.0177C21.1092 11.954 30.2765 11.7833 30.2765 11.7833C30.2765 11.7833 33.8334 17.3997 30.1502 24.7511Z" fill="#FBBC05"/>
<path d="M6.10775 25.3072C6.10775 25.3072 1.57041 18.5393 6.34506 10.6243L13.1648 21.8565C13.1648 21.8565 14.3826 24.0197 18.0619 24.2707C19.4597 24.1396 20.9137 24.0212 22.7318 22.0706C21.7447 23.9007 17.3071 31.9004 17.3071 31.9004C17.3071 31.9004 10.6507 32.1629 6.10775 25.3072Z" fill="#34A853"/>
<path d="M11.7539 18.3134C11.7283 17.0969 12.0651 15.9002 12.7218 14.8745C13.3785 13.8488 14.3255 13.0403 15.4431 12.5512C16.5608 12.062 17.7988 11.9143 19.0006 12.1266C20.2025 12.339 21.3142 12.9018 22.1952 13.744C23.0761 14.5862 23.6868 15.6699 23.9499 16.8581C24.213 18.0462 24.1168 19.2855 23.6734 20.4192C23.23 21.5528 22.4593 22.53 21.4588 23.227C20.4584 23.924 19.273 24.3096 18.0527 24.335C16.4165 24.3691 14.8336 23.7538 13.6524 22.6246C12.4712 21.4953 11.7883 19.9446 11.7539 18.3134Z" fill="white"/>
<path d="M12.7851 18.2919C12.7637 17.2791 13.0441 16.2827 13.5907 15.4288C14.1374 14.5748 14.9257 13.9016 15.8561 13.4942C16.7865 13.0869 17.8172 12.9636 18.8178 13.1402C19.8184 13.3167 20.7441 13.785 21.4778 14.4859C22.2114 15.1869 22.7201 16.0889 22.9396 17.078C23.159 18.0672 23.0794 19.0989 22.7107 20.0429C22.342 20.9869 21.7008 21.8007 20.8681 22.3815C20.0355 22.9622 19.0489 23.2838 18.0329 23.3056C17.3581 23.32 16.687 23.2018 16.058 22.9577C15.429 22.7135 14.8544 22.3482 14.367 21.8826C13.8797 21.417 13.4892 20.8603 13.2177 20.2442C12.9463 19.6281 12.7993 18.9647 12.7851 18.2919Z" fill="#4285F4"/>
<path d="M43.8662 24.2773C42.9242 24.2773 42.0776 24.0552 41.3265 23.611C40.5753 23.1542 39.9897 22.5387 39.5696 21.7645C39.1495 20.9777 38.9395 20.0957 38.9395 19.1185C38.9395 18.1413 39.1495 17.2593 39.5696 16.4724C39.9897 15.6856 40.5753 15.0701 41.3265 14.6259C42.0776 14.1818 42.9242 13.9597 43.8662 13.9597C44.9229 13.9597 45.8077 14.2071 46.5206 14.7021C47.2462 15.1843 47.7618 15.8316 48.0674 16.6438L46.597 17.2529C46.3551 16.6565 45.9923 16.2059 45.5085 15.9014C45.0375 15.5841 44.4646 15.4255 43.7899 15.4255C43.217 15.4255 42.6823 15.5841 42.1858 15.9014C41.6893 16.2059 41.2883 16.6374 40.9827 17.1958C40.6899 17.7542 40.5435 18.3951 40.5435 19.1185C40.5435 19.8419 40.6899 20.4827 40.9827 21.0411C41.2883 21.5995 41.6893 22.0374 42.1858 22.3546C42.6823 22.6592 43.217 22.8115 43.7899 22.8115C44.4773 22.8115 45.0693 22.6529 45.5658 22.3356C46.0623 22.0183 46.4315 21.5678 46.6734 20.984L48.1247 21.5932C47.7937 22.3927 47.259 23.04 46.5206 23.5349C45.7949 24.0298 44.9102 24.2773 43.8662 24.2773Z" fill="#55585D"/>
<path d="M49.8796 10.3428H51.5027V14.3594L51.4263 15.692H51.5027C51.7701 15.197 52.1902 14.7846 52.7631 14.4546C53.3487 14.1246 53.9852 13.9597 54.6727 13.9597C55.8566 13.9597 56.7605 14.3087 57.3843 15.0067C58.0081 15.692 58.32 16.6057 58.32 17.7479V23.9727H56.6969V17.9953C56.6969 17.1197 56.4741 16.4724 56.0285 16.0536C55.5829 15.6349 55.0037 15.4255 54.2907 15.4255C53.7815 15.4255 53.3105 15.5777 52.8776 15.8823C52.4575 16.1869 52.1202 16.5803 51.8656 17.0626C51.6237 17.5448 51.5027 18.0461 51.5027 18.5664V23.9727H49.8796V10.3428Z" fill="#55585D"/>
<path d="M60.6584 14.2642H62.2052V15.8252H62.2816C62.4725 15.2922 62.8417 14.8544 63.3891 14.5117C63.9365 14.1564 64.5094 13.9787 65.1078 13.9787C65.5533 13.9787 65.9353 14.0422 66.2535 14.1691V15.9204C65.8462 15.7173 65.3878 15.6158 64.8786 15.6158C64.4076 15.6158 63.9747 15.7491 63.5801 16.0156C63.1854 16.2821 62.8672 16.6438 62.6253 17.1006C62.3961 17.5448 62.2816 18.0271 62.2816 18.5474V23.9727H60.6584V14.2642Z" fill="#55585D"/>
<path d="M71.7289 24.2773C70.7741 24.2773 69.9148 24.0489 69.1509 23.592C68.3871 23.1351 67.7887 22.5133 67.3559 21.7265C66.9358 20.9396 66.7257 20.0703 66.7257 19.1185C66.7257 18.1667 66.9358 17.2974 67.3559 16.5105C67.7887 15.7237 68.3871 15.1018 69.1509 14.645C69.9148 14.1881 70.7741 13.9597 71.7289 13.9597C72.6837 13.9597 73.543 14.1881 74.3069 14.645C75.0707 15.1018 75.6627 15.7237 76.0828 16.5105C76.5156 17.2974 76.7321 18.1667 76.7321 19.1185C76.7321 20.0703 76.5156 20.9396 76.0828 21.7265C75.6627 22.5133 75.0707 23.1351 74.3069 23.592C73.543 24.0489 72.6837 24.2773 71.7289 24.2773ZM71.7289 22.8115C72.3272 22.8115 72.881 22.6656 73.3902 22.3737C73.9122 22.0691 74.326 21.6376 74.6315 21.0792C74.9498 20.5208 75.1089 19.8672 75.1089 19.1185C75.1089 18.3697 74.9498 17.7161 74.6315 17.1578C74.326 16.5994 73.9122 16.1742 73.3902 15.8823C72.881 15.5777 72.3272 15.4255 71.7289 15.4255C71.1305 15.4255 70.5704 15.5777 70.0484 15.8823C69.5265 16.1742 69.1064 16.5994 68.7881 17.1578C68.4826 17.7161 68.3298 18.3697 68.3298 19.1185C68.3298 19.8672 68.4826 20.5208 68.7881 21.0792C69.1064 21.6376 69.5265 22.0691 70.0484 22.3737C70.5704 22.6656 71.1305 22.8115 71.7289 22.8115Z" fill="#55585D"/>
<path d="M78.4304 14.2642H79.9772V15.692H80.0536C80.3337 15.197 80.7538 14.7846 81.3139 14.4546C81.8741 14.1246 82.466 13.9597 83.0899 13.9597C83.8028 13.9597 84.4202 14.131 84.9422 14.4736C85.4769 14.8163 85.8588 15.2732 86.0879 15.8443C86.4317 15.2732 86.8836 14.8163 87.4438 14.4736C88.0166 14.131 88.6786 13.9597 89.4297 13.9597C90.5501 13.9597 91.3903 14.3023 91.9504 14.9876C92.5233 15.6602 92.8098 16.5803 92.8098 17.7479V23.9727H91.2057V17.9953C91.2057 17.0943 91.0211 16.4407 90.6519 16.0346C90.2827 15.6285 89.7353 15.4255 89.0096 15.4255C88.5259 15.4255 88.0867 15.5651 87.692 15.8443C87.2974 16.1234 86.9855 16.4978 86.7563 16.9674C86.5399 17.437 86.4317 17.9446 86.4317 18.4903V23.9727H84.8085V18.0144C84.8085 17.1006 84.6239 16.4407 84.2547 16.0346C83.8855 15.6285 83.3445 15.4255 82.6315 15.4255C82.1478 15.4255 81.7086 15.5714 81.3139 15.8633C80.9193 16.1425 80.6074 16.5232 80.3782 17.0055C80.1618 17.475 80.0536 17.9827 80.0536 18.5284V23.9727H78.4304V14.2642Z" fill="#55585D"/>
<path d="M99.4743 24.2773C98.5449 24.2773 97.7111 24.0552 96.9727 23.611C96.2343 23.1669 95.6551 22.5577 95.235 21.7836C94.8276 20.9967 94.6239 20.1147 94.6239 19.1375C94.6239 18.1984 94.8148 17.3354 95.1968 16.5486C95.5914 15.7618 96.1452 15.1336 96.8581 14.664C97.571 14.1944 98.3985 13.9597 99.3406 13.9597C100.295 13.9597 101.123 14.1754 101.823 14.6069C102.523 15.0257 103.058 15.6095 103.427 16.3582C103.809 17.107 104 17.9636 104 18.9281C104 19.1185 103.981 19.2835 103.943 19.4231H96.247C96.2852 20.1591 96.4635 20.781 96.7817 21.2886C97.1 21.7963 97.501 22.177 97.9848 22.4308C98.4813 22.6846 98.9969 22.8115 99.5316 22.8115C100.779 22.8115 101.74 22.2277 102.415 21.0602L103.79 21.7265C103.37 22.5133 102.797 23.1351 102.071 23.592C101.358 24.0489 100.493 24.2773 99.4743 24.2773ZM102.281 18.0905C102.256 17.6844 102.141 17.2783 101.938 16.8722C101.734 16.4661 101.409 16.1234 100.964 15.8443C100.531 15.5651 99.9835 15.4255 99.3215 15.4255C98.5577 15.4255 97.9084 15.6729 97.3737 16.1679C96.8517 16.6501 96.508 17.291 96.3425 18.0905H102.281Z" fill="#55585D"/>
</g>
</svg>
