<svg viewBox="0 0 24 25" fill="none" xmlns="http://www.w3.org/2000/svg">
<path fill-rule="evenodd" clip-rule="evenodd" d="M15.4933 7.10299C15.8053 7.3754 15.8374 7.84919 15.565 8.16122L7.70786 17.1612C7.56543 17.3244 7.35943 17.418 7.14287 17.418C6.9263 17.418 6.72031 17.3244 6.57788 17.1612L3.43502 13.5612C3.16261 13.2492 3.19473 12.7754 3.50677 12.503C3.8188 12.2306 4.29259 12.2627 4.565 12.5747L7.14287 15.5276L14.435 7.17474C14.7074 6.8627 15.1812 6.83058 15.4933 7.10299Z" fill="#8F9BB3"/>
<path fill-rule="evenodd" clip-rule="evenodd" d="M20.5175 7.18743C20.8174 7.4731 20.829 7.94783 20.5433 8.24778L11.9716 17.2478C11.8201 17.4068 11.6065 17.4915 11.3872 17.4794C11.1679 17.4673 10.9649 17.3596 10.8318 17.1849L10.4035 16.6224C10.1526 16.2928 10.2163 15.8223 10.5458 15.5713C10.8289 15.3557 11.2161 15.3724 11.4787 15.5903L19.4571 7.21328C19.7428 6.91333 20.2175 6.90176 20.5175 7.18743Z" fill="#8F9BB3"/>
</svg>
