<svg viewBox="0 0 20 20" fill="none" xmlns="http://www.w3.org/2000/svg">
<path d="M17.4574 11.1641V11.1668L18.6399 17.985C18.653 18.06 18.6512 18.1369 18.6346 18.2112C18.6179 18.2855 18.5867 18.3558 18.5428 18.418C18.4988 18.4801 18.443 18.533 18.3785 18.5735C18.3141 18.614 18.2422 18.6414 18.1671 18.654L18.1671 18.654C18.1359 18.6607 18.1024 18.6629 18.069 18.6629H1.93059C1.84614 18.6631 1.76268 18.6447 1.68607 18.6091C1.60947 18.5735 1.54159 18.5216 1.48719 18.457C1.43278 18.3924 1.39318 18.3167 1.37116 18.2351C1.34914 18.1536 1.34523 18.0682 1.35972 17.985L2.54275 11.1636L2.5422 11.1635L2.54165 11.1634L2.53898 11.1629H2.14265C1.82153 11.1629 1.56285 10.9043 1.56285 10.5831V6.29743C1.56285 5.97631 1.82153 5.71763 2.14265 5.71763H7.63372V5.71708H7.63428V1.65458C7.63428 1.33346 7.89296 1.07478 8.21408 1.07478H11.7855C12.1066 1.07478 12.3653 1.33346 12.3653 1.65458V5.71708H12.3659V5.71763H17.8569C18.1781 5.71763 18.4367 5.97631 18.4367 6.29743V10.5831C18.4367 10.9043 18.1781 11.1629 17.8569 11.1629H17.4574V11.1635V11.1641ZM3.09801 17.101L3.09856 17.1011L3.10122 17.1016H6.42836V17.101H6.42892V13.6189C6.42892 13.521 6.50903 13.4408 6.60693 13.4408H7.67836C7.77627 13.4408 7.85638 13.521 7.85638 13.6189V17.101H7.85693V17.1016H12.1426V17.101H12.1432V13.6189C12.1432 13.521 12.2233 13.4408 12.3212 13.4408H13.3926C13.4906 13.4408 13.5707 13.521 13.5707 13.6189V17.101H13.5712V17.1016H16.8993V17.101V17.1004V17.0977L15.8932 11.2973L15.8959 11.2969H15.8926H4.1047V11.2942L4.10415 11.2973L3.09746 17.1009L3.09801 17.101ZM3.12479 7.27902V7.27958H3.12423V9.601H3.12479V9.60156H16.8748V9.601H16.8753V7.27958H16.8748V7.27902H10.8039V2.63672H10.8034V2.63616H9.19622V2.63672H9.19566V7.27902H3.12479Z" fill="#8F9BB3" stroke="#2E3A59" stroke-width="0.00111607"/>
</svg>
