<svg viewBox="0 0 16 16" fill="none" xmlns="http://www.w3.org/2000/svg">
<path d="M13.9988 6.66683C13.9908 5.21681 13.9265 4.43154 13.4142 3.91928C12.8284 3.3335 11.8856 3.3335 10 3.3335H8C6.11438 3.3335 5.17157 3.3335 4.58579 3.91928C4 4.50507 4 5.44788 4 7.3335V10.6668C4 12.5524 4 13.4953 4.58579 14.081C5.17157 14.6668 6.11438 14.6668 8 14.6668H10C11.8856 14.6668 12.8284 14.6668 13.4142 14.081C14 13.4953 14 12.5524 14 10.6668V10.0002M2 6.66683V10.6668C2 11.7714 2.89543 12.6668 4 12.6668M12 3.3335C12 2.22893 11.1046 1.3335 10 1.3335H7.33333C4.81918 1.3335 3.5621 1.3335 2.78105 2.11454C2.34559 2.55 2.15292 3.13342 2.06766 4.00016" stroke="#5050FA" stroke-width="1.5" stroke-linecap="round"/>
</svg>
