<svg viewBox="0 0 228 238" fill="none" xmlns="http://www.w3.org/2000/svg">
<path d="M227.14 179.386C227.14 148.796 202.341 123.997 171.75 123.997L-21.3308 123.997L-21.3308 191.902C-21.3308 222.493 3.46776 247.291 34.0584 247.291L227.14 247.291L227.14 179.386Z" fill="white" fill-opacity="0.6"/>
<path d="M102.905 56.0914C102.905 25.5008 127.703 0.702147 158.294 0.702145L227.14 0.702141L227.14 68.607C227.14 99.1976 202.341 123.996 171.751 123.996L102.905 123.996L102.905 56.0914Z" fill="white" fill-opacity="0.25"/>
<path d="M171.75 247.292C202.341 247.292 227.14 222.493 227.14 191.903L227.14 0.703857L158.294 0.703867C127.703 0.703872 102.904 25.5025 102.904 56.0931L102.904 247.292L171.75 247.292Z" fill="white" fill-opacity="0.15"/>
<path d="M34.0586 247.292C3.46798 247.292 -21.3306 222.493 -21.3306 191.903L-21.3306 0.703842L47.5155 0.703832C78.1061 0.703828 102.905 25.5024 102.905 56.093L102.905 247.292L34.0586 247.292Z" fill="white" fill-opacity="0.45"/>
</svg>
