<svg viewBox="0 0 14 14" fill="none" xmlns="http://www.w3.org/2000/svg">
<path fill-rule="evenodd" clip-rule="evenodd" d="M6.99984 12.8332C10.2215 12.8332 12.8332 10.2215 12.8332 6.99984C12.8332 3.77818 10.2215 1.1665 6.99984 1.1665C3.77818 1.1665 1.1665 3.77818 1.1665 6.99984C1.1665 10.2215 3.77818 12.8332 6.99984 12.8332ZM5.00821 5.00821C4.6665 5.34992 4.6665 5.89989 4.6665 6.99984C4.6665 8.09978 4.6665 8.64975 5.00821 8.99146C5.34992 9.33317 5.89989 9.33317 6.99984 9.33317C8.09978 9.33317 8.64975 9.33317 8.99146 8.99146C9.33317 8.64975 9.33317 8.09978 9.33317 6.99984C9.33317 5.89989 9.33317 5.34992 8.99146 5.00821C8.64975 4.6665 8.09978 4.6665 6.99984 4.6665C5.89989 4.6665 5.34992 4.6665 5.00821 5.00821Z" fill="#ED003F"/>
</svg>
