<svg viewBox="0 0 20 20" fill="none" xmlns="http://www.w3.org/2000/svg">
<g clip-path="url(#clip0_854_39071)">
<path d="M10.7408 11.546L11.2197 10.9688L10.6948 10.5332L10.2115 11.0146L10.7408 11.546ZM8.4139 9.22863L8.94315 9.76004L9.36758 9.33734L9.04917 8.82996L8.4139 9.22863ZM2.04566 15.5708L1.51642 15.0394L1.51642 15.0394L2.04566 15.5708ZM2.04566 17.2784L1.51642 17.8098L1.51642 17.8098L2.04566 17.2784ZM10.0059 12.2778L9.47669 11.7464L10.0059 12.2778ZM10.1284 13.3755L9.45813 13.712C9.47574 13.747 9.49607 13.7807 9.51894 13.8126L10.1284 13.3755ZM10.1284 15.083L10.7275 15.5342C10.731 15.5295 10.7345 15.5248 10.7379 15.5201L10.1284 15.083ZM7.55661 15.083L8.08585 14.5516L7.55661 14.0245L7.02737 14.5516L7.55661 15.083ZM7.43414 17.0344L8.03326 17.4856C8.03676 17.481 8.04021 17.4763 8.0436 17.4715L7.43414 17.0344ZM5.22975 17.1564L5.759 16.625L5.22975 16.0979L4.70051 16.625L5.22975 17.1564ZM7.31168 15.3269L6.78243 14.7955L6.28831 15.2876L6.74322 15.8162L7.31168 15.3269ZM2.78046 18.0102L2.25122 18.5416L2.27162 18.5619L2.29351 18.5806L2.78046 18.0102ZM4.37249 18.0102L3.84325 17.4787L4.37249 18.0102ZM18.1939 3.77254C17.9762 3.42016 17.5141 3.31099 17.1617 3.5287C16.8093 3.74641 16.7001 4.20857 16.9179 4.56095L18.1939 3.77254ZM14.7259 2.72923C15.1114 2.88078 15.5468 2.69113 15.6983 2.30563C15.8499 1.92014 15.6602 1.48478 15.2747 1.33323L14.7259 2.72923ZM17.5837 6.91128C17.5837 9.39065 15.5647 11.4058 13.0676 11.4058V12.9058C16.3873 12.9058 19.0837 10.2249 19.0837 6.91128H17.5837ZM8.55157 6.91128C8.55157 4.43191 10.5706 2.41675 13.0676 2.41675V0.916748C9.74794 0.916748 7.05157 3.5977 7.05157 6.91128H8.55157ZM13.0676 11.4058C12.8475 11.4058 12.4641 11.3794 12.0776 11.2994C11.6691 11.2148 11.3688 11.0925 11.2197 10.9688L10.2618 12.1231C10.7006 12.4873 11.2984 12.6699 11.7736 12.7683C12.2709 12.8712 12.7571 12.9058 13.0676 12.9058V11.4058ZM7.05157 6.91128C7.05157 7.69418 7.22969 8.36369 7.40477 8.83449C7.49279 9.07116 7.58156 9.26171 7.65025 9.39625C7.68466 9.46364 7.71422 9.51736 7.73641 9.55619C7.74751 9.57562 7.75679 9.59135 7.76392 9.60324C7.76749 9.60919 7.77053 9.61418 7.77299 9.61819C7.77422 9.6202 7.77531 9.62197 7.77626 9.62348C7.77673 9.62424 7.77716 9.62494 7.77756 9.62558C7.77776 9.62589 7.77795 9.6262 7.77813 9.62648C7.77822 9.62663 7.77834 9.62683 7.77839 9.6269C7.77851 9.6271 7.77864 9.6273 8.4139 9.22863C9.04917 8.82996 9.04929 8.83015 9.0494 8.83033C9.04944 8.83039 9.04955 8.83057 9.04962 8.83068C9.04976 8.83091 9.0499 8.83112 9.05002 8.83132C9.05027 8.83172 9.05048 8.83206 9.05066 8.83235C9.05101 8.83292 9.05123 8.83326 9.0513 8.83338C9.05145 8.83362 9.05104 8.83297 9.05013 8.83144C9.04829 8.82839 9.04441 8.82185 9.03877 8.81197C9.02747 8.7922 9.0092 8.75921 8.9862 8.71417C8.94008 8.62383 8.87576 8.48659 8.8107 8.31164C8.67962 7.95917 8.55157 7.47 8.55157 6.91128H7.05157ZM7.88466 8.69721L1.51642 15.0394L2.57491 16.1023L8.94315 9.76004L7.88466 8.69721ZM1.51642 15.0394C1.28858 15.2663 1.02206 15.6592 0.94115 16.1542C0.85255 16.6962 1.0002 17.2957 1.51642 17.8098L2.57491 16.747C2.4793 16.6517 2.44448 16.5786 2.43033 16.5344C2.41598 16.4897 2.41347 16.4454 2.4215 16.3962C2.4406 16.2793 2.517 16.1599 2.57491 16.1023L1.51642 15.0394ZM10.2115 11.0146L9.47669 11.7464L10.5352 12.8092L11.27 12.0774L10.2115 11.0146ZM9.47669 11.7464C9.30556 11.9168 9.12847 12.1217 9.03341 12.3659C8.91111 12.68 8.95011 12.9857 9.09072 13.2377C9.18349 13.404 9.34091 13.562 9.36405 13.5875C9.41961 13.6488 9.4425 13.6808 9.45813 13.712L10.7987 13.039C10.6918 12.8262 10.5616 12.6752 10.4756 12.5803C10.4557 12.5583 10.4339 12.5348 10.4205 12.5202C10.4049 12.5032 10.3951 12.4923 10.3876 12.4837C10.3705 12.4639 10.3831 12.4755 10.4007 12.507C10.4217 12.5447 10.4512 12.6129 10.4586 12.7038C10.466 12.7955 10.4476 12.868 10.4312 12.9101C10.417 12.9466 10.4064 12.9552 10.4242 12.9316C10.4412 12.9091 10.4747 12.8694 10.5352 12.8092L9.47669 11.7464ZM9.52928 14.6318C9.42681 14.7679 9.22754 14.9261 9.00583 14.9682C8.83828 14.9999 8.52862 14.9925 8.08585 14.5516L7.02736 15.6144C7.76027 16.3443 8.55281 16.5808 9.28539 16.4419C9.9638 16.3132 10.4626 15.886 10.7275 15.5342L9.52928 14.6318ZM10.1284 13.3755C9.51894 13.8126 9.51874 13.8123 9.51854 13.812C9.51848 13.8119 9.51829 13.8117 9.51816 13.8115C9.51791 13.8111 9.51766 13.8108 9.51743 13.8105C9.51696 13.8098 9.51653 13.8092 9.51612 13.8086C9.51532 13.8075 9.51465 13.8065 9.51411 13.8057C9.51302 13.8042 9.51244 13.8033 9.51232 13.8031C9.51208 13.8028 9.51361 13.805 9.51654 13.8098C9.52247 13.8193 9.53357 13.8379 9.547 13.8642C9.57465 13.9181 9.60739 13.9948 9.62858 14.0835C9.66837 14.2499 9.66731 14.439 9.51894 14.6459L10.7379 15.5201C11.2018 14.8732 11.2008 14.2085 11.0875 13.7347C11.0321 13.5031 10.95 13.313 10.882 13.1802C10.8476 13.1131 10.8156 13.0584 10.7905 13.0179C10.7779 12.9976 10.7668 12.9807 10.7579 12.9674C10.7535 12.9607 10.7495 12.955 10.7462 12.9501C10.7445 12.9477 10.7429 12.9455 10.7416 12.9436C10.7409 12.9426 10.7402 12.9417 10.7396 12.9408C10.7393 12.9403 10.739 12.9399 10.7387 12.9395C10.7385 12.9393 10.7383 12.939 10.7383 12.9389C10.7381 12.9386 10.7379 12.9384 10.1284 13.3755ZM6.83503 16.5833C6.75367 16.6913 6.57464 16.8236 6.37457 16.8619C6.21982 16.8916 6.01161 16.8766 5.759 16.625L4.70051 17.6878C5.30516 18.29 6.01544 18.458 6.65672 18.3351C7.25268 18.221 7.74721 17.8654 8.03326 17.4856L6.83503 16.5833ZM7.31168 15.3269C6.74322 15.8162 6.74301 15.8159 6.7428 15.8157C6.74273 15.8156 6.74252 15.8153 6.74239 15.8152C6.74212 15.8149 6.74186 15.8146 6.74162 15.8143C6.74112 15.8137 6.74067 15.8132 6.74025 15.8127C6.73943 15.8117 6.73876 15.8109 6.73825 15.8103C6.73722 15.8091 6.73679 15.8085 6.73691 15.8087C6.73716 15.809 6.73955 15.812 6.74363 15.8174C6.75188 15.8283 6.76638 15.8483 6.78385 15.8758C6.82003 15.9328 6.86193 16.0108 6.89131 16.0986C6.94617 16.2625 6.95142 16.4206 6.82469 16.5973L8.0436 17.4715C8.5292 16.7945 8.47321 16.0989 8.31375 15.6225C8.23598 15.3901 8.13245 15.2013 8.04999 15.0715C8.00814 15.0056 7.97001 14.9523 7.94048 14.9132C7.92566 14.8936 7.91286 14.8773 7.90265 14.8647C7.89753 14.8584 7.89306 14.853 7.88929 14.8485C7.8874 14.8462 7.88569 14.8442 7.88416 14.8424C7.88339 14.8415 7.88268 14.8406 7.882 14.8399C7.88167 14.8395 7.88134 14.8391 7.88103 14.8387C7.88088 14.8385 7.88065 14.8383 7.88057 14.8382C7.88035 14.8379 7.88013 14.8377 7.31168 15.3269ZM7.84092 15.8583L8.08585 15.6144L7.02737 14.5516L6.78243 14.7955L7.84092 15.8583ZM1.51642 17.8098L2.25122 18.5416L3.3097 17.4787L2.57491 16.747L1.51642 17.8098ZM2.29351 18.5806C2.51963 18.7736 2.89721 18.9957 3.35353 19.0631C3.84716 19.1361 4.42 19.0213 4.90173 18.5416L3.84325 17.4787C3.77942 17.5423 3.73046 17.564 3.69975 17.5733C3.66624 17.5834 3.62537 17.587 3.57285 17.5792C3.45156 17.5613 3.32704 17.4906 3.26741 17.4397L2.29351 18.5806ZM4.90173 18.5416L5.759 17.6878L4.70051 16.625L3.84325 17.4787L4.90173 18.5416ZM16.9179 4.56095C17.3401 5.24441 17.5837 6.04847 17.5837 6.91128H19.0837C19.0837 5.76176 18.7582 4.68583 18.1939 3.77254L16.9179 4.56095ZM13.0676 2.41675C13.6545 2.41675 14.2136 2.5278 14.7259 2.72923L15.2747 1.33323C14.5903 1.06417 13.8453 0.916748 13.0676 0.916748V2.41675ZM14.1548 6.91136C14.1548 7.50465 13.671 7.99084 13.0678 7.99084V9.49084C14.4936 9.49084 15.6548 8.33886 15.6548 6.91136H14.1548ZM13.0678 7.99084C12.4646 7.99084 11.9808 7.50465 11.9808 6.91136H10.4808C10.4808 8.33886 11.6419 9.49084 13.0678 9.49084V7.99084ZM11.9808 6.91136C11.9808 6.31806 12.4646 5.83187 13.0678 5.83187V4.33187C11.6419 4.33187 10.4808 5.48385 10.4808 6.91136H11.9808ZM13.0678 5.83187C13.671 5.83187 14.1548 6.31806 14.1548 6.91136H15.6548C15.6548 5.48385 14.4936 4.33187 13.0678 4.33187V5.83187Z" fill="#2E3A59"/>
</g>
<defs>
<clipPath id="clip0_854_39071">
<rect width="20" height="20" fill="white"/>
</clipPath>
</defs>
</svg>
