<svg viewBox="0 0 21 20" fill="none" xmlns="http://www.w3.org/2000/svg">
<path d="M2.16748 9.24902C1.75327 9.24902 1.41748 9.58481 1.41748 9.99902C1.41748 10.4132 1.75327 10.749 2.16748 10.749L2.16748 9.24902ZM13.8341 9.99902L14.3222 10.5685C14.4885 10.426 14.5841 10.218 14.5841 9.99902C14.5841 9.78008 14.4885 9.57207 14.3222 9.42958L13.8341 9.99902ZM11.4056 6.92958C11.0911 6.66001 10.6176 6.69644 10.348 7.01093C10.0785 7.32542 10.1149 7.7989 10.4294 8.06847L11.4056 6.92958ZM10.4294 11.9296C10.1149 12.1991 10.0785 12.6726 10.348 12.9871C10.6176 13.3016 11.0911 13.338 11.4056 13.0685L10.4294 11.9296ZM13.0002 1.6665V0.916504V1.6665ZM13.8335 1.6665V2.4165V1.6665ZM18.8335 6.6665H19.5835H18.8335ZM18.8335 13.3332H18.0835H18.8335ZM13.8335 18.3332V19.0832V18.3332ZM13.0002 18.3332V17.5832V18.3332ZM8.73241 17.6009L9.26274 17.0706L8.73241 17.6009ZM8.73241 2.39874L8.20208 1.86841V1.86841L8.73241 2.39874ZM7.25164 5.829C7.24933 6.2432 7.58325 6.58085 7.99745 6.58316C8.41166 6.58546 8.74931 6.25155 8.75162 5.83735L7.25164 5.829ZM8.75162 14.1623C8.74931 13.7481 8.41166 13.4142 7.99745 13.4165C7.58325 13.4188 7.24933 13.7565 7.25164 14.1707L8.75162 14.1623ZM2.16748 10.749H13.8341V9.24902L2.16748 9.24902L2.16748 10.749ZM14.3222 9.42958L11.4056 6.92958L10.4294 8.06847L13.3461 10.5685L14.3222 9.42958ZM13.3461 9.42958L10.4294 11.9296L11.4056 13.0685L14.3222 10.5685L13.3461 9.42958ZM13.0002 2.4165H13.8335V0.916504H13.0002V2.4165ZM18.0835 6.6665V13.3332H19.5835V6.6665H18.0835ZM13.8335 17.5832H13.0002V19.0832H13.8335V17.5832ZM13.0002 17.5832C11.8005 17.5832 10.9761 17.5816 10.3569 17.4983C9.75932 17.418 9.46628 17.2741 9.26274 17.0706L8.20208 18.1313C8.73078 18.66 9.39311 18.8822 10.1571 18.985C10.8994 19.0848 11.8429 19.0832 13.0002 19.0832V17.5832ZM18.0835 13.3332C18.0835 14.5329 18.0819 15.3572 17.9987 15.9764C17.9183 16.574 17.7745 16.8671 17.571 17.0706L18.6316 18.1313C19.1603 17.6026 19.3826 16.9402 19.4853 16.1763C19.5851 15.4339 19.5835 14.4905 19.5835 13.3332H18.0835ZM13.8335 19.0832C14.9908 19.0832 15.9343 19.0848 16.6766 18.985C17.4406 18.8822 18.1029 18.66 18.6316 18.1313L17.571 17.0706C17.3674 17.2741 17.0744 17.418 16.4768 17.4983C15.8576 17.5816 15.0332 17.5832 13.8335 17.5832V19.0832ZM13.8335 2.4165C15.0332 2.4165 15.8576 2.4181 16.4768 2.50135C17.0744 2.58169 17.3674 2.72553 17.571 2.92907L18.6316 1.86841C18.1029 1.33971 17.4406 1.11743 16.6766 1.01472C15.9343 0.914911 14.9908 0.916504 13.8335 0.916504V2.4165ZM19.5835 6.6665C19.5835 5.5092 19.5851 4.56576 19.4853 3.82339C19.3826 3.05944 19.1603 2.3971 18.6316 1.86841L17.571 2.92907C17.7745 3.13261 17.9183 3.42564 17.9987 4.02326C18.0819 4.64245 18.0835 5.46679 18.0835 6.6665H19.5835ZM13.0002 0.916504C11.8429 0.916504 10.8994 0.914911 10.1571 1.01472C9.39311 1.11743 8.73078 1.33971 8.20208 1.86841L9.26274 2.92907C9.46628 2.72553 9.75932 2.58169 10.3569 2.50135C10.9761 2.4181 11.8005 2.4165 13.0002 2.4165V0.916504ZM8.75162 5.83735C8.75669 4.9251 8.78057 4.28972 8.86834 3.81188C8.95218 3.35547 9.08332 3.10849 9.26274 2.92907L8.20208 1.86841C7.74118 2.3293 7.51198 2.89328 7.39302 3.54088C7.27801 4.16704 7.25665 4.92872 7.25164 5.829L8.75162 5.83735ZM7.25164 14.1707C7.25665 15.071 7.27801 15.8326 7.39302 16.4588C7.51198 17.1064 7.74118 17.6704 8.20208 18.1313L9.26274 17.0706C9.08332 16.8912 8.95218 16.6442 8.86834 16.1878C8.78057 15.71 8.75669 15.0746 8.75162 14.1623L7.25164 14.1707Z" fill="#ED003F"/>
</svg>
