<svg viewBox="0 0 14 14" fill="none" xmlns="http://www.w3.org/2000/svg">
<g clip-path="url(#clip0_763_1443)">
<path d="M8.71787 0.729004C7.92011 0.728992 7.27709 0.728983 6.77136 0.796976C6.2463 0.867569 5.8042 1.01859 5.45309 1.36971C5.14688 1.67592 4.99215 2.05221 4.91093 2.49438C4.83201 2.92404 4.81691 3.44984 4.8134 4.08074C4.81206 4.32236 5.00684 4.51932 5.24846 4.52066C5.49008 4.52201 5.68704 4.32723 5.68839 4.08561C5.69194 3.44773 5.7085 2.9956 5.77153 2.65246C5.83227 2.32182 5.92979 2.13044 6.0718 1.98843C6.23325 1.82698 6.45992 1.72172 6.88795 1.66417C7.32857 1.60493 7.91256 1.604 8.74988 1.604H9.33321C10.1705 1.604 10.7545 1.60493 11.1951 1.66417C11.6232 1.72172 11.8498 1.82698 12.0113 1.98843C12.1727 2.14987 12.278 2.37654 12.3355 2.80457C12.3948 3.2452 12.3957 3.82918 12.3957 4.6665V9.33317C12.3957 10.1705 12.3948 10.7545 12.3355 11.1951C12.278 11.6231 12.1727 11.8498 12.0113 12.0112C11.8498 12.1727 11.6232 12.278 11.1951 12.3355C10.7545 12.3947 10.1705 12.3957 9.33321 12.3957H8.74988C7.91256 12.3957 7.32857 12.3947 6.88795 12.3355C6.45992 12.278 6.23325 12.1727 6.0718 12.0112C5.92979 11.8692 5.83227 11.6779 5.77153 11.3472C5.7085 11.0041 5.69194 10.5519 5.68839 9.91407C5.68704 9.67245 5.49008 9.47767 5.24846 9.47901C5.00684 9.48036 4.81206 9.67732 4.8134 9.91894C4.81691 10.5498 4.83201 11.0756 4.91093 11.5053C4.99215 11.9475 5.14688 12.3238 5.45309 12.63C5.8042 12.9811 6.2463 13.1321 6.77136 13.2027C7.27709 13.2707 7.92011 13.2707 8.71787 13.2707H9.36522C10.163 13.2707 10.806 13.2707 11.3117 13.2027C11.8368 13.1321 12.2789 12.9811 12.63 12.63C12.9811 12.2788 13.1321 11.8368 13.2027 11.3117C13.2707 10.806 13.2707 10.1629 13.2707 9.36518V4.6345C13.2707 3.83674 13.2707 3.19371 13.2027 2.68798C13.1321 2.16292 12.9811 1.72083 12.63 1.36971C12.2789 1.01859 11.8368 0.867569 11.3117 0.796976C10.806 0.728983 10.163 0.728992 9.36523 0.729004H8.71787Z" fill="#101113"/>
<path d="M1.16699 6.56177C0.925367 6.56177 0.729492 6.75764 0.729492 6.99927C0.729492 7.24089 0.925368 7.43677 1.16699 7.43677L8.15098 7.43677L7.00727 8.41709C6.82382 8.57434 6.80257 8.85053 6.95982 9.03399C7.11706 9.21744 7.39326 9.23869 7.57671 9.08144L9.61838 7.33144C9.71535 7.24833 9.77116 7.12699 9.77116 6.99927C9.77116 6.87155 9.71535 6.75021 9.61838 6.66709L7.57671 4.91709C7.39326 4.75985 7.11706 4.78109 6.95982 4.96455C6.80257 5.148 6.82382 5.4242 7.00727 5.58144L8.15098 6.56177L1.16699 6.56177Z" fill="#101113"/>
</g>
<defs>
<clipPath id="clip0_763_1443">
<rect width="14" height="14" fill="white"/>
</clipPath>
</defs>
</svg>
