<svg viewBox="0 0 21 20" fill="none" xmlns="http://www.w3.org/2000/svg">
<path d="M6.12501 5.6657L5.75001 6.31522L6.12501 5.6657ZM5.66748 5.20817L5.01796 5.58317L5.66748 5.20817ZM15.3325 5.20817L15.9821 5.58317L15.3325 5.20817ZM14.875 5.6657L15.25 6.31522L14.875 5.6657ZM14.875 1.83397L15.25 1.18445L14.875 1.83397ZM15.3325 2.2915L15.9821 1.9165L15.3325 2.2915ZM6.12501 1.83397L5.75001 1.18445L6.12501 1.83397ZM5.66748 2.2915L5.01796 1.9165L5.66748 2.2915ZM11.9226 18.0891L11.3923 17.5588H11.3923L11.9226 18.0891ZM11.9226 11.9106L11.3923 12.4409H11.3923L11.9226 11.9106ZM9.07742 11.9106L8.54709 11.3803V11.3803L9.07742 11.9106ZM9.07742 18.0891L9.60775 17.5588H9.60775L9.07742 18.0891ZM13.3389 9.15734L13.2276 8.41564H13.2276L13.3389 9.15734ZM16.7361 8.64776L16.6248 7.90606H16.6248L16.7361 8.64776ZM18.7175 4.80594L19.4153 4.53119V4.53119L18.7175 4.80594ZM17.7772 3.8657L17.5025 4.56356L17.7772 3.8657ZM17.9487 8.36966L17.5968 7.70735L17.9487 8.36966ZM18.7382 7.45291L19.4454 7.70269V7.70268L18.7382 7.45291ZM10.9038 9.93089L10.3355 9.44147L10.3355 9.44147L10.9038 9.93089ZM10.5039 11.6665V12.4165H11.2415L11.2538 11.679L10.5039 11.6665ZM5.08334 2.99984C4.66913 2.99984 4.33334 3.33562 4.33334 3.74984C4.33334 4.16405 4.66913 4.49984 5.08334 4.49984V2.99984ZM7.58334 2.4165H13.4167V0.916504H7.58334V2.4165ZM13.4167 5.08317H7.58334V6.58317H13.4167V5.08317ZM7.58334 5.08317C7.18012 5.08317 6.92784 5.08245 6.73858 5.0653C6.55963 5.04908 6.51187 5.02303 6.50001 5.01618L5.75001 6.31522C6.02822 6.47584 6.3202 6.53353 6.60319 6.55918C6.87586 6.58389 7.20772 6.58317 7.58334 6.58317V5.08317ZM4.75001 3.74984C4.75001 4.12546 4.74929 4.45732 4.77401 4.73C4.79965 5.01298 4.85734 5.30496 5.01796 5.58317L6.317 4.83317C6.31015 4.82131 6.2841 4.77355 6.26788 4.5946C6.25073 4.40534 6.25001 4.15306 6.25001 3.74984H4.75001ZM6.50001 5.01618C6.424 4.9723 6.36088 4.90918 6.317 4.83317L5.01796 5.58317C5.1935 5.88721 5.44597 6.13968 5.75001 6.31522L6.50001 5.01618ZM14.75 3.74984C14.75 4.15306 14.7493 4.40534 14.7321 4.5946C14.7159 4.77355 14.6899 4.82131 14.683 4.83317L15.9821 5.58317C16.1427 5.30496 16.2004 5.01298 16.226 4.73C16.2507 4.45732 16.25 4.12546 16.25 3.74984H14.75ZM13.4167 6.58317C13.7923 6.58317 14.1242 6.58389 14.3968 6.55918C14.6798 6.53353 14.9718 6.47584 15.25 6.31522L14.5 5.01618C14.4882 5.02303 14.4404 5.04908 14.2614 5.0653C14.0722 5.08245 13.8199 5.08317 13.4167 5.08317V6.58317ZM14.683 4.83317C14.6391 4.90918 14.576 4.9723 14.5 5.01618L15.25 6.31522C15.554 6.13968 15.8065 5.88721 15.9821 5.58317L14.683 4.83317ZM13.4167 2.4165C13.8199 2.4165 14.0722 2.41722 14.2614 2.43438C14.4404 2.45059 14.4882 2.47665 14.5 2.48349L15.25 1.18445C14.9718 1.02383 14.6798 0.966147 14.3968 0.940499C14.1242 0.915785 13.7923 0.916504 13.4167 0.916504V2.4165ZM16.25 3.74984C16.25 3.37422 16.2507 3.04236 16.226 2.76968C16.2004 2.48669 16.1427 2.19471 15.9821 1.9165L14.683 2.6665C14.6899 2.67836 14.7159 2.72612 14.7321 2.90507C14.7493 3.09434 14.75 3.34661 14.75 3.74984H16.25ZM14.5 2.48349C14.576 2.52738 14.6391 2.59049 14.683 2.6665L15.9821 1.9165C15.8065 1.61247 15.554 1.35999 15.25 1.18445L14.5 2.48349ZM7.58334 0.916504C7.20772 0.916504 6.87586 0.915785 6.60319 0.940499C6.3202 0.966147 6.02822 1.02383 5.75001 1.18445L6.50001 2.48349C6.51187 2.47665 6.55963 2.45059 6.73858 2.43438C6.92784 2.41722 7.18012 2.4165 7.58334 2.4165V0.916504ZM6.25001 3.74984C6.25001 3.34661 6.25073 3.09434 6.26788 2.90507C6.2841 2.72612 6.31015 2.67836 6.317 2.6665L5.01796 1.9165C4.85734 2.19471 4.79965 2.48669 4.77401 2.76968C4.74929 3.04236 4.75001 3.37422 4.75001 3.74984H6.25001ZM5.75001 1.18445C5.44597 1.35999 5.1935 1.61247 5.01796 1.9165L6.317 2.6665C6.36088 2.59049 6.424 2.52738 6.50001 2.48349L5.75001 1.18445ZM9.58334 16.6665V13.3332H8.08334V16.6665H9.58334ZM11.4167 13.3332V16.6665H12.9167V13.3332H11.4167ZM11.4167 16.6665C11.4167 17.0805 11.4151 17.3156 11.3929 17.481C11.3735 17.6247 11.3517 17.5993 11.3923 17.5588L12.4529 18.6194C12.7375 18.3348 12.8378 17.9909 12.8795 17.6808C12.9183 17.3923 12.9167 17.0381 12.9167 16.6665H11.4167ZM10.5 19.0832C10.8716 19.0832 11.2258 19.0848 11.5143 19.046C11.8244 19.0043 12.1683 18.904 12.4529 18.6194L11.3923 17.5588C11.4328 17.5182 11.4582 17.54 11.3145 17.5594C11.1491 17.5816 10.9141 17.5832 10.5 17.5832V19.0832ZM10.5 12.4165C10.914 12.4165 11.1491 12.4181 11.3145 12.4403C11.4582 12.4597 11.4328 12.4815 11.3923 12.4409L12.4529 11.3803C12.1683 11.0956 11.8244 10.9954 11.5143 10.9537C11.2258 10.9149 10.8716 10.9165 10.5 10.9165V12.4165ZM12.9167 13.3332C12.9167 12.9615 12.9183 12.6074 12.8795 12.3188C12.8378 12.0087 12.7375 11.6649 12.4529 11.3803L11.3923 12.4409C11.3517 12.4004 11.3735 12.375 11.3929 12.5187C11.4151 12.6841 11.4167 12.9191 11.4167 13.3332H12.9167ZM9.58334 13.3332C9.58334 12.9191 9.58494 12.6841 9.60717 12.5187C9.62649 12.375 9.64829 12.4004 9.60775 12.4409L8.54709 11.3803C8.26248 11.6649 8.16223 12.0087 8.12054 12.3188C8.08175 12.6074 8.08334 12.9615 8.08334 13.3332H9.58334ZM10.5 10.9165C10.1284 10.9165 9.7742 10.9149 9.48568 10.9537C9.17559 10.9954 8.83171 11.0956 8.54709 11.3803L9.60775 12.4409C9.56721 12.4815 9.54179 12.4597 9.68555 12.4403C9.85089 12.4181 10.086 12.4165 10.5 12.4165V10.9165ZM8.08334 16.6665C8.08334 17.0381 8.08175 17.3923 8.12054 17.6808C8.16223 17.9909 8.26248 18.3348 8.54709 18.6194L9.60775 17.5588C9.64829 17.5993 9.62649 17.6247 9.60717 17.481C9.58494 17.3156 9.58334 17.0805 9.58334 16.6665H8.08334ZM10.5 17.5832C10.086 17.5832 9.85089 17.5816 9.68555 17.5594C9.54179 17.54 9.56721 17.5182 9.60775 17.5588L8.54709 18.6194C8.83171 18.904 9.17559 19.0043 9.48568 19.046C9.7742 19.0848 10.1284 19.0832 10.5 19.0832V17.5832ZM13.4501 9.89904L16.8473 9.38947L16.6248 7.90606L13.2276 8.41564L13.4501 9.89904ZM16.3708 2.99984H15.5V4.49984H16.3708V2.99984ZM19.5833 6.21242C19.5833 5.85148 19.5837 5.54491 19.5673 5.2927C19.5504 5.03417 19.5137 4.7809 19.4153 4.53119L18.0196 5.0807C18.0372 5.12527 18.0583 5.20452 18.0704 5.39028C18.083 5.58238 18.0833 5.8319 18.0833 6.21242H19.5833ZM16.3708 4.49984C16.7513 4.49984 17.0008 4.50021 17.1929 4.51273C17.3787 4.52484 17.4579 4.54601 17.5025 4.56356L18.052 3.16784C17.8023 3.06953 17.549 3.03276 17.2905 3.01591C17.0383 2.99947 16.7317 2.99984 16.3708 2.99984V4.49984ZM19.4153 4.53119C19.1697 3.90728 18.6759 3.41347 18.052 3.16784L17.5025 4.56356C17.7391 4.65673 17.9264 4.84404 18.0196 5.0807L19.4153 4.53119ZM16.8473 9.38947C17.4278 9.30239 17.9068 9.24125 18.3006 9.03197L17.5968 7.70735C17.4861 7.76617 17.3248 7.80106 16.6248 7.90606L16.8473 9.38947ZM18.0833 6.21242C18.0833 6.92026 18.0728 7.08494 18.031 7.20314L19.4454 7.70268C19.5939 7.28213 19.5833 6.7994 19.5833 6.21242H18.0833ZM18.3006 9.03197C18.8352 8.74791 19.2438 8.27353 19.4454 7.70269L18.031 7.20314C17.9545 7.41966 17.7996 7.5996 17.5968 7.70735L18.3006 9.03197ZM13.2276 8.41564C12.5698 8.51432 12.0069 8.59735 11.5619 8.72247C11.0966 8.8533 10.6702 9.05284 10.3355 9.44147L11.4721 10.4203C11.5412 10.3401 11.6551 10.2544 11.9679 10.1665C12.301 10.0728 12.7538 10.0035 13.4501 9.89904L13.2276 8.41564ZM11.2538 11.679C11.2687 10.7863 11.3541 10.5573 11.4721 10.4203L10.3355 9.44147C9.81817 10.0422 9.76801 10.8181 9.75403 11.654L11.2538 11.679ZM10.5 12.4165H10.5039V10.9165H10.5V12.4165ZM5.50001 2.99984H5.08334V4.49984H5.50001V2.99984Z" fill="#2E3A59"/>
</svg>
