<svg viewBox="0 0 20 20" fill="none" xmlns="http://www.w3.org/2000/svg">
<g clip-path="url(#clip0_700_22385)">
<path d="M1.66675 5.9165C1.66675 4.27979 1.66675 3.46143 2.03515 2.86026C2.24129 2.52387 2.52411 2.24104 2.8605 2.0349C3.46168 1.6665 4.28003 1.6665 5.91675 1.6665C7.00789 1.6665 7.55346 1.6665 7.95425 1.9121C8.1785 2.04953 8.36706 2.23808 8.50448 2.46234C8.75008 2.86312 8.75008 3.40869 8.75008 4.49984V5.4165C8.75008 6.98785 8.75008 7.77353 8.26193 8.26168C7.77377 8.74984 6.9881 8.74984 5.41675 8.74984H4.50008C3.40894 8.74984 2.86337 8.74984 2.46258 8.50424C2.23832 8.36681 2.04977 8.17826 1.91235 7.954C1.66675 7.55322 1.66675 7.00765 1.66675 5.9165Z" fill="#8F9BB3"/>
<path d="M4.79093 5.20817C4.79093 5.03612 4.79093 4.95009 4.83403 4.88935C4.84924 4.86791 4.86796 4.8492 4.88939 4.83399C4.95013 4.79089 5.03616 4.79089 5.20821 4.79089C5.38027 4.79089 5.46629 4.79089 5.52703 4.83399C5.54847 4.8492 5.56718 4.86791 5.58239 4.88935C5.62549 4.95009 5.62549 5.03612 5.62549 5.20817C5.62549 5.38022 5.62549 5.46625 5.58239 5.52699C5.56718 5.54843 5.54847 5.56714 5.52703 5.58235C5.46629 5.62545 5.38027 5.62545 5.20821 5.62545C5.03616 5.62545 4.95013 5.62545 4.88939 5.58235C4.86796 5.56714 4.84924 5.54843 4.83403 5.52699C4.79093 5.46625 4.79093 5.38022 4.79093 5.20817Z" fill="#8F9BB3"/>
<path d="M4.79114 14.7915C4.79114 14.6195 4.79114 14.5334 4.83424 14.4727C4.84944 14.4512 4.86816 14.4325 4.88959 14.4173C4.95033 14.3742 5.03636 14.3742 5.20841 14.3742C5.38047 14.3742 5.4665 14.3742 5.52724 14.4173C5.54867 14.4325 5.56739 14.4512 5.58259 14.4727C5.62569 14.5334 5.62569 14.6195 5.62569 14.7915C5.62569 14.9636 5.62569 15.0496 5.58259 15.1103C5.56739 15.1318 5.54867 15.1505 5.52724 15.1657C5.4665 15.2088 5.38047 15.2088 5.20841 15.2088C5.03636 15.2088 4.95033 15.2088 4.88959 15.1657C4.86816 15.1505 4.84944 15.1318 4.83424 15.1103C4.79114 15.0496 4.79114 14.9636 4.79114 14.7915Z" fill="#8F9BB3"/>
<path d="M13.9584 14.7915C13.9584 14.4571 13.9584 14.2899 14.0387 14.1698C14.0734 14.1178 14.1181 14.0732 14.17 14.0384C14.2902 13.9582 14.4574 13.9582 14.7917 13.9582C15.1261 13.9582 15.2933 13.9582 15.4134 14.0384C15.4654 14.0732 15.5101 14.1178 15.5448 14.1698C15.6251 14.2899 15.6251 14.4571 15.6251 14.7915C15.6251 15.1259 15.6251 15.2931 15.5448 15.4132C15.5101 15.4652 15.4654 15.5098 15.4134 15.5446C15.2933 15.6248 15.1261 15.6248 14.7917 15.6248C14.4574 15.6248 14.2902 15.6248 14.17 15.5446C14.1181 15.5098 14.0734 15.4652 14.0387 15.4132C13.9584 15.2931 13.9584 15.1259 13.9584 14.7915Z" fill="#8F9BB3"/>
<path d="M14.3745 5.20817C14.3745 5.03612 14.3745 4.95009 14.4176 4.88935C14.4328 4.86791 14.4515 4.8492 14.4729 4.83399C14.5337 4.79089 14.6197 4.79089 14.7917 4.79089C14.9638 4.79089 15.0498 4.79089 15.1106 4.83399C15.132 4.8492 15.1507 4.86791 15.1659 4.88935C15.209 4.95009 15.209 5.03612 15.209 5.20817C15.209 5.38022 15.209 5.46625 15.1659 5.52699C15.1507 5.54843 15.132 5.56714 15.1106 5.58235C15.0498 5.62545 14.9638 5.62545 14.7917 5.62545C14.6197 5.62545 14.5337 5.62545 14.4729 5.58235C14.4515 5.56714 14.4328 5.54843 14.4176 5.52699C14.3745 5.46625 14.3745 5.38022 14.3745 5.20817Z" fill="#8F9BB3"/>
<path d="M2.46258 8.50424L2.07071 9.14372L2.46258 8.50424ZM1.91235 7.954L1.27287 8.34588L1.91235 7.954ZM7.95425 1.9121L8.34612 1.27262L7.95425 1.9121ZM8.50448 2.46234L9.14396 2.07047L8.50448 2.46234ZM2.8605 2.0349L3.25238 2.67438L2.8605 2.0349ZM2.03515 2.86026L2.67463 3.25213L2.03515 2.86026ZM4.88939 5.58235L4.45538 6.19402L4.88939 5.58235ZM4.83403 5.52699L4.22236 5.961L4.83403 5.52699ZM5.58239 5.52699L6.19406 5.961L5.58239 5.52699ZM5.52703 5.58235L5.96104 6.19402L5.52703 5.58235ZM5.52703 4.83399L5.96104 4.22232L5.52703 4.83399ZM5.58239 4.88935L6.19406 4.45534L5.58239 4.88935ZM4.88939 4.83399L4.45538 4.22232L4.88939 4.83399ZM4.83403 4.88935L4.22236 4.45534L4.83403 4.88935ZM4.88959 15.1657L4.45559 15.7774L4.88959 15.1657ZM4.83424 15.1103L4.22257 15.5443L4.83424 15.1103ZM5.58259 15.1103L6.19426 15.5443L5.58259 15.1103ZM5.52724 15.1657L5.96124 15.7774L5.52724 15.1657ZM5.52724 14.4173L5.96124 13.8057L5.52724 14.4173ZM5.58259 14.4727L6.19426 14.0387L5.58259 14.4727ZM4.88959 14.4173L4.45559 13.8057L4.88959 14.4173ZM4.83424 14.4727L4.22257 14.0387L4.83424 14.4727ZM14.0387 14.1698L13.4151 13.7531L14.0387 14.1698ZM14.17 14.0384L13.7534 13.4148L14.17 14.0384ZM15.4134 14.0384L14.9968 14.662L14.9968 14.662L15.4134 14.0384ZM15.5448 14.1698L14.9212 14.5865L15.5448 14.1698ZM15.5448 15.4132L14.9212 14.9965V14.9965L15.5448 15.4132ZM15.4134 15.5446L14.9968 14.921H14.9968L15.4134 15.5446ZM14.17 15.5446L14.5867 14.921L14.17 15.5446ZM14.0387 15.4132L14.6623 14.9965L14.6623 14.9965L14.0387 15.4132ZM2.8605 17.9648L3.25238 17.3253H3.25238L2.8605 17.9648ZM2.67463 16.7475C2.4582 16.3944 1.99645 16.2835 1.64327 16.4999C1.2901 16.7164 1.17924 17.1781 1.39567 17.5313L2.67463 16.7475ZM8.50448 17.5373L9.14396 17.9292L8.50448 17.5373ZM7.95425 18.0876L8.34612 18.7271V18.7271L7.95425 18.0876ZM2.46258 11.4954L2.85446 12.1349H2.85446L2.46258 11.4954ZM1.91235 12.0457L2.55183 12.4375L1.91235 12.0457ZM19.0834 5.9165C19.0834 5.50229 18.7476 5.1665 18.3334 5.1665C17.9192 5.1665 17.5834 5.50229 17.5834 5.9165H19.0834ZM18.0878 7.954L18.7273 8.34588H18.7273L18.0878 7.954ZM17.5376 8.50424L17.9295 9.14372L17.5376 8.50424ZM17.1397 2.0349L16.7478 2.67438L17.1397 2.0349ZM12.0459 1.9121L12.4378 2.55158L12.0459 1.9121ZM11.4957 2.46234L12.1352 2.85421V2.85421L11.4957 2.46234ZM14.4729 5.58235L14.0389 6.19402L14.4729 5.58235ZM14.4176 5.52699L13.8059 5.961L14.4176 5.52699ZM15.1659 5.52699L15.7776 5.961L15.1659 5.52699ZM15.1106 5.58235L15.5446 6.19402L15.1106 5.58235ZM15.1106 4.83399L15.5446 4.22232L15.1106 4.83399ZM15.1659 4.88935L15.7776 4.45534L15.1659 4.88935ZM14.4729 4.83399L14.0389 4.22232L14.4729 4.83399ZM14.4176 4.88935L13.8059 4.45534L14.4176 4.88935ZM10.5001 18.3332C10.5001 18.7474 10.8359 19.0832 11.2501 19.0832C11.6643 19.0832 12.0001 18.7474 12.0001 18.3332H10.5001ZM11.9908 11.5307L12.4075 12.1543L11.9908 11.5307ZM11.531 11.9906L10.9074 11.5739L11.531 11.9906ZM19.0834 11.2498C19.0834 10.8356 18.7476 10.4998 18.3334 10.4998C17.9192 10.4998 17.5834 10.8356 17.5834 11.2498H19.0834ZM17.3046 18.2063L17.5916 18.8992H17.5916L17.3046 18.2063ZM18.2065 17.3043L17.5136 17.0173V17.0173L18.2065 17.3043ZM8.00008 4.49984V5.4165H9.50008V4.49984H8.00008ZM5.41675 7.99984H4.50008V9.49984H5.41675V7.99984ZM4.50008 7.99984C3.93999 7.99984 3.57258 7.99905 3.29344 7.97251C3.02545 7.94702 2.9172 7.90321 2.85446 7.86476L2.07071 9.14372C2.40875 9.35087 2.77367 9.42985 3.15146 9.46577C3.51808 9.50063 3.96903 9.49984 4.50008 9.49984V7.99984ZM0.916748 5.9165C0.916748 6.44755 0.915957 6.89851 0.950815 7.26513C0.986735 7.64291 1.06572 8.00784 1.27287 8.34588L2.55183 7.56213C2.51338 7.49938 2.46956 7.39113 2.44408 7.12315C2.41754 6.844 2.41675 6.4766 2.41675 5.9165H0.916748ZM2.85446 7.86476C2.73112 7.78917 2.62741 7.68547 2.55183 7.56213L1.27287 8.34588C1.47214 8.67105 1.74553 8.94445 2.07071 9.14372L2.85446 7.86476ZM8.00008 5.4165C8.00008 6.22338 7.99849 6.75309 7.94575 7.14535C7.89591 7.51605 7.8131 7.64985 7.7316 7.73135L8.79226 8.79201C9.19891 8.38536 9.36017 7.88225 9.43237 7.34523C9.50167 6.82978 9.50008 6.18098 9.50008 5.4165H8.00008ZM5.41675 9.49984C6.18122 9.49984 6.83002 9.50143 7.34547 9.43213C7.88249 9.35993 8.3856 9.19867 8.79226 8.79201L7.7316 7.73135C7.6501 7.81285 7.51629 7.89567 7.1456 7.94551C6.75333 7.99824 6.22362 7.99984 5.41675 7.99984V9.49984ZM5.91675 2.4165C6.47684 2.4165 6.84425 2.4173 7.12339 2.44384C7.39138 2.46932 7.49963 2.51313 7.56237 2.55158L8.34612 1.27262C8.00808 1.06547 7.64316 0.986491 7.26537 0.950571C6.89875 0.915713 6.4478 0.916504 5.91675 0.916504V2.4165ZM9.50008 4.49984C9.50008 3.96879 9.50087 3.51783 9.46601 3.15121C9.43009 2.77343 9.35111 2.4085 9.14396 2.07047L7.865 2.85421C7.90345 2.91696 7.94727 3.02521 7.97275 3.29319C7.99929 3.57234 8.00008 3.93974 8.00008 4.49984H9.50008ZM7.56237 2.55158C7.68571 2.62717 7.78942 2.73087 7.865 2.85421L9.14396 2.07047C8.94469 1.74529 8.6713 1.47189 8.34612 1.27262L7.56237 2.55158ZM5.91675 0.916504C5.11291 0.916504 4.45737 0.915713 3.92931 0.965921C3.39008 1.01719 2.90686 1.12687 2.46863 1.39542L3.25238 2.67438C3.41531 2.57453 3.64186 2.50002 4.07129 2.45919C4.51188 2.4173 5.08387 2.4165 5.91675 2.4165V0.916504ZM2.41675 5.9165C2.41675 5.08362 2.41754 4.51163 2.45943 4.07104C2.50026 3.64162 2.57478 3.41507 2.67463 3.25213L1.39567 2.46838C1.12712 2.90662 1.01744 3.38984 0.966165 3.92906C0.915957 4.45713 0.916748 5.11267 0.916748 5.9165H2.41675ZM2.46863 1.39542C2.03132 1.6634 1.66365 2.03108 1.39567 2.46838L2.67463 3.25213C2.81893 3.01666 3.0169 2.81868 3.25238 2.67438L2.46863 1.39542ZM5.20821 4.87545C5.16298 4.87545 5.13361 4.87542 5.10956 4.87493C5.08538 4.87444 5.08088 4.87368 5.08645 4.87427C5.0924 4.87491 5.12269 4.87832 5.16539 4.89173C5.21189 4.90634 5.26745 4.93099 5.32339 4.97068L4.45538 6.19402C4.63345 6.32037 4.81455 6.3538 4.92766 6.36585C5.02719 6.37644 5.13858 6.37545 5.20821 6.37545V4.87545ZM4.04093 5.20817C4.04093 5.27781 4.03994 5.38919 4.05054 5.48872C4.06258 5.60184 4.09602 5.78293 4.22236 5.961L5.4457 5.09299C5.48539 5.14893 5.51004 5.20449 5.52465 5.25099C5.53806 5.29369 5.54147 5.32398 5.54211 5.32993C5.5427 5.3355 5.54194 5.33101 5.54145 5.30682C5.54097 5.28278 5.54093 5.25341 5.54093 5.20817H4.04093ZM5.32339 4.97068C5.37075 5.00428 5.4121 5.04563 5.4457 5.09299L4.22236 5.961C4.28638 6.05122 4.36516 6.13 4.45538 6.19402L5.32339 4.97068ZM4.87549 5.20817C4.87549 5.25341 4.87546 5.28278 4.87497 5.30682C4.87448 5.33101 4.87372 5.3355 4.87432 5.32993C4.87495 5.32398 4.87836 5.29369 4.89177 5.25099C4.90638 5.20449 4.93103 5.14893 4.97072 5.09299L6.19406 5.961C6.32041 5.78293 6.35384 5.60184 6.36589 5.48872C6.37648 5.38919 6.37549 5.27781 6.37549 5.20817H4.87549ZM5.20821 6.37545C5.27785 6.37545 5.38923 6.37644 5.48876 6.36585C5.60188 6.3538 5.78297 6.32037 5.96104 6.19402L5.09303 4.97068C5.14897 4.93099 5.20453 4.90634 5.25103 4.89173C5.29373 4.87832 5.32402 4.87491 5.32997 4.87427C5.33554 4.87368 5.33105 4.87444 5.30687 4.87493C5.28282 4.87542 5.25345 4.87545 5.20821 4.87545V6.37545ZM4.97072 5.09299C5.00432 5.04563 5.04567 5.00428 5.09303 4.97068L5.96104 6.19402C6.05126 6.13 6.13004 6.05122 6.19406 5.961L4.97072 5.09299ZM5.20821 5.54089C5.25345 5.54089 5.28282 5.54093 5.30687 5.54141C5.33105 5.5419 5.33554 5.54266 5.32997 5.54207C5.32402 5.54143 5.29373 5.53802 5.25103 5.52461C5.20453 5.51 5.14897 5.48535 5.09303 5.44566L5.96104 4.22232C5.78297 4.09598 5.60188 4.06254 5.48876 4.0505C5.38923 4.0399 5.27785 4.04089 5.20821 4.04089V5.54089ZM6.37549 5.20817C6.37549 5.13854 6.37648 5.02715 6.36589 4.92762C6.35384 4.8145 6.32041 4.63341 6.19406 4.45534L4.97072 5.32335C4.93103 5.26741 4.90638 5.21185 4.89177 5.16535C4.87836 5.12265 4.87495 5.09236 4.87432 5.08641C4.87372 5.08084 4.87448 5.08533 4.87497 5.10952C4.87546 5.13356 4.87549 5.16294 4.87549 5.20817H6.37549ZM5.09303 5.44566C5.04567 5.41206 5.00432 5.37071 4.97072 5.32335L6.19406 4.45534C6.13004 4.36512 6.05126 4.28634 5.96104 4.22232L5.09303 5.44566ZM5.20821 4.04089C5.13858 4.04089 5.02719 4.0399 4.92766 4.0505C4.81455 4.06254 4.63345 4.09598 4.45538 4.22232L5.32339 5.44566C5.26745 5.48535 5.21189 5.51 5.16539 5.52461C5.12269 5.53802 5.0924 5.54143 5.08645 5.54207C5.08088 5.54266 5.08538 5.5419 5.10956 5.54141C5.13361 5.54093 5.16298 5.54089 5.20821 5.54089V4.04089ZM5.54093 5.20817C5.54093 5.16294 5.54097 5.13356 5.54145 5.10952C5.54194 5.08533 5.5427 5.08084 5.54211 5.08641C5.54147 5.09236 5.53806 5.12265 5.52465 5.16535C5.51004 5.21185 5.48539 5.26741 5.4457 5.32335L4.22236 4.45534C4.09602 4.63341 4.06258 4.8145 4.05054 4.92762C4.03994 5.02715 4.04093 5.13854 4.04093 5.20817H5.54093ZM4.45538 4.22232C4.36516 4.28634 4.28638 4.36512 4.22236 4.45534L5.4457 5.32335C5.4121 5.37071 5.37075 5.41206 5.32339 5.44566L4.45538 4.22232ZM5.20841 14.4588C5.16318 14.4588 5.13381 14.4587 5.10976 14.4583C5.08558 14.4578 5.08108 14.457 5.08665 14.4576C5.0926 14.4582 5.12289 14.4617 5.16559 14.4751C5.21209 14.4897 5.26766 14.5143 5.3236 14.554L4.45559 15.7774C4.63366 15.9037 4.81475 15.9371 4.92787 15.9492C5.02739 15.9598 5.13878 15.9588 5.20841 15.9588V14.4588ZM4.04114 14.7915C4.04114 14.8611 4.04014 14.9725 4.05074 15.0721C4.06278 15.1852 4.09622 15.3663 4.22257 15.5443L5.44591 14.6763C5.4856 14.7323 5.51025 14.7878 5.52485 14.8343C5.53826 14.877 5.54168 14.9073 5.54231 14.9133C5.5429 14.9188 5.54215 14.9143 5.54166 14.8902C5.54117 14.8661 5.54114 14.8367 5.54114 14.7915H4.04114ZM5.3236 14.554C5.37096 14.5876 5.41231 14.629 5.44591 14.6763L4.22257 15.5443C4.28658 15.6345 4.36535 15.7133 4.45559 15.7774L5.3236 14.554ZM4.87569 14.7915C4.87569 14.8367 4.87566 14.8661 4.87517 14.8902C4.87468 14.9143 4.87393 14.9188 4.87452 14.9133C4.87515 14.9073 4.87857 14.877 4.89198 14.8343C4.90658 14.7878 4.93123 14.7323 4.97092 14.6763L6.19426 15.5443C6.32061 15.3663 6.35405 15.1852 6.36609 15.0721C6.37669 14.9725 6.37569 14.8611 6.37569 14.7915H4.87569ZM5.20841 15.9588C5.27805 15.9588 5.38944 15.9598 5.48896 15.9492C5.60208 15.9371 5.78317 15.9037 5.96124 15.7774L5.09323 14.554C5.14917 14.5143 5.20474 14.4897 5.25124 14.4751C5.29394 14.4617 5.32422 14.4582 5.33018 14.4576C5.33575 14.457 5.33125 14.4578 5.30707 14.4583C5.28302 14.4587 5.25365 14.4588 5.20841 14.4588V15.9588ZM4.97092 14.6763C5.00452 14.629 5.04587 14.5876 5.09323 14.554L5.96124 15.7774C6.05148 15.7133 6.13025 15.6345 6.19426 15.5443L4.97092 14.6763ZM5.20841 15.1242C5.25365 15.1242 5.28302 15.1243 5.30707 15.1247C5.33125 15.1252 5.33574 15.126 5.33017 15.1254C5.32422 15.1248 5.29394 15.1214 5.25124 15.1079C5.20474 15.0933 5.14917 15.0687 5.09323 15.029L5.96124 13.8057C5.78317 13.6793 5.60208 13.6459 5.48896 13.6338C5.38944 13.6232 5.27805 13.6242 5.20841 13.6242V15.1242ZM6.37569 14.7915C6.37569 14.7219 6.37669 14.6105 6.36609 14.511C6.35405 14.3978 6.32061 14.2167 6.19426 14.0387L4.97092 14.9067C4.93123 14.8507 4.90658 14.7952 4.89198 14.7487C4.87857 14.706 4.87515 14.6757 4.87452 14.6697C4.87393 14.6642 4.87468 14.6687 4.87517 14.6929C4.87566 14.7169 4.87569 14.7463 4.87569 14.7915H6.37569ZM5.09323 15.029C5.04588 14.9954 5.00452 14.954 4.97092 14.9067L6.19426 14.0387C6.13025 13.9485 6.05147 13.8697 5.96124 13.8057L5.09323 15.029ZM5.20841 13.6242C5.13878 13.6242 5.02739 13.6232 4.92787 13.6338C4.81475 13.6459 4.63366 13.6793 4.45559 13.8057L5.3236 15.029C5.26766 15.0687 5.21209 15.0933 5.16559 15.1079C5.12289 15.1214 5.09261 15.1248 5.08666 15.1254C5.08109 15.126 5.08558 15.1252 5.10976 15.1247C5.13381 15.1243 5.16318 15.1242 5.20841 15.1242V13.6242ZM5.54114 14.7915C5.54114 14.7463 5.54117 14.7169 5.54166 14.6929C5.54215 14.6687 5.5429 14.6642 5.54231 14.6697C5.54168 14.6757 5.53826 14.706 5.52485 14.7487C5.51025 14.7952 5.4856 14.8507 5.44591 14.9067L4.22257 14.0387C4.09622 14.2167 4.06278 14.3978 4.05074 14.511C4.04014 14.6105 4.04114 14.7219 4.04114 14.7915H5.54114ZM4.45559 13.8057C4.36536 13.8697 4.28658 13.9485 4.22257 14.0387L5.44591 14.9067C5.41231 14.954 5.37096 14.9954 5.3236 15.029L4.45559 13.8057ZM14.7084 14.7915C14.7084 14.7058 14.7084 14.6405 14.7095 14.5847C14.7106 14.5288 14.7126 14.496 14.7146 14.4762C14.7186 14.4369 14.7182 14.5028 14.6623 14.5865L13.4151 13.7531C13.2789 13.957 13.2384 14.1665 13.2223 14.3244C13.2075 14.4698 13.2084 14.6399 13.2084 14.7915H14.7084ZM14.6623 14.5865C14.6423 14.6164 14.6166 14.642 14.5867 14.662L13.7534 13.4148C13.6195 13.5043 13.5045 13.6192 13.4151 13.7531L14.6623 14.5865ZM14.5867 14.662C14.503 14.718 14.4371 14.7184 14.4764 14.7144C14.4963 14.7123 14.5291 14.7104 14.585 14.7093C14.6408 14.7082 14.706 14.7082 14.7917 14.7082V13.2082C14.6402 13.2082 14.47 13.2073 14.3246 13.2221C14.1667 13.2381 13.9572 13.2786 13.7534 13.4148L14.5867 14.662ZM14.7917 14.7082C14.8775 14.7082 14.9427 14.7082 14.9985 14.7093C15.0544 14.7104 15.0872 14.7123 15.1071 14.7144C15.1464 14.7184 15.0805 14.718 14.9968 14.662L15.8301 13.4148C15.6263 13.2786 15.4168 13.2381 15.2589 13.2221C15.1135 13.2073 14.9433 13.2082 14.7917 13.2082V14.7082ZM14.9968 14.662C14.9669 14.642 14.9412 14.6164 14.9212 14.5865L16.1684 13.7531C16.079 13.6192 15.964 13.5043 15.8301 13.4148L14.9968 14.662ZM14.9212 14.5865C14.8653 14.5028 14.8649 14.4369 14.8689 14.4762C14.8709 14.496 14.8729 14.5288 14.874 14.5847C14.8751 14.6405 14.8751 14.7058 14.8751 14.7915H16.3751C16.3751 14.6399 16.376 14.4698 16.3612 14.3244C16.3451 14.1665 16.3046 13.957 16.1684 13.7531L14.9212 14.5865ZM14.8751 14.7915C14.8751 14.8772 14.8751 14.9425 14.874 14.9983C14.8729 15.0542 14.8709 15.087 14.8689 15.1068C14.8649 15.1461 14.8653 15.0802 14.9212 14.9965L16.1684 15.8299C16.3046 15.6261 16.3451 15.4165 16.3612 15.2586C16.376 15.1132 16.3751 14.9431 16.3751 14.7915H14.8751ZM14.9212 14.9965C14.9412 14.9666 14.9669 14.941 14.9968 14.921L15.8301 16.1682C15.964 16.0787 16.079 15.9638 16.1684 15.8299L14.9212 14.9965ZM14.9968 14.921C15.0805 14.865 15.1464 14.8647 15.1071 14.8687C15.0872 14.8707 15.0544 14.8726 14.9985 14.8737C14.9427 14.8748 14.8775 14.8748 14.7917 14.8748V16.3748C14.9433 16.3748 15.1135 16.3757 15.2589 16.361C15.4168 16.3449 15.6263 16.3044 15.8301 16.1682L14.9968 14.921ZM14.7917 14.8748C14.706 14.8748 14.6408 14.8748 14.585 14.8737C14.5291 14.8726 14.4963 14.8707 14.4764 14.8687C14.4371 14.8647 14.503 14.865 14.5867 14.921L13.7534 16.1682C13.9572 16.3044 14.1667 16.3449 14.3246 16.361C14.47 16.3757 14.6402 16.3748 14.7917 16.3748V14.8748ZM14.5867 14.921C14.6166 14.941 14.6423 14.9666 14.6623 14.9965L13.4151 15.8299C13.5045 15.9638 13.6195 16.0787 13.7534 16.1682L14.5867 14.921ZM14.6623 14.9965C14.7182 15.0802 14.7186 15.1461 14.7146 15.1068C14.7126 15.087 14.7106 15.0542 14.7095 14.9983C14.7084 14.9425 14.7084 14.8772 14.7084 14.7915H13.2084C13.2084 14.9431 13.2075 15.1132 13.2223 15.2586C13.2384 15.4165 13.2789 15.6261 13.4151 15.8299L14.6623 14.9965ZM4.50008 11.9998H5.41675V10.4998H4.50008V11.9998ZM8.00008 14.5832V15.4998H9.50008V14.5832H8.00008ZM5.91675 17.5832C5.08387 17.5832 4.51188 17.5824 4.07129 17.5405C3.64186 17.4997 3.41531 17.4251 3.25238 17.3253L2.46863 18.6043C2.90686 18.8728 3.39008 18.9825 3.92931 19.0338C4.45737 19.084 5.11291 19.0832 5.91675 19.0832V17.5832ZM3.25238 17.3253C3.0169 17.181 2.81893 16.983 2.67463 16.7475L1.39567 17.5313C1.66365 17.9686 2.03132 18.3363 2.46863 18.6043L3.25238 17.3253ZM8.00008 15.4998C8.00008 16.0599 7.99929 16.4273 7.97275 16.7065C7.94727 16.9745 7.90345 17.0827 7.865 17.1455L9.14396 17.9292C9.35111 17.5912 9.43009 17.2262 9.46601 16.8485C9.50087 16.4818 9.50008 16.0309 9.50008 15.4998H8.00008ZM5.91675 19.0832C6.4478 19.0832 6.89875 19.084 7.26537 19.0491C7.64316 19.0132 8.00808 18.9342 8.34612 18.7271L7.56237 17.4481C7.49963 17.4865 7.39138 17.5304 7.12339 17.5558C6.84425 17.5824 6.47684 17.5832 5.91675 17.5832V19.0832ZM7.865 17.1455C7.78942 17.2688 7.68572 17.3725 7.56237 17.4481L8.34612 18.7271C8.67129 18.5278 8.94469 18.2544 9.14396 17.9292L7.865 17.1455ZM5.41675 11.9998C6.22362 11.9998 6.75333 12.0014 7.1456 12.0542C7.51629 12.104 7.6501 12.1868 7.7316 12.2683L8.79226 11.2077C8.3856 10.801 7.88249 10.6397 7.34547 10.5675C6.83002 10.4982 6.18122 10.4998 5.41675 10.4998V11.9998ZM9.50008 14.5832C9.50008 13.8187 9.50167 13.1699 9.43237 12.6544C9.36017 12.1174 9.19891 11.6143 8.79226 11.2077L7.7316 12.2683C7.8131 12.3498 7.89591 12.4836 7.94575 12.8543C7.99849 13.2466 8.00008 13.7763 8.00008 14.5832H9.50008ZM4.50008 10.4998C3.96903 10.4998 3.51808 10.499 3.15146 10.5339C2.77367 10.5698 2.40875 10.6488 2.07071 10.856L2.85446 12.1349C2.9172 12.0965 3.02545 12.0527 3.29344 12.0272C3.57258 12.0006 3.93999 11.9998 4.50008 11.9998V10.4998ZM2.41675 14.0832C2.41675 13.5231 2.41754 13.1557 2.44408 12.8765C2.46956 12.6085 2.51338 12.5003 2.55183 12.4375L1.27287 11.6538C1.06572 11.9918 0.986735 12.3568 0.950815 12.7345C0.915957 13.1012 0.916748 13.5521 0.916748 14.0832H2.41675ZM2.07071 10.856C1.74553 11.0552 1.47214 11.3286 1.27287 11.6538L2.55183 12.4375C2.62741 12.3142 2.73112 12.2105 2.85446 12.1349L2.07071 10.856ZM15.5001 7.99984H14.5834V9.49984H15.5001V7.99984ZM12.0001 5.4165V4.49984H10.5001V5.4165H12.0001ZM14.5834 7.99984C13.7765 7.99984 13.2468 7.99824 12.8546 7.94551C12.4839 7.89567 12.3501 7.81285 12.2686 7.73135L11.2079 8.79201C11.6146 9.19867 12.1177 9.35993 12.6547 9.43213C13.1701 9.50143 13.8189 9.49984 14.5834 9.49984V7.99984ZM10.5001 5.4165C10.5001 6.18098 10.4985 6.82978 10.5678 7.34523C10.64 7.88225 10.8013 8.38536 11.2079 8.79201L12.2686 7.73135C12.1871 7.64985 12.1043 7.51605 12.0544 7.14535C12.0017 6.75309 12.0001 6.22338 12.0001 5.4165H10.5001ZM17.5834 5.9165C17.5834 6.4766 17.5826 6.844 17.5561 7.12315C17.5306 7.39113 17.4868 7.49938 17.4483 7.56213L18.7273 8.34588C18.9344 8.00784 19.0134 7.64291 19.0493 7.26513C19.0842 6.89851 19.0834 6.44755 19.0834 5.9165H17.5834ZM15.5001 9.49984C16.0311 9.49984 16.4821 9.50063 16.8487 9.46577C17.2265 9.42985 17.5914 9.35087 17.9295 9.14372L17.1457 7.86476C17.083 7.90321 16.9747 7.94702 16.7067 7.97251C16.4276 7.99905 16.0602 7.99984 15.5001 7.99984V9.49984ZM17.4483 7.56213C17.3728 7.68547 17.269 7.78917 17.1457 7.86476L17.9295 9.14372C18.2546 8.94445 18.528 8.67105 18.7273 8.34588L17.4483 7.56213ZM14.0834 2.4165C14.9163 2.4165 15.4883 2.4173 15.9289 2.45919C16.3583 2.50002 16.5848 2.57453 16.7478 2.67438L17.5315 1.39542C17.0933 1.12687 16.6101 1.01719 16.0709 0.965921C15.5428 0.915713 14.8872 0.916504 14.0834 0.916504V2.4165ZM16.7478 2.67438C16.9833 2.81868 17.1812 3.01666 17.3255 3.25213L18.6045 2.46838C18.3365 2.03108 17.9688 1.6634 17.5315 1.39542L16.7478 2.67438ZM14.0834 0.916504C13.5524 0.916504 13.1014 0.915713 12.7348 0.950571C12.357 0.986491 11.9921 1.06547 11.654 1.27262L12.4378 2.55158C12.5005 2.51313 12.6088 2.46932 12.8768 2.44384C13.1559 2.4173 13.5233 2.4165 14.0834 2.4165V0.916504ZM12.0001 4.49984C12.0001 3.93974 12.0009 3.57234 12.0274 3.29319C12.0529 3.02521 12.0967 2.91696 12.1352 2.85421L10.8562 2.07047C10.6491 2.4085 10.5701 2.77343 10.5341 3.15121C10.4993 3.51783 10.5001 3.96879 10.5001 4.49984H12.0001ZM11.654 1.27262C11.3289 1.47189 11.0555 1.74529 10.8562 2.07047L12.1352 2.85421C12.2107 2.73087 12.3144 2.62717 12.4378 2.55158L11.654 1.27262ZM14.7917 4.87545C14.7465 4.87545 14.7171 4.87542 14.6931 4.87493C14.6689 4.87444 14.6644 4.87368 14.67 4.87427C14.6759 4.87491 14.7062 4.87832 14.7489 4.89173C14.7954 4.90634 14.851 4.93099 14.9069 4.97068L14.0389 6.19402C14.217 6.32037 14.3981 6.3538 14.5112 6.36585C14.6107 6.37644 14.7221 6.37545 14.7917 6.37545V4.87545ZM13.6245 5.20817C13.6245 5.27781 13.6235 5.38919 13.6341 5.48872C13.6461 5.60184 13.6796 5.78293 13.8059 5.961L15.0292 5.09299C15.0689 5.14893 15.0936 5.20449 15.1082 5.25099C15.1216 5.29369 15.125 5.32398 15.1256 5.32993C15.1262 5.3355 15.1255 5.33101 15.125 5.30682C15.1245 5.28278 15.1245 5.25341 15.1245 5.20817H13.6245ZM14.9069 4.97068C14.9543 5.00428 14.9956 5.04563 15.0292 5.09299L13.8059 5.961C13.8699 6.05122 13.9487 6.13 14.0389 6.19402L14.9069 4.97068ZM14.459 5.20817C14.459 5.25341 14.459 5.28278 14.4585 5.30683C14.458 5.33101 14.4573 5.3355 14.4579 5.32993C14.4585 5.32398 14.4619 5.29369 14.4753 5.251C14.4899 5.20449 14.5146 5.14893 14.5543 5.09299L15.7776 5.961C15.9039 5.78293 15.9374 5.60183 15.9494 5.48872C15.96 5.38919 15.959 5.2778 15.959 5.20817H14.459ZM14.7917 6.37545C14.8614 6.37545 14.9728 6.37644 15.0723 6.36585C15.1854 6.3538 15.3665 6.32037 15.5446 6.19402L14.6766 4.97068C14.7325 4.93099 14.7881 4.90634 14.8346 4.89173C14.8773 4.87832 14.9076 4.87491 14.9135 4.87427C14.9191 4.87368 14.9146 4.87444 14.8904 4.87493C14.8664 4.87542 14.837 4.87545 14.7917 4.87545V6.37545ZM14.5543 5.09299C14.5879 5.04562 14.6292 5.00427 14.6766 4.97068L15.5446 6.19402C15.6348 6.13001 15.7136 6.05123 15.7776 5.961L14.5543 5.09299ZM14.7917 5.54089C14.837 5.54089 14.8664 5.54093 14.8904 5.54141C14.9146 5.5419 14.9191 5.54266 14.9135 5.54207C14.9076 5.54143 14.8773 5.53802 14.8346 5.52461C14.7881 5.51 14.7325 5.48535 14.6766 5.44566L15.5446 4.22232C15.3665 4.09598 15.1854 4.06254 15.0723 4.0505C14.9728 4.0399 14.8614 4.04089 14.7917 4.04089V5.54089ZM15.959 5.20817C15.959 5.13854 15.96 5.02715 15.9494 4.92763C15.9374 4.81451 15.9039 4.63342 15.7776 4.45534L14.5543 5.32335C14.5146 5.26741 14.4899 5.21185 14.4753 5.16535C14.4619 5.12265 14.4585 5.09236 14.4579 5.08641C14.4573 5.08084 14.458 5.08533 14.4585 5.10952C14.459 5.13356 14.459 5.16293 14.459 5.20817H15.959ZM14.6766 5.44566C14.6292 5.41207 14.5879 5.37072 14.5543 5.32335L15.7776 4.45534C15.7136 4.36511 15.6348 4.28633 15.5446 4.22232L14.6766 5.44566ZM14.7917 4.04089C14.7221 4.04089 14.6107 4.0399 14.5112 4.0505C14.3981 4.06254 14.217 4.09598 14.0389 4.22232L14.9069 5.44566C14.851 5.48535 14.7954 5.51 14.7489 5.52461C14.7062 5.53802 14.6759 5.54143 14.67 5.54207C14.6644 5.54266 14.6689 5.5419 14.6931 5.54141C14.7171 5.54093 14.7465 5.54089 14.7917 5.54089V4.04089ZM15.1245 5.20817C15.1245 5.16294 15.1245 5.13356 15.125 5.10952C15.1255 5.08533 15.1262 5.08084 15.1256 5.08641C15.125 5.09236 15.1216 5.12265 15.1082 5.16535C15.0936 5.21185 15.0689 5.26741 15.0292 5.32335L13.8059 4.45534C13.6796 4.63341 13.6461 4.8145 13.6341 4.92762C13.6235 5.02715 13.6245 5.13854 13.6245 5.20817H15.1245ZM14.0389 4.22232C13.9487 4.28634 13.8699 4.36512 13.8059 4.45534L15.0292 5.32335C14.9956 5.37071 14.9543 5.41206 14.9069 5.44566L14.0389 4.22232ZM15.8334 10.4998H14.1667V11.9998H15.8334V10.4998ZM10.5001 15.8332V18.3332H12.0001V15.8332H10.5001ZM14.1667 10.4998C13.5972 10.4998 13.1135 10.4989 12.7216 10.5388C12.3172 10.5799 11.9281 10.6706 11.5741 10.9071L12.4075 12.1543C12.4739 12.1099 12.5876 12.0602 12.8734 12.0311C13.1718 12.0007 13.5659 11.9998 14.1667 11.9998V10.4998ZM12.0001 14.1665C12.0001 13.5657 12.001 13.1716 12.0313 12.8732C12.0604 12.5873 12.1102 12.4736 12.1546 12.4072L10.9074 11.5739C10.6709 11.9278 10.5802 12.3169 10.539 12.7214C10.4992 13.1133 10.5001 13.5969 10.5001 14.1665H12.0001ZM11.5741 10.9071C11.3102 11.0834 11.0837 11.31 10.9074 11.5739L12.1546 12.4072C12.2214 12.3071 12.3074 12.2212 12.4075 12.1543L11.5741 10.9071ZM14.1667 19.0832H15.8334V17.5832H14.1667V19.0832ZM19.0834 14.1665V11.2498H17.5834V14.1665H19.0834ZM15.8334 19.0832C16.2114 19.0832 16.5325 19.0836 16.7964 19.0656C17.067 19.0471 17.3318 19.0068 17.5916 18.8992L17.0175 17.5134C16.971 17.5327 16.8885 17.5558 16.6943 17.5691C16.4933 17.5828 16.232 17.5832 15.8334 17.5832V19.0832ZM17.5834 15.8332C17.5834 16.2317 17.583 16.4931 17.5693 16.694C17.556 16.8883 17.5329 16.9708 17.5136 17.0173L18.8995 17.5913C19.0071 17.3316 19.0474 17.0668 19.0658 16.7962C19.0838 16.5323 19.0834 16.2112 19.0834 15.8332H17.5834ZM17.5916 18.8992C18.1837 18.6539 18.6542 18.1835 18.8995 17.5913L17.5136 17.0173C17.4206 17.2419 17.2422 17.4204 17.0175 17.5134L17.5916 18.8992Z" fill="#8F9BB3"/>
</g>
<defs>
<clipPath id="clip0_700_22385">
<rect width="20" height="20" fill="white"/>
</clipPath>
</defs>
</svg>
