<svg viewBox="0 0 20 20" fill="none" xmlns="http://www.w3.org/2000/svg">
<path d="M3.06659 9.44444H2.31659H3.06659ZM3.06659 10.8333L2.53835 11.3657C2.83076 11.6559 3.30242 11.6559 3.59483 11.3657L3.06659 10.8333ZM4.99468 9.97685C5.28872 9.68511 5.29058 9.21024 4.99884 8.9162C4.7071 8.62216 4.23223 8.6203 3.93819 8.91204L4.99468 9.97685ZM2.19499 8.91204C1.90095 8.6203 1.42608 8.62216 1.13434 8.9162C0.842598 9.21024 0.844464 9.68511 1.13851 9.97685L2.19499 8.91204ZM15.4066 6.22612C15.6235 6.57899 16.0854 6.68918 16.4383 6.47225C16.7911 6.25532 16.9013 5.79341 16.6844 5.44054L15.4066 6.22612ZM14.1432 2.9001C13.7904 2.683 13.3285 2.79297 13.1114 3.14573C12.8943 3.49849 13.0042 3.96046 13.357 4.17756L14.1432 2.9001ZM10.38 3.25768C10.7938 3.27795 11.1456 2.959 11.1658 2.54528C11.1861 2.13156 10.8672 1.77975 10.4535 1.75948L10.38 3.25768ZM10.0658 1.75C5.7916 1.75 2.31659 5.18938 2.31659 9.44444H3.81659C3.81659 6.02889 6.60889 3.25 10.0658 3.25V1.75ZM2.31659 9.44444L2.31659 10.8333H3.81659L3.81659 9.44444H2.31659ZM3.59483 11.3657L4.99468 9.97685L3.93819 8.91204L2.53835 10.3009L3.59483 11.3657ZM3.59483 10.3009L2.19499 8.91204L1.13851 9.97685L2.53835 11.3657L3.59483 10.3009ZM16.6844 5.44054C16.0497 4.40817 15.1774 3.53661 14.1432 2.9001L13.357 4.17756C14.1919 4.69139 14.8955 5.39477 15.4066 6.22612L16.6844 5.44054ZM10.4535 1.75948C10.325 1.75318 10.1957 1.75 10.0658 1.75V3.25C10.1712 3.25 10.276 3.25258 10.38 3.25768L10.4535 1.75948Z" fill="#8F9BB3"/>
<path d="M9.90219 17.4998V18.2498V17.4998ZM16.9282 10.5554H17.6782H16.9282ZM16.9282 9.1665L17.4554 8.63309C17.1632 8.34431 16.6931 8.34431 16.4009 8.63309L16.9282 9.1665ZM14.9957 10.022C14.7011 10.3132 14.6984 10.788 14.9896 11.0826C15.2807 11.3772 15.7556 11.38 16.0502 11.0888L14.9957 10.022ZM17.8061 11.0888C18.1007 11.38 18.5756 11.3772 18.8668 11.0826C19.158 10.788 19.1552 10.3132 18.8606 10.022L17.8061 11.0888ZM4.53791 13.7726C4.32037 13.4201 3.85827 13.3107 3.50578 13.5283C3.15329 13.7458 3.04388 14.2079 3.26141 14.5604L4.53791 13.7726ZM9.61652 16.7435C9.20271 16.7253 8.85245 17.0459 8.83418 17.4598C8.81592 17.8736 9.13658 18.2238 9.55039 18.2421L9.61652 16.7435ZM5.86304 17.1315C6.21782 17.3453 6.67874 17.231 6.89251 16.8762C7.10629 16.5214 6.99199 16.0605 6.6372 15.8467L5.86304 17.1315ZM9.90219 18.2498C14.1885 18.2498 17.6782 14.8131 17.6782 10.5554H16.1782C16.1782 13.9683 13.3766 16.7498 9.90219 16.7498V18.2498ZM17.6782 10.5554V9.1665H16.1782V10.5554H17.6782ZM16.4009 8.63309L14.9957 10.022L16.0502 11.0888L17.4554 9.69992L16.4009 8.63309ZM16.4009 9.69992L17.8061 11.0888L18.8606 10.022L17.4554 8.63309L16.4009 9.69992ZM9.55039 18.2421C9.66706 18.2472 9.78434 18.2498 9.90219 18.2498V16.7498C9.80641 16.7498 9.71117 16.7477 9.61652 16.7435L9.55039 18.2421ZM3.26141 14.5604C3.90901 15.6098 4.80287 16.4927 5.86304 17.1315L6.6372 15.8467C5.78053 15.3306 5.05933 14.6176 4.53791 13.7726L3.26141 14.5604Z" fill="#8F9BB3"/>
</svg>
