<svg viewBox="0 0 25 24" fill="none" xmlns="http://www.w3.org/2000/svg">
<path d="M12.4999 22.6663C18.391 22.6663 23.1666 17.8907 23.1666 11.9997C23.1666 6.10864 18.391 1.33301 12.4999 1.33301C6.60888 1.33301 1.83325 6.10864 1.83325 11.9997C1.83325 17.8907 6.60888 22.6663 12.4999 22.6663Z" fill="url(#paint0_linear_848_82761)"/>
<path fill-rule="evenodd" clip-rule="evenodd" d="M6.66084 11.8876C9.77039 10.5328 11.8439 9.63968 12.8814 9.20816C15.8437 7.97605 16.4592 7.76203 16.8604 7.75496C16.9486 7.7534 17.1459 7.77527 17.2737 7.87897C17.3816 7.96654 17.4113 8.08482 17.4255 8.16784C17.4397 8.25086 17.4574 8.43998 17.4434 8.58775C17.2828 10.2744 16.5882 14.3675 16.2349 16.2565C16.0853 17.0559 15.7909 17.3239 15.5059 17.3501C14.8865 17.4071 14.4161 16.9408 13.8161 16.5475C12.8773 15.9321 12.347 15.549 11.4357 14.9485C10.3826 14.2545 11.0653 13.873 11.6655 13.2497C11.8225 13.0865 14.5518 10.6041 14.6046 10.3789C14.6112 10.3507 14.6173 10.2457 14.555 10.1903C14.4926 10.1349 14.4005 10.1538 14.3341 10.1689C14.2399 10.1903 12.7402 11.1816 9.83484 13.1427C9.40914 13.4351 9.02355 13.5775 8.67808 13.57C8.29723 13.5618 7.56461 13.3547 7.01999 13.1777C6.35199 12.9605 5.82108 12.8457 5.86731 12.4769C5.89139 12.2849 6.1559 12.0884 6.66084 11.8876Z" fill="white"/>
<defs>
<linearGradient id="paint0_linear_848_82761" x1="1068.5" y1="1.33301" x2="1068.5" y2="2118.84" gradientUnits="userSpaceOnUse">
<stop stop-color="#2AABEE"/>
<stop offset="1" stop-color="#229ED9"/>
</linearGradient>
</defs>
</svg>
