<svg viewBox="0 0 24 24" fill="none" xmlns="http://www.w3.org/2000/svg">
<path d="M16.7407 1.33301H7.25918C3.98638 1.33301 1.33325 3.98614 1.33325 7.25894V16.7404C1.33325 20.0132 3.98639 22.6663 7.25918 22.6663H16.7407C20.0135 22.6663 22.6666 20.0132 22.6666 16.7404V7.25893C22.6666 3.98614 20.0135 1.33301 16.7407 1.33301Z" fill="url(#paint0_linear_848_82755)"/>
<path d="M17.1785 13.3504C16.7992 13.3504 16.4792 13.0423 16.4792 12.6512C16.4792 12.2719 16.7874 11.9519 17.1785 11.9519C17.5577 11.9519 17.8777 12.2601 17.8777 12.6512C17.8659 13.0423 17.5577 13.3504 17.1785 13.3504ZM13.7059 13.3504C13.3266 13.3504 13.0066 13.0423 13.0066 12.6512C13.0066 12.2719 13.3148 11.9519 13.7059 11.9519C14.0851 11.9519 14.4051 12.2601 14.4051 12.6512C14.3933 13.0423 14.0851 13.3504 13.7059 13.3504ZM18.8496 17.3327C19.9518 16.5386 20.6511 15.3534 20.6511 14.0497C20.6511 11.6556 18.3163 9.71191 15.4363 9.71191C12.5563 9.71191 10.2214 11.6556 10.2214 14.0497C10.2214 16.4438 12.5563 18.3875 15.4363 18.3875C16.0288 18.3875 16.6096 18.3045 17.1429 18.1504C17.1903 18.1386 17.2377 18.1267 17.297 18.1267C17.3918 18.1267 17.4866 18.1623 17.5696 18.2097L18.7074 18.8734C18.7429 18.8971 18.7666 18.909 18.8022 18.909C18.897 18.909 18.98 18.826 18.98 18.7312C18.98 18.6838 18.9681 18.6482 18.9563 18.6008C18.9444 18.5771 18.814 18.0556 18.7192 17.7238C18.7074 17.6882 18.6955 17.6527 18.6955 17.6171C18.7074 17.4986 18.7548 17.3919 18.8496 17.3327Z" fill="white"/>
<path d="M11.6926 9.28642C11.2304 9.28642 10.863 8.91901 10.863 8.45679C10.863 7.99457 11.2304 7.62716 11.6926 7.62716C12.1548 7.62716 12.5222 7.99457 12.5222 8.45679C12.5222 8.91901 12.143 9.28642 11.6926 9.28642ZM7.52073 9.28642C7.05851 9.28642 6.6911 8.91901 6.6911 8.45679C6.6911 7.99457 7.05851 7.62716 7.52073 7.62716C7.98295 7.62716 8.35036 7.99457 8.35036 8.45679C8.35036 8.91901 7.98295 9.28642 7.52073 9.28642ZM9.60666 4.91309C6.15777 4.91309 3.34888 7.2479 3.34888 10.1279C3.34888 11.6923 4.19036 13.1146 5.50591 14.0627C5.61258 14.1338 5.68369 14.2642 5.68369 14.4064C5.68369 14.4538 5.67184 14.4894 5.65999 14.5368C5.55332 14.9279 5.3874 15.5561 5.37554 15.5916C5.36369 15.639 5.33999 15.6864 5.33999 15.7457C5.33999 15.8642 5.4348 15.959 5.55332 15.959C5.60073 15.959 5.63628 15.9472 5.67184 15.9235L7.0348 15.1294C7.14147 15.0701 7.24814 15.0346 7.36666 15.0346C7.42592 15.0346 7.49703 15.0464 7.55629 15.0583C8.19629 15.2361 8.88369 15.3427 9.5948 15.3427C9.71332 15.3427 9.81999 15.3427 9.93851 15.3309C9.80814 14.9279 9.72518 14.5012 9.72518 14.0509C9.72518 11.4316 12.2733 9.29827 15.4259 9.29827C15.5444 9.29827 15.6511 9.29827 15.7696 9.31012C15.3074 6.82123 12.7237 4.91309 9.60666 4.91309Z" fill="white"/>
<defs>
<linearGradient id="paint0_linear_848_82755" x1="12.0007" y1="22.6267" x2="12.0007" y2="1.35656" gradientUnits="userSpaceOnUse">
<stop offset="0.0145433" stop-color="#07C160"/>
<stop offset="1" stop-color="#02E36F"/>
</linearGradient>
</defs>
</svg>
