<svg viewBox="0 0 21 20" fill="none" xmlns="http://www.w3.org/2000/svg">
<path d="M2.58334 5.41683C2.58334 3.57588 4.07573 2.0835 5.91668 2.0835C7.75763 2.0835 9.25001 3.57588 9.25001 5.41683V7.63905C9.25001 7.89738 9.25001 8.02654 9.22161 8.13251C9.14456 8.42009 8.91994 8.64471 8.63236 8.72177C8.52639 8.75016 8.39722 8.75016 8.1389 8.75016H5.91668C4.07573 8.75016 2.58334 7.25778 2.58334 5.41683Z" stroke="#2E3A59" stroke-width="1.5"/>
<path d="M11.75 12.3613C11.75 12.1029 11.75 11.9738 11.7784 11.8678C11.8555 11.5802 12.0801 11.3556 12.3677 11.2786C12.4736 11.2502 12.6028 11.2502 12.8611 11.2502H15.0833C16.9243 11.2502 18.4167 12.7425 18.4167 14.5835C18.4167 16.4244 16.9243 17.9168 15.0833 17.9168C13.2424 17.9168 11.75 16.4244 11.75 14.5835V12.3613Z" stroke="#2E3A59" stroke-width="1.5"/>
<path d="M2.58334 14.5835C2.58334 12.7425 4.07573 11.2502 5.91668 11.2502H7.91668C8.38339 11.2502 8.61674 11.2502 8.795 11.341C8.9518 11.4209 9.07929 11.5484 9.15918 11.7052C9.25001 11.8834 9.25001 12.1168 9.25001 12.5835V14.5835C9.25001 16.4244 7.75763 17.9168 5.91668 17.9168C4.07573 17.9168 2.58334 16.4244 2.58334 14.5835Z" stroke="#2E3A59" stroke-width="1.5"/>
<path d="M11.75 5.41683C11.75 3.57588 13.2424 2.0835 15.0833 2.0835C16.9243 2.0835 18.4167 3.57588 18.4167 5.41683C18.4167 7.25778 16.9243 8.75016 15.0833 8.75016H12.7024C12.5918 8.75016 12.5365 8.75016 12.49 8.74492C12.1037 8.70139 11.7988 8.39648 11.7552 8.01013C11.75 7.96363 11.75 7.90835 11.75 7.79778V5.41683Z" stroke="#2E3A59" stroke-width="1.5"/>
</svg>
