<svg viewBox="0 0 17 16" fill="none" xmlns="http://www.w3.org/2000/svg">
<path d="M11.1653 13.196C10.3965 13.6427 9.56833 13.8947 8.73672 13.9734L11.1606 10.2448C11.9325 9.05877 12.0724 7.55381 11.4613 6.30626L13.8827 6.18121C14.7257 8.80662 13.6554 11.7572 11.1664 13.1953L11.1653 13.196ZM4.72553 9.47528C5.36275 10.728 6.59593 11.6029 7.98626 11.6951L6.88112 13.8599C4.18572 13.2791 2.16651 10.8767 2.16651 8.00016L2.16651 7.99959C2.16553 7.13561 2.35142 6.28536 2.70724 5.50576L4.7255 9.47521L4.72553 9.47528ZM5.05838 5.98994L3.73331 3.95478C4.8772 2.69704 6.4928 2.0069 8.14511 2.00016L8.14659 2.00015C9.16839 1.99295 10.2116 2.25333 11.1627 2.80309C11.9342 3.25143 12.5693 3.84198 13.0532 4.52178L8.61447 4.28851C8.61395 4.28848 8.61344 4.28845 8.61292 4.28842C7.20693 4.20666 5.83043 4.83983 5.05838 5.98994ZM8.16651 9.69078C7.23171 9.69078 6.47588 8.93495 6.47588 8.00016C6.47588 7.06403 7.23148 6.30953 8.16651 6.30953C9.1013 6.30953 9.85713 7.06536 9.85713 8.00016C9.85713 8.93495 9.1013 9.69078 8.16651 9.69078Z" />
</svg>
