<svg viewBox="0 0 15 14" fill="none" xmlns="http://www.w3.org/2000/svg">
<path d="M9.69137 0.112305H4.64194C4.01001 0.112305 3.49414 0.62932 3.49414 1.26003V12.7395C3.49414 13.3708 4.01001 13.8873 4.64194 13.8873H9.69137C10.3227 13.8873 10.8392 13.3708 10.8392 12.7395V1.26002C10.8392 0.629307 10.3227 0.112305 9.69137 0.112305ZM6.47784 1.03025H7.85547C7.98226 1.03025 8.08583 1.13317 8.08583 1.26002C8.08583 1.38754 7.98226 1.4898 7.85547 1.4898H6.47784C6.35162 1.4898 6.24928 1.38754 6.24928 1.26002C6.24928 1.13317 6.3516 1.03025 6.47784 1.03025ZM7.16606 13.4277C6.78605 13.4277 6.47733 13.12 6.47733 12.7395C6.47733 12.3589 6.78605 12.0501 7.16606 12.0501C7.54782 12.0501 7.85539 12.3589 7.85539 12.7395C7.8554 13.12 7.54784 13.4277 7.16606 13.4277ZM10.3813 11.5917H3.95369V2.40781H10.3813V11.5917Z" />
</svg>
