<svg  viewBox="0 0 17 16" fill="none" xmlns="http://www.w3.org/2000/svg">
<path d="M11.8448 6.8703C11.8385 5.80468 12.3213 5.00155 13.2963 4.40937C12.751 3.62812 11.926 3.19843 10.8385 3.11562C9.80881 3.03437 8.68225 3.71562 8.26975 3.71562C7.83381 3.71562 6.83694 3.14374 6.05256 3.14374C4.43381 3.16874 2.7135 4.43437 2.7135 7.00937C2.7135 7.7703 2.85256 8.55624 3.13069 9.36562C3.50256 10.4312 4.84319 13.0422 6.24163 13C6.97288 12.9828 7.49006 12.4812 8.44163 12.4812C9.36506 12.4812 9.84319 13 10.6588 13C12.0698 12.9797 13.2823 10.6062 13.6354 9.53749C11.7432 8.6453 11.8448 6.92499 11.8448 6.8703Z" />
<path d="M10.2026 2.10469C10.9948 1.16406 10.9229 0.307813 10.8994 0C10.1994 0.040625 9.39007 0.476563 8.92913 1.0125C8.42132 1.5875 8.12288 2.29844 8.18694 3.1C8.94319 3.15781 9.63382 2.76875 10.2026 2.10469Z" />
</svg>
