<svg viewBox="0 0 15 14" fill="none" xmlns="http://www.w3.org/2000/svg">
<g clip-path="url(#clip0_376_5438)">
<path d="M12.622 4.37842C12.1271 4.37842 11.717 4.77031 11.717 5.24618V8.62086C11.717 9.09673 12.1131 9.48894 12.622 9.48894C13.1167 9.48894 13.5267 9.09673 13.5267 8.62054V5.2465C13.5127 4.77063 13.1167 4.37873 12.622 4.37873V4.37842ZM1.70752 4.37842C1.2132 4.37842 0.802856 4.77031 0.802856 5.24586V8.62086C0.802856 9.09673 1.19857 9.48894 1.70752 9.48894C2.21647 9.48894 2.6125 9.09673 2.6125 8.62054V5.2465C2.6125 4.77063 2.21647 4.37873 1.70752 4.37873V4.37842ZM3.16376 4.40641V10.5806C3.16376 10.9445 3.47486 11.2525 3.87057 11.2525H4.67662V13.1286C4.67662 13.6048 5.07234 13.9967 5.58129 13.9967C6.07624 13.9967 6.48627 13.6048 6.48627 13.1286V11.2525H7.89989V13.1286C7.89989 13.6048 8.29592 13.9967 8.80487 13.9967C9.29919 13.9967 9.70953 13.6048 9.70953 13.1286V11.2525H10.5153C10.9113 11.2525 11.2224 10.9585 11.2224 10.5806V4.40609H3.16376V4.40641ZM9.07334 1.214L9.82277 0.205957C9.85077 0.135976 9.85077 0.0519989 9.78015 0.0240065C9.72353 -0.0179821 9.63892 0.0100103 9.59629 0.0659951L8.83286 1.11603C8.29777 0.923231 7.73353 0.823811 7.16477 0.822108C6.57088 0.822108 6.00563 0.920082 5.49667 1.11603L4.73325 0.0663132C4.69062 -0.00366778 4.60601 -0.0179821 4.54939 0.0240065C4.52185 0.0446246 4.50344 0.0751792 4.4981 0.109164C4.49275 0.143149 4.50088 0.177878 4.52076 0.205957L5.27019 1.21432C4.09705 1.73218 3.26301 2.71223 3.16376 3.86024H11.2084C11.0812 2.71191 10.2608 1.73218 9.07334 1.214ZM5.46836 2.81021C5.21389 2.81021 5.03003 2.62825 5.03003 2.39032C5.03003 2.15207 5.22788 1.97043 5.46836 1.97043C5.72284 1.97043 5.90638 2.15207 5.90638 2.39032C5.90638 2.62825 5.70853 2.81021 5.46836 2.81021ZM8.91779 2.81021C8.66332 2.81021 8.47946 2.62825 8.47946 2.39032C8.47946 2.15207 8.67763 1.97043 8.91779 1.97043C9.17227 1.97043 9.35613 2.15207 9.35613 2.39032C9.35613 2.62825 9.15827 2.81021 8.91779 2.81021Z" />
</g>
<defs>
<clipPath id="clip0_376_5438">
<rect width="14" height="14"  transform="translate(0.166626)"/>
</clipPath>
</defs>
</svg>
