<svg viewBox="0 0 17 16" fill="none" xmlns="http://www.w3.org/2000/svg">
<g clip-path="url(#clip0_376_13804)">
<path d="M16.1294 5.88059L15.909 7.06534C15.6518 5.08159 15.3303 4.0437 15.3303 4.0437C15.1467 3.27226 14.5864 2.7487 14.5864 2.7487C14.9263 3.12526 14.8803 4.06209 14.8803 4.06209C14.3569 2.87727 13.6221 2.4456 13.6221 2.4456C11.078 -0.0433345 8.0931 0.158728 8.0931 0.158728C4.26319 0.0668686 2.27943 2.72121 2.27943 2.72121C1.85698 2.33545 1.91207 1.72927 1.91207 1.72927C0.984413 2.73043 1.12219 4.39271 1.12219 4.39271L0.653726 5.33874C0.415022 5.64187 0.231288 6.94602 0.231288 6.94602V7.1204L0.176147 9.54513L0.277241 8.93899C0.828257 12.328 2.65601 13.6689 2.65601 13.6689C6.89916 17.3518 11.0596 15.2486 11.0596 15.2486C15.0364 13.8434 15.7161 9.73796 15.7161 9.73796C16.3222 7.8919 16.1294 5.88051 16.1294 5.88051V5.88057L16.1294 5.88059H16.1294ZM13.3557 5.21923C13.8149 5.67848 13.3191 8.25024 13.3191 8.25024L12.768 7.69909C12.9516 10.9687 11.9598 11.134 11.9598 11.134L12.1985 9.82988L12.1251 10.0687C9.7004 14.1465 5.91652 10.6748 5.91652 10.6748C7.45944 11.134 8.32277 10.4544 8.32277 10.4544C9.0574 9.79323 9.47999 9.81145 9.47999 9.81145C9.97594 9.88493 9.71877 9.35235 9.71877 9.35235C9.13099 8.63596 8.19419 8.89305 8.19419 8.89305C6.70638 9.64621 5.97162 9.02177 5.97162 9.02177C4.20812 7.95626 5.45727 7.25826 5.45727 7.25826C5.64107 7.18477 6.41252 7.53373 6.41252 7.53373C6.50424 7.25826 6.28383 6.39492 6.28383 6.39492L7.62483 5.45806L7.88191 5.18259L7.91858 4.77848L7.86344 4.59479L6.65113 4.57637C5.93476 4.70509 5.71427 3.91521 5.71427 3.91521C5.84287 2.9967 6.83485 2.37212 6.83485 2.37212C4.90597 2.50071 4.68563 3.32734 4.68563 3.32734C3.28962 3.12531 2.90388 3.40082 2.90388 3.40082L2.27933 2.73956L2.57332 2.99665L2.86716 2.83127C4.81426 0.755588 8.01022 0.663822 8.01022 0.663822C10.8574 0.865884 11.5922 1.60057 11.5922 1.60057C9.79202 1.36187 9.86554 1.60057 9.86554 1.60057C11.1513 1.74756 12.1432 2.3721 12.1432 2.3721C11.2248 2.31695 10.5451 2.59257 10.5451 2.59257C13.7597 3.34567 14.1455 5.93559 14.1455 5.93559C13.7046 4.94382 13.3556 5.21921 13.3556 5.21921H13.3557L13.3557 5.21923Z" />
</g>
<defs>
<clipPath id="clip0_376_13804">
<rect width="16" height="16" fill="white" transform="translate(0.166626)"/>
</clipPath>
</defs>
</svg>
