<svg viewBox="0 0 14 15" fill="none" xmlns="http://www.w3.org/2000/svg">
<path fill-rule="evenodd" clip-rule="evenodd" d="M6.96655 1.2876H7.03349C8.38005 1.28759 9.43533 1.28758 10.2587 1.39828C11.1015 1.51159 11.7665 1.74804 12.2884 2.27001C12.8104 2.79198 13.0469 3.457 13.1602 4.29976C13.2709 5.12313 13.2709 6.1784 13.2709 7.52496V7.5919C13.2709 8.93846 13.2709 9.99374 13.1602 10.8171C13.0469 11.6599 12.8104 12.3249 12.2884 12.8469C11.7665 13.3688 11.1015 13.6053 10.2587 13.7186C9.43533 13.8293 8.38005 13.8293 7.03349 13.8293H6.96655C5.61999 13.8293 4.56472 13.8293 3.74135 13.7186C2.89859 13.6053 2.23357 13.3688 1.7116 12.8469C1.18963 12.3249 0.953179 11.6599 0.839873 10.8171C0.729174 9.99374 0.72918 8.93846 0.729187 7.5919V7.52496C0.72918 6.1784 0.729174 5.12313 0.839873 4.29976C0.953179 3.457 1.18963 2.79198 1.7116 2.27001C2.23357 1.74804 2.89859 1.51159 3.74135 1.39828C4.56472 1.28758 5.61999 1.28759 6.96655 1.2876ZM3.85794 2.26548C3.11221 2.36574 2.66262 2.55643 2.33032 2.88873C1.99802 3.22103 1.80733 3.67062 1.70707 4.41635C1.60512 5.17467 1.60419 6.17113 1.60419 7.55843C1.60419 8.94573 1.60512 9.94219 1.70707 10.7005C1.80733 11.4462 1.99802 11.8958 2.33032 12.2281C2.66262 12.5604 3.11221 12.7511 3.85794 12.8514C4.61626 12.9533 5.61272 12.9543 7.00002 12.9543C8.38732 12.9543 9.38378 12.9533 10.1421 12.8514C10.8878 12.7511 11.3374 12.5604 11.6697 12.2281C12.002 11.8958 12.1927 11.4462 12.293 10.7005C12.3949 9.94219 12.3959 8.94573 12.3959 7.55843C12.3959 6.17113 12.3949 5.17467 12.293 4.41635C12.1927 3.67062 12.002 3.22103 11.6697 2.88873C11.3374 2.55643 10.8878 2.36574 10.1421 2.26548C9.38378 2.16353 8.38732 2.1626 7.00002 2.1626C5.61272 2.1626 4.61626 2.16353 3.85794 2.26548Z" fill="currentColor"/>
<path fill-rule="evenodd" clip-rule="evenodd" d="M4.68438 4.04074C4.85523 4.21159 4.85523 4.4886 4.68438 4.65946L4.55624 4.7876H4.66669C5.64638 4.7876 6.50732 5.29604 7.00002 6.06345C7.49272 5.29604 8.35366 4.7876 9.33335 4.7876H9.4438L9.31566 4.65946C9.14481 4.4886 9.14481 4.21159 9.31566 4.04074C9.48652 3.86988 9.76353 3.86988 9.93438 4.04074L10.8094 4.91574C10.9802 5.08659 10.9802 5.3636 10.8094 5.53446L9.93438 6.40946C9.76353 6.58031 9.48652 6.58031 9.31566 6.40946C9.14481 6.2386 9.14481 5.96159 9.31566 5.79074L9.4438 5.6626H9.33335C8.28631 5.6626 7.43752 6.51139 7.43752 7.55843V11.0584C7.43752 11.3001 7.24165 11.4959 7.00002 11.4959C6.7584 11.4959 6.56252 11.3001 6.56252 11.0584V7.55843C6.56252 6.51139 5.71373 5.6626 4.66669 5.6626H4.55624L4.68438 5.79074C4.85523 5.96159 4.85523 6.2386 4.68438 6.40946C4.51353 6.58031 4.23652 6.58031 4.06566 6.40946L3.19066 5.53446C3.01981 5.3636 3.01981 5.08659 3.19066 4.91574L4.06566 4.04074C4.23652 3.86988 4.51353 3.86988 4.68438 4.04074Z" fill="currentColor"/>
</svg>
