<svg viewBox="0 0 14 15" fill="none" xmlns="http://www.w3.org/2000/svg">
<path d="M5.25 3.62093C5.00838 3.62093 4.8125 3.81681 4.8125 4.05843C4.8125 4.30006 5.00838 4.49593 5.25 4.49593H8.75C8.99162 4.49593 9.1875 4.30006 9.1875 4.05843C9.1875 3.81681 8.99162 3.62093 8.75 3.62093H5.25Z" fill="#101113"/>
<path fill-rule="evenodd" clip-rule="evenodd" d="M6.96646 1.2876C5.75746 1.28759 4.80501 1.28758 4.06075 1.38873C3.29654 1.49259 2.68689 1.71033 2.20782 2.19459C1.72941 2.67819 1.51487 3.29252 1.41243 4.06275C1.31249 4.81415 1.31249 5.77613 1.3125 6.99906V9.97286C1.31249 10.8523 1.31249 11.5485 1.36851 12.0727C1.42386 12.5908 1.54261 13.0581 1.88174 13.3707C2.15382 13.6214 2.4979 13.7795 2.86513 13.8215C3.32449 13.8741 3.75339 13.6547 4.1759 13.3554C4.60345 13.0526 5.12211 12.5938 5.77648 12.015L5.79778 11.9962C6.10115 11.7279 6.30654 11.5468 6.47791 11.4215C6.64353 11.3004 6.74466 11.2566 6.82989 11.2394C6.9422 11.2168 7.0578 11.2168 7.17011 11.2394C7.25534 11.2566 7.35647 11.3004 7.52209 11.4215C7.69345 11.5468 7.89885 11.7279 8.20222 11.9962L8.22355 12.0151C8.87791 12.5938 9.39656 13.0526 9.8241 13.3554C10.2466 13.6547 10.6755 13.8741 11.1349 13.8215C11.5021 13.7795 11.8462 13.6214 12.1183 13.3707C12.4574 13.0581 12.5761 12.5908 12.6315 12.0727C12.6875 11.5485 12.6875 10.8523 12.6875 9.97288V6.99904C12.6875 5.77613 12.6875 4.81414 12.5876 4.06275C12.4851 3.29252 12.2706 2.67819 11.7922 2.19459C11.3131 1.71033 10.7035 1.49259 9.93925 1.38873C9.19499 1.28758 8.24254 1.28759 7.03354 1.2876H6.96646ZM2.82987 2.80996C3.11965 2.51704 3.51313 2.3462 4.17858 2.25576C4.8571 2.16355 5.75006 2.1626 7 2.1626C8.24994 2.1626 9.1429 2.16355 9.82142 2.25576C10.4869 2.3462 10.8804 2.51704 11.1701 2.80996C11.4606 3.10353 11.6304 3.50321 11.7202 4.17812C11.8116 4.86513 11.8125 5.7689 11.8125 7.03198V9.94479C11.8125 10.8585 11.8119 11.5077 11.7614 11.9798C11.7097 12.4635 11.6144 12.6451 11.5253 12.7272C11.3889 12.8529 11.2174 12.9313 11.0354 12.9522C10.9189 12.9655 10.7237 12.9204 10.3299 12.6414C9.94568 12.3693 9.46232 11.9426 8.78192 11.3408L8.76666 11.3273C8.48242 11.0759 8.24669 10.8674 8.03857 10.7152C7.82099 10.5561 7.60156 10.4338 7.3429 10.3817C7.11654 10.3361 6.88346 10.3361 6.6571 10.3817C6.39844 10.4338 6.17901 10.5561 5.96143 10.7152C5.75332 10.8674 5.51758 11.0759 5.23335 11.3273L5.21807 11.3408C4.53768 11.9426 4.05432 12.3693 3.67013 12.6414C3.27627 12.9204 3.08106 12.9655 2.9646 12.9522C2.78261 12.9313 2.6111 12.8529 2.47472 12.7272C2.38562 12.6451 2.29025 12.4635 2.23855 11.9798C2.18811 11.5077 2.1875 10.8585 2.1875 9.94479V7.03198C2.1875 5.7689 2.18841 4.86513 2.27979 4.17812C2.36955 3.50321 2.53944 3.10353 2.82987 2.80996Z" fill="#101113"/>
</svg>
