<svg viewBox="0 0 20 21" fill="none" xmlns="http://www.w3.org/2000/svg">
<path fill-rule="evenodd" clip-rule="evenodd" d="M4.68438 4.04074C4.85523 4.21159 4.85523 4.4886 4.68438 4.65946L4.55624 4.7876H4.66669C5.64638 4.7876 6.50732 5.29604 7.00002 6.06345C7.49272 5.29604 8.35366 4.7876 9.33335 4.7876H9.4438L9.31566 4.65946C9.14481 4.4886 9.14481 4.21159 9.31566 4.04074C9.48652 3.86988 9.76353 3.86988 9.93438 4.04074L10.8094 4.91574C10.9802 5.08659 10.9802 5.3636 10.8094 5.53446L9.93438 6.40946C9.76353 6.58031 9.48652 6.58031 9.31566 6.40946C9.14481 6.2386 9.14481 5.96159 9.31566 5.79074L9.4438 5.6626H9.33335C8.28631 5.6626 7.43752 6.51139 7.43752 7.55843V11.0584C7.43752 11.3001 7.24165 11.4959 7.00002 11.4959C6.7584 11.4959 6.56252 11.3001 6.56252 11.0584V7.55843C6.56252 6.51139 5.71373 5.6626 4.66669 5.6626H4.55624L4.68438 5.79074C4.85523 5.96159 4.85523 6.2386 4.68438 6.40946C4.51353 6.58031 4.23652 6.58031 4.06566 6.40946L3.19066 5.53446C3.01981 5.3636 3.01981 5.08659 3.19066 4.91574L4.06566 4.04074C4.23652 3.86988 4.51353 3.86988 4.68438 4.04074Z" fill="currentColor"/>
<path d="M10.9473 13.4942L10.4183 14.0258L10.9473 13.4942ZM10.1628 12.8814L9.99706 13.6128L9.99706 13.6128L10.1628 12.8814ZM9.05261 13.4942L9.58162 14.0258H9.58162L9.05261 13.4942ZM9.8371 12.8814L10.0029 13.6128L10.0029 13.6128L9.8371 12.8814ZM6.93852 14.4802L6.3987 15.0009L6.3987 15.0009L6.93852 14.4802ZM7.40622 14.7216L7.50198 13.9777H7.50198L7.40622 14.7216ZM13.0614 14.4802L13.6012 15.0009L13.6012 15.0009L13.0614 14.4802ZM12.5937 14.7216L12.4979 13.9777H12.4979L12.5937 14.7216ZM12.5833 10.1824V12.263H14.0833V10.1824H12.5833ZM7.41663 12.263V10.1824H5.91663V12.263H7.41663ZM11.4763 12.9625C11.2979 12.7851 11.1274 12.6142 10.9719 12.4863C10.8089 12.3522 10.6007 12.2116 10.3286 12.1499L9.99706 13.6128C9.94333 13.6007 9.93866 13.5787 10.0189 13.6447C10.1067 13.7169 10.2192 13.8278 10.4183 14.0258L11.4763 12.9625ZM9.58162 14.0258C9.78068 13.8278 9.89319 13.7169 9.98099 13.6447C10.0613 13.5787 10.0566 13.6007 10.0029 13.6128L9.67134 12.1499C9.39927 12.2116 9.19106 12.3522 9.02804 12.4863C8.87254 12.6142 8.70197 12.7851 8.5236 12.9625L9.58162 14.0258ZM10.3286 12.1499C10.1119 12.1008 9.88798 12.1008 9.67134 12.1499L10.0029 13.6128C10.0024 13.6129 10.0014 13.6131 9.99996 13.6131C9.99856 13.6131 9.99752 13.6129 9.99706 13.6128L10.3286 12.1499ZM5.91663 12.263C5.91663 12.8921 5.9158 13.4188 5.95397 13.8207C5.98952 14.1949 6.07045 14.6606 6.3987 15.0009L7.47834 13.9596C7.5347 14.018 7.47967 14.0201 7.44725 13.6788C7.41745 13.3651 7.41663 12.9241 7.41663 12.263H5.91663ZM8.5236 12.9625C8.08321 13.4008 7.79779 13.6832 7.57891 13.8576C7.33453 14.0523 7.35448 13.9587 7.50198 13.9777L7.31047 15.4654C7.82356 15.5315 8.23978 15.249 8.51372 15.0307C8.81317 14.7921 9.16815 14.4373 9.58162 14.0258L8.5236 12.9625ZM6.3987 15.0009C6.63877 15.2498 6.95601 15.4198 7.31047 15.4654L7.50198 13.9777C7.50392 13.978 7.50316 13.9783 7.49954 13.9764C7.4958 13.9745 7.48815 13.9697 7.47834 13.9596L6.3987 15.0009ZM12.5833 12.263C12.5833 12.9241 12.5825 13.3651 12.5527 13.6788C12.5202 14.0201 12.4652 14.018 12.5216 13.9596L13.6012 15.0009C13.9295 14.6606 14.0104 14.1949 14.0459 13.8207C14.0841 13.4188 14.0833 12.8921 14.0833 12.263H12.5833ZM10.4183 14.0258C10.8318 14.4373 11.1867 14.7921 11.4862 15.0307C11.7601 15.249 12.1764 15.5315 12.6895 15.4654L12.4979 13.9777C12.6454 13.9587 12.6654 14.0523 12.421 13.8576C12.2021 13.6832 11.9167 13.4008 11.4763 12.9625L10.4183 14.0258ZM12.5216 13.9596C12.5118 13.9697 12.5041 13.9745 12.5004 13.9764C12.4968 13.9783 12.496 13.978 12.4979 13.9777L12.6895 15.4654C13.0439 15.4198 13.3611 15.2498 13.6012 15.0009L12.5216 13.9596ZM9.99996 7.14176C10.8097 7.14176 11.3313 7.14381 11.7154 7.20254C12.067 7.2563 12.1946 7.3429 12.2819 7.44216L13.4084 6.45162C13.0075 5.99576 12.4982 5.80479 11.9421 5.71977C11.4185 5.63972 10.7616 5.64176 9.99996 5.64176V7.14176ZM14.0833 10.1824C14.0833 9.30764 14.0845 8.58512 14.0171 8.01466C13.9481 7.43147 13.797 6.89362 13.4084 6.45162L12.2819 7.44216C12.3814 7.55528 12.4744 7.74173 12.5275 8.19078C12.5821 8.65256 12.5833 9.27024 12.5833 10.1824H14.0833ZM9.99996 5.64176C9.2383 5.64176 8.58143 5.63972 8.05782 5.71977C7.50172 5.80479 6.99244 5.99576 6.59157 6.45162L7.718 7.44216C7.80528 7.3429 7.93291 7.2563 8.28452 7.20254C8.66863 7.14381 9.19027 7.14176 9.99996 7.14176V5.64176ZM7.41663 10.1824C7.41663 9.27024 7.41786 8.65256 7.47246 8.19078C7.52555 7.74173 7.61852 7.55528 7.718 7.44216L6.59157 6.45162C6.20289 6.89362 6.05178 7.43147 5.98283 8.01466C5.91539 8.58512 5.91663 9.30764 5.91663 10.1824H7.41663ZM17.5833 10.5584C17.5833 14.7466 14.1881 18.1418 9.99996 18.1418V19.6418C15.0165 19.6418 19.0833 15.575 19.0833 10.5584H17.5833ZM9.99996 18.1418C5.8118 18.1418 2.41663 14.7466 2.41663 10.5584H0.916626C0.916626 15.575 4.98337 19.6418 9.99996 19.6418V18.1418ZM2.41663 10.5584C2.41663 6.37027 5.8118 2.9751 9.99996 2.9751V1.4751C4.98337 1.4751 0.916626 5.54184 0.916626 10.5584H2.41663ZM9.99996 2.9751C14.1881 2.9751 17.5833 6.37027 17.5833 10.5584H19.0833C19.0833 5.54184 15.0165 1.4751 9.99996 1.4751V2.9751Z" fill="currentColor"/>
</svg>
