<svg viewBox="0 0 17 18" fill="none" xmlns="http://www.w3.org/2000/svg">
<path d="M16.9557 7.24571L16.9557 7.24572L16.9598 7.3725L16.9598 7.37412C16.9598 7.87865 16.7594 8.36252 16.4026 8.71928C16.0459 9.07604 15.562 9.27647 15.0575 9.27647H15.0574L14.7197 9.27578L16.6136 15.5899C16.721 15.9473 16.6904 16.3319 16.528 16.6679C16.3655 17.0038 16.083 17.2666 15.7362 17.4043L15.7342 17.4051L15.7342 17.4051L15.6165 17.4462L15.6143 17.447L15.6143 17.4469C15.4753 17.4884 15.3309 17.5094 15.1858 17.5091M16.9557 7.24571L15.1859 17.4591M16.9557 7.24571L16.9556 7.24392M16.9557 7.24571L16.9556 7.24392M15.1858 17.5091L15.1859 17.4591M15.1858 17.5091H15.1859V17.4591M15.1858 17.5091H2.58005C2.34766 17.5091 2.1185 17.4548 1.91085 17.3504C1.7032 17.2461 1.52282 17.0946 1.38412 16.9082C1.24541 16.7217 1.15222 16.5054 1.11199 16.2765C1.07175 16.0476 1.08558 15.8125 1.15238 15.5899M15.1859 17.4591H2.58006C2.35546 17.4591 2.13398 17.4066 1.9333 17.3057C1.73262 17.2049 1.55829 17.0585 1.42424 16.8783C1.29018 16.6981 1.20012 16.4891 1.16123 16.2679C1.12234 16.0467 1.13571 15.8194 1.20027 15.6043M1.15238 15.5899L1.15237 15.59L1.20027 15.6043M1.15238 15.5899L1.20027 15.6043M1.15238 15.5899L1.20027 15.6043M16.9556 7.24392C16.9226 6.76301 16.7083 6.31256 16.3559 5.9836C16.0036 5.65465 15.5395 5.47172 15.0575 5.47177C15.0575 5.47177 15.0575 5.47177 15.0575 5.47177L10.5795 5.47096V2.18755C10.5795 1.7376 10.4008 1.30608 10.0826 0.987918C9.76445 0.669757 9.33293 0.491016 8.88298 0.491016M16.9556 7.24392L8.88298 0.491016M8.88298 0.491016C8.43303 0.491016 8.00151 0.669757 7.68335 0.987918C7.36519 1.30608 7.18645 1.7376 7.18645 2.18755V5.47096L2.70849 5.47177C2.70848 5.47177 2.70848 5.47177 2.70848 5.47177L8.88298 0.491016ZM3.09689 9.2765L3.11189 9.22647L3.05966 9.22657L3.04466 9.27661L3.09689 9.2765ZM6.5283 11.2589L6.52832 11.2588L5.88218 11.8091L5.83307 11.7996L5.83307 11.7997L4.9929 16.1734L2.58006 16.1742C2.58005 16.1742 2.58005 16.1742 2.58004 16.1742C2.49491 16.1742 2.42564 16.1058 2.42426 16.021L2.42838 15.984L4.43997 9.27565H13.3252L15.3347 15.9741C15.3347 15.9742 15.3347 15.9742 15.3348 15.9743C15.3463 16.0137 15.3419 16.056 15.3225 16.0922C15.3032 16.1278 15.2709 16.1546 15.2323 16.1668L15.2063 16.1726C15.1995 16.1736 15.1926 16.1741 15.1856 16.1742L6.35186 16.1734L7.14395 12.0506L7.14404 12.0507L7.14443 12.0477L7.15513 11.9653L7.15527 11.9654L7.15548 11.9616C7.16413 11.8002 7.11397 11.6412 7.01431 11.5141C6.91464 11.3869 6.77223 11.3002 6.61351 11.2701L6.61352 11.27L6.61063 11.2696L6.5283 11.2589ZM9.24461 2.18753V2.18755V5.43061H8.52135V2.18976L8.52753 2.12025C8.54313 2.03787 8.58688 1.96344 8.65133 1.90973C8.71581 1.856 8.79694 1.82639 8.88082 1.82592L8.95027 1.83209C9.03265 1.84769 9.10709 1.89145 9.16079 1.9559C9.21498 2.02092 9.24464 2.10289 9.24461 2.18753ZM2.7085 6.80667H15.0575C15.132 6.80666 15.2058 6.82133 15.2747 6.84984C15.3435 6.87835 15.4061 6.92015 15.4588 6.97284C15.5115 7.02553 15.5533 7.08809 15.5818 7.15694C15.6103 7.2258 15.625 7.29959 15.625 7.37412C15.625 7.44865 15.6103 7.52244 15.5818 7.5913C15.5533 7.66015 15.5115 7.72271 15.4588 7.7754C15.4061 7.82809 15.3435 7.86989 15.2747 7.8984C15.2058 7.92691 15.132 7.94158 15.0575 7.94157H2.7085C2.70849 7.94157 2.70849 7.94157 2.70849 7.94157C2.55801 7.94154 2.4137 7.88175 2.30731 7.77533C2.20091 7.66892 2.14114 7.5246 2.14114 7.37412C2.14114 7.22364 2.20091 7.07932 2.30731 6.97291C2.4137 6.86649 2.55801 6.8067 2.70849 6.80667C2.70849 6.80667 2.70849 6.80667 2.7085 6.80667Z" fill="currentColor" stroke="#2E3A59" stroke-width="0.1"/>
</svg>
