<svg viewBox="0 0 20 21" fill="none" xmlns="http://www.w3.org/2000/svg">
<path d="M4.57635 3.92957L4.04602 3.39924L4.04602 3.39924L4.57635 3.92957ZM3.3711 5.13482L3.90143 5.66515L3.90143 5.66515L3.3711 5.13482ZM9.39734 3.92957L9.92767 4.4599C10.0683 4.31925 10.1473 4.12849 10.1473 3.92957C10.1473 3.73066 10.0683 3.5399 9.92767 3.39924L9.39734 3.92957ZM16.6288 11.1611L17.1591 10.6307C17.0185 10.4901 16.8277 10.4111 16.6288 10.4111C16.4299 10.4111 16.2391 10.4901 16.0985 10.6307L16.6288 11.1611ZM6.85826 5.40799C6.56537 5.70088 6.56537 6.17575 6.85826 6.46865C7.15116 6.76154 7.62603 6.76154 7.91892 6.46865L6.85826 5.40799ZM14.0897 12.6395C13.7969 12.9324 13.7969 13.4072 14.0897 13.7001C14.3826 13.993 14.8575 13.993 15.1504 13.7001L14.0897 12.6395ZM12.7391 3.18491L12.2087 2.65458V2.65458L12.7391 3.18491ZM17.3735 7.81931L17.9038 8.34964L17.3735 7.81931ZM1.712 17.7286L2.42351 17.9657H2.42351L1.712 17.7286ZM2.84626 14.3258L3.55777 14.563L2.84626 14.3258ZM4.86565 11.0583L5.39598 11.5887L4.86565 11.0583ZM6.23261 17.7121L5.99544 17.0006H5.99544L6.23261 17.7121ZM2.82983 18.8464L2.59266 18.1349H2.59266L2.82983 18.8464ZM8.51343 16.621L8.05217 16.0296L8.05216 16.0296L8.51343 16.621ZM7.50411 17.2448L7.18144 16.5678H7.18144L7.50411 17.2448ZM3.31358 13.0543L2.63653 12.7316H2.63653L3.31358 13.0543ZM3.93737 12.045L4.52876 12.5062H4.52876L3.93737 12.045ZM3.49823 18.6236L3.7354 19.3351H3.7354L3.49823 18.6236ZM1.9348 17.0602L1.22329 16.823L1.22329 16.823L1.9348 17.0602ZM4.04602 3.39924L2.84077 4.60449L3.90143 5.66515L5.10668 4.4599L4.04602 3.39924ZM15.9539 17.7176L17.1591 16.5124L16.0985 15.4517L14.8932 16.657L15.9539 17.7176ZM10.0723 17.7176C10.6254 18.2708 11.0925 18.7401 11.5143 19.0619C11.9533 19.3969 12.4302 19.6418 13.0131 19.6418V18.1418C12.89 18.1418 12.7297 18.1026 12.4241 17.8694C12.1012 17.623 11.7161 17.2401 11.1329 16.657L10.0723 17.7176ZM14.8932 16.657C14.3101 17.2401 13.925 17.623 13.602 17.8694C13.2964 18.1026 13.1362 18.1418 13.0131 18.1418V19.6418C13.596 19.6418 14.0729 19.3969 14.5119 19.0619C14.9336 18.7401 15.4007 18.2708 15.9539 17.7176L14.8932 16.657ZM2.84077 4.60449C2.28761 5.15766 1.81826 5.62476 1.49648 6.04649C1.1615 6.48554 0.916626 6.96239 0.916626 7.54531H2.41663C2.41663 7.42222 2.45583 7.26198 2.68901 6.95637C2.9354 6.63344 3.31828 6.2483 3.90143 5.66515L2.84077 4.60449ZM3.90143 9.42548C3.31829 8.84233 2.9354 8.45719 2.68901 8.13426C2.45583 7.82864 2.41663 7.6684 2.41663 7.54531H0.916626C0.916626 8.12824 1.1615 8.60509 1.49648 9.04414C1.81826 9.46588 2.28761 9.93297 2.84077 10.4861L3.90143 9.42548ZM9.92767 3.39924C9.3745 2.84608 8.9074 2.37673 8.48566 2.05495C8.04662 1.71997 7.56977 1.4751 6.98684 1.4751V2.9751C7.10993 2.9751 7.27017 3.0143 7.57579 3.24748C7.89872 3.49387 8.28386 3.87675 8.86701 4.4599L9.92767 3.39924ZM5.10668 4.4599C5.68983 3.87675 6.07497 3.49387 6.39789 3.24748C6.70351 3.0143 6.86375 2.9751 6.98684 2.9751V1.4751C6.40392 1.4751 5.92707 1.71997 5.48802 2.05495C5.06628 2.37673 4.59919 2.84608 4.04602 3.39924L5.10668 4.4599ZM16.0985 11.6914C16.6816 12.2745 17.0645 12.6597 17.3109 12.9826C17.5441 13.2882 17.5833 13.4485 17.5833 13.5715H19.0833C19.0833 12.9886 18.8384 12.5118 18.5034 12.0727C18.1817 11.651 17.7123 11.1839 17.1591 10.6307L16.0985 11.6914ZM17.1591 16.5124C17.7123 15.9592 18.1817 15.4921 18.5034 15.0704C18.8384 14.6313 19.0833 14.1545 19.0833 13.5715H17.5833C17.5833 13.6946 17.5441 13.8549 17.3109 14.1605C17.0645 14.4834 16.6816 14.8686 16.0985 15.4517L17.1591 16.5124ZM8.86701 3.39924L6.85826 5.40799L7.91892 6.46865L9.92767 4.4599L8.86701 3.39924ZM16.0985 10.6307L14.0897 12.6395L15.1504 13.7001L17.1591 11.6914L16.0985 10.6307ZM12.497 4.48764L13.2694 3.71524L12.2087 2.65458L11.4363 3.42698L12.497 4.48764ZM16.8431 7.28898L16.0707 8.06138L17.1314 9.12204L17.9038 8.34964L16.8431 7.28898ZM11.9667 3.95731C11.218 4.00135 11.218 4.00166 11.218 4.00198C11.218 4.00209 11.218 4.00241 11.2181 4.00264C11.2181 4.0031 11.2181 4.00358 11.2181 4.00408C11.2182 4.0051 11.2183 4.00621 11.2184 4.00743C11.2185 4.00986 11.2187 4.01271 11.2189 4.01595C11.2194 4.02243 11.22 4.03052 11.2209 4.04015C11.2225 4.05941 11.225 4.08487 11.2285 4.11608C11.2357 4.17845 11.2474 4.26397 11.2662 4.3689C11.3038 4.57846 11.3703 4.86734 11.4874 5.20485C11.7216 5.87991 12.161 6.75713 12.9811 7.57724L14.0418 6.51658C13.4137 5.88844 13.0807 5.22087 12.9046 4.71319C12.8165 4.45933 12.7683 4.24736 12.7426 4.1039C12.7298 4.03233 12.7226 3.9783 12.7188 3.94526C12.7169 3.92875 12.7158 3.91754 12.7154 3.91205C12.7151 3.9093 12.715 3.908 12.7151 3.90818C12.7151 3.90827 12.7151 3.90874 12.7152 3.90959C12.7152 3.91001 12.7152 3.91053 12.7153 3.91114C12.7153 3.91145 12.7153 3.91178 12.7153 3.91213C12.7153 3.91231 12.7153 3.9126 12.7154 3.91268C12.7154 3.91297 12.7154 3.91327 11.9667 3.95731ZM12.9811 7.57724C13.8013 8.39735 14.6785 8.83677 15.3535 9.07097C15.6911 9.18807 15.9799 9.25459 16.1895 9.2922C16.2944 9.31103 16.3799 9.3227 16.4423 9.32985C16.4735 9.33343 16.499 9.33588 16.5182 9.33753C16.5279 9.33836 16.536 9.33898 16.5424 9.33945C16.5457 9.33968 16.5485 9.33988 16.551 9.34004C16.5522 9.34012 16.5533 9.34019 16.5543 9.34025C16.5548 9.34028 16.5553 9.34031 16.5557 9.34034C16.556 9.34035 16.5563 9.34037 16.5564 9.34038C16.5567 9.3404 16.557 9.34042 16.6011 8.59171C16.6451 7.843 16.6454 7.84302 16.6457 7.84304C16.6458 7.84304 16.6461 7.84306 16.6463 7.84307C16.6466 7.84309 16.6469 7.84311 16.6472 7.84313C16.6479 7.84317 16.6484 7.8432 16.6488 7.84323C16.6496 7.84329 16.6501 7.84332 16.6502 7.84333C16.6504 7.84334 16.6491 7.84325 16.6463 7.84301C16.6409 7.84254 16.6296 7.8415 16.6131 7.83961C16.5801 7.83582 16.5261 7.82864 16.4545 7.81579C16.311 7.79004 16.0991 7.74191 15.8452 7.65384C15.3375 7.4777 14.6699 7.14472 14.0418 6.51658L12.9811 7.57724ZM5.39598 11.5887L12.497 4.48764L11.4363 3.42698L4.33532 10.528L5.39598 11.5887ZM16.0707 8.06138L8.96971 15.1624L10.0304 16.2231L17.1314 9.12204L16.0707 8.06138ZM8.96971 15.1624C8.47624 15.6559 8.27259 15.8577 8.05217 16.0296L8.9747 17.2124C9.2846 16.9707 9.56191 16.6915 10.0304 16.2231L8.96971 15.1624ZM6.46978 18.4236C7.09829 18.2141 7.47198 18.0909 7.82677 17.9219L7.18144 16.5678C6.92909 16.688 6.6575 16.7799 5.99544 17.0006L6.46978 18.4236ZM8.05216 16.0296C7.78233 16.2401 7.49036 16.4205 7.18144 16.5678L7.82677 17.9219C8.23404 17.7278 8.61895 17.4899 8.9747 17.2124L8.05216 16.0296ZM2.45582 18.1026C2.42 18.0668 2.4075 18.0138 2.42351 17.9657L1.00049 17.4914C0.804803 18.0784 0.957592 18.7257 1.39516 19.1632L2.45582 18.1026ZM3.55777 14.563C3.77846 13.9009 3.87036 13.6293 3.99062 13.3769L2.63653 12.7316C2.46745 13.0864 2.34425 13.4601 2.13475 14.0886L3.55777 14.563ZM4.33532 10.528C3.86685 10.9965 3.58771 11.2738 3.34599 11.5837L4.52876 12.5062C4.70068 12.2858 4.90251 12.0821 5.39598 11.5887L4.33532 10.528ZM3.99062 13.3769C4.13785 13.068 4.31829 12.7761 4.52876 12.5062L3.34599 11.5837C3.06852 11.9394 2.83063 12.3243 2.63653 12.7316L3.99062 13.3769ZM1.39516 19.1632C1.83272 19.6008 2.47994 19.7536 3.067 19.5579L2.59266 18.1349C2.54461 18.1509 2.49163 18.1384 2.45582 18.1026L1.39516 19.1632ZM16.8431 3.71524C17.83 4.7021 17.83 6.30212 16.8431 7.28898L17.9038 8.34964C19.4765 6.77699 19.4765 4.22723 17.9038 2.65458L16.8431 3.71524ZM17.9038 2.65458C16.3312 1.08194 13.7814 1.08194 12.2087 2.65458L13.2694 3.71524C14.2563 2.72838 15.8563 2.72838 16.8431 3.71524L17.9038 2.65458ZM3.26106 17.9121L2.59266 18.1349L3.067 19.5579L3.7354 19.3351L3.26106 17.9121ZM2.42351 17.9657L2.64631 17.2973L1.22329 16.823L1.00049 17.4914L2.42351 17.9657ZM4.02856 18.0933L2.46513 16.5298L1.40447 17.5905L2.9679 19.1539L4.02856 18.0933ZM5.99544 17.0006L3.26106 17.9121L3.7354 19.3351L6.46978 18.4236L5.99544 17.0006ZM2.64631 17.2973L3.55777 14.563L2.13475 14.0886L1.22329 16.823L2.64631 17.2973Z" fill="currentColor"/>
</svg>
