<svg viewBox="0 0 20 21" fill="none" xmlns="http://www.w3.org/2000/svg">
<path d="M12.8274 3.93647L12.3257 4.49394L12.8274 3.93647ZM16.1264 6.90555L15.6247 7.46302V7.46302L16.1264 6.90555ZM18.045 9.02018L17.3598 9.32531L17.3598 9.32531L18.045 9.02018ZM2.64294 17.9155L3.17327 17.3851L3.17327 17.3851L2.64294 17.9155ZM17.357 17.9155L16.8267 17.3851L16.8267 17.3851L17.357 17.9155ZM4.99996 11.8918C4.58575 11.8918 4.24996 12.2276 4.24996 12.6418C4.24996 13.056 4.58575 13.3918 4.99996 13.3918V11.8918ZM11.6666 13.3918C12.0808 13.3918 12.4166 13.056 12.4166 12.6418C12.4166 12.2276 12.0808 11.8918 11.6666 11.8918V13.3918ZM4.99996 14.8084C4.58575 14.8084 4.24996 15.1442 4.24996 15.5584C4.24996 15.9726 4.58575 16.3084 4.99996 16.3084V14.8084ZM9.58329 16.3084C9.99751 16.3084 10.3333 15.9726 10.3333 15.5584C10.3333 15.1442 9.99751 14.8084 9.58329 14.8084V16.3084ZM11.6666 18.1418H8.33329V19.6418H11.6666V18.1418ZM2.41663 12.2251V8.89176H0.916626V12.2251H2.41663ZM17.5833 11.8608V12.2251H19.0833V11.8608H17.5833ZM12.3257 4.49394L15.6247 7.46302L16.6281 6.34808L13.3291 3.379L12.3257 4.49394ZM19.0833 11.8608C19.0833 10.4649 19.0984 9.54212 18.7301 8.71505L17.3598 9.32531C17.5682 9.79306 17.5833 10.3324 17.5833 11.8608H19.0833ZM15.6247 7.46302C16.7607 8.48548 17.1515 8.85756 17.3598 9.32531L18.7301 8.71505C18.3617 7.88797 17.6657 7.28191 16.6281 6.34808L15.6247 7.46302ZM8.35812 2.9751C9.68575 2.9751 10.1556 2.98668 10.5723 3.14658L11.1097 1.74615C10.3732 1.46352 9.57216 1.4751 8.35812 1.4751V2.9751ZM13.3291 3.379C12.4311 2.57078 11.8461 2.02874 11.1097 1.74615L10.5723 3.14658C10.9891 3.30652 11.3439 3.61037 12.3257 4.49394L13.3291 3.379ZM8.33329 18.1418C6.74074 18.1418 5.62178 18.1402 4.77566 18.0264C3.95111 17.9156 3.49885 17.7107 3.17327 17.3851L2.11261 18.4458C2.76334 19.0965 3.5849 19.3798 4.57578 19.513C5.54509 19.6434 6.78315 19.6418 8.33329 19.6418V18.1418ZM0.916626 12.2251C0.916626 13.7752 0.915033 15.0133 1.04535 15.9826C1.17857 16.9735 1.46187 17.7951 2.11261 18.4458L3.17327 17.3851C2.84769 17.0595 2.64283 16.6073 2.53198 15.7827C2.41822 14.9366 2.41663 13.8176 2.41663 12.2251H0.916626ZM11.6666 19.6418C13.2168 19.6418 14.4548 19.6434 15.4241 19.513C16.415 19.3798 17.2366 19.0965 17.8873 18.4458L16.8267 17.3851C16.5011 17.7107 16.0488 17.9156 15.2243 18.0264C14.3781 18.1402 13.2592 18.1418 11.6666 18.1418V19.6418ZM17.5833 12.2251C17.5833 13.8176 17.5817 14.9366 17.4679 15.7827C17.3571 16.6073 17.1522 17.0595 16.8267 17.3851L17.8873 18.4458C18.538 17.7951 18.8213 16.9735 18.9546 15.9826C19.0849 15.0133 19.0833 13.7752 19.0833 12.2251H17.5833ZM2.41663 8.89176C2.41663 7.29921 2.41822 6.18025 2.53198 5.33413C2.64283 4.50958 2.84769 4.05732 3.17327 3.73174L2.11261 2.67108C1.46187 3.32181 1.17857 4.14338 1.04535 5.13426C0.915033 6.10356 0.916626 7.34162 0.916626 8.89176H2.41663ZM8.35812 1.4751C6.79963 1.4751 5.55561 1.47352 4.58244 1.60376C3.58825 1.73682 2.76392 2.01976 2.11261 2.67108L3.17327 3.73174C3.49826 3.40674 3.9519 3.20153 4.78142 3.09051C5.63194 2.97668 6.75736 2.9751 8.35812 2.9751V1.4751ZM4.99996 13.3918H11.6666V11.8918H4.99996V13.3918ZM4.99996 16.3084H9.58329V14.8084H4.99996V16.3084ZM10.0833 2.64176V4.7251H11.5833V2.64176H10.0833ZM15 9.64176H18.3333V8.14176H15V9.64176ZM10.0833 4.7251C10.0833 5.68599 10.0817 6.4821 10.1663 7.11102C10.2537 7.7615 10.4455 8.34423 10.9132 8.8119L11.9738 7.75124C11.8313 7.60872 11.718 7.3953 11.6529 6.91115C11.5849 6.40542 11.5833 5.72839 11.5833 4.7251H10.0833ZM15 8.14176C13.9967 8.14176 13.3196 8.14017 12.8139 8.07218C12.3298 8.00709 12.1163 7.89376 11.9738 7.75124L10.9132 8.8119C11.3808 9.27957 11.9636 9.47135 12.614 9.5588C13.243 9.64336 14.0391 9.64176 15 9.64176V8.14176Z" fill="currentColor"/>
</svg>
