<svg viewBox="0 0 12 11" fill="none" xmlns="http://www.w3.org/2000/svg">
<path fill-rule="evenodd" clip-rule="evenodd" d="M8.91665 0.45459C9.05436 0.45459 9.18403 0.519425 9.26665 0.62959L11.0166 2.96292C11.1616 3.15622 11.1224 3.43045 10.9291 3.57542C10.7358 3.7204 10.4616 3.68122 10.3166 3.48792L9.35415 2.20459V8.91292L10.3166 7.62959C10.4616 7.43629 10.7358 7.39712 10.9291 7.54209C11.1224 7.68707 11.1616 7.96129 11.0166 8.15459L9.26665 10.4879C9.18403 10.5981 9.05436 10.6629 8.91665 10.6629C8.77894 10.6629 8.64927 10.5981 8.56665 10.4879L6.81665 8.15459C6.67167 7.96129 6.71085 7.68707 6.90415 7.54209C7.09745 7.39712 7.37167 7.43629 7.51665 7.62959L8.47915 8.91292V2.20459L7.51665 3.48792C7.37167 3.68122 7.09745 3.7204 6.90415 3.57542C6.71085 3.43045 6.67167 3.15622 6.81665 2.96292L8.56665 0.62959C8.64927 0.519425 8.77894 0.45459 8.91665 0.45459ZM0.895813 2.64209C0.895813 2.40047 1.09169 2.20459 1.33331 2.20459H5.41665C5.65827 2.20459 5.85415 2.40047 5.85415 2.64209C5.85415 2.88371 5.65827 3.07959 5.41665 3.07959H1.33331C1.09169 3.07959 0.895813 2.88371 0.895813 2.64209ZM0.895813 5.55876C0.895813 5.31713 1.09169 5.12126 1.33331 5.12126H5.41665C5.65827 5.12126 5.85415 5.31713 5.85415 5.55876C5.85415 5.80038 5.65827 5.99626 5.41665 5.99626H1.33331C1.09169 5.99626 0.895813 5.80038 0.895813 5.55876ZM0.895813 8.47542C0.895813 8.2338 1.09169 8.03792 1.33331 8.03792H5.41665C5.65827 8.03792 5.85415 8.2338 5.85415 8.47542C5.85415 8.71705 5.65827 8.91292 5.41665 8.91292H1.33331C1.09169 8.91292 0.895813 8.71705 0.895813 8.47542Z" fill="currentColor"/>
</svg>
