<svg viewBox="0 0 21 20" fill="none" xmlns="http://www.w3.org/2000/svg">
<path d="M15.0496 9.08366C15.4638 9.08366 15.7996 8.74787 15.7996 8.33366C15.7996 7.91945 15.4638 7.58366 15.0496 7.58366V9.08366ZM6.71629 8.33366L6.22314 7.76859C5.98759 7.97416 5.90427 8.30427 6.01404 8.597C6.12381 8.88973 6.40366 9.08366 6.71629 9.08366V8.33366ZM10.074 6.39873C10.3861 6.12637 10.4183 5.65259 10.1459 5.34051C9.87358 5.02843 9.3998 4.99623 9.08772 5.26859L10.074 6.39873ZM6.71629 10.917C6.30207 10.917 5.96629 11.2528 5.96629 11.667C5.96629 12.0812 6.30207 12.417 6.71629 12.417V10.917ZM15.0496 11.667L15.5428 12.2321C15.7783 12.0265 15.8616 11.6964 15.7519 11.4037C15.6421 11.1109 15.3623 10.917 15.0496 10.917V11.667ZM11.6919 13.6019C11.3798 13.8743 11.3476 14.3481 11.62 14.6601C11.8923 14.9722 12.3661 15.0044 12.6782 14.7321L11.6919 13.6019ZM18.4663 10.0003C18.4663 14.1885 15.0711 17.5837 10.883 17.5837V19.0837C15.8995 19.0837 19.9663 15.0169 19.9663 10.0003H18.4663ZM10.883 17.5837C6.6948 17.5837 3.29962 14.1885 3.29962 10.0003H1.79962C1.79962 15.0169 5.86637 19.0837 10.883 19.0837V17.5837ZM3.29962 10.0003C3.29962 5.81217 6.6948 2.41699 10.883 2.41699V0.916992C5.86637 0.916992 1.79962 4.98374 1.79962 10.0003H3.29962ZM10.883 2.41699C15.0711 2.41699 18.4663 5.81217 18.4663 10.0003H19.9663C19.9663 4.98374 15.8995 0.916992 10.883 0.916992V2.41699ZM15.0496 7.58366H6.71629V9.08366H15.0496V7.58366ZM7.20944 8.89873L10.074 6.39873L9.08772 5.26859L6.22314 7.76859L7.20944 8.89873ZM6.71629 12.417L15.0496 12.417V10.917H6.71629V12.417ZM14.5565 11.1019L11.6919 13.6019L12.6782 14.7321L15.5428 12.2321L14.5565 11.1019Z" fill="#2E3A59"/>
<line x1="5.48137" y1="4.05713" x2="16.8358" y2="15.519" stroke="#2E3A59" stroke-width="1.5"/>
</svg>
