<svg viewBox="0 0 17 17" fill="none" xmlns="http://www.w3.org/2000/svg">
<g clip-path="url(#clip0_326_9498)">
<path d="M3.81885 2.08837C3.81885 2.36303 3.92796 2.62645 4.12218 2.82067C4.3164 3.01488 4.57981 3.124 4.85448 3.124C5.12914 3.124 5.39256 3.01488 5.58678 2.82067C5.781 2.62645 5.89011 2.36303 5.89011 2.08837C5.89011 1.8137 5.781 1.55028 5.58678 1.35606C5.39256 1.16185 5.12914 1.05273 4.85448 1.05273C4.57981 1.05273 4.3164 1.16185 4.12218 1.35606C3.92796 1.55028 3.81885 1.8137 3.81885 2.08837ZM3.83827 8.55566C3.83827 8.83033 3.94738 9.09375 4.1416 9.28796C4.33581 9.48218 4.59923 9.59129 4.8739 9.59129C5.14856 9.59129 5.41198 9.48218 5.6062 9.28796C5.80042 9.09375 5.90953 8.83033 5.90953 8.55566C5.90953 8.281 5.80042 8.01758 5.6062 7.82336C5.41198 7.62914 5.14856 7.52003 4.8739 7.52003C4.59923 7.52003 4.33581 7.62914 4.1416 7.82336C3.94738 8.01758 3.83827 8.281 3.83827 8.55566ZM3.83827 15.1854C3.83827 15.4601 3.94738 15.7235 4.1416 15.9177C4.33581 16.1119 4.59923 16.2211 4.8739 16.2211C5.14856 16.2211 5.41198 16.1119 5.6062 15.9177C5.80042 15.7235 5.90953 15.4601 5.90953 15.1854C5.90953 14.9108 5.80042 14.6473 5.6062 14.4531C5.41198 14.2589 5.14856 14.1498 4.8739 14.1498C4.59923 14.1498 4.33581 14.2589 4.1416 14.4531C3.94738 14.6473 3.83827 14.9108 3.83827 15.1854ZM10.6158 2.08837C10.6158 2.36303 10.7249 2.62645 10.9192 2.82067C11.1134 3.01488 11.3768 3.124 11.6515 3.124C11.9261 3.124 12.1895 3.01488 12.3838 2.82067C12.578 2.62645 12.6871 2.36303 12.6871 2.08837C12.6871 1.8137 12.578 1.55028 12.3838 1.35606C12.1895 1.16185 11.9261 1.05273 11.6515 1.05273C11.3768 1.05273 11.1134 1.16185 10.9192 1.35606C10.7249 1.55028 10.6158 1.8137 10.6158 2.08837ZM10.6352 8.55566C10.6352 8.83033 10.7443 9.09375 10.9386 9.28796C11.1328 9.48218 11.3962 9.59129 11.6709 9.59129C11.9455 9.59129 12.209 9.48218 12.4032 9.28796C12.5974 9.09375 12.7065 8.83033 12.7065 8.55566C12.7065 8.281 12.5974 8.01758 12.4032 7.82336C12.209 7.62914 11.9455 7.52003 11.6709 7.52003C11.3962 7.52003 11.1328 7.62914 10.9386 7.82336C10.7443 8.01758 10.6352 8.281 10.6352 8.55566ZM10.6352 15.1854C10.6352 15.4601 10.7443 15.7235 10.9386 15.9177C11.1328 16.1119 11.3962 16.2211 11.6709 16.2211C11.9455 16.2211 12.209 16.1119 12.4032 15.9177C12.5974 15.7235 12.7065 15.4601 12.7065 15.1854C12.7065 14.9108 12.5974 14.6473 12.4032 14.4531C12.209 14.2589 11.9455 14.1498 11.6709 14.1498C11.3962 14.1498 11.1328 14.2589 10.9386 14.4531C10.7443 14.6473 10.6352 14.9108 10.6352 15.1854Z" fill="#8F9BB3"/>
</g>
<defs>
<clipPath id="clip0_326_9498">
<rect width="16" height="16" fill="white" transform="translate(0.020752 0.583984)"/>
</clipPath>
</defs>
</svg>
