<svg viewBox="0 0 14 15" fill="none" xmlns="http://www.w3.org/2000/svg">
<g clip-path="url(#clip0_320_161)">
<path d="M12.35 12.0727C12.3531 12.068 12.3578 12.0633 12.3609 12.0586C13.3844 10.8414 14 9.27266 14 7.55859C14 5.84453 13.3844 4.27578 12.3625 3.05859C12.3594 3.05391 12.3547 3.05078 12.3516 3.04609C12.3344 3.02578 12.3187 3.00703 12.3016 2.98828C12.2953 2.98047 12.2891 2.97422 12.2828 2.96641L12.2188 2.89297L12.2172 2.89141C12.1938 2.86484 12.1687 2.83828 12.1453 2.81172L12.1438 2.81016C12.0938 2.75703 12.0437 2.70391 11.9922 2.65234L11.9906 2.65078L11.9156 2.57578L11.9109 2.57109C11.8875 2.54766 11.8641 2.52578 11.8406 2.50391C11.8328 2.49609 11.825 2.48828 11.8156 2.48047C11.8 2.46484 11.7844 2.45078 11.7688 2.43672C11.7641 2.43203 11.7578 2.42734 11.7531 2.42109C10.5063 1.26484 8.83594 0.558594 7 0.558594C5.16406 0.558594 3.49375 1.26484 2.24531 2.42109C2.24062 2.42578 2.23438 2.43047 2.22969 2.43672C2.21406 2.45078 2.19844 2.46641 2.18281 2.48203C2.175 2.48984 2.16719 2.49766 2.15781 2.50547C2.13438 2.52734 2.11094 2.55078 2.0875 2.57266L2.08281 2.57734L2.00781 2.65234L2.00625 2.65391C1.95469 2.70547 1.90469 2.75859 1.85469 2.81172L1.85313 2.81328C1.82813 2.83984 1.80469 2.86641 1.78125 2.89297L1.77969 2.89453C1.75781 2.91797 1.73594 2.94297 1.71563 2.96797C1.70938 2.97578 1.70313 2.98203 1.69688 2.98984C1.67969 3.00859 1.66406 3.02891 1.64687 3.04766C1.64375 3.05234 1.63906 3.05547 1.63594 3.06016C0.615625 4.27578 0 5.84453 0 7.55859C0 9.27266 0.615625 10.8414 1.6375 12.0586C1.64062 12.0633 1.64531 12.068 1.64844 12.0727L1.69688 12.1305C1.70313 12.1383 1.70938 12.1445 1.71563 12.1523L1.77969 12.2258C1.77969 12.2273 1.78125 12.2273 1.78125 12.2289C1.80469 12.2555 1.82813 12.282 1.85313 12.307L1.85469 12.3086C1.90469 12.3617 1.95469 12.4148 2.00469 12.4664L2.00625 12.468C2.03125 12.493 2.05469 12.518 2.07969 12.5414L2.08437 12.5461C2.13594 12.5977 2.18906 12.6477 2.24219 12.6961C3.49375 13.8523 5.16406 14.5586 7 14.5586C8.83594 14.5586 10.5062 13.8523 11.7547 12.6961C11.8079 12.6473 11.86 12.5973 11.9109 12.5461L11.9156 12.5414C11.9406 12.5164 11.9656 12.493 11.9891 12.468L11.9906 12.4664C12.0422 12.4148 12.0922 12.3617 12.1406 12.3086L12.1422 12.307C12.1656 12.2805 12.1906 12.2555 12.2141 12.2289C12.2141 12.2273 12.2156 12.2273 12.2156 12.2258C12.2375 12.2023 12.2594 12.1773 12.2797 12.1523C12.2859 12.1445 12.2922 12.1383 12.2984 12.1305C12.3161 12.1116 12.3333 12.0924 12.35 12.0727ZM12.4141 9.84453C12.1984 10.3539 11.9141 10.8258 11.5672 11.2539C11.1765 10.9163 10.7494 10.6233 10.2937 10.3805C10.475 9.64766 10.5875 8.84297 10.6172 7.99609H12.8594C12.8125 8.63516 12.6625 9.25547 12.4141 9.84453ZM12.8594 7.12109H10.6172C10.5875 6.27422 10.475 5.46953 10.2937 4.73672C10.7516 4.49297 11.1781 4.19922 11.5672 3.86328C12.3212 4.79137 12.7722 5.9285 12.8594 7.12109ZM9.28594 2.14453C9.90625 2.40703 10.4703 2.76953 10.9672 3.22578C10.6785 3.47155 10.3679 3.69019 10.0391 3.87891C9.79375 3.17578 9.47969 2.56484 9.11406 2.07578C9.17188 2.09766 9.22969 2.12109 9.28594 2.14453ZM7.87031 13.0914C7.72656 13.2039 7.58281 13.2898 7.4375 13.3477V10.4492C8.05749 10.4925 8.66717 10.6305 9.24531 10.8586C9.11563 11.243 8.96562 11.5977 8.79219 11.918C8.52031 12.4242 8.20156 12.8289 7.87031 13.0914ZM8.79219 3.19922C8.96406 3.52109 9.11563 3.87578 9.24531 4.25859C8.66717 4.48665 8.05749 4.62471 7.4375 4.66797V1.77109C7.58125 1.82891 7.72656 1.91328 7.87031 2.02734C8.20156 2.28828 8.52031 2.69297 8.79219 3.19922ZM7.4375 9.57266V7.99609H9.74219C9.71719 8.68672 9.63125 9.35703 9.4875 9.99297L9.48281 10.0117C8.82708 9.76306 8.13751 9.61503 7.4375 9.57266ZM7.4375 7.12109V5.54453C8.15312 5.50078 8.84063 5.34922 9.48281 5.10547L9.4875 5.12422C9.63125 5.76016 9.71719 6.42891 9.74219 7.12109H7.4375ZM6.5625 7.99609V9.57266C5.84688 9.61641 5.15938 9.76797 4.51719 10.0117L4.5125 9.99297C4.36875 9.35703 4.28281 8.68828 4.25781 7.99609H6.5625ZM4.25781 7.12109C4.28281 6.43047 4.36875 5.76016 4.5125 5.12422L4.51719 5.10547C5.15938 5.34922 5.84531 5.50078 6.5625 5.54453V7.12109H4.25781ZM6.5625 10.4492V13.3461C6.41875 13.2883 6.27344 13.2039 6.12969 13.0898C5.79844 12.8289 5.47813 12.4227 5.20625 11.9164C5.03438 11.5945 4.88281 11.2398 4.75313 10.857C5.33438 10.6289 5.93906 10.493 6.5625 10.4492ZM6.5625 4.66797C5.94251 4.62471 5.33283 4.48665 4.75469 4.25859C4.88437 3.87422 5.03437 3.51953 5.20781 3.19922C5.47969 2.69297 5.79844 2.28672 6.13125 2.02578C6.275 1.91328 6.41875 1.82734 6.56406 1.76953V4.66797H6.5625ZM4.71406 2.14453C4.77188 2.12109 4.82812 2.09766 4.88594 2.07578C4.52031 2.56484 4.20625 3.17578 3.96094 3.87891C3.63281 3.69141 3.32188 3.47266 3.03281 3.22578C3.52969 2.76953 4.09375 2.40703 4.71406 2.14453ZM1.58594 5.27266C1.80156 4.76328 2.08594 4.29141 2.43281 3.86328C2.82187 4.19922 3.24844 4.49297 3.70625 4.73672C3.525 5.46953 3.4125 6.27422 3.38281 7.12109H1.14062C1.1875 6.48203 1.3375 5.86172 1.58594 5.27266ZM1.14062 7.99609H3.38281C3.4125 8.84297 3.525 9.64766 3.70625 10.3805C3.25059 10.6233 2.82347 10.9163 2.43281 11.2539C1.6788 10.3258 1.22776 9.18869 1.14062 7.99609ZM4.71406 12.9727C4.09375 12.7102 3.52969 12.3477 3.03281 11.8914C3.32188 11.6445 3.63281 11.4273 3.96094 11.2383C4.20625 11.9414 4.52031 12.5523 4.88594 13.0414C4.82812 13.0195 4.77031 12.9961 4.71406 12.9727ZM9.28594 12.9727C9.22812 12.9961 9.17188 13.0195 9.11406 13.0414C9.47969 12.5523 9.79375 11.9414 10.0391 11.2383C10.3672 11.4258 10.6781 11.6445 10.9672 11.8914C10.4731 12.3458 9.90432 12.7115 9.28594 12.9727Z" fill="currentColor"/>
</g>
<defs>
<clipPath id="clip0_320_161">
<rect width="14" height="14" fill="currentColor" transform="translate(0 0.558594)"/>
</clipPath>
</defs>
</svg>
