<svg viewBox="0 0 14 15" fill="none" xmlns="http://www.w3.org/2000/svg">
<path fill-rule="evenodd" clip-rule="evenodd" d="M9.18748 4.05859C9.18748 2.85047 8.2081 1.87109 6.99998 1.87109C5.79186 1.87109 4.81248 2.85047 4.81248 4.05859C4.81248 5.26672 5.79186 6.24609 6.99998 6.24609C8.2081 6.24609 9.18748 5.26672 9.18748 4.05859ZM6.99998 2.74609C7.72485 2.74609 8.31248 3.33372 8.31248 4.05859C8.31248 4.78347 7.72485 5.37109 6.99998 5.37109C6.27511 5.37109 5.68748 4.78347 5.68748 4.05859C5.68748 3.33372 6.27511 2.74609 6.99998 2.74609Z" fill="#101113"/>
<path fill-rule="evenodd" clip-rule="evenodd" d="M5.39581 11.0586C5.39581 9.85047 4.41644 8.87109 3.20831 8.87109C2.00019 8.87109 1.02081 9.85047 1.02081 11.0586C1.02081 12.2667 2.00019 13.2461 3.20831 13.2461C4.41644 13.2461 5.39581 12.2667 5.39581 11.0586ZM3.20831 9.74609C3.93319 9.74609 4.52081 10.3337 4.52081 11.0586C4.52081 11.7835 3.93319 12.3711 3.20831 12.3711C2.48344 12.3711 1.89581 11.7835 1.89581 11.0586C1.89581 10.3337 2.48344 9.74609 3.20831 9.74609Z" fill="#101113"/>
<path fill-rule="evenodd" clip-rule="evenodd" d="M10.7916 8.87109C11.9998 8.87109 12.9791 9.85047 12.9791 11.0586C12.9791 12.2667 11.9998 13.2461 10.7916 13.2461C9.58352 13.2461 8.60415 12.2667 8.60415 11.0586C8.60415 9.85047 9.58352 8.87109 10.7916 8.87109ZM12.1041 11.0586C12.1041 10.3337 11.5165 9.74609 10.7916 9.74609C10.0668 9.74609 9.47915 10.3337 9.47915 11.0586C9.47915 11.7835 10.0668 12.3711 10.7916 12.3711C11.5165 12.3711 12.1041 11.7835 12.1041 11.0586Z" fill="#101113"/>
<path d="M4.20271 4.96994C4.38386 4.81005 4.4011 4.53358 4.24121 4.35242C4.08132 4.17126 3.80485 4.15403 3.62369 4.31392C2.56476 5.24854 1.89581 6.61739 1.89581 8.14194C1.89581 8.38357 2.09169 8.57944 2.33331 8.57944C2.57494 8.57944 2.77081 8.38357 2.77081 8.14194C2.77081 6.87886 3.32398 5.74552 4.20271 4.96994Z" fill="#101113"/>
<path d="M10.3763 4.31392C10.1951 4.15403 9.91864 4.17126 9.75875 4.35242C9.59886 4.53358 9.61609 4.81005 9.79725 4.96994C10.676 5.74552 11.2291 6.87886 11.2291 8.14194C11.2291 8.38357 11.425 8.57944 11.6666 8.57944C11.9083 8.57944 12.1041 8.38357 12.1041 8.14194C12.1041 6.61739 11.4352 5.24854 10.3763 4.31392Z" fill="#101113"/>
<path d="M5.94236 12.2379C5.70836 12.1777 5.46985 12.3185 5.40962 12.5525C5.34939 12.7865 5.49026 13.0251 5.72426 13.0853C6.13248 13.1903 6.56004 13.2461 6.99998 13.2461C7.43992 13.2461 7.86748 13.1903 8.2757 13.0853C8.50969 13.0251 8.65056 12.7865 8.59034 12.5525C8.53011 12.3185 8.29159 12.1777 8.05759 12.2379C7.72003 12.3248 7.36573 12.3711 6.99998 12.3711C6.63422 12.3711 6.27993 12.3248 5.94236 12.2379Z" fill="#101113"/>
</svg>
