<svg viewBox="0 0 45 34" fill="none" xmlns="http://www.w3.org/2000/svg">
<path d="M44.9893 24.5066C45.0007 24.4895 45.0177 24.4724 45.0291 24.4554C48.7574 20.0213 51 14.3066 51 8.0625C51 1.81841 48.7574 -3.89632 45.0348 -8.33036C45.0234 -8.34743 45.0064 -8.35882 44.995 -8.37589C44.9324 -8.44989 44.8754 -8.51819 44.8128 -8.5865C44.7901 -8.61496 44.7673 -8.63772 44.7445 -8.66618L44.5112 -8.93371L44.5055 -8.9394C44.4201 -9.03616 44.329 -9.13292 44.2436 -9.22969L44.2379 -9.23538C44.0558 -9.42891 43.8737 -9.62243 43.6858 -9.81027L43.6801 -9.81596L43.4069 -10.0892L43.3898 -10.1062C43.3045 -10.1916 43.2191 -10.2713 43.1337 -10.351C43.1052 -10.3795 43.0768 -10.4079 43.0426 -10.4364C42.9857 -10.4933 42.9288 -10.5445 42.8719 -10.5958C42.8548 -10.6128 42.832 -10.6299 42.815 -10.6527C38.2728 -14.8647 32.1881 -17.4375 25.5 -17.4375C18.8119 -17.4375 12.7272 -14.8647 8.17935 -10.6527C8.16228 -10.6356 8.13951 -10.6185 8.12243 -10.5958C8.06551 -10.5445 8.00859 -10.4876 7.95167 -10.4307C7.92321 -10.4022 7.89475 -10.3738 7.8606 -10.3453C7.77522 -10.2656 7.68984 -10.1802 7.60446 -10.1006L7.58739 -10.0835L7.31417 -9.81027L7.30848 -9.80458C7.12065 -9.61674 6.9385 -9.42321 6.75636 -9.22969L6.75067 -9.224C6.6596 -9.12723 6.57422 -9.03047 6.48884 -8.93371L6.48315 -8.92801C6.40346 -8.84263 6.32377 -8.75156 6.24978 -8.66049C6.22701 -8.63203 6.20424 -8.60926 6.18147 -8.5808C6.11886 -8.5125 6.06194 -8.4385 5.99933 -8.3702C5.98795 -8.35312 5.97087 -8.34174 5.95949 -8.32467C2.24263 -3.89632 0 1.81841 0 8.0625C0 14.3066 2.24263 20.0213 5.96518 24.4554C5.97656 24.4724 5.99364 24.4895 6.00502 24.5066L6.18147 24.7172C6.20424 24.7456 6.22701 24.7684 6.24978 24.7969L6.48315 25.0644C6.48315 25.0701 6.48884 25.0701 6.48884 25.0758C6.57422 25.1725 6.6596 25.2693 6.75067 25.3604L6.75636 25.3661C6.9385 25.5596 7.12065 25.7531 7.30279 25.941L7.30848 25.9467C7.39955 26.0377 7.48493 26.1288 7.576 26.2142L7.59308 26.2313C7.78091 26.4191 7.97444 26.6012 8.16797 26.7777C12.7272 30.9897 18.8119 33.5625 25.5 33.5625C32.1881 33.5625 38.2728 30.9897 42.8206 26.7777C43.0146 26.5999 43.2043 26.4178 43.3898 26.2313L43.4069 26.2142C43.498 26.1231 43.5891 26.0377 43.6744 25.9467L43.6801 25.941C43.868 25.7531 44.0501 25.5596 44.2266 25.3661L44.2323 25.3604C44.3176 25.2636 44.4087 25.1725 44.4941 25.0758C44.4941 25.0701 44.4998 25.0701 44.4998 25.0644C44.5795 24.979 44.6592 24.8879 44.7331 24.7969C44.7559 24.7684 44.7787 24.7456 44.8014 24.7172C44.8658 24.6486 44.9284 24.5783 44.9893 24.5066ZM45.2227 16.3898C44.4372 18.2454 43.4012 19.9644 42.1376 21.524C40.7145 20.2941 39.1585 19.2269 37.4987 18.3422C38.1589 15.6727 38.5687 12.7413 38.6769 9.65625H46.8449C46.6741 11.9843 46.1277 14.244 45.2227 16.3898ZM46.8449 6.46875H38.6769C38.5687 3.38371 38.1589 0.452343 37.4987 -2.21719C39.1664 -3.10513 40.7203 -4.17522 42.1376 -5.399C44.8844 -2.01811 46.5274 2.12428 46.8449 6.46875ZM33.8273 -11.6602C36.0871 -10.7039 38.1419 -9.38337 39.9519 -7.72132C38.9004 -6.82601 37.7686 -6.02956 36.5709 -5.34208C35.6772 -7.90346 34.5331 -10.129 33.2012 -11.9106C33.4118 -11.8309 33.6224 -11.7455 33.8273 -11.6602ZM28.6704 28.2177C28.1468 28.6276 27.6231 28.9406 27.0938 29.1512V18.5926C29.3523 18.7502 31.5733 19.2531 33.6794 20.0839C33.2069 21.4841 32.6605 22.7762 32.0287 23.9431C31.0383 25.7873 29.8771 27.2615 28.6704 28.2177ZM32.0287 -7.81808C32.6548 -6.64554 33.2069 -5.35346 33.6794 -3.95893C31.5733 -3.12815 29.3523 -2.62521 27.0938 -2.46763V-13.0205C27.6174 -12.8099 28.1468 -12.5026 28.6704 -12.0871C29.8771 -11.1365 31.0383 -9.66228 32.0287 -7.81808ZM27.0938 15.3994V9.65625H35.4894C35.3983 12.1721 35.0853 14.6139 34.5616 16.9306L34.5445 16.9989C32.1558 16.0931 29.6438 15.5538 27.0938 15.3994ZM27.0938 6.46875V0.725557C29.7007 0.566183 32.2051 0.0140629 34.5445 -0.873884L34.5616 -0.80558C35.0853 1.51105 35.3983 3.94721 35.4894 6.46875H27.0938ZM23.9062 9.65625V15.3994C21.2993 15.5588 18.7949 16.1109 16.4555 16.9989L16.4384 16.9306C15.9147 14.6139 15.6017 12.1778 15.5106 9.65625H23.9062ZM15.5106 6.46875C15.6017 3.9529 15.9147 1.51105 16.4384 -0.80558L16.4555 -0.873884C18.7949 0.0140629 21.2936 0.566183 23.9062 0.725557V6.46875H15.5106ZM23.9062 18.5926V29.1455C23.3826 28.9349 22.8532 28.6276 22.3296 28.2121C21.1229 27.2615 19.956 25.7816 18.9656 23.9374C18.3395 22.7648 17.7874 21.4728 17.315 20.0782C19.4324 19.2472 21.6352 18.752 23.9062 18.5926ZM23.9062 -2.46763C21.6477 -2.62521 19.4267 -3.12815 17.3206 -3.95893C17.7931 -5.35915 18.3395 -6.65123 18.9713 -7.81808C19.9617 -9.66228 21.1229 -11.1422 22.3353 -12.0927C22.8589 -12.5026 23.3826 -12.8156 23.9119 -13.0262V-2.46763H23.9062ZM17.1727 -11.6602C17.3833 -11.7455 17.5882 -11.8309 17.7988 -11.9106C16.4669 -10.129 15.3228 -7.90346 14.4291 -5.34208C13.2338 -6.02511 12.1011 -6.82199 11.0481 -7.72132C12.8581 -9.38337 14.9129 -10.7039 17.1727 -11.6602ZM5.77734 -0.264843C6.56283 -2.12042 7.59877 -3.8394 8.86239 -5.399C10.2797 -4.17522 11.8336 -3.10513 13.5013 -2.21719C12.8411 0.452343 12.4312 3.38371 12.3231 6.46875H4.15513C4.32589 4.14074 4.87232 1.88103 5.77734 -0.264843ZM4.15513 9.65625H12.3231C12.4312 12.7413 12.8411 15.6727 13.5013 18.3422C11.8415 19.2269 10.2855 20.2941 8.86239 21.524C6.11561 18.1431 4.47256 14.0007 4.15513 9.65625ZM17.1727 27.7852C14.9129 26.8289 12.8581 25.5084 11.0481 23.8463C12.1011 22.947 13.2338 22.1558 14.4291 21.4671C15.3228 24.0285 16.4669 26.254 17.7988 28.0356C17.5882 27.9559 17.3776 27.8705 17.1727 27.7852ZM33.8273 27.7852C33.6167 27.8705 33.4118 27.9559 33.2012 28.0356C34.5331 26.254 35.6772 24.0285 36.5709 21.4671C37.7662 22.1501 38.8989 22.947 39.9519 23.8463C38.1519 25.5014 36.08 26.8339 33.8273 27.7852Z" fill="white"/>
</svg>
