<svg viewBox="0 0 20 21" fill="none" xmlns="http://www.w3.org/2000/svg">
<path d="M6.57005 3.78082L6.96554 4.41807L6.57005 3.78082ZM13.43 3.78082L13.0345 4.41807V4.41807L13.43 3.78082ZM15.0967 4.8152L15.4922 4.17795L15.0967 4.8152ZM4.90338 4.8152L5.29888 5.45245L4.90338 4.8152ZM7.94663 13.2892C7.61387 13.0426 7.14415 13.1124 6.89749 13.4452C6.65084 13.7779 6.72064 14.2476 7.05341 14.4943L7.94663 13.2892ZM12.9466 14.4943C13.2794 14.2476 13.3492 13.7779 13.1025 13.4452C12.8559 13.1124 12.3862 13.0426 12.0534 13.2892L12.9466 14.4943ZM11.6667 18.1418H8.33335V19.6418H11.6667V18.1418ZM5.29888 5.45245L6.96554 4.41807L6.17455 3.14358L4.50789 4.17796L5.29888 5.45245ZM13.0345 4.41807L14.7012 5.45245L15.4922 4.17795L13.8255 3.14357L13.0345 4.41807ZM2.41669 11.9959V10.7284H0.916687V11.9959H2.41669ZM17.5834 10.7284V11.9959H19.0834V10.7284H17.5834ZM6.96554 4.41807C7.81419 3.89138 8.40307 3.52699 8.89347 3.28851C9.36852 3.05749 9.69253 2.9751 10 2.9751V1.4751C9.38423 1.4751 8.82882 1.65199 8.23748 1.93955C7.66151 2.21965 6.99703 2.63312 6.17455 3.14358L6.96554 4.41807ZM13.8255 3.14357C13.003 2.63312 12.3385 2.21965 11.7626 1.93955C11.1712 1.65199 10.6158 1.4751 10 1.4751V2.9751C10.3075 2.9751 10.6315 3.05749 11.1066 3.28851C11.597 3.52699 12.1859 3.89137 13.0345 4.41807L13.8255 3.14357ZM8.33335 18.1418C6.74009 18.1418 5.62316 18.1401 4.77909 18.0227C3.95927 17.9087 3.50893 17.6985 3.18221 17.3606L2.10378 18.4032C2.75338 19.0751 3.57687 19.3699 4.57247 19.5084C5.54383 19.6435 6.78392 19.6418 8.33335 19.6418V18.1418ZM0.916687 11.9959C0.916687 13.6007 0.915197 14.8774 1.04498 15.8759C1.17724 16.8935 1.45762 17.7348 2.10378 18.4032L3.18221 17.3606C2.85207 17.0191 2.64429 16.5428 2.53247 15.6825C2.41818 14.8032 2.41669 13.6418 2.41669 11.9959H0.916687ZM11.6667 19.6418C13.2161 19.6418 14.4562 19.6435 15.4276 19.5084C16.4232 19.3699 17.2467 19.0751 17.8963 18.4032L16.8178 17.3606C16.4911 17.6985 16.0408 17.9087 15.221 18.0227C14.3769 18.1401 13.2599 18.1418 11.6667 18.1418V19.6418ZM17.5834 11.9959C17.5834 13.6418 17.5819 14.8032 17.4676 15.6825C17.3558 16.5428 17.148 17.0191 16.8178 17.3606L17.8963 18.4032C18.5424 17.7348 18.8228 16.8935 18.9551 15.8759C19.0848 14.8774 19.0834 13.6007 19.0834 11.9959H17.5834ZM14.7012 5.45245C15.5039 5.95065 16.0599 6.29672 16.4733 6.61325C16.873 6.91938 17.0935 7.16474 17.2428 7.43749L18.5586 6.71727C18.2752 6.19958 17.8842 5.80443 17.3853 5.42236C16.9 5.0507 16.2703 4.66091 15.4922 4.17795L14.7012 5.45245ZM19.0834 10.7284C19.0834 9.78874 19.0841 9.03267 19.026 8.41399C18.9664 7.78014 18.8413 7.23372 18.5586 6.71727L17.2428 7.43749C17.3928 7.71149 17.484 8.03705 17.5326 8.55432C17.5826 9.08676 17.5834 9.76096 17.5834 10.7284H19.0834ZM4.50789 4.17796C3.72972 4.66091 3.10007 5.05071 2.61477 5.42236C2.11588 5.80443 1.72483 6.19958 1.44146 6.71727L2.75724 7.43749C2.90654 7.16474 3.12706 6.91938 3.52679 6.61326C3.94011 6.29672 4.49613 5.95066 5.29888 5.45245L4.50789 4.17796ZM2.41669 10.7284C2.41669 9.76096 2.41745 9.08676 2.46748 8.55432C2.51609 8.03705 2.60727 7.71149 2.75724 7.43749L1.44146 6.71727C1.15877 7.23372 1.03362 7.78014 0.97406 8.41399C0.915924 9.03267 0.916687 9.78874 0.916687 10.7284H2.41669ZM10 13.9751C9.24003 13.9751 8.53324 13.7241 7.94663 13.2892L7.05341 14.4943C7.88409 15.11 8.90095 15.4751 10 15.4751V13.9751ZM12.0534 13.2892C11.4668 13.7241 10.76 13.9751 10 13.9751V15.4751C11.0991 15.4751 12.116 15.11 12.9466 14.4943L12.0534 13.2892Z" fill="currentColor"/>
</svg>
