<svg viewBox="0 0 17 17" fill="none" xmlns="http://www.w3.org/2000/svg">
<path d="M8.66689 4.05876C8.31327 4.05876 7.97413 3.91828 7.72408 3.66823C7.47403 3.41818 7.33356 3.07905 7.33356 2.72542C7.33356 2.3718 7.47403 2.03266 7.72408 1.78261C7.97413 1.53257 8.31327 1.39209 8.66689 1.39209C9.02051 1.39209 9.35965 1.53257 9.6097 1.78261C9.85975 2.03266 10.0002 2.3718 10.0002 2.72542C10.0002 3.07905 9.85975 3.41818 9.6097 3.66823C9.35965 3.91828 9.02051 4.05876 8.66689 4.05876ZM8.66689 9.39209C8.49179 9.39209 8.31841 9.3576 8.15665 9.2906C7.99488 9.22359 7.84789 9.12538 7.72408 9.00157C7.60027 8.87775 7.50206 8.73077 7.43505 8.569C7.36805 8.40723 7.33356 8.23385 7.33356 8.05876C7.33356 7.88366 7.36805 7.71028 7.43505 7.54851C7.50206 7.38674 7.60027 7.23976 7.72408 7.11595C7.84789 6.99214 7.99488 6.89392 8.15665 6.82692C8.31841 6.75991 8.49179 6.72542 8.66689 6.72542C9.02051 6.72542 9.35965 6.8659 9.6097 7.11595C9.85975 7.366 10.0002 7.70513 10.0002 8.05876C10.0002 8.41238 9.85975 8.75152 9.6097 9.00157C9.35965 9.25161 9.02051 9.39209 8.66689 9.39209ZM8.66689 14.7254C8.31327 14.7254 7.97413 14.5849 7.72408 14.3349C7.47403 14.0849 7.33356 13.7457 7.33356 13.3921C7.33356 13.0385 7.47403 12.6993 7.72408 12.4493C7.97413 12.1992 8.31327 12.0588 8.66689 12.0588C9.02051 12.0588 9.35965 12.1992 9.6097 12.4493C9.85975 12.6993 10.0002 13.0385 10.0002 13.3921C10.0002 13.7457 9.85975 14.0849 9.6097 14.3349C9.35965 14.5849 9.02051 14.7254 8.66689 14.7254Z" fill="#2E2F30"/>
</svg>
