<svg viewBox="0 0 106 43" width="100%" fill="none" xmlns="http://www.w3.org/2000/svg">
<g filter="url(#filter0_di_334_2446)">
<g clip-path="url(#clip0_334_2446)">
<rect y="0.0625" width="100%" height="42" rx="8" fill="url(#paint0_linear_334_2446)"/>
<path opacity="0.2" d="M28 31.0625C33.5228 31.0625 38 26.5853 38 21.0625C38 15.5397 33.5228 11.0625 28 11.0625C22.4772 11.0625 18 15.5397 18 21.0625C18 26.5853 22.4772 31.0625 28 31.0625Z" fill="white"/>
<path d="M29.5303 17.5322C29.2374 17.2393 28.7626 17.2393 28.4697 17.5322C28.1768 17.8251 28.1768 18.2999 28.4697 18.5928L30.1893 20.3125H24C23.5858 20.3125 23.25 20.6483 23.25 21.0625C23.25 21.4767 23.5858 21.8125 24 21.8125H30.1893L28.4697 23.5322C28.1768 23.8251 28.1768 24.2999 28.4697 24.5928C28.7626 24.8857 29.2374 24.8857 29.5303 24.5928L32.5303 21.5928C32.8232 21.2999 32.8232 20.8251 32.5303 20.5322L29.5303 17.5322Z" fill="white"/>
<path d="M64.128 22.3265V28.7905H62.496V28.0705H56.128V28.7905H54.496V22.3265H64.128ZM56.128 26.5025H62.496V23.8945H56.128V26.5025ZM62.656 17.0625H53.888V19.0145H62.656V17.0625ZM53.888 20.5505V21.2225C53.872 24.1505 53.168 26.6785 51.792 28.8065L50.48 27.6225C51.632 25.9585 52.224 23.8305 52.24 21.2225V15.4945H57.472C57.264 14.9665 57.04 14.4705 56.816 14.0225L58.56 13.7345C58.768 14.2625 58.976 14.8545 59.184 15.4945H64.32V20.5505H53.888ZM67.328 14.8705H73.344V16.4545H67.328V14.8705ZM66.736 19.1745H73.92V20.8065H70.336C69.808 22.8865 69.344 24.4225 68.944 25.4465C69.952 25.2225 70.944 24.9185 71.92 24.5665C71.568 23.7985 71.216 23.0945 70.864 22.4225L72.256 21.7505C72.96 23.0625 73.664 24.5185 74.336 26.1185C75.408 24.2625 75.952 21.7985 75.984 18.7585V18.6305H74.016V17.0305H75.984V13.9585H77.648V17.0305H81.088C81.088 22.3105 81.008 25.5745 80.864 26.8225C80.672 28.0065 79.84 28.5985 78.368 28.5985C78.112 28.5985 77.68 28.5665 77.04 28.5185L76.656 27.0625C77.216 27.0945 77.696 27.1265 78.112 27.1265C78.784 27.1265 79.168 26.7745 79.296 26.0705C79.392 25.3505 79.44 22.8705 79.472 18.6305H77.648V18.7585C77.6 23.3505 76.496 26.7105 74.32 28.8385L73.056 27.7345C73.52 27.2865 73.92 26.7745 74.272 26.2145L72.896 26.9185C72.768 26.5665 72.64 26.2465 72.512 25.9425C70.832 26.5185 69.024 26.9665 67.104 27.3185L66.72 25.7505C66.88 25.7025 66.992 25.6545 67.056 25.6065C67.472 24.9985 68.032 23.3985 68.72 20.8065H66.736V19.1745Z" fill="white"/>
<g opacity="0.1" clip-path="url(#clip1_334_2446)">
<path d="M97.9893 24.5066C98.0007 24.4895 98.0177 24.4724 98.0291 24.4554C101.757 20.0213 104 14.3066 104 8.0625C104 1.81841 101.757 -3.89632 98.0348 -8.33036C98.0234 -8.34743 98.0064 -8.35882 97.995 -8.37589C97.9324 -8.44989 97.8754 -8.51819 97.8128 -8.5865C97.7901 -8.61496 97.7673 -8.63772 97.7445 -8.66618L97.5112 -8.93371L97.5055 -8.9394C97.4201 -9.03616 97.329 -9.13292 97.2436 -9.22969L97.2379 -9.23538C97.0558 -9.42891 96.8737 -9.62243 96.6858 -9.81027L96.6801 -9.81596L96.4069 -10.0892L96.3898 -10.1062C96.3045 -10.1916 96.2191 -10.2713 96.1337 -10.351C96.1052 -10.3795 96.0768 -10.4079 96.0426 -10.4364C95.9857 -10.4933 95.9288 -10.5445 95.8719 -10.5958C95.8548 -10.6128 95.832 -10.6299 95.815 -10.6527C91.2728 -14.8647 85.1881 -17.4375 78.5 -17.4375C71.8119 -17.4375 65.7272 -14.8647 61.1794 -10.6527C61.1623 -10.6356 61.1395 -10.6185 61.1224 -10.5958C61.0655 -10.5445 61.0086 -10.4876 60.9517 -10.4307C60.9232 -10.4022 60.8948 -10.3738 60.8606 -10.3453C60.7752 -10.2656 60.6898 -10.1802 60.6045 -10.1006L60.5874 -10.0835L60.3142 -9.81027L60.3085 -9.80458C60.1206 -9.61674 59.9385 -9.42321 59.7564 -9.22969L59.7507 -9.224C59.6596 -9.12723 59.5742 -9.03047 59.4888 -8.93371L59.4831 -8.92801C59.4035 -8.84263 59.3238 -8.75156 59.2498 -8.66049C59.227 -8.63203 59.2042 -8.60926 59.1815 -8.5808C59.1189 -8.5125 59.0619 -8.4385 58.9993 -8.3702C58.9879 -8.35312 58.9709 -8.34174 58.9595 -8.32467C55.2426 -3.89632 53 1.81841 53 8.0625C53 14.3066 55.2426 20.0213 58.9652 24.4554C58.9766 24.4724 58.9936 24.4895 59.005 24.5066L59.1815 24.7172C59.2042 24.7456 59.227 24.7684 59.2498 24.7969L59.4831 25.0644C59.4831 25.0701 59.4888 25.0701 59.4888 25.0758C59.5742 25.1725 59.6596 25.2693 59.7507 25.3604L59.7564 25.3661C59.9385 25.5596 60.1206 25.7531 60.3028 25.941L60.3085 25.9467C60.3996 26.0377 60.4849 26.1288 60.576 26.2142L60.5931 26.2313C60.7809 26.4191 60.9744 26.6012 61.168 26.7777C65.7272 30.9897 71.8119 33.5625 78.5 33.5625C85.1881 33.5625 91.2728 30.9897 95.8206 26.7777C96.0146 26.5999 96.2043 26.4178 96.3898 26.2313L96.4069 26.2142C96.498 26.1231 96.5891 26.0377 96.6744 25.9467L96.6801 25.941C96.868 25.7531 97.0501 25.5596 97.2266 25.3661L97.2323 25.3604C97.3176 25.2636 97.4087 25.1725 97.4941 25.0758C97.4941 25.0701 97.4998 25.0701 97.4998 25.0644C97.5795 24.979 97.6592 24.8879 97.7331 24.7969C97.7559 24.7684 97.7787 24.7456 97.8014 24.7172C97.8658 24.6486 97.9284 24.5783 97.9893 24.5066ZM98.2227 16.3898C97.4372 18.2454 96.4012 19.9644 95.1376 21.524C93.7145 20.2941 92.1585 19.2269 90.4987 18.3422C91.1589 15.6727 91.5687 12.7413 91.6769 9.65625H99.8449C99.6741 11.9843 99.1277 14.244 98.2227 16.3898ZM99.8449 6.46875H91.6769C91.5687 3.38371 91.1589 0.452343 90.4987 -2.21719C92.1664 -3.10513 93.7203 -4.17522 95.1376 -5.399C97.8844 -2.01811 99.5274 2.12428 99.8449 6.46875ZM86.8273 -11.6602C89.0871 -10.7039 91.1419 -9.38337 92.9519 -7.72132C91.9004 -6.82601 90.7686 -6.02956 89.5709 -5.34208C88.6772 -7.90346 87.5331 -10.129 86.2012 -11.9106C86.4118 -11.8309 86.6224 -11.7455 86.8273 -11.6602ZM81.6704 28.2177C81.1468 28.6276 80.6231 28.9406 80.0938 29.1512V18.5926C82.3523 18.7502 84.5733 19.2531 86.6794 20.0839C86.2069 21.4841 85.6605 22.7762 85.0287 23.9431C84.0383 25.7873 82.8771 27.2615 81.6704 28.2177ZM85.0287 -7.81808C85.6548 -6.64554 86.2069 -5.35346 86.6794 -3.95893C84.5733 -3.12815 82.3523 -2.62521 80.0938 -2.46763V-13.0205C80.6174 -12.8099 81.1468 -12.5026 81.6704 -12.0871C82.8771 -11.1365 84.0383 -9.66228 85.0287 -7.81808ZM80.0938 15.3994V9.65625H88.4894C88.3983 12.1721 88.0853 14.6139 87.5616 16.9306L87.5445 16.9989C85.1558 16.0931 82.6438 15.5538 80.0938 15.3994ZM80.0938 6.46875V0.725557C82.7007 0.566183 85.2051 0.0140629 87.5445 -0.873884L87.5616 -0.80558C88.0853 1.51105 88.3983 3.94721 88.4894 6.46875H80.0938ZM76.9062 9.65625V15.3994C74.2993 15.5588 71.7949 16.1109 69.4555 16.9989L69.4384 16.9306C68.9147 14.6139 68.6017 12.1778 68.5106 9.65625H76.9062ZM68.5106 6.46875C68.6017 3.9529 68.9147 1.51105 69.4384 -0.80558L69.4555 -0.873884C71.7949 0.0140629 74.2936 0.566183 76.9062 0.725557V6.46875H68.5106ZM76.9062 18.5926V29.1455C76.3826 28.9349 75.8532 28.6276 75.3296 28.2121C74.1229 27.2615 72.956 25.7816 71.9656 23.9374C71.3395 22.7648 70.7874 21.4728 70.315 20.0782C72.4324 19.2472 74.6352 18.752 76.9062 18.5926ZM76.9062 -2.46763C74.6477 -2.62521 72.4267 -3.12815 70.3206 -3.95893C70.7931 -5.35915 71.3395 -6.65123 71.9713 -7.81808C72.9617 -9.66228 74.1229 -11.1422 75.3353 -12.0927C75.8589 -12.5026 76.3826 -12.8156 76.9119 -13.0262V-2.46763H76.9062ZM70.1727 -11.6602C70.3833 -11.7455 70.5882 -11.8309 70.7988 -11.9106C69.4669 -10.129 68.3228 -7.90346 67.4291 -5.34208C66.2338 -6.02511 65.1011 -6.82199 64.0481 -7.72132C65.8581 -9.38337 67.9129 -10.7039 70.1727 -11.6602ZM58.7773 -0.264843C59.5628 -2.12042 60.5988 -3.8394 61.8624 -5.399C63.2797 -4.17522 64.8336 -3.10513 66.5013 -2.21719C65.8411 0.452343 65.4312 3.38371 65.3231 6.46875H57.1551C57.3259 4.14074 57.8723 1.88103 58.7773 -0.264843ZM57.1551 9.65625H65.3231C65.4312 12.7413 65.8411 15.6727 66.5013 18.3422C64.8415 19.2269 63.2855 20.2941 61.8624 21.524C59.1156 18.1431 57.4726 14.0007 57.1551 9.65625ZM70.1727 27.7852C67.9129 26.8289 65.8581 25.5084 64.0481 23.8463C65.1011 22.947 66.2338 22.1558 67.4291 21.4671C68.3228 24.0285 69.4669 26.254 70.7988 28.0356C70.5882 27.9559 70.3776 27.8705 70.1727 27.7852ZM86.8273 27.7852C86.6167 27.8705 86.4118 27.9559 86.2012 28.0356C87.5331 26.254 88.6772 24.0285 89.5709 21.4671C90.7662 22.1501 91.8989 22.947 92.9519 23.8463C91.1519 25.5014 89.08 26.8339 86.8273 27.7852Z" fill="white"/>
</g>
</g>
</g>
<defs>
<filter id="filter0_di_334_2446" x="-8" y="-3.9375" width="114" height="58" filterUnits="userSpaceOnUse" color-interpolation-filters="sRGB">
<feFlood flood-opacity="0" result="BackgroundImageFix"/>
<feColorMatrix in="SourceAlpha" type="matrix" values="0 0 0 0 0 0 0 0 0 0 0 0 0 0 0 0 0 0 127 0" result="hardAlpha"/>
<feOffset dy="4"/>
<feGaussianBlur stdDeviation="4"/>
<feComposite in2="hardAlpha" operator="out"/>
<feColorMatrix type="matrix" values="0 0 0 0 0 0 0 0 0 0 0 0 0 0 0 0 0 0 0.1 0"/>
<feBlend mode="multiply" in2="BackgroundImageFix" result="effect1_dropShadow_334_2446"/>
<feBlend mode="normal" in="SourceGraphic" in2="effect1_dropShadow_334_2446" result="shape"/>
<feColorMatrix in="SourceAlpha" type="matrix" values="0 0 0 0 0 0 0 0 0 0 0 0 0 0 0 0 0 0 127 0" result="hardAlpha"/>
<feOffset dy="1"/>
<feComposite in2="hardAlpha" operator="arithmetic" k2="-1" k3="1"/>
<feColorMatrix type="matrix" values="0 0 0 0 1 0 0 0 0 1 0 0 0 0 1 0 0 0 0.05 0"/>
<feBlend mode="normal" in2="shape" result="effect2_innerShadow_334_2446"/>
</filter>
<linearGradient id="paint0_linear_334_2446" x1="98" y1="0.0625537" x2="-0.652798" y2="1.65638" gradientUnits="userSpaceOnUse">
<stop stop-color="#7D41FF"/>
<stop offset="1" stop-color="#5E51FF"/>
</linearGradient>
<clipPath id="clip0_334_2446">
<rect y="0.0625" width="98" height="42" rx="8" fill="white"/>
</clipPath>
<clipPath id="clip1_334_2446">
<rect width="51" height="51" fill="white" transform="translate(53 -17.4375)"/>
</clipPath>
</defs>
</svg>
