<svg viewBox="0 0 20 21" fill="none" xmlns="http://www.w3.org/2000/svg">
<path d="M17.357 16.249L16.8267 15.7186H16.8267L17.357 16.249ZM17.357 4.86824L16.8267 5.39857L16.8267 5.39857L17.357 4.86824ZM12.5022 3.14271C12.088 3.14149 11.7512 3.4763 11.75 3.89051C11.7488 4.30472 12.0836 4.64149 12.4978 4.6427L12.5022 3.14271ZM7.50222 4.6427C7.91643 4.64149 8.25123 4.30472 8.25002 3.89051C8.24881 3.4763 7.91204 3.14149 7.49783 3.14271L7.50222 4.6427ZM9.25002 4.72526C9.25002 5.13947 9.58581 5.47526 10 5.47526C10.4142 5.47526 10.75 5.13947 10.75 4.72526H9.25002ZM10.75 3.05859C10.75 2.64438 10.4142 2.30859 10 2.30859C9.58581 2.30859 9.25002 2.64438 9.25002 3.05859H10.75ZM6.66669 8.55859C6.25247 8.55859 5.91669 8.89438 5.91669 9.30859C5.91669 9.72281 6.25247 10.0586 6.66669 10.0586V8.55859ZM13.3334 10.0586C13.7476 10.0586 14.0834 9.72281 14.0834 9.30859C14.0834 8.89438 13.7476 8.55859 13.3334 8.55859V10.0586ZM6.66669 11.4753C6.25247 11.4753 5.91669 11.811 5.91669 12.2253C5.91669 12.6395 6.25247 12.9753 6.66669 12.9753V11.4753ZM11.25 12.9753C11.6642 12.9753 12 12.6395 12 12.2253C12 11.811 11.6642 11.4753 11.25 11.4753V12.9753ZM11.6667 16.4753H8.33335V17.9753H11.6667V16.4753ZM8.33335 16.4753C6.7408 16.4753 5.62184 16.4737 4.77572 16.3599C3.95117 16.2491 3.49891 16.0442 3.17333 15.7186L2.11267 16.7793C2.7634 17.43 3.58497 17.7133 4.57585 17.8465C5.54515 17.9769 6.78321 17.9753 8.33335 17.9753V16.4753ZM0.916687 10.5586C0.916687 12.1087 0.915094 13.3468 1.04541 14.3161C1.17863 15.307 1.46194 16.1285 2.11267 16.7793L3.17333 15.7186C2.84775 15.393 2.6429 14.9408 2.53204 14.1162C2.41828 13.2701 2.41669 12.1511 2.41669 10.5586H0.916687ZM17.5834 10.5586C17.5834 12.1511 17.5818 13.2701 17.468 14.1162C17.3571 14.9408 17.1523 15.393 16.8267 15.7186L17.8874 16.7793C18.5381 16.1285 18.8214 15.307 18.9546 14.3161C19.0849 13.3468 19.0834 12.1087 19.0834 10.5586H17.5834ZM11.6667 17.9753C13.2168 17.9753 14.4549 17.9769 15.4242 17.8465C16.4151 17.7133 17.2366 17.43 17.8874 16.7793L16.8267 15.7186C16.5011 16.0442 16.0489 16.2491 15.2243 16.3599C14.3782 16.4737 13.2592 16.4753 11.6667 16.4753V17.9753ZM19.0834 10.5586C19.0834 9.00845 19.0849 7.77039 18.9546 6.80109C18.8214 5.81021 18.5381 4.98864 17.8874 4.33791L16.8267 5.39857C17.1523 5.72415 17.3571 6.17641 17.468 7.00096C17.5818 7.84708 17.5834 8.96604 17.5834 10.5586H19.0834ZM2.41669 10.5586C2.41669 8.96604 2.41828 7.84708 2.53204 7.00096C2.6429 6.17641 2.84775 5.72415 3.17333 5.39857L2.11267 4.33791C1.46194 4.98864 1.17863 5.81021 1.04541 6.80109C0.915094 7.77039 0.916687 9.00845 0.916687 10.5586H2.41669ZM12.4978 4.6427C13.8055 4.64653 14.7362 4.67043 15.4441 4.79053C16.1301 4.90694 16.5303 5.10214 16.8267 5.39857L17.8874 4.33791C17.2979 3.74842 16.5672 3.45966 15.695 3.31167C14.8446 3.16739 13.7898 3.14647 12.5022 3.14271L12.4978 4.6427ZM7.49783 3.14271C6.21024 3.14647 5.1554 3.16739 4.30504 3.31167C3.43287 3.45966 2.70216 3.74842 2.11267 4.33791L3.17333 5.39857C3.46975 5.10214 3.86992 4.90694 4.55597 4.79053C5.26384 4.67043 6.19455 4.64653 7.50222 4.6427L7.49783 3.14271ZM10.75 4.72526V3.05859H9.25002V4.72526H10.75ZM6.66669 10.0586H13.3334V8.55859H6.66669V10.0586ZM6.66669 12.9753H11.25V11.4753H6.66669V12.9753Z" fill="#2E3A59"/>
</svg>
