<svg viewBox="0 0 24 24" fill="none" xmlns="http://www.w3.org/2000/svg">
<path d="M7.37756 12.5556L6.81609 13.0528C6.95137 13.2056 7.14306 13.2966 7.34695 13.3049C7.55084 13.3133 7.74932 13.2381 7.89662 13.0969L7.37756 12.5556ZM14.9317 9.0093C15.213 9.31337 15.6875 9.33183 15.9915 9.05055C16.2956 8.76927 16.3141 8.29476 16.0328 7.9907L14.9317 9.0093ZM16.6188 11.4453L17.1795 10.9472C17.044 10.7947 16.8523 10.704 16.6485 10.6959C16.4447 10.6878 16.2464 10.7631 16.0993 10.9044L16.6188 11.4453ZM9.04688 15.0057C8.76342 14.7037 8.28879 14.6886 7.98675 14.9721C7.68472 15.2555 7.66966 15.7302 7.95312 16.0322L9.04688 15.0057ZM12.0437 6.25C9.05802 6.25 6.62756 8.653 6.62756 11.6296H8.12756C8.12756 9.49251 9.87531 7.75 12.0437 7.75V6.25ZM6.62756 11.6296V12.5556H8.12756V11.6296H6.62756ZM7.89662 13.0969L9.51905 11.5414L8.48095 10.4586L6.85851 12.0142L7.89662 13.0969ZM7.93904 12.0583L6.56148 10.5028L5.43852 11.4972L6.81609 13.0528L7.93904 12.0583ZM16.0328 7.9907C15.0431 6.9209 13.6212 6.25 12.0437 6.25V7.75C13.1879 7.75 14.2154 8.23504 14.9317 9.0093L16.0328 7.9907ZM11.9348 17.7509C14.9276 17.7509 17.3688 15.3506 17.3688 12.3712H15.8688C15.8688 14.5057 14.1158 16.2509 11.9348 16.2509V17.7509ZM17.3688 12.3712V11.4453H15.8688V12.3712H17.3688ZM16.0993 10.9044L14.4805 12.4591L15.5195 13.5409L17.1383 11.9862L16.0993 10.9044ZM16.0581 11.9434L17.4393 13.4981L18.5607 12.5019L17.1795 10.9472L16.0581 11.9434ZM7.95312 16.0322C8.94543 17.0895 10.3635 17.7509 11.9348 17.7509V16.2509C10.792 16.2509 9.76546 15.7714 9.04688 15.0057L7.95312 16.0322ZM12 21.25C9.62177 21.25 7.91355 21.2484 6.61358 21.0736C5.33517 20.9018 4.56445 20.5749 3.9948 20.0052L2.93414 21.0659C3.82895 21.9607 4.96897 22.366 6.4137 22.5603C7.83687 22.7516 9.66418 22.75 12 22.75V21.25ZM1.25 12C1.25 14.3358 1.24841 16.1631 1.43975 17.5863C1.63399 19.031 2.03933 20.1711 2.93414 21.0659L3.9948 20.0052C3.42514 19.4355 3.09825 18.6648 2.92637 17.3864C2.75159 16.0864 2.75 14.3782 2.75 12H1.25ZM21.25 12C21.25 14.3782 21.2484 16.0864 21.0736 17.3864C20.9018 18.6648 20.5749 19.4355 20.0052 20.0052L21.0659 21.0659C21.9607 20.1711 22.366 19.031 22.5603 17.5863C22.7516 16.1631 22.75 14.3358 22.75 12H21.25ZM12 22.75C14.3358 22.75 16.1631 22.7516 17.5863 22.5603C19.031 22.366 20.1711 21.9607 21.0659 21.0659L20.0052 20.0052C19.4355 20.5749 18.6648 20.9018 17.3864 21.0736C16.0864 21.2484 14.3782 21.25 12 21.25V22.75ZM12 2.75C14.3782 2.75 16.0864 2.75159 17.3864 2.92637C18.6648 3.09825 19.4355 3.42514 20.0052 3.9948L21.0659 2.93414C20.1711 2.03933 19.031 1.63399 17.5863 1.43975C16.1631 1.24841 14.3358 1.25 12 1.25V2.75ZM22.75 12C22.75 9.66418 22.7516 7.83687 22.5603 6.41371C22.366 4.96897 21.9607 3.82895 21.0659 2.93414L20.0052 3.9948C20.5749 4.56445 20.9018 5.33517 21.0736 6.61358C21.2484 7.91356 21.25 9.62178 21.25 12H22.75ZM12 1.25C9.66418 1.25 7.83687 1.24841 6.4137 1.43975C4.96897 1.63399 3.82895 2.03933 2.93414 2.93414L3.9948 3.9948C4.56445 3.42514 5.33517 3.09825 6.61358 2.92637C7.91355 2.75159 9.62177 2.75 12 2.75V1.25ZM2.75 12C2.75 9.62178 2.75159 7.91356 2.92637 6.61358C3.09825 5.33517 3.42514 4.56445 3.9948 3.9948L2.93414 2.93414C2.03933 3.82895 1.63399 4.96897 1.43975 6.41371C1.24841 7.83687 1.25 9.66418 1.25 12H2.75Z" fill="currentColor"/>
</svg>
