<svg viewBox="0 0 20 21" fill="none" xmlns="http://www.w3.org/2000/svg">
<path d="M14.1667 9.64176C14.5809 9.64176 14.9167 9.30598 14.9167 8.89176C14.9167 8.47755 14.5809 8.14176 14.1667 8.14176V9.64176ZM5.83335 8.89176L5.3402 8.3267C5.10466 8.53226 5.02133 8.86238 5.13111 9.15511C5.24088 9.44783 5.52072 9.64176 5.83335 9.64176V8.89176ZM9.19109 6.95683C9.50317 6.68447 9.53537 6.21069 9.26301 5.89861C8.99065 5.58654 8.51687 5.55434 8.20479 5.8267L9.19109 6.95683ZM5.83335 11.4751C5.41914 11.4751 5.08335 11.8109 5.08335 12.2251C5.08335 12.6393 5.41914 12.9751 5.83335 12.9751V11.4751ZM14.1667 12.2251L14.6598 12.7902C14.8954 12.5846 14.9787 12.2545 14.8689 11.9618C14.7592 11.669 14.4793 11.4751 14.1667 11.4751V12.2251ZM10.809 14.16C10.4969 14.4324 10.4647 14.9062 10.737 15.2182C11.0094 15.5303 11.4832 15.5625 11.7953 15.2902L10.809 14.16ZM17.5834 10.5584C17.5834 14.7466 14.1882 18.1418 10 18.1418V19.6418C15.0166 19.6418 19.0834 15.575 19.0834 10.5584H17.5834ZM10 18.1418C5.81186 18.1418 2.41669 14.7466 2.41669 10.5584H0.916687C0.916687 15.575 4.98343 19.6418 10 19.6418V18.1418ZM2.41669 10.5584C2.41669 6.37027 5.81186 2.9751 10 2.9751V1.4751C4.98343 1.4751 0.916687 5.54184 0.916687 10.5584H2.41669ZM10 2.9751C14.1882 2.9751 17.5834 6.37027 17.5834 10.5584H19.0834C19.0834 5.54184 15.0166 1.4751 10 1.4751V2.9751ZM14.1667 8.14176H5.83335V9.64176H14.1667V8.14176ZM6.3265 9.45683L9.19109 6.95683L8.20479 5.8267L5.3402 8.3267L6.3265 9.45683ZM5.83335 12.9751L14.1667 12.9751V11.4751H5.83335V12.9751ZM13.6735 11.66L10.809 14.16L11.7953 15.2902L14.6598 12.7902L13.6735 11.66Z" fill="currentColor"/>
</svg>
