<svg viewBox="0 0 24 25" fill="none" xmlns="http://www.w3.org/2000/svg">
<path opacity="0.2" d="M12 22.0625C17.5228 22.0625 22 17.5853 22 12.0625C22 6.53965 17.5228 2.0625 12 2.0625C6.47715 2.0625 2 6.53965 2 12.0625C2 17.5853 6.47715 22.0625 12 22.0625Z" fill="white"/>
<path d="M13.5303 8.53217C13.2374 8.23928 12.7626 8.23928 12.4697 8.53217C12.1768 8.82506 12.1768 9.29994 12.4697 9.59283L14.1893 11.3125H8C7.58579 11.3125 7.25 11.6483 7.25 12.0625C7.25 12.4767 7.58579 12.8125 8 12.8125H14.1893L12.4697 14.5322C12.1768 14.8251 12.1768 15.2999 12.4697 15.5928C12.7626 15.8857 13.2374 15.8857 13.5303 15.5928L16.5303 12.5928C16.8232 12.2999 16.8232 11.8251 16.5303 11.5322L13.5303 8.53217Z" fill="white"/>
</svg>
