<svg viewBox="0 0 21 20" fill="none" xmlns="http://www.w3.org/2000/svg">
<path d="M5.45934 3.37147L4.92901 2.84114L4.92901 2.84114L5.45934 3.37147ZM4.2541 4.57672L4.78443 5.10705L4.78443 5.10705L4.2541 4.57672ZM10.2803 3.37147L10.8107 3.9018C10.9513 3.76115 11.0303 3.57038 11.0303 3.37147C11.0303 3.17256 10.9513 2.98179 10.8107 2.84114L10.2803 3.37147ZM17.5118 10.6029L18.0421 10.0726C17.9015 9.93197 17.7107 9.85295 17.5118 9.85295C17.3129 9.85295 17.1221 9.93197 16.9815 10.0726L17.5118 10.6029ZM7.74126 4.84988C7.44837 5.14277 7.44837 5.61765 7.74126 5.91054C8.03415 6.20343 8.50903 6.20344 8.80192 5.91054L7.74126 4.84988ZM14.9727 12.0814C14.6798 12.3743 14.6798 12.8491 14.9727 13.142C15.2656 13.4349 15.7405 13.4349 16.0334 13.142L14.9727 12.0814ZM13.6221 2.62681L13.0917 2.09648V2.09648L13.6221 2.62681ZM18.2565 7.26121L18.7868 7.79154L18.2565 7.26121ZM2.595 17.1705L3.30651 17.4076H3.30651L2.595 17.1705ZM3.72926 13.7677L4.44077 14.0048L3.72926 13.7677ZM5.74864 10.5002L6.27897 11.0306L5.74864 10.5002ZM7.1156 17.154L6.87843 16.4425H6.87843L7.1156 17.154ZM3.71282 18.2883L3.47565 17.5768H3.47565L3.71282 18.2883ZM9.39643 16.0629L8.93516 15.4715L8.93516 15.4715L9.39643 16.0629ZM8.3871 16.6867L8.06444 16.0097H8.06444L8.3871 16.6867ZM4.19657 12.4962L3.51953 12.1735H3.51953L4.19657 12.4962ZM4.82037 11.4869L5.41175 11.9481H5.41175L4.82037 11.4869ZM4.38122 18.0655L4.61839 18.777H4.61839L4.38122 18.0655ZM2.8178 16.5021L2.10628 16.2649L2.10628 16.2649L2.8178 16.5021ZM4.92901 2.84114L3.72377 4.04639L4.78443 5.10705L5.98968 3.9018L4.92901 2.84114ZM16.8369 17.1595L18.0421 15.9543L16.9815 14.8936L15.7762 16.0989L16.8369 17.1595ZM10.9552 17.1595C11.5084 17.7127 11.9755 18.182 12.3973 18.5038C12.8363 18.8388 13.3131 19.0837 13.8961 19.0837V17.5837C13.773 17.5837 13.6127 17.5445 13.3071 17.3113C12.9842 17.0649 12.5991 16.682 12.0159 16.0989L10.9552 17.1595ZM15.7762 16.0989C15.1931 16.682 14.8079 17.0649 14.485 17.3113C14.1794 17.5445 14.0192 17.5837 13.8961 17.5837V19.0837C14.479 19.0837 14.9558 18.8388 15.3949 18.5038C15.8166 18.182 16.2837 17.7127 16.8369 17.1595L15.7762 16.0989ZM3.72377 4.04639C3.1706 4.59955 2.70125 5.06665 2.37948 5.48839C2.04449 5.92743 1.79962 6.40428 1.79962 6.98721H3.29962C3.29962 6.86412 3.33883 6.70388 3.57201 6.39826C3.81839 6.07534 4.20128 5.6902 4.78443 5.10705L3.72377 4.04639ZM4.78443 8.86737C4.20128 8.28422 3.81839 7.89908 3.57201 7.57616C3.33883 7.27054 3.29962 7.1103 3.29962 6.98721H1.79962C1.79962 7.57014 2.0445 8.04699 2.37948 8.48603C2.70125 8.90777 3.17061 9.37487 3.72377 9.92803L4.78443 8.86737ZM10.8107 2.84114C10.2575 2.28797 9.7904 1.81862 9.36866 1.49684C8.92961 1.16186 8.45277 0.916992 7.86984 0.916992V2.41699C7.99293 2.41699 8.15317 2.4562 8.45879 2.68938C8.78171 2.93576 9.16685 3.31865 9.75 3.9018L10.8107 2.84114ZM5.98967 3.9018C6.57283 3.31865 6.95797 2.93576 7.28089 2.68938C7.58651 2.4562 7.74675 2.41699 7.86984 2.41699V0.916992C7.28691 0.916992 6.81006 1.16186 6.37102 1.49684C5.94928 1.81862 5.48218 2.28797 4.92901 2.84114L5.98967 3.9018ZM16.9815 11.1333C17.5646 11.7164 17.9475 12.1016 18.1939 12.4245C18.4271 12.7301 18.4663 12.8904 18.4663 13.0134H19.9663C19.9663 12.4305 19.7214 11.9537 19.3864 11.5146C19.0647 11.0929 18.5953 10.6258 18.0421 10.0726L16.9815 11.1333ZM18.0421 15.9543C18.5953 15.4011 19.0647 14.934 19.3864 14.5123C19.7214 14.0732 19.9663 13.5964 19.9663 13.0134H18.4663C18.4663 13.1365 18.4271 13.2968 18.1939 13.6024C17.9475 13.9253 17.5646 14.3105 16.9815 14.8936L18.0421 15.9543ZM9.75 2.84114L7.74126 4.84988L8.80192 5.91054L10.8107 3.9018L9.75 2.84114ZM16.9815 10.0726L14.9727 12.0814L16.0334 13.142L18.0421 11.1333L16.9815 10.0726ZM13.38 3.92954L14.1524 3.15714L13.0917 2.09648L12.3193 2.86888L13.38 3.92954ZM17.7261 6.73088L16.9537 7.50327L18.0144 8.56393L18.7868 7.79154L17.7261 6.73088ZM12.8497 3.39921C12.101 3.44325 12.101 3.44356 12.101 3.44387C12.101 3.44399 12.101 3.44431 12.101 3.44454C12.1011 3.44499 12.1011 3.44547 12.1011 3.44598C12.1012 3.44699 12.1013 3.44811 12.1013 3.44932C12.1015 3.45176 12.1017 3.4546 12.1019 3.45784C12.1024 3.46433 12.103 3.47241 12.1039 3.48204C12.1055 3.5013 12.108 3.52677 12.1115 3.55797C12.1187 3.62034 12.1304 3.70587 12.1492 3.8108C12.1868 4.02035 12.2533 4.30923 12.3704 4.64674C12.6046 5.3218 13.044 6.19903 13.8641 7.01914L14.9248 5.95848C14.2967 5.33034 13.9637 4.66276 13.7875 4.15508C13.6995 3.90122 13.6513 3.68925 13.6256 3.5458C13.6127 3.47422 13.6056 3.4202 13.6018 3.38715C13.5999 3.37065 13.5988 3.35943 13.5984 3.35394C13.5981 3.3512 13.598 3.34989 13.5981 3.35008C13.5981 3.35017 13.5981 3.35063 13.5982 3.35148C13.5982 3.3519 13.5982 3.35242 13.5983 3.35303C13.5983 3.35334 13.5983 3.35367 13.5983 3.35403C13.5983 3.3542 13.5983 3.35449 13.5983 3.35458C13.5984 3.35487 13.5984 3.35517 12.8497 3.39921ZM13.8641 7.01914C14.6843 7.83925 15.5615 8.27866 16.2365 8.51287C16.574 8.62996 16.8629 8.69648 17.0725 8.73409C17.1774 8.75293 17.2629 8.7646 17.3253 8.77175C17.3565 8.77532 17.382 8.77778 17.4012 8.77943C17.4109 8.78025 17.419 8.78088 17.4254 8.78135C17.4287 8.78158 17.4315 8.78177 17.434 8.78193C17.4352 8.78201 17.4363 8.78208 17.4373 8.78215C17.4378 8.78218 17.4383 8.78221 17.4387 8.78223C17.439 8.78225 17.4393 8.78227 17.4394 8.78227C17.4397 8.78229 17.44 8.78231 17.4841 8.0336C17.5281 7.2849 17.5284 7.28492 17.5287 7.28493C17.5288 7.28494 17.5291 7.28496 17.5293 7.28497C17.5296 7.28499 17.5299 7.28501 17.5302 7.28503C17.5309 7.28507 17.5314 7.2851 17.5318 7.28513C17.5326 7.28518 17.5331 7.28521 17.5332 7.28522C17.5334 7.28523 17.5321 7.28514 17.5293 7.28491C17.5238 7.28444 17.5126 7.2834 17.4961 7.28151C17.4631 7.27772 17.4091 7.27053 17.3375 7.25769C17.194 7.23194 16.9821 7.1838 16.7282 7.09573C16.2205 6.9196 15.5529 6.58661 14.9248 5.95848L13.8641 7.01914ZM6.27897 11.0306L13.38 3.92954L12.3193 2.86888L5.21831 9.96991L6.27897 11.0306ZM16.9537 7.50327L9.85271 14.6043L10.9134 15.665L18.0144 8.56393L16.9537 7.50327ZM9.85271 14.6043C9.35924 15.0978 9.15558 15.2996 8.93516 15.4715L9.85769 16.6543C10.1676 16.4126 10.4449 16.1334 10.9134 15.665L9.85271 14.6043ZM7.35278 17.8655C7.98129 17.656 8.35498 17.5328 8.70977 17.3637L8.06444 16.0097C7.81209 16.1299 7.54049 16.2218 6.87843 16.4425L7.35278 17.8655ZM8.93516 15.4715C8.66532 15.682 8.37336 15.8624 8.06444 16.0097L8.70977 17.3638C9.11704 17.1697 9.50195 16.9318 9.85769 16.6543L8.93516 15.4715ZM3.33881 17.5445C3.303 17.5087 3.29049 17.4557 3.30651 17.4076L1.88348 16.9333C1.6878 17.5203 1.84059 18.1676 2.27815 18.6051L3.33881 17.5445ZM4.44077 14.0048C4.66145 13.3428 4.75335 13.0712 4.87362 12.8188L3.51953 12.1735C3.35045 12.5283 3.22725 12.902 3.01774 13.5305L4.44077 14.0048ZM5.21831 9.96991C4.74984 10.4384 4.4707 10.7157 4.22899 11.0256L5.41175 11.9481C5.58368 11.7277 5.7855 11.524 6.27897 11.0306L5.21831 9.96991ZM4.87362 12.8188C5.02084 12.5099 5.20129 12.218 5.41175 11.9481L4.22899 11.0256C3.95152 11.3813 3.71363 11.7662 3.51953 12.1735L4.87362 12.8188ZM2.27815 18.6051C2.71571 19.0427 3.36294 19.1955 3.94999 18.9998L3.47565 17.5768C3.4276 17.5928 3.37463 17.5803 3.33881 17.5445L2.27815 18.6051ZM17.7261 3.15714C18.713 4.144 18.713 5.74401 17.7261 6.73088L18.7868 7.79154C20.3594 6.21889 20.3594 3.66912 18.7868 2.09648L17.7261 3.15714ZM18.7868 2.09648C17.2142 0.523831 14.6644 0.523831 13.0917 2.09648L14.1524 3.15714C15.1393 2.17028 16.7393 2.17028 17.7261 3.15714L18.7868 2.09648ZM4.14405 17.354L3.47565 17.5768L3.94999 18.9998L4.61839 18.777L4.14405 17.354ZM3.30651 17.4076L3.52931 16.7392L2.10628 16.2649L1.88348 16.9333L3.30651 17.4076ZM4.91155 17.5352L3.34813 15.9717L2.28746 17.0324L3.85089 18.5958L4.91155 17.5352ZM6.87843 16.4425L4.14405 17.354L4.61839 18.777L7.35278 17.8655L6.87843 16.4425ZM3.52931 16.7392L4.44077 14.0048L3.01774 13.5305L2.10628 16.2649L3.52931 16.7392Z" fill="#2E3A59"/>
</svg>
