<svg viewBox="0 0 20 21" fill="none" xmlns="http://www.w3.org/2000/svg">
<path d="M15 2.2251V2.9751V2.2251ZM13.3333 2.2251V1.4751V2.2251ZM9.99996 9.80843C9.58575 9.80843 9.24996 10.1442 9.24996 10.5584C9.24996 10.9726 9.58575 11.3084 9.99996 11.3084V9.80843ZM11.6666 11.3084C12.0808 11.3084 12.4166 10.9726 12.4166 10.5584C12.4166 10.1442 12.0808 9.80843 11.6666 9.80843V11.3084ZM11.6666 6.30843C12.0808 6.30843 12.4166 5.97264 12.4166 5.55843C12.4166 5.14422 12.0808 4.80843 11.6666 4.80843L11.6666 6.30843ZM11.6666 16.3084C12.0808 16.3084 12.4166 15.9726 12.4166 15.5584C12.4166 15.1442 12.0808 14.8084 11.6666 14.8084V16.3084ZM9.99996 12.3084C9.58575 12.3084 9.24996 12.6442 9.24996 13.0584C9.24996 13.4726 9.58575 13.8084 9.99996 13.8084V12.3084ZM12.5 13.8084C12.9142 13.8084 13.25 13.4726 13.25 13.0584C13.25 12.6442 12.9142 12.3084 12.5 12.3084V13.8084ZM9.99996 7.30843C9.58575 7.30843 9.24996 7.64422 9.24996 8.05843C9.24996 8.47264 9.58575 8.80843 9.99996 8.80843V7.30843ZM12.5 8.80843C12.9142 8.80843 13.25 8.47264 13.25 8.05843C13.25 7.64422 12.9142 7.30843 12.5 7.30843V8.80843ZM1.66663 4.6001H0.916626V4.6001L1.66663 4.6001ZM6.66663 4.6001L7.41663 4.6001V4.6001H6.66663ZM3.56362 18.5377L2.89993 18.887L2.89993 18.887L3.56362 18.5377ZM2.33988 16.2126L1.67619 16.5619H1.67619L2.33988 16.2126ZM1.66663 13.5033H2.41663H1.66663ZM6.66663 13.5033H5.91663H6.66663ZM5.99337 16.2126L5.32968 15.8633L5.32968 15.8633L5.99337 16.2126ZM4.76963 18.5377L4.10594 18.1884L4.76963 18.5377ZM6.63515 14.4846L5.89142 14.3878V14.3878L6.63515 14.4846ZM6.42718 15.3215L5.72451 15.0593L5.72451 15.0593L6.42718 15.3215ZM1.90607 15.3215L1.20339 15.5837L1.20339 15.5837L1.90607 15.3215ZM1.6981 14.4846L2.44183 14.3878L1.6981 14.4846ZM5.01001 18.081L5.6737 18.4303H5.6737L5.01001 18.081ZM10.75 15.5584V5.55843H9.24996V15.5584H10.75ZM13.3333 2.9751L15 2.9751V1.4751L13.3333 1.4751V2.9751ZM17.5833 5.55843V15.5584H19.0833V5.55843H17.5833ZM15 18.1418H13.3333V19.6418H15V18.1418ZM17.5833 15.5584C17.5833 16.3653 17.5817 16.895 17.529 17.2873C17.4791 17.658 17.3963 17.7918 17.3148 17.8733L18.3755 18.9339C18.7821 18.5273 18.9434 18.0242 19.0156 17.4872C19.0849 16.9717 19.0833 16.3229 19.0833 15.5584H17.5833ZM15 19.6418C15.7644 19.6418 16.4132 19.6434 16.9287 19.5741C17.4657 19.5019 17.9688 19.3406 18.3755 18.9339L17.3148 17.8733C17.2333 17.9548 17.0995 18.0376 16.7288 18.0874C16.3365 18.1402 15.8068 18.1418 15 18.1418V19.6418ZM15 2.9751C15.8068 2.9751 16.3365 2.97669 16.7288 3.02943C17.0995 3.07927 17.2333 3.16208 17.3148 3.24358L18.3755 2.18292C17.9688 1.77627 17.4657 1.61501 16.9287 1.54281C16.4132 1.47351 15.7644 1.4751 15 1.4751V2.9751ZM19.0833 5.55843C19.0833 4.79396 19.0849 4.14516 19.0156 3.62971C18.9434 3.09269 18.7821 2.58958 18.3755 2.18292L17.3148 3.24358C17.3963 3.32508 17.4791 3.45889 17.529 3.82958C17.5817 4.22185 17.5833 4.75155 17.5833 5.55843H19.0833ZM10.75 5.55843C10.75 4.75156 10.7516 4.22185 10.8043 3.82958C10.8541 3.45889 10.9369 3.32508 11.0184 3.24358L9.95779 2.18292C9.55113 2.58958 9.38987 3.09269 9.31767 3.62971C9.24837 4.14516 9.24996 4.79396 9.24996 5.55843H10.75ZM13.3333 1.4751C12.5688 1.4751 11.92 1.47351 11.4046 1.54281C10.8675 1.61501 10.3644 1.77627 9.95779 2.18292L11.0184 3.24358C11.0999 3.16208 11.2338 3.07927 11.6044 3.02943C11.9967 2.97669 12.5264 2.9751 13.3333 2.9751V1.4751ZM9.24996 15.5584C9.24996 16.3229 9.24837 16.9717 9.31767 17.4872C9.38987 18.0242 9.55113 18.5273 9.95779 18.9339L11.0184 17.8733C10.9369 17.7918 10.8541 17.658 10.8043 17.2873C10.7516 16.895 10.75 16.3653 10.75 15.5584H9.24996ZM13.3333 18.1418C12.5264 18.1418 11.9967 18.1402 11.6044 18.0874C11.2338 18.0376 11.0999 17.9548 11.0184 17.8733L9.95779 18.9339C10.3644 19.3406 10.8675 19.5019 11.4046 19.5741C11.92 19.6434 12.5688 19.6418 13.3333 19.6418V18.1418ZM9.99996 11.3084H11.6666V9.80843H9.99996V11.3084ZM9.99996 6.30843L11.6666 6.30843L11.6666 4.80843L9.99996 4.80843L9.99996 6.30843ZM9.99996 16.3084H11.6666V14.8084H9.99996V16.3084ZM9.99996 13.8084L12.5 13.8084V12.3084L9.99996 12.3084V13.8084ZM9.99996 8.80843H12.5V7.30843H9.99996V8.80843ZM2.41663 5.39176L2.41663 4.6001L0.916626 4.6001L0.916626 5.39177L2.41663 5.39176ZM5.91663 4.6001L5.91663 5.39176L7.41663 5.39177V4.6001L5.91663 4.6001ZM1.66663 5.39176C1.18274 5.96479 1.18297 5.96498 1.18321 5.96518C1.1833 5.96526 1.18354 5.96546 1.18371 5.9656C1.18404 5.96588 1.18439 5.96618 1.18476 5.96649C1.1855 5.9671 1.18629 5.96777 1.18714 5.96848C1.18885 5.9699 1.1908 5.97152 1.19299 5.97332C1.19738 5.97692 1.20272 5.98127 1.20902 5.98631C1.22161 5.99638 1.23802 6.00923 1.2582 6.02445C1.29852 6.05488 1.35399 6.09489 1.42401 6.14117C1.56385 6.23358 1.76312 6.35191 2.01692 6.46881C2.52462 6.70266 3.25665 6.93343 4.16663 6.93343V5.43343C3.51411 5.43343 2.99614 5.26837 2.64446 5.10639C2.46857 5.02537 2.33581 4.94578 2.25103 4.88976C2.20875 4.86181 2.17878 4.83998 2.16173 4.82711C2.15321 4.82068 2.14796 4.81653 2.14606 4.815C2.14511 4.81424 2.14499 4.81414 2.14573 4.81475C2.1461 4.81505 2.14668 4.81553 2.14748 4.8162C2.14788 4.81653 2.14833 4.81691 2.14883 4.81733C2.14909 4.81754 2.14935 4.81777 2.14963 4.818C2.14977 4.81812 2.14999 4.8183 2.15006 4.81836C2.15028 4.81855 2.15051 4.81874 1.66663 5.39176ZM4.16663 6.93343C5.07661 6.93343 5.80864 6.70266 6.31633 6.46881C6.57013 6.35191 6.7694 6.23358 6.90924 6.14117C6.97926 6.09489 7.03473 6.05488 7.07506 6.02445C7.09523 6.00923 7.11165 5.99638 7.12424 5.98631C7.13053 5.98127 7.13588 5.97692 7.14026 5.97332C7.14245 5.97152 7.1444 5.9699 7.14611 5.96848C7.14696 5.96777 7.14776 5.9671 7.14849 5.96649C7.14886 5.96618 7.14921 5.96588 7.14955 5.9656C7.14971 5.96546 7.14996 5.96526 7.15004 5.96518C7.15028 5.96498 7.15051 5.96479 6.66663 5.39176C6.18274 4.81874 6.18297 4.81855 6.18319 4.81836C6.18326 4.8183 6.18348 4.81812 6.18362 4.818C6.1839 4.81777 6.18417 4.81754 6.18442 4.81733C6.18492 4.81691 6.18537 4.81653 6.18577 4.8162C6.18657 4.81553 6.18715 4.81505 6.18752 4.81475C6.18826 4.81414 6.18815 4.81424 6.18719 4.815C6.18529 4.81653 6.18004 4.82068 6.17153 4.82711C6.15447 4.83998 6.1245 4.86181 6.08222 4.88976C5.99744 4.94578 5.86468 5.02537 5.68879 5.10639C5.33712 5.26837 4.81915 5.43343 4.16663 5.43343V6.93343ZM2.41663 13.5033L2.41663 5.39176H0.916626L0.916626 13.5033H2.41663ZM5.91663 5.39176L5.91663 13.5033H7.41663L7.41663 5.39176H5.91663ZM5.91663 13.5033C5.91663 14.0148 5.91519 14.2051 5.89142 14.3878L7.37888 14.5814C7.41806 14.2803 7.41663 13.9776 7.41663 13.5033H5.91663ZM6.65706 16.5619C6.88052 16.1373 7.02359 15.8685 7.12986 15.5837L5.72451 15.0593C5.65935 15.234 5.57035 15.406 5.32968 15.8633L6.65706 16.5619ZM5.89142 14.3878C5.86169 14.6163 5.8058 14.8415 5.72451 15.0593L7.12986 15.5837C7.25079 15.2596 7.33437 14.9235 7.37888 14.5814L5.89142 14.3878ZM4.16663 18.1418C4.17314 18.1418 4.18193 18.1435 4.19192 18.1493C4.20201 18.1553 4.21622 18.1673 4.22731 18.1884L2.89993 18.887C3.15042 19.363 3.64727 19.6418 4.16663 19.6418V18.1418ZM3.00357 15.8633C2.7629 15.406 2.67391 15.234 2.60874 15.0593L1.20339 15.5837C1.30966 15.8685 1.45273 16.1373 1.67619 16.5619L3.00357 15.8633ZM0.916626 13.5033C0.916626 13.9776 0.915193 14.2803 0.954367 14.5814L2.44183 14.3878C2.41806 14.2051 2.41663 14.0148 2.41663 13.5033H0.916626ZM2.60874 15.0593C2.52746 14.8415 2.47156 14.6163 2.44183 14.3878L0.954367 14.5814C0.998885 14.9235 1.08246 15.2596 1.20339 15.5837L2.60874 15.0593ZM4.16663 19.6418C4.68598 19.6418 5.18283 19.363 5.43332 18.887L4.10594 18.1884C4.11703 18.1673 4.13124 18.1553 4.14133 18.1493C4.15132 18.1435 4.16011 18.1418 4.16663 18.1418V19.6418ZM4.16663 2.9751C5.16984 2.9751 5.91663 3.73842 5.91663 4.6001H7.41663C7.41663 2.83842 5.92484 1.4751 4.16663 1.4751V2.9751ZM4.16663 1.4751C2.40842 1.4751 0.916626 2.83842 0.916626 4.6001H2.41663C2.41663 3.73842 3.16341 2.9751 4.16663 2.9751V1.4751ZM4.34632 17.7317L4.10594 18.1884L5.43332 18.887L5.6737 18.4303L4.34632 17.7317ZM4.22731 18.1884L3.98693 17.7317L2.65955 18.4303L2.89993 18.887L4.22731 18.1884ZM5.01001 17.331H3.32324V18.831H5.01001V17.331ZM5.32968 15.8633L4.34632 17.7317L5.6737 18.4303L6.65706 16.5619L5.32968 15.8633ZM3.98693 17.7317L3.00357 15.8633L1.67619 16.5619L2.65956 18.4303L3.98693 17.7317Z" fill="currentColor"/>
</svg>
