<svg viewBox="0 0 14 15" fill="none" xmlns="http://www.w3.org/2000/svg">
<g clip-path="url(#clip0_321_285)">
<path fill-rule="evenodd" clip-rule="evenodd" d="M6.75148 0.947266C3.31736 0.947266 0.533447 3.73117 0.533447 7.1653C0.533447 10.5994 3.31736 13.3833 6.75148 13.3833C8.19852 13.3833 9.53012 12.889 10.5866 12.0601L12.5431 14.0114C12.7547 14.2226 13.0975 14.2221 13.3086 14.0104C13.5197 13.7988 13.5193 13.456 13.3076 13.2449L11.3778 11.3201C12.3674 10.2189 12.9695 8.76239 12.9695 7.1653C12.9695 3.73117 10.1856 0.947266 6.75148 0.947266ZM1.6161 7.1653C1.6161 4.32911 3.91529 2.02992 6.75148 2.02992C9.58768 2.02992 11.8869 4.32911 11.8869 7.1653C11.8869 10.0015 9.58768 12.3007 6.75148 12.3007C3.91529 12.3007 1.6161 10.0015 1.6161 7.1653Z" fill="black" fill-opacity="0.8"/>
</g>
<defs>
<clipPath id="clip0_321_285">
<rect width="14" height="14" fill="white" transform="translate(0 0.558594)"/>
</clipPath>
</defs>
</svg>
