<svg viewBox="0 0 20 21" fill="none" xmlns="http://www.w3.org/2000/svg">
<path d="M18.3333 10.5584C18.3333 15.1608 14.6023 18.8918 9.99996 18.8918C5.39759 18.8918 1.66663 15.1608 1.66663 10.5584C1.66663 5.95606 5.39759 2.2251 9.99996 2.2251C14.6023 2.2251 18.3333 5.95606 18.3333 10.5584Z" stroke="#2E3A59" stroke-width="1.5"/>
<path d="M6.66663 10.5584C6.66663 8.98708 6.66663 8.20141 7.15478 7.71325C7.64294 7.2251 8.42861 7.2251 9.99996 7.2251C11.5713 7.2251 12.357 7.2251 12.8451 7.71325C13.3333 8.20141 13.3333 8.98708 13.3333 10.5584C13.3333 12.1298 13.3333 12.9155 12.8451 13.4036C12.357 13.8918 11.5713 13.8918 9.99996 13.8918C8.42861 13.8918 7.64294 13.8918 7.15478 13.4036C6.66663 12.9155 6.66663 12.1298 6.66663 10.5584Z" stroke="#2E3A59" stroke-width="1.5"/>
</svg>
