<svg viewBox="0 0 14 13" fill="none" xmlns="http://www.w3.org/2000/svg">
<path d="M7.04598 0.871094C4.24978 0.871094 1.95108 3.00784 1.72695 5.7322H1.16664C0.989374 5.7322 0.829628 5.83917 0.762114 6.00308C0.694599 6.16698 0.732661 6.35543 0.858497 6.48028L1.83839 7.4525C2.00896 7.62174 2.2841 7.62174 2.45467 7.4525L3.43456 6.48028C3.5604 6.35543 3.59846 6.16698 3.53094 6.00308C3.46343 5.83917 3.30368 5.7322 3.12642 5.7322H2.60559C2.82709 3.49707 4.72775 1.74609 7.04598 1.74609C8.66154 1.74609 10.0757 2.59685 10.859 3.87105C10.9856 4.07689 11.255 4.14117 11.4609 4.01463C11.6667 3.88809 11.731 3.61864 11.6045 3.4128C10.6674 1.88859 8.97589 0.871094 7.04598 0.871094Z" fill="#101113"/>
<path d="M12.1573 5.6641C11.9869 5.49565 11.7126 5.49565 11.5422 5.6641L10.5586 6.63632C10.4324 6.76104 10.394 6.94962 10.4614 7.11373C10.5288 7.27784 10.6887 7.38498 10.8661 7.38498H11.3906C11.1682 9.61887 9.26091 11.3711 6.93157 11.3711C5.30844 11.3711 3.88838 10.5196 3.1021 9.2455C2.97521 9.03988 2.70565 8.97606 2.50003 9.10295C2.29441 9.22984 2.23058 9.4994 2.35748 9.70502C3.29817 11.2293 4.99566 12.2461 6.93157 12.2461C9.73616 12.2461 12.0443 10.1106 12.2693 7.38498H12.8334C13.0108 7.38498 13.1707 7.27783 13.2381 7.11373C13.3055 6.94962 13.2671 6.76104 13.1409 6.63632L12.1573 5.6641Z" fill="#101113"/>
</svg>
