<svg viewBox="0 0 16 17" fill="none" xmlns="http://www.w3.org/2000/svg">
<g clip-path="url(#clip0_326_2388)">
<path d="M15.3712 10.5916L14.2016 9.59163C14.257 9.25234 14.2855 8.90592 14.2855 8.55949C14.2855 8.21306 14.257 7.86663 14.2016 7.52734L15.3712 6.52734C15.4595 6.45182 15.5226 6.35123 15.5523 6.23895C15.5819 6.12667 15.5767 6.00802 15.5373 5.89877L15.5212 5.85234C15.1992 4.95239 14.7171 4.11812 14.098 3.38984L14.0659 3.35234C13.9908 3.26404 13.8907 3.20057 13.7788 3.17029C13.6669 3.14 13.5485 3.14433 13.4391 3.1827L11.9873 3.69877C11.4516 3.25949 10.8534 2.91306 10.207 2.6702L9.92659 1.15234C9.90544 1.03813 9.85004 0.933062 9.76775 0.85109C9.68546 0.769117 9.58017 0.714124 9.46588 0.693415L9.41767 0.684487C8.48731 0.516629 7.50874 0.516629 6.57838 0.684487L6.53017 0.693415C6.41587 0.714124 6.31059 0.769117 6.2283 0.85109C6.146 0.933062 6.0906 1.03813 6.06945 1.15234L5.78731 2.67734C5.14604 2.92025 4.54886 3.2665 4.01945 3.70234L2.55695 3.1827C2.4476 3.14403 2.32908 3.13954 2.21712 3.16984C2.10516 3.20014 2.00508 3.2638 1.93017 3.35234L1.89802 3.38984C1.27971 4.11864 0.797622 4.95277 0.474808 5.85234L0.458737 5.89877C0.37838 6.12199 0.444451 6.37199 0.624808 6.52734L1.80874 7.53806C1.75338 7.87377 1.72659 8.21663 1.72659 8.5577C1.72659 8.90056 1.75338 9.24342 1.80874 9.57734L0.624808 10.5881C0.536586 10.6636 0.473445 10.7642 0.44378 10.8765C0.414115 10.9887 0.419331 11.1074 0.458737 11.2166L0.474808 11.2631C0.798023 12.1631 1.27659 12.9934 1.89802 13.7256L1.93017 13.7631C2.00526 13.8514 2.10535 13.9148 2.21724 13.9451C2.32913 13.9754 2.44757 13.9711 2.55695 13.9327L4.01945 13.4131C4.55159 13.8506 5.14624 14.197 5.78731 14.4381L6.06945 15.9631C6.0906 16.0773 6.146 16.1823 6.2283 16.2643C6.31059 16.3463 6.41587 16.4013 6.53017 16.422L6.57838 16.4309C7.51728 16.5997 8.47876 16.5997 9.41767 16.4309L9.46588 16.422C9.58017 16.4013 9.68546 16.3463 9.76775 16.2643C9.85004 16.1823 9.90544 16.0773 9.92659 15.9631L10.207 14.4452C10.8531 14.203 11.4547 13.8554 11.9873 13.4166L13.4391 13.9327C13.5484 13.9714 13.667 13.9759 13.7789 13.9456C13.8909 13.9153 13.991 13.8516 14.0659 13.7631L14.098 13.7256C14.7194 12.9916 15.198 12.1631 15.5212 11.2631L15.5373 11.2166C15.6177 10.997 15.5516 10.747 15.3712 10.5916ZM12.9337 7.73806C12.9784 8.0077 13.0016 8.28449 13.0016 8.56127C13.0016 8.83806 12.9784 9.11484 12.9337 9.38449L12.8159 10.1006L14.1498 11.2416C13.9476 11.7075 13.6923 12.1485 13.3891 12.5559L11.732 11.9684L11.1712 12.4291C10.7444 12.7791 10.2695 13.0541 9.75516 13.247L9.07481 13.5023L8.75516 15.2345C8.25083 15.2916 7.74165 15.2916 7.23731 15.2345L6.91767 13.4988L6.24267 13.2398C5.73374 13.047 5.26052 12.772 4.83731 12.4238L4.27659 11.9613L2.60874 12.5541C2.30517 12.1452 2.05159 11.7041 1.84802 11.2398L3.19624 10.0881L3.08017 9.37377C3.03731 9.1077 3.01409 8.8327 3.01409 8.56127C3.01409 8.28806 3.03552 8.01484 3.08017 7.74877L3.19624 7.03449L1.84802 5.8827C2.04981 5.41663 2.30517 4.97734 2.60874 4.56842L4.27659 5.16127L4.83731 4.69877C5.26052 4.35056 5.73374 4.07556 6.24267 3.8827L6.91945 3.62734L7.23909 1.89163C7.74088 1.83449 8.25338 1.83449 8.75695 1.89163L9.07659 3.62377L9.75695 3.87913C10.2695 4.07199 10.7462 4.34699 11.173 4.69699L11.7337 5.1577L13.3909 4.5702C13.6945 4.97913 13.948 5.4202 14.1516 5.88449L12.8177 7.02556L12.9337 7.73806ZM7.99981 5.23984C6.26409 5.23984 4.85695 6.64699 4.85695 8.3827C4.85695 10.1184 6.26409 11.5256 7.99981 11.5256C9.73552 11.5256 11.1427 10.1184 11.1427 8.3827C11.1427 6.64699 9.73552 5.23984 7.99981 5.23984ZM9.41409 9.79699C9.2286 9.98302 9.00815 10.1305 8.76543 10.2311C8.52271 10.3316 8.26252 10.3831 7.99981 10.3827C7.46588 10.3827 6.96409 10.1738 6.58552 9.79699C6.39949 9.61149 6.25198 9.39104 6.15146 9.14832C6.05094 8.90561 5.9994 8.64541 5.99981 8.3827C5.99981 7.84877 6.20874 7.34699 6.58552 6.96842C6.96409 6.58984 7.46588 6.3827 7.99981 6.3827C8.53374 6.3827 9.03552 6.58984 9.41409 6.96842C9.60012 7.15391 9.74764 7.37436 9.84816 7.61708C9.94868 7.8598 10.0002 8.11999 9.99981 8.3827C9.99981 8.91663 9.79088 9.41842 9.41409 9.79699Z" fill="#101426"/>
</g>
<defs>
<clipPath id="clip0_326_2388">
<rect y="0.558594" width="16" height="16" fill="white"/>
</clipPath>
</defs>
</svg>
