<svg viewBox="0 0 21 20" fill="none" xmlns="http://www.w3.org/2000/svg">
<path d="M18.0709 5.75C18.4851 5.75 18.8209 5.41421 18.8209 5C18.8209 4.58579 18.4851 4.25 18.0709 4.25V5.75ZM16.1941 12.8326L15.4458 12.7827L16.1941 12.8326ZM17.3257 7.13322C17.3533 6.71993 17.0406 6.36255 16.6273 6.33499C16.214 6.30744 15.8566 6.62015 15.8291 7.03344L17.3257 7.13322ZM5.93686 7.03344C5.90931 6.62015 5.55193 6.30744 5.13863 6.33499C4.72533 6.36255 4.41263 6.71993 4.44018 7.13322L5.93686 7.03344ZM5.5718 12.8326L4.82346 12.8825L5.5718 12.8326ZM6.51389 16.8256L7.02627 16.2779L6.51389 16.8256ZM9.54591 9.09204C9.50469 8.67988 9.13716 8.37917 8.725 8.42039C8.31284 8.4616 8.01214 8.82914 8.05335 9.24129L9.54591 9.09204ZM8.47002 13.408C8.51124 13.8201 8.87877 14.1208 9.29093 14.0796C9.70308 14.0384 10.0038 13.6709 9.96258 13.2587L8.47002 13.408ZM13.7126 9.24129C13.7538 8.82914 13.4531 8.4616 13.0409 8.42039C12.6288 8.37917 12.2612 8.67988 12.22 9.09204L13.7126 9.24129ZM11.8034 13.2587C11.7621 13.6709 12.0628 14.0384 12.475 14.0796C12.8872 14.1208 13.2547 13.8201 13.2959 13.408L11.8034 13.2587ZM13.7401 3.57143L14.4516 3.33426V3.33426L13.7401 3.57143ZM13.821 3.81415L13.1095 4.05132V4.05132L13.821 3.81415ZM7.94492 3.81415L7.2334 3.57698L7.2334 3.57698L7.94492 3.81415ZM8.02582 3.57143L7.31431 3.33426L7.31431 3.33426L8.02582 3.57143ZM7.91564 3.90027L8.62092 4.15539L8.62092 4.15538L7.91564 3.90027ZM6.39059 4.99946L6.40959 5.74922L6.40959 5.74922L6.39059 4.99946ZM13.8503 3.90027L14.5556 3.64515L14.5556 3.64512L13.8503 3.90027ZM15.3753 4.99946L15.3563 5.74922L15.3563 5.74922L15.3753 4.99946ZM12.6791 2.51564L12.7974 1.77502V1.77502L12.6791 2.51564ZM13.5907 3.17267L14.2559 2.82627L14.2559 2.82627L13.5907 3.17267ZM9.0868 2.51564L8.96854 1.77502V1.77502L9.0868 2.51564ZM8.17523 3.17267L7.51001 2.82627L7.51001 2.82627L8.17523 3.17267ZM3.79956 4.25C3.38535 4.25 3.04956 4.58579 3.04956 5C3.04956 5.41421 3.38535 5.75 3.79956 5.75V4.25ZM11.4123 5.75H18.0709V4.25H11.4123V5.75ZM10.5607 18.25H11.2052V16.75H10.5607V18.25ZM16.9425 12.8825L17.3257 7.13322L15.8291 7.03344L15.4458 12.7827L16.9425 12.8825ZM4.44018 7.13322L4.82346 12.8825L6.32014 12.7827L5.93686 7.03344L4.44018 7.13322ZM11.2052 18.25C12.2934 18.25 13.1827 18.2515 13.8871 18.1594C14.6128 18.0644 15.2449 17.8593 15.7644 17.3733L14.7397 16.2779C14.5383 16.4663 14.2556 16.5984 13.6925 16.672C13.108 16.7485 12.3343 16.75 11.2052 16.75V18.25ZM15.4458 12.7827C15.3707 13.9093 15.3177 14.6812 15.2025 15.2593C15.0916 15.8163 14.941 16.0896 14.7397 16.2779L15.7644 17.3733C16.2839 16.8873 16.5306 16.2702 16.6736 15.5524C16.8124 14.8557 16.8701 13.9683 16.9425 12.8825L15.4458 12.7827ZM10.5607 16.75C9.43162 16.75 8.65792 16.7485 8.0734 16.672C7.51029 16.5984 7.2276 16.4663 7.02627 16.2779L6.0015 17.3733C6.52101 17.8593 7.15308 18.0644 7.87884 18.1594C8.58321 18.2515 9.4725 18.25 10.5607 18.25V16.75ZM4.82346 12.8825C4.89585 13.9683 4.95351 14.8557 5.09229 15.5524C5.2353 16.2702 5.48199 16.8873 6.0015 17.3733L7.02627 16.2779C6.82495 16.0896 6.67434 15.8163 6.56339 15.2593C6.44822 14.6812 6.39525 13.9093 6.32014 12.7827L4.82346 12.8825ZM8.05335 9.24129L8.47002 13.408L9.96258 13.2587L9.54591 9.09204L8.05335 9.24129ZM12.22 9.09204L11.8034 13.2587L13.2959 13.408L13.7126 9.24129L12.22 9.09204ZM9.51235 3.25H12.2536V1.75H9.51235V3.25ZM13.0286 3.8086L13.1095 4.05132L14.5325 3.57697L14.4516 3.33426L13.0286 3.8086ZM8.65643 4.05132L8.73733 3.8086L7.31431 3.33426L7.2334 3.57698L8.65643 4.05132ZM7.2334 3.57698C7.21736 3.62511 7.21354 3.63639 7.21037 3.64515L8.62092 4.15538C8.63212 4.12443 8.64302 4.09154 8.65643 4.05132L7.2334 3.57698ZM6.29963 5.75C6.34203 5.75 6.37668 5.75006 6.40959 5.74922L6.37159 4.24971C6.36228 4.24994 6.35036 4.25 6.29963 4.25V5.75ZM7.21037 3.64515C7.08195 4.00017 6.749 4.24014 6.37159 4.24971L6.40959 5.74922C7.40458 5.72401 8.28235 5.09135 8.62092 4.15539L7.21037 3.64515ZM13.1095 4.05132C13.1228 4.09124 13.1338 4.12449 13.145 4.15541L14.5556 3.64512C14.5524 3.63645 14.5485 3.62489 14.5325 3.57697L13.1095 4.05132ZM15.4663 4.25C15.4156 4.25 15.4036 4.24994 15.3943 4.24971L15.3563 5.74922C15.3892 5.75006 15.4239 5.75 15.4663 5.75V4.25ZM13.145 4.15539C13.4836 5.09135 14.3613 5.72401 15.3563 5.74922L15.3943 4.24971C15.0169 4.24014 14.684 4.00017 14.5556 3.64515L13.145 4.15539ZM12.2536 3.25C12.4982 3.25 12.5359 3.25227 12.5609 3.25626L12.7974 1.77502C12.6265 1.74773 12.4458 1.75 12.2536 1.75V3.25ZM14.4516 3.33426C14.3908 3.15194 14.3359 2.97979 14.2559 2.82627L12.9255 3.51906C12.9372 3.54147 12.9512 3.57652 13.0286 3.8086L14.4516 3.33426ZM12.5609 3.25626C12.7171 3.28121 12.8524 3.37869 12.9255 3.51907L14.2559 2.82627C13.9635 2.26476 13.4225 1.87485 12.7974 1.77502L12.5609 3.25626ZM9.51235 1.75C9.32017 1.75 9.13947 1.74773 8.96854 1.77502L9.20507 3.25626C9.23001 3.25227 9.26771 3.25 9.51235 3.25V1.75ZM8.73733 3.8086C8.81469 3.57653 8.82877 3.54146 8.84044 3.51907L7.51001 2.82627C7.43007 2.97979 7.37508 3.15195 7.31431 3.33426L8.73733 3.8086ZM8.96854 1.77502C8.34339 1.87485 7.80241 2.26476 7.51001 2.82627L8.84044 3.51907C8.91354 3.37869 9.04878 3.28121 9.20507 3.25626L8.96854 1.77502ZM11.4123 4.25H3.79956V5.75H11.4123V4.25Z" fill="currentColor"/>
</svg>
