<svg viewBox="0 0 12 13" fill="none" xmlns="http://www.w3.org/2000/svg">
<path fill-rule="evenodd" clip-rule="evenodd" d="M5.96713 0.287598H6.03295C7.10498 0.287589 7.9541 0.287581 8.61864 0.376927C9.30255 0.468876 9.8561 0.662611 10.2926 1.09916C10.7292 1.5357 10.9229 2.08926 11.0149 2.77317C11.1042 3.43771 11.1042 4.28683 11.1042 5.35886V7.758C11.1042 8.83003 11.1042 9.67915 11.0149 10.3437C10.9229 11.0276 10.7292 11.5812 10.2926 12.0177C9.8561 12.4543 9.30255 12.648 8.61864 12.7399C7.9541 12.8293 7.10498 12.8293 6.03295 12.8293H5.96714C4.89511 12.8293 4.04599 12.8293 3.38144 12.7399C2.69753 12.648 2.14398 12.4543 1.70743 12.0177C1.27089 11.5812 1.07715 11.0276 0.985203 10.3437C0.895858 9.67915 0.895865 8.83003 0.895874 7.75801V5.35885C0.895865 4.28683 0.895858 3.43771 0.985203 2.77317C1.07715 2.08925 1.27089 1.5357 1.70743 1.09916C2.14398 0.662611 2.69753 0.468876 3.38144 0.376927C4.04599 0.287581 4.8951 0.287589 5.96713 0.287598ZM3.49804 1.24412C2.91115 1.32303 2.57302 1.471 2.32615 1.71787C2.07928 1.96475 1.93131 2.30287 1.8524 2.88976C1.7718 3.48923 1.77087 4.27945 1.77087 5.39176V7.7251C1.77087 8.83741 1.7718 9.62763 1.8524 10.2271C1.93131 10.814 2.07928 11.1521 2.32615 11.399C2.57302 11.6459 2.91115 11.7938 3.49804 11.8727C4.09751 11.9533 4.88773 11.9543 6.00004 11.9543C7.11235 11.9543 7.90258 11.9533 8.50205 11.8727C9.08893 11.7938 9.42706 11.6459 9.67393 11.399C9.9208 11.1521 10.0688 10.814 10.1477 10.2271C10.2283 9.62763 10.2292 8.83741 10.2292 7.7251V5.39176C10.2292 4.27945 10.2283 3.48923 10.1477 2.88976C10.0688 2.30287 9.9208 1.96475 9.67393 1.71787C9.42706 1.471 9.08893 1.32303 8.50205 1.24412C7.90258 1.16353 7.11235 1.1626 6.00004 1.1626C4.88773 1.1626 4.09751 1.16353 3.49804 1.24412ZM3.81254 10.6418C3.81254 10.4001 4.00842 10.2043 4.25004 10.2043H7.75004C7.99167 10.2043 8.18754 10.4001 8.18754 10.6418C8.18754 10.8834 7.99167 11.0793 7.75004 11.0793H4.25004C4.00842 11.0793 3.81254 10.8834 3.81254 10.6418Z" fill="#2E3A59"/>
</svg>
