<svg viewBox="0 0 17 17" fill="none" xmlns="http://www.w3.org/2000/svg">
<g clip-path="url(#clip0_334_4026)">
<path d="M16.0379 10.0955L14.8682 9.09554C14.9236 8.75625 14.9521 8.40982 14.9521 8.06339C14.9521 7.71696 14.9236 7.37054 14.8682 7.03125L16.0379 6.03125C16.1261 5.95573 16.1892 5.85514 16.2189 5.74285C16.2486 5.63057 16.2433 5.51192 16.2039 5.40268L16.1879 5.35625C15.8659 4.4563 15.3837 3.62203 14.7646 2.89375L14.7325 2.85625C14.6574 2.76795 14.5573 2.70448 14.4454 2.67419C14.3335 2.64391 14.2151 2.64824 14.1057 2.68661L12.6539 3.20268C12.1182 2.76339 11.52 2.41696 10.8736 2.17411L10.5932 0.65625C10.5721 0.54204 10.5167 0.436969 10.4344 0.354996C10.3521 0.273024 10.2468 0.21803 10.1325 0.197321L10.0843 0.188393C9.15393 0.0205357 8.17536 0.0205357 7.24501 0.188393L7.19679 0.197321C7.0825 0.21803 6.97721 0.273024 6.89492 0.354996C6.81263 0.436969 6.75723 0.54204 6.73608 0.65625L6.45393 2.18125C5.81266 2.42416 5.21548 2.7704 4.68608 3.20625L3.22358 2.68661C3.11423 2.64793 2.9957 2.64345 2.88375 2.67375C2.77179 2.70405 2.67171 2.7677 2.59679 2.85625L2.56465 2.89375C1.94634 3.62254 1.46425 4.45667 1.14143 5.35625L1.12536 5.40268C1.04501 5.62589 1.11108 5.87589 1.29143 6.03125L2.47536 7.04196C2.42001 7.37768 2.39322 7.72054 2.39322 8.06161C2.39322 8.40446 2.42001 8.74732 2.47536 9.08125L1.29143 10.092C1.20321 10.1675 1.14007 10.2681 1.11041 10.3804C1.08074 10.4926 1.08596 10.6113 1.12536 10.7205L1.14143 10.767C1.46465 11.667 1.94322 12.4973 2.56465 13.2295L2.59679 13.267C2.67189 13.3553 2.77198 13.4187 2.88387 13.449C2.99576 13.4793 3.1142 13.475 3.22358 13.4366L4.68608 12.917C5.21822 13.3545 5.81286 13.7009 6.45393 13.942L6.73608 15.467C6.75723 15.5812 6.81263 15.6862 6.89492 15.7682C6.97721 15.8502 7.0825 15.9052 7.19679 15.9259L7.24501 15.9348C8.18391 16.1036 9.14539 16.1036 10.0843 15.9348L10.1325 15.9259C10.2468 15.9052 10.3521 15.8502 10.4344 15.7682C10.5167 15.6862 10.5721 15.5812 10.5932 15.467L10.8736 13.9491C11.5197 13.7069 12.1213 13.3593 12.6539 12.9205L14.1057 13.4366C14.2151 13.4753 14.3336 13.4798 14.4455 13.4495C14.5575 13.4192 14.6576 13.3555 14.7325 13.267L14.7646 13.2295C15.3861 12.4955 15.8646 11.667 16.1879 10.767L16.2039 10.7205C16.2843 10.5009 16.2182 10.2509 16.0379 10.0955ZM13.6004 7.24196C13.645 7.51161 13.6682 7.78839 13.6682 8.06518C13.6682 8.34196 13.645 8.61875 13.6004 8.88839L13.4825 9.60447L14.8164 10.7455C14.6142 11.2114 14.359 11.6524 14.0557 12.0598L12.3986 11.4723L11.8379 11.933C11.4111 12.283 10.9361 12.558 10.4218 12.7509L9.74143 13.0063L9.42179 14.7384C8.91745 14.7955 8.40827 14.7955 7.90393 14.7384L7.58429 13.0027L6.90929 12.7438C6.40036 12.5509 5.92715 12.2759 5.50393 11.9277L4.94322 11.4652L3.27536 12.058C2.97179 11.6491 2.71822 11.208 2.51465 10.7438L3.86286 9.59196L3.74679 8.87768C3.70393 8.61161 3.68072 8.33661 3.68072 8.06518C3.68072 7.79196 3.70215 7.51875 3.74679 7.25268L3.86286 6.53839L2.51465 5.38661C2.71643 4.92054 2.97179 4.48125 3.27536 4.07232L4.94322 4.66518L5.50393 4.20268C5.92715 3.85446 6.40036 3.57946 6.90929 3.38661L7.58608 3.13125L7.90572 1.39554C8.40751 1.33839 8.92001 1.33839 9.42358 1.39554L9.74322 3.12768L10.4236 3.38304C10.9361 3.57589 11.4129 3.85089 11.8396 4.20089L12.4004 4.66161L14.0575 4.07411C14.3611 4.48304 14.6146 4.92411 14.8182 5.38839L13.4843 6.52946L13.6004 7.24196ZM8.66643 4.74375C6.93072 4.74375 5.52358 6.15089 5.52358 7.88661C5.52358 9.62232 6.93072 11.0295 8.66643 11.0295C10.4021 11.0295 11.8093 9.62232 11.8093 7.88661C11.8093 6.15089 10.4021 4.74375 8.66643 4.74375ZM10.0807 9.30089C9.89522 9.48692 9.67478 9.63444 9.43206 9.73496C9.18934 9.83548 8.92914 9.88702 8.66643 9.88661C8.1325 9.88661 7.63072 9.67768 7.25215 9.30089C7.06612 9.1154 6.9186 8.89495 6.81808 8.65223C6.71756 8.40951 6.66602 8.14932 6.66643 7.88661C6.66643 7.35268 6.87536 6.85089 7.25215 6.47232C7.63072 6.09375 8.1325 5.88661 8.66643 5.88661C9.20036 5.88661 9.70215 6.09375 10.0807 6.47232C10.2667 6.65782 10.4143 6.87827 10.5148 7.12098C10.6153 7.3637 10.6668 7.6239 10.6664 7.88661C10.6664 8.42054 10.4575 8.92232 10.0807 9.30089Z" fill="#101426"/>
</g>
<defs>
<clipPath id="clip0_334_4026">
<rect x="0.666626" y="0.0625" width="16" height="16" fill="white"/>
</clipPath>
</defs>
</svg>
