<svg viewBox="0 0 14 14"  xmlns="http://www.w3.org/2000/svg">
<path d="M2.35976 3.19403L3.20343 2.35036C3.99885 1.55494 4.39657 1.15723 4.89078 1.15723C5.38499 1.15723 5.7827 1.55494 6.57812 2.35036L5.172 3.75648L2.35976 6.56872L2.35975 6.56872C1.56434 5.7733 1.16663 5.37559 1.16663 4.88138C1.16663 4.38717 1.56434 3.98945 2.35976 3.19403Z"/>
<path d="M11.6402 10.7871L10.7965 11.6308C10.0011 12.4262 9.60335 12.8239 9.10914 12.8239C8.61493 12.8239 8.21722 12.4262 7.42181 11.6308L7.4218 11.6308L10.234 8.81852L11.6402 7.4124C12.4356 8.20782 12.8333 8.60553 12.8333 9.09974C12.8333 9.59395 12.4356 9.99166 11.6402 10.7871Z" />
<path d="M5.95939 11.2344C6.145 11.0896 6.31335 10.9212 6.65002 10.5846L10.9643 6.27033C10.3771 6.02594 9.68165 5.62451 9.02392 4.96679C8.3661 4.30896 7.96465 3.6134 7.72027 3.02617L3.40594 7.3405L3.40591 7.34053C3.06926 7.67718 2.90092 7.84553 2.75615 8.03113C2.58537 8.25008 2.43895 8.48699 2.31949 8.73766C2.21822 8.95015 2.14294 9.176 1.99237 9.62771L1.19839 12.0097C1.12429 12.2319 1.18215 12.477 1.34783 12.6427C1.51351 12.8084 1.75858 12.8662 1.98087 12.7921L4.36281 11.9981C4.81451 11.8476 5.04037 11.7723 5.25286 11.671C5.50353 11.5516 5.74044 11.4051 5.95939 11.2344Z"/>
<path d="M12.1614 5.07318C13.0572 4.17735 13.0572 2.72492 12.1614 1.8291C11.2656 0.93327 9.81317 0.93327 8.91734 1.8291L8.3999 2.34654C8.40699 2.36793 8.41434 2.38963 8.42196 2.4116C8.61162 2.95827 8.96947 3.6749 9.64264 4.34807C10.3158 5.02125 11.0324 5.37909 11.5791 5.56875C11.601 5.57634 11.6226 5.58366 11.6439 5.59071L12.1614 5.07318Z" />
</svg>