<svg viewBox="0 0 24 24" fill="none" xmlns="http://www.w3.org/2000/svg">
<path opacity="0.2" d="M22 11.9907C22 17.5136 17.5228 21.9907 12 21.9907C6.47715 21.9907 2 17.5136 2 11.9907C2 6.46788 6.47715 1.99072 12 1.99072C17.5228 1.99072 22 6.46788 22 11.9907Z" fill="white"/>
<path d="M12.75 8.99072C12.75 8.57651 12.4142 8.24072 12 8.24072C11.5858 8.24072 11.25 8.57651 11.25 8.99072L11.25 11.2407H9C8.58579 11.2407 8.25 11.5765 8.25 11.9907C8.25 12.405 8.58579 12.7407 9 12.7407H11.25V14.9907C11.25 15.4049 11.5858 15.7407 12 15.7407C12.4142 15.7407 12.75 15.4049 12.75 14.9907L12.75 12.7407H15C15.4142 12.7407 15.75 12.405 15.75 11.9907C15.75 11.5765 15.4142 11.2407 15 11.2407H12.75V8.99072Z" fill="white"/>
</svg>
