<svg viewBox="0 0 262 68" fill="none" xmlns="http://www.w3.org/2000/svg">
<g filter="url(#filter0_di_307_2908)">
<g clip-path="url(#clip0_307_2908)">
<rect x="8" y="3.99072" width="246" height="52" rx="8" fill="url(#paint0_linear_307_2908)"/>
<path opacity="0.2" d="M50 29.9907C50 35.5136 45.5228 39.9907 40 39.9907C34.4772 39.9907 30 35.5136 30 29.9907C30 24.4679 34.4772 19.9907 40 19.9907C45.5228 19.9907 50 24.4679 50 29.9907Z" fill="white"/>
<path d="M40.75 26.9907C40.75 26.5765 40.4142 26.2407 40 26.2407C39.5858 26.2407 39.25 26.5765 39.25 26.9907L39.25 29.2407H37C36.5858 29.2407 36.25 29.5765 36.25 29.9907C36.25 30.405 36.5858 30.7407 37 30.7407H39.25V32.9907C39.25 33.4049 39.5858 33.7407 40 33.7407C40.4142 33.7407 40.75 33.4049 40.75 32.9907L40.75 30.7407H43C43.4142 30.7407 43.75 30.405 43.75 29.9907C43.75 29.5765 43.4142 29.2407 43 29.2407H40.75V26.9907Z" fill="white"/>
<path d="M86.272 22.9507L87.088 24.4547C85.728 24.9027 84.224 25.1747 82.576 25.2707V27.7507H87.424V29.3347H85.952V37.6707H84.304V29.3347H82.576V30.8547C82.496 33.6867 81.872 35.9427 80.704 37.6387L79.504 36.3747C80.4 35.0467 80.896 33.2067 80.96 30.8547V23.9107C82.944 23.8787 84.704 23.5587 86.272 22.9507ZM72.912 24.0707H75.68C75.488 23.6707 75.28 23.3027 75.056 22.9667L76.784 22.6787C76.976 23.0947 77.152 23.5587 77.344 24.0707H80.256V25.6067H72.912V24.0707ZM72.752 27.7027H74.384C74.192 27.1747 73.968 26.6787 73.712 26.2307L75.184 25.6707C75.424 26.2467 75.648 26.9187 75.872 27.7027H77.28C77.52 27.0467 77.728 26.3747 77.904 25.6707L79.392 26.1987C79.2 26.7427 79.008 27.2387 78.8 27.7027H80.352V29.2227H77.456V30.5187H80.08V32.0387H77.456V36.2307C77.456 37.2227 76.896 37.7187 75.792 37.7187H74.96L74.592 36.1827C74.832 36.2467 75.056 36.2947 75.248 36.2947C75.6 36.2947 75.792 36.1347 75.792 35.8307V32.0387H73.008V30.5187H75.792V29.2227H72.752V27.7027ZM73.904 32.6627L75.408 32.9827C75.04 34.6147 74.528 36.0227 73.856 37.2227L72.464 36.3427C73.152 35.1907 73.632 33.9587 73.904 32.6627ZM79.088 32.5667C79.472 33.5587 79.792 34.4707 80.016 35.3027L78.608 35.8467C78.368 34.8547 78.064 33.8787 77.712 32.9347L79.088 32.5667ZM102.192 29.6547H98.816V30.5187H102.368V31.8787H98.816V32.7427H102.832V34.1347H98.816V35.3027H97.184V34.1347H93.744V32.7427H97.184V31.8787H94.24V30.5187H97.184V29.6547H94.576V28.2787H97.184V27.3987H93.792V26.0547H97.184V25.2227H94.576V23.8467H97.184V22.8227H98.816V23.8467H102.192V26.0547H103.104V27.3987H102.192V29.6547ZM98.816 25.2227V26.0547H100.592V25.2227H98.816ZM98.816 27.3987V28.2787H100.592V27.3987H98.816ZM97.616 35.8147C99.44 35.8147 101.328 35.7827 103.28 35.7187L102.992 37.3027H98.336C95.36 37.3027 93.248 36.8707 91.984 36.0387L91.664 35.7827C91.184 36.4547 90.608 37.0467 89.936 37.5587L88.832 36.1347C89.504 35.6707 90.08 35.1267 90.528 34.4867C89.952 33.6227 89.472 32.5347 89.088 31.2227L90.496 30.6947C90.752 31.5907 91.04 32.3587 91.36 32.9827C91.744 32.0547 91.984 30.9827 92.08 29.7827H89.232V28.5187C90.064 27.4307 90.832 26.2947 91.536 25.0787H89.232V23.5107H93.392V24.8707C92.704 26.1667 92.032 27.3027 91.36 28.2787H93.6V29.2707C93.536 31.3027 93.136 33.0467 92.432 34.4867C92.608 34.6627 92.8 34.8067 92.992 34.9187C94.016 35.4947 95.552 35.7827 97.616 35.8147ZM116.624 27.9587C117.888 29.5587 118.864 30.9667 119.568 32.1507L118.16 33.1267C117.488 31.8787 116.592 30.4867 115.472 28.9667V37.6387H113.84V29.8787C113.008 31.1267 112.016 32.2787 110.88 33.3027L109.856 31.9747C112.048 30.0547 113.6 27.7507 114.496 25.0627H110.608V23.4627H118.896V25.0627H116.096C115.904 25.6707 115.696 26.2467 115.472 26.8227V28.6787L116.624 27.9587ZM105.024 28.5027H106.624V25.5267H104.784V23.9267H110.128V25.5267H108.256V28.5027H109.904V30.0867H108.256V33.2387C108.896 33.0307 109.536 32.8067 110.176 32.5667V34.1667C108.544 34.7747 106.8 35.2867 104.96 35.7027L104.544 34.1027C105.248 33.9907 105.936 33.8467 106.624 33.6867V30.0867H105.024V28.5027ZM125.92 23.9267H129.28C129.152 23.5907 129.008 23.2707 128.88 22.9827L130.656 22.6947C130.784 23.0627 130.896 23.4787 131.008 23.9267H134.704V25.3027H133.12C132.992 25.7507 132.832 26.1667 132.656 26.5827H135.168V27.9747H125.44V26.5827H127.696C127.552 26.1347 127.392 25.7027 127.232 25.3027H125.92V23.9267ZM131.056 26.5827C131.28 26.1667 131.456 25.7347 131.584 25.3027H128.88C129.008 25.7027 129.152 26.1347 129.28 26.5827H131.056ZM126.304 28.5987H134.208V33.9747H132.288V35.5907C132.288 35.8787 132.384 36.0387 132.576 36.0387H133.584C133.712 36.0387 133.808 35.9587 133.888 35.8307C133.968 35.6867 134.016 35.2387 134.048 34.4707L135.552 34.9347C135.44 36.1667 135.264 36.9027 135.008 37.1267C134.752 37.3507 134.368 37.4627 133.856 37.4627H132.144C131.152 37.4627 130.656 36.9507 130.656 35.9267V33.9747H129.376C129.168 34.8707 128.784 35.6227 128.208 36.1987C127.536 36.8387 126.416 37.3347 124.832 37.7187L124.208 36.2147C125.472 35.9907 126.384 35.6547 126.944 35.2227C127.344 34.9027 127.632 34.4867 127.808 33.9747H126.304V28.5987ZM132.672 32.6307V31.8467H127.824V32.6307H132.672ZM127.824 30.7107H132.672V29.9107H127.824V30.7107ZM125.536 32.2787V33.9747C124.128 34.6787 122.624 35.2707 121.024 35.7667L120.576 33.9267C121.088 33.8307 121.6 33.7027 122.112 33.5587V28.1987H120.624V26.5827H122.112V22.9187H123.792V26.5827H124.992V28.1987H123.792V33.0147C124.368 32.7907 124.96 32.5507 125.536 32.2787Z" fill="white"/>
<g opacity="0.1" clip-path="url(#clip1_307_2908)">
<path d="M253.989 38.4348C254.001 38.4177 254.018 38.4007 254.029 38.3836C257.757 33.9495 260 28.2348 260 21.9907C260 15.7466 257.757 10.0319 254.035 5.59787C254.023 5.58079 254.006 5.56941 253.995 5.55233C253.932 5.47833 253.875 5.41003 253.813 5.34173C253.79 5.31327 253.767 5.2905 253.745 5.26204L253.511 4.99452L253.505 4.98883C253.42 4.89206 253.329 4.7953 253.244 4.69853L253.238 4.69284C253.056 4.49932 252.874 4.30579 252.686 4.11795L252.68 4.11226L252.407 3.83905L252.39 3.82197C252.304 3.73659 252.219 3.65691 252.134 3.57722C252.105 3.54876 252.077 3.5203 252.043 3.49184C251.986 3.43492 251.929 3.38369 251.872 3.33246C251.855 3.31539 251.832 3.29831 251.815 3.27554C247.273 -0.93651 241.188 -3.50928 234.5 -3.50928C227.812 -3.50928 221.727 -0.93651 217.179 3.27554C217.162 3.29262 217.14 3.3097 217.122 3.33246C217.066 3.38369 217.009 3.44061 216.952 3.49753C216.923 3.52599 216.895 3.55445 216.861 3.58291C216.775 3.6626 216.69 3.74798 216.604 3.82766L216.587 3.84474L216.314 4.11795L216.308 4.12365C216.121 4.31148 215.939 4.50501 215.756 4.69853L215.751 4.70423C215.66 4.80099 215.574 4.89775 215.489 4.99452L215.483 5.00021C215.403 5.08559 215.324 5.17666 215.25 5.26773C215.227 5.29619 215.204 5.31896 215.181 5.34742C215.119 5.41572 215.062 5.48972 214.999 5.55802C214.988 5.5751 214.971 5.58648 214.959 5.60356C211.243 10.0319 209 15.7466 209 21.9907C209 28.2348 211.243 33.9495 214.965 38.3836C214.977 38.4007 214.994 38.4177 215.005 38.4348L215.181 38.6454C215.204 38.6739 215.227 38.6966 215.25 38.7251L215.483 38.9926C215.483 38.9983 215.489 38.9983 215.489 39.004C215.574 39.1008 215.66 39.1975 215.751 39.2886L215.756 39.2943C215.939 39.4878 216.121 39.6813 216.303 39.8692L216.308 39.8749C216.4 39.9659 216.485 40.057 216.576 40.1424L216.593 40.1595C216.781 40.3473 216.974 40.5294 217.168 40.7059C221.727 44.918 227.812 47.4907 234.5 47.4907C241.188 47.4907 247.273 44.918 251.821 40.7059C252.015 40.5282 252.204 40.346 252.39 40.1595L252.407 40.1424C252.498 40.0513 252.589 39.9659 252.674 39.8749L252.68 39.8692C252.868 39.6813 253.05 39.4878 253.227 39.2943L253.232 39.2886C253.318 39.1918 253.409 39.1008 253.494 39.004C253.494 38.9983 253.5 38.9983 253.5 38.9926C253.579 38.9072 253.659 38.8162 253.733 38.7251C253.756 38.6966 253.779 38.6739 253.801 38.6454C253.866 38.5768 253.928 38.5066 253.989 38.4348ZM254.223 30.3181C253.437 32.1736 252.401 33.8926 251.138 35.4522C249.714 34.2223 248.159 33.1551 246.499 32.2704C247.159 29.6009 247.569 26.6695 247.677 23.5845H255.845C255.674 25.9125 255.128 28.1722 254.223 30.3181ZM255.845 20.397H247.677C247.569 17.3119 247.159 14.3806 246.499 11.711C248.166 10.8231 249.72 9.753 251.138 8.52923C253.884 11.9101 255.527 16.0525 255.845 20.397ZM242.827 2.26807C245.087 3.22432 247.142 4.54485 248.952 6.20691C247.9 7.10221 246.769 7.89866 245.571 8.58615C244.677 6.02476 243.533 3.7992 242.201 2.01762C242.412 2.09731 242.622 2.18269 242.827 2.26807ZM237.67 42.146C237.147 42.5558 236.623 42.8688 236.094 43.0794V32.5209C238.352 32.6784 240.573 33.1814 242.679 34.0121C242.207 35.4124 241.66 36.7044 241.029 37.8713C240.038 39.7155 238.877 41.1897 237.67 42.146ZM241.029 6.11014C241.655 7.28269 242.207 8.57476 242.679 9.96929C240.573 10.8001 238.352 11.303 236.094 11.4606V0.907687C236.617 1.11829 237.147 1.42566 237.67 1.84117C238.877 2.79173 240.038 4.26595 241.029 6.11014ZM236.094 29.3277V23.5845H244.489C244.398 26.1003 244.085 28.5422 243.562 30.8588L243.545 30.9271C241.156 30.0213 238.644 29.482 236.094 29.3277ZM236.094 20.397V14.6538C238.701 14.4944 241.205 13.9423 243.545 13.0543L243.562 13.1226C244.085 15.4393 244.398 17.8754 244.489 20.397H236.094ZM232.906 23.5845V29.3277C230.299 29.487 227.795 30.0392 225.455 30.9271L225.438 30.8588C224.915 28.5422 224.602 26.106 224.511 23.5845H232.906ZM224.511 20.397C224.602 17.8811 224.915 15.4393 225.438 13.1226L225.455 13.0543C227.795 13.9423 230.294 14.4944 232.906 14.6538V20.397H224.511ZM232.906 32.5209V43.0738C232.383 42.8632 231.853 42.5558 231.33 42.1403C230.123 41.1897 228.956 39.7098 227.966 37.8656C227.34 36.6931 226.787 35.401 226.315 34.0065C228.432 33.1754 230.635 32.6802 232.906 32.5209ZM232.906 11.4606C230.648 11.303 228.427 10.8001 226.321 9.96929C226.793 8.56907 227.34 7.27699 227.971 6.11014C228.962 4.26595 230.123 2.78603 231.335 1.83548C231.859 1.42566 232.383 1.1126 232.912 0.901995V11.4606H232.906ZM226.173 2.26807C226.383 2.18269 226.588 2.09731 226.799 2.01762C225.467 3.7992 224.323 6.02476 223.429 8.58615C222.234 7.90311 221.101 7.10624 220.048 6.20691C221.858 4.54485 223.913 3.22432 226.173 2.26807ZM214.777 13.6634C215.563 11.8078 216.599 10.0888 217.862 8.52923C219.28 9.753 220.834 10.8231 222.501 11.711C221.841 14.3806 221.431 17.3119 221.323 20.397H213.155C213.326 18.069 213.872 15.8092 214.777 13.6634ZM213.155 23.5845H221.323C221.431 26.6695 221.841 29.6009 222.501 32.2704C220.841 33.1551 219.286 34.2223 217.862 35.4522C215.116 32.0713 213.473 27.9289 213.155 23.5845ZM226.173 41.7134C223.913 40.7571 221.858 39.4366 220.048 37.7745C221.101 36.8752 222.234 36.084 223.429 35.3953C224.323 37.9567 225.467 40.1822 226.799 41.9638C226.588 41.8841 226.378 41.7988 226.173 41.7134ZM242.827 41.7134C242.617 41.7988 242.412 41.8841 242.201 41.9638C243.533 40.1822 244.677 37.9567 245.571 35.3953C246.766 36.0783 247.899 36.8752 248.952 37.7745C247.152 39.4297 245.08 40.7621 242.827 41.7134Z" fill="white"/>
</g>
</g>
</g>
<defs>
<filter id="filter0_di_307_2908" x="0" y="-0.00927734" width="262" height="68" filterUnits="userSpaceOnUse" color-interpolation-filters="sRGB">
<feFlood flood-opacity="0" result="BackgroundImageFix"/>
<feColorMatrix in="SourceAlpha" type="matrix" values="0 0 0 0 0 0 0 0 0 0 0 0 0 0 0 0 0 0 127 0" result="hardAlpha"/>
<feOffset dy="4"/>
<feGaussianBlur stdDeviation="4"/>
<feComposite in2="hardAlpha" operator="out"/>
<feColorMatrix type="matrix" values="0 0 0 0 0 0 0 0 0 0 0 0 0 0 0 0 0 0 0.1 0"/>
<feBlend mode="multiply" in2="BackgroundImageFix" result="effect1_dropShadow_307_2908"/>
<feBlend mode="normal" in="SourceGraphic" in2="effect1_dropShadow_307_2908" result="shape"/>
<feColorMatrix in="SourceAlpha" type="matrix" values="0 0 0 0 0 0 0 0 0 0 0 0 0 0 0 0 0 0 127 0" result="hardAlpha"/>
<feOffset dy="1"/>
<feComposite in2="hardAlpha" operator="arithmetic" k2="-1" k3="1"/>
<feColorMatrix type="matrix" values="0 0 0 0 1 0 0 0 0 1 0 0 0 0 1 0 0 0 0.05 0"/>
<feBlend mode="normal" in2="shape" result="effect2_innerShadow_307_2908"/>
</filter>
<linearGradient id="paint0_linear_307_2908" x1="254" y1="3.99079" x2="6.56219" y2="12.0958" gradientUnits="userSpaceOnUse">
<stop stop-color="#7D41FF"/>
<stop offset="1" stop-color="#5E51FF"/>
</linearGradient>
<clipPath id="clip0_307_2908">
<rect x="8" y="3.99072" width="246" height="52" rx="8" fill="white"/>
</clipPath>
<clipPath id="clip1_307_2908">
<rect width="51" height="51" fill="white" transform="translate(209 -3.50928)"/>
</clipPath>
</defs>
</svg>
