<svg viewBox="0 0 45 44" fill="none" xmlns="http://www.w3.org/2000/svg">
<g opacity="0.1" clip-path="url(#clip0_307_2914)">
<path d="M44.9893 34.4348C45.0007 34.4177 45.0177 34.4007 45.0291 34.3836C48.7574 29.9495 51 24.2348 51 17.9907C51 11.7466 48.7574 6.03191 45.0348 1.59787C45.0234 1.58079 45.0064 1.56941 44.995 1.55233C44.9324 1.47833 44.8754 1.41003 44.8128 1.34173C44.7901 1.31327 44.7673 1.2905 44.7445 1.26204L44.5112 0.994516L44.5055 0.988826C44.4201 0.892062 44.329 0.795299 44.2436 0.698535L44.2379 0.692843C44.0558 0.499316 43.8737 0.305789 43.6858 0.117955L43.6801 0.112262L43.4069 -0.160951L43.3898 -0.178027C43.3045 -0.263407 43.2191 -0.343094 43.1337 -0.422782C43.1052 -0.451242 43.0768 -0.479702 43.0426 -0.508162C42.9857 -0.565081 42.9288 -0.616309 42.8719 -0.667537C42.8548 -0.684612 42.832 -0.701688 42.815 -0.724456C38.2728 -4.93651 32.1881 -7.50928 25.5 -7.50928C18.8119 -7.50928 12.7272 -4.93651 8.17935 -0.724456C8.16228 -0.70738 8.13951 -0.690304 8.12243 -0.667537C8.06551 -0.616309 8.00859 -0.559389 7.95167 -0.502469C7.92321 -0.474009 7.89475 -0.445549 7.8606 -0.417089C7.77522 -0.337402 7.68984 -0.252023 7.60446 -0.172336L7.58739 -0.15526L7.31417 0.117955L7.30848 0.123647C7.12065 0.311482 6.9385 0.505008 6.75636 0.698535L6.75067 0.704227C6.6596 0.80099 6.57422 0.897754 6.48884 0.994516L6.48315 1.00021C6.40346 1.08559 6.32377 1.17666 6.24978 1.26773C6.22701 1.29619 6.20424 1.31896 6.18147 1.34742C6.11886 1.41572 6.06194 1.48972 5.99933 1.55802C5.98795 1.5751 5.97087 1.58648 5.95949 1.60356C2.24263 6.03191 0 11.7466 0 17.9907C0 24.2348 2.24263 29.9495 5.96518 34.3836C5.97656 34.4007 5.99364 34.4177 6.00502 34.4348L6.18147 34.6454C6.20424 34.6739 6.22701 34.6966 6.24978 34.7251L6.48315 34.9926C6.48315 34.9983 6.48884 34.9983 6.48884 35.004C6.57422 35.1008 6.6596 35.1975 6.75067 35.2886L6.75636 35.2943C6.9385 35.4878 7.12065 35.6813 7.30279 35.8692L7.30848 35.8749C7.39955 35.9659 7.48493 36.057 7.576 36.1424L7.59308 36.1595C7.78091 36.3473 7.97444 36.5294 8.16797 36.7059C12.7272 40.918 18.8119 43.4907 25.5 43.4907C32.1881 43.4907 38.2728 40.918 42.8206 36.7059C43.0146 36.5282 43.2043 36.346 43.3898 36.1595L43.4069 36.1424C43.498 36.0513 43.5891 35.9659 43.6744 35.8749L43.6801 35.8692C43.868 35.6813 44.0501 35.4878 44.2266 35.2943L44.2323 35.2886C44.3176 35.1918 44.4087 35.1008 44.4941 35.004C44.4941 34.9983 44.4998 34.9983 44.4998 34.9926C44.5795 34.9072 44.6592 34.8162 44.7331 34.7251C44.7559 34.6966 44.7787 34.6739 44.8014 34.6454C44.8658 34.5768 44.9284 34.5066 44.9893 34.4348ZM45.2227 26.3181C44.4372 28.1736 43.4012 29.8926 42.1376 31.4522C40.7145 30.2223 39.1585 29.1551 37.4987 28.2704C38.1589 25.6009 38.5687 22.6695 38.6769 19.5845H46.8449C46.6741 21.9125 46.1277 24.1722 45.2227 26.3181ZM46.8449 16.397H38.6769C38.5687 13.3119 38.1589 10.3806 37.4987 7.71103C39.1664 6.82309 40.7203 5.753 42.1376 4.52923C44.8844 7.91011 46.5274 12.0525 46.8449 16.397ZM33.8273 -1.73193C36.0871 -0.775684 38.1419 0.544851 39.9519 2.20691C38.9004 3.10221 37.7686 3.89866 36.5709 4.58615C35.6772 2.02476 34.5331 -0.200795 33.2012 -1.98238C33.4118 -1.90269 33.6224 -1.81731 33.8273 -1.73193ZM28.6704 38.146C28.1468 38.5558 27.6231 38.8688 27.0938 39.0794V28.5209C29.3523 28.6784 31.5733 29.1814 33.6794 30.0121C33.2069 31.4124 32.6605 32.7044 32.0287 33.8713C31.0383 35.7155 29.8771 37.1897 28.6704 38.146ZM32.0287 2.11014C32.6548 3.28269 33.2069 4.57476 33.6794 5.96929C31.5733 6.80007 29.3523 7.30302 27.0938 7.46059V-3.09231C27.6174 -2.88171 28.1468 -2.57434 28.6704 -2.15883C29.8771 -1.20827 31.0383 0.265945 32.0287 2.11014ZM27.0938 25.3277V19.5845H35.4894C35.3983 22.1003 35.0853 24.5422 34.5616 26.8588L34.5445 26.9271C32.1558 26.0213 29.6438 25.482 27.0938 25.3277ZM27.0938 16.397V10.6538C29.7007 10.4944 32.2051 9.94229 34.5445 9.05434L34.5616 9.12264C35.0853 11.4393 35.3983 13.8754 35.4894 16.397H27.0938ZM23.9062 19.5845V25.3277C21.2993 25.487 18.7949 26.0392 16.4555 26.9271L16.4384 26.8588C15.9147 24.5422 15.6017 22.106 15.5106 19.5845H23.9062ZM15.5106 16.397C15.6017 13.8811 15.9147 11.4393 16.4384 9.12264L16.4555 9.05434C18.7949 9.94229 21.2936 10.4944 23.9062 10.6538V16.397H15.5106ZM23.9062 28.5209V39.0738C23.3826 38.8632 22.8532 38.5558 22.3296 38.1403C21.1229 37.1897 19.956 35.7098 18.9656 33.8656C18.3395 32.6931 17.7874 31.401 17.315 30.0065C19.4324 29.1754 21.6352 28.6802 23.9062 28.5209ZM23.9062 7.46059C21.6477 7.30302 19.4267 6.80007 17.3206 5.96929C17.7931 4.56907 18.3395 3.27699 18.9713 2.11014C19.9617 0.265945 21.1229 -1.21397 22.3353 -2.16452C22.8589 -2.57434 23.3826 -2.8874 23.9119 -3.09801V7.46059H23.9062ZM17.1727 -1.73193C17.3833 -1.81731 17.5882 -1.90269 17.7988 -1.98238C16.4669 -0.200795 15.3228 2.02476 14.4291 4.58615C13.2338 3.90311 12.1011 3.10624 11.0481 2.20691C12.8581 0.544851 14.9129 -0.775684 17.1727 -1.73193ZM5.77734 9.66338C6.56283 7.8078 7.59877 6.08883 8.86239 4.52923C10.2797 5.753 11.8336 6.82309 13.5013 7.71103C12.8411 10.3806 12.4312 13.3119 12.3231 16.397H4.15513C4.32589 14.069 4.87232 11.8092 5.77734 9.66338ZM4.15513 19.5845H12.3231C12.4312 22.6695 12.8411 25.6009 13.5013 28.2704C11.8415 29.1551 10.2855 30.2223 8.86239 31.4522C6.11561 28.0713 4.47256 23.9289 4.15513 19.5845ZM17.1727 37.7134C14.9129 36.7571 12.8581 35.4366 11.0481 33.7745C12.1011 32.8752 13.2338 32.084 14.4291 31.3953C15.3228 33.9567 16.4669 36.1822 17.7988 37.9638C17.5882 37.8841 17.3776 37.7988 17.1727 37.7134ZM33.8273 37.7134C33.6167 37.7988 33.4118 37.8841 33.2012 37.9638C34.5331 36.1822 35.6772 33.9567 36.5709 31.3953C37.7662 32.0783 38.8989 32.8752 39.9519 33.7745C38.1519 35.4297 36.08 36.7621 33.8273 37.7134Z" fill="white"/>
</g>
<defs>
<clipPath id="clip0_307_2914">
<rect width="51" height="51" fill="white" transform="translate(0 -7.50928)"/>
</clipPath>
</defs>
</svg>
