<svg  viewBox="0 0 12 14" fill="none" xmlns="http://www.w3.org/2000/svg">
<path d="M1.13281 0.952148C0.700521 0.952148 0.484375 1.15343 0.484375 1.55601V12.4254C0.484375 12.828 0.700521 13.0293 1.13281 13.0293C1.5651 13.0293 1.78125 12.828 1.78125 12.4254V1.55601C1.78125 1.15343 1.5651 0.952148 1.13281 0.952148Z" fill="#949DA6"/>
<path d="M4.57027 12.0082L10.1736 6.99065L4.57027 1.97311C4.50889 1.91863 4.45996 1.85318 4.4264 1.78067C4.39284 1.70816 4.37534 1.63009 4.37496 1.55113C4.37496 1.01887 5.09371 0.752297 5.51371 1.12916L11.117 6.14583C11.6381 6.61248 11.6381 7.36883 11.117 7.83547L5.51371 12.853C5.09355 13.2294 4.37496 12.9629 4.37496 12.431C4.37522 12.3519 4.39265 12.2737 4.42621 12.201C4.45978 12.1284 4.50878 12.0628 4.57027 12.0082Z" fill="#949DA6"/>
</svg>
