<svg viewBox="0 0 42 42" fill="none" xmlns="http://www.w3.org/2000/svg">
<path d="M40.7647 40.7554C40.7646 29.8397 31.9157 20.9907 20.9999 20.9907L1.23525 20.9907C1.23525 31.9065 10.0842 40.7554 21 40.7554L40.7647 40.7554Z" fill="#5050FA" fill-opacity="0.6"/>
<path d="M21 20.9908C21 10.075 29.849 1.22607 40.7647 1.22607C40.7647 12.1418 31.9157 20.9908 21 20.9908Z" fill="#5050FA" fill-opacity="0.25"/>
<path d="M20.9999 40.7554C31.9157 40.7554 40.7646 31.9064 40.7646 20.9907L40.7646 1.22598C29.8489 1.22598 20.9999 10.0749 20.9999 20.9907L20.9999 40.7554Z" fill="#5050FA" fill-opacity="0.15"/>
<path d="M21.0001 40.7554C10.0843 40.7554 1.23535 31.9064 1.23535 20.9907L1.23535 1.22597C12.1511 1.22597 21 10.0749 21.0001 20.9907L21.0001 40.7554Z" fill="#5050FA" fill-opacity="0.45"/>
</svg>
