<svg width="20" height="21" viewBox="0 0 20 21" fill="none" xmlns="http://www.w3.org/2000/svg">
<path d="M3.05142 9.0339C3.44521 9.28132 3.69859 9.70282 3.69859 10.1679C3.69858 10.6329 3.44521 11.0544 3.05142 11.3018C2.78346 11.4702 2.61081 11.6048 2.48797 11.7649C2.21888 12.1156 2.10012 12.5588 2.15782 12.997C2.20109 13.3257 2.39523 13.662 2.78352 14.3345C3.1718 15.007 3.36595 15.3433 3.62896 15.5451C3.97964 15.8142 4.42286 15.933 4.8611 15.8753C5.06114 15.8489 5.26397 15.7667 5.54371 15.6189C5.95494 15.4015 6.44673 15.3928 6.84954 15.6254C7.2523 15.858 7.49063 16.2882 7.50801 16.753C7.51984 17.0692 7.55006 17.286 7.62727 17.4724C7.79643 17.8808 8.12089 18.2052 8.52927 18.3744C8.83555 18.5013 9.22384 18.5013 10.0004 18.5013C10.777 18.5013 11.1653 18.5013 11.4715 18.3744C11.8799 18.2052 12.2044 17.8808 12.3735 17.4724C12.4508 17.286 12.481 17.0692 12.4928 16.753C12.5102 16.2882 12.7485 15.858 13.1513 15.6255C13.5541 15.3929 14.0458 15.4016 14.457 15.6189C14.7368 15.7668 14.9397 15.849 15.1397 15.8754C15.5779 15.9331 16.0212 15.8143 16.3718 15.5452C16.6349 15.3434 16.829 15.0071 17.2173 14.3346C17.3901 14.0352 17.5245 13.8024 17.6243 13.6073M16.9494 11.3019C16.5556 11.0545 16.3022 10.6331 16.3022 10.168C16.3021 9.70289 16.5555 9.28135 16.9494 9.0339C17.2173 8.86556 17.3899 8.731 17.5127 8.57093C17.7818 8.22024 17.9006 7.77703 17.8429 7.33878C17.7996 7.0101 17.6055 6.67383 17.2172 6.0013C16.8289 5.32877 16.6348 4.99251 16.3718 4.79069C16.0211 4.5216 15.5779 4.40284 15.1396 4.46054C14.9396 4.48688 14.7367 4.5691 14.457 4.71696C14.0458 4.93429 13.554 4.94297 13.1512 4.71039C12.7485 4.47785 12.5102 4.04768 12.4928 3.58295C12.481 3.26669 12.4508 3.04988 12.3735 2.86346C12.2044 2.45508 11.8799 2.13062 11.4715 1.96146C11.1653 1.83459 10.777 1.83459 10.0004 1.83459C9.22384 1.83459 8.83555 1.83459 8.52927 1.96146C8.12089 2.13062 7.79643 2.45508 7.62727 2.86346C7.55006 3.04987 7.51984 3.26666 7.50801 3.58288C7.49063 4.04765 7.25228 4.47785 6.8495 4.7104C6.44672 4.94294 5.95497 4.93426 5.54378 4.71693C5.26401 4.56906 5.06116 4.48684 4.86111 4.4605C4.42287 4.4028 3.97965 4.52156 3.62897 4.79065C3.36595 4.99247 3.17181 5.32874 2.78353 6.00126C2.61067 6.30065 2.47628 6.53343 2.37656 6.72854M12.5 10.1679C12.5 11.5486 11.3807 12.6679 10 12.6679C8.61929 12.6679 7.5 11.5486 7.5 10.1679C7.5 8.78722 8.61929 7.66793 10 7.66793C11.3807 7.66793 12.5 8.78722 12.5 10.1679Z" stroke="#2E3A59" stroke-width="1.5" stroke-linecap="round"/>
</svg>
