<svg viewBox="0 0 73 73" fill="none" xmlns="http://www.w3.org/2000/svg">
<g clip-path="url(#clip0_436_9570)">
<path d="M68.3438 29.086V47.549C68.3438 48.6553 69.2765 49.5884 70.3879 49.5884C71.5039 49.5884 72.4413 48.6553 72.4413 47.549V19.5313C72.4413 17.0887 70.4487 15.0489 67.9312 15.0489H37.7564L30.0254 8.8742C29.6613 8.57682 29.2063 8.41306 28.7362 8.41016H5.01258C2.54658 8.41016 0.502502 10.3887 0.502502 12.8922V61.3518C0.502502 63.799 2.49006 65.8384 5.01258 65.8384H53.7533C54.8693 65.8384 55.8068 64.9053 55.8068 63.799C55.8068 62.6928 54.8693 61.7596 53.7533 61.7596H5.01258C4.77822 61.7596 4.60002 61.5861 4.60002 61.3518V29.086L4.65618 25.0681V12.9534C4.65618 12.719 4.83438 12.5455 5.06874 12.5455H28.0324L35.7685 18.7198C36.131 19.0167 36.5843 19.1806 37.0529 19.1842H67.987C68.2214 19.1842 68.3996 19.3578 68.3996 19.5921V25.0681L68.3438 29.086ZM59.023 63.799C59.023 65.0227 60.0213 66.012 61.2547 66.012C61.6442 66.0106 62.0269 65.9088 62.3656 65.7164C62.617 65.57 62.837 65.3754 63.0129 65.1438C63.1889 64.9122 63.3173 64.6481 63.391 64.3667C63.4646 64.0852 63.4819 63.7921 63.4419 63.5039C63.4019 63.2158 63.3054 62.9384 63.158 62.6877C62.5391 61.6423 61.1985 61.2859 60.1387 61.8817C59.4496 62.2798 59.023 63.0067 59.023 63.799ZM67.8747 63.799C67.8747 65.0227 68.8687 66.012 70.097 66.012C71.3253 66.012 72.3243 65.0227 72.3243 63.799C72.3237 63.41 72.2206 63.028 72.0256 62.6914C71.8305 62.3549 71.5502 62.0756 71.213 61.8817C70.8739 61.6879 70.4901 61.586 70.0995 61.586C69.7089 61.586 69.3251 61.6879 68.986 61.8817C68.6481 62.0748 68.3672 62.3539 68.172 62.6906C67.9768 63.0274 67.8743 63.4098 67.8747 63.799ZM68.0482 56.2275C68.0482 57.4508 69.0469 58.4401 70.2755 58.4401C71.5042 58.4401 72.4978 57.4508 72.4978 56.2275C72.5119 55.0039 71.5226 54.0049 70.2943 53.9959C69.0659 53.9865 68.0579 54.9661 68.0486 56.1901L68.0482 56.2275ZM52.9657 31.777C53.1345 30.4738 52.628 29.2218 52.0372 28.1295L47.2924 33.1742L43.4149 29.5641L48.1031 24.5803C47.1232 24.1724 46.0263 23.7271 44.9153 23.938C40.4096 24.8053 36.8654 27.4495 36.8654 31.777C36.8632 33.4193 37.3892 35.0187 38.3659 36.339L38.0095 35.9826L35.9323 37.8438L28.1077 29.9533L27.4233 26.9152L23.1566 24.8053L21.2813 26.7511L23.2318 31.0178L26.4527 31.4491L34.2683 39.3446C30.0956 43.1001 23.5835 48.9886 20.9393 51.5299C19.9407 52.4958 23.8978 56.4057 24.8918 55.4398C27.6015 52.8097 33.3777 46.3491 37.0677 42.167L39.7961 44.9239C39.7961 44.9239 38.4879 46.4614 38.6942 47.0148C39.6601 49.5844 47.5178 55.6929 47.5178 55.6929L52.8674 50.4139C52.8674 50.4139 46.6552 42.7671 44.0391 41.8012C43.3267 41.5388 41.4698 43.4281 41.4698 43.4281L38.5491 40.484C39.6881 39.1851 40.4103 38.36 40.4103 38.36L40.1194 38.0742C41.4604 39.0444 43.12 39.6164 44.9157 39.6164C49.3649 39.616 52.4311 35.9826 52.9657 31.777ZM24.0008 53.6348C23.8521 53.6352 23.7047 53.6062 23.5672 53.5496C23.4296 53.493 23.3046 53.4099 23.1992 53.3049C23.0938 53.2 23.0102 53.0753 22.953 52.938C22.8958 52.8007 22.8663 52.6535 22.8661 52.5048C22.8661 51.8812 23.3726 51.3747 24.0008 51.3747C24.629 51.3747 25.1351 51.8809 25.1351 52.5048C25.1349 52.6535 25.1054 52.8006 25.0482 52.9379C24.9911 53.0752 24.9075 53.1999 24.8021 53.3048C24.6968 53.4098 24.5718 53.4929 24.4343 53.5495C24.2968 53.6062 24.1495 53.6351 24.0008 53.6348Z" fill="#2E3A59"/>
</g>
<defs>
<clipPath id="clip0_436_9570">
<rect fill="white" transform="translate(0.5 0.167969)"/>
</clipPath>
</defs>
</svg>
