<svg viewBox="0 0 73 73" fill="none" xmlns="http://www.w3.org/2000/svg">
<path d="M65.7865 34.0756C66.3413 34.0756 66.8734 34.296 67.2657 34.6883C67.658 35.0806 67.8784 35.6127 67.8784 36.1675C67.8784 53.5051 53.5992 67.5459 35.998 67.5459C31.3931 67.5575 26.8399 66.5761 22.6487 64.6686C18.4575 62.7611 14.7268 59.9723 11.7111 56.4923L11.8533 63.0776C11.8622 63.5037 11.7408 63.9223 11.5052 64.2774C11.2697 64.6326 10.9313 64.9073 10.5354 65.0649L10.184 65.1695L9.80743 65.2114C9.31804 65.2212 8.84068 65.0592 8.45845 64.7534C8.07622 64.4476 7.81333 64.0175 7.71553 63.5378L7.67369 63.1655L7.39756 50.5012C7.39134 50.2051 7.44802 49.9111 7.56388 49.6386C7.67974 49.3661 7.85213 49.1214 8.06964 48.9204C8.28716 48.7195 8.54484 48.5671 8.82566 48.4732C9.10648 48.3793 9.40404 48.3461 9.69865 48.3758L10.0334 48.4385L22.7897 51.8985C23.2904 52.0384 23.721 52.3597 23.9977 52.7998C24.2745 53.2398 24.3774 53.7672 24.2865 54.279C24.1957 54.7908 23.9175 55.2505 23.5062 55.5684C23.0949 55.8863 22.58 56.0397 22.0617 55.9987L21.6936 55.9359L15.2631 54.1954C17.8839 57.0921 21.0848 59.4052 24.6577 60.9845C28.2306 62.5637 32.0958 63.3738 36.0021 63.3621C51.3023 63.3621 63.6946 51.1789 63.6946 36.1675C63.6946 35.6127 63.915 35.0806 64.3073 34.6883C64.6996 34.296 65.2317 34.0756 65.7865 34.0756ZM40.688 22.361L51.1433 47.9867H44.5956L42.19 41.6357H30.7264L28.2872 47.9867H21.8567L32.3915 22.361H40.688ZM35.6549 4.78906C45.9596 4.78906 55.3145 10.0774 60.8999 18.5035L61.7617 12.1442C61.8189 11.7208 62.0042 11.3251 62.2929 11.0102C62.5816 10.6953 62.9598 10.4764 63.3767 10.3828L63.7407 10.3326L64.1172 10.3493C64.6025 10.4154 65.0492 10.6497 65.3794 11.0113C65.7097 11.373 65.9026 11.839 65.9246 12.3283L65.9079 12.7048L64.1967 25.2562C64.1567 25.5498 64.0548 25.8315 63.8977 26.0828C63.7407 26.3341 63.532 26.5491 63.2856 26.7137C63.0392 26.8782 62.7606 26.9885 62.4683 27.0373C62.176 27.0861 61.8767 27.0722 61.5902 26.9966L61.268 26.8837L49.2187 21.4698C48.7408 21.2571 48.36 20.8729 48.1514 20.3933C47.9427 19.9136 47.9213 19.3731 48.0915 18.8784C48.2616 18.3838 48.6109 17.9708 49.0705 17.7209C49.5301 17.4711 50.0666 17.4025 50.5743 17.5287L50.9299 17.6542L57.1637 20.4448C52.3105 13.3742 44.3655 8.97285 35.6591 8.97285C21.112 8.97285 9.30537 21.1351 9.30537 36.1675C9.30537 36.7223 9.08498 37.2544 8.69267 37.6467C8.30036 38.039 7.76828 38.2594 7.21348 38.2594C6.65867 38.2594 6.12659 38.039 5.73428 37.6467C5.34198 37.2544 5.12158 36.7223 5.12158 36.1675C5.12158 18.8508 18.7775 4.78906 35.6549 4.78906ZM36.7427 27.2728H36.2573L32.5129 36.9833H40.4035L36.7427 27.2728Z" fill="#2E3A59"/>
</svg>
