<svg viewBox="0 0 21 21" fill="none" xmlns="http://www.w3.org/2000/svg">
<path d="M6.18249 3.37598C5.83347 3.37595 5.6115 3.37594 5.41752 3.39504C3.53819 3.58014 2.05133 5.067 1.86623 6.94633C1.84713 7.1403 1.84714 7.36227 1.84717 7.7113L1.84717 7.75098C1.84717 8.09616 2.12699 8.37598 2.47217 8.37598C2.81735 8.37598 3.09717 8.09616 3.09717 7.75098C3.09717 7.34916 3.09793 7.19356 3.11021 7.06885C3.23686 5.783 4.25419 4.76567 5.54004 4.63902C5.66475 4.62674 5.82035 4.62598 6.22217 4.62598H12.4722C14.0612 4.62598 15.1901 4.62731 16.0465 4.74245C16.8849 4.85517 17.3679 5.06656 17.7206 5.41923C18.0733 5.77191 18.2847 6.25495 18.3974 7.09335C18.5125 7.94974 18.5138 9.07863 18.5138 10.6676C18.5138 12.2567 18.5125 13.3856 18.3974 14.2419C18.2847 15.0803 18.0733 15.5634 17.7206 15.9161C17.3679 16.2687 16.8849 16.4801 16.0465 16.5928C15.1901 16.708 14.0612 16.7093 12.4722 16.7093C12.127 16.7093 11.8472 16.9891 11.8472 17.3343C11.8472 17.6795 12.127 17.9593 12.4722 17.9593H12.5192C14.0506 17.9593 15.2637 17.9593 16.213 17.8317C17.19 17.7003 17.9808 17.4236 18.6045 16.7999C19.2281 16.1763 19.5049 15.3855 19.6362 14.4085C19.7639 13.4592 19.7638 12.2461 19.7638 10.7147V10.6206C19.7638 9.08919 19.7639 7.87613 19.6362 6.92679C19.5049 5.94978 19.2281 5.15899 18.6045 4.53535C17.9808 3.91171 17.19 3.63495 16.213 3.50359C15.2637 3.37596 14.0507 3.37597 12.5192 3.37598L6.18249 3.37598Z" fill="#8F9BB3"/>
<path d="M2.47217 9.20931C2.12699 9.20931 1.84717 9.48914 1.84717 9.83431C1.84717 10.1795 2.12699 10.4593 2.47217 10.4593C6.26913 10.4593 9.34717 13.5374 9.34717 17.3343C9.34717 17.6795 9.62699 17.9593 9.97217 17.9593C10.3173 17.9593 10.5972 17.6795 10.5972 17.3343C10.5972 12.847 6.95949 9.20931 2.47217 9.20931Z" fill="#8F9BB3"/>
<path d="M1.84717 12.3343C1.84717 11.9891 2.12699 11.7093 2.47217 11.7093C5.57877 11.7093 8.09717 14.2277 8.09717 17.3343C8.09717 17.6795 7.81735 17.9593 7.47217 17.9593C7.12699 17.9593 6.84717 17.6795 6.84717 17.3343C6.84717 14.9181 4.88842 12.9593 2.47217 12.9593C2.12699 12.9593 1.84717 12.6795 1.84717 12.3343Z" fill="#8F9BB3"/>
<path d="M2.47217 14.2093C2.12699 14.2093 1.84717 14.4891 1.84717 14.8343C1.84717 15.1795 2.12699 15.4593 2.47217 15.4593C3.50771 15.4593 4.34717 16.2988 4.34717 17.3343C4.34717 17.6795 4.62699 17.9593 4.97217 17.9593C5.31735 17.9593 5.59717 17.6795 5.59717 17.3343C5.59717 15.6084 4.19806 14.2093 2.47217 14.2093Z" fill="#8F9BB3"/>
</svg>
