<svg viewBox="0 0 25 25" fill="none" xmlns="http://www.w3.org/2000/svg">
<path d="M7.22284 4.37643L7.605 5.02175L7.22284 4.37643ZM7.22284 19.9595L6.84067 20.6048L6.84068 20.6048L7.22284 19.9595ZM16.2228 20.3659L16.605 21.0112H16.605L16.2228 20.3659ZM7.909 20.3659L8.29116 19.7205L8.29116 19.7205L7.909 20.3659ZM12.0659 22.168V21.418V22.168ZM16.909 19.9595L16.5268 19.3142H16.5268L16.909 19.9595ZM16.909 4.37643L16.5268 5.02175V5.02175L16.909 4.37643ZM16.2228 3.97008L16.605 3.32475V3.32475L16.2228 3.97008ZM7.909 3.97008L7.52683 3.32475V3.32475L7.909 3.97008ZM15.8407 4.61541L16.5268 5.02175L17.2912 3.7311L16.605 3.32475L15.8407 4.61541ZM20.3159 11.7616V12.5743H21.8159V11.7616H20.3159ZM16.5268 19.3142L15.8407 19.7205L16.605 21.0112L17.2912 20.6048L16.5268 19.3142ZM8.29116 19.7205L7.605 19.3142L6.84068 20.6048L7.52683 21.0112L8.29116 19.7205ZM3.81592 12.5743V11.7616H2.31592V12.5743H3.81592ZM7.605 5.02175L8.29116 4.61541L7.52683 3.32475L6.84067 3.7311L7.605 5.02175ZM3.81592 11.7616C3.81592 10.546 3.81672 9.68681 3.88209 9.00652C3.94597 8.34187 4.06736 7.90725 4.27642 7.53585L2.96926 6.80009C2.62139 7.41811 2.46433 8.07892 2.38897 8.86303C2.31512 9.63151 2.31592 10.5744 2.31592 11.7616H3.81592ZM6.84067 3.7311C5.83895 4.32432 5.04044 4.7962 4.42668 5.24741C3.79906 5.7088 3.31769 6.18108 2.96926 6.80009L4.27642 7.53585C4.48492 7.16543 4.78918 6.84264 5.31515 6.45597C5.85498 6.05911 6.57801 5.62994 7.605 5.02175L6.84067 3.7311ZM7.605 19.3142C6.57801 18.706 5.85498 18.2768 5.31515 17.88C4.78918 17.4933 4.48492 17.1705 4.27642 16.8001L2.96926 17.5358C3.31769 18.1549 3.79906 18.6271 4.42668 19.0885C5.04044 19.5397 5.83895 20.0116 6.84067 20.6048L7.605 19.3142ZM2.31592 12.5743C2.31592 13.7615 2.31512 14.7044 2.38897 15.4729C2.46433 16.257 2.62139 16.9178 2.96926 17.5358L4.27642 16.8001C4.06736 16.4287 3.94597 15.9941 3.88209 15.3294C3.81672 14.6491 3.81592 13.7899 3.81592 12.5743H2.31592ZM15.8407 19.7205C14.8135 20.3288 14.0899 20.7564 13.4853 21.0373C12.8957 21.3112 12.4752 21.418 12.0659 21.418V22.918C12.7705 22.918 13.4141 22.7244 14.1173 22.3976C14.8056 22.0778 15.6034 21.6043 16.605 21.0112L15.8407 19.7205ZM7.52683 21.0112C8.52841 21.6043 9.32627 22.0778 10.0145 22.3976C10.7178 22.7244 11.3613 22.918 12.0659 22.918V21.418C11.6567 21.418 11.2361 21.3112 10.6466 21.0373C10.042 20.7564 9.3183 20.3288 8.29116 19.7205L7.52683 21.0112ZM20.3159 12.5743C20.3159 13.7899 20.3151 14.6491 20.2497 15.3294C20.1859 15.9941 20.0645 16.4287 19.8554 16.8001L21.1626 17.5358C21.5104 16.9178 21.6675 16.257 21.7429 15.4729C21.8167 14.7044 21.8159 13.7615 21.8159 12.5743H20.3159ZM17.2912 20.6048C18.2929 20.0116 19.0914 19.5397 19.7052 19.0885C20.3328 18.6271 20.8141 18.1549 21.1626 17.5358L19.8554 16.8001C19.6469 17.1705 19.3427 17.4933 18.8167 17.88C18.2769 18.2768 17.5538 18.706 16.5268 19.3142L17.2912 20.6048ZM16.5268 5.02175C17.5538 5.62994 18.2769 6.05911 18.8167 6.45597C19.3427 6.84264 19.6469 7.16543 19.8554 7.53585L21.1626 6.80009C20.8141 6.18108 20.3328 5.7088 19.7052 5.24741C19.0914 4.7962 18.2929 4.32432 17.2912 3.7311L16.5268 5.02175ZM21.8159 11.7616C21.8159 10.5744 21.8167 9.63151 21.7429 8.86303C21.6675 8.07892 21.5104 7.41811 21.1626 6.80009L19.8554 7.53585C20.0645 7.90725 20.1859 8.34187 20.2497 9.00652C20.3151 9.68681 20.3159 10.546 20.3159 11.7616H21.8159ZM16.605 3.32475C15.6034 2.73162 14.8056 2.25812 14.1173 1.93833C13.4141 1.61156 12.7705 1.41797 12.0659 1.41797V2.91797C12.4752 2.91797 12.8957 3.02473 13.4853 3.29866C14.0899 3.57958 14.8135 4.00714 15.8407 4.61541L16.605 3.32475ZM8.29116 4.61541C9.3183 4.00714 10.042 3.57958 10.6466 3.29866C11.2361 3.02473 11.6567 2.91797 12.0659 2.91797V1.41797C11.3613 1.41797 10.7178 1.61156 10.0145 1.93833C9.32627 2.25812 8.52841 2.73162 7.52683 3.32475L8.29116 4.61541ZM14.3159 12.168C14.3159 13.4106 13.3086 14.418 12.0659 14.418V15.918C14.137 15.918 15.8159 14.239 15.8159 12.168H14.3159ZM12.0659 14.418C10.8233 14.418 9.81592 13.4106 9.81592 12.168H8.31592C8.31592 14.239 9.99485 15.918 12.0659 15.918V14.418ZM9.81592 12.168C9.81592 10.9253 10.8233 9.91797 12.0659 9.91797V8.41797C9.99485 8.41797 8.31592 10.0969 8.31592 12.168H9.81592ZM12.0659 9.91797C13.3086 9.91797 14.3159 10.9253 14.3159 12.168H15.8159C15.8159 10.0969 14.137 8.41797 12.0659 8.41797V9.91797Z" fill="#8F9BB3"/>
</svg>
