<svg viewBox="0 0 21 21" fill="none" xmlns="http://www.w3.org/2000/svg">
<path fill-rule="evenodd" clip-rule="evenodd" d="M10.7577 1.70996H10.8533C12.777 1.70995 14.2845 1.70994 15.4607 1.86808C16.6647 2.02995 17.6147 2.36773 18.3604 3.11341C19.1061 3.85908 19.4438 4.8091 19.6057 6.01305C19.7639 7.18929 19.7638 8.69682 19.7638 10.6205V10.7161C19.7638 12.6398 19.7639 14.1473 19.6057 15.3235C19.4438 16.5275 19.1061 17.4775 18.3604 18.2232C17.6147 18.9689 16.6647 19.3066 15.4607 19.4685C14.2845 19.6266 12.777 19.6266 10.8533 19.6266H10.7577C8.83403 19.6266 7.3265 19.6266 6.15026 19.4685C4.94631 19.3066 3.99629 18.9689 3.25062 18.2232C2.50494 17.4775 2.16716 16.5275 2.00529 15.3235C1.84715 14.1473 1.84716 12.6398 1.84717 10.7161V10.6205C1.84716 8.69682 1.84715 7.18929 2.00529 6.01305C2.16716 4.8091 2.50494 3.85908 3.25062 3.11341C3.99629 2.36773 4.94631 2.02995 6.15026 1.86808C7.32649 1.70994 8.83402 1.70995 10.7577 1.70996ZM6.31682 3.10694C5.25148 3.25017 4.60921 3.52258 4.1345 3.99729C3.65978 4.472 3.38737 5.11427 3.24414 6.17961C3.0985 7.26292 3.09717 8.68644 3.09717 10.6683C3.09717 12.6501 3.0985 14.0737 3.24414 15.157C3.38737 16.2223 3.65978 16.8646 4.1345 17.3393C4.60921 17.814 5.25148 18.0864 6.31682 18.2297C7.40013 18.3753 8.82365 18.3766 10.8055 18.3766C12.7874 18.3766 14.2109 18.3753 15.2942 18.2297C16.3595 18.0864 17.0018 17.814 17.4765 17.3393C17.9512 16.8646 18.2236 16.2223 18.3669 15.157C18.5125 14.0737 18.5138 12.6501 18.5138 10.6683C18.5138 8.68644 18.5125 7.26292 18.3669 6.17961C18.2236 5.11427 17.9512 4.472 17.4765 3.99729C17.0018 3.52258 16.3595 3.25017 15.2942 3.10694C14.2109 2.96129 12.7874 2.95996 10.8055 2.95996C8.82365 2.95996 7.40013 2.96129 6.31682 3.10694ZM12.8888 6.70996C13.0649 6.70996 13.2328 6.78424 13.3513 6.91454L15.4346 9.20621C15.6668 9.46162 15.648 9.8569 15.3926 10.0891C15.1372 10.3213 14.7419 10.3025 14.5097 10.047L13.5138 8.95159L13.5138 14.0016C13.5138 14.3468 13.234 14.6266 12.8888 14.6266C12.5437 14.6266 12.2638 14.3468 12.2638 14.0016L12.2638 8.95159L11.268 10.047C11.0358 10.3025 10.6405 10.3213 10.3851 10.0891C10.1297 9.8569 10.1108 9.46162 10.343 9.20621L12.4264 6.91454C12.5448 6.78424 12.7127 6.70996 12.8888 6.70996ZM8.72217 6.70996C9.06735 6.70996 9.34717 6.98978 9.34717 7.33496L9.34717 12.385L10.343 11.2895C10.5752 11.0341 10.9705 11.0153 11.2259 11.2475C11.4813 11.4797 11.5002 11.875 11.268 12.1304L9.18463 14.422C9.06618 14.5523 8.89826 14.6266 8.72217 14.6266C8.54608 14.6266 8.37816 14.5523 8.25971 14.422L6.17637 12.1304C5.94418 11.875 5.963 11.4797 6.21841 11.2475C6.47383 11.0153 6.86911 11.0341 7.1013 11.2895L8.09717 12.385L8.09717 7.33496C8.09717 6.98978 8.37699 6.70996 8.72217 6.70996Z" fill="#8F9BB3"/>
</svg>
