<svg viewBox="0 0 73 59" fill="none" xmlns="http://www.w3.org/2000/svg">
<path d="M68.3438 21.086V39.549C68.3438 40.6553 69.2765 41.5884 70.3879 41.5884C71.5039 41.5884 72.4413 40.6553 72.4413 39.549V11.5313C72.4413 9.08868 70.4487 7.04892 67.9312 7.04892H37.7564L30.0254 0.874197C29.6613 0.576822 29.2063 0.413062 28.7362 0.410156H5.01258C2.54658 0.410156 0.502502 2.38872 0.502502 4.89216V53.3518C0.502502 55.799 2.49006 57.8384 5.01258 57.8384H53.7533C54.8693 57.8384 55.8068 56.9053 55.8068 55.799C55.8068 54.6928 54.8693 53.7596 53.7533 53.7596H5.01258C4.77822 53.7596 4.60002 53.5861 4.60002 53.3518V21.086L4.65618 17.0681V4.95336C4.65618 4.719 4.83438 4.54548 5.06874 4.54548H28.0324L35.7685 10.7198C36.131 11.0167 36.5843 11.1806 37.0529 11.1842H67.987C68.2214 11.1842 68.3996 11.3578 68.3996 11.5921V17.0681L68.3438 21.086ZM59.023 55.799C59.023 57.0227 60.0213 58.012 61.2547 58.012C61.6442 58.0106 62.0269 57.9088 62.3656 57.7164C62.617 57.57 62.837 57.3754 63.0129 57.1438C63.1889 56.9122 63.3173 56.6481 63.391 56.3667C63.4646 56.0852 63.4819 55.7921 63.4419 55.5039C63.4019 55.2158 63.3054 54.9384 63.158 54.6877C62.5391 53.6423 61.1985 53.2859 60.1387 53.8817C59.4496 54.2798 59.023 55.0067 59.023 55.799ZM67.8747 55.799C67.8747 57.0227 68.8687 58.012 70.097 58.012C71.3253 58.012 72.3243 57.0227 72.3243 55.799C72.3237 55.41 72.2206 55.028 72.0256 54.6914C71.8305 54.3549 71.5502 54.0756 71.213 53.8817C70.8739 53.6879 70.4901 53.586 70.0995 53.586C69.7089 53.586 69.3251 53.6879 68.986 53.8817C68.6481 54.0748 68.3672 54.3539 68.172 54.6906C67.9768 55.0274 67.8743 55.4098 67.8747 55.799ZM68.0482 48.2275C68.0482 49.4508 69.0469 50.4401 70.2755 50.4401C71.5042 50.4401 72.4978 49.4508 72.4978 48.2275C72.5119 47.0039 71.5226 46.0049 70.2943 45.9959C69.0659 45.9865 68.0579 46.9661 68.0486 48.1901L68.0482 48.2275ZM52.9657 23.777C53.1345 22.4738 52.628 21.2218 52.0372 20.1295L47.2924 25.1742L43.4149 21.5641L48.1031 16.5803C47.1232 16.1724 46.0263 15.7271 44.9153 15.938C40.4096 16.8053 36.8654 19.4495 36.8654 23.777C36.8632 25.4193 37.3892 27.0187 38.3659 28.339L38.0095 27.9826L35.9323 29.8438L28.1077 21.9533L27.4233 18.9152L23.1566 16.8053L21.2813 18.7511L23.2318 23.0178L26.4527 23.4491L34.2683 31.3446C30.0956 35.1001 23.5835 40.9886 20.9393 43.5299C19.9407 44.4958 23.8978 48.4057 24.8918 47.4398C27.6015 44.8097 33.3777 38.3491 37.0677 34.167L39.7961 36.9239C39.7961 36.9239 38.4879 38.4614 38.6942 39.0148C39.6601 41.5844 47.5178 47.6929 47.5178 47.6929L52.8674 42.4139C52.8674 42.4139 46.6552 34.7671 44.0391 33.8012C43.3267 33.5388 41.4698 35.4281 41.4698 35.4281L38.5491 32.484C39.6881 31.1851 40.4103 30.36 40.4103 30.36L40.1194 30.0742C41.4604 31.0444 43.12 31.6164 44.9157 31.6164C49.3649 31.616 52.4311 27.9826 52.9657 23.777ZM24.0008 45.6348C23.8521 45.6352 23.7047 45.6062 23.5672 45.5496C23.4296 45.493 23.3046 45.4099 23.1992 45.3049C23.0938 45.2 23.0102 45.0753 22.953 44.938C22.8958 44.8007 22.8663 44.6535 22.8661 44.5048C22.8661 43.8812 23.3726 43.3747 24.0008 43.3747C24.629 43.3747 25.1351 43.8809 25.1351 44.5048C25.1349 44.6535 25.1054 44.8006 25.0482 44.9379C24.9911 45.0752 24.9075 45.1999 24.8021 45.3048C24.6968 45.4098 24.5718 45.4929 24.4343 45.5495C24.2968 45.6062 24.1495 45.6351 24.0008 45.6348Z" fill="#2E3A59"/>
</svg>
