<svg viewBox="0 0 21 21" fill="none" xmlns="http://www.w3.org/2000/svg">
<path d="M7.58331 10.585L9.24998 12.2516L13.4166 8.08496" stroke="white" stroke-width="1.5" stroke-linecap="round" stroke-linejoin="round"/>
<path d="M3.02465 11.0661C2.75309 10.498 2.75309 9.83748 3.02465 9.26932C3.14207 9.02367 3.34229 8.78873 3.74273 8.31883C3.9021 8.13181 3.98179 8.0383 4.04873 7.93844C4.20217 7.70951 4.30866 7.45241 4.36204 7.18204C4.38532 7.06409 4.3951 6.94162 4.41464 6.69668C4.46375 6.08126 4.48831 5.77355 4.57899 5.51683C4.78871 4.92306 5.25576 4.45601 5.84953 4.24628C6.10626 4.15561 6.41397 4.13105 7.02939 4.08194C7.27432 4.06239 7.39679 4.05262 7.51474 4.02933C7.78512 3.97596 8.04221 3.86946 8.27114 3.71603C8.37101 3.64909 8.46452 3.5694 8.65154 3.41002C9.12143 3.00958 9.35638 2.80936 9.60202 2.69195C10.1702 2.42039 10.8307 2.42039 11.3989 2.69195C11.6445 2.80936 11.8794 3.00958 12.3493 3.41002C12.5364 3.5694 12.6299 3.64909 12.7297 3.71603C12.9587 3.86946 13.2158 3.97596 13.4861 4.02933C13.6041 4.05262 13.7265 4.06239 13.9715 4.08194C14.5869 4.13105 14.8946 4.15561 15.1513 4.24628C15.7451 4.45601 16.2122 4.92306 16.4219 5.51683M4.57899 14.8186C4.78871 15.4124 5.25576 15.8795 5.84953 16.0892C6.10626 16.1799 6.41397 16.2044 7.02939 16.2535C7.27432 16.2731 7.39679 16.2828 7.51474 16.3061C7.78512 16.3595 8.04221 16.466 8.27114 16.6194C8.37101 16.6864 8.46452 16.7661 8.65153 16.9254C9.12143 17.3259 9.35638 17.5261 9.60202 17.6435C10.1702 17.9151 10.8307 17.9151 11.3989 17.6435C11.6445 17.5261 11.8794 17.3259 12.3493 16.9254C12.5364 16.7661 12.6299 16.6864 12.7297 16.6194C12.9587 16.466 13.2158 16.3595 13.4861 16.3061C13.6041 16.2828 13.7265 16.2731 13.9715 16.2535C14.5869 16.2044 14.8946 16.1799 15.1513 16.0892C15.7451 15.8795 16.2122 15.4124 16.4219 14.8186C16.5126 14.5619 16.5371 14.2542 16.5862 13.6388C16.6058 13.3938 16.6156 13.2714 16.6388 13.1534C16.6922 12.8831 16.7987 12.626 16.9521 12.397C17.0191 12.2972 17.0988 12.2037 17.2581 12.0166C17.6586 11.5467 17.8588 11.3118 17.9762 11.0661C18.2478 10.498 18.2478 9.83748 17.9762 9.26932" stroke="white" stroke-width="1.5" stroke-linecap="round"/>
</svg>
